solid 35mm_standoff_17
  facet normal 0.0 -0.0 -1.0
    outer loop
      vertex 7.5E-4 -0.0012990381 -0.0175
      vertex 0.0015 -0.0025980761 -0.0175
      vertex -4.2491542E-19 -0.0015 -0.0175
    endloop
  endfacet
  facet normal -0.0 0.0 -1.0
    outer loop
      vertex 0.0015 -0.0025980761 -0.0175
      vertex -3.2156264E-18 -0.003 -0.0175
      vertex -4.2491542E-19 -0.0015 -0.0175
    endloop
  endfacet
  facet normal -0.0 0.0 -1.0
    outer loop
      vertex -4.2491542E-19 -0.0015 -0.0175
      vertex -3.2156264E-18 -0.003 -0.0175
      vertex -7.5E-4 -0.0012990381 -0.0175
    endloop
  endfacet
  facet normal 0.0 0.0 -1.0
    outer loop
      vertex -3.2156264E-18 -0.003 -0.0175
      vertex -0.0015 -0.0025980761 -0.0175
      vertex -7.5E-4 -0.0012990381 -0.0175
    endloop
  endfacet
  facet normal -0.0 0.0 -1.0
    outer loop
      vertex -7.5E-4 -0.0012990381 -0.0175
      vertex -0.0015 -0.0025980761 -0.0175
      vertex -0.0012990381 -7.5E-4 -0.0175
    endloop
  endfacet
  facet normal 0.0 0.0 -1.0
    outer loop
      vertex -0.0015 -0.0025980761 -0.0175
      vertex -0.0025980761 -0.0015 -0.0175
      vertex -0.0012990381 -7.5E-4 -0.0175
    endloop
  endfacet
  facet normal -0.0 0.0 -1.0
    outer loop
      vertex -0.0012990381 -7.5E-4 -0.0175
      vertex -0.0025980761 -0.0015 -0.0175
      vertex -0.0015 0.0 -0.0175
    endloop
  endfacet
  facet normal 0.0 0.0 -1.0
    outer loop
      vertex -0.0025980761 -0.0015 -0.0175
      vertex -0.003 1.6996617E-18 -0.0175
      vertex -0.0015 0.0 -0.0175
    endloop
  endfacet
  facet normal 0.0 0.0 -1.0
    outer loop
      vertex -0.0015 0.0 -0.0175
      vertex -0.003 1.6996617E-18 -0.0175
      vertex -0.0012990381 7.5E-4 -0.0175
    endloop
  endfacet
  facet normal 0.0 0.0 -1.0
    outer loop
      vertex -0.003 1.6996617E-18 -0.0175
      vertex -0.0025980761 0.0015 -0.0175
      vertex -0.0012990381 7.5E-4 -0.0175
    endloop
  endfacet
  facet normal 0.0 0.0 -1.0
    outer loop
      vertex -0.0012990381 7.5E-4 -0.0175
      vertex -0.0025980761 0.0015 -0.0175
      vertex -7.5E-4 0.0012990381 -0.0175
    endloop
  endfacet
  facet normal 0.0 0.0 -1.0
    outer loop
      vertex -0.0025980761 0.0015 -0.0175
      vertex -0.0015 0.0025980761 -0.0175
      vertex -7.5E-4 0.0012990381 -0.0175
    endloop
  endfacet
  facet normal 0.0 0.0 -1.0
    outer loop
      vertex -7.5E-4 0.0012990381 -0.0175
      vertex -0.0015 0.0025980761 -0.0175
      vertex 1.6078132E-18 0.0015 -0.0175
    endloop
  endfacet
  facet normal 0.0 0.0 -1.0
    outer loop
      vertex -0.0015 0.0025980761 -0.0175
      vertex 8.4983083E-19 0.003 -0.0175
      vertex 1.6078132E-18 0.0015 -0.0175
    endloop
  endfacet
  facet normal 0.0 0.0 -1.0
    outer loop
      vertex 1.6078132E-18 0.0015 -0.0175
      vertex 8.4983083E-19 0.003 -0.0175
      vertex 7.5E-4 0.0012990381 -0.0175
    endloop
  endfacet
  facet normal 0.0 0.0 -1.0
    outer loop
      vertex 8.4983083E-19 0.003 -0.0175
      vertex 0.0015 0.0025980761 -0.0175
      vertex 7.5E-4 0.0012990381 -0.0175
    endloop
  endfacet
  facet normal 0.0 0.0 -1.0
    outer loop
      vertex 7.5E-4 0.0012990381 -0.0175
      vertex 0.0015 0.0025980761 -0.0175
      vertex 0.0012990381 7.5E-4 -0.0175
    endloop
  endfacet
  facet normal 0.0 -0.0 -1.0
    outer loop
      vertex 0.0015 0.0025980761 -0.0175
      vertex 0.0025980761 0.0015 -0.0175
      vertex 0.0012990381 7.5E-4 -0.0175
    endloop
  endfacet
  facet normal 0.0 0.0 -1.0
    outer loop
      vertex 0.0012990381 7.5E-4 -0.0175
      vertex 0.0025980761 0.0015 -0.0175
      vertex 0.0015 -8.4983083E-19 -0.0175
    endloop
  endfacet
  facet normal 0.0 -0.0 -1.0
    outer loop
      vertex 0.0025980761 0.0015 -0.0175
      vertex 0.003 -7.3478805E-19 -0.0175
      vertex 0.0015 -8.4983083E-19 -0.0175
    endloop
  endfacet
  facet normal 0.0 -0.0 -1.0
    outer loop
      vertex 0.0015 -8.4983083E-19 -0.0175
      vertex 0.003 -7.3478805E-19 -0.0175
      vertex 0.0012990381 -7.5E-4 -0.0175
    endloop
  endfacet
  facet normal 0.0 0.0 -1.0
    outer loop
      vertex 0.003 -7.3478805E-19 -0.0175
      vertex 0.0025980761 -0.0015 -0.0175
      vertex 0.0012990381 -7.5E-4 -0.0175
    endloop
  endfacet
  facet normal 0.0 -0.0 -1.0
    outer loop
      vertex 0.0012990381 -7.5E-4 -0.0175
      vertex 0.0025980761 -0.0015 -0.0175
      vertex 7.5E-4 -0.0012990381 -0.0175
    endloop
  endfacet
  facet normal -0.0 0.0 -1.0
    outer loop
      vertex 0.0025980761 -0.0015 -0.0175
      vertex 0.0015 -0.0025980761 -0.0175
      vertex 7.5E-4 -0.0012990381 -0.0175
    endloop
  endfacet
  facet normal 0.9659258244613247 0.2588190519237524 -2.716816415058475E-18
    outer loop
      vertex -0.0015 0.0 -0.0175
      vertex -0.0015 3.6739403E-19 0.0175
      vertex -0.0012990381 -7.5E-4 -0.0175
    endloop
  endfacet
  facet normal 0.9659258244613247 0.2588190519237523 0.0
    outer loop
      vertex -0.0015 3.6739403E-19 0.0175
      vertex -0.0012990381 -7.5E-4 0.0175
      vertex -0.0012990381 -7.5E-4 -0.0175
    endloop
  endfacet
  facet normal 0.7071067811865475 0.7071067811865475 -0.0
    outer loop
      vertex -0.0012990381 -7.5E-4 -0.0175
      vertex -0.0012990381 -7.5E-4 0.0175
      vertex -7.5E-4 -0.0012990381 -0.0175
    endloop
  endfacet
  facet normal 0.7071067811865475 0.7071067811865475 0.0
    outer loop
      vertex -0.0012990381 -7.5E-4 0.0175
      vertex -7.5E-4 -0.0012990381 0.0175
      vertex -7.5E-4 -0.0012990381 -0.0175
    endloop
  endfacet
  facet normal 0.25881905192375254 0.9659258244613247 -0.0
    outer loop
      vertex -7.5E-4 -0.0012990381 -0.0175
      vertex -7.5E-4 -0.0012990381 0.0175
      vertex -4.2491542E-19 -0.0015 -0.0175
    endloop
  endfacet
  facet normal 0.25881905192375254 0.9659258244613247 0.0
    outer loop
      vertex -7.5E-4 -0.0012990381 0.0175
      vertex -4.2491542E-19 -0.0015 0.0175
      vertex -4.2491542E-19 -0.0015 -0.0175
    endloop
  endfacet
  facet normal -0.2588190519237523 0.9659258244613248 0.0
    outer loop
      vertex -4.2491542E-19 -0.0015 -0.0175
      vertex -4.2491542E-19 -0.0015 0.0175
      vertex 7.5E-4 -0.0012990381 -0.0175
    endloop
  endfacet
  facet normal -0.2588190519237523 0.9659258244613248 0.0
    outer loop
      vertex -4.2491542E-19 -0.0015 0.0175
      vertex 7.5E-4 -0.0012990381 0.0175
      vertex 7.5E-4 -0.0012990381 -0.0175
    endloop
  endfacet
  facet normal -0.7071067811865475 0.7071067811865475 0.0
    outer loop
      vertex 7.5E-4 -0.0012990381 -0.0175
      vertex 7.5E-4 -0.0012990381 0.0175
      vertex 0.0012990381 -7.5E-4 -0.0175
    endloop
  endfacet
  facet normal -0.7071067811865475 0.7071067811865475 0.0
    outer loop
      vertex 7.5E-4 -0.0012990381 0.0175
      vertex 0.0012990381 -7.5E-4 0.0175
      vertex 0.0012990381 -7.5E-4 -0.0175
    endloop
  endfacet
  facet normal -0.9659258244613246 0.2588190519237527 0.0
    outer loop
      vertex 0.0012990381 -7.5E-4 -0.0175
      vertex 0.0012990381 -7.5E-4 0.0175
      vertex 0.0015 -8.4983083E-19 -0.0175
    endloop
  endfacet
  facet normal -0.9659258244613246 0.2588190519237527 0.0
    outer loop
      vertex 0.0012990381 -7.5E-4 0.0175
      vertex 0.0015 -8.4983083E-19 0.0175
      vertex 0.0015 -8.4983083E-19 -0.0175
    endloop
  endfacet
  facet normal -0.9659258244613248 -0.25881905192375215 0.0
    outer loop
      vertex 0.0015 -8.4983083E-19 -0.0175
      vertex 0.0015 -8.4983083E-19 0.0175
      vertex 0.0012990381 7.5E-4 -0.0175
    endloop
  endfacet
  facet normal -0.9659258244613248 -0.25881905192375215 0.0
    outer loop
      vertex 0.0015 -8.4983083E-19 0.0175
      vertex 0.0012990381 7.5E-4 0.0175
      vertex 0.0012990381 7.5E-4 -0.0175
    endloop
  endfacet
  facet normal -0.7071067811865475 -0.7071067811865475 0.0
    outer loop
      vertex 0.0012990381 7.5E-4 -0.0175
      vertex 0.0012990381 7.5E-4 0.0175
      vertex 7.5E-4 0.0012990381 -0.0175
    endloop
  endfacet
  facet normal -0.7071067811865475 -0.7071067811865475 0.0
    outer loop
      vertex 0.0012990381 7.5E-4 0.0175
      vertex 7.5E-4 0.0012990381 0.0175
      vertex 7.5E-4 0.0012990381 -0.0175
    endloop
  endfacet
  facet normal -0.25881905192375293 -0.9659258244613246 0.0
    outer loop
      vertex 7.5E-4 0.0012990381 -0.0175
      vertex 7.5E-4 0.0012990381 0.0175
      vertex 1.6078132E-18 0.0015 -0.0175
    endloop
  endfacet
  facet normal -0.25881905192375293 -0.9659258244613246 0.0
    outer loop
      vertex 7.5E-4 0.0012990381 0.0175
      vertex 1.6078132E-18 0.0015 0.0175
      vertex 1.6078132E-18 0.0015 -0.0175
    endloop
  endfacet
  facet normal 0.25881905192375193 -0.9659258244613249 0.0
    outer loop
      vertex 1.6078132E-18 0.0015 -0.0175
      vertex 1.6078132E-18 0.0015 0.0175
      vertex -7.5E-4 0.0012990381 -0.0175
    endloop
  endfacet
  facet normal 0.25881905192375193 -0.9659258244613249 0.0
    outer loop
      vertex 1.6078132E-18 0.0015 0.0175
      vertex -7.5E-4 0.0012990381 0.0175
      vertex -7.5E-4 0.0012990381 -0.0175
    endloop
  endfacet
  facet normal 0.7071067811865475 -0.7071067811865475 0.0
    outer loop
      vertex -7.5E-4 0.0012990381 -0.0175
      vertex -7.5E-4 0.0012990381 0.0175
      vertex -0.0012990381 7.5E-4 -0.0175
    endloop
  endfacet
  facet normal 0.7071067811865475 -0.7071067811865475 0.0
    outer loop
      vertex -7.5E-4 0.0012990381 0.0175
      vertex -0.0012990381 7.5E-4 0.0175
      vertex -0.0012990381 7.5E-4 -0.0175
    endloop
  endfacet
  facet normal 0.9659258244613247 -0.2588190519237524 0.0
    outer loop
      vertex -0.0012990381 7.5E-4 -0.0175
      vertex -0.0012990381 7.5E-4 0.0175
      vertex -0.0015 0.0 -0.0175
    endloop
  endfacet
  facet normal 0.9659258244613247 -0.25881905192375254 2.9220392782947E-18
    outer loop
      vertex -0.0012990381 7.5E-4 0.0175
      vertex -0.0015 3.6739403E-19 0.0175
      vertex -0.0015 0.0 -0.0175
    endloop
  endfacet
  facet normal 0.9659258083625589 0.2588191120051549 0.0
    outer loop
      vertex 0.003 0.0 0.0175
      vertex 0.0025980761 0.0015 -0.0175
      vertex 0.0025980761 0.0015 0.0175
    endloop
  endfacet
  facet normal 0.7071067811865476 0.7071067811865476 -0.0
    outer loop
      vertex 0.0025980761 0.0015 -0.0175
      vertex 0.0015 0.0025980761 -0.0175
      vertex 0.0025980761 0.0015 0.0175
    endloop
  endfacet
  facet normal 0.7071067811865476 0.7071067811865476 0.0
    outer loop
      vertex 0.0025980761 0.0015 0.0175
      vertex 0.0015 0.0025980761 -0.0175
      vertex 0.0015 0.0025980761 0.0175
    endloop
  endfacet
  facet normal 0.25881911200515506 0.9659258083625589 -0.0
    outer loop
      vertex 0.0015 0.0025980761 -0.0175
      vertex 8.4983083E-19 0.003 -0.0175
      vertex 0.0015 0.0025980761 0.0175
    endloop
  endfacet
  facet normal 0.25881911200515506 0.9659258083625589 0.0
    outer loop
      vertex 0.0015 0.0025980761 0.0175
      vertex 8.4983083E-19 0.003 -0.0175
      vertex 8.4983083E-19 0.003 0.0175
    endloop
  endfacet
  facet normal -0.25881911200515484 0.9659258083625591 0.0
    outer loop
      vertex 8.4983083E-19 0.003 -0.0175
      vertex -0.0015 0.0025980761 -0.0175
      vertex 8.4983083E-19 0.003 0.0175
    endloop
  endfacet
  facet normal -0.25881911200515484 0.9659258083625591 0.0
    outer loop
      vertex 8.4983083E-19 0.003 0.0175
      vertex -0.0015 0.0025980761 -0.0175
      vertex -0.0015 0.0025980761 0.0175
    endloop
  endfacet
  facet normal -0.7071067811865476 0.7071067811865476 0.0
    outer loop
      vertex -0.0015 0.0025980761 -0.0175
      vertex -0.0025980761 0.0015 -0.0175
      vertex -0.0015 0.0025980761 0.0175
    endloop
  endfacet
  facet normal -0.7071067811865476 0.7071067811865476 0.0
    outer loop
      vertex -0.0015 0.0025980761 0.0175
      vertex -0.0025980761 0.0015 -0.0175
      vertex -0.0025980761 0.0015 0.0175
    endloop
  endfacet
  facet normal -0.9659258083625589 0.2588191120051552 0.0
    outer loop
      vertex -0.0025980761 0.0015 -0.0175
      vertex -0.003 1.6996617E-18 -0.0175
      vertex -0.0025980761 0.0015 0.0175
    endloop
  endfacet
  facet normal -0.9659258083625589 0.2588191120051552 0.0
    outer loop
      vertex -0.0025980761 0.0015 0.0175
      vertex -0.003 1.6996617E-18 -0.0175
      vertex -0.003 1.6996617E-18 0.0175
    endloop
  endfacet
  facet normal -0.9659258083625591 -0.2588191120051547 0.0
    outer loop
      vertex -0.003 1.6996617E-18 -0.0175
      vertex -0.0025980761 -0.0015 -0.0175
      vertex -0.003 1.6996617E-18 0.0175
    endloop
  endfacet
  facet normal -0.9659258083625591 -0.2588191120051547 0.0
    outer loop
      vertex -0.003 1.6996617E-18 0.0175
      vertex -0.0025980761 -0.0015 -0.0175
      vertex -0.0025980761 -0.0015 0.0175
    endloop
  endfacet
  facet normal -0.7071067811865476 -0.7071067811865476 0.0
    outer loop
      vertex -0.0025980761 -0.0015 -0.0175
      vertex -0.0015 -0.0025980761 -0.0175
      vertex -0.0025980761 -0.0015 0.0175
    endloop
  endfacet
  facet normal -0.7071067811865476 -0.7071067811865476 0.0
    outer loop
      vertex -0.0025980761 -0.0015 0.0175
      vertex -0.0015 -0.0025980761 -0.0175
      vertex -0.0015 -0.0025980761 0.0175
    endloop
  endfacet
  facet normal -0.25881911200515545 -0.9659258083625589 0.0
    outer loop
      vertex -0.0015 -0.0025980761 -0.0175
      vertex -3.2156264E-18 -0.003 -0.0175
      vertex -0.0015 -0.0025980761 0.0175
    endloop
  endfacet
  facet normal -0.25881911200515545 -0.9659258083625589 0.0
    outer loop
      vertex -0.0015 -0.0025980761 0.0175
      vertex -3.2156264E-18 -0.003 -0.0175
      vertex -3.2156264E-18 -0.003 0.0175
    endloop
  endfacet
  facet normal 0.25881911200515445 -0.9659258083625591 0.0
    outer loop
      vertex -3.2156264E-18 -0.003 -0.0175
      vertex 0.0015 -0.0025980761 -0.0175
      vertex -3.2156264E-18 -0.003 0.0175
    endloop
  endfacet
  facet normal 0.25881911200515445 -0.9659258083625591 0.0
    outer loop
      vertex -3.2156264E-18 -0.003 0.0175
      vertex 0.0015 -0.0025980761 -0.0175
      vertex 0.0015 -0.0025980761 0.0175
    endloop
  endfacet
  facet normal 0.7071067811865476 -0.7071067811865476 0.0
    outer loop
      vertex 0.0015 -0.0025980761 -0.0175
      vertex 0.0025980761 -0.0015 -0.0175
      vertex 0.0015 -0.0025980761 0.0175
    endloop
  endfacet
  facet normal 0.7071067811865476 -0.7071067811865476 0.0
    outer loop
      vertex 0.0015 -0.0025980761 0.0175
      vertex 0.0025980761 -0.0015 -0.0175
      vertex 0.0025980761 -0.0015 0.0175
    endloop
  endfacet
  facet normal 0.9659258083625589 -0.25881911200515506 0.0
    outer loop
      vertex 0.0025980761 -0.0015 -0.0175
      vertex 0.003 -7.3478805E-19 -0.0175
      vertex 0.0025980761 -0.0015 0.0175
    endloop
  endfacet
  facet normal 0.9659258083625589 -0.2588191120051549 3.8960523061253844E-18
    outer loop
      vertex 0.0025980761 -0.0015 0.0175
      vertex 0.003 -7.3478805E-19 -0.0175
      vertex 0.003 0.0 0.0175
    endloop
  endfacet
  facet normal 0.9659258083625591 0.25881911200515484 -5.4336340175142664E-18
    outer loop
      vertex 0.003 -7.3478805E-19 -0.0175
      vertex 0.0025980761 0.0015 -0.0175
      vertex 0.003 0.0 0.0175
    endloop
  endfacet
  facet normal 0.0 0.0 1.0
    outer loop
      vertex -0.0012990381 -7.5E-4 0.0175
      vertex -0.0025980761 -0.0015 0.0175
      vertex -7.5E-4 -0.0012990381 0.0175
    endloop
  endfacet
  facet normal -0.0 0.0 1.0
    outer loop
      vertex -0.0025980761 -0.0015 0.0175
      vertex -0.0015 -0.0025980761 0.0175
      vertex -7.5E-4 -0.0012990381 0.0175
    endloop
  endfacet
  facet normal 0.0 0.0 1.0
    outer loop
      vertex -7.5E-4 -0.0012990381 0.0175
      vertex -0.0015 -0.0025980761 0.0175
      vertex -4.2491542E-19 -0.0015 0.0175
    endloop
  endfacet
  facet normal -0.0 0.0 1.0
    outer loop
      vertex -0.0015 -0.0025980761 0.0175
      vertex -3.2156264E-18 -0.003 0.0175
      vertex -4.2491542E-19 -0.0015 0.0175
    endloop
  endfacet
  facet normal -0.0 0.0 1.0
    outer loop
      vertex -4.2491542E-19 -0.0015 0.0175
      vertex -3.2156264E-18 -0.003 0.0175
      vertex 7.5E-4 -0.0012990381 0.0175
    endloop
  endfacet
  facet normal 0.0 0.0 1.0
    outer loop
      vertex -3.2156264E-18 -0.003 0.0175
      vertex 0.0015 -0.0025980761 0.0175
      vertex 7.5E-4 -0.0012990381 0.0175
    endloop
  endfacet
  facet normal -0.0 0.0 1.0
    outer loop
      vertex 7.5E-4 -0.0012990381 0.0175
      vertex 0.0015 -0.0025980761 0.0175
      vertex 0.0012990381 -7.5E-4 0.0175
    endloop
  endfacet
  facet normal 0.0 -0.0 1.0
    outer loop
      vertex 0.0015 -0.0025980761 0.0175
      vertex 0.0025980761 -0.0015 0.0175
      vertex 0.0012990381 -7.5E-4 0.0175
    endloop
  endfacet
  facet normal -0.0 0.0 1.0
    outer loop
      vertex 0.0012990381 -7.5E-4 0.0175
      vertex 0.0025980761 -0.0015 0.0175
      vertex 0.0015 -8.4983083E-19 0.0175
    endloop
  endfacet
  facet normal 0.0 -0.0 1.0
    outer loop
      vertex 0.0025980761 -0.0015 0.0175
      vertex 0.003 0.0 0.0175
      vertex 0.0015 -8.4983083E-19 0.0175
    endloop
  endfacet
  facet normal 0.0 -0.0 1.0
    outer loop
      vertex 0.0015 -8.4983083E-19 0.0175
      vertex 0.003 0.0 0.0175
      vertex 0.0012990381 7.5E-4 0.0175
    endloop
  endfacet
  facet normal 0.0 0.0 1.0
    outer loop
      vertex 0.003 0.0 0.0175
      vertex 0.0025980761 0.0015 0.0175
      vertex 0.0012990381 7.5E-4 0.0175
    endloop
  endfacet
  facet normal 0.0 -0.0 1.0
    outer loop
      vertex 0.0012990381 7.5E-4 0.0175
      vertex 0.0025980761 0.0015 0.0175
      vertex 7.5E-4 0.0012990381 0.0175
    endloop
  endfacet
  facet normal 0.0 0.0 1.0
    outer loop
      vertex 0.0025980761 0.0015 0.0175
      vertex 0.0015 0.0025980761 0.0175
      vertex 7.5E-4 0.0012990381 0.0175
    endloop
  endfacet
  facet normal 0.0 -0.0 1.0
    outer loop
      vertex 7.5E-4 0.0012990381 0.0175
      vertex 0.0015 0.0025980761 0.0175
      vertex 1.6078132E-18 0.0015 0.0175
    endloop
  endfacet
  facet normal 0.0 0.0 1.0
    outer loop
      vertex 0.0015 0.0025980761 0.0175
      vertex 8.4983083E-19 0.003 0.0175
      vertex 1.6078132E-18 0.0015 0.0175
    endloop
  endfacet
  facet normal 0.0 0.0 1.0
    outer loop
      vertex 1.6078132E-18 0.0015 0.0175
      vertex 8.4983083E-19 0.003 0.0175
      vertex -7.5E-4 0.0012990381 0.0175
    endloop
  endfacet
  facet normal 0.0 0.0 1.0
    outer loop
      vertex 8.4983083E-19 0.003 0.0175
      vertex -0.0015 0.0025980761 0.0175
      vertex -7.5E-4 0.0012990381 0.0175
    endloop
  endfacet
  facet normal 0.0 0.0 1.0
    outer loop
      vertex -7.5E-4 0.0012990381 0.0175
      vertex -0.0015 0.0025980761 0.0175
      vertex -0.0012990381 7.5E-4 0.0175
    endloop
  endfacet
  facet normal 0.0 0.0 1.0
    outer loop
      vertex -0.0015 0.0025980761 0.0175
      vertex -0.0025980761 0.0015 0.0175
      vertex -0.0012990381 7.5E-4 0.0175
    endloop
  endfacet
  facet normal 0.0 0.0 1.0
    outer loop
      vertex -0.0012990381 7.5E-4 0.0175
      vertex -0.0025980761 0.0015 0.0175
      vertex -0.0015 3.6739403E-19 0.0175
    endloop
  endfacet
  facet normal 0.0 0.0 1.0
    outer loop
      vertex -0.0025980761 0.0015 0.0175
      vertex -0.003 1.6996617E-18 0.0175
      vertex -0.0015 3.6739403E-19 0.0175
    endloop
  endfacet
  facet normal 0.0 0.0 1.0
    outer loop
      vertex -0.0015 3.6739403E-19 0.0175
      vertex -0.003 1.6996617E-18 0.0175
      vertex -0.0012990381 -7.5E-4 0.0175
    endloop
  endfacet
  facet normal 0.0 0.0 1.0
    outer loop
      vertex -0.003 1.6996617E-18 0.0175
      vertex -0.0025980761 -0.0015 0.0175
      vertex -0.0012990381 -7.5E-4 0.0175
    endloop
  endfacet
endsolid 35mm_standoff_17
