solid 6805_1
  facet normal -1.0 0.0 -0.0
    outer loop
      vertex -0.0035 0.00625 -0.010825317
      vertex -0.0035 0.00925 -0.01602147
      vertex -0.0035 -3.5409617E-18 -0.0125
    endloop
  endfacet
  facet normal -1.0 -0.0 0.0
    outer loop
      vertex -0.0035 0.00925 -0.01602147
      vertex -0.0035 -1.9829696E-17 -0.0185
      vertex -0.0035 -3.5409617E-18 -0.0125
    endloop
  endfacet
  facet normal -1.0 -0.0 0.0
    outer loop
      vertex -0.0035 -3.5409617E-18 -0.0125
      vertex -0.0035 -1.9829696E-17 -0.0185
      vertex -0.0035 -0.00625 -0.010825317
    endloop
  endfacet
  facet normal -1.0 0.0 0.0
    outer loop
      vertex -0.0035 -1.9829696E-17 -0.0185
      vertex -0.0035 -0.00925 -0.01602147
      vertex -0.0035 -0.00625 -0.010825317
    endloop
  endfacet
  facet normal -1.0 -0.0 0.0
    outer loop
      vertex -0.0035 -0.00625 -0.010825317
      vertex -0.0035 -0.00925 -0.01602147
      vertex -0.0035 -0.010825317 -0.00625
    endloop
  endfacet
  facet normal -1.0 0.0 0.0
    outer loop
      vertex -0.0035 -0.00925 -0.01602147
      vertex -0.0035 -0.01602147 -0.00925
      vertex -0.0035 -0.010825317 -0.00625
    endloop
  endfacet
  facet normal -1.0 -0.0 0.0
    outer loop
      vertex -0.0035 -0.010825317 -0.00625
      vertex -0.0035 -0.01602147 -0.00925
      vertex -0.0035 -0.0125 0.0
    endloop
  endfacet
  facet normal -1.0 0.0 0.0
    outer loop
      vertex -0.0035 -0.01602147 -0.00925
      vertex -0.0035 -0.0185 1.0481247E-17
      vertex -0.0035 -0.0125 0.0
    endloop
  endfacet
  facet normal -1.0 0.0 0.0
    outer loop
      vertex -0.0035 -0.0125 0.0
      vertex -0.0035 -0.0185 1.0481247E-17
      vertex -0.0035 -0.010825317 0.00625
    endloop
  endfacet
  facet normal -1.0 0.0 0.0
    outer loop
      vertex -0.0035 -0.0185 1.0481247E-17
      vertex -0.0035 -0.01602147 0.00925
      vertex -0.0035 -0.010825317 0.00625
    endloop
  endfacet
  facet normal -1.0 0.0 0.0
    outer loop
      vertex -0.0035 -0.010825317 0.00625
      vertex -0.0035 -0.01602147 0.00925
      vertex -0.0035 -0.00625 0.010825317
    endloop
  endfacet
  facet normal -1.0 0.0 0.0
    outer loop
      vertex -0.0035 -0.01602147 0.00925
      vertex -0.0035 -0.00925 0.01602147
      vertex -0.0035 -0.00625 0.010825317
    endloop
  endfacet
  facet normal -1.0 0.0 0.0
    outer loop
      vertex -0.0035 -0.00625 0.010825317
      vertex -0.0035 -0.00925 0.01602147
      vertex -0.0035 1.3398443E-17 0.0125
    endloop
  endfacet
  facet normal -1.0 0.0 0.0
    outer loop
      vertex -0.0035 -0.00925 0.01602147
      vertex -0.0035 5.2406235E-18 0.0185
      vertex -0.0035 1.3398443E-17 0.0125
    endloop
  endfacet
  facet normal -1.0 0.0 0.0
    outer loop
      vertex -0.0035 1.3398443E-17 0.0125
      vertex -0.0035 5.2406235E-18 0.0185
      vertex -0.0035 0.00625 0.010825317
    endloop
  endfacet
  facet normal -1.0 0.0 0.0
    outer loop
      vertex -0.0035 5.2406235E-18 0.0185
      vertex -0.0035 0.00925 0.01602147
      vertex -0.0035 0.00625 0.010825317
    endloop
  endfacet
  facet normal -1.0 0.0 0.0
    outer loop
      vertex -0.0035 0.00625 0.010825317
      vertex -0.0035 0.00925 0.01602147
      vertex -0.0035 0.010825317 0.00625
    endloop
  endfacet
  facet normal -1.0 0.0 0.0
    outer loop
      vertex -0.0035 0.00925 0.01602147
      vertex -0.0035 0.01602147 0.00925
      vertex -0.0035 0.010825317 0.00625
    endloop
  endfacet
  facet normal -1.0 0.0 0.0
    outer loop
      vertex -0.0035 0.010825317 0.00625
      vertex -0.0035 0.01602147 0.00925
      vertex -0.0035 0.0125 -7.081923E-18
    endloop
  endfacet
  facet normal -1.0 0.0 -0.0
    outer loop
      vertex -0.0035 0.01602147 0.00925
      vertex -0.0035 0.0185 -4.5311932E-18
      vertex -0.0035 0.0125 -7.081923E-18
    endloop
  endfacet
  facet normal -1.0 0.0 -0.0
    outer loop
      vertex -0.0035 0.0125 -7.081923E-18
      vertex -0.0035 0.0185 -4.5311932E-18
      vertex -0.0035 0.010825317 -0.00625
    endloop
  endfacet
  facet normal -1.0 0.0 0.0
    outer loop
      vertex -0.0035 0.0185 -4.5311932E-18
      vertex -0.0035 0.01602147 -0.00925
      vertex -0.0035 0.010825317 -0.00625
    endloop
  endfacet
  facet normal -1.0 0.0 -0.0
    outer loop
      vertex -0.0035 0.010825317 -0.00625
      vertex -0.0035 0.01602147 -0.00925
      vertex -0.0035 0.00625 -0.010825317
    endloop
  endfacet
  facet normal -1.0 0.0 0.0
    outer loop
      vertex -0.0035 0.01602147 -0.00925
      vertex -0.0035 0.00925 -0.01602147
      vertex -0.0035 0.00625 -0.010825317
    endloop
  endfacet
  facet normal -1.1320071857559063E-16 0.9659258051428053 0.2588191240214352
    outer loop
      vertex -0.0035 -0.0125 0.0
      vertex 0.0035 -0.0125 3.061617E-18
      vertex -0.0035 -0.010825317 -0.00625
    endloop
  endfacet
  facet normal 0.0 0.9659258051428053 0.2588191240214351
    outer loop
      vertex 0.0035 -0.0125 3.061617E-18
      vertex 0.0035 -0.010825317 -0.00625
      vertex -0.0035 -0.010825317 -0.00625
    endloop
  endfacet
  facet normal -0.0 0.7071067811865476 0.7071067811865476
    outer loop
      vertex -0.0035 -0.010825317 -0.00625
      vertex 0.0035 -0.010825317 -0.00625
      vertex -0.0035 -0.00625 -0.010825317
    endloop
  endfacet
  facet normal 0.0 0.7071067811865476 0.7071067811865476
    outer loop
      vertex 0.0035 -0.010825317 -0.00625
      vertex 0.0035 -0.00625 -0.010825317
      vertex -0.0035 -0.00625 -0.010825317
    endloop
  endfacet
  facet normal -0.0 0.25881912402143537 0.9659258051428053
    outer loop
      vertex -0.0035 -0.00625 -0.010825317
      vertex 0.0035 -0.00625 -0.010825317
      vertex -0.0035 -3.5409617E-18 -0.0125
    endloop
  endfacet
  facet normal 0.0 0.25881912402143537 0.9659258051428053
    outer loop
      vertex 0.0035 -0.00625 -0.010825317
      vertex 0.0035 -3.5409617E-18 -0.0125
      vertex -0.0035 -3.5409617E-18 -0.0125
    endloop
  endfacet
  facet normal 0.0 -0.2588191240214351 0.9659258051428053
    outer loop
      vertex -0.0035 -3.5409617E-18 -0.0125
      vertex 0.0035 -3.5409617E-18 -0.0125
      vertex -0.0035 0.00625 -0.010825317
    endloop
  endfacet
  facet normal 0.0 -0.2588191240214351 0.9659258051428053
    outer loop
      vertex 0.0035 -3.5409617E-18 -0.0125
      vertex 0.0035 0.00625 -0.010825317
      vertex -0.0035 0.00625 -0.010825317
    endloop
  endfacet
  facet normal 0.0 -0.7071067811865476 0.7071067811865476
    outer loop
      vertex -0.0035 0.00625 -0.010825317
      vertex 0.0035 0.00625 -0.010825317
      vertex -0.0035 0.010825317 -0.00625
    endloop
  endfacet
  facet normal 0.0 -0.7071067811865476 0.7071067811865476
    outer loop
      vertex 0.0035 0.00625 -0.010825317
      vertex 0.0035 0.010825317 -0.00625
      vertex -0.0035 0.010825317 -0.00625
    endloop
  endfacet
  facet normal 0.0 -0.9659258051428053 0.25881912402143553
    outer loop
      vertex -0.0035 0.010825317 -0.00625
      vertex 0.0035 0.010825317 -0.00625
      vertex -0.0035 0.0125 -7.081923E-18
    endloop
  endfacet
  facet normal 0.0 -0.9659258051428053 0.25881912402143553
    outer loop
      vertex 0.0035 0.010825317 -0.00625
      vertex 0.0035 0.0125 -7.081923E-18
      vertex -0.0035 0.0125 -7.081923E-18
    endloop
  endfacet
  facet normal 0.0 -0.9659258051428055 -0.2588191240214349
    outer loop
      vertex -0.0035 0.0125 -7.081923E-18
      vertex 0.0035 0.0125 -7.081923E-18
      vertex -0.0035 0.010825317 0.00625
    endloop
  endfacet
  facet normal 0.0 -0.9659258051428055 -0.2588191240214349
    outer loop
      vertex 0.0035 0.0125 -7.081923E-18
      vertex 0.0035 0.010825317 0.00625
      vertex -0.0035 0.010825317 0.00625
    endloop
  endfacet
  facet normal 0.0 -0.7071067811865476 -0.7071067811865476
    outer loop
      vertex -0.0035 0.010825317 0.00625
      vertex 0.0035 0.010825317 0.00625
      vertex -0.0035 0.00625 0.010825317
    endloop
  endfacet
  facet normal 0.0 -0.7071067811865476 -0.7071067811865476
    outer loop
      vertex 0.0035 0.010825317 0.00625
      vertex 0.0035 0.00625 0.010825317
      vertex -0.0035 0.00625 0.010825317
    endloop
  endfacet
  facet normal 0.0 -0.25881912402143575 -0.9659258051428053
    outer loop
      vertex -0.0035 0.00625 0.010825317
      vertex 0.0035 0.00625 0.010825317
      vertex -0.0035 1.3398443E-17 0.0125
    endloop
  endfacet
  facet normal 0.0 -0.25881912402143575 -0.9659258051428053
    outer loop
      vertex 0.0035 0.00625 0.010825317
      vertex 0.0035 1.3398443E-17 0.0125
      vertex -0.0035 1.3398443E-17 0.0125
    endloop
  endfacet
  facet normal 0.0 0.25881912402143475 -0.9659258051428056
    outer loop
      vertex -0.0035 1.3398443E-17 0.0125
      vertex 0.0035 1.3398443E-17 0.0125
      vertex -0.0035 -0.00625 0.010825317
    endloop
  endfacet
  facet normal 0.0 0.25881912402143475 -0.9659258051428056
    outer loop
      vertex 0.0035 1.3398443E-17 0.0125
      vertex 0.0035 -0.00625 0.010825317
      vertex -0.0035 -0.00625 0.010825317
    endloop
  endfacet
  facet normal 0.0 0.7071067811865476 -0.7071067811865476
    outer loop
      vertex -0.0035 -0.00625 0.010825317
      vertex 0.0035 -0.00625 0.010825317
      vertex -0.0035 -0.010825317 0.00625
    endloop
  endfacet
  facet normal 0.0 0.7071067811865476 -0.7071067811865476
    outer loop
      vertex 0.0035 -0.00625 0.010825317
      vertex 0.0035 -0.010825317 0.00625
      vertex -0.0035 -0.010825317 0.00625
    endloop
  endfacet
  facet normal 0.0 0.9659258051428053 -0.2588191240214352
    outer loop
      vertex -0.0035 -0.010825317 0.00625
      vertex 0.0035 -0.010825317 0.00625
      vertex -0.0035 -0.0125 0.0
    endloop
  endfacet
  facet normal 1.1220630604239E-16 0.9659258051428053 -0.25881912402143537
    outer loop
      vertex 0.0035 -0.010825317 0.00625
      vertex 0.0035 -0.0125 3.061617E-18
      vertex -0.0035 -0.0125 0.0
    endloop
  endfacet
  facet normal 0.0 0.9659258270719352 0.25881904218082197
    outer loop
      vertex 0.0035 0.0185 0.0
      vertex -0.0035 0.01602147 0.00925
      vertex 0.0035 0.01602147 0.00925
    endloop
  endfacet
  facet normal -0.0 0.7071067811865475 0.7071067811865475
    outer loop
      vertex -0.0035 0.01602147 0.00925
      vertex -0.0035 0.00925 0.01602147
      vertex 0.0035 0.01602147 0.00925
    endloop
  endfacet
  facet normal 0.0 0.7071067811865475 0.7071067811865475
    outer loop
      vertex 0.0035 0.01602147 0.00925
      vertex -0.0035 0.00925 0.01602147
      vertex 0.0035 0.00925 0.01602147
    endloop
  endfacet
  facet normal -0.0 0.2588190421808221 0.965925827071935
    outer loop
      vertex -0.0035 0.00925 0.01602147
      vertex -0.0035 5.2406235E-18 0.0185
      vertex 0.0035 0.00925 0.01602147
    endloop
  endfacet
  facet normal 0.0 0.2588190421808221 0.965925827071935
    outer loop
      vertex 0.0035 0.00925 0.01602147
      vertex -0.0035 5.2406235E-18 0.0185
      vertex 0.0035 5.2406235E-18 0.0185
    endloop
  endfacet
  facet normal 0.0 -0.25881904218082186 0.9659258270719352
    outer loop
      vertex -0.0035 5.2406235E-18 0.0185
      vertex -0.0035 -0.00925 0.01602147
      vertex 0.0035 5.2406235E-18 0.0185
    endloop
  endfacet
  facet normal 0.0 -0.25881904218082186 0.9659258270719352
    outer loop
      vertex 0.0035 5.2406235E-18 0.0185
      vertex -0.0035 -0.00925 0.01602147
      vertex 0.0035 -0.00925 0.01602147
    endloop
  endfacet
  facet normal 0.0 -0.7071067811865475 0.7071067811865475
    outer loop
      vertex -0.0035 -0.00925 0.01602147
      vertex -0.0035 -0.01602147 0.00925
      vertex 0.0035 -0.00925 0.01602147
    endloop
  endfacet
  facet normal 0.0 -0.7071067811865475 0.7071067811865475
    outer loop
      vertex 0.0035 -0.00925 0.01602147
      vertex -0.0035 -0.01602147 0.00925
      vertex 0.0035 -0.01602147 0.00925
    endloop
  endfacet
  facet normal 0.0 -0.9659258270719351 0.2588190421808223
    outer loop
      vertex -0.0035 -0.01602147 0.00925
      vertex -0.0035 -0.0185 1.0481247E-17
      vertex 0.0035 -0.01602147 0.00925
    endloop
  endfacet
  facet normal 0.0 -0.9659258270719351 0.2588190421808223
    outer loop
      vertex 0.0035 -0.01602147 0.00925
      vertex -0.0035 -0.0185 1.0481247E-17
      vertex 0.0035 -0.0185 1.0481247E-17
    endloop
  endfacet
  facet normal 0.0 -0.9659258270719352 -0.2588190421808217
    outer loop
      vertex -0.0035 -0.0185 1.0481247E-17
      vertex -0.0035 -0.01602147 -0.00925
      vertex 0.0035 -0.0185 1.0481247E-17
    endloop
  endfacet
  facet normal 0.0 -0.9659258270719352 -0.2588190421808217
    outer loop
      vertex 0.0035 -0.0185 1.0481247E-17
      vertex -0.0035 -0.01602147 -0.00925
      vertex 0.0035 -0.01602147 -0.00925
    endloop
  endfacet
  facet normal 0.0 -0.7071067811865475 -0.7071067811865475
    outer loop
      vertex -0.0035 -0.01602147 -0.00925
      vertex -0.0035 -0.00925 -0.01602147
      vertex 0.0035 -0.01602147 -0.00925
    endloop
  endfacet
  facet normal 0.0 -0.7071067811865475 -0.7071067811865475
    outer loop
      vertex 0.0035 -0.01602147 -0.00925
      vertex -0.0035 -0.00925 -0.01602147
      vertex 0.0035 -0.00925 -0.01602147
    endloop
  endfacet
  facet normal 0.0 -0.25881904218082247 -0.9659258270719351
    outer loop
      vertex -0.0035 -0.00925 -0.01602147
      vertex -0.0035 -1.9829696E-17 -0.0185
      vertex 0.0035 -0.00925 -0.01602147
    endloop
  endfacet
  facet normal 0.0 -0.25881904218082247 -0.9659258270719351
    outer loop
      vertex 0.0035 -0.00925 -0.01602147
      vertex -0.0035 -1.9829696E-17 -0.0185
      vertex 0.0035 -1.9829696E-17 -0.0185
    endloop
  endfacet
  facet normal 0.0 0.2588190421808214 -0.9659258270719352
    outer loop
      vertex -0.0035 -1.9829696E-17 -0.0185
      vertex -0.0035 0.00925 -0.01602147
      vertex 0.0035 -1.9829696E-17 -0.0185
    endloop
  endfacet
  facet normal 0.0 0.2588190421808214 -0.9659258270719352
    outer loop
      vertex 0.0035 -1.9829696E-17 -0.0185
      vertex -0.0035 0.00925 -0.01602147
      vertex 0.0035 0.00925 -0.01602147
    endloop
  endfacet
  facet normal 0.0 0.7071067811865475 -0.7071067811865475
    outer loop
      vertex -0.0035 0.00925 -0.01602147
      vertex -0.0035 0.01602147 -0.00925
      vertex 0.0035 0.00925 -0.01602147
    endloop
  endfacet
  facet normal 0.0 0.7071067811865475 -0.7071067811865475
    outer loop
      vertex 0.0035 0.00925 -0.01602147
      vertex -0.0035 0.01602147 -0.00925
      vertex 0.0035 0.01602147 -0.00925
    endloop
  endfacet
  facet normal 0.0 0.965925827071935 -0.2588190421808221
    outer loop
      vertex -0.0035 0.01602147 -0.00925
      vertex -0.0035 0.0185 -4.5311932E-18
      vertex 0.0035 0.01602147 -0.00925
    endloop
  endfacet
  facet normal 2.0217352899058877E-16 0.9659258270719352 -0.25881904218082197
    outer loop
      vertex 0.0035 0.01602147 -0.00925
      vertex -0.0035 0.0185 -4.5311932E-18
      vertex 0.0035 0.0185 0.0
    endloop
  endfacet
  facet normal -1.6753701199432187E-16 0.9659258270719352 0.25881904218082186
    outer loop
      vertex -0.0035 0.0185 -4.5311932E-18
      vertex -0.0035 0.01602147 0.00925
      vertex 0.0035 0.0185 0.0
    endloop
  endfacet
  facet normal 1.0 0.0 -0.0
    outer loop
      vertex 0.0035 0.0125 -7.081923E-18
      vertex 0.0035 0.0185 0.0
      vertex 0.0035 0.010825317 0.00625
    endloop
  endfacet
  facet normal 1.0 0.0 0.0
    outer loop
      vertex 0.0035 0.0185 0.0
      vertex 0.0035 0.01602147 0.00925
      vertex 0.0035 0.010825317 0.00625
    endloop
  endfacet
  facet normal 1.0 0.0 -0.0
    outer loop
      vertex 0.0035 0.010825317 0.00625
      vertex 0.0035 0.01602147 0.00925
      vertex 0.0035 0.00625 0.010825317
    endloop
  endfacet
  facet normal 1.0 0.0 0.0
    outer loop
      vertex 0.0035 0.01602147 0.00925
      vertex 0.0035 0.00925 0.01602147
      vertex 0.0035 0.00625 0.010825317
    endloop
  endfacet
  facet normal 1.0 0.0 -0.0
    outer loop
      vertex 0.0035 0.00625 0.010825317
      vertex 0.0035 0.00925 0.01602147
      vertex 0.0035 1.3398443E-17 0.0125
    endloop
  endfacet
  facet normal 1.0 0.0 0.0
    outer loop
      vertex 0.0035 0.00925 0.01602147
      vertex 0.0035 5.2406235E-18 0.0185
      vertex 0.0035 1.3398443E-17 0.0125
    endloop
  endfacet
  facet normal 1.0 0.0 0.0
    outer loop
      vertex 0.0035 1.3398443E-17 0.0125
      vertex 0.0035 5.2406235E-18 0.0185
      vertex 0.0035 -0.00625 0.010825317
    endloop
  endfacet
  facet normal 1.0 0.0 0.0
    outer loop
      vertex 0.0035 5.2406235E-18 0.0185
      vertex 0.0035 -0.00925 0.01602147
      vertex 0.0035 -0.00625 0.010825317
    endloop
  endfacet
  facet normal 1.0 0.0 0.0
    outer loop
      vertex 0.0035 -0.00625 0.010825317
      vertex 0.0035 -0.00925 0.01602147
      vertex 0.0035 -0.010825317 0.00625
    endloop
  endfacet
  facet normal 1.0 0.0 0.0
    outer loop
      vertex 0.0035 -0.00925 0.01602147
      vertex 0.0035 -0.01602147 0.00925
      vertex 0.0035 -0.010825317 0.00625
    endloop
  endfacet
  facet normal 1.0 0.0 0.0
    outer loop
      vertex 0.0035 -0.010825317 0.00625
      vertex 0.0035 -0.01602147 0.00925
      vertex 0.0035 -0.0125 3.061617E-18
    endloop
  endfacet
  facet normal 1.0 0.0 0.0
    outer loop
      vertex 0.0035 -0.01602147 0.00925
      vertex 0.0035 -0.0185 1.0481247E-17
      vertex 0.0035 -0.0125 3.061617E-18
    endloop
  endfacet
  facet normal 1.0 0.0 0.0
    outer loop
      vertex 0.0035 -0.0125 3.061617E-18
      vertex 0.0035 -0.0185 1.0481247E-17
      vertex 0.0035 -0.010825317 -0.00625
    endloop
  endfacet
  facet normal 1.0 0.0 0.0
    outer loop
      vertex 0.0035 -0.0185 1.0481247E-17
      vertex 0.0035 -0.01602147 -0.00925
      vertex 0.0035 -0.010825317 -0.00625
    endloop
  endfacet
  facet normal 1.0 0.0 0.0
    outer loop
      vertex 0.0035 -0.010825317 -0.00625
      vertex 0.0035 -0.01602147 -0.00925
      vertex 0.0035 -0.00625 -0.010825317
    endloop
  endfacet
  facet normal 1.0 0.0 0.0
    outer loop
      vertex 0.0035 -0.01602147 -0.00925
      vertex 0.0035 -0.00925 -0.01602147
      vertex 0.0035 -0.00625 -0.010825317
    endloop
  endfacet
  facet normal 1.0 0.0 0.0
    outer loop
      vertex 0.0035 -0.00625 -0.010825317
      vertex 0.0035 -0.00925 -0.01602147
      vertex 0.0035 -3.5409617E-18 -0.0125
    endloop
  endfacet
  facet normal 1.0 -0.0 0.0
    outer loop
      vertex 0.0035 -0.00925 -0.01602147
      vertex 0.0035 -1.9829696E-17 -0.0185
      vertex 0.0035 -3.5409617E-18 -0.0125
    endloop
  endfacet
  facet normal 1.0 -0.0 0.0
    outer loop
      vertex 0.0035 -3.5409617E-18 -0.0125
      vertex 0.0035 -1.9829696E-17 -0.0185
      vertex 0.0035 0.00625 -0.010825317
    endloop
  endfacet
  facet normal 1.0 0.0 0.0
    outer loop
      vertex 0.0035 -1.9829696E-17 -0.0185
      vertex 0.0035 0.00925 -0.01602147
      vertex 0.0035 0.00625 -0.010825317
    endloop
  endfacet
  facet normal 1.0 -0.0 0.0
    outer loop
      vertex 0.0035 0.00625 -0.010825317
      vertex 0.0035 0.00925 -0.01602147
      vertex 0.0035 0.010825317 -0.00625
    endloop
  endfacet
  facet normal 1.0 0.0 0.0
    outer loop
      vertex 0.0035 0.00925 -0.01602147
      vertex 0.0035 0.01602147 -0.00925
      vertex 0.0035 0.010825317 -0.00625
    endloop
  endfacet
  facet normal 1.0 -0.0 0.0
    outer loop
      vertex 0.0035 0.010825317 -0.00625
      vertex 0.0035 0.01602147 -0.00925
      vertex 0.0035 0.0125 -7.081923E-18
    endloop
  endfacet
  facet normal 1.0 0.0 -0.0
    outer loop
      vertex 0.0035 0.01602147 -0.00925
      vertex 0.0035 0.0185 0.0
      vertex 0.0035 0.0125 -7.081923E-18
    endloop
  endfacet
endsolid 6805_1
