solid axle_stopper_v2_1
  facet normal -0.7909594457482382 -0.2501567905427345 -0.5583947844733138
    outer loop
      vertex 3.606283E-5 0.0027144228 0.008543072
      vertex 0.0 0.0028205798 0.008546597
      vertex -2.4177708E-17 0.0045 0.007794229
    endloop
  endfacet
  facet normal -0.7909594457482382 -0.5583947844733138 0.2501567905427345
    outer loop
      vertex 3.606283E-5 0.008543072 -0.0027144228
      vertex 0.0 0.008546597 -0.0028205798
      vertex -2.4177708E-17 0.007794229 -0.0045
    endloop
  endfacet
  facet normal -0.7909594457482382 0.2501567905427345 0.5583947844733138
    outer loop
      vertex 3.606283E-5 -0.0027144228 -0.008543072
      vertex 0.0 -0.0028205798 -0.008546597
      vertex -2.4177708E-17 -0.0045 -0.007794229
    endloop
  endfacet
  facet normal -0.7853003157612222 0.5650079347893049 -0.2531194336483259
    outer loop
      vertex 1.893013E-5 -0.008543961 0.0027677333
      vertex 0.0 -0.008546597 0.0028205798
      vertex 1.8431437E-18 -0.007794229 0.0045
    endloop
  endfacet
  facet normal -0.7971253921915386 0.5703731761707861 -0.19815536588327706
    outer loop
      vertex 3.606283E-5 -0.008543072 0.0027144228
      vertex 5.0E-4 -0.007361216 0.00425
      vertex 9.9999874E-5 -0.0085976105 0.002300237
    endloop
  endfacet
  facet normal -0.8650230507128407 0.4846360159603299 -0.12985782136455729
    outer loop
      vertex 5.0E-4 -0.007361216 0.00425
      vertex 5.0E-4 -0.0085 0.0
      vertex 9.9999874E-5 -0.0085976105 0.002300237
    endloop
  endfacet
  facet normal -0.7854421231040145 0.6089470003249575 -0.110743948137559
    outer loop
      vertex 9.9999874E-5 -0.0085976105 0.002300237
      vertex 5.0E-4 -0.0085 0.0
      vertex 0.0 -0.008813006 0.0018250839
    endloop
  endfacet
  facet normal -0.7854571820347994 0.110751645031314 0.608926176406311
    outer loop
      vertex 0.0 -0.0018250839 -0.008813006
      vertex 9.999995E-5 -0.0023004215 -0.008597561
      vertex 5.0E-4 1.5614247E-18 -0.0085
    endloop
  endfacet
  facet normal -0.865023072756653 0.12985781152809997 0.48463597925016955
    outer loop
      vertex 5.0E-4 1.5614247E-18 -0.0085
      vertex 9.999995E-5 -0.0023004215 -0.008597561
      vertex 5.0E-4 -0.00425 -0.007361216
    endloop
  endfacet
  facet normal -0.7854571820347996 -0.6089261764063109 0.11075164503131388
    outer loop
      vertex 0.0 0.008813006 -0.0018250839
      vertex 9.999995E-5 0.008597561 -0.0023004215
      vertex 5.0E-4 0.0085 4.8157082E-18
    endloop
  endfacet
  facet normal -0.865023072756653 -0.4846359792501693 0.1298578115280998
    outer loop
      vertex 5.0E-4 0.0085 4.8157082E-18
      vertex 9.999995E-5 0.008597561 -0.0023004215
      vertex 5.0E-4 0.007361216 -0.00425
    endloop
  endfacet
  facet normal -0.7854571820347994 -0.11075164503131403 -0.6089261764063111
    outer loop
      vertex 0.0 0.0018250839 0.008813006
      vertex 9.999995E-5 0.0023004215 0.008597561
      vertex 5.0E-4 -5.204749E-19 0.0085
    endloop
  endfacet
  facet normal -0.865023072756653 -0.12985781152810003 -0.4846359792501696
    outer loop
      vertex 5.0E-4 -5.204749E-19 0.0085
      vertex 9.999995E-5 0.0023004215 0.008597561
      vertex 5.0E-4 0.00425 0.007361216
    endloop
  endfacet
  facet normal -0.7971070966767482 0.19817525398148925 0.570391834739013
    outer loop
      vertex 9.999995E-5 -0.0023004215 -0.008597561
      vertex 3.606283E-5 -0.0027144228 -0.008543072
      vertex 5.0E-4 -0.00425 -0.007361216
    endloop
  endfacet
  facet normal -0.7050389285523335 0.2863333741487698 0.6487937330726603
    outer loop
      vertex 3.606283E-5 -0.0027144228 -0.008543072
      vertex -2.4177708E-17 -0.0045 -0.007794229
      vertex 5.0E-4 -0.00425 -0.007361216
    endloop
  endfacet
  facet normal -0.69474674747548 0.5085896955662007 0.5085896955662007
    outer loop
      vertex 5.0E-4 -0.00425 -0.007361216
      vertex -2.4177708E-17 -0.0045 -0.007794229
      vertex 5.0E-4 -0.007361216 -0.00425
    endloop
  endfacet
  facet normal -0.69474674747548 0.5085896955662007 0.5085896955662007
    outer loop
      vertex -2.4177708E-17 -0.0045 -0.007794229
      vertex -2.4177708E-17 -0.007794229 -0.0045
      vertex 5.0E-4 -0.007361216 -0.00425
    endloop
  endfacet
  facet normal -0.6947468034592629 0.6947463947849475 0.18615672433853692
    outer loop
      vertex 5.0E-4 -0.007361216 -0.00425
      vertex -2.4177708E-17 -0.007794229 -0.0045
      vertex 5.0E-4 -0.0085 0.0
    endloop
  endfacet
  facet normal -0.6947465979136795 0.694746597913714 0.18615673335844823
    outer loop
      vertex -2.4177708E-17 -0.007794229 -0.0045
      vertex -2.4177708E-17 -0.009 -2.2043642E-18
      vertex 5.0E-4 -0.0085 0.0
    endloop
  endfacet
  facet normal -0.7052583250758733 0.7052583250759095 -0.07225918503759028
    outer loop
      vertex 5.0E-4 -0.0085 0.0
      vertex -2.4177708E-17 -0.009 -2.2043642E-18
      vertex 0.0 -0.008813006 0.0018250839
    endloop
  endfacet
  facet normal -0.7971070966767482 -0.570391834739013 0.19817525398148925
    outer loop
      vertex 9.999995E-5 0.008597561 -0.0023004215
      vertex 3.606283E-5 0.008543072 -0.0027144228
      vertex 5.0E-4 0.007361216 -0.00425
    endloop
  endfacet
  facet normal -0.7050389285523335 -0.6487937330726603 0.2863333741487698
    outer loop
      vertex 3.606283E-5 0.008543072 -0.0027144228
      vertex -2.4177708E-17 0.007794229 -0.0045
      vertex 5.0E-4 0.007361216 -0.00425
    endloop
  endfacet
  facet normal -0.69474674747548 -0.5085896955662007 0.5085896955662007
    outer loop
      vertex 5.0E-4 0.007361216 -0.00425
      vertex -2.4177708E-17 0.007794229 -0.0045
      vertex 5.0E-4 0.00425 -0.007361216
    endloop
  endfacet
  facet normal -0.69474674747548 -0.5085896955662007 0.5085896955662007
    outer loop
      vertex -2.4177708E-17 0.007794229 -0.0045
      vertex -2.4177708E-17 0.0045 -0.007794229
      vertex 5.0E-4 0.00425 -0.007361216
    endloop
  endfacet
  facet normal -0.694746803459263 -0.18615672433853703 0.6947463947849476
    outer loop
      vertex 5.0E-4 0.00425 -0.007361216
      vertex -2.4177708E-17 0.0045 -0.007794229
      vertex 5.0E-4 1.5614247E-18 -0.0085
    endloop
  endfacet
  facet normal -0.6947465979136791 -0.18615673335844832 0.6947465979137144
    outer loop
      vertex -2.4177708E-17 0.0045 -0.007794229
      vertex -2.4177708E-17 1.6532732E-18 -0.009
      vertex 5.0E-4 1.5614247E-18 -0.0085
    endloop
  endfacet
  facet normal -0.7052583250758734 0.0722591850375903 0.7052583250759094
    outer loop
      vertex 5.0E-4 1.5614247E-18 -0.0085
      vertex -2.4177708E-17 1.6532732E-18 -0.009
      vertex 0.0 -0.0018250839 -0.008813006
    endloop
  endfacet
  facet normal -0.7971070966767482 -0.19817525398148925 -0.570391834739013
    outer loop
      vertex 9.999995E-5 0.0023004215 0.008597561
      vertex 3.606283E-5 0.0027144228 0.008543072
      vertex 5.0E-4 0.00425 0.007361216
    endloop
  endfacet
  facet normal -0.7050389285523335 -0.2863333741487698 -0.6487937330726603
    outer loop
      vertex 3.606283E-5 0.0027144228 0.008543072
      vertex -2.4177708E-17 0.0045 0.007794229
      vertex 5.0E-4 0.00425 0.007361216
    endloop
  endfacet
  facet normal -0.69474674747548 -0.5085896955662007 -0.5085896955662007
    outer loop
      vertex 5.0E-4 0.00425 0.007361216
      vertex -2.4177708E-17 0.0045 0.007794229
      vertex 5.0E-4 0.007361216 0.00425
    endloop
  endfacet
  facet normal -0.69474674747548 -0.5085896955662007 -0.5085896955662007
    outer loop
      vertex -2.4177708E-17 0.0045 0.007794229
      vertex -2.4177708E-17 0.007794229 0.0045
      vertex 5.0E-4 0.007361216 0.00425
    endloop
  endfacet
  facet normal -0.694746803459263 -0.6947463947849476 -0.18615672433853717
    outer loop
      vertex 5.0E-4 0.007361216 0.00425
      vertex -2.4177708E-17 0.007794229 0.0045
      vertex 5.0E-4 0.0085 4.8157082E-18
    endloop
  endfacet
  facet normal -0.694746597913679 -0.6947465979137143 -0.18615673335844843
    outer loop
      vertex -2.4177708E-17 0.007794229 0.0045
      vertex -2.4177708E-17 0.009 5.098985E-18
      vertex 5.0E-4 0.0085 4.8157082E-18
    endloop
  endfacet
  facet normal -0.7052583250758734 -0.7052583250759094 0.07225918503759016
    outer loop
      vertex 5.0E-4 0.0085 4.8157082E-18
      vertex -2.4177708E-17 0.009 5.098985E-18
      vertex 0.0 0.008813006 -0.0018250839
    endloop
  endfacet
  facet normal -0.7616746994274781 0.6039551362819875 -0.23471226131300982
    outer loop
      vertex 3.606283E-5 -0.008543072 0.0027144228
      vertex 1.893013E-5 -0.008543961 0.0027677333
      vertex 5.0E-4 -0.007361216 0.00425
    endloop
  endfacet
  facet normal -0.7051456439870104 0.647888576883179 -0.2881145826063538
    outer loop
      vertex 1.893013E-5 -0.008543961 0.0027677333
      vertex 1.8431437E-18 -0.007794229 0.0045
      vertex 5.0E-4 -0.007361216 0.00425
    endloop
  endfacet
  facet normal -0.6947467474754988 0.5085896955661879 -0.5085896955661879
    outer loop
      vertex 5.0E-4 -0.007361216 0.00425
      vertex 1.8431437E-18 -0.007794229 0.0045
      vertex 5.0E-4 -0.00425 0.007361216
    endloop
  endfacet
  facet normal -0.6947467474754988 0.5085896955661879 -0.5085896955661879
    outer loop
      vertex 1.8431437E-18 -0.007794229 0.0045
      vertex 1.8431437E-18 -0.0045 0.007794229
      vertex 5.0E-4 -0.00425 0.007361216
    endloop
  endfacet
  facet normal -0.6947468034592815 0.18615672433853228 -0.6947463947849302
    outer loop
      vertex 5.0E-4 -0.00425 0.007361216
      vertex 1.8431437E-18 -0.0045 0.007794229
      vertex 5.0E-4 -5.204749E-19 0.0085
    endloop
  endfacet
  facet normal -0.6947465979136977 0.1861567333584436 -0.694746597913697
    outer loop
      vertex 1.8431437E-18 -0.0045 0.007794229
      vertex 1.8431437E-18 -5.5109104E-19 0.009
      vertex 5.0E-4 -5.204749E-19 0.0085
    endloop
  endfacet
  facet normal -0.7052583250758913 -0.07225918503759847 -0.7052583250758905
    outer loop
      vertex 5.0E-4 -5.204749E-19 0.0085
      vertex 1.8431437E-18 -5.5109104E-19 0.009
      vertex 0.0 0.0018250839 0.008813006
    endloop
  endfacet
  facet normal -2.6941761826266913E-16 0.2588190307185506 -0.9659258301432414
    outer loop
      vertex 0.005 0.0 0.01275
      vertex 0.008 3.1228494E-18 0.01275
      vertex 0.005 -0.006375 0.011041824
    endloop
  endfacet
  facet normal 0.0 0.2588190307185505 -0.9659258301432414
    outer loop
      vertex 0.008 3.1228494E-18 0.01275
      vertex 0.008 -0.006375 0.011041824
      vertex 0.005 -0.006375 0.011041824
    endloop
  endfacet
  facet normal 0.0 0.7071067811865476 -0.7071067811865476
    outer loop
      vertex 0.005 -0.006375 0.011041824
      vertex 0.008 -0.006375 0.011041824
      vertex 0.005 -0.011041824 0.006375
    endloop
  endfacet
  facet normal 0.0 0.7071067811865476 -0.7071067811865476
    outer loop
      vertex 0.008 -0.006375 0.011041824
      vertex 0.008 -0.011041824 0.006375
      vertex 0.005 -0.011041824 0.006375
    endloop
  endfacet
  facet normal 0.0 0.9659258301432413 -0.2588190307185508
    outer loop
      vertex 0.005 -0.011041824 0.006375
      vertex 0.008 -0.011041824 0.006375
      vertex 0.005 -0.01275 3.611781E-18
    endloop
  endfacet
  facet normal 0.0 0.9659258301432413 -0.2588190307185508
    outer loop
      vertex 0.008 -0.011041824 0.006375
      vertex 0.008 -0.01275 3.611781E-18
      vertex 0.005 -0.01275 3.611781E-18
    endloop
  endfacet
  facet normal -0.0 0.9659258301432414 0.2588190307185505
    outer loop
      vertex 0.005 -0.01275 3.611781E-18
      vertex 0.008 -0.01275 3.611781E-18
      vertex 0.005 -0.011041824 -0.006375
    endloop
  endfacet
  facet normal 0.0 0.9659258301432414 0.2588190307185505
    outer loop
      vertex 0.008 -0.01275 3.611781E-18
      vertex 0.008 -0.011041824 -0.006375
      vertex 0.005 -0.011041824 -0.006375
    endloop
  endfacet
  facet normal -0.0 0.7071067811865476 0.7071067811865476
    outer loop
      vertex 0.005 -0.011041824 -0.006375
      vertex 0.008 -0.011041824 -0.006375
      vertex 0.005 -0.006375 -0.011041824
    endloop
  endfacet
  facet normal 0.0 0.7071067811865476 0.7071067811865476
    outer loop
      vertex 0.008 -0.011041824 -0.006375
      vertex 0.008 -0.006375 -0.011041824
      vertex 0.005 -0.006375 -0.011041824
    endloop
  endfacet
  facet normal -0.0 0.2588190307185509 0.9659258301432412
    outer loop
      vertex 0.005 -0.006375 -0.011041824
      vertex 0.008 -0.006375 -0.011041824
      vertex 0.005 -7.223562E-18 -0.01275
    endloop
  endfacet
  facet normal 0.0 0.2588190307185509 0.9659258301432412
    outer loop
      vertex 0.008 -0.006375 -0.011041824
      vertex 0.008 -7.223562E-18 -0.01275
      vertex 0.005 -7.223562E-18 -0.01275
    endloop
  endfacet
  facet normal 0.0 -0.25881903071855034 0.9659258301432414
    outer loop
      vertex 0.005 -7.223562E-18 -0.01275
      vertex 0.008 -7.223562E-18 -0.01275
      vertex 0.005 0.006375 -0.011041824
    endloop
  endfacet
  facet normal 0.0 -0.25881903071855034 0.9659258301432414
    outer loop
      vertex 0.008 -7.223562E-18 -0.01275
      vertex 0.008 0.006375 -0.011041824
      vertex 0.005 0.006375 -0.011041824
    endloop
  endfacet
  facet normal 0.0 -0.7071067811865476 0.7071067811865476
    outer loop
      vertex 0.005 0.006375 -0.011041824
      vertex 0.008 0.006375 -0.011041824
      vertex 0.005 0.011041824 -0.006375
    endloop
  endfacet
  facet normal 0.0 -0.7071067811865476 0.7071067811865476
    outer loop
      vertex 0.008 0.006375 -0.011041824
      vertex 0.008 0.011041824 -0.006375
      vertex 0.005 0.011041824 -0.006375
    endloop
  endfacet
  facet normal 0.0 -0.9659258301432412 0.25881903071855117
    outer loop
      vertex 0.005 0.011041824 -0.006375
      vertex 0.008 0.011041824 -0.006375
      vertex 0.005 0.01275 -1.3666412E-17
    endloop
  endfacet
  facet normal 0.0 -0.9659258301432412 0.25881903071855117
    outer loop
      vertex 0.008 0.011041824 -0.006375
      vertex 0.008 0.01275 -1.3666412E-17
      vertex 0.005 0.01275 -1.3666412E-17
    endloop
  endfacet
  facet normal 0.0 -0.9659258301432414 -0.2588190307185501
    outer loop
      vertex 0.005 0.01275 -1.3666412E-17
      vertex 0.008 0.01275 -1.3666412E-17
      vertex 0.005 0.011041824 0.006375
    endloop
  endfacet
  facet normal 0.0 -0.9659258301432414 -0.2588190307185501
    outer loop
      vertex 0.008 0.01275 -1.3666412E-17
      vertex 0.008 0.011041824 0.006375
      vertex 0.005 0.011041824 0.006375
    endloop
  endfacet
  facet normal 0.0 -0.7071067811865476 -0.7071067811865476
    outer loop
      vertex 0.005 0.011041824 0.006375
      vertex 0.008 0.011041824 0.006375
      vertex 0.005 0.006375 0.011041824
    endloop
  endfacet
  facet normal 0.0 -0.7071067811865476 -0.7071067811865476
    outer loop
      vertex 0.008 0.011041824 0.006375
      vertex 0.008 0.006375 0.011041824
      vertex 0.005 0.006375 0.011041824
    endloop
  endfacet
  facet normal 0.0 -0.2588190307185506 -0.9659258301432414
    outer loop
      vertex 0.005 0.006375 0.011041824
      vertex 0.008 0.006375 0.011041824
      vertex 0.005 0.0 0.01275
    endloop
  endfacet
  facet normal 3.422414651964599E-16 -0.2588190307185508 -0.9659258301432413
    outer loop
      vertex 0.008 0.006375 0.011041824
      vertex 0.008 3.1228494E-18 0.01275
      vertex 0.005 0.0 0.01275
    endloop
  endfacet
  facet normal 1.0 -0.0 0.0
    outer loop
      vertex 0.008 0.006375 -0.011041824
      vertex 0.008 0.0075 -0.012990381
      vertex 0.008 0.011041824 -0.006375
    endloop
  endfacet
  facet normal 1.0 0.0 0.0
    outer loop
      vertex 0.008 0.0075 -0.012990381
      vertex 0.008 0.012990381 -0.0075
      vertex 0.008 0.011041824 -0.006375
    endloop
  endfacet
  facet normal 1.0 -0.0 0.0
    outer loop
      vertex 0.008 0.011041824 -0.006375
      vertex 0.008 0.012990381 -0.0075
      vertex 0.008 0.01275 -1.3666412E-17
    endloop
  endfacet
  facet normal 1.0 0.0 -0.0
    outer loop
      vertex 0.008 0.012990381 -0.0075
      vertex 0.008 0.015 -3.6739405E-18
      vertex 0.008 0.01275 -1.3666412E-17
    endloop
  endfacet
  facet normal 1.0 0.0 -0.0
    outer loop
      vertex 0.008 0.01275 -1.3666412E-17
      vertex 0.008 0.015 -3.6739405E-18
      vertex 0.008 0.011041824 0.006375
    endloop
  endfacet
  facet normal 1.0 0.0 0.0
    outer loop
      vertex 0.008 0.015 -3.6739405E-18
      vertex 0.008 0.012990381 0.0075
      vertex 0.008 0.011041824 0.006375
    endloop
  endfacet
  facet normal 1.0 0.0 -0.0
    outer loop
      vertex 0.008 0.011041824 0.006375
      vertex 0.008 0.012990381 0.0075
      vertex 0.008 0.006375 0.011041824
    endloop
  endfacet
  facet normal 1.0 0.0 0.0
    outer loop
      vertex 0.008 0.012990381 0.0075
      vertex 0.008 0.0075 0.012990381
      vertex 0.008 0.006375 0.011041824
    endloop
  endfacet
  facet normal 1.0 0.0 -0.0
    outer loop
      vertex 0.008 0.006375 0.011041824
      vertex 0.008 0.0075 0.012990381
      vertex 0.008 3.1228494E-18 0.01275
    endloop
  endfacet
  facet normal 1.0 0.0 0.0
    outer loop
      vertex 0.008 0.0075 0.012990381
      vertex 0.008 4.249154E-18 0.015
      vertex 0.008 3.1228494E-18 0.01275
    endloop
  endfacet
  facet normal 1.0 0.0 -0.0
    outer loop
      vertex 0.008 3.1228494E-18 0.01275
      vertex 0.008 4.249154E-18 0.015
      vertex 0.008 -0.006375 0.011041824
    endloop
  endfacet
  facet normal 1.0 0.0 0.0
    outer loop
      vertex 0.008 4.249154E-18 0.015
      vertex 0.008 -0.0075 0.012990381
      vertex 0.008 -0.006375 0.011041824
    endloop
  endfacet
  facet normal 1.0 0.0 0.0
    outer loop
      vertex 0.008 -0.006375 0.011041824
      vertex 0.008 -0.0075 0.012990381
      vertex 0.008 -0.011041824 0.006375
    endloop
  endfacet
  facet normal 1.0 0.0 0.0
    outer loop
      vertex 0.008 -0.0075 0.012990381
      vertex 0.008 -0.012990381 0.0075
      vertex 0.008 -0.011041824 0.006375
    endloop
  endfacet
  facet normal 1.0 0.0 0.0
    outer loop
      vertex 0.008 -0.011041824 0.006375
      vertex 0.008 -0.012990381 0.0075
      vertex 0.008 -0.01275 3.611781E-18
    endloop
  endfacet
  facet normal 1.0 0.0 0.0
    outer loop
      vertex 0.008 -0.012990381 0.0075
      vertex 0.008 -0.015 8.498308E-18
      vertex 0.008 -0.01275 3.611781E-18
    endloop
  endfacet
  facet normal 1.0 0.0 0.0
    outer loop
      vertex 0.008 -0.01275 3.611781E-18
      vertex 0.008 -0.015 8.498308E-18
      vertex 0.008 -0.011041824 -0.006375
    endloop
  endfacet
  facet normal 1.0 0.0 0.0
    outer loop
      vertex 0.008 -0.015 8.498308E-18
      vertex 0.008 -0.012990381 -0.0075
      vertex 0.008 -0.011041824 -0.006375
    endloop
  endfacet
  facet normal 1.0 0.0 0.0
    outer loop
      vertex 0.008 -0.011041824 -0.006375
      vertex 0.008 -0.012990381 -0.0075
      vertex 0.008 -0.006375 -0.011041824
    endloop
  endfacet
  facet normal 1.0 0.0 0.0
    outer loop
      vertex 0.008 -0.012990381 -0.0075
      vertex 0.008 -0.0075 -0.012990381
      vertex 0.008 -0.006375 -0.011041824
    endloop
  endfacet
  facet normal 1.0 0.0 0.0
    outer loop
      vertex 0.008 -0.006375 -0.011041824
      vertex 0.008 -0.0075 -0.012990381
      vertex 0.008 -7.223562E-18 -0.01275
    endloop
  endfacet
  facet normal 1.0 -0.0 0.0
    outer loop
      vertex 0.008 -0.0075 -0.012990381
      vertex 0.008 -2.7554553E-18 -0.015
      vertex 0.008 -7.223562E-18 -0.01275
    endloop
  endfacet
  facet normal 1.0 -0.0 0.0
    outer loop
      vertex 0.008 -7.223562E-18 -0.01275
      vertex 0.008 -2.7554553E-18 -0.015
      vertex 0.008 0.006375 -0.011041824
    endloop
  endfacet
  facet normal 1.0 0.0 0.0
    outer loop
      vertex 0.008 -2.7554553E-18 -0.015
      vertex 0.008 0.0075 -0.012990381
      vertex 0.008 0.006375 -0.011041824
    endloop
  endfacet
  facet normal -0.02234429828595637 -0.12706479355692923 -0.991642713164597
    outer loop
      vertex 9.999995E-5 -0.0023004215 -0.008597561
      vertex 0.005 -0.0019144227 -0.008757431
      vertex 3.606283E-5 -0.0027144228 -0.008543072
    endloop
  endfacet
  facet normal 0.0 -0.25881861618906704 -0.9659259412159797
    outer loop
      vertex 0.005 -0.0019144227 -0.008757431
      vertex 0.005 -0.0027144228 -0.008543072
      vertex 3.606283E-5 -0.0027144228 -0.008543072
    endloop
  endfacet
  facet normal 0.0 0.03318724398529042 -0.9994491517014064
    outer loop
      vertex 3.606283E-5 -0.0027144228 -0.008543072
      vertex 0.005 -0.0027144228 -0.008543072
      vertex 0.0 -0.0028205798 -0.008546597
    endloop
  endfacet
  facet normal -0.004814048641861257 0.2588156472874406 -0.9659147403652442
    outer loop
      vertex 0.005 -0.0027144228 -0.008543072
      vertex 0.005 -0.0035144228 -0.008757431
      vertex 0.0 -0.0028205798 -0.008546597
    endloop
  endfacet
  facet normal 0.002758550610926717 -0.41233968787003705 -0.9110259997419213
    outer loop
      vertex 9.999995E-5 -0.0023004215 -0.008597561
      vertex 1.9990875E-5 -0.0019201081 -0.008769937
      vertex 0.005 -0.0019144227 -0.008757431
    endloop
  endfacet
  facet normal 0.002758550592626586 -0.4123360550187297 -0.9110276439989179
    outer loop
      vertex 1.9990875E-5 -0.0019201081 -0.008769937
      vertex 0.0 -0.0018250839 -0.008813006
      vertex 0.005 -0.0019144227 -0.008757431
    endloop
  endfacet
  facet normal -0.00477487495337582 -0.7070989618031299 -0.7070984788458501
    outer loop
      vertex 0.005 -0.0019144227 -0.008757431
      vertex 0.0 -0.0018250839 -0.008813006
      vertex 0.005 -0.0013287821 -0.009343072
    endloop
  endfacet
  facet normal 0.0 -0.7299734391142503 -0.6834755139635318
    outer loop
      vertex 0.0 -0.0018250839 -0.008813006
      vertex 0.0 -0.0013287821 -0.009343072
      vertex 0.005 -0.0013287821 -0.009343072
    endloop
  endfacet
  facet normal -0.0 -0.9659258123872507 -0.2588190969848045
    outer loop
      vertex 0.005 -0.0013287821 -0.009343072
      vertex 0.0 -0.0013287821 -0.009343072
      vertex 0.005 -0.0011144227 -0.010143072
    endloop
  endfacet
  facet normal 0.0 -0.9659258123872507 -0.2588190969848045
    outer loop
      vertex 0.0 -0.0013287821 -0.009343072
      vertex 0.0 -0.0011144227 -0.010143072
      vertex 0.005 -0.0011144227 -0.010143072
    endloop
  endfacet
  facet normal 0.0 -0.9659258123872507 0.2588190969848045
    outer loop
      vertex 0.005 -0.0011144227 -0.010143072
      vertex 0.0 -0.0011144227 -0.010143072
      vertex 0.005 -0.0013287821 -0.010943072
    endloop
  endfacet
  facet normal 0.0 -0.9659258123872507 0.2588190969848045
    outer loop
      vertex 0.0 -0.0011144227 -0.010143072
      vertex 0.0 -0.0013287821 -0.010943072
      vertex 0.005 -0.0013287821 -0.010943072
    endloop
  endfacet
  facet normal 0.0 -0.7071070226678992 0.7071065397051135
    outer loop
      vertex 0.005 -0.0013287821 -0.010943072
      vertex 0.0 -0.0013287821 -0.010943072
      vertex 0.005 -0.0019144227 -0.011528713
    endloop
  endfacet
  facet normal 0.0 -0.7071070226678992 0.7071065397051135
    outer loop
      vertex 0.0 -0.0013287821 -0.010943072
      vertex 0.0 -0.0019144227 -0.011528713
      vertex 0.005 -0.0019144227 -0.011528713
    endloop
  endfacet
  facet normal 0.0 -0.25881861618906904 0.9659259412159792
    outer loop
      vertex 0.005 -0.0019144227 -0.011528713
      vertex 0.0 -0.0019144227 -0.011528713
      vertex 0.005 -0.0027144228 -0.011743072
    endloop
  endfacet
  facet normal 0.0 -0.25881861618906904 0.9659259412159792
    outer loop
      vertex 0.0 -0.0019144227 -0.011528713
      vertex 0.0 -0.0027144228 -0.011743072
      vertex 0.005 -0.0027144228 -0.011743072
    endloop
  endfacet
  facet normal 0.0 0.2588186463742079 0.9659259331279094
    outer loop
      vertex 0.005 -0.0027144228 -0.011743072
      vertex 0.0 -0.0027144228 -0.011743072
      vertex 0.005 -0.0035144228 -0.011528713
    endloop
  endfacet
  facet normal 0.0 0.2588186463742079 0.9659259331279094
    outer loop
      vertex 0.0 -0.0027144228 -0.011743072
      vertex 0.0 -0.0035144228 -0.011528713
      vertex 0.005 -0.0035144228 -0.011528713
    endloop
  endfacet
  facet normal 0.0 0.707107022667899 0.7071065397051137
    outer loop
      vertex 0.005 -0.0035144228 -0.011528713
      vertex 0.0 -0.0035144228 -0.011528713
      vertex 0.005 -0.0041000634 -0.010943072
    endloop
  endfacet
  facet normal 0.0 0.707107022667899 0.7071065397051137
    outer loop
      vertex 0.0 -0.0035144228 -0.011528713
      vertex 0.0 -0.0041000634 -0.010943072
      vertex 0.005 -0.0041000634 -0.010943072
    endloop
  endfacet
  facet normal 0.0 0.9659258727576029 0.25881887167952683
    outer loop
      vertex 0.005 -0.0041000634 -0.010943072
      vertex 0.0 -0.0041000634 -0.010943072
      vertex 0.005 -0.0043144226 -0.010143072
    endloop
  endfacet
  facet normal 0.0 0.9659258727576029 0.25881887167952683
    outer loop
      vertex 0.0 -0.0041000634 -0.010943072
      vertex 0.0 -0.0043144226 -0.010143072
      vertex 0.005 -0.0043144226 -0.010143072
    endloop
  endfacet
  facet normal 0.0 0.9659258727576029 -0.25881887167952683
    outer loop
      vertex 0.005 -0.0043144226 -0.010143072
      vertex 0.0 -0.0043144226 -0.010143072
      vertex 0.005 -0.0041000634 -0.009343072
    endloop
  endfacet
  facet normal 0.0 0.9659258727576029 -0.25881887167952683
    outer loop
      vertex 0.0 -0.0043144226 -0.010143072
      vertex 0.0 -0.0041000634 -0.009343072
      vertex 0.005 -0.0041000634 -0.009343072
    endloop
  endfacet
  facet normal 0.0 0.707107022667899 -0.7071065397051137
    outer loop
      vertex 0.005 -0.0041000634 -0.009343072
      vertex 0.0 -0.0041000634 -0.009343072
      vertex 0.005 -0.0035144228 -0.008757431
    endloop
  endfacet
  facet normal 0.0 0.707107022667899 -0.7071065397051137
    outer loop
      vertex 0.0 -0.0041000634 -0.009343072
      vertex 0.0 -0.0035144228 -0.008757431
      vertex 0.005 -0.0035144228 -0.008757431
    endloop
  endfacet
  facet normal 0.0 0.29073802014556094 -0.9568026983876244
    outer loop
      vertex 0.005 -0.0035144228 -0.008757431
      vertex 0.0 -0.0035144228 -0.008757431
      vertex 0.0 -0.0028205798 -0.008546597
    endloop
  endfacet
  facet normal -0.02234429828595637 0.991642713164597 -0.12706479355692923
    outer loop
      vertex 9.999995E-5 0.008597561 -0.0023004215
      vertex 0.005 0.008757431 -0.0019144227
      vertex 3.606283E-5 0.008543072 -0.0027144228
    endloop
  endfacet
  facet normal 0.0 0.9659259412159797 -0.25881861618906704
    outer loop
      vertex 0.005 0.008757431 -0.0019144227
      vertex 0.005 0.008543072 -0.0027144228
      vertex 3.606283E-5 0.008543072 -0.0027144228
    endloop
  endfacet
  facet normal -0.0 0.9994491517014064 0.03318724398529042
    outer loop
      vertex 3.606283E-5 0.008543072 -0.0027144228
      vertex 0.005 0.008543072 -0.0027144228
      vertex 0.0 0.008546597 -0.0028205798
    endloop
  endfacet
  facet normal -0.004814048641861257 0.9659147403652442 0.2588156472874406
    outer loop
      vertex 0.005 0.008543072 -0.0027144228
      vertex 0.005 0.008757431 -0.0035144228
      vertex 0.0 0.008546597 -0.0028205798
    endloop
  endfacet
  facet normal 0.002758550610926717 0.9110259997419213 -0.41233968787003705
    outer loop
      vertex 9.999995E-5 0.008597561 -0.0023004215
      vertex 1.9990875E-5 0.008769937 -0.0019201081
      vertex 0.005 0.008757431 -0.0019144227
    endloop
  endfacet
  facet normal 0.002758550592626586 0.9110276439989179 -0.4123360550187297
    outer loop
      vertex 1.9990875E-5 0.008769937 -0.0019201081
      vertex 0.0 0.008813006 -0.0018250839
      vertex 0.005 0.008757431 -0.0019144227
    endloop
  endfacet
  facet normal -0.00477487495337582 0.7070984788458501 -0.7070989618031299
    outer loop
      vertex 0.005 0.008757431 -0.0019144227
      vertex 0.0 0.008813006 -0.0018250839
      vertex 0.005 0.009343072 -0.0013287821
    endloop
  endfacet
  facet normal 0.0 0.6834755139635318 -0.7299734391142503
    outer loop
      vertex 0.0 0.008813006 -0.0018250839
      vertex 0.0 0.009343072 -0.0013287821
      vertex 0.005 0.009343072 -0.0013287821
    endloop
  endfacet
  facet normal 0.0 0.2588190969848045 -0.9659258123872507
    outer loop
      vertex 0.005 0.009343072 -0.0013287821
      vertex 0.0 0.009343072 -0.0013287821
      vertex 0.005 0.010143072 -0.0011144227
    endloop
  endfacet
  facet normal 0.0 0.2588190969848045 -0.9659258123872507
    outer loop
      vertex 0.0 0.009343072 -0.0013287821
      vertex 0.0 0.010143072 -0.0011144227
      vertex 0.005 0.010143072 -0.0011144227
    endloop
  endfacet
  facet normal -0.0 -0.2588190969848045 -0.9659258123872507
    outer loop
      vertex 0.005 0.010143072 -0.0011144227
      vertex 0.0 0.010143072 -0.0011144227
      vertex 0.005 0.010943072 -0.0013287821
    endloop
  endfacet
  facet normal 0.0 -0.2588190969848045 -0.9659258123872507
    outer loop
      vertex 0.0 0.010143072 -0.0011144227
      vertex 0.0 0.010943072 -0.0013287821
      vertex 0.005 0.010943072 -0.0013287821
    endloop
  endfacet
  facet normal -0.0 -0.7071065397051135 -0.7071070226678992
    outer loop
      vertex 0.005 0.010943072 -0.0013287821
      vertex 0.0 0.010943072 -0.0013287821
      vertex 0.005 0.011528713 -0.0019144227
    endloop
  endfacet
  facet normal 0.0 -0.7071065397051135 -0.7071070226678992
    outer loop
      vertex 0.0 0.010943072 -0.0013287821
      vertex 0.0 0.011528713 -0.0019144227
      vertex 0.005 0.011528713 -0.0019144227
    endloop
  endfacet
  facet normal -0.0 -0.9659259412159792 -0.25881861618906904
    outer loop
      vertex 0.005 0.011528713 -0.0019144227
      vertex 0.0 0.011528713 -0.0019144227
      vertex 0.005 0.011743072 -0.0027144228
    endloop
  endfacet
  facet normal 0.0 -0.9659259412159792 -0.25881861618906904
    outer loop
      vertex 0.0 0.011528713 -0.0019144227
      vertex 0.0 0.011743072 -0.0027144228
      vertex 0.005 0.011743072 -0.0027144228
    endloop
  endfacet
  facet normal 0.0 -0.9659259331279094 0.2588186463742079
    outer loop
      vertex 0.005 0.011743072 -0.0027144228
      vertex 0.0 0.011743072 -0.0027144228
      vertex 0.005 0.011528713 -0.0035144228
    endloop
  endfacet
  facet normal 0.0 -0.9659259331279094 0.2588186463742079
    outer loop
      vertex 0.0 0.011743072 -0.0027144228
      vertex 0.0 0.011528713 -0.0035144228
      vertex 0.005 0.011528713 -0.0035144228
    endloop
  endfacet
  facet normal 0.0 -0.7071065397051137 0.707107022667899
    outer loop
      vertex 0.005 0.011528713 -0.0035144228
      vertex 0.0 0.011528713 -0.0035144228
      vertex 0.005 0.010943072 -0.0041000634
    endloop
  endfacet
  facet normal 0.0 -0.7071065397051137 0.707107022667899
    outer loop
      vertex 0.0 0.011528713 -0.0035144228
      vertex 0.0 0.010943072 -0.0041000634
      vertex 0.005 0.010943072 -0.0041000634
    endloop
  endfacet
  facet normal 0.0 -0.25881887167952683 0.9659258727576029
    outer loop
      vertex 0.005 0.010943072 -0.0041000634
      vertex 0.0 0.010943072 -0.0041000634
      vertex 0.005 0.010143072 -0.0043144226
    endloop
  endfacet
  facet normal 0.0 -0.25881887167952683 0.9659258727576029
    outer loop
      vertex 0.0 0.010943072 -0.0041000634
      vertex 0.0 0.010143072 -0.0043144226
      vertex 0.005 0.010143072 -0.0043144226
    endloop
  endfacet
  facet normal 0.0 0.25881887167952683 0.9659258727576029
    outer loop
      vertex 0.005 0.010143072 -0.0043144226
      vertex 0.0 0.010143072 -0.0043144226
      vertex 0.005 0.009343072 -0.0041000634
    endloop
  endfacet
  facet normal 0.0 0.25881887167952683 0.9659258727576029
    outer loop
      vertex 0.0 0.010143072 -0.0043144226
      vertex 0.0 0.009343072 -0.0041000634
      vertex 0.005 0.009343072 -0.0041000634
    endloop
  endfacet
  facet normal 0.0 0.7071065397051137 0.707107022667899
    outer loop
      vertex 0.005 0.009343072 -0.0041000634
      vertex 0.0 0.009343072 -0.0041000634
      vertex 0.005 0.008757431 -0.0035144228
    endloop
  endfacet
  facet normal 0.0 0.7071065397051137 0.707107022667899
    outer loop
      vertex 0.0 0.009343072 -0.0041000634
      vertex 0.0 0.008757431 -0.0035144228
      vertex 0.005 0.008757431 -0.0035144228
    endloop
  endfacet
  facet normal 0.0 0.9568026983876244 0.29073802014556094
    outer loop
      vertex 0.005 0.008757431 -0.0035144228
      vertex 0.0 0.008757431 -0.0035144228
      vertex 0.0 0.008546597 -0.0028205798
    endloop
  endfacet
  facet normal -1.0 -1.3719769220024172E-14 1.4653146918631608E-14
    outer loop
      vertex 0.0 -0.009343072 0.0013287821
      vertex 0.0 -0.008813006 0.0018250839
      vertex -2.4177708E-17 -0.009 -2.2043642E-18
    endloop
  endfacet
  facet normal -1.0 9.081312524595157E-16 -2.4333295490988735E-16
    outer loop
      vertex 1.8431437E-18 0.0145 -8.215032E-18
      vertex 1.8431437E-18 0.012557369 -0.00725
      vertex 0.0 0.011528713 -0.0035144228
    endloop
  endfacet
  facet normal -1.0 -1.1170560678559888E-15 -1.0459017125751327E-15
    outer loop
      vertex 0.0 0.0013287821 0.009343072
      vertex 0.0 0.0018250839 0.008813006
      vertex 1.8431437E-18 -5.5109104E-19 0.009
    endloop
  endfacet
  facet normal -1.0 8.053343466613201E-16 -2.1578853285355392E-16
    outer loop
      vertex 0.0 0.0041000634 0.009343072
      vertex 0.0 0.0043144226 0.010143072
      vertex 1.8431437E-18 0.00725 0.012557369
    endloop
  endfacet
  facet normal -1.0 -3.772518876254186E-16 -3.7725214529326957E-16
    outer loop
      vertex 0.0 -0.011528713 0.0019144227
      vertex 0.0 -0.010943072 0.0013287821
      vertex 1.8431437E-18 -0.0145 3.5514756E-18
    endloop
  endfacet
  facet normal -1.0 -2.1643279700686546E-16 -8.077380213113698E-16
    outer loop
      vertex 0.0 -0.010943072 0.0013287821
      vertex 0.0 -0.010143072 0.0011144227
      vertex 1.8431437E-18 -0.0145 3.5514756E-18
    endloop
  endfacet
  facet normal -1.0 -2.4333295490988725E-16 -9.081312524595162E-16
    outer loop
      vertex 1.8431437E-18 -8.878689E-19 -0.0145
      vertex 1.8431437E-18 -0.00725 -0.012557369
      vertex 0.0 -0.0035144228 -0.011528713
    endloop
  endfacet
  facet normal -1.0 9.0813069666065E-16 -2.433324850068512E-16
    outer loop
      vertex 0.0 0.011528713 -0.0035144228
      vertex 0.0 0.011743072 -0.0027144228
      vertex 1.8431437E-18 0.0145 -8.215032E-18
    endloop
  endfacet
  facet normal -1.0 5.289923307223819E-16 1.4174281605879735E-16
    outer loop
      vertex 0.0 0.011743072 -0.0027144228
      vertex 0.0 0.011528713 -0.0019144227
      vertex 1.8431437E-18 0.0145 -8.215032E-18
    endloop
  endfacet
  facet normal -1.0 5.289922182559239E-16 1.4174299061278936E-16
    outer loop
      vertex 1.8431437E-18 0.0145 -8.215032E-18
      vertex 0.0 0.011528713 -0.0019144227
      vertex 1.8431437E-18 0.012557369 0.00725
    endloop
  endfacet
  facet normal -1.0 1.8082295078852281E-16 1.8082307429290454E-16
    outer loop
      vertex 0.0 0.011528713 -0.0019144227
      vertex 0.0 0.010943072 -0.0013287821
      vertex 1.8431437E-18 0.012557369 0.00725
    endloop
  endfacet
  facet normal -1.0 1.8082305473328464E-16 1.8082305473328464E-16
    outer loop
      vertex 1.8431437E-18 0.012557369 0.00725
      vertex 0.0 0.010943072 -0.0013287821
      vertex 1.8431437E-18 0.00725 0.012557369
    endloop
  endfacet
  facet normal -1.0 3.829452373660621E-17 1.4291707753093626E-16
    outer loop
      vertex 0.0 0.010943072 -0.0013287821
      vertex 0.0 0.010143072 -0.0011144227
      vertex 1.8431437E-18 0.00725 0.012557369
    endloop
  endfacet
  facet normal -1.0 -3.4184908726790996E-17 1.2757978880997466E-16
    outer loop
      vertex 1.8431437E-18 0.00725 0.012557369
      vertex 0.0 0.010143072 -0.0011144227
      vertex 0.0 0.009343072 -0.0013287821
    endloop
  endfacet
  facet normal -1.0 -1.2973416911396147E-15 -3.476217331345913E-16
    outer loop
      vertex 0.0 0.0013287821 0.009343072
      vertex 1.8431437E-18 -5.5109104E-19 0.009
      vertex 0.0 0.0011144227 0.010143072
    endloop
  endfacet
  facet normal -1.0 1.4597035708361137E-15 4.4355155655337194E-16
    outer loop
      vertex 0.0 -0.008546597 0.0028205798
      vertex 0.0 -0.008757431 0.0035144228
      vertex 1.8431437E-18 -0.007794229 0.0045
    endloop
  endfacet
  facet normal -1.0 9.457936862872008E-16 9.457943322763514E-16
    outer loop
      vertex 0.0 -0.008757431 0.0035144228
      vertex 0.0 -0.009343072 0.0041000634
      vertex 1.8431437E-18 -0.007794229 0.0045
    endloop
  endfacet
  facet normal -1.0 1.6042592329540505E-15 -1.6042592329540505E-15
    outer loop
      vertex 1.8431437E-18 -0.007794229 0.0045
      vertex 0.0 -0.009343072 0.0041000634
      vertex 1.8431437E-18 -0.0045 0.007794229
    endloop
  endfacet
  facet normal -1.0 9.893473041347236E-17 3.692297057032212E-16
    outer loop
      vertex 0.0 -0.009343072 0.0041000634
      vertex 0.0 -0.010143072 0.0043144226
      vertex 1.8431437E-18 -0.0045 0.007794229
    endloop
  endfacet
  facet normal -1.0 -4.017678649279407E-17 5.94821654132099E-16
    outer loop
      vertex 1.8431437E-18 -0.0045 0.007794229
      vertex 0.0 -0.010143072 0.0043144226
      vertex 1.8431437E-18 -0.012557369 0.00725
    endloop
  endfacet
  facet normal -1.0 -1.3785637393320232E-16 5.144873611515714E-16
    outer loop
      vertex 0.0 -0.010143072 0.0043144226
      vertex 0.0 -0.010943072 0.0041000634
      vertex 1.8431437E-18 -0.012557369 0.00725
    endloop
  endfacet
  facet normal -1.0 -3.868708007239664E-16 3.8687106496165753E-16
    outer loop
      vertex 0.0 -0.010943072 0.0041000634
      vertex 0.0 -0.011528713 0.0035144228
      vertex 1.8431437E-18 -0.012557369 0.00725
    endloop
  endfacet
  facet normal -1.0 -9.081312524595159E-16 2.4333295490988725E-16
    outer loop
      vertex 1.8431437E-18 -0.012557369 0.00725
      vertex 0.0 -0.011528713 0.0035144228
      vertex 1.8431437E-18 -0.0145 3.5514756E-18
    endloop
  endfacet
  facet normal -1.0 -9.081306966606505E-16 2.433324850068514E-16
    outer loop
      vertex 0.0 -0.011528713 0.0035144228
      vertex 0.0 -0.011743072 0.0027144228
      vertex 1.8431437E-18 -0.0145 3.5514756E-18
    endloop
  endfacet
  facet normal -1.0 -5.289923307223818E-16 -1.4174281605879735E-16
    outer loop
      vertex 1.8431437E-18 -0.0145 3.5514756E-18
      vertex 0.0 -0.011743072 0.0027144228
      vertex 0.0 -0.011528713 0.0019144227
    endloop
  endfacet
  facet normal -1.0 5.818352642440691E-15 -1.914787582879885E-14
    outer loop
      vertex 0.0 -0.0028205798 -0.008546597
      vertex 0.0 -0.0035144228 -0.008757431
      vertex -2.4177708E-17 -0.0045 -0.007794229
    endloop
  endfacet
  facet normal -1.0 1.2406595966354983E-14 -1.2406587492497488E-14
    outer loop
      vertex 0.0 -0.0035144228 -0.008757431
      vertex 0.0 -0.0041000634 -0.009343072
      vertex -2.4177708E-17 -0.0045 -0.007794229
    endloop
  endfacet
  facet normal -1.0 -2.1044105942833983E-14 -2.1044105942833983E-14
    outer loop
      vertex -2.4177708E-17 -0.0045 -0.007794229
      vertex 0.0 -0.0041000634 -0.009343072
      vertex -2.4177708E-17 -0.007794229 -0.0045
    endloop
  endfacet
  facet normal -1.0 5.144873611515714E-16 1.3785637393320232E-16
    outer loop
      vertex 0.0 0.0043144226 0.010143072
      vertex 0.0 0.0041000634 0.010943072
      vertex 1.8431437E-18 0.00725 0.012557369
    endloop
  endfacet
  facet normal -1.0 3.8687106496165753E-16 3.868708007239664E-16
    outer loop
      vertex 0.0 0.0041000634 0.010943072
      vertex 0.0 0.0035144228 0.011528713
      vertex 1.8431437E-18 0.00725 0.012557369
    endloop
  endfacet
  facet normal -1.0 2.4333295490988725E-16 9.08131252459516E-16
    outer loop
      vertex 1.8431437E-18 0.00725 0.012557369
      vertex 0.0 0.0035144228 0.011528713
      vertex 1.8431437E-18 2.6636068E-18 0.0145
    endloop
  endfacet
  facet normal -1.0 2.433324850068514E-16 9.081306966606505E-16
    outer loop
      vertex 0.0 0.0035144228 0.011528713
      vertex 0.0 0.0027144228 0.011743072
      vertex 1.8431437E-18 2.6636068E-18 0.0145
    endloop
  endfacet
  facet normal -1.0 -1.417428160587973E-16 5.289923307223817E-16
    outer loop
      vertex 0.0 0.0027144228 0.011743072
      vertex 0.0 0.0019144227 0.011528713
      vertex 1.8431437E-18 2.6636068E-18 0.0145
    endloop
  endfacet
  facet normal -1.0 -1.4174299061278936E-16 5.289922182559236E-16
    outer loop
      vertex 1.8431437E-18 2.6636068E-18 0.0145
      vertex 0.0 0.0019144227 0.011528713
      vertex 1.8431437E-18 -0.00725 0.012557369
    endloop
  endfacet
  facet normal -1.0 -1.8082307429290454E-16 1.8082295078852281E-16
    outer loop
      vertex 0.0 0.0019144227 0.011528713
      vertex 0.0 0.0013287821 0.010943072
      vertex 1.8431437E-18 -0.00725 0.012557369
    endloop
  endfacet
  facet normal -1.0 -1.8082305473328464E-16 1.8082305473328464E-16
    outer loop
      vertex 1.8431437E-18 -0.00725 0.012557369
      vertex 0.0 0.0013287821 0.010943072
      vertex 1.8431437E-18 -0.012557369 0.00725
    endloop
  endfacet
  facet normal -1.0 -1.4291707753093626E-16 3.829452373660621E-17
    outer loop
      vertex 0.0 0.0013287821 0.010943072
      vertex 0.0 0.0011144227 0.010143072
      vertex 1.8431437E-18 -0.012557369 0.00725
    endloop
  endfacet
  facet normal -1.0 6.320696809226481E-17 -9.357859748205338E-16
    outer loop
      vertex 1.8431437E-18 -0.012557369 0.00725
      vertex 0.0 0.0011144227 0.010143072
      vertex 1.8431437E-18 -0.0045 0.007794229
    endloop
  endfacet
  facet normal -1.0 5.848313847728736E-16 -2.1826211042378122E-15
    outer loop
      vertex 0.0 0.0011144227 0.010143072
      vertex 1.8431437E-18 -5.5109104E-19 0.009
      vertex 1.8431437E-18 -0.0045 0.007794229
    endloop
  endfacet
  facet normal -1.0 -4.559979104278232E-15 1.701807004228686E-14
    outer loop
      vertex 0.0 -0.009343072 0.0013287821
      vertex -2.4177708E-17 -0.009 -2.2043642E-18
      vertex 0.0 -0.010143072 0.0011144227
    endloop
  endfacet
  facet normal -1.0 -2.863085267464464E-14 -7.671611524524213E-15
    outer loop
      vertex -2.4177708E-17 -0.009 -2.2043642E-18
      vertex -2.4177708E-17 -0.007794229 -0.0045
      vertex 0.0 -0.010143072 0.0011144227
    endloop
  endfacet
  facet normal -1.0 -1.3771573815173583E-15 3.730211037463322E-15
    outer loop
      vertex 0.0 -0.010143072 0.0011144227
      vertex -2.4177708E-17 -0.007794229 -0.0045
      vertex 1.8431437E-18 -0.0145 3.5514756E-18
    endloop
  endfacet
  facet normal -1.0 -1.4812572115923192E-14 -1.6290858851192522E-14
    outer loop
      vertex -2.4177708E-17 -0.007794229 -0.0045
      vertex 0.0 -0.0041000634 -0.009343072
      vertex 1.8431437E-18 -0.0145 3.5514756E-18
    endloop
  endfacet
  facet normal -1.0 -2.3341366105689554E-16 -6.254298121277488E-17
    outer loop
      vertex 1.8431437E-18 -0.0145 3.5514756E-18
      vertex 0.0 -0.0041000634 -0.009343072
      vertex 1.8431437E-18 -0.012557369 -0.00725
    endloop
  endfacet
  facet normal -1.0 -2.043817528577485E-16 5.4763886296480817E-17
    outer loop
      vertex 0.0 -0.0041000634 -0.009343072
      vertex 0.0 -0.0043144226 -0.010143072
      vertex 1.8431437E-18 -0.012557369 -0.00725
    endloop
  endfacet
  facet normal -1.0 -3.445209293137797E-16 -3.445209293137797E-16
    outer loop
      vertex 1.8431437E-18 -0.012557369 -0.00725
      vertex 0.0 -0.0043144226 -0.010143072
      vertex 1.8431437E-18 -0.00725 -0.012557369
    endloop
  endfacet
  facet normal -1.0 -5.144873611515714E-16 -1.3785637393320232E-16
    outer loop
      vertex 0.0 -0.0043144226 -0.010143072
      vertex 0.0 -0.0041000634 -0.010943072
      vertex 1.8431437E-18 -0.00725 -0.012557369
    endloop
  endfacet
  facet normal -1.0 -3.8687106496165763E-16 -3.8687080072396676E-16
    outer loop
      vertex 1.8431437E-18 -0.00725 -0.012557369
      vertex 0.0 -0.0041000634 -0.010943072
      vertex 0.0 -0.0035144228 -0.011528713
    endloop
  endfacet
  facet normal -1.0 -5.818352642440691E-15 1.914787582879885E-14
    outer loop
      vertex 0.0 0.0028205798 0.008546597
      vertex 0.0 0.0035144228 0.008757431
      vertex -2.4177708E-17 0.0045 0.007794229
    endloop
  endfacet
  facet normal -1.0 -1.2406595966354983E-14 1.2406587492497488E-14
    outer loop
      vertex 0.0 0.0035144228 0.008757431
      vertex 0.0 0.0041000634 0.009343072
      vertex -2.4177708E-17 0.0045 0.007794229
    endloop
  endfacet
  facet normal -1.0 2.1044105942833983E-14 2.1044105942833983E-14
    outer loop
      vertex -2.4177708E-17 0.0045 0.007794229
      vertex 0.0 0.0041000634 0.009343072
      vertex -2.4177708E-17 0.007794229 0.0045
    endloop
  endfacet
  facet normal -1.0 -2.5355357902005266E-15 3.058186809172443E-15
    outer loop
      vertex 0.0 0.0041000634 0.009343072
      vertex 1.8431437E-18 0.00725 0.012557369
      vertex -2.4177708E-17 0.007794229 0.0045
    endloop
  endfacet
  facet normal -1.0 1.6114618075507944E-14 4.317897589227401E-15
    outer loop
      vertex -2.4177708E-17 0.007794229 0.0045
      vertex 1.8431437E-18 0.00725 0.012557369
      vertex -2.4177708E-17 0.009 5.098985E-18
    endloop
  endfacet
  facet normal -1.0 1.7056651116254513E-13 2.584237559909675E-14
    outer loop
      vertex 1.8431437E-18 0.00725 0.012557369
      vertex 0.0 0.009343072 -0.0013287821
      vertex -2.4177708E-17 0.009 5.098985E-18
    endloop
  endfacet
  facet normal -1.0 1.3719769220024151E-14 -1.4653146918631583E-14
    outer loop
      vertex -2.4177708E-17 0.009 5.098985E-18
      vertex 0.0 0.009343072 -0.0013287821
      vertex 0.0 0.008813006 -0.0018250839
    endloop
  endfacet
  facet normal -1.0 2.388261023520911E-16 6.399327500566536E-17
    outer loop
      vertex 1.8431437E-18 0.00725 -0.012557369
      vertex 0.0 -0.0011144227 -0.010143072
      vertex 0.0 -0.0013287821 -0.009343072
    endloop
  endfacet
  facet normal -1.0 3.4633790532320705E-15 -3.4633790532320697E-15
    outer loop
      vertex 1.8431437E-18 0.00725 -0.012557369
      vertex -2.4177708E-17 0.0045 -0.007794229
      vertex -2.4177708E-17 0.007794229 -0.0045
    endloop
  endfacet
  facet normal -1.0 -2.4333248500685145E-16 -9.081306966606507E-16
    outer loop
      vertex 0.0 -0.0035144228 -0.011528713
      vertex 0.0 -0.0027144228 -0.011743072
      vertex 1.8431437E-18 -8.878689E-19 -0.0145
    endloop
  endfacet
  facet normal -1.0 1.4174281605879727E-16 -5.289923307223816E-16
    outer loop
      vertex 0.0 -0.0027144228 -0.011743072
      vertex 0.0 -0.0019144227 -0.011528713
      vertex 1.8431437E-18 -8.878689E-19 -0.0145
    endloop
  endfacet
  facet normal -1.0 1.4174299061278936E-16 -5.289922182559235E-16
    outer loop
      vertex 1.8431437E-18 -8.878689E-19 -0.0145
      vertex 0.0 -0.0019144227 -0.011528713
      vertex 1.8431437E-18 0.00725 -0.012557369
    endloop
  endfacet
  facet normal -1.0 1.8082307429290454E-16 -1.8082295078852281E-16
    outer loop
      vertex 0.0 -0.0019144227 -0.011528713
      vertex 0.0 -0.0013287821 -0.010943072
      vertex 1.8431437E-18 0.00725 -0.012557369
    endloop
  endfacet
  facet normal -1.0 2.045362158397828E-16 -5.4805325632107335E-17
    outer loop
      vertex 1.8431437E-18 0.00725 -0.012557369
      vertex 0.0 -0.0013287821 -0.010943072
      vertex 0.0 -0.0011144227 -0.010143072
    endloop
  endfacet
  facet normal -1.0 1.914787582879885E-14 5.818352642440691E-15
    outer loop
      vertex 0.0 0.008546597 -0.0028205798
      vertex 0.0 0.008757431 -0.0035144228
      vertex -2.4177708E-17 0.007794229 -0.0045
    endloop
  endfacet
  facet normal -1.0 1.2406587492497488E-14 1.2406595966354983E-14
    outer loop
      vertex 0.0 0.008757431 -0.0035144228
      vertex 0.0 0.009343072 -0.0041000634
      vertex -2.4177708E-17 0.007794229 -0.0045
    endloop
  endfacet
  facet normal -1.0 1.673596220609738E-14 -4.359865816678143E-15
    outer loop
      vertex -2.4177708E-17 0.007794229 -0.0045
      vertex 0.0 0.009343072 -0.0041000634
      vertex 1.8431437E-18 0.00725 -0.012557369
    endloop
  endfacet
  facet normal -1.0 -5.4763886296480817E-17 -2.043817528577485E-16
    outer loop
      vertex 0.0 0.009343072 -0.0041000634
      vertex 0.0 0.010143072 -0.0043144226
      vertex 1.8431437E-18 0.00725 -0.012557369
    endloop
  endfacet
  facet normal -1.0 3.445209293137797E-16 -3.445209293137797E-16
    outer loop
      vertex 1.8431437E-18 0.00725 -0.012557369
      vertex 0.0 0.010143072 -0.0043144226
      vertex 1.8431437E-18 0.012557369 -0.00725
    endloop
  endfacet
  facet normal -1.0 1.3785637393320232E-16 -5.144873611515714E-16
    outer loop
      vertex 0.0 0.010143072 -0.0043144226
      vertex 0.0 0.010943072 -0.0041000634
      vertex 1.8431437E-18 0.012557369 -0.00725
    endloop
  endfacet
  facet normal -1.0 3.8687080072396676E-16 -3.8687106496165763E-16
    outer loop
      vertex 1.8431437E-18 0.012557369 -0.00725
      vertex 0.0 0.010943072 -0.0041000634
      vertex 0.0 0.011528713 -0.0035144228
    endloop
  endfacet
  facet normal -1.0 3.3095127863825544E-16 3.098703091699298E-16
    outer loop
      vertex 0.0 -0.0013287821 -0.009343072
      vertex 0.0 -0.0018250839 -0.008813006
      vertex 1.8431437E-18 0.00725 -0.012557369
    endloop
  endfacet
  facet normal -1.0 -1.7690963657140734E-14 -4.336922546248934E-14
    outer loop
      vertex 0.0 -0.0018250839 -0.008813006
      vertex -2.4177708E-17 1.6532732E-18 -0.009
      vertex 1.8431437E-18 0.00725 -0.012557369
    endloop
  endfacet
  facet normal -1.0 1.2676843659894792E-15 -4.7310638976660194E-15
    outer loop
      vertex 1.8431437E-18 0.00725 -0.012557369
      vertex -2.4177708E-17 1.6532732E-18 -0.009
      vertex -2.4177708E-17 0.0045 -0.007794229
    endloop
  endfacet
  facet normal -1.1974116942383149E-16 0.9659258301432412 0.25881903071855084
    outer loop
      vertex 5.0E-4 -0.0085 0.0
      vertex 0.005 -0.0085 2.0818997E-18
      vertex 5.0E-4 -0.007361216 -0.00425
    endloop
  endfacet
  facet normal 0.0 0.9659258301432412 0.2588190307185507
    outer loop
      vertex 0.005 -0.0085 2.0818997E-18
      vertex 0.005 -0.007361216 -0.00425
      vertex 5.0E-4 -0.007361216 -0.00425
    endloop
  endfacet
  facet normal -0.0 0.7071067811865475 0.7071067811865475
    outer loop
      vertex 5.0E-4 -0.007361216 -0.00425
      vertex 0.005 -0.007361216 -0.00425
      vertex 5.0E-4 -0.00425 -0.007361216
    endloop
  endfacet
  facet normal 0.0 0.7071067811865475 0.7071067811865475
    outer loop
      vertex 0.005 -0.007361216 -0.00425
      vertex 0.005 -0.00425 -0.007361216
      vertex 5.0E-4 -0.00425 -0.007361216
    endloop
  endfacet
  facet normal -0.0 0.2588190307185507 0.9659258301432412
    outer loop
      vertex 5.0E-4 -0.00425 -0.007361216
      vertex 0.005 -0.00425 -0.007361216
      vertex 5.0E-4 1.5614247E-18 -0.0085
    endloop
  endfacet
  facet normal 2.5668109889734483E-16 0.258819030718551 0.9659258301432412
    outer loop
      vertex 0.005 -0.00425 -0.007361216
      vertex 0.005 -2.4078541E-18 -0.0085
      vertex 5.0E-4 1.5614247E-18 -0.0085
    endloop
  endfacet
  facet normal -2.2829442037059837E-16 -0.25881903071855095 0.9659258301432412
    outer loop
      vertex 5.0E-4 1.5614247E-18 -0.0085
      vertex 0.005 -2.4078541E-18 -0.0085
      vertex 5.0E-4 0.00425 -0.007361216
    endloop
  endfacet
  facet normal 0.0 -0.2588190307185507 0.9659258301432414
    outer loop
      vertex 0.005 -2.4078541E-18 -0.0085
      vertex 0.005 0.00425 -0.007361216
      vertex 5.0E-4 0.00425 -0.007361216
    endloop
  endfacet
  facet normal 0.0 -0.7071067811865475 0.7071067811865475
    outer loop
      vertex 5.0E-4 0.00425 -0.007361216
      vertex 0.005 0.00425 -0.007361216
      vertex 5.0E-4 0.007361216 -0.00425
    endloop
  endfacet
  facet normal 0.0 -0.7071067811865475 0.7071067811865475
    outer loop
      vertex 0.005 0.00425 -0.007361216
      vertex 0.005 0.007361216 -0.00425
      vertex 5.0E-4 0.007361216 -0.00425
    endloop
  endfacet
  facet normal 0.0 -0.9659258301432414 0.25881903071855056
    outer loop
      vertex 5.0E-4 0.007361216 -0.00425
      vertex 0.005 0.007361216 -0.00425
      vertex 5.0E-4 0.0085 4.8157082E-18
    endloop
  endfacet
  facet normal 5.989225640938049E-16 -0.9659258301432412 0.25881903071855117
    outer loop
      vertex 0.005 0.007361216 -0.00425
      vertex 0.005 0.0085 -4.8157082E-18
      vertex 5.0E-4 0.0085 4.8157082E-18
    endloop
  endfacet
  facet normal -5.539541904655015E-16 -0.9659258301432412 -0.25881903071855117
    outer loop
      vertex 5.0E-4 0.0085 4.8157082E-18
      vertex 0.005 0.0085 -4.8157082E-18
      vertex 5.0E-4 0.007361216 0.00425
    endloop
  endfacet
  facet normal 0.0 -0.9659258301432414 -0.25881903071855056
    outer loop
      vertex 0.005 0.0085 -4.8157082E-18
      vertex 0.005 0.007361216 0.00425
      vertex 5.0E-4 0.007361216 0.00425
    endloop
  endfacet
  facet normal 0.0 -0.7071067811865475 -0.7071067811865475
    outer loop
      vertex 5.0E-4 0.007361216 0.00425
      vertex 0.005 0.007361216 0.00425
      vertex 5.0E-4 0.00425 0.007361216
    endloop
  endfacet
  facet normal 0.0 -0.7071067811865475 -0.7071067811865475
    outer loop
      vertex 0.005 0.007361216 0.00425
      vertex 0.005 0.00425 0.007361216
      vertex 5.0E-4 0.00425 0.007361216
    endloop
  endfacet
  facet normal 0.0 -0.25881903071855084 -0.9659258301432414
    outer loop
      vertex 5.0E-4 0.00425 0.007361216
      vertex 0.005 0.00425 0.007361216
      vertex 5.0E-4 -5.204749E-19 0.0085
    endloop
  endfacet
  facet normal 5.989225640938055E-16 -0.2588190307185514 -0.9659258301432412
    outer loop
      vertex 0.005 0.00425 0.007361216
      vertex 0.005 9.110941E-18 0.0085
      vertex 5.0E-4 -5.204749E-19 0.0085
    endloop
  endfacet
  facet normal -5.539541617078309E-16 0.2588190307185509 -0.9659258301432412
    outer loop
      vertex 5.0E-4 -5.204749E-19 0.0085
      vertex 0.005 9.110941E-18 0.0085
      vertex 5.0E-4 -0.00425 0.007361216
    endloop
  endfacet
  facet normal 0.0 0.2588190307185503 -0.9659258301432414
    outer loop
      vertex 0.005 9.110941E-18 0.0085
      vertex 0.005 -0.00425 0.007361216
      vertex 5.0E-4 -0.00425 0.007361216
    endloop
  endfacet
  facet normal 0.0 0.7071067811865475 -0.7071067811865475
    outer loop
      vertex 5.0E-4 -0.00425 0.007361216
      vertex 0.005 -0.00425 0.007361216
      vertex 5.0E-4 -0.007361216 0.00425
    endloop
  endfacet
  facet normal 0.0 0.7071067811865475 -0.7071067811865475
    outer loop
      vertex 0.005 -0.00425 0.007361216
      vertex 0.005 -0.007361216 0.00425
      vertex 5.0E-4 -0.007361216 0.00425
    endloop
  endfacet
  facet normal 0.0 0.9659258301432412 -0.25881903071855084
    outer loop
      vertex 5.0E-4 -0.007361216 0.00425
      vertex 0.005 -0.007361216 0.00425
      vertex 5.0E-4 -0.0085 0.0
    endloop
  endfacet
  facet normal 8.556036629911492E-17 0.9659258301432412 -0.25881903071855095
    outer loop
      vertex 0.005 -0.007361216 0.00425
      vertex 0.005 -0.0085 2.0818997E-18
      vertex 5.0E-4 -0.0085 0.0
    endloop
  endfacet
  facet normal -0.694746086750464 -0.6947470593963448 -0.186156918767603
    outer loop
      vertex 5.0E-4 -0.015 0.0
      vertex 1.8431437E-18 -0.012557369 -0.00725
      vertex 5.0E-4 -0.012990381 -0.0075
    endloop
  endfacet
  facet normal -0.6947462212606222 -0.5085900549775263 -0.5085900549775263
    outer loop
      vertex 1.8431437E-18 -0.012557369 -0.00725
      vertex 1.8431437E-18 -0.00725 -0.012557369
      vertex 5.0E-4 -0.012990381 -0.0075
    endloop
  endfacet
  facet normal -0.6947462212606222 -0.5085900549775263 -0.5085900549775263
    outer loop
      vertex 5.0E-4 -0.012990381 -0.0075
      vertex 1.8431437E-18 -0.00725 -0.012557369
      vertex 5.0E-4 -0.0075 -0.012990381
    endloop
  endfacet
  facet normal -0.6947460780749879 -0.1861568583508828 -0.6947470842604179
    outer loop
      vertex 1.8431437E-18 -0.00725 -0.012557369
      vertex 1.8431437E-18 -8.878689E-19 -0.0145
      vertex 5.0E-4 -0.0075 -0.012990381
    endloop
  endfacet
  facet normal -0.6947465899267812 -0.18615679297360882 -0.6947465899267804
    outer loop
      vertex 5.0E-4 -0.0075 -0.012990381
      vertex 1.8431437E-18 -8.878689E-19 -0.0145
      vertex 5.0E-4 -9.184851E-19 -0.015
    endloop
  endfacet
  facet normal -0.694746598602225 0.18615672821920518 -0.6947465986022242
    outer loop
      vertex 1.8431437E-18 -8.878689E-19 -0.0145
      vertex 1.8431437E-18 0.00725 -0.012557369
      vertex 5.0E-4 -9.184851E-19 -0.015
    endloop
  endfacet
  facet normal -0.694746086750464 0.18615691876760307 -0.6947470593963452
    outer loop
      vertex 5.0E-4 -9.184851E-19 -0.015
      vertex 1.8431437E-18 0.00725 -0.012557369
      vertex 5.0E-4 0.0075 -0.012990381
    endloop
  endfacet
  facet normal -0.6947462212606222 0.5085900549775263 -0.5085900549775263
    outer loop
      vertex 1.8431437E-18 0.00725 -0.012557369
      vertex 1.8431437E-18 0.012557369 -0.00725
      vertex 5.0E-4 0.0075 -0.012990381
    endloop
  endfacet
  facet normal -0.6947462212606222 0.5085900549775263 -0.5085900549775263
    outer loop
      vertex 5.0E-4 0.0075 -0.012990381
      vertex 1.8431437E-18 0.012557369 -0.00725
      vertex 5.0E-4 0.012990381 -0.0075
    endloop
  endfacet
  facet normal -0.6947460780749879 0.6947470842604179 -0.18615685835088294
    outer loop
      vertex 1.8431437E-18 0.012557369 -0.00725
      vertex 1.8431437E-18 0.0145 -8.215032E-18
      vertex 5.0E-4 0.012990381 -0.0075
    endloop
  endfacet
  facet normal -0.6947465899267812 0.6947465899267804 -0.186156792973609
    outer loop
      vertex 5.0E-4 0.012990381 -0.0075
      vertex 1.8431437E-18 0.0145 -8.215032E-18
      vertex 5.0E-4 0.015 -8.498308E-18
    endloop
  endfacet
  facet normal -0.6947465986022249 0.6947465986022241 0.18615672821920498
    outer loop
      vertex 1.8431437E-18 0.0145 -8.215032E-18
      vertex 1.8431437E-18 0.012557369 0.00725
      vertex 5.0E-4 0.015 -8.498308E-18
    endloop
  endfacet
  facet normal -0.6947460867504641 0.6947470593963452 0.18615691876760287
    outer loop
      vertex 5.0E-4 0.015 -8.498308E-18
      vertex 1.8431437E-18 0.012557369 0.00725
      vertex 5.0E-4 0.012990381 0.0075
    endloop
  endfacet
  facet normal -0.6947462212606222 0.5085900549775263 0.5085900549775263
    outer loop
      vertex 1.8431437E-18 0.012557369 0.00725
      vertex 1.8431437E-18 0.00725 0.012557369
      vertex 5.0E-4 0.012990381 0.0075
    endloop
  endfacet
  facet normal -0.6947462212606222 0.5085900549775263 0.5085900549775263
    outer loop
      vertex 5.0E-4 0.012990381 0.0075
      vertex 1.8431437E-18 0.00725 0.012557369
      vertex 5.0E-4 0.0075 0.012990381
    endloop
  endfacet
  facet normal -0.6947460780749878 0.18615685835088283 0.6947470842604179
    outer loop
      vertex 1.8431437E-18 0.00725 0.012557369
      vertex 1.8431437E-18 2.6636068E-18 0.0145
      vertex 5.0E-4 0.0075 0.012990381
    endloop
  endfacet
  facet normal -0.6947465899267812 0.18615679297360882 0.6947465899267803
    outer loop
      vertex 5.0E-4 0.0075 0.012990381
      vertex 1.8431437E-18 2.6636068E-18 0.0145
      vertex 5.0E-4 2.7554553E-18 0.015
    endloop
  endfacet
  facet normal -0.6947465986022249 -0.18615672821920512 0.6947465986022242
    outer loop
      vertex 1.8431437E-18 2.6636068E-18 0.0145
      vertex 1.8431437E-18 -0.00725 0.012557369
      vertex 5.0E-4 2.7554553E-18 0.015
    endloop
  endfacet
  facet normal -0.6947460867504642 -0.18615691876760299 0.6947470593963451
    outer loop
      vertex 5.0E-4 2.7554553E-18 0.015
      vertex 1.8431437E-18 -0.00725 0.012557369
      vertex 5.0E-4 -0.0075 0.012990381
    endloop
  endfacet
  facet normal -0.6947462212606222 -0.5085900549775263 0.5085900549775263
    outer loop
      vertex 1.8431437E-18 -0.00725 0.012557369
      vertex 1.8431437E-18 -0.012557369 0.00725
      vertex 5.0E-4 -0.0075 0.012990381
    endloop
  endfacet
  facet normal -0.6947462212606222 -0.5085900549775263 0.5085900549775263
    outer loop
      vertex 5.0E-4 -0.0075 0.012990381
      vertex 1.8431437E-18 -0.012557369 0.00725
      vertex 5.0E-4 -0.012990381 0.0075
    endloop
  endfacet
  facet normal -0.6947460780749879 -0.6947470842604179 0.18615685835088286
    outer loop
      vertex 1.8431437E-18 -0.012557369 0.00725
      vertex 1.8431437E-18 -0.0145 3.5514756E-18
      vertex 5.0E-4 -0.012990381 0.0075
    endloop
  endfacet
  facet normal -0.6947465899267806 -0.694746589926781 0.18615679297360893
    outer loop
      vertex 5.0E-4 -0.012990381 0.0075
      vertex 1.8431437E-18 -0.0145 3.5514756E-18
      vertex 5.0E-4 -0.015 0.0
    endloop
  endfacet
  facet normal -0.6947465986022255 -0.6947465986022235 -0.1861567282192049
    outer loop
      vertex 1.8431437E-18 -0.0145 3.5514756E-18
      vertex 1.8431437E-18 -0.012557369 -0.00725
      vertex 5.0E-4 -0.015 0.0
    endloop
  endfacet
  facet normal 0.0 0.9659258244613249 0.2588190519237522
    outer loop
      vertex 0.008 0.015 -3.6739405E-18
      vertex 5.0E-4 0.012990381 0.0075
      vertex 0.008 0.012990381 0.0075
    endloop
  endfacet
  facet normal -0.0 0.7071067811865476 0.7071067811865476
    outer loop
      vertex 5.0E-4 0.012990381 0.0075
      vertex 5.0E-4 0.0075 0.012990381
      vertex 0.008 0.012990381 0.0075
    endloop
  endfacet
  facet normal 0.0 0.7071067811865476 0.7071067811865476
    outer loop
      vertex 0.008 0.012990381 0.0075
      vertex 5.0E-4 0.0075 0.012990381
      vertex 0.008 0.0075 0.012990381
    endloop
  endfacet
  facet normal -0.0 0.2588190519237524 0.9659258244613248
    outer loop
      vertex 5.0E-4 0.0075 0.012990381
      vertex 5.0E-4 2.7554553E-18 0.015
      vertex 0.008 0.0075 0.012990381
    endloop
  endfacet
  facet normal -5.818104874115672E-17 0.25881905192375243 0.9659258244613247
    outer loop
      vertex 0.008 0.0075 0.012990381
      vertex 5.0E-4 2.7554553E-18 0.015
      vertex 0.008 4.249154E-18 0.015
    endloop
  endfacet
  facet normal 5.154635751916547E-17 -0.2588190519237522 0.9659258244613247
    outer loop
      vertex 5.0E-4 2.7554553E-18 0.015
      vertex 5.0E-4 -0.0075 0.012990381
      vertex 0.008 4.249154E-18 0.015
    endloop
  endfacet
  facet normal 0.0 -0.25881905192375215 0.9659258244613249
    outer loop
      vertex 0.008 4.249154E-18 0.015
      vertex 5.0E-4 -0.0075 0.012990381
      vertex 0.008 -0.0075 0.012990381
    endloop
  endfacet
  facet normal 0.0 -0.7071067811865476 0.7071067811865476
    outer loop
      vertex 5.0E-4 -0.0075 0.012990381
      vertex 5.0E-4 -0.012990381 0.0075
      vertex 0.008 -0.0075 0.012990381
    endloop
  endfacet
  facet normal 0.0 -0.7071067811865476 0.7071067811865476
    outer loop
      vertex 0.008 -0.0075 0.012990381
      vertex 5.0E-4 -0.012990381 0.0075
      vertex 0.008 -0.012990381 0.0075
    endloop
  endfacet
  facet normal 0.0 -0.9659258244613248 0.2588190519237523
    outer loop
      vertex 5.0E-4 -0.012990381 0.0075
      vertex 5.0E-4 -0.015 0.0
      vertex 0.008 -0.012990381 0.0075
    endloop
  endfacet
  facet normal -3.1999576807636214E-16 -0.9659258244613247 0.25881905192375254
    outer loop
      vertex 0.008 -0.012990381 0.0075
      vertex 5.0E-4 -0.015 0.0
      vertex 0.008 -0.015 8.498308E-18
    endloop
  endfacet
  facet normal 2.9326986926880528E-16 -0.9659258244613248 -0.2588190519237523
    outer loop
      vertex 5.0E-4 -0.015 0.0
      vertex 5.0E-4 -0.012990381 -0.0075
      vertex 0.008 -0.015 8.498308E-18
    endloop
  endfacet
  facet normal 0.0 -0.9659258244613249 -0.25881905192375204
    outer loop
      vertex 0.008 -0.015 8.498308E-18
      vertex 5.0E-4 -0.012990381 -0.0075
      vertex 0.008 -0.012990381 -0.0075
    endloop
  endfacet
  facet normal 0.0 -0.7071067811865476 -0.7071067811865476
    outer loop
      vertex 5.0E-4 -0.012990381 -0.0075
      vertex 5.0E-4 -0.0075 -0.012990381
      vertex 0.008 -0.012990381 -0.0075
    endloop
  endfacet
  facet normal 0.0 -0.7071067811865476 -0.7071067811865476
    outer loop
      vertex 0.008 -0.012990381 -0.0075
      vertex 5.0E-4 -0.0075 -0.012990381
      vertex 0.008 -0.0075 -0.012990381
    endloop
  endfacet
  facet normal 0.0 -0.2588190519237523 -0.9659258244613248
    outer loop
      vertex 5.0E-4 -0.0075 -0.012990381
      vertex 5.0E-4 -9.184851E-19 -0.015
      vertex 0.008 -0.0075 -0.012990381
    endloop
  endfacet
  facet normal -5.818104874115671E-17 -0.2588190519237524 -0.9659258244613248
    outer loop
      vertex 0.008 -0.0075 -0.012990381
      vertex 5.0E-4 -9.184851E-19 -0.015
      vertex 0.008 -2.7554553E-18 -0.015
    endloop
  endfacet
  facet normal 6.339238474349142E-17 0.2588190519237522 -0.9659258244613247
    outer loop
      vertex 5.0E-4 -9.184851E-19 -0.015
      vertex 5.0E-4 0.0075 -0.012990381
      vertex 0.008 -2.7554553E-18 -0.015
    endloop
  endfacet
  facet normal 0.0 0.2588190519237522 -0.9659258244613247
    outer loop
      vertex 0.008 -2.7554553E-18 -0.015
      vertex 5.0E-4 0.0075 -0.012990381
      vertex 0.008 0.0075 -0.012990381
    endloop
  endfacet
  facet normal 0.0 0.7071067811865476 -0.7071067811865476
    outer loop
      vertex 5.0E-4 0.0075 -0.012990381
      vertex 5.0E-4 0.012990381 -0.0075
      vertex 0.008 0.0075 -0.012990381
    endloop
  endfacet
  facet normal 0.0 0.7071067811865476 -0.7071067811865476
    outer loop
      vertex 0.008 0.0075 -0.012990381
      vertex 5.0E-4 0.012990381 -0.0075
      vertex 0.008 0.012990381 -0.0075
    endloop
  endfacet
  facet normal 0.0 0.9659258244613247 -0.25881905192375254
    outer loop
      vertex 5.0E-4 0.012990381 -0.0075
      vertex 5.0E-4 0.015 -8.498308E-18
      vertex 0.008 0.012990381 -0.0075
    endloop
  endfacet
  facet normal 2.0363367059404852E-16 0.9659258244613248 -0.25881905192375243
    outer loop
      vertex 0.008 0.012990381 -0.0075
      vertex 5.0E-4 0.015 -8.498308E-18
      vertex 0.008 0.015 -3.6739405E-18
    endloop
  endfacet
  facet normal -1.6648509633090157E-16 0.9659258244613249 0.25881905192375204
    outer loop
      vertex 5.0E-4 0.015 -8.498308E-18
      vertex 5.0E-4 0.012990381 0.0075
      vertex 0.008 0.015 -3.6739405E-18
    endloop
  endfacet
  facet normal -0.02234429828595637 0.12706479355692923 0.991642713164597
    outer loop
      vertex 9.999995E-5 0.0023004215 0.008597561
      vertex 0.005 0.0019144227 0.008757431
      vertex 3.606283E-5 0.0027144228 0.008543072
    endloop
  endfacet
  facet normal 0.0 0.25881861618906704 0.9659259412159797
    outer loop
      vertex 0.005 0.0019144227 0.008757431
      vertex 0.005 0.0027144228 0.008543072
      vertex 3.606283E-5 0.0027144228 0.008543072
    endloop
  endfacet
  facet normal 0.0 -0.03318724398529042 0.9994491517014064
    outer loop
      vertex 3.606283E-5 0.0027144228 0.008543072
      vertex 0.005 0.0027144228 0.008543072
      vertex 0.0 0.0028205798 0.008546597
    endloop
  endfacet
  facet normal -0.004814048641861257 -0.2588156472874406 0.9659147403652442
    outer loop
      vertex 0.005 0.0027144228 0.008543072
      vertex 0.005 0.0035144228 0.008757431
      vertex 0.0 0.0028205798 0.008546597
    endloop
  endfacet
  facet normal 0.002758550610926717 0.41233968787003705 0.9110259997419213
    outer loop
      vertex 9.999995E-5 0.0023004215 0.008597561
      vertex 1.9990875E-5 0.0019201081 0.008769937
      vertex 0.005 0.0019144227 0.008757431
    endloop
  endfacet
  facet normal 0.002758550592626586 0.4123360550187297 0.9110276439989179
    outer loop
      vertex 1.9990875E-5 0.0019201081 0.008769937
      vertex 0.0 0.0018250839 0.008813006
      vertex 0.005 0.0019144227 0.008757431
    endloop
  endfacet
  facet normal -0.00477487495337582 0.7070989618031299 0.7070984788458501
    outer loop
      vertex 0.005 0.0019144227 0.008757431
      vertex 0.0 0.0018250839 0.008813006
      vertex 0.005 0.0013287821 0.009343072
    endloop
  endfacet
  facet normal 0.0 0.7299734391142503 0.6834755139635318
    outer loop
      vertex 0.0 0.0018250839 0.008813006
      vertex 0.0 0.0013287821 0.009343072
      vertex 0.005 0.0013287821 0.009343072
    endloop
  endfacet
  facet normal 0.0 0.9659258123872507 0.2588190969848045
    outer loop
      vertex 0.005 0.0013287821 0.009343072
      vertex 0.0 0.0013287821 0.009343072
      vertex 0.005 0.0011144227 0.010143072
    endloop
  endfacet
  facet normal 0.0 0.9659258123872507 0.2588190969848045
    outer loop
      vertex 0.0 0.0013287821 0.009343072
      vertex 0.0 0.0011144227 0.010143072
      vertex 0.005 0.0011144227 0.010143072
    endloop
  endfacet
  facet normal 0.0 0.9659258123872507 -0.2588190969848045
    outer loop
      vertex 0.005 0.0011144227 0.010143072
      vertex 0.0 0.0011144227 0.010143072
      vertex 0.005 0.0013287821 0.010943072
    endloop
  endfacet
  facet normal 0.0 0.9659258123872507 -0.2588190969848045
    outer loop
      vertex 0.0 0.0011144227 0.010143072
      vertex 0.0 0.0013287821 0.010943072
      vertex 0.005 0.0013287821 0.010943072
    endloop
  endfacet
  facet normal 0.0 0.7071070226678992 -0.7071065397051135
    outer loop
      vertex 0.005 0.0013287821 0.010943072
      vertex 0.0 0.0013287821 0.010943072
      vertex 0.005 0.0019144227 0.011528713
    endloop
  endfacet
  facet normal 0.0 0.7071070226678992 -0.7071065397051135
    outer loop
      vertex 0.0 0.0013287821 0.010943072
      vertex 0.0 0.0019144227 0.011528713
      vertex 0.005 0.0019144227 0.011528713
    endloop
  endfacet
  facet normal 0.0 0.25881861618906904 -0.9659259412159792
    outer loop
      vertex 0.005 0.0019144227 0.011528713
      vertex 0.0 0.0019144227 0.011528713
      vertex 0.005 0.0027144228 0.011743072
    endloop
  endfacet
  facet normal 0.0 0.25881861618906904 -0.9659259412159792
    outer loop
      vertex 0.0 0.0019144227 0.011528713
      vertex 0.0 0.0027144228 0.011743072
      vertex 0.005 0.0027144228 0.011743072
    endloop
  endfacet
  facet normal -0.0 -0.2588186463742079 -0.9659259331279094
    outer loop
      vertex 0.005 0.0027144228 0.011743072
      vertex 0.0 0.0027144228 0.011743072
      vertex 0.005 0.0035144228 0.011528713
    endloop
  endfacet
  facet normal 0.0 -0.2588186463742079 -0.9659259331279094
    outer loop
      vertex 0.0 0.0027144228 0.011743072
      vertex 0.0 0.0035144228 0.011528713
      vertex 0.005 0.0035144228 0.011528713
    endloop
  endfacet
  facet normal -0.0 -0.707107022667899 -0.7071065397051137
    outer loop
      vertex 0.005 0.0035144228 0.011528713
      vertex 0.0 0.0035144228 0.011528713
      vertex 0.005 0.0041000634 0.010943072
    endloop
  endfacet
  facet normal 0.0 -0.707107022667899 -0.7071065397051137
    outer loop
      vertex 0.0 0.0035144228 0.011528713
      vertex 0.0 0.0041000634 0.010943072
      vertex 0.005 0.0041000634 0.010943072
    endloop
  endfacet
  facet normal -0.0 -0.9659258727576029 -0.25881887167952683
    outer loop
      vertex 0.005 0.0041000634 0.010943072
      vertex 0.0 0.0041000634 0.010943072
      vertex 0.005 0.0043144226 0.010143072
    endloop
  endfacet
  facet normal 0.0 -0.9659258727576029 -0.25881887167952683
    outer loop
      vertex 0.0 0.0041000634 0.010943072
      vertex 0.0 0.0043144226 0.010143072
      vertex 0.005 0.0043144226 0.010143072
    endloop
  endfacet
  facet normal 0.0 -0.9659258727576029 0.25881887167952683
    outer loop
      vertex 0.005 0.0043144226 0.010143072
      vertex 0.0 0.0043144226 0.010143072
      vertex 0.005 0.0041000634 0.009343072
    endloop
  endfacet
  facet normal 0.0 -0.9659258727576029 0.25881887167952683
    outer loop
      vertex 0.0 0.0043144226 0.010143072
      vertex 0.0 0.0041000634 0.009343072
      vertex 0.005 0.0041000634 0.009343072
    endloop
  endfacet
  facet normal 0.0 -0.707107022667899 0.7071065397051137
    outer loop
      vertex 0.005 0.0041000634 0.009343072
      vertex 0.0 0.0041000634 0.009343072
      vertex 0.005 0.0035144228 0.008757431
    endloop
  endfacet
  facet normal 0.0 -0.707107022667899 0.7071065397051137
    outer loop
      vertex 0.0 0.0041000634 0.009343072
      vertex 0.0 0.0035144228 0.008757431
      vertex 0.005 0.0035144228 0.008757431
    endloop
  endfacet
  facet normal 0.0 -0.29073802014556094 0.9568026983876244
    outer loop
      vertex 0.005 0.0035144228 0.008757431
      vertex 0.0 0.0035144228 0.008757431
      vertex 0.0 0.0028205798 0.008546597
    endloop
  endfacet
  facet normal -0.022333890110057666 -0.9916349373610011 0.12712729194628256
    outer loop
      vertex 9.9999874E-5 -0.0085976105 0.002300237
      vertex 0.005 -0.008757431 0.0019144227
      vertex 3.606283E-5 -0.008543072 0.0027144228
    endloop
  endfacet
  facet normal 0.0 -0.9659259412159797 0.25881861618906704
    outer loop
      vertex 0.005 -0.008757431 0.0019144227
      vertex 0.005 -0.008543072 0.0027144228
      vertex 3.606283E-5 -0.008543072 0.0027144228
    endloop
  endfacet
  facet normal 0.0 -0.9998609863495076 -0.01667357118885435
    outer loop
      vertex 3.606283E-5 -0.008543072 0.0027144228
      vertex 0.005 -0.008543072 0.0027144228
      vertex 1.893013E-5 -0.008543961 0.0027677333
    endloop
  endfacet
  facet normal -0.002597634639981631 -0.965922674230439 -0.2588177731567022
    outer loop
      vertex 0.005 -0.008543072 0.0027144228
      vertex 0.005 -0.008757431 0.0035144228
      vertex 1.893013E-5 -0.008543961 0.0027677333
    endloop
  endfacet
  facet normal -0.033493017209231556 -0.9975292415200008 -0.06175459586746576
    outer loop
      vertex 1.893013E-5 -0.008543961 0.0027677333
      vertex 0.005 -0.008757431 0.0035144228
      vertex 0.0 -0.008546597 0.0028205798
    endloop
  endfacet
  facet normal 0.0027571170930022477 -0.9110023347293061 0.41239197909645214
    outer loop
      vertex 9.9999874E-5 -0.0085976105 0.002300237
      vertex 1.9998233E-5 -0.00876993 0.0019201062
      vertex 0.005 -0.008757431 0.0019144227
    endloop
  endfacet
  facet normal 0.0027571171270678358 -0.9109993118405703 0.41239865680086213
    outer loop
      vertex 1.9998233E-5 -0.00876993 0.0019201062
      vertex 0.0 -0.008813006 0.0018250839
      vertex 0.005 -0.008757431 0.0019144227
    endloop
  endfacet
  facet normal -0.00477487495337582 -0.7070984788458501 0.7070989618031299
    outer loop
      vertex 0.005 -0.008757431 0.0019144227
      vertex 0.0 -0.008813006 0.0018250839
      vertex 0.005 -0.009343072 0.0013287821
    endloop
  endfacet
  facet normal 0.0 -0.6834755139635318 0.7299734391142503
    outer loop
      vertex 0.0 -0.008813006 0.0018250839
      vertex 0.0 -0.009343072 0.0013287821
      vertex 0.005 -0.009343072 0.0013287821
    endloop
  endfacet
  facet normal 0.0 -0.2588190969848045 0.9659258123872507
    outer loop
      vertex 0.005 -0.009343072 0.0013287821
      vertex 0.0 -0.009343072 0.0013287821
      vertex 0.005 -0.010143072 0.0011144227
    endloop
  endfacet
  facet normal 0.0 -0.2588190969848045 0.9659258123872507
    outer loop
      vertex 0.0 -0.009343072 0.0013287821
      vertex 0.0 -0.010143072 0.0011144227
      vertex 0.005 -0.010143072 0.0011144227
    endloop
  endfacet
  facet normal 0.0 0.2588190969848045 0.9659258123872507
    outer loop
      vertex 0.005 -0.010143072 0.0011144227
      vertex 0.0 -0.010143072 0.0011144227
      vertex 0.005 -0.010943072 0.0013287821
    endloop
  endfacet
  facet normal 0.0 0.2588190969848045 0.9659258123872507
    outer loop
      vertex 0.0 -0.010143072 0.0011144227
      vertex 0.0 -0.010943072 0.0013287821
      vertex 0.005 -0.010943072 0.0013287821
    endloop
  endfacet
  facet normal 0.0 0.7071065397051135 0.7071070226678992
    outer loop
      vertex 0.005 -0.010943072 0.0013287821
      vertex 0.0 -0.010943072 0.0013287821
      vertex 0.005 -0.011528713 0.0019144227
    endloop
  endfacet
  facet normal 0.0 0.7071065397051135 0.7071070226678992
    outer loop
      vertex 0.0 -0.010943072 0.0013287821
      vertex 0.0 -0.011528713 0.0019144227
      vertex 0.005 -0.011528713 0.0019144227
    endloop
  endfacet
  facet normal 0.0 0.9659259412159792 0.25881861618906904
    outer loop
      vertex 0.005 -0.011528713 0.0019144227
      vertex 0.0 -0.011528713 0.0019144227
      vertex 0.005 -0.011743072 0.0027144228
    endloop
  endfacet
  facet normal 0.0 0.9659259412159792 0.25881861618906904
    outer loop
      vertex 0.0 -0.011528713 0.0019144227
      vertex 0.0 -0.011743072 0.0027144228
      vertex 0.005 -0.011743072 0.0027144228
    endloop
  endfacet
  facet normal 0.0 0.9659259331279094 -0.2588186463742079
    outer loop
      vertex 0.005 -0.011743072 0.0027144228
      vertex 0.0 -0.011743072 0.0027144228
      vertex 0.005 -0.011528713 0.0035144228
    endloop
  endfacet
  facet normal 0.0 0.9659259331279094 -0.2588186463742079
    outer loop
      vertex 0.0 -0.011743072 0.0027144228
      vertex 0.0 -0.011528713 0.0035144228
      vertex 0.005 -0.011528713 0.0035144228
    endloop
  endfacet
  facet normal 0.0 0.7071065397051137 -0.707107022667899
    outer loop
      vertex 0.005 -0.011528713 0.0035144228
      vertex 0.0 -0.011528713 0.0035144228
      vertex 0.005 -0.010943072 0.0041000634
    endloop
  endfacet
  facet normal 0.0 0.7071065397051137 -0.707107022667899
    outer loop
      vertex 0.0 -0.011528713 0.0035144228
      vertex 0.0 -0.010943072 0.0041000634
      vertex 0.005 -0.010943072 0.0041000634
    endloop
  endfacet
  facet normal 0.0 0.25881887167952683 -0.9659258727576029
    outer loop
      vertex 0.005 -0.010943072 0.0041000634
      vertex 0.0 -0.010943072 0.0041000634
      vertex 0.005 -0.010143072 0.0043144226
    endloop
  endfacet
  facet normal 0.0 0.25881887167952683 -0.9659258727576029
    outer loop
      vertex 0.0 -0.010943072 0.0041000634
      vertex 0.0 -0.010143072 0.0043144226
      vertex 0.005 -0.010143072 0.0043144226
    endloop
  endfacet
  facet normal -0.0 -0.25881887167952683 -0.9659258727576029
    outer loop
      vertex 0.005 -0.010143072 0.0043144226
      vertex 0.0 -0.010143072 0.0043144226
      vertex 0.005 -0.009343072 0.0041000634
    endloop
  endfacet
  facet normal 0.0 -0.25881887167952683 -0.9659258727576029
    outer loop
      vertex 0.0 -0.010143072 0.0043144226
      vertex 0.0 -0.009343072 0.0041000634
      vertex 0.005 -0.009343072 0.0041000634
    endloop
  endfacet
  facet normal -0.0 -0.7071065397051137 -0.707107022667899
    outer loop
      vertex 0.005 -0.009343072 0.0041000634
      vertex 0.0 -0.009343072 0.0041000634
      vertex 0.005 -0.008757431 0.0035144228
    endloop
  endfacet
  facet normal 0.0 -0.7071065397051137 -0.707107022667899
    outer loop
      vertex 0.0 -0.009343072 0.0041000634
      vertex 0.0 -0.008757431 0.0035144228
      vertex 0.005 -0.008757431 0.0035144228
    endloop
  endfacet
  facet normal -0.0 -0.9568026983876244 -0.29073802014556094
    outer loop
      vertex 0.005 -0.008757431 0.0035144228
      vertex 0.0 -0.008757431 0.0035144228
      vertex 0.0 -0.008546597 0.0028205798
    endloop
  endfacet
  facet normal 1.0 0.0 0.0
    outer loop
      vertex 0.005 -0.011009612 0.0064072115
      vertex 0.005 -0.0064072115 0.0064072115
      vertex 0.005 -0.0064072115 0.011009612
    endloop
  endfacet
  facet normal 1.0 0.0 0.0
    outer loop
      vertex 0.005 -0.0085 2.0818997E-18
      vertex 0.005 -0.009343072 0.0013287821
      vertex 0.005 -0.010143072 0.0011144227
    endloop
  endfacet
  facet normal 1.0 0.0 0.0
    outer loop
      vertex 0.005 0.0035144228 0.008757431
      vertex 0.005 0.0027144228 0.008543072
      vertex 0.005 0.011009612 0.0064072115
    endloop
  endfacet
  facet normal 1.0 0.0 0.0
    outer loop
      vertex 0.005 0.0 0.01275
      vertex 0.005 0.0013287821 0.010943072
      vertex 0.005 0.0019144227 0.011528713
    endloop
  endfacet
  facet normal 1.0 0.0 0.0
    outer loop
      vertex 0.005 0.0013287821 0.010943072
      vertex 0.005 0.0 0.01275
      vertex 0.005 0.0011144227 0.010143072
    endloop
  endfacet
  facet normal 1.0 0.0 0.0
    outer loop
      vertex 0.005 0.0 0.01275
      vertex 0.005 -0.006375 0.011041824
      vertex 0.005 0.0011144227 0.010143072
    endloop
  endfacet
  facet normal 1.0 0.0 0.0
    outer loop
      vertex 0.005 0.0011144227 0.010143072
      vertex 0.005 -0.006375 0.011041824
      vertex 0.005 -0.0064072115 0.011009612
    endloop
  endfacet
  facet normal 1.0 0.0 -0.0
    outer loop
      vertex 0.005 0.0019144227 0.011528713
      vertex 0.005 0.0027144228 0.011743072
      vertex 0.005 0.0 0.01275
    endloop
  endfacet
  facet normal 1.0 -0.0 -0.0
    outer loop
      vertex 0.005 0.0027144228 0.011743072
      vertex 0.005 0.0035144228 0.011528713
      vertex 0.005 0.0 0.01275
    endloop
  endfacet
  facet normal 1.0 0.0 0.0
    outer loop
      vertex 0.005 0.0 0.01275
      vertex 0.005 0.0035144228 0.011528713
      vertex 0.005 0.006375 0.011041824
    endloop
  endfacet
  facet normal 1.0 0.0 0.0
    outer loop
      vertex 0.005 0.0035144228 0.011528713
      vertex 0.005 0.0041000634 0.010943072
      vertex 0.005 0.006375 0.011041824
    endloop
  endfacet
  facet normal 1.0 -0.0 0.0
    outer loop
      vertex 0.005 0.0041000634 0.010943072
      vertex 0.005 0.0043144226 0.010143072
      vertex 0.005 0.006375 0.011041824
    endloop
  endfacet
  facet normal 1.0 0.0 0.0
    outer loop
      vertex 0.005 0.006375 0.011041824
      vertex 0.005 0.0043144226 0.010143072
      vertex 0.005 0.011009612 0.0064072115
    endloop
  endfacet
  facet normal 1.0 0.0 0.0
    outer loop
      vertex 0.005 0.0043144226 0.010143072
      vertex 0.005 0.0041000634 0.009343072
      vertex 0.005 0.011009612 0.0064072115
    endloop
  endfacet
  facet normal 1.0 0.0 0.0
    outer loop
      vertex 0.005 0.011009612 0.0064072115
      vertex 0.005 0.0041000634 0.009343072
      vertex 0.005 0.0035144228 0.008757431
    endloop
  endfacet
  facet normal 1.0 0.0 0.0
    outer loop
      vertex 0.005 0.0019144227 0.008757431
      vertex 0.005 0.0013287821 0.009343072
      vertex 0.005 9.110941E-18 0.0085
    endloop
  endfacet
  facet normal 1.0 0.0 0.0
    outer loop
      vertex 0.005 0.0013287821 0.009343072
      vertex 0.005 0.0011144227 0.010143072
      vertex 0.005 9.110941E-18 0.0085
    endloop
  endfacet
  facet normal 1.0 0.0 -0.0
    outer loop
      vertex 0.005 9.110941E-18 0.0085
      vertex 0.005 0.0011144227 0.010143072
      vertex 0.005 -0.00425 0.007361216
    endloop
  endfacet
  facet normal 1.0 0.0 0.0
    outer loop
      vertex 0.005 0.0011144227 0.010143072
      vertex 0.005 -0.0064072115 0.011009612
      vertex 0.005 -0.00425 0.007361216
    endloop
  endfacet
  facet normal 1.0 0.0 0.0
    outer loop
      vertex 0.005 -0.00425 0.007361216
      vertex 0.005 -0.0064072115 0.011009612
      vertex 0.005 -0.0052040047 0.0064072115
    endloop
  endfacet
  facet normal 1.0 0.0 0.0
    outer loop
      vertex 0.005 -0.0064072115 0.011009612
      vertex 0.005 -0.0064072115 0.0064072115
      vertex 0.005 -0.0052040047 0.0064072115
    endloop
  endfacet
  facet normal 1.0 0.0 0.0
    outer loop
      vertex 0.005 -0.0052040047 0.0064072115
      vertex 0.005 -0.0064072115 0.0064072115
      vertex 0.005 -0.0064072115 0.0052040047
    endloop
  endfacet
  facet normal 1.0 0.0 0.0
    outer loop
      vertex 0.005 0.0019144227 0.008757431
      vertex 0.005 9.110941E-18 0.0085
      vertex 0.005 0.0027144228 0.008543072
    endloop
  endfacet
  facet normal 1.0 -0.0 0.0
    outer loop
      vertex 0.005 9.110941E-18 0.0085
      vertex 0.005 0.00425 0.007361216
      vertex 0.005 0.0027144228 0.008543072
    endloop
  endfacet
  facet normal 1.0 0.0 0.0
    outer loop
      vertex 0.005 0.0027144228 0.008543072
      vertex 0.005 0.00425 0.007361216
      vertex 0.005 0.011009612 0.0064072115
    endloop
  endfacet
  facet normal 1.0 -0.0 0.0
    outer loop
      vertex 0.005 0.011528713 -0.0035144228
      vertex 0.005 0.011041824 -0.006375
      vertex 0.005 0.01275 -1.3666412E-17
    endloop
  endfacet
  facet normal 1.0 0.0 -0.0
    outer loop
      vertex 0.005 -0.0043144226 -0.010143072
      vertex 0.005 -0.0041000634 -0.009343072
      vertex 0.005 -0.0064072115 -0.0052040047
    endloop
  endfacet
  facet normal 1.0 0.0 -0.0
    outer loop
      vertex 0.005 -0.0027144228 -0.008543072
      vertex 0.005 -2.4078541E-18 -0.0085
      vertex 0.005 -0.00425 -0.007361216
    endloop
  endfacet
  facet normal 1.0 0.0 0.0
    outer loop
      vertex 0.005 -7.223562E-18 -0.01275
      vertex 0.005 -0.0035144228 -0.011528713
      vertex 0.005 -0.006375 -0.011041824
    endloop
  endfacet
  facet normal 1.0 0.0 0.0
    outer loop
      vertex 0.005 -0.0035144228 -0.011528713
      vertex 0.005 -0.0041000634 -0.010943072
      vertex 0.005 -0.006375 -0.011041824
    endloop
  endfacet
  facet normal 1.0 0.0 -0.0
    outer loop
      vertex 0.005 -0.006375 -0.011041824
      vertex 0.005 -0.0041000634 -0.010943072
      vertex 0.005 -0.0064072115 -0.011009612
    endloop
  endfacet
  facet normal 1.0 0.0 0.0
    outer loop
      vertex 0.005 -0.0064072115 -0.0052040047
      vertex 0.005 -0.0041000634 -0.009343072
      vertex 0.005 -0.00425 -0.007361216
    endloop
  endfacet
  facet normal 1.0 0.0 -0.0
    outer loop
      vertex 0.005 -0.0041000634 -0.009343072
      vertex 0.005 -0.0035144228 -0.008757431
      vertex 0.005 -0.00425 -0.007361216
    endloop
  endfacet
  facet normal 1.0 0.0 0.0
    outer loop
      vertex 0.005 -0.00425 -0.007361216
      vertex 0.005 -0.0035144228 -0.008757431
      vertex 0.005 -0.0027144228 -0.008543072
    endloop
  endfacet
  facet normal 1.0 -0.0 0.0
    outer loop
      vertex 0.005 -0.0027144228 -0.008543072
      vertex 0.005 -0.0019144227 -0.008757431
      vertex 0.005 -2.4078541E-18 -0.0085
    endloop
  endfacet
  facet normal 1.0 -0.0 0.0
    outer loop
      vertex 0.005 -0.0019144227 -0.008757431
      vertex 0.005 -0.0013287821 -0.009343072
      vertex 0.005 -2.4078541E-18 -0.0085
    endloop
  endfacet
  facet normal 1.0 -0.0 0.0
    outer loop
      vertex 0.005 -2.4078541E-18 -0.0085
      vertex 0.005 -0.0013287821 -0.009343072
      vertex 0.005 0.00425 -0.007361216
    endloop
  endfacet
  facet normal 1.0 -0.0 0.0
    outer loop
      vertex 0.005 -0.0013287821 -0.009343072
      vertex 0.005 -0.0011144227 -0.010143072
      vertex 0.005 0.00425 -0.007361216
    endloop
  endfacet
  facet normal 1.0 0.0 0.0
    outer loop
      vertex 0.005 0.011528713 -0.0035144228
      vertex 0.005 0.010943072 -0.0041000634
      vertex 0.005 0.011041824 -0.006375
    endloop
  endfacet
  facet normal 1.0 0.0 0.0
    outer loop
      vertex 0.005 0.010943072 -0.0041000634
      vertex 0.005 0.010143072 -0.0043144226
      vertex 0.005 0.011041824 -0.006375
    endloop
  endfacet
  facet normal 1.0 0.0 0.0
    outer loop
      vertex 0.005 0.011041824 -0.006375
      vertex 0.005 0.010143072 -0.0043144226
      vertex 0.005 0.006375 -0.011041824
    endloop
  endfacet
  facet normal 1.0 0.0 0.0
    outer loop
      vertex 0.005 0.010143072 -0.0043144226
      vertex 0.005 0.009343072 -0.0041000634
      vertex 0.005 0.006375 -0.011041824
    endloop
  endfacet
  facet normal 1.0 0.0 0.0
    outer loop
      vertex 0.005 0.006375 -0.011041824
      vertex 0.005 0.009343072 -0.0041000634
      vertex 0.005 0.008757431 -0.0035144228
    endloop
  endfacet
  facet normal 1.0 0.0 0.0
    outer loop
      vertex 0.005 -0.0013287821 -0.010943072
      vertex 0.005 -0.0019144227 -0.011528713
      vertex 0.005 -7.223562E-18 -0.01275
    endloop
  endfacet
  facet normal 1.0 0.0 0.0
    outer loop
      vertex 0.005 -0.0019144227 -0.011528713
      vertex 0.005 -0.0027144228 -0.011743072
      vertex 0.005 -7.223562E-18 -0.01275
    endloop
  endfacet
  facet normal 1.0 0.0 0.0
    outer loop
      vertex 0.005 -7.223562E-18 -0.01275
      vertex 0.005 -0.0027144228 -0.011743072
      vertex 0.005 -0.0035144228 -0.011528713
    endloop
  endfacet
  facet normal 1.0 -0.0 0.0
    outer loop
      vertex 0.005 0.010943072 -0.0013287821
      vertex 0.005 0.011528713 -0.0019144227
      vertex 0.005 0.01275 -1.3666412E-17
    endloop
  endfacet
  facet normal 1.0 -0.0 0.0
    outer loop
      vertex 0.005 0.011528713 -0.0019144227
      vertex 0.005 0.011743072 -0.0027144228
      vertex 0.005 0.01275 -1.3666412E-17
    endloop
  endfacet
  facet normal 1.0 0.0 0.0
    outer loop
      vertex 0.005 0.01275 -1.3666412E-17
      vertex 0.005 0.011743072 -0.0027144228
      vertex 0.005 0.011528713 -0.0035144228
    endloop
  endfacet
  facet normal 1.0 0.0 0.0
    outer loop
      vertex 0.005 0.00425 0.007361216
      vertex 0.005 0.0052040047 0.0064072115
      vertex 0.005 0.011009612 0.0064072115
    endloop
  endfacet
  facet normal 1.0 -0.0 0.0
    outer loop
      vertex 0.005 0.0052040047 0.0064072115
      vertex 0.005 0.007361216 0.00425
      vertex 0.005 0.011009612 0.0064072115
    endloop
  endfacet
  facet normal 1.0 0.0 0.0
    outer loop
      vertex 0.005 0.011009612 0.0064072115
      vertex 0.005 0.007361216 0.00425
      vertex 0.005 0.010143072 -0.0011144227
    endloop
  endfacet
  facet normal 1.0 0.0 0.0
    outer loop
      vertex 0.005 0.007361216 0.00425
      vertex 0.005 0.0085 -4.8157082E-18
      vertex 0.005 0.010143072 -0.0011144227
    endloop
  endfacet
  facet normal 1.0 0.0 0.0
    outer loop
      vertex 0.005 0.010143072 -0.0011144227
      vertex 0.005 0.0085 -4.8157082E-18
      vertex 0.005 0.009343072 -0.0013287821
    endloop
  endfacet
  facet normal 1.0 0.0 -0.0
    outer loop
      vertex 0.005 0.010943072 -0.0013287821
      vertex 0.005 0.01275 -1.3666412E-17
      vertex 0.005 0.010143072 -0.0011144227
    endloop
  endfacet
  facet normal 1.0 0.0 0.0
    outer loop
      vertex 0.005 0.01275 -1.3666412E-17
      vertex 0.005 0.011041824 0.006375
      vertex 0.005 0.010143072 -0.0011144227
    endloop
  endfacet
  facet normal 1.0 0.0 0.0
    outer loop
      vertex 0.005 0.010143072 -0.0011144227
      vertex 0.005 0.011041824 0.006375
      vertex 0.005 0.011009612 0.0064072115
    endloop
  endfacet
  facet normal 1.0 -0.0 0.0
    outer loop
      vertex 0.005 -0.0013287821 -0.010943072
      vertex 0.005 -7.223562E-18 -0.01275
      vertex 0.005 -0.0011144227 -0.010143072
    endloop
  endfacet
  facet normal 1.0 0.0 -0.0
    outer loop
      vertex 0.005 -7.223562E-18 -0.01275
      vertex 0.005 0.006375 -0.011041824
      vertex 0.005 -0.0011144227 -0.010143072
    endloop
  endfacet
  facet normal 1.0 -0.0 0.0
    outer loop
      vertex 0.005 -0.0011144227 -0.010143072
      vertex 0.005 0.006375 -0.011041824
      vertex 0.005 0.00425 -0.007361216
    endloop
  endfacet
  facet normal 1.0 0.0 -0.0
    outer loop
      vertex 0.005 0.006375 -0.011041824
      vertex 0.005 0.008757431 -0.0035144228
      vertex 0.005 0.00425 -0.007361216
    endloop
  endfacet
  facet normal 1.0 0.0 0.0
    outer loop
      vertex 0.005 0.00425 -0.007361216
      vertex 0.005 0.008757431 -0.0035144228
      vertex 0.005 0.007361216 -0.00425
    endloop
  endfacet
  facet normal 1.0 0.0 0.0
    outer loop
      vertex 0.005 0.008757431 -0.0035144228
      vertex 0.005 0.008543072 -0.0027144228
      vertex 0.005 0.007361216 -0.00425
    endloop
  endfacet
  facet normal 1.0 0.0 0.0
    outer loop
      vertex 0.005 0.007361216 -0.00425
      vertex 0.005 0.008543072 -0.0027144228
      vertex 0.005 0.0085 -4.8157082E-18
    endloop
  endfacet
  facet normal 1.0 0.0 -0.0
    outer loop
      vertex 0.005 0.008543072 -0.0027144228
      vertex 0.005 0.008757431 -0.0019144227
      vertex 0.005 0.0085 -4.8157082E-18
    endloop
  endfacet
  facet normal 1.0 0.0 0.0
    outer loop
      vertex 0.005 0.0085 -4.8157082E-18
      vertex 0.005 0.008757431 -0.0019144227
      vertex 0.005 0.009343072 -0.0013287821
    endloop
  endfacet
  facet normal 1.0 -0.0 0.0
    outer loop
      vertex 0.005 -0.008757431 0.0035144228
      vertex 0.005 -0.008543072 0.0027144228
      vertex 0.005 -0.0064072115 0.0064072115
    endloop
  endfacet
  facet normal 1.0 0.0 0.0
    outer loop
      vertex 0.005 -0.0041000634 -0.010943072
      vertex 0.005 -0.0043144226 -0.010143072
      vertex 0.005 -0.0064072115 -0.011009612
    endloop
  endfacet
  facet normal 1.0 0.0 0.0
    outer loop
      vertex 0.005 -0.0043144226 -0.010143072
      vertex 0.005 -0.0064072115 -0.0052040047
      vertex 0.005 -0.0064072115 -0.011009612
    endloop
  endfacet
  facet normal 1.0 0.0 -0.0
    outer loop
      vertex 0.005 -0.0064072115 -0.011009612
      vertex 0.005 -0.0064072115 -0.0052040047
      vertex 0.005 -0.011041824 -0.006375
    endloop
  endfacet
  facet normal 1.0 0.0 0.0
    outer loop
      vertex 0.005 -0.0064072115 -0.0052040047
      vertex 0.005 -0.007361216 -0.00425
      vertex 0.005 -0.011041824 -0.006375
    endloop
  endfacet
  facet normal 1.0 0.0 -0.0
    outer loop
      vertex 0.005 -0.0064072115 0.0052040047
      vertex 0.005 -0.0064072115 0.0064072115
      vertex 0.005 -0.007361216 0.00425
    endloop
  endfacet
  facet normal 1.0 0.0 0.0
    outer loop
      vertex 0.005 -0.0064072115 0.0064072115
      vertex 0.005 -0.008543072 0.0027144228
      vertex 0.005 -0.007361216 0.00425
    endloop
  endfacet
  facet normal 1.0 0.0 0.0
    outer loop
      vertex 0.005 -0.007361216 0.00425
      vertex 0.005 -0.008543072 0.0027144228
      vertex 0.005 -0.0085 2.0818997E-18
    endloop
  endfacet
  facet normal 1.0 0.0 0.0
    outer loop
      vertex 0.005 -0.008543072 0.0027144228
      vertex 0.005 -0.008757431 0.0019144227
      vertex 0.005 -0.0085 2.0818997E-18
    endloop
  endfacet
  facet normal 1.0 0.0 0.0
    outer loop
      vertex 0.005 -0.0085 2.0818997E-18
      vertex 0.005 -0.008757431 0.0019144227
      vertex 0.005 -0.009343072 0.0013287821
    endloop
  endfacet
  facet normal 1.0 0.0 0.0
    outer loop
      vertex 0.005 -0.011528713 0.0019144227
      vertex 0.005 -0.011743072 0.0027144228
      vertex 0.005 -0.01275 3.611781E-18
    endloop
  endfacet
  facet normal 1.0 0.0 -0.0
    outer loop
      vertex 0.005 -0.011743072 0.0027144228
      vertex 0.005 -0.011528713 0.0035144228
      vertex 0.005 -0.01275 3.611781E-18
    endloop
  endfacet
  facet normal 1.0 0.0 0.0
    outer loop
      vertex 0.005 -0.01275 3.611781E-18
      vertex 0.005 -0.011528713 0.0035144228
      vertex 0.005 -0.011041824 0.006375
    endloop
  endfacet
  facet normal 1.0 0.0 0.0
    outer loop
      vertex 0.005 -0.011528713 0.0035144228
      vertex 0.005 -0.010943072 0.0041000634
      vertex 0.005 -0.011041824 0.006375
    endloop
  endfacet
  facet normal 1.0 -0.0 0.0
    outer loop
      vertex 0.005 -0.011041824 0.006375
      vertex 0.005 -0.010943072 0.0041000634
      vertex 0.005 -0.011009612 0.0064072115
    endloop
  endfacet
  facet normal 1.0 0.0 -0.0
    outer loop
      vertex 0.005 -0.010943072 0.0041000634
      vertex 0.005 -0.010143072 0.0043144226
      vertex 0.005 -0.011009612 0.0064072115
    endloop
  endfacet
  facet normal 1.0 -0.0 0.0
    outer loop
      vertex 0.005 -0.011009612 0.0064072115
      vertex 0.005 -0.010143072 0.0043144226
      vertex 0.005 -0.0064072115 0.0064072115
    endloop
  endfacet
  facet normal 1.0 -0.0 0.0
    outer loop
      vertex 0.005 -0.010143072 0.0043144226
      vertex 0.005 -0.009343072 0.0041000634
      vertex 0.005 -0.0064072115 0.0064072115
    endloop
  endfacet
  facet normal 1.0 0.0 0.0
    outer loop
      vertex 0.005 -0.0064072115 0.0064072115
      vertex 0.005 -0.009343072 0.0041000634
      vertex 0.005 -0.008757431 0.0035144228
    endloop
  endfacet
  facet normal 1.0 0.0 0.0
    outer loop
      vertex 0.005 -0.007361216 -0.00425
      vertex 0.005 -0.0085 2.0818997E-18
      vertex 0.005 -0.011041824 -0.006375
    endloop
  endfacet
  facet normal 1.0 0.0 0.0
    outer loop
      vertex 0.005 -0.0085 2.0818997E-18
      vertex 0.005 -0.010143072 0.0011144227
      vertex 0.005 -0.011041824 -0.006375
    endloop
  endfacet
  facet normal 1.0 0.0 -0.0
    outer loop
      vertex 0.005 -0.011041824 -0.006375
      vertex 0.005 -0.010143072 0.0011144227
      vertex 0.005 -0.01275 3.611781E-18
    endloop
  endfacet
  facet normal 1.0 0.0 0.0
    outer loop
      vertex 0.005 -0.010143072 0.0011144227
      vertex 0.005 -0.010943072 0.0013287821
      vertex 0.005 -0.01275 3.611781E-18
    endloop
  endfacet
  facet normal 1.0 0.0 0.0
    outer loop
      vertex 0.005 -0.01275 3.611781E-18
      vertex 0.005 -0.010943072 0.0013287821
      vertex 0.005 -0.011528713 0.0019144227
    endloop
  endfacet
endsolid axle_stopper_v2_1
