solid Connector_5521_DC00990B_5
  facet normal 0.0 1.0 0.0
    outer loop
      vertex 0.0022588714 -0.01 -0.0036
      vertex 0.0011328427 -0.01 -0.0036
      vertex 5.2029605E-4 -0.01 -8.5398596E-4
    endloop
  endfacet
  facet normal 0.0 1.0 0.0
    outer loop
      vertex 0.0011328427 -0.01 -0.0036
      vertex 0.0010563061 -0.01 -0.0035847758
      vertex 5.2029605E-4 -0.01 -8.5398596E-4
    endloop
  endfacet
  facet normal 0.0 1.0 0.0
    outer loop
      vertex 5.2029605E-4 -0.01 -8.5398596E-4
      vertex 0.0010563061 -0.01 -0.0035847758
      vertex 9.914214E-4 -0.01 -0.0035414214
    endloop
  endfacet
  facet normal 0.0 1.0 0.0
    outer loop
      vertex 9.914214E-4 -0.01 -0.0035414214
      vertex 9.0857863E-4 -0.01 -0.0034585786
      vertex 5.2029605E-4 -0.01 -8.5398596E-4
    endloop
  endfacet
  facet normal 0.0 1.0 0.0
    outer loop
      vertex 9.0857863E-4 -0.01 -0.0034585786
      vertex 8.4369397E-4 -0.01 -0.0034152241
      vertex 5.2029605E-4 -0.01 -8.5398596E-4
    endloop
  endfacet
  facet normal 0.0 1.0 0.0
    outer loop
      vertex 5.2029605E-4 -0.01 -8.5398596E-4
      vertex 8.4369397E-4 -0.01 -0.0034152241
      vertex 2.3596585E-5 -0.01 -9.997216E-4
    endloop
  endfacet
  facet normal 0.0 1.0 0.0
    outer loop
      vertex 8.4369397E-4 -0.01 -0.0034152241
      vertex 7.671573E-4 -0.01 -0.0034
      vertex 2.3596585E-5 -0.01 -9.997216E-4
    endloop
  endfacet
  facet normal 0.0 1.0 0.0
    outer loop
      vertex 2.3596585E-5 -0.01 -9.997216E-4
      vertex 7.671573E-4 -0.01 -0.0034
      vertex -8.3266725E-19 -0.01 -0.001
    endloop
  endfacet
  facet normal 0.0 1.0 0.0
    outer loop
      vertex 7.671573E-4 -0.01 -0.0034
      vertex -7.671573E-4 -0.01 -0.0034
      vertex -8.3266725E-19 -0.01 -0.001
    endloop
  endfacet
  facet normal 0.0 1.0 0.0
    outer loop
      vertex -8.3266725E-19 -0.01 -0.001
      vertex -7.671573E-4 -0.01 -0.0034
      vertex -4.7942554E-4 -0.01 -8.775826E-4
    endloop
  endfacet
  facet normal 0.0 1.0 -0.0
    outer loop
      vertex -7.671573E-4 -0.01 -0.0034
      vertex -8.4369397E-4 -0.01 -0.0034152241
      vertex -4.7942554E-4 -0.01 -8.775826E-4
    endloop
  endfacet
  facet normal 0.0 1.0 -0.0
    outer loop
      vertex -8.4369397E-4 -0.01 -0.0034152241
      vertex -9.0857863E-4 -0.01 -0.0034585786
      vertex -4.7942554E-4 -0.01 -8.775826E-4
    endloop
  endfacet
  facet normal 0.0 1.0 0.0
    outer loop
      vertex -4.7942554E-4 -0.01 -8.775826E-4
      vertex -9.0857863E-4 -0.01 -0.0034585786
      vertex -9.914214E-4 -0.01 -0.0035414214
    endloop
  endfacet
  facet normal 0.0 1.0 -0.0
    outer loop
      vertex 0.0022588714 -0.01 -0.0036
      vertex 5.2029605E-4 -0.01 -8.5398596E-4
      vertex 0.0037415167 -0.01 -0.0020158256
    endloop
  endfacet
  facet normal -0.0 1.0 0.0
    outer loop
      vertex 5.2029605E-4 -0.01 -8.5398596E-4
      vertex 8.775826E-4 -0.01 -4.7942554E-4
      vertex 0.0037415167 -0.01 -0.0020158256
    endloop
  endfacet
  facet normal 0.0 1.0 -0.0
    outer loop
      vertex 0.0037415167 -0.01 -0.0020158256
      vertex 8.775826E-4 -0.01 -4.7942554E-4
      vertex 0.0042489655 -0.01 9.375753E-5
    endloop
  endfacet
  facet normal 0.0 1.0 0.0
    outer loop
      vertex 8.775826E-4 -0.01 -4.7942554E-4
      vertex 9.997216E-4 -0.01 2.3596585E-5
      vertex 0.0042489655 -0.01 9.375753E-5
    endloop
  endfacet
  facet normal 0.0 1.0 0.0
    outer loop
      vertex 0.0042489655 -0.01 9.375753E-5
      vertex 9.997216E-4 -0.01 2.3596585E-5
      vertex 0.0036489558 -0.01 0.0021789034
    endloop
  endfacet
  facet normal 0.0 1.0 -0.0
    outer loop
      vertex 9.997216E-4 -0.01 2.3596585E-5
      vertex 8.5398596E-4 -0.01 5.2029605E-4
      vertex 0.0036489558 -0.01 0.0021789034
    endloop
  endfacet
  facet normal 0.0 1.0 0.0
    outer loop
      vertex 0.0036489558 -0.01 0.0021789034
      vertex 8.5398596E-4 -0.01 5.2029605E-4
      vertex 0.002097875 -0.01 0.0036961357
    endloop
  endfacet
  facet normal 0.0 1.0 -0.0
    outer loop
      vertex 8.5398596E-4 -0.01 5.2029605E-4
      vertex 4.7942554E-4 -0.01 8.775826E-4
      vertex 0.002097875 -0.01 0.0036961357
    endloop
  endfacet
  facet normal 0.0 1.0 0.0
    outer loop
      vertex 0.002097875 -0.01 0.0036961357
      vertex 4.7942554E-4 -0.01 8.775826E-4
      vertex -1.4155343E-18 -0.01 0.00425
    endloop
  endfacet
  facet normal 0.0 1.0 0.0
    outer loop
      vertex 4.7942554E-4 -0.01 8.775826E-4
      vertex -2.3596585E-5 -0.01 9.997216E-4
      vertex -1.4155343E-18 -0.01 0.00425
    endloop
  endfacet
  facet normal 0.0 1.0 0.0
    outer loop
      vertex -1.4155343E-18 -0.01 0.00425
      vertex -2.3596585E-5 -0.01 9.997216E-4
      vertex -0.002097875 -0.01 0.0036961357
    endloop
  endfacet
  facet normal 0.0 1.0 0.0
    outer loop
      vertex -2.3596585E-5 -0.01 9.997216E-4
      vertex -5.2029605E-4 -0.01 8.5398596E-4
      vertex -0.002097875 -0.01 0.0036961357
    endloop
  endfacet
  facet normal 0.0 1.0 0.0
    outer loop
      vertex -0.002097875 -0.01 0.0036961357
      vertex -5.2029605E-4 -0.01 8.5398596E-4
      vertex -0.0036489558 -0.01 0.0021789034
    endloop
  endfacet
  facet normal 0.0 1.0 0.0
    outer loop
      vertex -5.2029605E-4 -0.01 8.5398596E-4
      vertex -8.775826E-4 -0.01 4.7942554E-4
      vertex -0.0036489558 -0.01 0.0021789034
    endloop
  endfacet
  facet normal 0.0 1.0 0.0
    outer loop
      vertex -0.0036489558 -0.01 0.0021789034
      vertex -8.775826E-4 -0.01 4.7942554E-4
      vertex -0.0042489655 -0.01 9.375753E-5
    endloop
  endfacet
  facet normal 0.0 1.0 0.0
    outer loop
      vertex -8.775826E-4 -0.01 4.7942554E-4
      vertex -9.997216E-4 -0.01 -2.3596585E-5
      vertex -0.0042489655 -0.01 9.375753E-5
    endloop
  endfacet
  facet normal 0.0 1.0 0.0
    outer loop
      vertex -0.0042489655 -0.01 9.375753E-5
      vertex -9.997216E-4 -0.01 -2.3596585E-5
      vertex -0.0037415167 -0.01 -0.0020158256
    endloop
  endfacet
  facet normal 0.0 1.0 0.0
    outer loop
      vertex -9.997216E-4 -0.01 -2.3596585E-5
      vertex -8.5398596E-4 -0.01 -5.2029605E-4
      vertex -0.0037415167 -0.01 -0.0020158256
    endloop
  endfacet
  facet normal -0.0 1.0 0.0
    outer loop
      vertex -0.0037415167 -0.01 -0.0020158256
      vertex -8.5398596E-4 -0.01 -5.2029605E-4
      vertex -0.0022588714 -0.01 -0.0036
    endloop
  endfacet
  facet normal 0.0 1.0 0.0
    outer loop
      vertex -8.5398596E-4 -0.01 -5.2029605E-4
      vertex -4.7942554E-4 -0.01 -8.775826E-4
      vertex -0.0022588714 -0.01 -0.0036
    endloop
  endfacet
  facet normal 0.0 1.0 0.0
    outer loop
      vertex -0.0022588714 -0.01 -0.0036
      vertex -4.7942554E-4 -0.01 -8.775826E-4
      vertex -0.0011328427 -0.01 -0.0036
    endloop
  endfacet
  facet normal 0.0 1.0 0.0
    outer loop
      vertex -4.7942554E-4 -0.01 -8.775826E-4
      vertex -9.914214E-4 -0.01 -0.0035414214
      vertex -0.0011328427 -0.01 -0.0036
    endloop
  endfacet
  facet normal 0.0 1.0 0.0
    outer loop
      vertex -0.0011328427 -0.01 -0.0036
      vertex -9.914214E-4 -0.01 -0.0035414214
      vertex -0.0010563061 -0.01 -0.0035847758
    endloop
  endfacet
  facet normal 0.7071069092194319 0.0 -0.70710665315364
    outer loop
      vertex -9.914214E-4 -0.0136 -0.0035414214
      vertex -9.914214E-4 -0.01 -0.0035414214
      vertex -9.0857863E-4 -0.0136 -0.0034585786
    endloop
  endfacet
  facet normal 0.7071069092194319 0.0 -0.70710665315364
    outer loop
      vertex -9.914214E-4 -0.01 -0.0035414214
      vertex -9.0857863E-4 -0.01 -0.0034585786
      vertex -9.0857863E-4 -0.0136 -0.0034585786
    endloop
  endfacet
  facet normal 0.5555698455098688 0.0 -0.8314698712281406
    outer loop
      vertex -9.0857863E-4 -0.0136 -0.0034585786
      vertex -9.0857863E-4 -0.01 -0.0034585786
      vertex -8.4369397E-4 -0.0136 -0.0034152241
    endloop
  endfacet
  facet normal 0.5555698455098688 0.0 -0.8314698712281406
    outer loop
      vertex -9.0857863E-4 -0.01 -0.0034585786
      vertex -8.4369397E-4 -0.01 -0.0034152241
      vertex -8.4369397E-4 -0.0136 -0.0034152241
    endloop
  endfacet
  facet normal 0.19509044255974822 0.0 -0.9807852564256059
    outer loop
      vertex -8.4369397E-4 -0.0136 -0.0034152241
      vertex -8.4369397E-4 -0.01 -0.0034152241
      vertex -7.671573E-4 -0.0136 -0.0034
    endloop
  endfacet
  facet normal 0.19509044255974822 0.0 -0.9807852564256059
    outer loop
      vertex -8.4369397E-4 -0.01 -0.0034152241
      vertex -7.671573E-4 -0.01 -0.0034
      vertex -7.671573E-4 -0.0136 -0.0034
    endloop
  endfacet
  facet normal 0.0 -1.0 0.0
    outer loop
      vertex -9.0857863E-4 -0.0136 -0.0034585786
      vertex -8.4369397E-4 -0.0136 -0.0034152241
      vertex -9.588511E-4 -0.0136 -0.0017551652
    endloop
  endfacet
  facet normal 0.0 -1.0 0.0
    outer loop
      vertex -9.588511E-4 -0.0136 -0.0017551652
      vertex -0.0022588714 -0.0136 -0.0036
      vertex -0.0011328427 -0.0136 -0.0036
    endloop
  endfacet
  facet normal 0.0 -1.0 0.0
    outer loop
      vertex -9.588511E-4 -0.0136 -0.0017551652
      vertex -8.4369397E-4 -0.0136 -0.0034152241
      vertex -3.330669E-19 -0.0136 -0.002
    endloop
  endfacet
  facet normal 0.0 -1.0 0.0
    outer loop
      vertex -8.4369397E-4 -0.0136 -0.0034152241
      vertex -7.671573E-4 -0.0136 -0.0034
      vertex -3.330669E-19 -0.0136 -0.002
    endloop
  endfacet
  facet normal 0.0 -1.0 -0.0
    outer loop
      vertex -3.330669E-19 -0.0136 -0.002
      vertex -7.671573E-4 -0.0136 -0.0034
      vertex 4.719317E-5 -0.0136 -0.0019994432
    endloop
  endfacet
  facet normal 0.0 -1.0 0.0
    outer loop
      vertex -7.671573E-4 -0.0136 -0.0034
      vertex 7.671573E-4 -0.0136 -0.0034
      vertex 4.719317E-5 -0.0136 -0.0019994432
    endloop
  endfacet
  facet normal 0.0 -1.0 0.0
    outer loop
      vertex 4.719317E-5 -0.0136 -0.0019994432
      vertex 7.671573E-4 -0.0136 -0.0034
      vertex 0.0010405921 -0.0136 -0.0017079719
    endloop
  endfacet
  facet normal 0.0 -1.0 0.0
    outer loop
      vertex 7.671573E-4 -0.0136 -0.0034
      vertex 8.4369397E-4 -0.0136 -0.0034152241
      vertex 0.0010405921 -0.0136 -0.0017079719
    endloop
  endfacet
  facet normal 0.0 -1.0 0.0
    outer loop
      vertex 8.4369397E-4 -0.0136 -0.0034152241
      vertex 9.0857863E-4 -0.0136 -0.0034585786
      vertex 0.0010405921 -0.0136 -0.0017079719
    endloop
  endfacet
  facet normal 0.0 -1.0 0.0
    outer loop
      vertex 0.0010405921 -0.0136 -0.0017079719
      vertex 9.0857863E-4 -0.0136 -0.0034585786
      vertex 9.914214E-4 -0.0136 -0.0035414214
    endloop
  endfacet
  facet normal 0.0 -1.0 0.0
    outer loop
      vertex -0.0011328427 -0.0136 -0.0036
      vertex -0.0010563061 -0.0136 -0.0035847758
      vertex -9.588511E-4 -0.0136 -0.0017551652
    endloop
  endfacet
  facet normal 0.0 -1.0 0.0
    outer loop
      vertex -0.0010563061 -0.0136 -0.0035847758
      vertex -9.914214E-4 -0.0136 -0.0035414214
      vertex -9.588511E-4 -0.0136 -0.0017551652
    endloop
  endfacet
  facet normal 0.0 -1.0 -0.0
    outer loop
      vertex -9.588511E-4 -0.0136 -0.0017551652
      vertex -9.914214E-4 -0.0136 -0.0035414214
      vertex -9.0857863E-4 -0.0136 -0.0034585786
    endloop
  endfacet
  facet normal 0.0 -1.0 0.0
    outer loop
      vertex -0.0022588714 -0.0136 -0.0036
      vertex -9.588511E-4 -0.0136 -0.0017551652
      vertex -0.0037415167 -0.0136 -0.0020158256
    endloop
  endfacet
  facet normal -0.0 -1.0 0.0
    outer loop
      vertex -9.588511E-4 -0.0136 -0.0017551652
      vertex -0.0017079719 -0.0136 -0.0010405921
      vertex -0.0037415167 -0.0136 -0.0020158256
    endloop
  endfacet
  facet normal 0.0 -1.0 0.0
    outer loop
      vertex -0.0037415167 -0.0136 -0.0020158256
      vertex -0.0017079719 -0.0136 -0.0010405921
      vertex -0.0042489655 -0.0136 9.375753E-5
    endloop
  endfacet
  facet normal 0.0 -1.0 0.0
    outer loop
      vertex -0.0017079719 -0.0136 -0.0010405921
      vertex -0.0019994432 -0.0136 -4.719317E-5
      vertex -0.0042489655 -0.0136 9.375753E-5
    endloop
  endfacet
  facet normal 0.0 -1.0 0.0
    outer loop
      vertex -0.0042489655 -0.0136 9.375753E-5
      vertex -0.0019994432 -0.0136 -4.719317E-5
      vertex -0.0036489558 -0.0136 0.0021789034
    endloop
  endfacet
  facet normal 0.0 -1.0 0.0
    outer loop
      vertex -0.0019994432 -0.0136 -4.719317E-5
      vertex -0.0017551652 -0.0136 9.588511E-4
      vertex -0.0036489558 -0.0136 0.0021789034
    endloop
  endfacet
  facet normal 0.0 -1.0 0.0
    outer loop
      vertex -0.0036489558 -0.0136 0.0021789034
      vertex -0.0017551652 -0.0136 9.588511E-4
      vertex -0.002097875 -0.0136 0.0036961357
    endloop
  endfacet
  facet normal 0.0 -1.0 0.0
    outer loop
      vertex -0.0017551652 -0.0136 9.588511E-4
      vertex -0.0010405921 -0.0136 0.0017079719
      vertex -0.002097875 -0.0136 0.0036961357
    endloop
  endfacet
  facet normal 0.0 -1.0 0.0
    outer loop
      vertex -0.002097875 -0.0136 0.0036961357
      vertex -0.0010405921 -0.0136 0.0017079719
      vertex -1.4155343E-18 -0.0136 0.00425
    endloop
  endfacet
  facet normal 0.0 -1.0 0.0
    outer loop
      vertex -0.0010405921 -0.0136 0.0017079719
      vertex -4.719317E-5 -0.0136 0.0019994432
      vertex -1.4155343E-18 -0.0136 0.00425
    endloop
  endfacet
  facet normal 0.0 -1.0 -0.0
    outer loop
      vertex -1.4155343E-18 -0.0136 0.00425
      vertex -4.719317E-5 -0.0136 0.0019994432
      vertex 0.002097875 -0.0136 0.0036961357
    endloop
  endfacet
  facet normal 0.0 -1.0 0.0
    outer loop
      vertex -4.719317E-5 -0.0136 0.0019994432
      vertex 9.588511E-4 -0.0136 0.0017551652
      vertex 0.002097875 -0.0136 0.0036961357
    endloop
  endfacet
  facet normal 0.0 -1.0 -0.0
    outer loop
      vertex 0.002097875 -0.0136 0.0036961357
      vertex 9.588511E-4 -0.0136 0.0017551652
      vertex 0.0036489558 -0.0136 0.0021789034
    endloop
  endfacet
  facet normal 0.0 -1.0 0.0
    outer loop
      vertex 9.588511E-4 -0.0136 0.0017551652
      vertex 0.0017079719 -0.0136 0.0010405921
      vertex 0.0036489558 -0.0136 0.0021789034
    endloop
  endfacet
  facet normal 0.0 -1.0 -0.0
    outer loop
      vertex 0.0036489558 -0.0136 0.0021789034
      vertex 0.0017079719 -0.0136 0.0010405921
      vertex 0.0042489655 -0.0136 9.375753E-5
    endloop
  endfacet
  facet normal 0.0 -1.0 0.0
    outer loop
      vertex 0.0017079719 -0.0136 0.0010405921
      vertex 0.0019994432 -0.0136 4.719317E-5
      vertex 0.0042489655 -0.0136 9.375753E-5
    endloop
  endfacet
  facet normal 0.0 -1.0 0.0
    outer loop
      vertex 0.0042489655 -0.0136 9.375753E-5
      vertex 0.0019994432 -0.0136 4.719317E-5
      vertex 0.0037415167 -0.0136 -0.0020158256
    endloop
  endfacet
  facet normal 0.0 -1.0 -0.0
    outer loop
      vertex 0.0019994432 -0.0136 4.719317E-5
      vertex 0.0017551652 -0.0136 -9.588511E-4
      vertex 0.0037415167 -0.0136 -0.0020158256
    endloop
  endfacet
  facet normal -0.0 -1.0 0.0
    outer loop
      vertex 0.0037415167 -0.0136 -0.0020158256
      vertex 0.0017551652 -0.0136 -9.588511E-4
      vertex 0.0022588714 -0.0136 -0.0036
    endloop
  endfacet
  facet normal 0.0 -1.0 -0.0
    outer loop
      vertex 0.0017551652 -0.0136 -9.588511E-4
      vertex 0.0010405921 -0.0136 -0.0017079719
      vertex 0.0022588714 -0.0136 -0.0036
    endloop
  endfacet
  facet normal 0.0 -1.0 0.0
    outer loop
      vertex 0.0022588714 -0.0136 -0.0036
      vertex 0.0010405921 -0.0136 -0.0017079719
      vertex 0.0011328427 -0.0136 -0.0036
    endloop
  endfacet
  facet normal 0.0 -1.0 -0.0
    outer loop
      vertex 0.0010405921 -0.0136 -0.0017079719
      vertex 9.914214E-4 -0.0136 -0.0035414214
      vertex 0.0011328427 -0.0136 -0.0036
    endloop
  endfacet
  facet normal 0.0 -1.0 0.0
    outer loop
      vertex 0.0011328427 -0.0136 -0.0036
      vertex 9.914214E-4 -0.0136 -0.0035414214
      vertex 0.0010563061 -0.0136 -0.0035847758
    endloop
  endfacet
  facet normal 0.011797496347107372 -1.5746311643042337E-17 -0.9999304071183853
    outer loop
      vertex 4.719317E-5 -0.0146 -0.0019994432
      vertex -1.6653345E-18 -0.0146 -0.002
      vertex -3.330669E-19 -0.0136 -0.002
    endloop
  endfacet
  facet normal -0.24740388142896141 3.2960817534204667E-16 -0.9689124415827697
    outer loop
      vertex -3.330669E-19 -0.0136 -0.002
      vertex -1.6653345E-18 -0.0146 -0.002
      vertex -9.588511E-4 -0.0136 -0.0017551652
    endloop
  endfacet
  facet normal -0.24740388142896175 0.0 -0.9689124415827697
    outer loop
      vertex -1.6653345E-18 -0.0146 -0.002
      vertex -9.588511E-4 -0.0146 -0.0017551652
      vertex -9.588511E-4 -0.0136 -0.0017551652
    endloop
  endfacet
  facet normal -0.6902246383001805 0.0 -0.7235951552376404
    outer loop
      vertex -9.588511E-4 -0.0146 -0.0017551652
      vertex -0.0017079719 -0.0146 -0.0010405921
      vertex -9.588511E-4 -0.0136 -0.0017551652
    endloop
  endfacet
  facet normal -0.6902246383001805 0.0 -0.7235951552376404
    outer loop
      vertex -9.588511E-4 -0.0136 -0.0017551652
      vertex -0.0017079719 -0.0146 -0.0010405921
      vertex -0.0017079719 -0.0136 -0.0010405921
    endloop
  endfacet
  facet normal -0.959549600321884 0.0 -0.2815396322404938
    outer loop
      vertex -0.0017079719 -0.0146 -0.0010405921
      vertex -0.0019994432 -0.0146 -4.719317E-5
      vertex -0.0017079719 -0.0136 -0.0010405921
    endloop
  endfacet
  facet normal -0.959549600321884 0.0 -0.2815396322404938
    outer loop
      vertex -0.0017079719 -0.0136 -0.0010405921
      vertex -0.0019994432 -0.0146 -4.719317E-5
      vertex -0.0019994432 -0.0136 -4.719317E-5
    endloop
  endfacet
  facet normal -0.971764122492195 0.0 0.23595442406739073
    outer loop
      vertex -0.0019994432 -0.0146 -4.719317E-5
      vertex -0.0017551652 -0.0146 9.588511E-4
      vertex -0.0019994432 -0.0136 -4.719317E-5
    endloop
  endfacet
  facet normal -0.971764122492195 0.0 0.23595442406739073
    outer loop
      vertex -0.0019994432 -0.0136 -4.719317E-5
      vertex -0.0017551652 -0.0146 9.588511E-4
      vertex -0.0017551652 -0.0136 9.588511E-4
    endloop
  endfacet
  facet normal -0.7235951552376404 0.0 0.6902246383001805
    outer loop
      vertex -0.0017551652 -0.0146 9.588511E-4
      vertex -0.0010405921 -0.0146 0.0017079719
      vertex -0.0017551652 -0.0136 9.588511E-4
    endloop
  endfacet
  facet normal -0.7235951552376404 0.0 0.6902246383001805
    outer loop
      vertex -0.0017551652 -0.0136 9.588511E-4
      vertex -0.0010405921 -0.0146 0.0017079719
      vertex -0.0010405921 -0.0136 0.0017079719
    endloop
  endfacet
  facet normal -0.2815396322404938 0.0 0.959549600321884
    outer loop
      vertex -0.0010405921 -0.0146 0.0017079719
      vertex -4.719317E-5 -0.0146 0.0019994432
      vertex -0.0010405921 -0.0136 0.0017079719
    endloop
  endfacet
  facet normal -0.2815396322404938 0.0 0.959549600321884
    outer loop
      vertex -0.0010405921 -0.0136 0.0017079719
      vertex -4.719317E-5 -0.0146 0.0019994432
      vertex -4.719317E-5 -0.0136 0.0019994432
    endloop
  endfacet
  facet normal 0.23595442406739073 -0.0 0.971764122492195
    outer loop
      vertex -4.719317E-5 -0.0146 0.0019994432
      vertex 9.588511E-4 -0.0146 0.0017551652
      vertex -4.719317E-5 -0.0136 0.0019994432
    endloop
  endfacet
  facet normal 0.23595442406739073 0.0 0.971764122492195
    outer loop
      vertex -4.719317E-5 -0.0136 0.0019994432
      vertex 9.588511E-4 -0.0146 0.0017551652
      vertex 9.588511E-4 -0.0136 0.0017551652
    endloop
  endfacet
  facet normal 0.6902246383001805 -0.0 0.7235951552376404
    outer loop
      vertex 9.588511E-4 -0.0146 0.0017551652
      vertex 0.0017079719 -0.0146 0.0010405921
      vertex 9.588511E-4 -0.0136 0.0017551652
    endloop
  endfacet
  facet normal 0.6902246383001805 0.0 0.7235951552376404
    outer loop
      vertex 9.588511E-4 -0.0136 0.0017551652
      vertex 0.0017079719 -0.0146 0.0010405921
      vertex 0.0017079719 -0.0136 0.0010405921
    endloop
  endfacet
  facet normal 0.959549600321884 -0.0 0.2815396322404938
    outer loop
      vertex 0.0017079719 -0.0146 0.0010405921
      vertex 0.0019994432 -0.0146 4.719317E-5
      vertex 0.0017079719 -0.0136 0.0010405921
    endloop
  endfacet
  facet normal 0.959549600321884 0.0 0.2815396322404938
    outer loop
      vertex 0.0017079719 -0.0136 0.0010405921
      vertex 0.0019994432 -0.0146 4.719317E-5
      vertex 0.0019994432 -0.0136 4.719317E-5
    endloop
  endfacet
  facet normal 0.971764122492195 0.0 -0.23595442406739073
    outer loop
      vertex 0.0019994432 -0.0146 4.719317E-5
      vertex 0.0017551652 -0.0146 -9.588511E-4
      vertex 0.0019994432 -0.0136 4.719317E-5
    endloop
  endfacet
  facet normal 0.971764122492195 0.0 -0.23595442406739073
    outer loop
      vertex 0.0019994432 -0.0136 4.719317E-5
      vertex 0.0017551652 -0.0146 -9.588511E-4
      vertex 0.0017551652 -0.0136 -9.588511E-4
    endloop
  endfacet
  facet normal 0.7235951552376404 0.0 -0.6902246383001805
    outer loop
      vertex 0.0017551652 -0.0146 -9.588511E-4
      vertex 0.0010405921 -0.0146 -0.0017079719
      vertex 0.0017551652 -0.0136 -9.588511E-4
    endloop
  endfacet
  facet normal 0.7235951552376404 0.0 -0.6902246383001805
    outer loop
      vertex 0.0017551652 -0.0136 -9.588511E-4
      vertex 0.0010405921 -0.0146 -0.0017079719
      vertex 0.0010405921 -0.0136 -0.0017079719
    endloop
  endfacet
  facet normal 0.2815396322404938 0.0 -0.959549600321884
    outer loop
      vertex 0.0010405921 -0.0146 -0.0017079719
      vertex 4.719317E-5 -0.0146 -0.0019994432
      vertex 0.0010405921 -0.0136 -0.0017079719
    endloop
  endfacet
  facet normal 0.2815396322404938 0.0 -0.959549600321884
    outer loop
      vertex 0.0010405921 -0.0136 -0.0017079719
      vertex 4.719317E-5 -0.0146 -0.0019994432
      vertex 4.719317E-5 -0.0136 -0.0019994432
    endloop
  endfacet
  facet normal 0.011797496347107706 0.0 -0.9999304071183853
    outer loop
      vertex 4.719317E-5 -0.0146 -0.0019994432
      vertex -3.330669E-19 -0.0136 -0.002
      vertex 4.719317E-5 -0.0136 -0.0019994432
    endloop
  endfacet
  facet normal -0.7071069092194319 -0.0 -0.70710665315364
    outer loop
      vertex 9.914214E-4 -0.01 -0.0035414214
      vertex 9.914214E-4 -0.0136 -0.0035414214
      vertex 9.0857863E-4 -0.01 -0.0034585786
    endloop
  endfacet
  facet normal -0.7071069092194319 0.0 -0.70710665315364
    outer loop
      vertex 9.914214E-4 -0.0136 -0.0035414214
      vertex 9.0857863E-4 -0.0136 -0.0034585786
      vertex 9.0857863E-4 -0.01 -0.0034585786
    endloop
  endfacet
  facet normal 0.0 -1.0 0.0
    outer loop
      vertex 2.9259765E-5 -0.0146 -0.0012396547
      vertex 4.719317E-5 -0.0146 -0.0019994432
      vertex 6.451671E-4 -0.0146 -0.0010589426
    endloop
  endfacet
  facet normal 0.0 -1.0 0.0
    outer loop
      vertex 4.719317E-5 -0.0146 -0.0019994432
      vertex 0.0010405921 -0.0146 -0.0017079719
      vertex 6.451671E-4 -0.0146 -0.0010589426
    endloop
  endfacet
  facet normal 0.0 -1.0 0.0
    outer loop
      vertex 6.451671E-4 -0.0146 -0.0010589426
      vertex 0.0010405921 -0.0146 -0.0017079719
      vertex 0.0010882023 -0.0146 -5.9448765E-4
    endloop
  endfacet
  facet normal 0.0 -1.0 0.0
    outer loop
      vertex 0.0010405921 -0.0146 -0.0017079719
      vertex 0.0017551652 -0.0146 -9.588511E-4
      vertex 0.0010882023 -0.0146 -5.9448765E-4
    endloop
  endfacet
  facet normal 0.0 -1.0 0.0
    outer loop
      vertex 0.0010882023 -0.0146 -5.9448765E-4
      vertex 0.0017551652 -0.0146 -9.588511E-4
      vertex 0.0012396547 -0.0146 2.9259765E-5
    endloop
  endfacet
  facet normal 0.0 -1.0 0.0
    outer loop
      vertex 0.0017551652 -0.0146 -9.588511E-4
      vertex 0.0019994432 -0.0146 4.719317E-5
      vertex 0.0012396547 -0.0146 2.9259765E-5
    endloop
  endfacet
  facet normal 0.0 -1.0 0.0
    outer loop
      vertex 0.0012396547 -0.0146 2.9259765E-5
      vertex 0.0019994432 -0.0146 4.719317E-5
      vertex 0.0010589426 -0.0146 6.451671E-4
    endloop
  endfacet
  facet normal 0.0 -1.0 0.0
    outer loop
      vertex 0.0019994432 -0.0146 4.719317E-5
      vertex 0.0017079719 -0.0146 0.0010405921
      vertex 0.0010589426 -0.0146 6.451671E-4
    endloop
  endfacet
  facet normal 0.0 -1.0 0.0
    outer loop
      vertex 0.0010589426 -0.0146 6.451671E-4
      vertex 0.0017079719 -0.0146 0.0010405921
      vertex 5.9448765E-4 -0.0146 0.0010882023
    endloop
  endfacet
  facet normal 0.0 -1.0 0.0
    outer loop
      vertex 0.0017079719 -0.0146 0.0010405921
      vertex 9.588511E-4 -0.0146 0.0017551652
      vertex 5.9448765E-4 -0.0146 0.0010882023
    endloop
  endfacet
  facet normal 0.0 -1.0 0.0
    outer loop
      vertex 5.9448765E-4 -0.0146 0.0010882023
      vertex 9.588511E-4 -0.0146 0.0017551652
      vertex -2.9259765E-5 -0.0146 0.0012396547
    endloop
  endfacet
  facet normal -0.0 -1.0 0.0
    outer loop
      vertex 9.588511E-4 -0.0146 0.0017551652
      vertex -4.719317E-5 -0.0146 0.0019994432
      vertex -2.9259765E-5 -0.0146 0.0012396547
    endloop
  endfacet
  facet normal -0.0 -1.0 0.0
    outer loop
      vertex -2.9259765E-5 -0.0146 0.0012396547
      vertex -4.719317E-5 -0.0146 0.0019994432
      vertex -6.451671E-4 -0.0146 0.0010589426
    endloop
  endfacet
  facet normal 0.0 -1.0 0.0
    outer loop
      vertex -4.719317E-5 -0.0146 0.0019994432
      vertex -0.0010405921 -0.0146 0.0017079719
      vertex -6.451671E-4 -0.0146 0.0010589426
    endloop
  endfacet
  facet normal -0.0 -1.0 0.0
    outer loop
      vertex -6.451671E-4 -0.0146 0.0010589426
      vertex -0.0010405921 -0.0146 0.0017079719
      vertex -0.0010882023 -0.0146 5.9448765E-4
    endloop
  endfacet
  facet normal 0.0 -1.0 0.0
    outer loop
      vertex -0.0010405921 -0.0146 0.0017079719
      vertex -0.0017551652 -0.0146 9.588511E-4
      vertex -0.0010882023 -0.0146 5.9448765E-4
    endloop
  endfacet
  facet normal -0.0 -1.0 0.0
    outer loop
      vertex -0.0010882023 -0.0146 5.9448765E-4
      vertex -0.0017551652 -0.0146 9.588511E-4
      vertex -0.0012396547 -0.0146 -2.9259765E-5
    endloop
  endfacet
  facet normal 0.0 -1.0 -0.0
    outer loop
      vertex -0.0017551652 -0.0146 9.588511E-4
      vertex -0.0019994432 -0.0146 -4.719317E-5
      vertex -0.0012396547 -0.0146 -2.9259765E-5
    endloop
  endfacet
  facet normal 0.0 -1.0 -0.0
    outer loop
      vertex -0.0012396547 -0.0146 -2.9259765E-5
      vertex -0.0019994432 -0.0146 -4.719317E-5
      vertex -0.0010589426 -0.0146 -6.451671E-4
    endloop
  endfacet
  facet normal 0.0 -1.0 0.0
    outer loop
      vertex -0.0019994432 -0.0146 -4.719317E-5
      vertex -0.0017079719 -0.0146 -0.0010405921
      vertex -0.0010589426 -0.0146 -6.451671E-4
    endloop
  endfacet
  facet normal 0.0 -1.0 -0.0
    outer loop
      vertex -0.0010589426 -0.0146 -6.451671E-4
      vertex -0.0017079719 -0.0146 -0.0010405921
      vertex -5.9448765E-4 -0.0146 -0.0010882023
    endloop
  endfacet
  facet normal 0.0 -1.0 0.0
    outer loop
      vertex -0.0017079719 -0.0146 -0.0010405921
      vertex -9.588511E-4 -0.0146 -0.0017551652
      vertex -5.9448765E-4 -0.0146 -0.0010882023
    endloop
  endfacet
  facet normal 0.0 -1.0 -0.0
    outer loop
      vertex -5.9448765E-4 -0.0146 -0.0010882023
      vertex -9.588511E-4 -0.0146 -0.0017551652
      vertex -2.0650148E-19 -0.0146 -0.00124
    endloop
  endfacet
  facet normal 0.0 -1.0 0.0
    outer loop
      vertex -9.588511E-4 -0.0146 -0.0017551652
      vertex -1.6653345E-18 -0.0146 -0.002
      vertex -2.0650148E-19 -0.0146 -0.00124
    endloop
  endfacet
  facet normal 0.0 -1.0 -0.0
    outer loop
      vertex -2.0650148E-19 -0.0146 -0.00124
      vertex -1.6653345E-18 -0.0146 -0.002
      vertex 2.9259765E-5 -0.0146 -0.0012396547
    endloop
  endfacet
  facet normal 0.0 -1.0 0.0
    outer loop
      vertex -1.6653345E-18 -0.0146 -0.002
      vertex 4.719317E-5 -0.0146 -0.0019994432
      vertex 2.9259765E-5 -0.0146 -0.0012396547
    endloop
  endfacet
  facet normal 0.0 0.0 -1.0
    outer loop
      vertex -7.671573E-4 -0.0136 -0.0034
      vertex -7.671573E-4 -0.01 -0.0034
      vertex 7.671573E-4 -0.0136 -0.0034
    endloop
  endfacet
  facet normal 0.0 0.0 -1.0
    outer loop
      vertex -7.671573E-4 -0.01 -0.0034
      vertex 7.671573E-4 -0.01 -0.0034
      vertex 7.671573E-4 -0.0136 -0.0034
    endloop
  endfacet
  facet normal -0.6902244967641207 0.0 -0.7235952902463616
    outer loop
      vertex 5.9448765E-4 -0.0146 0.0010882023
      vertex 5.9448765E-4 -0.0115 0.0010882023
      vertex 0.0010589426 -0.0146 6.451671E-4
    endloop
  endfacet
  facet normal -0.6902244967641207 0.0 -0.7235952902463616
    outer loop
      vertex 5.9448765E-4 -0.0115 0.0010882023
      vertex 0.0010589426 -0.0115 6.451671E-4
      vertex 0.0010589426 -0.0146 6.451671E-4
    endloop
  endfacet
  facet normal -0.9595496447376457 0.0 -0.28153948086166874
    outer loop
      vertex 0.0010589426 -0.0146 6.451671E-4
      vertex 0.0010589426 -0.0115 6.451671E-4
      vertex 0.0012396547 -0.0146 2.9259765E-5
    endloop
  endfacet
  facet normal -0.9595496447376457 0.0 -0.28153948086166874
    outer loop
      vertex 0.0010589426 -0.0115 6.451671E-4
      vertex 0.0012396547 -0.0115 2.9259765E-5
      vertex 0.0012396547 -0.0146 2.9259765E-5
    endloop
  endfacet
  facet normal -0.9717641053929134 0.0 0.23595449448974412
    outer loop
      vertex 0.0012396547 -0.0146 2.9259765E-5
      vertex 0.0012396547 -0.0115 2.9259765E-5
      vertex 0.0010882023 -0.0146 -5.9448765E-4
    endloop
  endfacet
  facet normal -0.9717641053929134 0.0 0.23595449448974412
    outer loop
      vertex 0.0012396547 -0.0115 2.9259765E-5
      vertex 0.0010882023 -0.0115 -5.9448765E-4
      vertex 0.0010882023 -0.0146 -5.9448765E-4
    endloop
  endfacet
  facet normal -0.7235952902463616 0.0 0.6902244967641207
    outer loop
      vertex 0.0010882023 -0.0146 -5.9448765E-4
      vertex 0.0010882023 -0.0115 -5.9448765E-4
      vertex 6.451671E-4 -0.0146 -0.0010589426
    endloop
  endfacet
  facet normal -0.7235952902463616 0.0 0.6902244967641207
    outer loop
      vertex 0.0010882023 -0.0115 -5.9448765E-4
      vertex 6.451671E-4 -0.0115 -0.0010589426
      vertex 6.451671E-4 -0.0146 -0.0010589426
    endloop
  endfacet
  facet normal -0.28153948086166874 0.0 0.9595496447376457
    outer loop
      vertex 6.451671E-4 -0.0146 -0.0010589426
      vertex 6.451671E-4 -0.0115 -0.0010589426
      vertex 2.9259765E-5 -0.0146 -0.0012396547
    endloop
  endfacet
  facet normal -0.28153948086166874 0.0 0.9595496447376457
    outer loop
      vertex 6.451671E-4 -0.0115 -0.0010589426
      vertex 2.9259765E-5 -0.0115 -0.0012396547
      vertex 2.9259765E-5 -0.0146 -0.0012396547
    endloop
  endfacet
  facet normal -0.011800366745347183 0.0 0.9999303732483954
    outer loop
      vertex 2.9259765E-5 -0.0146 -0.0012396547
      vertex 2.9259765E-5 -0.0115 -0.0012396547
      vertex -2.0650148E-19 -0.0146 -0.00124
    endloop
  endfacet
  facet normal -0.011800366745346852 -3.1523968516880067E-18 0.9999303732483954
    outer loop
      vertex 2.9259765E-5 -0.0115 -0.0012396547
      vertex -1.0325074E-18 -0.0115 -0.00124
      vertex -2.0650148E-19 -0.0146 -0.00124
    endloop
  endfacet
  facet normal 0.2474040836594824 6.592168959190571E-17 0.9689123899448349
    outer loop
      vertex -2.0650148E-19 -0.0146 -0.00124
      vertex -1.0325074E-18 -0.0115 -0.00124
      vertex -5.9448765E-4 -0.0146 -0.0010882023
    endloop
  endfacet
  facet normal 0.24740408365948277 0.0 0.9689123899448349
    outer loop
      vertex -1.0325074E-18 -0.0115 -0.00124
      vertex -5.9448765E-4 -0.0115 -0.0010882023
      vertex -5.9448765E-4 -0.0146 -0.0010882023
    endloop
  endfacet
  facet normal 0.6902244967641207 -0.0 0.7235952902463616
    outer loop
      vertex -5.9448765E-4 -0.0146 -0.0010882023
      vertex -5.9448765E-4 -0.0115 -0.0010882023
      vertex -0.0010589426 -0.0146 -6.451671E-4
    endloop
  endfacet
  facet normal 0.6902244967641207 0.0 0.7235952902463616
    outer loop
      vertex -5.9448765E-4 -0.0115 -0.0010882023
      vertex -0.0010589426 -0.0115 -6.451671E-4
      vertex -0.0010589426 -0.0146 -6.451671E-4
    endloop
  endfacet
  facet normal 0.9595496447376457 -0.0 0.28153948086166874
    outer loop
      vertex -0.0010589426 -0.0146 -6.451671E-4
      vertex -0.0010589426 -0.0115 -6.451671E-4
      vertex -0.0012396547 -0.0146 -2.9259765E-5
    endloop
  endfacet
  facet normal 0.9595496447376457 0.0 0.28153948086166874
    outer loop
      vertex -0.0010589426 -0.0115 -6.451671E-4
      vertex -0.0012396547 -0.0115 -2.9259765E-5
      vertex -0.0012396547 -0.0146 -2.9259765E-5
    endloop
  endfacet
  facet normal 0.9717641053929134 0.0 -0.23595449448974412
    outer loop
      vertex -0.0012396547 -0.0146 -2.9259765E-5
      vertex -0.0012396547 -0.0115 -2.9259765E-5
      vertex -0.0010882023 -0.0146 5.9448765E-4
    endloop
  endfacet
  facet normal 0.9717641053929134 0.0 -0.23595449448974412
    outer loop
      vertex -0.0012396547 -0.0115 -2.9259765E-5
      vertex -0.0010882023 -0.0115 5.9448765E-4
      vertex -0.0010882023 -0.0146 5.9448765E-4
    endloop
  endfacet
  facet normal 0.7235952902463616 0.0 -0.6902244967641207
    outer loop
      vertex -0.0010882023 -0.0146 5.9448765E-4
      vertex -0.0010882023 -0.0115 5.9448765E-4
      vertex -6.451671E-4 -0.0146 0.0010589426
    endloop
  endfacet
  facet normal 0.7235952902463616 0.0 -0.6902244967641207
    outer loop
      vertex -0.0010882023 -0.0115 5.9448765E-4
      vertex -6.451671E-4 -0.0115 0.0010589426
      vertex -6.451671E-4 -0.0146 0.0010589426
    endloop
  endfacet
  facet normal 0.28153948086166874 0.0 -0.9595496447376457
    outer loop
      vertex -6.451671E-4 -0.0146 0.0010589426
      vertex -6.451671E-4 -0.0115 0.0010589426
      vertex -2.9259765E-5 -0.0146 0.0012396547
    endloop
  endfacet
  facet normal 0.28153948086166874 0.0 -0.9595496447376457
    outer loop
      vertex -6.451671E-4 -0.0115 0.0010589426
      vertex -2.9259765E-5 -0.0115 0.0012396547
      vertex -2.9259765E-5 -0.0146 0.0012396547
    endloop
  endfacet
  facet normal -0.23595449448974412 0.0 -0.9717641053929134
    outer loop
      vertex -2.9259765E-5 -0.0146 0.0012396547
      vertex -2.9259765E-5 -0.0115 0.0012396547
      vertex 5.9448765E-4 -0.0146 0.0010882023
    endloop
  endfacet
  facet normal -0.23595449448974412 0.0 -0.9717641053929134
    outer loop
      vertex -2.9259765E-5 -0.0115 0.0012396547
      vertex 5.9448765E-4 -0.0115 0.0010882023
      vertex 5.9448765E-4 -0.0146 0.0010882023
    endloop
  endfacet
  facet normal -0.5555698455098688 -0.0 -0.8314698712281406
    outer loop
      vertex 9.0857863E-4 -0.01 -0.0034585786
      vertex 9.0857863E-4 -0.0136 -0.0034585786
      vertex 8.4369397E-4 -0.01 -0.0034152241
    endloop
  endfacet
  facet normal -0.5555698455098688 0.0 -0.8314698712281406
    outer loop
      vertex 9.0857863E-4 -0.0136 -0.0034585786
      vertex 8.4369397E-4 -0.0136 -0.0034152241
      vertex 8.4369397E-4 -0.01 -0.0034152241
    endloop
  endfacet
  facet normal -0.19509044255974822 -0.0 -0.9807852564256059
    outer loop
      vertex 8.4369397E-4 -0.01 -0.0034152241
      vertex 8.4369397E-4 -0.0136 -0.0034152241
      vertex 7.671573E-4 -0.01 -0.0034
    endloop
  endfacet
  facet normal -0.19509044255974822 0.0 -0.9807852564256059
    outer loop
      vertex 8.4369397E-4 -0.0136 -0.0034152241
      vertex 7.671573E-4 -0.0136 -0.0034
      vertex 7.671573E-4 -0.01 -0.0034
    endloop
  endfacet
  facet normal 0.0 1.0 0.0
    outer loop
      vertex -1.0325074E-18 -0.0115 -0.00124
      vertex -2.4980017E-19 -0.0115 -0.0015
      vertex -5.9448765E-4 -0.0115 -0.0010882023
    endloop
  endfacet
  facet normal 0.0 1.0 0.0
    outer loop
      vertex -2.4980017E-19 -0.0115 -0.0015
      vertex -7.191383E-4 -0.0115 -0.0013163738
      vertex -5.9448765E-4 -0.0115 -0.0010882023
    endloop
  endfacet
  facet normal 0.0 1.0 0.0
    outer loop
      vertex -5.9448765E-4 -0.0115 -0.0010882023
      vertex -7.191383E-4 -0.0115 -0.0013163738
      vertex -0.0010589426 -0.0115 -6.451671E-4
    endloop
  endfacet
  facet normal 0.0 1.0 0.0
    outer loop
      vertex -7.191383E-4 -0.0115 -0.0013163738
      vertex -0.001280979 -0.0115 -7.80444E-4
      vertex -0.0010589426 -0.0115 -6.451671E-4
    endloop
  endfacet
  facet normal 0.0 1.0 0.0
    outer loop
      vertex -0.0010589426 -0.0115 -6.451671E-4
      vertex -0.001280979 -0.0115 -7.80444E-4
      vertex -0.0012396547 -0.0115 -2.9259765E-5
    endloop
  endfacet
  facet normal 0.0 1.0 -0.0
    outer loop
      vertex -0.001280979 -0.0115 -7.80444E-4
      vertex -0.0014995823 -0.0115 -3.5394878E-5
      vertex -0.0012396547 -0.0115 -2.9259765E-5
    endloop
  endfacet
  facet normal 0.0 1.0 -0.0
    outer loop
      vertex -0.0012396547 -0.0115 -2.9259765E-5
      vertex -0.0014995823 -0.0115 -3.5394878E-5
      vertex -0.0010882023 -0.0115 5.9448765E-4
    endloop
  endfacet
  facet normal 0.0 1.0 0.0
    outer loop
      vertex -0.0014995823 -0.0115 -3.5394878E-5
      vertex -0.0013163738 -0.0115 7.191383E-4
      vertex -0.0010882023 -0.0115 5.9448765E-4
    endloop
  endfacet
  facet normal 0.0 1.0 -0.0
    outer loop
      vertex -0.0010882023 -0.0115 5.9448765E-4
      vertex -0.0013163738 -0.0115 7.191383E-4
      vertex -6.451671E-4 -0.0115 0.0010589426
    endloop
  endfacet
  facet normal 0.0 1.0 0.0
    outer loop
      vertex -0.0013163738 -0.0115 7.191383E-4
      vertex -7.80444E-4 -0.0115 0.001280979
      vertex -6.451671E-4 -0.0115 0.0010589426
    endloop
  endfacet
  facet normal 0.0 1.0 -0.0
    outer loop
      vertex -6.451671E-4 -0.0115 0.0010589426
      vertex -7.80444E-4 -0.0115 0.001280979
      vertex -2.9259765E-5 -0.0115 0.0012396547
    endloop
  endfacet
  facet normal -0.0 1.0 0.0
    outer loop
      vertex -7.80444E-4 -0.0115 0.001280979
      vertex -3.5394878E-5 -0.0115 0.0014995823
      vertex -2.9259765E-5 -0.0115 0.0012396547
    endloop
  endfacet
  facet normal -0.0 1.0 -0.0
    outer loop
      vertex -2.9259765E-5 -0.0115 0.0012396547
      vertex -3.5394878E-5 -0.0115 0.0014995823
      vertex 5.9448765E-4 -0.0115 0.0010882023
    endloop
  endfacet
  facet normal 0.0 1.0 0.0
    outer loop
      vertex -3.5394878E-5 -0.0115 0.0014995823
      vertex 7.191383E-4 -0.0115 0.0013163738
      vertex 5.9448765E-4 -0.0115 0.0010882023
    endloop
  endfacet
  facet normal -0.0 1.0 0.0
    outer loop
      vertex 5.9448765E-4 -0.0115 0.0010882023
      vertex 7.191383E-4 -0.0115 0.0013163738
      vertex 0.0010589426 -0.0115 6.451671E-4
    endloop
  endfacet
  facet normal 0.0 1.0 0.0
    outer loop
      vertex 7.191383E-4 -0.0115 0.0013163738
      vertex 0.001280979 -0.0115 7.80444E-4
      vertex 0.0010589426 -0.0115 6.451671E-4
    endloop
  endfacet
  facet normal -0.0 1.0 0.0
    outer loop
      vertex 0.0010589426 -0.0115 6.451671E-4
      vertex 0.001280979 -0.0115 7.80444E-4
      vertex 0.0012396547 -0.0115 2.9259765E-5
    endloop
  endfacet
  facet normal 0.0 1.0 0.0
    outer loop
      vertex 0.001280979 -0.0115 7.80444E-4
      vertex 0.0014995823 -0.0115 3.5394878E-5
      vertex 0.0012396547 -0.0115 2.9259765E-5
    endloop
  endfacet
  facet normal -0.0 1.0 0.0
    outer loop
      vertex 0.0012396547 -0.0115 2.9259765E-5
      vertex 0.0014995823 -0.0115 3.5394878E-5
      vertex 0.0010882023 -0.0115 -5.9448765E-4
    endloop
  endfacet
  facet normal 0.0 1.0 0.0
    outer loop
      vertex 0.0014995823 -0.0115 3.5394878E-5
      vertex 0.0013163738 -0.0115 -7.191383E-4
      vertex 0.0010882023 -0.0115 -5.9448765E-4
    endloop
  endfacet
  facet normal 0.0 1.0 0.0
    outer loop
      vertex 0.0010882023 -0.0115 -5.9448765E-4
      vertex 0.0013163738 -0.0115 -7.191383E-4
      vertex 6.451671E-4 -0.0115 -0.0010589426
    endloop
  endfacet
  facet normal 0.0 1.0 0.0
    outer loop
      vertex 0.0013163738 -0.0115 -7.191383E-4
      vertex 7.80444E-4 -0.0115 -0.001280979
      vertex 6.451671E-4 -0.0115 -0.0010589426
    endloop
  endfacet
  facet normal 0.0 1.0 0.0
    outer loop
      vertex 6.451671E-4 -0.0115 -0.0010589426
      vertex 7.80444E-4 -0.0115 -0.001280979
      vertex 2.9259765E-5 -0.0115 -0.0012396547
    endloop
  endfacet
  facet normal 0.0 1.0 0.0
    outer loop
      vertex 7.80444E-4 -0.0115 -0.001280979
      vertex 3.5394878E-5 -0.0115 -0.0014995823
      vertex 2.9259765E-5 -0.0115 -0.0012396547
    endloop
  endfacet
  facet normal 0.0 1.0 0.0
    outer loop
      vertex 2.9259765E-5 -0.0115 -0.0012396547
      vertex 3.5394878E-5 -0.0115 -0.0014995823
      vertex -1.0325074E-18 -0.0115 -0.00124
    endloop
  endfacet
  facet normal 0.0 1.0 0.0
    outer loop
      vertex 3.5394878E-5 -0.0115 -0.0014995823
      vertex -2.4980017E-19 -0.0115 -0.0015
      vertex -1.0325074E-18 -0.0115 -0.00124
    endloop
  endfacet
  facet normal 0.2207176112159814 0.4517702646827172 0.864400002341288
    outer loop
      vertex -7.191383E-4 -0.0115 -0.0013163738
      vertex -2.4980017E-19 -0.0115 -0.0015
      vertex 3.9566716E-5 -0.011181945 -0.0016763314
    endloop
  endfacet
  facet normal -0.010314113596739108 0.4858293992061717 0.873992799700137
    outer loop
      vertex -2.4980017E-19 -0.0115 -0.0015
      vertex 3.5394878E-5 -0.0115 -0.0014995823
      vertex 3.9566716E-5 -0.011181945 -0.0016763314
    endloop
  endfacet
  facet normal -0.24804557896277132 0.47305516052517044 0.8453947041811469
    outer loop
      vertex 3.9566716E-5 -0.011181945 -0.0016763314
      vertex 3.5394878E-5 -0.0115 -0.0014995823
      vertex 8.724315E-4 -0.011181945 -0.0014319622
    endloop
  endfacet
  facet normal -0.2480455209140497 0.47305498301772014 0.8453948205404279
    outer loop
      vertex 3.5394878E-5 -0.0115 -0.0014995823
      vertex 7.80444E-4 -0.0115 -0.001280979
      vertex 8.724315E-4 -0.011181945 -0.0014319622
    endloop
  endfacet
  facet normal -0.6375110973918973 0.4730550839535884 0.6081105888305534
    outer loop
      vertex 8.724315E-4 -0.011181945 -0.0014319622
      vertex 7.80444E-4 -0.0115 -0.001280979
      vertex 0.001471529 -0.011181945 -8.0389995E-4
    endloop
  endfacet
  facet normal -0.6375110877226844 0.47305530099441284 0.6081104301290395
    outer loop
      vertex 7.80444E-4 -0.0115 -0.001280979
      vertex 0.0013163738 -0.0115 -7.191383E-4
      vertex 0.001471529 -0.011181945 -8.0389995E-4
    endloop
  endfacet
  facet normal -0.856156015072351 0.473055309991923 0.20788350474214665
    outer loop
      vertex 0.001471529 -0.011181945 -8.0389995E-4
      vertex 0.0013163738 -0.0115 -7.191383E-4
      vertex 0.0016763314 -0.011181945 3.9566716E-5
    endloop
  endfacet
  facet normal -0.856156075447992 0.4730551606155198 0.20788359600631562
    outer loop
      vertex 0.0013163738 -0.0115 -7.191383E-4
      vertex 0.0014995823 -0.0115 3.5394878E-5
      vertex 0.0016763314 -0.011181945 3.9566716E-5
    endloop
  endfacet
  facet normal -0.8453947041811469 0.47305516052517044 -0.24804557896277132
    outer loop
      vertex 0.0016763314 -0.011181945 3.9566716E-5
      vertex 0.0014995823 -0.0115 3.5394878E-5
      vertex 0.0014319622 -0.011181945 8.724315E-4
    endloop
  endfacet
  facet normal -0.8453948205404278 0.47305498301772003 -0.24804552091404966
    outer loop
      vertex 0.0014995823 -0.0115 3.5394878E-5
      vertex 0.001280979 -0.0115 7.80444E-4
      vertex 0.0014319622 -0.011181945 8.724315E-4
    endloop
  endfacet
  facet normal -0.6081105888305534 0.4730550839535884 -0.6375110973918973
    outer loop
      vertex 0.0014319622 -0.011181945 8.724315E-4
      vertex 0.001280979 -0.0115 7.80444E-4
      vertex 8.0389995E-4 -0.011181945 0.001471529
    endloop
  endfacet
  facet normal -0.6081104301290394 0.47305530099441273 -0.6375110877226843
    outer loop
      vertex 0.001280979 -0.0115 7.80444E-4
      vertex 7.191383E-4 -0.0115 0.0013163738
      vertex 8.0389995E-4 -0.011181945 0.001471529
    endloop
  endfacet
  facet normal -0.20788350474214662 0.4730553099919229 -0.8561560150723508
    outer loop
      vertex 8.0389995E-4 -0.011181945 0.001471529
      vertex 7.191383E-4 -0.0115 0.0013163738
      vertex -3.9566716E-5 -0.011181945 0.0016763314
    endloop
  endfacet
  facet normal -0.20788359600631562 0.4730551606155198 -0.856156075447992
    outer loop
      vertex 7.191383E-4 -0.0115 0.0013163738
      vertex -3.5394878E-5 -0.0115 0.0014995823
      vertex -3.9566716E-5 -0.011181945 0.0016763314
    endloop
  endfacet
  facet normal 0.24804557896277132 0.47305516052517044 -0.8453947041811469
    outer loop
      vertex -3.9566716E-5 -0.011181945 0.0016763314
      vertex -3.5394878E-5 -0.0115 0.0014995823
      vertex -8.724315E-4 -0.011181945 0.0014319622
    endloop
  endfacet
  facet normal 0.2480455209140497 0.47305498301772014 -0.8453948205404279
    outer loop
      vertex -3.5394878E-5 -0.0115 0.0014995823
      vertex -7.80444E-4 -0.0115 0.001280979
      vertex -8.724315E-4 -0.011181945 0.0014319622
    endloop
  endfacet
  facet normal 0.6375110973918973 0.4730550839535884 -0.6081105888305534
    outer loop
      vertex -8.724315E-4 -0.011181945 0.0014319622
      vertex -7.80444E-4 -0.0115 0.001280979
      vertex -0.001471529 -0.011181945 8.0389995E-4
    endloop
  endfacet
  facet normal 0.6375110877226844 0.47305530099441284 -0.6081104301290395
    outer loop
      vertex -7.80444E-4 -0.0115 0.001280979
      vertex -0.0013163738 -0.0115 7.191383E-4
      vertex -0.001471529 -0.011181945 8.0389995E-4
    endloop
  endfacet
  facet normal 0.856156015072351 0.473055309991923 -0.20788350474214665
    outer loop
      vertex -0.001471529 -0.011181945 8.0389995E-4
      vertex -0.0013163738 -0.0115 7.191383E-4
      vertex -0.0016763314 -0.011181945 -3.9566716E-5
    endloop
  endfacet
  facet normal 0.856156075447992 0.4730551606155198 -0.20788359600631562
    outer loop
      vertex -0.0013163738 -0.0115 7.191383E-4
      vertex -0.0014995823 -0.0115 -3.5394878E-5
      vertex -0.0016763314 -0.011181945 -3.9566716E-5
    endloop
  endfacet
  facet normal 0.8453947041811469 0.47305516052517044 0.24804557896277132
    outer loop
      vertex -0.0016763314 -0.011181945 -3.9566716E-5
      vertex -0.0014995823 -0.0115 -3.5394878E-5
      vertex -0.0014319622 -0.011181945 -8.724315E-4
    endloop
  endfacet
  facet normal 0.8453948205404278 0.47305498301772003 0.24804552091404966
    outer loop
      vertex -0.0014995823 -0.0115 -3.5394878E-5
      vertex -0.001280979 -0.0115 -7.80444E-4
      vertex -0.0014319622 -0.011181945 -8.724315E-4
    endloop
  endfacet
  facet normal 0.6081105888305534 0.4730550839535884 0.6375110973918973
    outer loop
      vertex -0.0014319622 -0.011181945 -8.724315E-4
      vertex -0.001280979 -0.0115 -7.80444E-4
      vertex -8.0389995E-4 -0.011181945 -0.001471529
    endloop
  endfacet
  facet normal 0.6081104301290394 0.47305530099441273 0.6375110877226843
    outer loop
      vertex -0.001280979 -0.0115 -7.80444E-4
      vertex -7.191383E-4 -0.0115 -0.0013163738
      vertex -8.0389995E-4 -0.011181945 -0.001471529
    endloop
  endfacet
  facet normal 0.20788350474214662 0.4730553099919229 0.8561560150723508
    outer loop
      vertex -8.0389995E-4 -0.011181945 -0.001471529
      vertex -7.191383E-4 -0.0115 -0.0013163738
      vertex 3.9566716E-5 -0.011181945 -0.0016763314
    endloop
  endfacet
  facet normal -0.9595496252338174 0.0 -0.2815395473350783
    outer loop
      vertex 0.0014319622 -0.011181945 8.724315E-4
      vertex 0.0014319622 -0.010818055 8.724315E-4
      vertex 0.0016763314 -0.011181945 3.9566716E-5
    endloop
  endfacet
  facet normal -0.9595496252338174 0.0 -0.2815395473350783
    outer loop
      vertex 0.0014319622 -0.010818055 8.724315E-4
      vertex 0.0016763314 -0.010818055 3.9566716E-5
      vertex 0.0016763314 -0.011181945 3.9566716E-5
    endloop
  endfacet
  facet normal -0.971764140672026 0.0 0.23595434919483646
    outer loop
      vertex 0.0016763314 -0.011181945 3.9566716E-5
      vertex 0.0016763314 -0.010818055 3.9566716E-5
      vertex 0.001471529 -0.011181945 -8.0389995E-4
    endloop
  endfacet
  facet normal -0.971764140672026 0.0 0.23595434919483646
    outer loop
      vertex 0.0016763314 -0.010818055 3.9566716E-5
      vertex 0.001471529 -0.010818055 -8.0389995E-4
      vertex 0.001471529 -0.011181945 -8.0389995E-4
    endloop
  endfacet
  facet normal -0.7235951479385921 0.0 0.6902246459521182
    outer loop
      vertex 0.001471529 -0.011181945 -8.0389995E-4
      vertex 0.001471529 -0.010818055 -8.0389995E-4
      vertex 8.724315E-4 -0.011181945 -0.0014319622
    endloop
  endfacet
  facet normal -0.7235951479385921 0.0 0.6902246459521182
    outer loop
      vertex 0.001471529 -0.010818055 -8.0389995E-4
      vertex 8.724315E-4 -0.010818055 -0.0014319622
      vertex 8.724315E-4 -0.011181945 -0.0014319622
    endloop
  endfacet
  facet normal -0.2815395473350783 0.0 0.9595496252338174
    outer loop
      vertex 8.724315E-4 -0.011181945 -0.0014319622
      vertex 8.724315E-4 -0.010818055 -0.0014319622
      vertex 3.9566716E-5 -0.011181945 -0.0016763314
    endloop
  endfacet
  facet normal -0.2815395473350783 0.0 0.9595496252338174
    outer loop
      vertex 8.724315E-4 -0.010818055 -0.0014319622
      vertex 3.9566716E-5 -0.010818055 -0.0016763314
      vertex 3.9566716E-5 -0.011181945 -0.0016763314
    endloop
  endfacet
  facet normal 0.23595434919483646 -0.0 0.971764140672026
    outer loop
      vertex 3.9566716E-5 -0.011181945 -0.0016763314
      vertex 3.9566716E-5 -0.010818055 -0.0016763314
      vertex -8.0389995E-4 -0.011181945 -0.001471529
    endloop
  endfacet
  facet normal 0.23595434919483646 0.0 0.971764140672026
    outer loop
      vertex 3.9566716E-5 -0.010818055 -0.0016763314
      vertex -8.0389995E-4 -0.010818055 -0.001471529
      vertex -8.0389995E-4 -0.011181945 -0.001471529
    endloop
  endfacet
  facet normal 0.6902246459521182 -0.0 0.7235951479385921
    outer loop
      vertex -8.0389995E-4 -0.011181945 -0.001471529
      vertex -8.0389995E-4 -0.010818055 -0.001471529
      vertex -0.0014319622 -0.011181945 -8.724315E-4
    endloop
  endfacet
  facet normal 0.6902246459521182 0.0 0.7235951479385921
    outer loop
      vertex -8.0389995E-4 -0.010818055 -0.001471529
      vertex -0.0014319622 -0.010818055 -8.724315E-4
      vertex -0.0014319622 -0.011181945 -8.724315E-4
    endloop
  endfacet
  facet normal 0.9595496252338174 -0.0 0.2815395473350783
    outer loop
      vertex -0.0014319622 -0.011181945 -8.724315E-4
      vertex -0.0014319622 -0.010818055 -8.724315E-4
      vertex -0.0016763314 -0.011181945 -3.9566716E-5
    endloop
  endfacet
  facet normal 0.9595496252338174 0.0 0.2815395473350783
    outer loop
      vertex -0.0014319622 -0.010818055 -8.724315E-4
      vertex -0.0016763314 -0.010818055 -3.9566716E-5
      vertex -0.0016763314 -0.011181945 -3.9566716E-5
    endloop
  endfacet
  facet normal 0.971764140672026 0.0 -0.23595434919483646
    outer loop
      vertex -0.0016763314 -0.011181945 -3.9566716E-5
      vertex -0.0016763314 -0.010818055 -3.9566716E-5
      vertex -0.001471529 -0.011181945 8.0389995E-4
    endloop
  endfacet
  facet normal 0.971764140672026 0.0 -0.23595434919483646
    outer loop
      vertex -0.0016763314 -0.010818055 -3.9566716E-5
      vertex -0.001471529 -0.010818055 8.0389995E-4
      vertex -0.001471529 -0.011181945 8.0389995E-4
    endloop
  endfacet
  facet normal 0.7235951479385921 0.0 -0.6902246459521182
    outer loop
      vertex -0.001471529 -0.011181945 8.0389995E-4
      vertex -0.001471529 -0.010818055 8.0389995E-4
      vertex -8.724315E-4 -0.011181945 0.0014319622
    endloop
  endfacet
  facet normal 0.7235951479385921 0.0 -0.6902246459521182
    outer loop
      vertex -0.001471529 -0.010818055 8.0389995E-4
      vertex -8.724315E-4 -0.010818055 0.0014319622
      vertex -8.724315E-4 -0.011181945 0.0014319622
    endloop
  endfacet
  facet normal 0.2815395473350783 0.0 -0.9595496252338174
    outer loop
      vertex -8.724315E-4 -0.011181945 0.0014319622
      vertex -8.724315E-4 -0.010818055 0.0014319622
      vertex -3.9566716E-5 -0.011181945 0.0016763314
    endloop
  endfacet
  facet normal 0.2815395473350783 0.0 -0.9595496252338174
    outer loop
      vertex -8.724315E-4 -0.010818055 0.0014319622
      vertex -3.9566716E-5 -0.010818055 0.0016763314
      vertex -3.9566716E-5 -0.011181945 0.0016763314
    endloop
  endfacet
  facet normal -0.23595434919483646 0.0 -0.971764140672026
    outer loop
      vertex -3.9566716E-5 -0.011181945 0.0016763314
      vertex -3.9566716E-5 -0.010818055 0.0016763314
      vertex 8.0389995E-4 -0.011181945 0.001471529
    endloop
  endfacet
  facet normal -0.23595434919483646 0.0 -0.971764140672026
    outer loop
      vertex -3.9566716E-5 -0.010818055 0.0016763314
      vertex 8.0389995E-4 -0.010818055 0.001471529
      vertex 8.0389995E-4 -0.011181945 0.001471529
    endloop
  endfacet
  facet normal -0.6902246459521182 0.0 -0.7235951479385921
    outer loop
      vertex 8.0389995E-4 -0.011181945 0.001471529
      vertex 8.0389995E-4 -0.010818055 0.001471529
      vertex 0.0014319622 -0.011181945 8.724315E-4
    endloop
  endfacet
  facet normal -0.6902246459521182 0.0 -0.7235951479385921
    outer loop
      vertex 8.0389995E-4 -0.010818055 0.001471529
      vertex 0.0014319622 -0.010818055 8.724315E-4
      vertex 0.0014319622 -0.011181945 8.724315E-4
    endloop
  endfacet
  facet normal -0.248045492587308 -0.47305517040398765 0.8453947239965329
    outer loop
      vertex 7.80444E-4 -0.0105 -0.001280979
      vertex 3.5394878E-5 -0.0105 -0.0014995823
      vertex 3.9566716E-5 -0.010818055 -0.0016763314
    endloop
  endfacet
  facet normal -0.010314113596738816 -0.48582939920617163 0.873992799700137
    outer loop
      vertex 3.5394878E-5 -0.0105 -0.0014995823
      vertex -1.249001E-18 -0.0105 -0.0015
      vertex 3.9566716E-5 -0.010818055 -0.0016763314
    endloop
  endfacet
  facet normal 0.21024769951210806 -0.45390036585139193 0.8658928124946175
    outer loop
      vertex 3.9566716E-5 -0.010818055 -0.0016763314
      vertex -1.249001E-18 -0.0105 -0.0015
      vertex -8.0389995E-4 -0.010818055 -0.001471529
    endloop
  endfacet
  facet normal 0.21782013916395035 -0.47418949186554477 0.8530525850021754
    outer loop
      vertex -1.249001E-18 -0.0105 -0.0015
      vertex -7.191383E-4 -0.0105 -0.0013163738
      vertex -8.0389995E-4 -0.010818055 -0.001471529
    endloop
  endfacet
  facet normal 0.608110512870857 -0.4730552889154345 0.6375110177597543
    outer loop
      vertex -8.0389995E-4 -0.010818055 -0.001471529
      vertex -7.191383E-4 -0.0105 -0.0013163738
      vertex -0.0014319622 -0.010818055 -8.724315E-4
    endloop
  endfacet
  facet normal 0.6081105150417508 -0.4730550718746405 0.6375111767407183
    outer loop
      vertex -7.191383E-4 -0.0105 -0.0013163738
      vertex -0.001280979 -0.0105 -7.80444E-4
      vertex -0.0014319622 -0.010818055 -8.724315E-4
    endloop
  endfacet
  facet normal 0.8453947905456342 -0.47305499289655567 0.24804560430280378
    outer loop
      vertex -0.0014319622 -0.010818055 -8.724315E-4
      vertex -0.001280979 -0.0105 -7.80444E-4
      vertex -0.0016763314 -0.010818055 -3.9566716E-5
    endloop
  endfacet
  facet normal 0.8453947239965329 -0.47305517040398765 0.248045492587308
    outer loop
      vertex -0.001280979 -0.0105 -7.80444E-4
      vertex -0.0014995823 -0.0105 -3.5394878E-5
      vertex -0.0016763314 -0.010818055 -3.9566716E-5
    endloop
  endfacet
  facet normal 0.8561560886751398 -0.47305516892876354 -0.2078835226136624
    outer loop
      vertex -0.0016763314 -0.010818055 -3.9566716E-5
      vertex -0.0014995823 -0.0105 -3.5394878E-5
      vertex -0.001471529 -0.010818055 8.0389995E-4
    endloop
  endfacet
  facet normal 0.8561559931699714 -0.4730553183051666 -0.20788357602835683
    outer loop
      vertex -0.0014995823 -0.0105 -3.5394878E-5
      vertex -0.0013163738 -0.0105 7.191383E-4
      vertex -0.001471529 -0.010818055 8.0389995E-4
    endloop
  endfacet
  facet normal 0.6375110177597544 -0.47305528891543464 -0.6081105128708572
    outer loop
      vertex -0.001471529 -0.010818055 8.0389995E-4
      vertex -0.0013163738 -0.0105 7.191383E-4
      vertex -8.724315E-4 -0.010818055 0.0014319622
    endloop
  endfacet
  facet normal 0.6375111767407183 -0.4730550718746405 -0.6081105150417508
    outer loop
      vertex -0.0013163738 -0.0105 7.191383E-4
      vertex -7.80444E-4 -0.0105 0.001280979
      vertex -8.724315E-4 -0.010818055 0.0014319622
    endloop
  endfacet
  facet normal 0.24804560430280378 -0.47305499289655567 -0.8453947905456342
    outer loop
      vertex -8.724315E-4 -0.010818055 0.0014319622
      vertex -7.80444E-4 -0.0105 0.001280979
      vertex -3.9566716E-5 -0.010818055 0.0016763314
    endloop
  endfacet
  facet normal 0.248045492587308 -0.47305517040398765 -0.8453947239965329
    outer loop
      vertex -7.80444E-4 -0.0105 0.001280979
      vertex -3.5394878E-5 -0.0105 0.0014995823
      vertex -3.9566716E-5 -0.010818055 0.0016763314
    endloop
  endfacet
  facet normal -0.2078835226136624 -0.47305516892876354 -0.8561560886751398
    outer loop
      vertex -3.9566716E-5 -0.010818055 0.0016763314
      vertex -3.5394878E-5 -0.0105 0.0014995823
      vertex 8.0389995E-4 -0.010818055 0.001471529
    endloop
  endfacet
  facet normal -0.2078835760283568 -0.47305531830516656 -0.8561559931699713
    outer loop
      vertex -3.5394878E-5 -0.0105 0.0014995823
      vertex 7.191383E-4 -0.0105 0.0013163738
      vertex 8.0389995E-4 -0.010818055 0.001471529
    endloop
  endfacet
  facet normal -0.608110512870857 -0.4730552889154345 -0.6375110177597543
    outer loop
      vertex 8.0389995E-4 -0.010818055 0.001471529
      vertex 7.191383E-4 -0.0105 0.0013163738
      vertex 0.0014319622 -0.010818055 8.724315E-4
    endloop
  endfacet
  facet normal -0.6081105150417508 -0.4730550718746405 -0.6375111767407183
    outer loop
      vertex 7.191383E-4 -0.0105 0.0013163738
      vertex 0.001280979 -0.0105 7.80444E-4
      vertex 0.0014319622 -0.010818055 8.724315E-4
    endloop
  endfacet
  facet normal -0.8453947905456342 -0.47305499289655567 -0.24804560430280378
    outer loop
      vertex 0.0014319622 -0.010818055 8.724315E-4
      vertex 0.001280979 -0.0105 7.80444E-4
      vertex 0.0016763314 -0.010818055 3.9566716E-5
    endloop
  endfacet
  facet normal -0.8453947239965329 -0.47305517040398765 -0.248045492587308
    outer loop
      vertex 0.001280979 -0.0105 7.80444E-4
      vertex 0.0014995823 -0.0105 3.5394878E-5
      vertex 0.0016763314 -0.010818055 3.9566716E-5
    endloop
  endfacet
  facet normal -0.8561560886751398 -0.47305516892876354 0.2078835226136624
    outer loop
      vertex 0.0016763314 -0.010818055 3.9566716E-5
      vertex 0.0014995823 -0.0105 3.5394878E-5
      vertex 0.001471529 -0.010818055 -8.0389995E-4
    endloop
  endfacet
  facet normal -0.8561559931699714 -0.4730553183051666 0.20788357602835683
    outer loop
      vertex 0.0014995823 -0.0105 3.5394878E-5
      vertex 0.0013163738 -0.0105 -7.191383E-4
      vertex 0.001471529 -0.010818055 -8.0389995E-4
    endloop
  endfacet
  facet normal -0.6375110177597544 -0.47305528891543464 0.6081105128708572
    outer loop
      vertex 0.001471529 -0.010818055 -8.0389995E-4
      vertex 0.0013163738 -0.0105 -7.191383E-4
      vertex 8.724315E-4 -0.010818055 -0.0014319622
    endloop
  endfacet
  facet normal -0.6375111767407183 -0.4730550718746405 0.6081105150417508
    outer loop
      vertex 0.0013163738 -0.0105 -7.191383E-4
      vertex 7.80444E-4 -0.0105 -0.001280979
      vertex 8.724315E-4 -0.010818055 -0.0014319622
    endloop
  endfacet
  facet normal -0.24804560430280378 -0.47305499289655567 0.8453947905456342
    outer loop
      vertex 8.724315E-4 -0.010818055 -0.0014319622
      vertex 7.80444E-4 -0.0105 -0.001280979
      vertex 3.9566716E-5 -0.010818055 -0.0016763314
    endloop
  endfacet
  facet normal 0.0 -1.0 0.0
    outer loop
      vertex 2.3596585E-5 -0.0105 -9.997216E-4
      vertex 3.5394878E-5 -0.0105 -0.0014995823
      vertex 5.2029605E-4 -0.0105 -8.5398596E-4
    endloop
  endfacet
  facet normal 0.0 -1.0 0.0
    outer loop
      vertex 3.5394878E-5 -0.0105 -0.0014995823
      vertex 7.80444E-4 -0.0105 -0.001280979
      vertex 5.2029605E-4 -0.0105 -8.5398596E-4
    endloop
  endfacet
  facet normal 0.0 -1.0 0.0
    outer loop
      vertex 5.2029605E-4 -0.0105 -8.5398596E-4
      vertex 7.80444E-4 -0.0105 -0.001280979
      vertex 8.775826E-4 -0.0105 -4.7942554E-4
    endloop
  endfacet
  facet normal 0.0 -1.0 0.0
    outer loop
      vertex 7.80444E-4 -0.0105 -0.001280979
      vertex 0.0013163738 -0.0105 -7.191383E-4
      vertex 8.775826E-4 -0.0105 -4.7942554E-4
    endloop
  endfacet
  facet normal 0.0 -1.0 0.0
    outer loop
      vertex 8.775826E-4 -0.0105 -4.7942554E-4
      vertex 0.0013163738 -0.0105 -7.191383E-4
      vertex 9.997216E-4 -0.0105 2.3596585E-5
    endloop
  endfacet
  facet normal 0.0 -1.0 0.0
    outer loop
      vertex 0.0013163738 -0.0105 -7.191383E-4
      vertex 0.0014995823 -0.0105 3.5394878E-5
      vertex 9.997216E-4 -0.0105 2.3596585E-5
    endloop
  endfacet
  facet normal 0.0 -1.0 0.0
    outer loop
      vertex 9.997216E-4 -0.0105 2.3596585E-5
      vertex 0.0014995823 -0.0105 3.5394878E-5
      vertex 8.5398596E-4 -0.0105 5.2029605E-4
    endloop
  endfacet
  facet normal 0.0 -1.0 0.0
    outer loop
      vertex 0.0014995823 -0.0105 3.5394878E-5
      vertex 0.001280979 -0.0105 7.80444E-4
      vertex 8.5398596E-4 -0.0105 5.2029605E-4
    endloop
  endfacet
  facet normal 0.0 -1.0 0.0
    outer loop
      vertex 8.5398596E-4 -0.0105 5.2029605E-4
      vertex 0.001280979 -0.0105 7.80444E-4
      vertex 4.7942554E-4 -0.0105 8.775826E-4
    endloop
  endfacet
  facet normal 0.0 -1.0 0.0
    outer loop
      vertex 0.001280979 -0.0105 7.80444E-4
      vertex 7.191383E-4 -0.0105 0.0013163738
      vertex 4.7942554E-4 -0.0105 8.775826E-4
    endloop
  endfacet
  facet normal 0.0 -1.0 0.0
    outer loop
      vertex 4.7942554E-4 -0.0105 8.775826E-4
      vertex 7.191383E-4 -0.0105 0.0013163738
      vertex -2.3596585E-5 -0.0105 9.997216E-4
    endloop
  endfacet
  facet normal -0.0 -1.0 0.0
    outer loop
      vertex 7.191383E-4 -0.0105 0.0013163738
      vertex -3.5394878E-5 -0.0105 0.0014995823
      vertex -2.3596585E-5 -0.0105 9.997216E-4
    endloop
  endfacet
  facet normal -0.0 -1.0 0.0
    outer loop
      vertex -2.3596585E-5 -0.0105 9.997216E-4
      vertex -3.5394878E-5 -0.0105 0.0014995823
      vertex -5.2029605E-4 -0.0105 8.5398596E-4
    endloop
  endfacet
  facet normal 0.0 -1.0 0.0
    outer loop
      vertex -3.5394878E-5 -0.0105 0.0014995823
      vertex -7.80444E-4 -0.0105 0.001280979
      vertex -5.2029605E-4 -0.0105 8.5398596E-4
    endloop
  endfacet
  facet normal -0.0 -1.0 0.0
    outer loop
      vertex -5.2029605E-4 -0.0105 8.5398596E-4
      vertex -7.80444E-4 -0.0105 0.001280979
      vertex -8.775826E-4 -0.0105 4.7942554E-4
    endloop
  endfacet
  facet normal 0.0 -1.0 0.0
    outer loop
      vertex -7.80444E-4 -0.0105 0.001280979
      vertex -0.0013163738 -0.0105 7.191383E-4
      vertex -8.775826E-4 -0.0105 4.7942554E-4
    endloop
  endfacet
  facet normal -0.0 -1.0 0.0
    outer loop
      vertex -8.775826E-4 -0.0105 4.7942554E-4
      vertex -0.0013163738 -0.0105 7.191383E-4
      vertex -9.997216E-4 -0.0105 -2.3596585E-5
    endloop
  endfacet
  facet normal 0.0 -1.0 -0.0
    outer loop
      vertex -0.0013163738 -0.0105 7.191383E-4
      vertex -0.0014995823 -0.0105 -3.5394878E-5
      vertex -9.997216E-4 -0.0105 -2.3596585E-5
    endloop
  endfacet
  facet normal 0.0 -1.0 -0.0
    outer loop
      vertex -9.997216E-4 -0.0105 -2.3596585E-5
      vertex -0.0014995823 -0.0105 -3.5394878E-5
      vertex -8.5398596E-4 -0.0105 -5.2029605E-4
    endloop
  endfacet
  facet normal 0.0 -1.0 0.0
    outer loop
      vertex -0.0014995823 -0.0105 -3.5394878E-5
      vertex -0.001280979 -0.0105 -7.80444E-4
      vertex -8.5398596E-4 -0.0105 -5.2029605E-4
    endloop
  endfacet
  facet normal 0.0 -1.0 -0.0
    outer loop
      vertex -8.5398596E-4 -0.0105 -5.2029605E-4
      vertex -0.001280979 -0.0105 -7.80444E-4
      vertex -4.7942554E-4 -0.0105 -8.775826E-4
    endloop
  endfacet
  facet normal 0.0 -1.0 0.0
    outer loop
      vertex -0.001280979 -0.0105 -7.80444E-4
      vertex -7.191383E-4 -0.0105 -0.0013163738
      vertex -4.7942554E-4 -0.0105 -8.775826E-4
    endloop
  endfacet
  facet normal 0.0 -1.0 -0.0
    outer loop
      vertex -4.7942554E-4 -0.0105 -8.775826E-4
      vertex -7.191383E-4 -0.0105 -0.0013163738
      vertex -1.6653346E-19 -0.0105 -0.001
    endloop
  endfacet
  facet normal 0.0 -1.0 0.0
    outer loop
      vertex -7.191383E-4 -0.0105 -0.0013163738
      vertex -1.249001E-18 -0.0105 -0.0015
      vertex -1.6653346E-19 -0.0105 -0.001
    endloop
  endfacet
  facet normal 0.0 -1.0 -0.0
    outer loop
      vertex -1.6653346E-19 -0.0105 -0.001
      vertex -1.249001E-18 -0.0105 -0.0015
      vertex 2.3596585E-5 -0.0105 -9.997216E-4
    endloop
  endfacet
  facet normal 0.0 -1.0 0.0
    outer loop
      vertex -1.249001E-18 -0.0105 -0.0015
      vertex 3.5394878E-5 -0.0105 -0.0014995823
      vertex 2.3596585E-5 -0.0105 -9.997216E-4
    endloop
  endfacet
  facet normal -0.6902246190031768 0.0 -0.7235951736447113
    outer loop
      vertex 4.7942554E-4 -0.0105 8.775826E-4
      vertex 4.7942554E-4 -0.01 8.775826E-4
      vertex 8.5398596E-4 -0.0105 5.2029605E-4
    endloop
  endfacet
  facet normal -0.6902246190031768 0.0 -0.7235951736447113
    outer loop
      vertex 4.7942554E-4 -0.01 8.775826E-4
      vertex 8.5398596E-4 -0.01 5.2029605E-4
      vertex 8.5398596E-4 -0.0105 5.2029605E-4
    endloop
  endfacet
  facet normal -0.9595496055408047 0.0 -0.28153961445325254
    outer loop
      vertex 8.5398596E-4 -0.0105 5.2029605E-4
      vertex 8.5398596E-4 -0.01 5.2029605E-4
      vertex 9.997216E-4 -0.0105 2.3596585E-5
    endloop
  endfacet
  facet normal -0.9595496055408047 0.0 -0.28153961445325254
    outer loop
      vertex 8.5398596E-4 -0.01 5.2029605E-4
      vertex 9.997216E-4 -0.01 2.3596585E-5
      vertex 9.997216E-4 -0.0105 2.3596585E-5
    endloop
  endfacet
  facet normal -0.9717641214166465 0.0 0.23595442849697282
    outer loop
      vertex 9.997216E-4 -0.0105 2.3596585E-5
      vertex 9.997216E-4 -0.01 2.3596585E-5
      vertex 8.775826E-4 -0.0105 -4.7942554E-4
    endloop
  endfacet
  facet normal -0.9717641214166465 0.0 0.23595442849697282
    outer loop
      vertex 9.997216E-4 -0.01 2.3596585E-5
      vertex 8.775826E-4 -0.01 -4.7942554E-4
      vertex 8.775826E-4 -0.0105 -4.7942554E-4
    endloop
  endfacet
  facet normal -0.7235951736447113 0.0 0.6902246190031768
    outer loop
      vertex 8.775826E-4 -0.0105 -4.7942554E-4
      vertex 8.775826E-4 -0.01 -4.7942554E-4
      vertex 5.2029605E-4 -0.0105 -8.5398596E-4
    endloop
  endfacet
  facet normal -0.7235951736447113 0.0 0.6902246190031768
    outer loop
      vertex 8.775826E-4 -0.01 -4.7942554E-4
      vertex 5.2029605E-4 -0.01 -8.5398596E-4
      vertex 5.2029605E-4 -0.0105 -8.5398596E-4
    endloop
  endfacet
  facet normal -0.28153961445325254 0.0 0.9595496055408047
    outer loop
      vertex 5.2029605E-4 -0.0105 -8.5398596E-4
      vertex 5.2029605E-4 -0.01 -8.5398596E-4
      vertex 2.3596585E-5 -0.0105 -9.997216E-4
    endloop
  endfacet
  facet normal -0.28153961445325254 0.0 0.9595496055408047
    outer loop
      vertex 5.2029605E-4 -0.01 -8.5398596E-4
      vertex 2.3596585E-5 -0.01 -9.997216E-4
      vertex 2.3596585E-5 -0.0105 -9.997216E-4
    endloop
  endfacet
  facet normal -0.011797496347107706 0.0 0.9999304071183853
    outer loop
      vertex 2.3596585E-5 -0.0105 -9.997216E-4
      vertex 2.3596585E-5 -0.01 -9.997216E-4
      vertex -1.6653346E-19 -0.0105 -0.001
    endloop
  endfacet
  facet normal -0.011797496347107372 -1.5746311643042337E-17 0.9999304071183853
    outer loop
      vertex 2.3596585E-5 -0.01 -9.997216E-4
      vertex -8.3266725E-19 -0.01 -0.001
      vertex -1.6653346E-19 -0.0105 -0.001
    endloop
  endfacet
  facet normal 0.24740388627352214 3.2960817684822027E-16 0.9689124403457506
    outer loop
      vertex -1.6653346E-19 -0.0105 -0.001
      vertex -8.3266725E-19 -0.01 -0.001
      vertex -4.7942554E-4 -0.0105 -8.775826E-4
    endloop
  endfacet
  facet normal 0.24740388627352253 0.0 0.9689124403457506
    outer loop
      vertex -8.3266725E-19 -0.01 -0.001
      vertex -4.7942554E-4 -0.01 -8.775826E-4
      vertex -4.7942554E-4 -0.0105 -8.775826E-4
    endloop
  endfacet
  facet normal 0.6902246190031768 -0.0 0.7235951736447113
    outer loop
      vertex -4.7942554E-4 -0.0105 -8.775826E-4
      vertex -4.7942554E-4 -0.01 -8.775826E-4
      vertex -8.5398596E-4 -0.0105 -5.2029605E-4
    endloop
  endfacet
  facet normal 0.6902246190031768 0.0 0.7235951736447113
    outer loop
      vertex -4.7942554E-4 -0.01 -8.775826E-4
      vertex -8.5398596E-4 -0.01 -5.2029605E-4
      vertex -8.5398596E-4 -0.0105 -5.2029605E-4
    endloop
  endfacet
  facet normal 0.9595496055408047 -0.0 0.28153961445325254
    outer loop
      vertex -8.5398596E-4 -0.0105 -5.2029605E-4
      vertex -8.5398596E-4 -0.01 -5.2029605E-4
      vertex -9.997216E-4 -0.0105 -2.3596585E-5
    endloop
  endfacet
  facet normal 0.9595496055408047 0.0 0.28153961445325254
    outer loop
      vertex -8.5398596E-4 -0.01 -5.2029605E-4
      vertex -9.997216E-4 -0.01 -2.3596585E-5
      vertex -9.997216E-4 -0.0105 -2.3596585E-5
    endloop
  endfacet
  facet normal 0.9717641214166465 0.0 -0.23595442849697282
    outer loop
      vertex -9.997216E-4 -0.0105 -2.3596585E-5
      vertex -9.997216E-4 -0.01 -2.3596585E-5
      vertex -8.775826E-4 -0.0105 4.7942554E-4
    endloop
  endfacet
  facet normal 0.9717641214166465 0.0 -0.23595442849697282
    outer loop
      vertex -9.997216E-4 -0.01 -2.3596585E-5
      vertex -8.775826E-4 -0.01 4.7942554E-4
      vertex -8.775826E-4 -0.0105 4.7942554E-4
    endloop
  endfacet
  facet normal 0.7235951736447113 0.0 -0.6902246190031768
    outer loop
      vertex -8.775826E-4 -0.0105 4.7942554E-4
      vertex -8.775826E-4 -0.01 4.7942554E-4
      vertex -5.2029605E-4 -0.0105 8.5398596E-4
    endloop
  endfacet
  facet normal 0.7235951736447113 0.0 -0.6902246190031768
    outer loop
      vertex -8.775826E-4 -0.01 4.7942554E-4
      vertex -5.2029605E-4 -0.01 8.5398596E-4
      vertex -5.2029605E-4 -0.0105 8.5398596E-4
    endloop
  endfacet
  facet normal 0.28153961445325254 0.0 -0.9595496055408047
    outer loop
      vertex -5.2029605E-4 -0.0105 8.5398596E-4
      vertex -5.2029605E-4 -0.01 8.5398596E-4
      vertex -2.3596585E-5 -0.0105 9.997216E-4
    endloop
  endfacet
  facet normal 0.28153961445325254 0.0 -0.9595496055408047
    outer loop
      vertex -5.2029605E-4 -0.01 8.5398596E-4
      vertex -2.3596585E-5 -0.01 9.997216E-4
      vertex -2.3596585E-5 -0.0105 9.997216E-4
    endloop
  endfacet
  facet normal -0.23595442849697282 0.0 -0.9717641214166465
    outer loop
      vertex -2.3596585E-5 -0.0105 9.997216E-4
      vertex -2.3596585E-5 -0.01 9.997216E-4
      vertex 4.7942554E-4 -0.0105 8.775826E-4
    endloop
  endfacet
  facet normal -0.23595442849697282 0.0 -0.9717641214166465
    outer loop
      vertex -2.3596585E-5 -0.01 9.997216E-4
      vertex 4.7942554E-4 -0.01 8.775826E-4
      vertex 4.7942554E-4 -0.0105 8.775826E-4
    endloop
  endfacet
  facet normal 0.7301160315916797 0.0 -0.683323188844647
    outer loop
      vertex 0.0022588714 -0.0136 -0.0036
      vertex 0.0022588714 -0.01 -0.0036
      vertex 0.0037415167 -0.01 -0.0020158256
    endloop
  endfacet
  facet normal 0.7301160315916797 0.0 -0.683323188844647
    outer loop
      vertex 0.0022588714 -0.0136 -0.0036
      vertex 0.0037415167 -0.01 -0.0020158256
      vertex 0.0037415167 -0.0136 -0.0020158256
    endloop
  endfacet
  facet normal 0.9722670181716566 0.0 -0.23387356707331336
    outer loop
      vertex 0.0037415167 -0.01 -0.0020158256
      vertex 0.0042489655 -0.01 9.375753E-5
      vertex 0.0037415167 -0.0136 -0.0020158256
    endloop
  endfacet
  facet normal 0.9722670181716566 0.0 -0.23387356707331336
    outer loop
      vertex 0.0037415167 -0.0136 -0.0020158256
      vertex 0.0042489655 -0.01 9.375753E-5
      vertex 0.0042489655 -0.0136 9.375753E-5
    endloop
  endfacet
  facet normal 0.9610043800654984 0.0 0.27653314719021826
    outer loop
      vertex 0.0042489655 -0.01 9.375753E-5
      vertex 0.0036489558 -0.01 0.0021789034
      vertex 0.0042489655 -0.0136 9.375753E-5
    endloop
  endfacet
  facet normal 0.9610043800654984 0.0 0.27653314719021826
    outer loop
      vertex 0.0042489655 -0.0136 9.375753E-5
      vertex 0.0036489558 -0.01 0.0021789034
      vertex 0.0036489558 -0.0136 0.0021789034
    endloop
  endfacet
  facet normal 0.6992636918011523 0.0 0.7148638257239086
    outer loop
      vertex 0.0036489558 -0.01 0.0021789034
      vertex 0.002097875 -0.01 0.0036961357
      vertex 0.0036489558 -0.0136 0.0021789034
    endloop
  endfacet
  facet normal 0.6992636918011523 0.0 0.7148638257239086
    outer loop
      vertex 0.0036489558 -0.0136 0.0021789034
      vertex 0.002097875 -0.01 0.0036961357
      vertex 0.002097875 -0.0136 0.0036961357
    endloop
  endfacet
  facet normal 0.2552655967142751 0.0 0.9668709712956043
    outer loop
      vertex 0.002097875 -0.01 0.0036961357
      vertex -1.4155343E-18 -0.01 0.00425
      vertex 0.002097875 -0.0136 0.0036961357
    endloop
  endfacet
  facet normal 0.2552655967142751 0.0 0.9668709712956043
    outer loop
      vertex 0.002097875 -0.0136 0.0036961357
      vertex -1.4155343E-18 -0.01 0.00425
      vertex -1.4155343E-18 -0.0136 0.00425
    endloop
  endfacet
  facet normal -0.2552655967142754 0.0 0.9668709712956042
    outer loop
      vertex -1.4155343E-18 -0.01 0.00425
      vertex -0.002097875 -0.01 0.0036961357
      vertex -1.4155343E-18 -0.0136 0.00425
    endloop
  endfacet
  facet normal -0.2552655967142754 0.0 0.9668709712956042
    outer loop
      vertex -1.4155343E-18 -0.0136 0.00425
      vertex -0.002097875 -0.01 0.0036961357
      vertex -0.002097875 -0.0136 0.0036961357
    endloop
  endfacet
  facet normal -0.6992636918011523 0.0 0.7148638257239086
    outer loop
      vertex -0.002097875 -0.01 0.0036961357
      vertex -0.0036489558 -0.01 0.0021789034
      vertex -0.002097875 -0.0136 0.0036961357
    endloop
  endfacet
  facet normal -0.6992636918011523 0.0 0.7148638257239086
    outer loop
      vertex -0.002097875 -0.0136 0.0036961357
      vertex -0.0036489558 -0.01 0.0021789034
      vertex -0.0036489558 -0.0136 0.0021789034
    endloop
  endfacet
  facet normal -0.9610043800654984 0.0 0.27653314719021826
    outer loop
      vertex -0.0036489558 -0.01 0.0021789034
      vertex -0.0042489655 -0.01 9.375753E-5
      vertex -0.0036489558 -0.0136 0.0021789034
    endloop
  endfacet
  facet normal -0.9610043800654984 0.0 0.27653314719021826
    outer loop
      vertex -0.0036489558 -0.0136 0.0021789034
      vertex -0.0042489655 -0.01 9.375753E-5
      vertex -0.0042489655 -0.0136 9.375753E-5
    endloop
  endfacet
  facet normal -0.9722670181716566 -0.0 -0.23387356707331336
    outer loop
      vertex -0.0042489655 -0.01 9.375753E-5
      vertex -0.0037415167 -0.01 -0.0020158256
      vertex -0.0042489655 -0.0136 9.375753E-5
    endloop
  endfacet
  facet normal -0.9722670181716566 0.0 -0.23387356707331336
    outer loop
      vertex -0.0042489655 -0.0136 9.375753E-5
      vertex -0.0037415167 -0.01 -0.0020158256
      vertex -0.0037415167 -0.0136 -0.0020158256
    endloop
  endfacet
  facet normal -0.7301160315916797 -0.0 -0.683323188844647
    outer loop
      vertex -0.0037415167 -0.01 -0.0020158256
      vertex -0.0022588714 -0.01 -0.0036
      vertex -0.0037415167 -0.0136 -0.0020158256
    endloop
  endfacet
  facet normal -0.7301160315916797 0.0 -0.683323188844647
    outer loop
      vertex -0.0037415167 -0.0136 -0.0020158256
      vertex -0.0022588714 -0.01 -0.0036
      vertex -0.0022588714 -0.0136 -0.0036
    endloop
  endfacet
  facet normal 0.0 0.0 -1.0
    outer loop
      vertex -0.0022588714 -0.0136 -0.0036
      vertex -0.0022588714 -0.01 -0.0036
      vertex -0.0011328427 -0.0136 -0.0036
    endloop
  endfacet
  facet normal 0.0 0.0 -1.0
    outer loop
      vertex -0.0022588714 -0.01 -0.0036
      vertex -0.0011328427 -0.01 -0.0036
      vertex -0.0011328427 -0.0136 -0.0036
    endloop
  endfacet
  facet normal 0.5555687228003685 0.0 -0.8314706213967918
    outer loop
      vertex -9.914214E-4 -0.01 -0.0035414214
      vertex -9.914214E-4 -0.0136 -0.0035414214
      vertex -0.0010563061 -0.0136 -0.0035847758
    endloop
  endfacet
  facet normal 0.5555687228003685 0.0 -0.8314706213967918
    outer loop
      vertex -9.914214E-4 -0.01 -0.0035414214
      vertex -0.0010563061 -0.0136 -0.0035847758
      vertex -0.0010563061 -0.01 -0.0035847758
    endloop
  endfacet
  facet normal 0.1950918468833045 0.0 -0.9807849770870581
    outer loop
      vertex -0.0010563061 -0.0136 -0.0035847758
      vertex -0.0011328427 -0.0136 -0.0036
      vertex -0.0010563061 -0.01 -0.0035847758
    endloop
  endfacet
  facet normal 0.1950918468833045 0.0 -0.9807849770870581
    outer loop
      vertex -0.0010563061 -0.01 -0.0035847758
      vertex -0.0011328427 -0.0136 -0.0036
      vertex -0.0011328427 -0.01 -0.0036
    endloop
  endfacet
  facet normal -0.0 -0.0 -1.0
    outer loop
      vertex 0.0022588714 -0.01 -0.0036
      vertex 0.0022588714 -0.0136 -0.0036
      vertex 0.0011328427 -0.01 -0.0036
    endloop
  endfacet
  facet normal 0.0 0.0 -1.0
    outer loop
      vertex 0.0022588714 -0.0136 -0.0036
      vertex 0.0011328427 -0.0136 -0.0036
      vertex 0.0011328427 -0.01 -0.0036
    endloop
  endfacet
  facet normal -0.5555687228003685 0.0 -0.8314706213967918
    outer loop
      vertex 9.914214E-4 -0.0136 -0.0035414214
      vertex 9.914214E-4 -0.01 -0.0035414214
      vertex 0.0010563061 -0.01 -0.0035847758
    endloop
  endfacet
  facet normal -0.5555687228003685 0.0 -0.8314706213967918
    outer loop
      vertex 9.914214E-4 -0.0136 -0.0035414214
      vertex 0.0010563061 -0.01 -0.0035847758
      vertex 0.0010563061 -0.0136 -0.0035847758
    endloop
  endfacet
  facet normal -0.1950918468833045 -0.0 -0.9807849770870581
    outer loop
      vertex 0.0010563061 -0.01 -0.0035847758
      vertex 0.0011328427 -0.01 -0.0036
      vertex 0.0010563061 -0.0136 -0.0035847758
    endloop
  endfacet
  facet normal -0.1950918468833045 0.0 -0.9807849770870581
    outer loop
      vertex 0.0010563061 -0.0136 -0.0035847758
      vertex 0.0011328427 -0.01 -0.0036
      vertex 0.0011328427 -0.0136 -0.0036
    endloop
  endfacet
endsolid Connector_5521_DC00990B_5
