solid Connector_5521_DC00990B_4
  facet normal 1.0 0.0 4.1520238888888886E-16
    outer loop
      vertex 3.7964051E-19 -0.0163 -0.00124
      vertex 1.5543122E-19 -0.0163 -7.0E-4
      vertex 3.7964051E-19 -0.0193 -0.00124
    endloop
  endfacet
  facet normal 1.0 2.2686894666666644E-16 -8.451806481481482E-16
    outer loop
      vertex 1.5543122E-19 -0.0163 -7.0E-4
      vertex 8.3603806E-19 -0.0193 -7.0E-4
      vertex 3.7964051E-19 -0.0193 -0.00124
    endloop
  endfacet
  facet normal -0.24740408365948216 -0.0 -0.968912389944835
    outer loop
      vertex 3.7964051E-19 -0.0163 -0.00124
      vertex 3.7964051E-19 -0.0193 -0.00124
      vertex -5.9448765E-4 -0.0193 -0.0010882023
    endloop
  endfacet
  facet normal -0.24740408365948238 -3.021123373547823E-17 -0.9689123899448349
    outer loop
      vertex 3.7964051E-19 -0.0163 -0.00124
      vertex -5.9448765E-4 -0.0115 -0.0010882023
      vertex -2.0650148E-19 -0.0115 -0.00124
    endloop
  endfacet
  facet normal 0.01180036674534742 1.4409771764266169E-18 -0.9999303732483954
    outer loop
      vertex 3.7964051E-19 -0.0163 -0.00124
      vertex -2.0650148E-19 -0.0115 -0.00124
      vertex 2.9259765E-5 -0.0163 -0.0012396547
    endloop
  endfacet
  facet normal 0.6902244967641207 0.0 0.7235952902463616
    outer loop
      vertex 5.9448765E-4 -0.0115 0.0010882023
      vertex 0.0010589426 -0.0163 6.451671E-4
      vertex 0.0010589426 -0.0115 6.451671E-4
    endloop
  endfacet
  facet normal 0.9595496447376457 -0.0 0.28153948086166874
    outer loop
      vertex 0.0010589426 -0.0163 6.451671E-4
      vertex 0.0012396547 -0.0163 2.9259765E-5
      vertex 0.0010589426 -0.0115 6.451671E-4
    endloop
  endfacet
  facet normal 0.9595496447376457 0.0 0.28153948086166874
    outer loop
      vertex 0.0010589426 -0.0115 6.451671E-4
      vertex 0.0012396547 -0.0163 2.9259765E-5
      vertex 0.0012396547 -0.0115 2.9259765E-5
    endloop
  endfacet
  facet normal 0.9717641053929135 0.0 -0.23595449448974418
    outer loop
      vertex 0.0012396547 -0.0163 2.9259765E-5
      vertex 0.0010882023 -0.0163 -5.9448765E-4
      vertex 0.0012396547 -0.0115 2.9259765E-5
    endloop
  endfacet
  facet normal 0.9717641053929135 0.0 -0.23595449448974418
    outer loop
      vertex 0.0012396547 -0.0115 2.9259765E-5
      vertex 0.0010882023 -0.0163 -5.9448765E-4
      vertex 0.0010882023 -0.0115 -5.9448765E-4
    endloop
  endfacet
  facet normal 0.7235952902463616 0.0 -0.6902244967641207
    outer loop
      vertex 0.0010882023 -0.0163 -5.9448765E-4
      vertex 6.451671E-4 -0.0163 -0.0010589426
      vertex 0.0010882023 -0.0115 -5.9448765E-4
    endloop
  endfacet
  facet normal 0.7235952902463616 0.0 -0.6902244967641207
    outer loop
      vertex 0.0010882023 -0.0115 -5.9448765E-4
      vertex 6.451671E-4 -0.0163 -0.0010589426
      vertex 6.451671E-4 -0.0115 -0.0010589426
    endloop
  endfacet
  facet normal 0.28153948086166874 0.0 -0.9595496447376457
    outer loop
      vertex 6.451671E-4 -0.0163 -0.0010589426
      vertex 2.9259765E-5 -0.0163 -0.0012396547
      vertex 6.451671E-4 -0.0115 -0.0010589426
    endloop
  endfacet
  facet normal 0.28153948086166874 0.0 -0.9595496447376457
    outer loop
      vertex 6.451671E-4 -0.0115 -0.0010589426
      vertex 2.9259765E-5 -0.0163 -0.0012396547
      vertex 2.9259765E-5 -0.0115 -0.0012396547
    endloop
  endfacet
  facet normal 0.011800366745347185 0.0 -0.9999303732483954
    outer loop
      vertex 2.9259765E-5 -0.0163 -0.0012396547
      vertex -2.0650148E-19 -0.0115 -0.00124
      vertex 2.9259765E-5 -0.0115 -0.0012396547
    endloop
  endfacet
  facet normal -0.011800366745347481 8.649797011129317E-18 0.9999303732483953
    outer loop
      vertex -2.9259765E-5 -0.0193 0.0012396547
      vertex -5.3149673E-19 -0.0193 0.00124
      vertex 1.6711858E-18 -0.0163 0.00124
    endloop
  endfacet
  facet normal -0.2474040836594822 0.0 -0.9689123899448351
    outer loop
      vertex 3.7964051E-19 -0.0163 -0.00124
      vertex -5.9448765E-4 -0.0193 -0.0010882023
      vertex -5.9448765E-4 -0.0115 -0.0010882023
    endloop
  endfacet
  facet normal -0.6902244967641207 0.0 -0.7235952902463615
    outer loop
      vertex -5.9448765E-4 -0.0193 -0.0010882023
      vertex -0.0010589426 -0.0193 -6.451671E-4
      vertex -5.9448765E-4 -0.0115 -0.0010882023
    endloop
  endfacet
  facet normal -0.6902244967641207 0.0 -0.7235952902463615
    outer loop
      vertex -5.9448765E-4 -0.0115 -0.0010882023
      vertex -0.0010589426 -0.0193 -6.451671E-4
      vertex -0.0010589426 -0.0115 -6.451671E-4
    endloop
  endfacet
  facet normal -0.9595496447376457 0.0 -0.28153948086166874
    outer loop
      vertex -0.0010589426 -0.0193 -6.451671E-4
      vertex -0.0012396547 -0.0193 -2.9259765E-5
      vertex -0.0010589426 -0.0115 -6.451671E-4
    endloop
  endfacet
  facet normal -0.9595496447376457 0.0 -0.28153948086166874
    outer loop
      vertex -0.0010589426 -0.0115 -6.451671E-4
      vertex -0.0012396547 -0.0193 -2.9259765E-5
      vertex -0.0012396547 -0.0115 -2.9259765E-5
    endloop
  endfacet
  facet normal -0.9717641053929134 0.0 0.23595449448974412
    outer loop
      vertex -0.0012396547 -0.0193 -2.9259765E-5
      vertex -0.0010882023 -0.0193 5.9448765E-4
      vertex -0.0012396547 -0.0115 -2.9259765E-5
    endloop
  endfacet
  facet normal -0.9717641053929134 0.0 0.23595449448974412
    outer loop
      vertex -0.0012396547 -0.0115 -2.9259765E-5
      vertex -0.0010882023 -0.0193 5.9448765E-4
      vertex -0.0010882023 -0.0115 5.9448765E-4
    endloop
  endfacet
  facet normal -0.7235952902463615 0.0 0.6902244967641207
    outer loop
      vertex -0.0010882023 -0.0193 5.9448765E-4
      vertex -6.451671E-4 -0.0193 0.0010589426
      vertex -0.0010882023 -0.0115 5.9448765E-4
    endloop
  endfacet
  facet normal -0.7235952902463615 0.0 0.6902244967641207
    outer loop
      vertex -0.0010882023 -0.0115 5.9448765E-4
      vertex -6.451671E-4 -0.0193 0.0010589426
      vertex -6.451671E-4 -0.0115 0.0010589426
    endloop
  endfacet
  facet normal -0.28153948086166874 0.0 0.9595496447376457
    outer loop
      vertex -6.451671E-4 -0.0193 0.0010589426
      vertex -2.9259765E-5 -0.0193 0.0012396547
      vertex -6.451671E-4 -0.0115 0.0010589426
    endloop
  endfacet
  facet normal -0.28153948086166874 0.0 0.9595496447376457
    outer loop
      vertex -6.451671E-4 -0.0115 0.0010589426
      vertex -2.9259765E-5 -0.0193 0.0012396547
      vertex -2.9259765E-5 -0.0115 0.0012396547
    endloop
  endfacet
  facet normal -0.011800366745346595 0.0 0.9999303732483954
    outer loop
      vertex -2.9259765E-5 -0.0193 0.0012396547
      vertex 1.6711858E-18 -0.0163 0.00124
      vertex -2.9259765E-5 -0.0115 0.0012396547
    endloop
  endfacet
  facet normal 0.23595422611912267 0.001508232285613739 0.9717630001249784
    outer loop
      vertex -2.9259765E-5 -0.0115 0.0012396547
      vertex 1.6711858E-18 -0.0163 0.00124
      vertex 5.9448765E-4 -0.0115 0.0010882023
    endloop
  endfacet
  facet normal 0.24740408365948297 0.0 0.9689123899448348
    outer loop
      vertex 1.6711858E-18 -0.0163 0.00124
      vertex 5.9448765E-4 -0.0163 0.0010882023
      vertex 5.9448765E-4 -0.0115 0.0010882023
    endloop
  endfacet
  facet normal 0.6902244967641207 0.0 0.7235952902463616
    outer loop
      vertex 5.9448765E-4 -0.0115 0.0010882023
      vertex 5.9448765E-4 -0.0163 0.0010882023
      vertex 0.0010589426 -0.0163 6.451671E-4
    endloop
  endfacet
  facet normal 0.0 -1.0 0.0
    outer loop
      vertex 1.5543122E-19 -0.0163 -7.0E-4
      vertex 3.7964051E-19 -0.0163 -0.00124
      vertex 1.651761E-5 -0.0163 -6.998051E-4
    endloop
  endfacet
  facet normal 0.0 -1.0 0.0
    outer loop
      vertex 3.7964051E-19 -0.0163 -0.00124
      vertex 2.9259765E-5 -0.0163 -0.0012396547
      vertex 1.651761E-5 -0.0163 -6.998051E-4
    endloop
  endfacet
  facet normal 0.0 -1.0 0.0
    outer loop
      vertex 1.651761E-5 -0.0163 -6.998051E-4
      vertex 2.9259765E-5 -0.0163 -0.0012396547
      vertex 3.6420723E-4 -0.0163 -5.977902E-4
    endloop
  endfacet
  facet normal 0.0 -1.0 0.0
    outer loop
      vertex 2.9259765E-5 -0.0163 -0.0012396547
      vertex 6.451671E-4 -0.0163 -0.0010589426
      vertex 3.6420723E-4 -0.0163 -5.977902E-4
    endloop
  endfacet
  facet normal 0.0 -1.0 0.0
    outer loop
      vertex 3.6420723E-4 -0.0163 -5.977902E-4
      vertex 6.451671E-4 -0.0163 -0.0010589426
      vertex 6.143078E-4 -0.0163 -3.3559787E-4
    endloop
  endfacet
  facet normal 0.0 -1.0 0.0
    outer loop
      vertex 6.451671E-4 -0.0163 -0.0010589426
      vertex 0.0010882023 -0.0163 -5.9448765E-4
      vertex 6.143078E-4 -0.0163 -3.3559787E-4
    endloop
  endfacet
  facet normal 0.0 -1.0 0.0
    outer loop
      vertex 6.143078E-4 -0.0163 -3.3559787E-4
      vertex 0.0010882023 -0.0163 -5.9448765E-4
      vertex 6.998051E-4 -0.0163 1.651761E-5
    endloop
  endfacet
  facet normal 0.0 -1.0 0.0
    outer loop
      vertex 0.0010882023 -0.0163 -5.9448765E-4
      vertex 0.0012396547 -0.0163 2.9259765E-5
      vertex 6.998051E-4 -0.0163 1.651761E-5
    endloop
  endfacet
  facet normal 0.0 -1.0 0.0
    outer loop
      vertex 6.998051E-4 -0.0163 1.651761E-5
      vertex 0.0012396547 -0.0163 2.9259765E-5
      vertex 5.977902E-4 -0.0163 3.6420723E-4
    endloop
  endfacet
  facet normal 0.0 -1.0 0.0
    outer loop
      vertex 0.0012396547 -0.0163 2.9259765E-5
      vertex 0.0010589426 -0.0163 6.451671E-4
      vertex 5.977902E-4 -0.0163 3.6420723E-4
    endloop
  endfacet
  facet normal 0.0 -1.0 0.0
    outer loop
      vertex 5.977902E-4 -0.0163 3.6420723E-4
      vertex 0.0010589426 -0.0163 6.451671E-4
      vertex 3.3559787E-4 -0.0163 6.143078E-4
    endloop
  endfacet
  facet normal -0.0 -1.0 0.0
    outer loop
      vertex 0.0010589426 -0.0163 6.451671E-4
      vertex 5.9448765E-4 -0.0163 0.0010882023
      vertex 3.3559787E-4 -0.0163 6.143078E-4
    endloop
  endfacet
  facet normal 0.0 -1.0 0.0
    outer loop
      vertex 3.3559787E-4 -0.0163 6.143078E-4
      vertex 5.9448765E-4 -0.0163 0.0010882023
      vertex 0.0 -0.0163 7.0E-4
    endloop
  endfacet
  facet normal -0.0 -1.0 0.0
    outer loop
      vertex 5.9448765E-4 -0.0163 0.0010882023
      vertex 1.6711858E-18 -0.0163 0.00124
      vertex 0.0 -0.0163 7.0E-4
    endloop
  endfacet
  facet normal 1.0 -7.342275099999993E-16 4.286264074074075E-16
    outer loop
      vertex -5.3149673E-19 -0.0193 0.00124
      vertex -3.0003847E-19 -0.0193 7.0E-4
      vertex 1.6711858E-18 -0.0163 0.00124
    endloop
  endfacet
  facet normal 1.0 -1.0001282333333324E-16 -3.0947885185185182E-15
    outer loop
      vertex -3.0003847E-19 -0.0193 7.0E-4
      vertex 0.0 -0.0163 7.0E-4
      vertex 1.6711858E-18 -0.0163 0.00124
    endloop
  endfacet
  facet normal 0.2564944834019467 0.9636113739630455 0.07525755745053032
    outer loop
      vertex 5.87127E-20 -4.0E-4 6.021561E-19
      vertex 4.2699298E-4 -5.339746E-4 2.6014802E-4
      vertex 4.998608E-4 -5.339746E-4 1.1798293E-5
    endloop
  endfacet
  facet normal 0.18450198786983815 0.9636113740911025 0.19342217089655286
    outer loop
      vertex 2.3971277E-4 -5.339746E-4 4.387913E-4
      vertex 4.2699298E-4 -5.339746E-4 2.6014802E-4
      vertex 5.87127E-20 -4.0E-4 6.021561E-19
    endloop
  endfacet
  facet normal 0.07525755745053035 0.9636113739630459 -0.2564944834019463
    outer loop
      vertex 5.87127E-20 -4.0E-4 6.021561E-19
      vertex 2.6014802E-4 -5.339746E-4 -4.2699298E-4
      vertex 1.1798293E-5 -5.339746E-4 -4.998608E-4
    endloop
  endfacet
  facet normal 0.1934221708965526 0.9636113740911028 -0.1845019878698379
    outer loop
      vertex 4.387913E-4 -5.339746E-4 -2.3971277E-4
      vertex 2.6014802E-4 -5.339746E-4 -4.2699298E-4
      vertex 5.87127E-20 -4.0E-4 6.021561E-19
    endloop
  endfacet
  facet normal 0.2597595054044356 0.9636113756974848 -0.06307230754019033
    outer loop
      vertex 4.998608E-4 -5.339746E-4 1.1798293E-5
      vertex 4.387913E-4 -5.339746E-4 -2.3971277E-4
      vertex 5.87127E-20 -4.0E-4 6.021561E-19
    endloop
  endfacet
  facet normal -0.2564944834019464 0.9636113739630459 -0.07525755745053035
    outer loop
      vertex 5.87127E-20 -4.0E-4 6.021561E-19
      vertex -4.2699298E-4 -5.339746E-4 -2.6014802E-4
      vertex -4.998608E-4 -5.339746E-4 -1.1798293E-5
    endloop
  endfacet
  facet normal -0.18450198786983785 0.9636113740911028 -0.19342217089655256
    outer loop
      vertex -2.3971277E-4 -5.339746E-4 -4.387913E-4
      vertex -4.2699298E-4 -5.339746E-4 -2.6014802E-4
      vertex 5.87127E-20 -4.0E-4 6.021561E-19
    endloop
  endfacet
  facet normal -0.06307230754019025 0.9636113756974849 -0.25975950540443526
    outer loop
      vertex 1.1798293E-5 -5.339746E-4 -4.998608E-4
      vertex -2.3971277E-4 -5.339746E-4 -4.387913E-4
      vertex 5.87127E-20 -4.0E-4 6.021561E-19
    endloop
  endfacet
  facet normal -0.07525755745053042 0.9636113739630455 0.25649448340194686
    outer loop
      vertex 5.87127E-20 -4.0E-4 6.021561E-19
      vertex -2.6014802E-4 -5.339746E-4 4.2699298E-4
      vertex -1.1798293E-5 -5.339746E-4 4.998608E-4
    endloop
  endfacet
  facet normal -0.1934221708965528 0.9636113740911025 0.18450198786983812
    outer loop
      vertex -4.387913E-4 -5.339746E-4 2.3971277E-4
      vertex -2.6014802E-4 -5.339746E-4 4.2699298E-4
      vertex 5.87127E-20 -4.0E-4 6.021561E-19
    endloop
  endfacet
  facet normal -0.2597595054044356 0.9636113756974848 0.06307230754019033
    outer loop
      vertex -4.998608E-4 -5.339746E-4 -1.1798293E-5
      vertex -4.387913E-4 -5.339746E-4 2.3971277E-4
      vertex 5.87127E-20 -4.0E-4 6.021561E-19
    endloop
  endfacet
  facet normal 0.06307230754019039 0.9636113756974843 0.2597595054044358
    outer loop
      vertex -1.1798293E-5 -5.339746E-4 4.998608E-4
      vertex 2.3971277E-4 -5.339746E-4 4.387913E-4
      vertex 5.87127E-20 -4.0E-4 6.021561E-19
    endloop
  endfacet
  facet normal 0.49644722381155293 0.6947466107371059 0.5204491337672742
    outer loop
      vertex 2.3971277E-4 -5.339746E-4 4.387913E-4
      vertex 7.3957356E-4 -9.0E-4 4.5058958E-4
      vertex 4.2699298E-4 -5.339746E-4 2.6014802E-4
    endloop
  endfacet
  facet normal 0.690160488440695 0.6947466029474689 0.20249853799040898
    outer loop
      vertex 7.3957356E-4 -9.0E-4 4.5058958E-4
      vertex 8.6578424E-4 -9.0E-4 2.0435242E-5
      vertex 4.2699298E-4 -5.339746E-4 2.6014802E-4
    endloop
  endfacet
  facet normal 0.6901605120277733 0.6947465380472938 0.2024986802644951
    outer loop
      vertex 4.2699298E-4 -5.339746E-4 2.6014802E-4
      vertex 8.6578424E-4 -9.0E-4 2.0435242E-5
      vertex 4.998608E-4 -5.339746E-4 1.1798293E-5
    endloop
  endfacet
  facet normal 0.6989458588195389 0.6947465546038748 -0.16971125862788972
    outer loop
      vertex 8.6578424E-4 -9.0E-4 2.0435242E-5
      vertex 7.600088E-4 -9.0E-4 -4.151947E-4
      vertex 4.998608E-4 -5.339746E-4 1.1798293E-5
    endloop
  endfacet
  facet normal 0.6989458177849656 0.6947465836889919 -0.1697113085606853
    outer loop
      vertex 4.998608E-4 -5.339746E-4 1.1798293E-5
      vertex 7.600088E-4 -9.0E-4 -4.151947E-4
      vertex 4.387913E-4 -5.339746E-4 -2.3971277E-4
    endloop
  endfacet
  facet normal 0.5204491789609468 0.6947465890116572 -0.4964472068362796
    outer loop
      vertex 7.600088E-4 -9.0E-4 -4.151947E-4
      vertex 4.5058958E-4 -9.0E-4 -7.3957356E-4
      vertex 4.387913E-4 -5.339746E-4 -2.3971277E-4
    endloop
  endfacet
  facet normal 0.5204491337672742 0.6947466107371059 -0.49644722381155293
    outer loop
      vertex 4.387913E-4 -5.339746E-4 -2.3971277E-4
      vertex 4.5058958E-4 -9.0E-4 -7.3957356E-4
      vertex 2.6014802E-4 -5.339746E-4 -4.2699298E-4
    endloop
  endfacet
  facet normal 0.20249853799040898 0.6947466029474689 -0.690160488440695
    outer loop
      vertex 4.5058958E-4 -9.0E-4 -7.3957356E-4
      vertex 2.0435242E-5 -9.0E-4 -8.6578424E-4
      vertex 2.6014802E-4 -5.339746E-4 -4.2699298E-4
    endloop
  endfacet
  facet normal 0.2024986802644951 0.6947465380472938 -0.6901605120277733
    outer loop
      vertex 2.6014802E-4 -5.339746E-4 -4.2699298E-4
      vertex 2.0435242E-5 -9.0E-4 -8.6578424E-4
      vertex 1.1798293E-5 -5.339746E-4 -4.998608E-4
    endloop
  endfacet
  facet normal -0.16971125862788972 0.6947465546038748 -0.6989458588195389
    outer loop
      vertex 2.0435242E-5 -9.0E-4 -8.6578424E-4
      vertex -4.151947E-4 -9.0E-4 -7.600088E-4
      vertex 1.1798293E-5 -5.339746E-4 -4.998608E-4
    endloop
  endfacet
  facet normal -0.16971130856068536 0.694746583688992 -0.6989458177849657
    outer loop
      vertex 1.1798293E-5 -5.339746E-4 -4.998608E-4
      vertex -4.151947E-4 -9.0E-4 -7.600088E-4
      vertex -2.3971277E-4 -5.339746E-4 -4.387913E-4
    endloop
  endfacet
  facet normal -0.4964472068362796 0.6947465890116572 -0.5204491789609468
    outer loop
      vertex -4.151947E-4 -9.0E-4 -7.600088E-4
      vertex -7.3957356E-4 -9.0E-4 -4.5058958E-4
      vertex -2.3971277E-4 -5.339746E-4 -4.387913E-4
    endloop
  endfacet
  facet normal -0.49644722381155293 0.6947466107371059 -0.5204491337672742
    outer loop
      vertex -2.3971277E-4 -5.339746E-4 -4.387913E-4
      vertex -7.3957356E-4 -9.0E-4 -4.5058958E-4
      vertex -4.2699298E-4 -5.339746E-4 -2.6014802E-4
    endloop
  endfacet
  facet normal -0.690160488440695 0.6947466029474689 -0.20249853799040898
    outer loop
      vertex -7.3957356E-4 -9.0E-4 -4.5058958E-4
      vertex -8.6578424E-4 -9.0E-4 -2.0435242E-5
      vertex -4.2699298E-4 -5.339746E-4 -2.6014802E-4
    endloop
  endfacet
  facet normal -0.6901605120277733 0.6947465380472938 -0.2024986802644951
    outer loop
      vertex -4.2699298E-4 -5.339746E-4 -2.6014802E-4
      vertex -8.6578424E-4 -9.0E-4 -2.0435242E-5
      vertex -4.998608E-4 -5.339746E-4 -1.1798293E-5
    endloop
  endfacet
  facet normal -0.6989458588195389 0.6947465546038748 0.16971125862788972
    outer loop
      vertex -8.6578424E-4 -9.0E-4 -2.0435242E-5
      vertex -7.600088E-4 -9.0E-4 4.151947E-4
      vertex -4.998608E-4 -5.339746E-4 -1.1798293E-5
    endloop
  endfacet
  facet normal -0.6989458177849656 0.6947465836889919 0.1697113085606853
    outer loop
      vertex -4.998608E-4 -5.339746E-4 -1.1798293E-5
      vertex -7.600088E-4 -9.0E-4 4.151947E-4
      vertex -4.387913E-4 -5.339746E-4 2.3971277E-4
    endloop
  endfacet
  facet normal -0.5204491789609468 0.6947465890116572 0.4964472068362796
    outer loop
      vertex -7.600088E-4 -9.0E-4 4.151947E-4
      vertex -4.5058958E-4 -9.0E-4 7.3957356E-4
      vertex -4.387913E-4 -5.339746E-4 2.3971277E-4
    endloop
  endfacet
  facet normal -0.5204491337672742 0.6947466107371059 0.49644722381155293
    outer loop
      vertex -4.387913E-4 -5.339746E-4 2.3971277E-4
      vertex -4.5058958E-4 -9.0E-4 7.3957356E-4
      vertex -2.6014802E-4 -5.339746E-4 4.2699298E-4
    endloop
  endfacet
  facet normal -0.20249853799040898 0.6947466029474689 0.690160488440695
    outer loop
      vertex -4.5058958E-4 -9.0E-4 7.3957356E-4
      vertex -2.0435242E-5 -9.0E-4 8.6578424E-4
      vertex -2.6014802E-4 -5.339746E-4 4.2699298E-4
    endloop
  endfacet
  facet normal -0.2024986802644951 0.6947465380472938 0.6901605120277733
    outer loop
      vertex -2.6014802E-4 -5.339746E-4 4.2699298E-4
      vertex -2.0435242E-5 -9.0E-4 8.6578424E-4
      vertex -1.1798293E-5 -5.339746E-4 4.998608E-4
    endloop
  endfacet
  facet normal 0.16971125862788972 0.6947465546038748 0.6989458588195389
    outer loop
      vertex -2.0435242E-5 -9.0E-4 8.6578424E-4
      vertex 4.151947E-4 -9.0E-4 7.600088E-4
      vertex -1.1798293E-5 -5.339746E-4 4.998608E-4
    endloop
  endfacet
  facet normal 0.16971130856068536 0.694746583688992 0.6989458177849657
    outer loop
      vertex -1.1798293E-5 -5.339746E-4 4.998608E-4
      vertex 4.151947E-4 -9.0E-4 7.600088E-4
      vertex 2.3971277E-4 -5.339746E-4 4.387913E-4
    endloop
  endfacet
  facet normal 0.4964472068362796 0.6947465890116572 0.5204491789609468
    outer loop
      vertex 4.151947E-4 -9.0E-4 7.600088E-4
      vertex 7.3957356E-4 -9.0E-4 4.5058958E-4
      vertex 2.3971277E-4 -5.339746E-4 4.387913E-4
    endloop
  endfacet
  facet normal -0.23946523294035973 0.25128873267251983 -0.9378221446759818
    outer loop
      vertex -8.3266725E-19 -0.0014 -0.001
      vertex -4.7942554E-4 -0.0014 -8.775826E-4
      vertex -4.151947E-4 -9.0E-4 -7.600088E-4
    endloop
  endfacet
  facet normal -0.6682066863202581 0.2505628410976917 -0.7005127315173888
    outer loop
      vertex -4.7942554E-4 -0.0014 -8.775826E-4
      vertex -8.5398596E-4 -0.0014 -5.2029605E-4
      vertex -4.151947E-4 -9.0E-4 -7.600088E-4
    endloop
  endfacet
  facet normal -0.6682066610437517 0.2505628003724346 -0.700512770195008
    outer loop
      vertex -4.151947E-4 -9.0E-4 -7.600088E-4
      vertex -8.5398596E-4 -0.0014 -5.2029605E-4
      vertex -7.3957356E-4 -9.0E-4 -4.5058958E-4
    endloop
  endfacet
  facet normal -0.9289403124883389 0.2505627770105938 -0.27255860032441975
    outer loop
      vertex -8.5398596E-4 -0.0014 -5.2029605E-4
      vertex -9.997216E-4 -0.0014 -2.3596585E-5
      vertex -7.3957356E-4 -9.0E-4 -4.5058958E-4
    endloop
  endfacet
  facet normal -0.9289403220739818 0.25056293002279206 -0.2725584269903985
    outer loop
      vertex -7.3957356E-4 -9.0E-4 -4.5058958E-4
      vertex -9.997216E-4 -0.0014 -2.3596585E-5
      vertex -8.6578424E-4 -9.0E-4 -2.0435242E-5
    endloop
  endfacet
  facet normal -0.9407651521539081 0.25056292600498936 0.22842755657899982
    outer loop
      vertex -9.997216E-4 -0.0014 -2.3596585E-5
      vertex -8.775826E-4 -0.0014 4.7942554E-4
      vertex -8.6578424E-4 -9.0E-4 -2.0435242E-5
    endloop
  endfacet
  facet normal -0.9407651886816433 0.2505628546830208 0.22842748437499233
    outer loop
      vertex -8.6578424E-4 -9.0E-4 -2.0435242E-5
      vertex -8.775826E-4 -0.0014 4.7942554E-4
      vertex -7.600088E-4 -9.0E-4 4.151947E-4
    endloop
  endfacet
  facet normal -0.7005127315173887 0.25056284109769167 0.668206686320258
    outer loop
      vertex -8.775826E-4 -0.0014 4.7942554E-4
      vertex -5.2029605E-4 -0.0014 8.5398596E-4
      vertex -7.600088E-4 -9.0E-4 4.151947E-4
    endloop
  endfacet
  facet normal -0.7005127701950081 0.25056280037243467 0.6682066610437518
    outer loop
      vertex -7.600088E-4 -9.0E-4 4.151947E-4
      vertex -5.2029605E-4 -0.0014 8.5398596E-4
      vertex -4.5058958E-4 -9.0E-4 7.3957356E-4
    endloop
  endfacet
  facet normal -0.27255860032441975 0.2505627770105938 0.9289403124883389
    outer loop
      vertex -5.2029605E-4 -0.0014 8.5398596E-4
      vertex -2.3596585E-5 -0.0014 9.997216E-4
      vertex -4.5058958E-4 -9.0E-4 7.3957356E-4
    endloop
  endfacet
  facet normal -0.2725584269903985 0.25056293002279206 0.9289403220739818
    outer loop
      vertex -4.5058958E-4 -9.0E-4 7.3957356E-4
      vertex -2.3596585E-5 -0.0014 9.997216E-4
      vertex -2.0435242E-5 -9.0E-4 8.6578424E-4
    endloop
  endfacet
  facet normal 0.22842755657899982 0.25056292600498936 0.9407651521539081
    outer loop
      vertex -2.3596585E-5 -0.0014 9.997216E-4
      vertex 4.7942554E-4 -0.0014 8.775826E-4
      vertex -2.0435242E-5 -9.0E-4 8.6578424E-4
    endloop
  endfacet
  facet normal 0.22842748437499236 0.2505628546830208 0.9407651886816434
    outer loop
      vertex -2.0435242E-5 -9.0E-4 8.6578424E-4
      vertex 4.7942554E-4 -0.0014 8.775826E-4
      vertex 4.151947E-4 -9.0E-4 7.600088E-4
    endloop
  endfacet
  facet normal 0.6682066863202581 0.2505628410976917 0.7005127315173888
    outer loop
      vertex 4.7942554E-4 -0.0014 8.775826E-4
      vertex 8.5398596E-4 -0.0014 5.2029605E-4
      vertex 4.151947E-4 -9.0E-4 7.600088E-4
    endloop
  endfacet
  facet normal 0.6682066610437517 0.2505628003724346 0.700512770195008
    outer loop
      vertex 4.151947E-4 -9.0E-4 7.600088E-4
      vertex 8.5398596E-4 -0.0014 5.2029605E-4
      vertex 7.3957356E-4 -9.0E-4 4.5058958E-4
    endloop
  endfacet
  facet normal 0.9289403124883389 0.2505627770105938 0.27255860032441975
    outer loop
      vertex 8.5398596E-4 -0.0014 5.2029605E-4
      vertex 9.997216E-4 -0.0014 2.3596585E-5
      vertex 7.3957356E-4 -9.0E-4 4.5058958E-4
    endloop
  endfacet
  facet normal 0.9289403220739818 0.25056293002279206 0.2725584269903985
    outer loop
      vertex 7.3957356E-4 -9.0E-4 4.5058958E-4
      vertex 9.997216E-4 -0.0014 2.3596585E-5
      vertex 8.6578424E-4 -9.0E-4 2.0435242E-5
    endloop
  endfacet
  facet normal 0.9407651521539081 0.25056292600498936 -0.22842755657899982
    outer loop
      vertex 9.997216E-4 -0.0014 2.3596585E-5
      vertex 8.775826E-4 -0.0014 -4.7942554E-4
      vertex 8.6578424E-4 -9.0E-4 2.0435242E-5
    endloop
  endfacet
  facet normal 0.9407651886816433 0.2505628546830208 -0.22842748437499233
    outer loop
      vertex 8.6578424E-4 -9.0E-4 2.0435242E-5
      vertex 8.775826E-4 -0.0014 -4.7942554E-4
      vertex 7.600088E-4 -9.0E-4 -4.151947E-4
    endloop
  endfacet
  facet normal 0.7005127315173887 0.25056284109769167 -0.668206686320258
    outer loop
      vertex 8.775826E-4 -0.0014 -4.7942554E-4
      vertex 5.2029605E-4 -0.0014 -8.5398596E-4
      vertex 7.600088E-4 -9.0E-4 -4.151947E-4
    endloop
  endfacet
  facet normal 0.7005127701950081 0.25056280037243467 -0.6682066610437518
    outer loop
      vertex 7.600088E-4 -9.0E-4 -4.151947E-4
      vertex 5.2029605E-4 -0.0014 -8.5398596E-4
      vertex 4.5058958E-4 -9.0E-4 -7.3957356E-4
    endloop
  endfacet
  facet normal 0.27255860032441975 0.2505627770105938 -0.9289403124883389
    outer loop
      vertex 5.2029605E-4 -0.0014 -8.5398596E-4
      vertex 2.3596585E-5 -0.0014 -9.997216E-4
      vertex 4.5058958E-4 -9.0E-4 -7.3957356E-4
    endloop
  endfacet
  facet normal 0.2725584269903985 0.25056293002279206 -0.9289403220739818
    outer loop
      vertex 4.5058958E-4 -9.0E-4 -7.3957356E-4
      vertex 2.3596585E-5 -0.0014 -9.997216E-4
      vertex 2.0435242E-5 -9.0E-4 -8.6578424E-4
    endloop
  endfacet
  facet normal 0.011395559174764609 0.2588023519032732 -0.9658630771907728
    outer loop
      vertex 2.3596585E-5 -0.0014 -9.997216E-4
      vertex -8.3266725E-19 -0.0014 -0.001
      vertex 2.0435242E-5 -9.0E-4 -8.6578424E-4
    endloop
  endfacet
  facet normal -0.22776875409734681 0.2611118096389963 -0.9380522466920438
    outer loop
      vertex 2.0435242E-5 -9.0E-4 -8.6578424E-4
      vertex -8.3266725E-19 -0.0014 -0.001
      vertex -4.151947E-4 -9.0E-4 -7.600088E-4
    endloop
  endfacet
  facet normal 0.011797496347107372 0.0 -0.9999304071183854
    outer loop
      vertex 2.3596585E-5 -0.0105 -9.997216E-4
      vertex -8.3266725E-19 -0.0105 -0.001
      vertex -8.3266725E-19 -0.0014 -0.001
    endloop
  endfacet
  facet normal -0.2474038862735225 -0.0 -0.9689124403457507
    outer loop
      vertex -8.3266725E-19 -0.0014 -0.001
      vertex -8.3266725E-19 -0.0105 -0.001
      vertex -4.7942554E-4 -0.0014 -8.775826E-4
    endloop
  endfacet
  facet normal -0.2474038862735225 0.0 -0.9689124403457507
    outer loop
      vertex -8.3266725E-19 -0.0105 -0.001
      vertex -4.7942554E-4 -0.0105 -8.775826E-4
      vertex -4.7942554E-4 -0.0014 -8.775826E-4
    endloop
  endfacet
  facet normal -0.6902246190031766 0.0 -0.7235951736447112
    outer loop
      vertex -4.7942554E-4 -0.0105 -8.775826E-4
      vertex -8.5398596E-4 -0.0105 -5.2029605E-4
      vertex -4.7942554E-4 -0.0014 -8.775826E-4
    endloop
  endfacet
  facet normal -0.6902246190031766 0.0 -0.7235951736447112
    outer loop
      vertex -4.7942554E-4 -0.0014 -8.775826E-4
      vertex -8.5398596E-4 -0.0105 -5.2029605E-4
      vertex -8.5398596E-4 -0.0014 -5.2029605E-4
    endloop
  endfacet
  facet normal -0.9595496055408047 0.0 -0.28153961445325254
    outer loop
      vertex -8.5398596E-4 -0.0105 -5.2029605E-4
      vertex -9.997216E-4 -0.0105 -2.3596585E-5
      vertex -8.5398596E-4 -0.0014 -5.2029605E-4
    endloop
  endfacet
  facet normal -0.9595496055408047 0.0 -0.28153961445325254
    outer loop
      vertex -8.5398596E-4 -0.0014 -5.2029605E-4
      vertex -9.997216E-4 -0.0105 -2.3596585E-5
      vertex -9.997216E-4 -0.0014 -2.3596585E-5
    endloop
  endfacet
  facet normal -0.9717641214166465 0.0 0.23595442849697285
    outer loop
      vertex -9.997216E-4 -0.0105 -2.3596585E-5
      vertex -8.775826E-4 -0.0105 4.7942554E-4
      vertex -9.997216E-4 -0.0014 -2.3596585E-5
    endloop
  endfacet
  facet normal -0.9717641214166465 0.0 0.23595442849697285
    outer loop
      vertex -9.997216E-4 -0.0014 -2.3596585E-5
      vertex -8.775826E-4 -0.0105 4.7942554E-4
      vertex -8.775826E-4 -0.0014 4.7942554E-4
    endloop
  endfacet
  facet normal -0.7235951736447112 0.0 0.6902246190031766
    outer loop
      vertex -8.775826E-4 -0.0105 4.7942554E-4
      vertex -5.2029605E-4 -0.0105 8.5398596E-4
      vertex -8.775826E-4 -0.0014 4.7942554E-4
    endloop
  endfacet
  facet normal -0.7235951736447112 0.0 0.6902246190031766
    outer loop
      vertex -8.775826E-4 -0.0014 4.7942554E-4
      vertex -5.2029605E-4 -0.0105 8.5398596E-4
      vertex -5.2029605E-4 -0.0014 8.5398596E-4
    endloop
  endfacet
  facet normal -0.28153961445325254 0.0 0.9595496055408047
    outer loop
      vertex -5.2029605E-4 -0.0105 8.5398596E-4
      vertex -2.3596585E-5 -0.0105 9.997216E-4
      vertex -5.2029605E-4 -0.0014 8.5398596E-4
    endloop
  endfacet
  facet normal -0.28153961445325254 0.0 0.9595496055408047
    outer loop
      vertex -5.2029605E-4 -0.0014 8.5398596E-4
      vertex -2.3596585E-5 -0.0105 9.997216E-4
      vertex -2.3596585E-5 -0.0014 9.997216E-4
    endloop
  endfacet
  facet normal 0.23595442849697285 -0.0 0.9717641214166465
    outer loop
      vertex -2.3596585E-5 -0.0105 9.997216E-4
      vertex 4.7942554E-4 -0.0105 8.775826E-4
      vertex -2.3596585E-5 -0.0014 9.997216E-4
    endloop
  endfacet
  facet normal 0.23595442849697285 0.0 0.9717641214166465
    outer loop
      vertex -2.3596585E-5 -0.0014 9.997216E-4
      vertex 4.7942554E-4 -0.0105 8.775826E-4
      vertex 4.7942554E-4 -0.0014 8.775826E-4
    endloop
  endfacet
  facet normal 0.6902246190031766 -0.0 0.7235951736447112
    outer loop
      vertex 4.7942554E-4 -0.0105 8.775826E-4
      vertex 8.5398596E-4 -0.0105 5.2029605E-4
      vertex 4.7942554E-4 -0.0014 8.775826E-4
    endloop
  endfacet
  facet normal 0.6902246190031766 0.0 0.7235951736447112
    outer loop
      vertex 4.7942554E-4 -0.0014 8.775826E-4
      vertex 8.5398596E-4 -0.0105 5.2029605E-4
      vertex 8.5398596E-4 -0.0014 5.2029605E-4
    endloop
  endfacet
  facet normal 0.9595496055408047 -0.0 0.28153961445325254
    outer loop
      vertex 8.5398596E-4 -0.0105 5.2029605E-4
      vertex 9.997216E-4 -0.0105 2.3596585E-5
      vertex 8.5398596E-4 -0.0014 5.2029605E-4
    endloop
  endfacet
  facet normal 0.9595496055408047 0.0 0.28153961445325254
    outer loop
      vertex 8.5398596E-4 -0.0014 5.2029605E-4
      vertex 9.997216E-4 -0.0105 2.3596585E-5
      vertex 9.997216E-4 -0.0014 2.3596585E-5
    endloop
  endfacet
  facet normal 0.9717641214166465 0.0 -0.23595442849697285
    outer loop
      vertex 9.997216E-4 -0.0105 2.3596585E-5
      vertex 8.775826E-4 -0.0105 -4.7942554E-4
      vertex 9.997216E-4 -0.0014 2.3596585E-5
    endloop
  endfacet
  facet normal 0.9717641214166465 0.0 -0.23595442849697285
    outer loop
      vertex 9.997216E-4 -0.0014 2.3596585E-5
      vertex 8.775826E-4 -0.0105 -4.7942554E-4
      vertex 8.775826E-4 -0.0014 -4.7942554E-4
    endloop
  endfacet
  facet normal 0.7235951736447112 0.0 -0.6902246190031766
    outer loop
      vertex 8.775826E-4 -0.0105 -4.7942554E-4
      vertex 5.2029605E-4 -0.0105 -8.5398596E-4
      vertex 8.775826E-4 -0.0014 -4.7942554E-4
    endloop
  endfacet
  facet normal 0.7235951736447112 0.0 -0.6902246190031766
    outer loop
      vertex 8.775826E-4 -0.0014 -4.7942554E-4
      vertex 5.2029605E-4 -0.0105 -8.5398596E-4
      vertex 5.2029605E-4 -0.0014 -8.5398596E-4
    endloop
  endfacet
  facet normal 0.28153961445325254 0.0 -0.9595496055408047
    outer loop
      vertex 5.2029605E-4 -0.0105 -8.5398596E-4
      vertex 2.3596585E-5 -0.0105 -9.997216E-4
      vertex 5.2029605E-4 -0.0014 -8.5398596E-4
    endloop
  endfacet
  facet normal 0.28153961445325254 0.0 -0.9595496055408047
    outer loop
      vertex 5.2029605E-4 -0.0014 -8.5398596E-4
      vertex 2.3596585E-5 -0.0105 -9.997216E-4
      vertex 2.3596585E-5 -0.0014 -9.997216E-4
    endloop
  endfacet
  facet normal 0.011797496347107372 0.0 -0.9999304071183854
    outer loop
      vertex 2.3596585E-5 -0.0105 -9.997216E-4
      vertex -8.3266725E-19 -0.0014 -0.001
      vertex 2.3596585E-5 -0.0014 -9.997216E-4
    endloop
  endfacet
  facet normal -0.2207176112159814 0.4517702646827172 -0.864400002341288
    outer loop
      vertex -7.191383E-4 -0.0105 -0.0013163738
      vertex -2.4980017E-19 -0.0105 -0.0015
      vertex 3.9566716E-5 -0.010818055 -0.0016763314
    endloop
  endfacet
  facet normal -0.20788350474214662 0.473055309991923 -0.8561560150723508
    outer loop
      vertex 3.9566716E-5 -0.010818055 -0.0016763314
      vertex -8.0389995E-4 -0.010818055 -0.001471529
      vertex -7.191383E-4 -0.0105 -0.0013163738
    endloop
  endfacet
  facet normal -0.608110512870857 0.4730552889154345 -0.6375110177597543
    outer loop
      vertex -8.0389995E-4 -0.010818055 -0.001471529
      vertex -0.0014319622 -0.010818055 -8.724315E-4
      vertex -7.191383E-4 -0.0105 -0.0013163738
    endloop
  endfacet
  facet normal -0.6081105150417508 0.4730550718746405 -0.6375111767407183
    outer loop
      vertex -7.191383E-4 -0.0105 -0.0013163738
      vertex -0.0014319622 -0.010818055 -8.724315E-4
      vertex -0.001280979 -0.0105 -7.80444E-4
    endloop
  endfacet
  facet normal -0.8453947905456342 0.47305499289655567 -0.24804560430280378
    outer loop
      vertex -0.0014319622 -0.010818055 -8.724315E-4
      vertex -0.0016763314 -0.010818055 -3.9566716E-5
      vertex -0.001280979 -0.0105 -7.80444E-4
    endloop
  endfacet
  facet normal -0.8453947239965329 0.47305517040398765 -0.248045492587308
    outer loop
      vertex -0.001280979 -0.0105 -7.80444E-4
      vertex -0.0016763314 -0.010818055 -3.9566716E-5
      vertex -0.0014995823 -0.0105 -3.5394878E-5
    endloop
  endfacet
  facet normal -0.8561560886751398 0.47305516892876354 0.2078835226136624
    outer loop
      vertex -0.0016763314 -0.010818055 -3.9566716E-5
      vertex -0.001471529 -0.010818055 8.0389995E-4
      vertex -0.0014995823 -0.0105 -3.5394878E-5
    endloop
  endfacet
  facet normal -0.8561559931699714 0.4730553183051666 0.20788357602835683
    outer loop
      vertex -0.0014995823 -0.0105 -3.5394878E-5
      vertex -0.001471529 -0.010818055 8.0389995E-4
      vertex -0.0013163738 -0.0105 7.191383E-4
    endloop
  endfacet
  facet normal -0.6375110177597544 0.47305528891543464 0.6081105128708572
    outer loop
      vertex -0.001471529 -0.010818055 8.0389995E-4
      vertex -8.724315E-4 -0.010818055 0.0014319622
      vertex -0.0013163738 -0.0105 7.191383E-4
    endloop
  endfacet
  facet normal -0.6375111767407183 0.4730550718746405 0.6081105150417508
    outer loop
      vertex -0.0013163738 -0.0105 7.191383E-4
      vertex -8.724315E-4 -0.010818055 0.0014319622
      vertex -7.80444E-4 -0.0105 0.001280979
    endloop
  endfacet
  facet normal -0.24804560430280378 0.47305499289655567 0.8453947905456342
    outer loop
      vertex -8.724315E-4 -0.010818055 0.0014319622
      vertex -3.9566716E-5 -0.010818055 0.0016763314
      vertex -7.80444E-4 -0.0105 0.001280979
    endloop
  endfacet
  facet normal -0.248045492587308 0.47305517040398765 0.8453947239965329
    outer loop
      vertex -7.80444E-4 -0.0105 0.001280979
      vertex -3.9566716E-5 -0.010818055 0.0016763314
      vertex -3.5394878E-5 -0.0105 0.0014995823
    endloop
  endfacet
  facet normal 0.2078835226136624 0.47305516892876354 0.8561560886751398
    outer loop
      vertex -3.9566716E-5 -0.010818055 0.0016763314
      vertex 8.0389995E-4 -0.010818055 0.001471529
      vertex -3.5394878E-5 -0.0105 0.0014995823
    endloop
  endfacet
  facet normal 0.2078835760283568 0.47305531830516656 0.8561559931699713
    outer loop
      vertex -3.5394878E-5 -0.0105 0.0014995823
      vertex 8.0389995E-4 -0.010818055 0.001471529
      vertex 7.191383E-4 -0.0105 0.0013163738
    endloop
  endfacet
  facet normal 0.608110512870857 0.4730552889154345 0.6375110177597543
    outer loop
      vertex 8.0389995E-4 -0.010818055 0.001471529
      vertex 0.0014319622 -0.010818055 8.724315E-4
      vertex 7.191383E-4 -0.0105 0.0013163738
    endloop
  endfacet
  facet normal 0.6081105150417508 0.4730550718746405 0.6375111767407183
    outer loop
      vertex 7.191383E-4 -0.0105 0.0013163738
      vertex 0.0014319622 -0.010818055 8.724315E-4
      vertex 0.001280979 -0.0105 7.80444E-4
    endloop
  endfacet
  facet normal 0.8453947905456342 0.47305499289655567 0.24804560430280378
    outer loop
      vertex 0.0014319622 -0.010818055 8.724315E-4
      vertex 0.0016763314 -0.010818055 3.9566716E-5
      vertex 0.001280979 -0.0105 7.80444E-4
    endloop
  endfacet
  facet normal 0.8453947239965329 0.47305517040398765 0.248045492587308
    outer loop
      vertex 0.001280979 -0.0105 7.80444E-4
      vertex 0.0016763314 -0.010818055 3.9566716E-5
      vertex 0.0014995823 -0.0105 3.5394878E-5
    endloop
  endfacet
  facet normal 0.8561560886751398 0.47305516892876354 -0.2078835226136624
    outer loop
      vertex 0.0016763314 -0.010818055 3.9566716E-5
      vertex 0.001471529 -0.010818055 -8.0389995E-4
      vertex 0.0014995823 -0.0105 3.5394878E-5
    endloop
  endfacet
  facet normal 0.8561559931699714 0.4730553183051666 -0.20788357602835683
    outer loop
      vertex 0.0014995823 -0.0105 3.5394878E-5
      vertex 0.001471529 -0.010818055 -8.0389995E-4
      vertex 0.0013163738 -0.0105 -7.191383E-4
    endloop
  endfacet
  facet normal 0.6375110177597544 0.47305528891543464 -0.6081105128708572
    outer loop
      vertex 0.001471529 -0.010818055 -8.0389995E-4
      vertex 8.724315E-4 -0.010818055 -0.0014319622
      vertex 0.0013163738 -0.0105 -7.191383E-4
    endloop
  endfacet
  facet normal 0.6375111767407183 0.4730550718746405 -0.6081105150417508
    outer loop
      vertex 0.0013163738 -0.0105 -7.191383E-4
      vertex 8.724315E-4 -0.010818055 -0.0014319622
      vertex 7.80444E-4 -0.0105 -0.001280979
    endloop
  endfacet
  facet normal 0.24804560430280378 0.47305499289655567 -0.8453947905456342
    outer loop
      vertex 8.724315E-4 -0.010818055 -0.0014319622
      vertex 3.9566716E-5 -0.010818055 -0.0016763314
      vertex 7.80444E-4 -0.0105 -0.001280979
    endloop
  endfacet
  facet normal 0.248045492587308 0.47305517040398765 -0.8453947239965329
    outer loop
      vertex 7.80444E-4 -0.0105 -0.001280979
      vertex 3.9566716E-5 -0.010818055 -0.0016763314
      vertex 3.5394878E-5 -0.0105 -0.0014995823
    endloop
  endfacet
  facet normal 0.010314113596739472 0.48582939920617174 -0.873992799700137
    outer loop
      vertex 3.9566716E-5 -0.010818055 -0.0016763314
      vertex -2.4980017E-19 -0.0105 -0.0015
      vertex 3.5394878E-5 -0.0105 -0.0014995823
    endloop
  endfacet
  facet normal 0.6902246459521182 0.0 0.7235951479385921
    outer loop
      vertex 8.0389995E-4 -0.010818055 0.001471529
      vertex 0.0014319622 -0.011181945 8.724315E-4
      vertex 0.0014319622 -0.010818055 8.724315E-4
    endloop
  endfacet
  facet normal 0.9595496252338174 -0.0 0.2815395473350783
    outer loop
      vertex 0.0014319622 -0.011181945 8.724315E-4
      vertex 0.0016763314 -0.011181945 3.9566716E-5
      vertex 0.0014319622 -0.010818055 8.724315E-4
    endloop
  endfacet
  facet normal 0.9595496252338174 0.0 0.2815395473350783
    outer loop
      vertex 0.0014319622 -0.010818055 8.724315E-4
      vertex 0.0016763314 -0.011181945 3.9566716E-5
      vertex 0.0016763314 -0.010818055 3.9566716E-5
    endloop
  endfacet
  facet normal 0.971764140672026 0.0 -0.23595434919483646
    outer loop
      vertex 0.0016763314 -0.011181945 3.9566716E-5
      vertex 0.001471529 -0.011181945 -8.0389995E-4
      vertex 0.0016763314 -0.010818055 3.9566716E-5
    endloop
  endfacet
  facet normal 0.971764140672026 0.0 -0.23595434919483646
    outer loop
      vertex 0.0016763314 -0.010818055 3.9566716E-5
      vertex 0.001471529 -0.011181945 -8.0389995E-4
      vertex 0.001471529 -0.010818055 -8.0389995E-4
    endloop
  endfacet
  facet normal 0.7235951479385921 0.0 -0.6902246459521182
    outer loop
      vertex 0.001471529 -0.011181945 -8.0389995E-4
      vertex 8.724315E-4 -0.011181945 -0.0014319622
      vertex 0.001471529 -0.010818055 -8.0389995E-4
    endloop
  endfacet
  facet normal 0.7235951479385921 0.0 -0.6902246459521182
    outer loop
      vertex 0.001471529 -0.010818055 -8.0389995E-4
      vertex 8.724315E-4 -0.011181945 -0.0014319622
      vertex 8.724315E-4 -0.010818055 -0.0014319622
    endloop
  endfacet
  facet normal 0.2815395473350783 0.0 -0.9595496252338174
    outer loop
      vertex 8.724315E-4 -0.011181945 -0.0014319622
      vertex 3.9566716E-5 -0.011181945 -0.0016763314
      vertex 8.724315E-4 -0.010818055 -0.0014319622
    endloop
  endfacet
  facet normal 0.2815395473350783 0.0 -0.9595496252338174
    outer loop
      vertex 8.724315E-4 -0.010818055 -0.0014319622
      vertex 3.9566716E-5 -0.011181945 -0.0016763314
      vertex 3.9566716E-5 -0.010818055 -0.0016763314
    endloop
  endfacet
  facet normal -0.23595434919483646 0.0 -0.971764140672026
    outer loop
      vertex 3.9566716E-5 -0.011181945 -0.0016763314
      vertex -8.0389995E-4 -0.011181945 -0.001471529
      vertex 3.9566716E-5 -0.010818055 -0.0016763314
    endloop
  endfacet
  facet normal -0.23595434919483646 0.0 -0.971764140672026
    outer loop
      vertex 3.9566716E-5 -0.010818055 -0.0016763314
      vertex -8.0389995E-4 -0.011181945 -0.001471529
      vertex -8.0389995E-4 -0.010818055 -0.001471529
    endloop
  endfacet
  facet normal -0.6902246459521182 0.0 -0.7235951479385921
    outer loop
      vertex -8.0389995E-4 -0.011181945 -0.001471529
      vertex -0.0014319622 -0.011181945 -8.724315E-4
      vertex -8.0389995E-4 -0.010818055 -0.001471529
    endloop
  endfacet
  facet normal -0.6902246459521182 0.0 -0.7235951479385921
    outer loop
      vertex -8.0389995E-4 -0.010818055 -0.001471529
      vertex -0.0014319622 -0.011181945 -8.724315E-4
      vertex -0.0014319622 -0.010818055 -8.724315E-4
    endloop
  endfacet
  facet normal -0.9595496252338174 0.0 -0.2815395473350783
    outer loop
      vertex -0.0014319622 -0.011181945 -8.724315E-4
      vertex -0.0016763314 -0.011181945 -3.9566716E-5
      vertex -0.0014319622 -0.010818055 -8.724315E-4
    endloop
  endfacet
  facet normal -0.9595496252338174 0.0 -0.2815395473350783
    outer loop
      vertex -0.0014319622 -0.010818055 -8.724315E-4
      vertex -0.0016763314 -0.011181945 -3.9566716E-5
      vertex -0.0016763314 -0.010818055 -3.9566716E-5
    endloop
  endfacet
  facet normal -0.971764140672026 0.0 0.23595434919483646
    outer loop
      vertex -0.0016763314 -0.011181945 -3.9566716E-5
      vertex -0.001471529 -0.011181945 8.0389995E-4
      vertex -0.0016763314 -0.010818055 -3.9566716E-5
    endloop
  endfacet
  facet normal -0.971764140672026 0.0 0.23595434919483646
    outer loop
      vertex -0.0016763314 -0.010818055 -3.9566716E-5
      vertex -0.001471529 -0.011181945 8.0389995E-4
      vertex -0.001471529 -0.010818055 8.0389995E-4
    endloop
  endfacet
  facet normal -0.7235951479385921 0.0 0.6902246459521182
    outer loop
      vertex -0.001471529 -0.011181945 8.0389995E-4
      vertex -8.724315E-4 -0.011181945 0.0014319622
      vertex -0.001471529 -0.010818055 8.0389995E-4
    endloop
  endfacet
  facet normal -0.7235951479385921 0.0 0.6902246459521182
    outer loop
      vertex -0.001471529 -0.010818055 8.0389995E-4
      vertex -8.724315E-4 -0.011181945 0.0014319622
      vertex -8.724315E-4 -0.010818055 0.0014319622
    endloop
  endfacet
  facet normal -0.2815395473350783 0.0 0.9595496252338174
    outer loop
      vertex -8.724315E-4 -0.011181945 0.0014319622
      vertex -3.9566716E-5 -0.011181945 0.0016763314
      vertex -8.724315E-4 -0.010818055 0.0014319622
    endloop
  endfacet
  facet normal -0.2815395473350783 0.0 0.9595496252338174
    outer loop
      vertex -8.724315E-4 -0.010818055 0.0014319622
      vertex -3.9566716E-5 -0.011181945 0.0016763314
      vertex -3.9566716E-5 -0.010818055 0.0016763314
    endloop
  endfacet
  facet normal 0.23595434919483646 -0.0 0.971764140672026
    outer loop
      vertex -3.9566716E-5 -0.011181945 0.0016763314
      vertex 8.0389995E-4 -0.011181945 0.001471529
      vertex -3.9566716E-5 -0.010818055 0.0016763314
    endloop
  endfacet
  facet normal 0.23595434919483646 0.0 0.971764140672026
    outer loop
      vertex -3.9566716E-5 -0.010818055 0.0016763314
      vertex 8.0389995E-4 -0.011181945 0.001471529
      vertex 8.0389995E-4 -0.010818055 0.001471529
    endloop
  endfacet
  facet normal 0.6902246459521182 -0.0 0.7235951479385921
    outer loop
      vertex 8.0389995E-4 -0.011181945 0.001471529
      vertex 0.0014319622 -0.011181945 8.724315E-4
      vertex 8.0389995E-4 -0.010818055 0.001471529
    endloop
  endfacet
  facet normal -0.21782013916395035 -0.47418949186554477 -0.8530525850021754
    outer loop
      vertex -1.249001E-18 -0.0115 -0.0015
      vertex -7.191383E-4 -0.0115 -0.0013163738
      vertex -8.0389995E-4 -0.011181945 -0.001471529
    endloop
  endfacet
  facet normal -0.6081104301290394 -0.47305530099441273 -0.6375110877226843
    outer loop
      vertex -7.191383E-4 -0.0115 -0.0013163738
      vertex -0.001280979 -0.0115 -7.80444E-4
      vertex -8.0389995E-4 -0.011181945 -0.001471529
    endloop
  endfacet
  facet normal -0.6081105888305534 -0.4730550839535884 -0.6375110973918973
    outer loop
      vertex -8.0389995E-4 -0.011181945 -0.001471529
      vertex -0.001280979 -0.0115 -7.80444E-4
      vertex -0.0014319622 -0.011181945 -8.724315E-4
    endloop
  endfacet
  facet normal -0.8453948205404278 -0.47305498301772003 -0.24804552091404966
    outer loop
      vertex -0.001280979 -0.0115 -7.80444E-4
      vertex -0.0014995823 -0.0115 -3.5394878E-5
      vertex -0.0014319622 -0.011181945 -8.724315E-4
    endloop
  endfacet
  facet normal -0.8453947041811469 -0.47305516052517044 -0.24804557896277132
    outer loop
      vertex -0.0014319622 -0.011181945 -8.724315E-4
      vertex -0.0014995823 -0.0115 -3.5394878E-5
      vertex -0.0016763314 -0.011181945 -3.9566716E-5
    endloop
  endfacet
  facet normal -0.856156075447992 -0.4730551606155198 0.20788359600631562
    outer loop
      vertex -0.0014995823 -0.0115 -3.5394878E-5
      vertex -0.0013163738 -0.0115 7.191383E-4
      vertex -0.0016763314 -0.011181945 -3.9566716E-5
    endloop
  endfacet
  facet normal -0.8561560150723508 -0.473055309991923 0.20788350474214662
    outer loop
      vertex -0.0016763314 -0.011181945 -3.9566716E-5
      vertex -0.0013163738 -0.0115 7.191383E-4
      vertex -0.001471529 -0.011181945 8.0389995E-4
    endloop
  endfacet
  facet normal -0.6375110877226844 -0.47305530099441284 0.6081104301290395
    outer loop
      vertex -0.0013163738 -0.0115 7.191383E-4
      vertex -7.80444E-4 -0.0115 0.001280979
      vertex -0.001471529 -0.011181945 8.0389995E-4
    endloop
  endfacet
  facet normal -0.6375110973918973 -0.4730550839535884 0.6081105888305534
    outer loop
      vertex -0.001471529 -0.011181945 8.0389995E-4
      vertex -7.80444E-4 -0.0115 0.001280979
      vertex -8.724315E-4 -0.011181945 0.0014319622
    endloop
  endfacet
  facet normal -0.2480455209140497 -0.47305498301772014 0.8453948205404279
    outer loop
      vertex -7.80444E-4 -0.0115 0.001280979
      vertex -3.5394878E-5 -0.0115 0.0014995823
      vertex -8.724315E-4 -0.011181945 0.0014319622
    endloop
  endfacet
  facet normal -0.24804557896277132 -0.47305516052517044 0.8453947041811469
    outer loop
      vertex -8.724315E-4 -0.011181945 0.0014319622
      vertex -3.5394878E-5 -0.0115 0.0014995823
      vertex -3.9566716E-5 -0.011181945 0.0016763314
    endloop
  endfacet
  facet normal 0.20788359600631562 -0.4730551606155198 0.856156075447992
    outer loop
      vertex -3.5394878E-5 -0.0115 0.0014995823
      vertex 7.191383E-4 -0.0115 0.0013163738
      vertex -3.9566716E-5 -0.011181945 0.0016763314
    endloop
  endfacet
  facet normal 0.20788350474214662 -0.473055309991923 0.8561560150723508
    outer loop
      vertex -3.9566716E-5 -0.011181945 0.0016763314
      vertex 7.191383E-4 -0.0115 0.0013163738
      vertex 8.0389995E-4 -0.011181945 0.001471529
    endloop
  endfacet
  facet normal 0.6081104301290394 -0.47305530099441273 0.6375110877226843
    outer loop
      vertex 7.191383E-4 -0.0115 0.0013163738
      vertex 0.001280979 -0.0115 7.80444E-4
      vertex 8.0389995E-4 -0.011181945 0.001471529
    endloop
  endfacet
  facet normal 0.6081105888305534 -0.4730550839535884 0.6375110973918973
    outer loop
      vertex 8.0389995E-4 -0.011181945 0.001471529
      vertex 0.001280979 -0.0115 7.80444E-4
      vertex 0.0014319622 -0.011181945 8.724315E-4
    endloop
  endfacet
  facet normal 0.8453948205404278 -0.47305498301772003 0.24804552091404966
    outer loop
      vertex 0.001280979 -0.0115 7.80444E-4
      vertex 0.0014995823 -0.0115 3.5394878E-5
      vertex 0.0014319622 -0.011181945 8.724315E-4
    endloop
  endfacet
  facet normal 0.8453947041811469 -0.47305516052517044 0.24804557896277132
    outer loop
      vertex 0.0014319622 -0.011181945 8.724315E-4
      vertex 0.0014995823 -0.0115 3.5394878E-5
      vertex 0.0016763314 -0.011181945 3.9566716E-5
    endloop
  endfacet
  facet normal 0.856156075447992 -0.4730551606155198 -0.20788359600631562
    outer loop
      vertex 0.0014995823 -0.0115 3.5394878E-5
      vertex 0.0013163738 -0.0115 -7.191383E-4
      vertex 0.0016763314 -0.011181945 3.9566716E-5
    endloop
  endfacet
  facet normal 0.8561560150723508 -0.473055309991923 -0.20788350474214662
    outer loop
      vertex 0.0016763314 -0.011181945 3.9566716E-5
      vertex 0.0013163738 -0.0115 -7.191383E-4
      vertex 0.001471529 -0.011181945 -8.0389995E-4
    endloop
  endfacet
  facet normal 0.6375110877226844 -0.47305530099441284 -0.6081104301290395
    outer loop
      vertex 0.0013163738 -0.0115 -7.191383E-4
      vertex 7.80444E-4 -0.0115 -0.001280979
      vertex 0.001471529 -0.011181945 -8.0389995E-4
    endloop
  endfacet
  facet normal 0.6375110973918973 -0.4730550839535884 -0.6081105888305534
    outer loop
      vertex 0.001471529 -0.011181945 -8.0389995E-4
      vertex 7.80444E-4 -0.0115 -0.001280979
      vertex 8.724315E-4 -0.011181945 -0.0014319622
    endloop
  endfacet
  facet normal 0.2480455209140497 -0.47305498301772014 -0.8453948205404279
    outer loop
      vertex 7.80444E-4 -0.0115 -0.001280979
      vertex 3.5394878E-5 -0.0115 -0.0014995823
      vertex 8.724315E-4 -0.011181945 -0.0014319622
    endloop
  endfacet
  facet normal 0.24804557896277132 -0.47305516052517044 -0.8453947041811469
    outer loop
      vertex 8.724315E-4 -0.011181945 -0.0014319622
      vertex 3.5394878E-5 -0.0115 -0.0014995823
      vertex 3.9566716E-5 -0.011181945 -0.0016763314
    endloop
  endfacet
  facet normal 0.010314113596738816 -0.48582939920617163 -0.873992799700137
    outer loop
      vertex 3.5394878E-5 -0.0115 -0.0014995823
      vertex -1.249001E-18 -0.0115 -0.0015
      vertex 3.9566716E-5 -0.011181945 -0.0016763314
    endloop
  endfacet
  facet normal -0.21024769951210806 -0.45390036585139193 -0.8658928124946175
    outer loop
      vertex 3.9566716E-5 -0.011181945 -0.0016763314
      vertex -1.249001E-18 -0.0115 -0.0015
      vertex -8.0389995E-4 -0.011181945 -0.001471529
    endloop
  endfacet
  facet normal 0.6760090198201624 -0.20190802037810038 0.7086924272410279
    outer loop
      vertex -5.977902E-4 -0.014843322 -3.6420723E-4
      vertex -3.3559787E-4 -0.014843322 -6.143078E-4
      vertex -3.3142068E-4 -0.014802498 -6.066615E-4
    endloop
  endfacet
  facet normal 0.24227794966552876 -0.20250677065341677 0.948837395418937
    outer loop
      vertex -3.3559787E-4 -0.014843322 -6.143078E-4
      vertex -1.1657341E-19 -0.014843322 -7.0E-4
      vertex -3.3142068E-4 -0.014802498 -6.066615E-4
    endloop
  endfacet
  facet normal 0.22561076855816758 -0.2928362710579875 0.92916451689862
    outer loop
      vertex -3.3142068E-4 -0.014802498 -6.066615E-4
      vertex -1.1657341E-19 -0.014843322 -7.0E-4
      vertex 1.6312015E-5 -0.014802498 -6.910946E-4
    endloop
  endfacet
  facet normal -0.01153886594478499 -0.20871178042953603 0.9779091201551611
    outer loop
      vertex -1.1657341E-19 -0.014843322 -7.0E-4
      vertex 1.651761E-5 -0.014843322 -6.998051E-4
      vertex 1.6312015E-5 -0.014802498 -6.910946E-4
    endloop
  endfacet
  facet normal -0.2757409838550981 -0.20190836512923388 0.9397871684128607
    outer loop
      vertex 1.6312015E-5 -0.014802498 -6.910946E-4
      vertex 1.651761E-5 -0.014843322 -6.998051E-4
      vertex 3.5967393E-4 -0.014802498 -5.903495E-4
    endloop
  endfacet
  facet normal -0.2757410483580562 -0.20190798890695655 0.9397872303164948
    outer loop
      vertex 1.651761E-5 -0.014843322 -6.998051E-4
      vertex 3.6420723E-4 -0.014843322 -5.977902E-4
      vertex 3.5967393E-4 -0.014802498 -5.903495E-4
    endloop
  endfacet
  facet normal -0.7086924126719321 -0.20190808351633602 0.6760090162357275
    outer loop
      vertex 3.5967393E-4 -0.014802498 -5.903495E-4
      vertex 3.6420723E-4 -0.014843322 -5.977902E-4
      vertex 6.066615E-4 -0.014802498 -3.3142068E-4
    endloop
  endfacet
  facet normal -0.7086924272410281 -0.2019080203781004 0.6760090198201626
    outer loop
      vertex 3.6420723E-4 -0.014843322 -5.977902E-4
      vertex 6.143078E-4 -0.014843322 -3.3559787E-4
      vertex 6.066615E-4 -0.014802498 -3.3142068E-4
    endloop
  endfacet
  facet normal -0.9517501449403669 -0.20190804408039167 0.2310947929781653
    outer loop
      vertex 6.066615E-4 -0.014802498 -3.3142068E-4
      vertex 6.143078E-4 -0.014843322 -3.3559787E-4
      vertex 6.910946E-4 -0.014802498 1.6312015E-5
    endloop
  endfacet
  facet normal -0.9517500718680812 -0.2019083642633274 0.23109481417723218
    outer loop
      vertex 6.143078E-4 -0.014843322 -3.3559787E-4
      vertex 6.998051E-4 -0.014843322 1.651761E-5
      vertex 6.910946E-4 -0.014802498 1.6312015E-5
    endloop
  endfacet
  facet normal -0.9397871684128607 -0.20190836512923388 -0.2757409838550981
    outer loop
      vertex 6.910946E-4 -0.014802498 1.6312015E-5
      vertex 6.998051E-4 -0.014843322 1.651761E-5
      vertex 5.903495E-4 -0.014802498 3.5967393E-4
    endloop
  endfacet
  facet normal -0.9397872303164948 -0.20190798890695655 -0.2757410483580562
    outer loop
      vertex 6.998051E-4 -0.014843322 1.651761E-5
      vertex 5.977902E-4 -0.014843322 3.6420723E-4
      vertex 5.903495E-4 -0.014802498 3.5967393E-4
    endloop
  endfacet
  facet normal -0.6760090162357275 -0.20190808351633602 -0.7086924126719321
    outer loop
      vertex 5.903495E-4 -0.014802498 3.5967393E-4
      vertex 5.977902E-4 -0.014843322 3.6420723E-4
      vertex 3.3142068E-4 -0.014802498 6.066615E-4
    endloop
  endfacet
  facet normal -0.6760090198201624 -0.20190802037810038 -0.7086924272410279
    outer loop
      vertex 5.977902E-4 -0.014843322 3.6420723E-4
      vertex 3.3559787E-4 -0.014843322 6.143078E-4
      vertex 3.3142068E-4 -0.014802498 6.066615E-4
    endloop
  endfacet
  facet normal -0.2310947929781653 -0.20190804408039167 -0.9517501449403669
    outer loop
      vertex 3.3142068E-4 -0.014802498 6.066615E-4
      vertex 3.3559787E-4 -0.014843322 6.143078E-4
      vertex -1.6312015E-5 -0.014802498 6.910946E-4
    endloop
  endfacet
  facet normal -0.23109481417723224 -0.20190836426332745 -0.9517500718680814
    outer loop
      vertex 3.3559787E-4 -0.014843322 6.143078E-4
      vertex -1.651761E-5 -0.014843322 6.998051E-4
      vertex -1.6312015E-5 -0.014802498 6.910946E-4
    endloop
  endfacet
  facet normal 0.2757409838550981 -0.20190836512923388 -0.9397871684128607
    outer loop
      vertex -1.6312015E-5 -0.014802498 6.910946E-4
      vertex -1.651761E-5 -0.014843322 6.998051E-4
      vertex -3.5967393E-4 -0.014802498 5.903495E-4
    endloop
  endfacet
  facet normal 0.2757410483580562 -0.20190798890695655 -0.9397872303164948
    outer loop
      vertex -1.651761E-5 -0.014843322 6.998051E-4
      vertex -3.6420723E-4 -0.014843322 5.977902E-4
      vertex -3.5967393E-4 -0.014802498 5.903495E-4
    endloop
  endfacet
  facet normal 0.7086924126719321 -0.20190808351633602 -0.6760090162357275
    outer loop
      vertex -3.5967393E-4 -0.014802498 5.903495E-4
      vertex -3.6420723E-4 -0.014843322 5.977902E-4
      vertex -6.066615E-4 -0.014802498 3.3142068E-4
    endloop
  endfacet
  facet normal 0.7086924272410281 -0.2019080203781004 -0.6760090198201626
    outer loop
      vertex -3.6420723E-4 -0.014843322 5.977902E-4
      vertex -6.143078E-4 -0.014843322 3.3559787E-4
      vertex -6.066615E-4 -0.014802498 3.3142068E-4
    endloop
  endfacet
  facet normal 0.9517501449403669 -0.20190804408039167 -0.2310947929781653
    outer loop
      vertex -6.066615E-4 -0.014802498 3.3142068E-4
      vertex -6.143078E-4 -0.014843322 3.3559787E-4
      vertex -6.910946E-4 -0.014802498 -1.6312015E-5
    endloop
  endfacet
  facet normal 0.9517500718680812 -0.2019083642633274 -0.23109481417723218
    outer loop
      vertex -6.143078E-4 -0.014843322 3.3559787E-4
      vertex -6.998051E-4 -0.014843322 -1.651761E-5
      vertex -6.910946E-4 -0.014802498 -1.6312015E-5
    endloop
  endfacet
  facet normal 0.9397871684128607 -0.20190836512923388 0.2757409838550981
    outer loop
      vertex -6.910946E-4 -0.014802498 -1.6312015E-5
      vertex -6.998051E-4 -0.014843322 -1.651761E-5
      vertex -5.903495E-4 -0.014802498 -3.5967393E-4
    endloop
  endfacet
  facet normal 0.9397872303164948 -0.20190798890695655 0.2757410483580562
    outer loop
      vertex -6.998051E-4 -0.014843322 -1.651761E-5
      vertex -5.977902E-4 -0.014843322 -3.6420723E-4
      vertex -5.903495E-4 -0.014802498 -3.5967393E-4
    endloop
  endfacet
  facet normal 0.6760090162357275 -0.20190808351633602 0.7086924126719321
    outer loop
      vertex -5.903495E-4 -0.014802498 -3.5967393E-4
      vertex -5.977902E-4 -0.014843322 -3.6420723E-4
      vertex -3.3142068E-4 -0.014802498 -6.066615E-4
    endloop
  endfacet
  facet normal -0.23005533503882272 -0.5764485141488849 0.7840801319735872
    outer loop
      vertex 3.4686402E-4 -0.014768787 -5.69324E-4
      vertex 1.5731057E-5 -0.014768787 -6.6648104E-4
      vertex 1.6312015E-5 -0.014802498 -6.910946E-4
    endloop
  endfacet
  facet normal -0.00952840881633749 -0.589762634136204 0.8075204299596109
    outer loop
      vertex 1.5731057E-5 -0.014768787 -6.6648104E-4
      vertex 3.330669E-19 -0.014768787 -6.6666666E-4
      vertex 1.6312015E-5 -0.014802498 -6.910946E-4
    endloop
  endfacet
  facet normal 0.2032207573905166 -0.5081453408540834 0.8369525890598059
    outer loop
      vertex 1.6312015E-5 -0.014802498 -6.910946E-4
      vertex 3.330669E-19 -0.014768787 -6.6666666E-4
      vertex -3.3142068E-4 -0.014802498 -6.066615E-4
    endloop
  endfacet
  facet normal 0.20195430030784375 -0.5776370207815724 0.7909171466150918
    outer loop
      vertex 3.330669E-19 -0.014768787 -6.6666666E-4
      vertex -3.1961701E-4 -0.014768787 -5.8505504E-4
      vertex -3.3142068E-4 -0.014802498 -6.066615E-4
    endloop
  endfacet
  facet normal 0.56400543544633 -0.5764488221329286 0.5912737303893647
    outer loop
      vertex -3.3142068E-4 -0.014802498 -6.066615E-4
      vertex -3.1961701E-4 -0.014768787 -5.8505504E-4
      vertex -5.903495E-4 -0.014802498 -3.5967393E-4
    endloop
  endfacet
  facet normal 0.564005487117455 -0.5764486872130775 0.5912738126382071
    outer loop
      vertex -3.1961701E-4 -0.014768787 -5.8505504E-4
      vertex -5.69324E-4 -0.014768787 -3.4686402E-4
      vertex -5.903495E-4 -0.014802498 -3.5967393E-4
    endloop
  endfacet
  facet normal 0.7840800194062223 -0.5764486910099466 0.23005527553363594
    outer loop
      vertex -5.903495E-4 -0.014802498 -3.5967393E-4
      vertex -5.69324E-4 -0.014768787 -3.4686402E-4
      vertex -6.910946E-4 -0.014802498 -1.6312015E-5
    endloop
  endfacet
  facet normal 0.7840801319735872 -0.5764485141488849 0.23005533503882272
    outer loop
      vertex -5.69324E-4 -0.014768787 -3.4686402E-4
      vertex -6.6648104E-4 -0.014768787 -1.5731057E-5
      vertex -6.910946E-4 -0.014802498 -1.6312015E-5
    endloop
  endfacet
  facet normal 0.7940609993962375 -0.5764485102052065 -0.1928062351690067
    outer loop
      vertex -6.910946E-4 -0.014802498 -1.6312015E-5
      vertex -6.6648104E-4 -0.014768787 -1.5731057E-5
      vertex -6.066615E-4 -0.014802498 3.3142068E-4
    endloop
  endfacet
  facet normal 0.7940608155587459 -0.5764487657380568 -0.19280622830513125
    outer loop
      vertex -6.6648104E-4 -0.014768787 -1.5731057E-5
      vertex -5.8505504E-4 -0.014768787 3.1961701E-4
      vertex -6.066615E-4 -0.014802498 3.3142068E-4
    endloop
  endfacet
  facet normal 0.5912737303893646 -0.5764488221329285 -0.5640054354463299
    outer loop
      vertex -6.066615E-4 -0.014802498 3.3142068E-4
      vertex -5.8505504E-4 -0.014768787 3.1961701E-4
      vertex -3.5967393E-4 -0.014802498 5.903495E-4
    endloop
  endfacet
  facet normal 0.5912738126382072 -0.5764486872130776 -0.564005487117455
    outer loop
      vertex -5.8505504E-4 -0.014768787 3.1961701E-4
      vertex -3.4686402E-4 -0.014768787 5.69324E-4
      vertex -3.5967393E-4 -0.014802498 5.903495E-4
    endloop
  endfacet
  facet normal 0.23005527553363597 -0.5764486910099467 -0.7840800194062224
    outer loop
      vertex -3.5967393E-4 -0.014802498 5.903495E-4
      vertex -3.4686402E-4 -0.014768787 5.69324E-4
      vertex -1.6312015E-5 -0.014802498 6.910946E-4
    endloop
  endfacet
  facet normal 0.23005533503882272 -0.5764485141488849 -0.7840801319735872
    outer loop
      vertex -3.4686402E-4 -0.014768787 5.69324E-4
      vertex -1.5731057E-5 -0.014768787 6.6648104E-4
      vertex -1.6312015E-5 -0.014802498 6.910946E-4
    endloop
  endfacet
  facet normal -0.19280623516900666 -0.5764485102052065 -0.7940609993962375
    outer loop
      vertex -1.6312015E-5 -0.014802498 6.910946E-4
      vertex -1.5731057E-5 -0.014768787 6.6648104E-4
      vertex 3.3142068E-4 -0.014802498 6.066615E-4
    endloop
  endfacet
  facet normal -0.19280622830513122 -0.5764487657380568 -0.7940608155587457
    outer loop
      vertex -1.5731057E-5 -0.014768787 6.6648104E-4
      vertex 3.1961701E-4 -0.014768787 5.8505504E-4
      vertex 3.3142068E-4 -0.014802498 6.066615E-4
    endloop
  endfacet
  facet normal -0.56400543544633 -0.5764488221329286 -0.5912737303893647
    outer loop
      vertex 3.3142068E-4 -0.014802498 6.066615E-4
      vertex 3.1961701E-4 -0.014768787 5.8505504E-4
      vertex 5.903495E-4 -0.014802498 3.5967393E-4
    endloop
  endfacet
  facet normal -0.564005487117455 -0.5764486872130775 -0.5912738126382071
    outer loop
      vertex 3.1961701E-4 -0.014768787 5.8505504E-4
      vertex 5.69324E-4 -0.014768787 3.4686402E-4
      vertex 5.903495E-4 -0.014802498 3.5967393E-4
    endloop
  endfacet
  facet normal -0.7840800194062223 -0.5764486910099466 -0.23005527553363594
    outer loop
      vertex 5.903495E-4 -0.014802498 3.5967393E-4
      vertex 5.69324E-4 -0.014768787 3.4686402E-4
      vertex 6.910946E-4 -0.014802498 1.6312015E-5
    endloop
  endfacet
  facet normal -0.7840801319735872 -0.5764485141488849 -0.23005533503882272
    outer loop
      vertex 5.69324E-4 -0.014768787 3.4686402E-4
      vertex 6.6648104E-4 -0.014768787 1.5731057E-5
      vertex 6.910946E-4 -0.014802498 1.6312015E-5
    endloop
  endfacet
  facet normal -0.7940609993962375 -0.5764485102052065 0.1928062351690067
    outer loop
      vertex 6.910946E-4 -0.014802498 1.6312015E-5
      vertex 6.6648104E-4 -0.014768787 1.5731057E-5
      vertex 6.066615E-4 -0.014802498 -3.3142068E-4
    endloop
  endfacet
  facet normal -0.7940608155587459 -0.5764487657380568 0.19280622830513125
    outer loop
      vertex 6.6648104E-4 -0.014768787 1.5731057E-5
      vertex 5.8505504E-4 -0.014768787 -3.1961701E-4
      vertex 6.066615E-4 -0.014802498 -3.3142068E-4
    endloop
  endfacet
  facet normal -0.5912737303893646 -0.5764488221329285 0.5640054354463299
    outer loop
      vertex 6.066615E-4 -0.014802498 -3.3142068E-4
      vertex 5.8505504E-4 -0.014768787 -3.1961701E-4
      vertex 3.5967393E-4 -0.014802498 -5.903495E-4
    endloop
  endfacet
  facet normal -0.5912738126382072 -0.5764486872130776 0.564005487117455
    outer loop
      vertex 5.8505504E-4 -0.014768787 -3.1961701E-4
      vertex 3.4686402E-4 -0.014768787 -5.69324E-4
      vertex 3.5967393E-4 -0.014802498 -5.903495E-4
    endloop
  endfacet
  facet normal -0.23005527553363597 -0.5764486910099467 0.7840800194062224
    outer loop
      vertex 3.5967393E-4 -0.014802498 -5.903495E-4
      vertex 3.4686402E-4 -0.014768787 -5.69324E-4
      vertex 1.6312015E-5 -0.014802498 -6.910946E-4
    endloop
  endfacet
  facet normal -0.18000981751438835 -0.9822458458908774 -0.05281632161133215
    outer loop
      vertex 3.5672274E-4 -0.01457997 8.419783E-6
      vertex 3.0472106E-4 -0.01457997 1.8565312E-4
      vertex 5.87127E-20 -0.014514143 4.1322428E-18
    endloop
  endfacet
  facet normal -0.1823012348904669 -0.9822458451507289 0.044264652280810064
    outer loop
      vertex 3.5672274E-4 -0.01457997 8.419783E-6
      vertex 5.87127E-20 -0.014514143 4.1322428E-18
      vertex 3.1314083E-4 -0.01457997 -1.7106962E-4
    endloop
  endfacet
  facet normal -0.13574519642464294 -0.9822458452904869 0.12948490667723384
    outer loop
      vertex 1.8565312E-4 -0.01457997 -3.0472106E-4
      vertex 3.1314083E-4 -0.01457997 -1.7106962E-4
      vertex 5.87127E-20 -0.014514143 4.1322428E-18
    endloop
  endfacet
  facet normal -0.05281632161133139 -0.9822458458908778 0.18000981751438574
    outer loop
      vertex 8.419783E-6 -0.01457997 -3.5672274E-4
      vertex 1.8565312E-4 -0.01457997 -3.0472106E-4
      vertex 5.87127E-20 -0.014514143 4.1322428E-18
    endloop
  endfacet
  facet normal 0.044264652280809676 -0.9822458451507291 0.1823012348904653
    outer loop
      vertex -1.7106962E-4 -0.01457997 -3.1314083E-4
      vertex 8.419783E-6 -0.01457997 -3.5672274E-4
      vertex 5.87127E-20 -0.014514143 4.1322428E-18
    endloop
  endfacet
  facet normal 0.12948490667723378 -0.9822458452904871 0.1357451964246429
    outer loop
      vertex -3.0472106E-4 -0.01457997 -1.8565312E-4
      vertex -1.7106962E-4 -0.01457997 -3.1314083E-4
      vertex 5.87127E-20 -0.014514143 4.1322428E-18
    endloop
  endfacet
  facet normal 0.18000981751438716 -0.9822458458908777 0.0528163216113318
    outer loop
      vertex -3.5672274E-4 -0.01457997 -8.419783E-6
      vertex -3.0472106E-4 -0.01457997 -1.8565312E-4
      vertex 5.87127E-20 -0.014514143 4.1322428E-18
    endloop
  endfacet
  facet normal 0.18230123489046784 -0.9822458451507289 -0.0442646522808103
    outer loop
      vertex -3.1314083E-4 -0.01457997 1.7106962E-4
      vertex -3.5672274E-4 -0.01457997 -8.419783E-6
      vertex 5.87127E-20 -0.014514143 4.1322428E-18
    endloop
  endfacet
  facet normal 0.13574519642464508 -0.9822458452904864 -0.12948490667723586
    outer loop
      vertex -1.8565312E-4 -0.01457997 3.0472106E-4
      vertex -3.1314083E-4 -0.01457997 1.7106962E-4
      vertex 5.87127E-20 -0.014514143 4.1322428E-18
    endloop
  endfacet
  facet normal 0.05281632161133255 -0.982245845890877 -0.18000981751438971
    outer loop
      vertex -8.419783E-6 -0.01457997 3.5672274E-4
      vertex -1.8565312E-4 -0.01457997 3.0472106E-4
      vertex 5.87127E-20 -0.014514143 4.1322428E-18
    endloop
  endfacet
  facet normal -0.04426465228081068 -0.9822458451507282 -0.18230123489046943
    outer loop
      vertex 1.7106962E-4 -0.01457997 3.1314083E-4
      vertex -8.419783E-6 -0.01457997 3.5672274E-4
      vertex 5.87127E-20 -0.014514143 4.1322428E-18
    endloop
  endfacet
  facet normal -0.12948490667723592 -0.9822458452904862 -0.13574519642464514
    outer loop
      vertex 3.0472106E-4 -0.01457997 1.8565312E-4
      vertex 1.7106962E-4 -0.01457997 3.1314083E-4
      vertex 5.87127E-20 -0.014514143 4.1322428E-18
    endloop
  endfacet
  facet normal 0.36828737833496855 -0.8457520022131944 0.38609319821971544
    outer loop
      vertex -5.69324E-4 -0.014768787 -3.4686402E-4
      vertex -3.1961701E-4 -0.014768787 -5.8505504E-4
      vertex -1.7106962E-4 -0.01457997 -3.1314083E-4
    endloop
  endfacet
  facet normal 0.13171741681417445 -0.8464940474679709 0.5158472154709122
    outer loop
      vertex -3.1961701E-4 -0.014768787 -5.8505504E-4
      vertex 3.330669E-19 -0.014768787 -6.6666666E-4
      vertex -1.7106962E-4 -0.01457997 -3.1314083E-4
    endloop
  endfacet
  facet normal 0.12473723998089759 -0.8488402067791129 0.5137226141772823
    outer loop
      vertex -1.7106962E-4 -0.01457997 -3.1314083E-4
      vertex 3.330669E-19 -0.014768787 -6.6666666E-4
      vertex 8.419783E-6 -0.01457997 -3.5672274E-4
    endloop
  endfacet
  facet normal -0.0061401677781200955 -0.8539180055781406 0.5203713463375047
    outer loop
      vertex 3.330669E-19 -0.014768787 -6.6666666E-4
      vertex 1.5731057E-5 -0.014768787 -6.6648104E-4
      vertex 8.419783E-6 -0.01457997 -3.5672274E-4
    endloop
  endfacet
  facet normal -0.15022280047307215 -0.8457519933532652 0.511992847564305
    outer loop
      vertex 8.419783E-6 -0.01457997 -3.5672274E-4
      vertex 1.5731057E-5 -0.014768787 -6.6648104E-4
      vertex 1.8565312E-4 -0.01457997 -3.0472106E-4
    endloop
  endfacet
  facet normal -0.15022276268764334 -0.8457520066177878 0.5119928367394188
    outer loop
      vertex 1.5731057E-5 -0.014768787 -6.6648104E-4
      vertex 3.4686402E-4 -0.014768787 -5.69324E-4
      vertex 1.8565312E-4 -0.01457997 -3.0472106E-4
    endloop
  endfacet
  facet normal -0.3860932029490196 -0.8457520005682224 0.3682873771546027
    outer loop
      vertex 1.8565312E-4 -0.01457997 -3.0472106E-4
      vertex 3.4686402E-4 -0.014768787 -5.69324E-4
      vertex 3.1314083E-4 -0.01457997 -1.7106962E-4
    endloop
  endfacet
  facet normal -0.38609319821971544 -0.8457520022131944 0.36828737833496855
    outer loop
      vertex 3.4686402E-4 -0.014768787 -5.69324E-4
      vertex 5.8505504E-4 -0.014768787 -3.1961701E-4
      vertex 3.1314083E-4 -0.01457997 -1.7106962E-4
    endloop
  endfacet
  facet normal -0.5185101732202084 -0.845752010582694 0.12589970954088878
    outer loop
      vertex 3.1314083E-4 -0.01457997 -1.7106962E-4
      vertex 5.8505504E-4 -0.014768787 -3.1961701E-4
      vertex 3.5672274E-4 -0.01457997 8.419783E-6
    endloop
  endfacet
  facet normal -0.5185102098873352 -0.8457519933765514 0.12589967411467487
    outer loop
      vertex 5.8505504E-4 -0.014768787 -3.1961701E-4
      vertex 6.6648104E-4 -0.014768787 1.5731057E-5
      vertex 3.5672274E-4 -0.01457997 8.419783E-6
    endloop
  endfacet
  facet normal -0.5119928475643051 -0.8457519933532655 -0.15022280047307218
    outer loop
      vertex 3.5672274E-4 -0.01457997 8.419783E-6
      vertex 6.6648104E-4 -0.014768787 1.5731057E-5
      vertex 3.0472106E-4 -0.01457997 1.8565312E-4
    endloop
  endfacet
  facet normal -0.5119928367394189 -0.845752006617788 -0.15022276268764337
    outer loop
      vertex 6.6648104E-4 -0.014768787 1.5731057E-5
      vertex 5.69324E-4 -0.014768787 3.4686402E-4
      vertex 3.0472106E-4 -0.01457997 1.8565312E-4
    endloop
  endfacet
  facet normal -0.3682873771546027 -0.8457520005682224 -0.3860932029490196
    outer loop
      vertex 3.0472106E-4 -0.01457997 1.8565312E-4
      vertex 5.69324E-4 -0.014768787 3.4686402E-4
      vertex 1.7106962E-4 -0.01457997 3.1314083E-4
    endloop
  endfacet
  facet normal -0.36828737833496855 -0.8457520022131944 -0.38609319821971544
    outer loop
      vertex 5.69324E-4 -0.014768787 3.4686402E-4
      vertex 3.1961701E-4 -0.014768787 5.8505504E-4
      vertex 1.7106962E-4 -0.01457997 3.1314083E-4
    endloop
  endfacet
  facet normal -0.12589970954088878 -0.845752010582694 -0.5185101732202084
    outer loop
      vertex 1.7106962E-4 -0.01457997 3.1314083E-4
      vertex 3.1961701E-4 -0.014768787 5.8505504E-4
      vertex -8.419783E-6 -0.01457997 3.5672274E-4
    endloop
  endfacet
  facet normal -0.12589967411467484 -0.8457519933765513 -0.5185102098873351
    outer loop
      vertex 3.1961701E-4 -0.014768787 5.8505504E-4
      vertex -1.5731057E-5 -0.014768787 6.6648104E-4
      vertex -8.419783E-6 -0.01457997 3.5672274E-4
    endloop
  endfacet
  facet normal 0.15022280047307215 -0.8457519933532652 -0.511992847564305
    outer loop
      vertex -8.419783E-6 -0.01457997 3.5672274E-4
      vertex -1.5731057E-5 -0.014768787 6.6648104E-4
      vertex -1.8565312E-4 -0.01457997 3.0472106E-4
    endloop
  endfacet
  facet normal 0.15022276268764334 -0.8457520066177878 -0.5119928367394188
    outer loop
      vertex -1.5731057E-5 -0.014768787 6.6648104E-4
      vertex -3.4686402E-4 -0.014768787 5.69324E-4
      vertex -1.8565312E-4 -0.01457997 3.0472106E-4
    endloop
  endfacet
  facet normal 0.3860932029490196 -0.8457520005682224 -0.3682873771546027
    outer loop
      vertex -1.8565312E-4 -0.01457997 3.0472106E-4
      vertex -3.4686402E-4 -0.014768787 5.69324E-4
      vertex -3.1314083E-4 -0.01457997 1.7106962E-4
    endloop
  endfacet
  facet normal 0.38609319821971544 -0.8457520022131944 -0.36828737833496855
    outer loop
      vertex -3.4686402E-4 -0.014768787 5.69324E-4
      vertex -5.8505504E-4 -0.014768787 3.1961701E-4
      vertex -3.1314083E-4 -0.01457997 1.7106962E-4
    endloop
  endfacet
  facet normal 0.5185101732202084 -0.845752010582694 -0.12589970954088878
    outer loop
      vertex -3.1314083E-4 -0.01457997 1.7106962E-4
      vertex -5.8505504E-4 -0.014768787 3.1961701E-4
      vertex -3.5672274E-4 -0.01457997 -8.419783E-6
    endloop
  endfacet
  facet normal 0.5185102098873352 -0.8457519933765514 -0.12589967411467487
    outer loop
      vertex -5.8505504E-4 -0.014768787 3.1961701E-4
      vertex -6.6648104E-4 -0.014768787 -1.5731057E-5
      vertex -3.5672274E-4 -0.01457997 -8.419783E-6
    endloop
  endfacet
  facet normal 0.5119928475643051 -0.8457519933532655 0.15022280047307218
    outer loop
      vertex -3.5672274E-4 -0.01457997 -8.419783E-6
      vertex -6.6648104E-4 -0.014768787 -1.5731057E-5
      vertex -3.0472106E-4 -0.01457997 -1.8565312E-4
    endloop
  endfacet
  facet normal 0.5119928367394189 -0.845752006617788 0.15022276268764337
    outer loop
      vertex -6.6648104E-4 -0.014768787 -1.5731057E-5
      vertex -5.69324E-4 -0.014768787 -3.4686402E-4
      vertex -3.0472106E-4 -0.01457997 -1.8565312E-4
    endloop
  endfacet
  facet normal 0.3682873771546027 -0.8457520005682224 0.3860932029490196
    outer loop
      vertex -3.0472106E-4 -0.01457997 -1.8565312E-4
      vertex -5.69324E-4 -0.014768787 -3.4686402E-4
      vertex -1.7106962E-4 -0.01457997 -3.1314083E-4
    endloop
  endfacet
  facet normal 0.0 1.0 0.0
    outer loop
      vertex -8.3266725E-19 -0.0105 -0.001
      vertex -2.4980017E-19 -0.0105 -0.0015
      vertex -4.7942554E-4 -0.0105 -8.775826E-4
    endloop
  endfacet
  facet normal 0.0 1.0 0.0
    outer loop
      vertex -2.4980017E-19 -0.0105 -0.0015
      vertex -7.191383E-4 -0.0105 -0.0013163738
      vertex -4.7942554E-4 -0.0105 -8.775826E-4
    endloop
  endfacet
  facet normal 0.0 1.0 0.0
    outer loop
      vertex -4.7942554E-4 -0.0105 -8.775826E-4
      vertex -7.191383E-4 -0.0105 -0.0013163738
      vertex -8.5398596E-4 -0.0105 -5.2029605E-4
    endloop
  endfacet
  facet normal 0.0 1.0 0.0
    outer loop
      vertex -7.191383E-4 -0.0105 -0.0013163738
      vertex -0.001280979 -0.0105 -7.80444E-4
      vertex -8.5398596E-4 -0.0105 -5.2029605E-4
    endloop
  endfacet
  facet normal 0.0 1.0 0.0
    outer loop
      vertex -8.5398596E-4 -0.0105 -5.2029605E-4
      vertex -0.001280979 -0.0105 -7.80444E-4
      vertex -9.997216E-4 -0.0105 -2.3596585E-5
    endloop
  endfacet
  facet normal 0.0 1.0 -0.0
    outer loop
      vertex -0.001280979 -0.0105 -7.80444E-4
      vertex -0.0014995823 -0.0105 -3.5394878E-5
      vertex -9.997216E-4 -0.0105 -2.3596585E-5
    endloop
  endfacet
  facet normal 0.0 1.0 -0.0
    outer loop
      vertex -9.997216E-4 -0.0105 -2.3596585E-5
      vertex -0.0014995823 -0.0105 -3.5394878E-5
      vertex -8.775826E-4 -0.0105 4.7942554E-4
    endloop
  endfacet
  facet normal 0.0 1.0 0.0
    outer loop
      vertex -0.0014995823 -0.0105 -3.5394878E-5
      vertex -0.0013163738 -0.0105 7.191383E-4
      vertex -8.775826E-4 -0.0105 4.7942554E-4
    endloop
  endfacet
  facet normal 0.0 1.0 -0.0
    outer loop
      vertex -8.775826E-4 -0.0105 4.7942554E-4
      vertex -0.0013163738 -0.0105 7.191383E-4
      vertex -5.2029605E-4 -0.0105 8.5398596E-4
    endloop
  endfacet
  facet normal 0.0 1.0 0.0
    outer loop
      vertex -0.0013163738 -0.0105 7.191383E-4
      vertex -7.80444E-4 -0.0105 0.001280979
      vertex -5.2029605E-4 -0.0105 8.5398596E-4
    endloop
  endfacet
  facet normal 0.0 1.0 -0.0
    outer loop
      vertex -5.2029605E-4 -0.0105 8.5398596E-4
      vertex -7.80444E-4 -0.0105 0.001280979
      vertex -2.3596585E-5 -0.0105 9.997216E-4
    endloop
  endfacet
  facet normal -0.0 1.0 0.0
    outer loop
      vertex -7.80444E-4 -0.0105 0.001280979
      vertex -3.5394878E-5 -0.0105 0.0014995823
      vertex -2.3596585E-5 -0.0105 9.997216E-4
    endloop
  endfacet
  facet normal -0.0 1.0 -0.0
    outer loop
      vertex -2.3596585E-5 -0.0105 9.997216E-4
      vertex -3.5394878E-5 -0.0105 0.0014995823
      vertex 4.7942554E-4 -0.0105 8.775826E-4
    endloop
  endfacet
  facet normal 0.0 1.0 0.0
    outer loop
      vertex -3.5394878E-5 -0.0105 0.0014995823
      vertex 7.191383E-4 -0.0105 0.0013163738
      vertex 4.7942554E-4 -0.0105 8.775826E-4
    endloop
  endfacet
  facet normal -0.0 1.0 0.0
    outer loop
      vertex 4.7942554E-4 -0.0105 8.775826E-4
      vertex 7.191383E-4 -0.0105 0.0013163738
      vertex 8.5398596E-4 -0.0105 5.2029605E-4
    endloop
  endfacet
  facet normal 0.0 1.0 0.0
    outer loop
      vertex 7.191383E-4 -0.0105 0.0013163738
      vertex 0.001280979 -0.0105 7.80444E-4
      vertex 8.5398596E-4 -0.0105 5.2029605E-4
    endloop
  endfacet
  facet normal -0.0 1.0 0.0
    outer loop
      vertex 8.5398596E-4 -0.0105 5.2029605E-4
      vertex 0.001280979 -0.0105 7.80444E-4
      vertex 9.997216E-4 -0.0105 2.3596585E-5
    endloop
  endfacet
  facet normal 0.0 1.0 0.0
    outer loop
      vertex 0.001280979 -0.0105 7.80444E-4
      vertex 0.0014995823 -0.0105 3.5394878E-5
      vertex 9.997216E-4 -0.0105 2.3596585E-5
    endloop
  endfacet
  facet normal -0.0 1.0 0.0
    outer loop
      vertex 9.997216E-4 -0.0105 2.3596585E-5
      vertex 0.0014995823 -0.0105 3.5394878E-5
      vertex 8.775826E-4 -0.0105 -4.7942554E-4
    endloop
  endfacet
  facet normal 0.0 1.0 0.0
    outer loop
      vertex 0.0014995823 -0.0105 3.5394878E-5
      vertex 0.0013163738 -0.0105 -7.191383E-4
      vertex 8.775826E-4 -0.0105 -4.7942554E-4
    endloop
  endfacet
  facet normal 0.0 1.0 0.0
    outer loop
      vertex 8.775826E-4 -0.0105 -4.7942554E-4
      vertex 0.0013163738 -0.0105 -7.191383E-4
      vertex 5.2029605E-4 -0.0105 -8.5398596E-4
    endloop
  endfacet
  facet normal 0.0 1.0 0.0
    outer loop
      vertex 0.0013163738 -0.0105 -7.191383E-4
      vertex 7.80444E-4 -0.0105 -0.001280979
      vertex 5.2029605E-4 -0.0105 -8.5398596E-4
    endloop
  endfacet
  facet normal 0.0 1.0 0.0
    outer loop
      vertex 5.2029605E-4 -0.0105 -8.5398596E-4
      vertex 7.80444E-4 -0.0105 -0.001280979
      vertex 2.3596585E-5 -0.0105 -9.997216E-4
    endloop
  endfacet
  facet normal 0.0 1.0 0.0
    outer loop
      vertex 7.80444E-4 -0.0105 -0.001280979
      vertex 3.5394878E-5 -0.0105 -0.0014995823
      vertex 2.3596585E-5 -0.0105 -9.997216E-4
    endloop
  endfacet
  facet normal 0.0 1.0 0.0
    outer loop
      vertex 2.3596585E-5 -0.0105 -9.997216E-4
      vertex 3.5394878E-5 -0.0105 -0.0014995823
      vertex -8.3266725E-19 -0.0105 -0.001
    endloop
  endfacet
  facet normal 0.0 1.0 0.0
    outer loop
      vertex 3.5394878E-5 -0.0105 -0.0014995823
      vertex -2.4980017E-19 -0.0105 -0.0015
      vertex -8.3266725E-19 -0.0105 -0.001
    endloop
  endfacet
  facet normal 0.0 -1.0 0.0
    outer loop
      vertex 2.9259765E-5 -0.0115 -0.0012396547
      vertex 3.5394878E-5 -0.0115 -0.0014995823
      vertex 6.451671E-4 -0.0115 -0.0010589426
    endloop
  endfacet
  facet normal 0.0 -1.0 0.0
    outer loop
      vertex 3.5394878E-5 -0.0115 -0.0014995823
      vertex 7.80444E-4 -0.0115 -0.001280979
      vertex 6.451671E-4 -0.0115 -0.0010589426
    endloop
  endfacet
  facet normal 0.0 -1.0 0.0
    outer loop
      vertex 6.451671E-4 -0.0115 -0.0010589426
      vertex 7.80444E-4 -0.0115 -0.001280979
      vertex 0.0010882023 -0.0115 -5.9448765E-4
    endloop
  endfacet
  facet normal 0.0 -1.0 0.0
    outer loop
      vertex 7.80444E-4 -0.0115 -0.001280979
      vertex 0.0013163738 -0.0115 -7.191383E-4
      vertex 0.0010882023 -0.0115 -5.9448765E-4
    endloop
  endfacet
  facet normal 0.0 -1.0 0.0
    outer loop
      vertex 0.0010882023 -0.0115 -5.9448765E-4
      vertex 0.0013163738 -0.0115 -7.191383E-4
      vertex 0.0012396547 -0.0115 2.9259765E-5
    endloop
  endfacet
  facet normal 0.0 -1.0 0.0
    outer loop
      vertex 0.0013163738 -0.0115 -7.191383E-4
      vertex 0.0014995823 -0.0115 3.5394878E-5
      vertex 0.0012396547 -0.0115 2.9259765E-5
    endloop
  endfacet
  facet normal 0.0 -1.0 0.0
    outer loop
      vertex 0.0012396547 -0.0115 2.9259765E-5
      vertex 0.0014995823 -0.0115 3.5394878E-5
      vertex 0.0010589426 -0.0115 6.451671E-4
    endloop
  endfacet
  facet normal 0.0 -1.0 0.0
    outer loop
      vertex 0.0014995823 -0.0115 3.5394878E-5
      vertex 0.001280979 -0.0115 7.80444E-4
      vertex 0.0010589426 -0.0115 6.451671E-4
    endloop
  endfacet
  facet normal 0.0 -1.0 0.0
    outer loop
      vertex 0.0010589426 -0.0115 6.451671E-4
      vertex 0.001280979 -0.0115 7.80444E-4
      vertex 5.9448765E-4 -0.0115 0.0010882023
    endloop
  endfacet
  facet normal 0.0 -1.0 0.0
    outer loop
      vertex 0.001280979 -0.0115 7.80444E-4
      vertex 7.191383E-4 -0.0115 0.0013163738
      vertex 5.9448765E-4 -0.0115 0.0010882023
    endloop
  endfacet
  facet normal 0.0 -1.0 0.0
    outer loop
      vertex 5.9448765E-4 -0.0115 0.0010882023
      vertex 7.191383E-4 -0.0115 0.0013163738
      vertex -2.9259765E-5 -0.0115 0.0012396547
    endloop
  endfacet
  facet normal -0.0 -1.0 0.0
    outer loop
      vertex 7.191383E-4 -0.0115 0.0013163738
      vertex -3.5394878E-5 -0.0115 0.0014995823
      vertex -2.9259765E-5 -0.0115 0.0012396547
    endloop
  endfacet
  facet normal -0.0 -1.0 0.0
    outer loop
      vertex -2.9259765E-5 -0.0115 0.0012396547
      vertex -3.5394878E-5 -0.0115 0.0014995823
      vertex -6.451671E-4 -0.0115 0.0010589426
    endloop
  endfacet
  facet normal 0.0 -1.0 0.0
    outer loop
      vertex -3.5394878E-5 -0.0115 0.0014995823
      vertex -7.80444E-4 -0.0115 0.001280979
      vertex -6.451671E-4 -0.0115 0.0010589426
    endloop
  endfacet
  facet normal -0.0 -1.0 0.0
    outer loop
      vertex -6.451671E-4 -0.0115 0.0010589426
      vertex -7.80444E-4 -0.0115 0.001280979
      vertex -0.0010882023 -0.0115 5.9448765E-4
    endloop
  endfacet
  facet normal 0.0 -1.0 0.0
    outer loop
      vertex -7.80444E-4 -0.0115 0.001280979
      vertex -0.0013163738 -0.0115 7.191383E-4
      vertex -0.0010882023 -0.0115 5.9448765E-4
    endloop
  endfacet
  facet normal -0.0 -1.0 0.0
    outer loop
      vertex -0.0010882023 -0.0115 5.9448765E-4
      vertex -0.0013163738 -0.0115 7.191383E-4
      vertex -0.0012396547 -0.0115 -2.9259765E-5
    endloop
  endfacet
  facet normal 0.0 -1.0 -0.0
    outer loop
      vertex -0.0013163738 -0.0115 7.191383E-4
      vertex -0.0014995823 -0.0115 -3.5394878E-5
      vertex -0.0012396547 -0.0115 -2.9259765E-5
    endloop
  endfacet
  facet normal 0.0 -1.0 -0.0
    outer loop
      vertex -0.0012396547 -0.0115 -2.9259765E-5
      vertex -0.0014995823 -0.0115 -3.5394878E-5
      vertex -0.0010589426 -0.0115 -6.451671E-4
    endloop
  endfacet
  facet normal 0.0 -1.0 0.0
    outer loop
      vertex -0.0014995823 -0.0115 -3.5394878E-5
      vertex -0.001280979 -0.0115 -7.80444E-4
      vertex -0.0010589426 -0.0115 -6.451671E-4
    endloop
  endfacet
  facet normal 0.0 -1.0 -0.0
    outer loop
      vertex -0.0010589426 -0.0115 -6.451671E-4
      vertex -0.001280979 -0.0115 -7.80444E-4
      vertex -5.9448765E-4 -0.0115 -0.0010882023
    endloop
  endfacet
  facet normal 0.0 -1.0 0.0
    outer loop
      vertex -0.001280979 -0.0115 -7.80444E-4
      vertex -7.191383E-4 -0.0115 -0.0013163738
      vertex -5.9448765E-4 -0.0115 -0.0010882023
    endloop
  endfacet
  facet normal 0.0 -1.0 -0.0
    outer loop
      vertex -5.9448765E-4 -0.0115 -0.0010882023
      vertex -7.191383E-4 -0.0115 -0.0013163738
      vertex -2.0650148E-19 -0.0115 -0.00124
    endloop
  endfacet
  facet normal 0.0 -1.0 0.0
    outer loop
      vertex -7.191383E-4 -0.0115 -0.0013163738
      vertex -1.249001E-18 -0.0115 -0.0015
      vertex -2.0650148E-19 -0.0115 -0.00124
    endloop
  endfacet
  facet normal 0.0 -1.0 -0.0
    outer loop
      vertex -2.0650148E-19 -0.0115 -0.00124
      vertex -1.249001E-18 -0.0115 -0.0015
      vertex 2.9259765E-5 -0.0115 -0.0012396547
    endloop
  endfacet
  facet normal 0.0 -1.0 0.0
    outer loop
      vertex -1.249001E-18 -0.0115 -0.0015
      vertex 3.5394878E-5 -0.0115 -0.0014995823
      vertex 2.9259765E-5 -0.0115 -0.0012396547
    endloop
  endfacet
  facet normal -0.0 -1.0 0.0
    outer loop
      vertex -3.0003847E-19 -0.0193 7.0E-4
      vertex -5.3149673E-19 -0.0193 0.00124
      vertex -1.651761E-5 -0.0193 6.998051E-4
    endloop
  endfacet
  facet normal 0.0 -1.0 0.0
    outer loop
      vertex -5.3149673E-19 -0.0193 0.00124
      vertex -2.9259765E-5 -0.0193 0.0012396547
      vertex -1.651761E-5 -0.0193 6.998051E-4
    endloop
  endfacet
  facet normal -0.0 -1.0 0.0
    outer loop
      vertex -1.651761E-5 -0.0193 6.998051E-4
      vertex -2.9259765E-5 -0.0193 0.0012396547
      vertex -3.6420723E-4 -0.0193 5.977902E-4
    endloop
  endfacet
  facet normal 0.0 -1.0 0.0
    outer loop
      vertex -2.9259765E-5 -0.0193 0.0012396547
      vertex -6.451671E-4 -0.0193 0.0010589426
      vertex -3.6420723E-4 -0.0193 5.977902E-4
    endloop
  endfacet
  facet normal -0.0 -1.0 0.0
    outer loop
      vertex -3.6420723E-4 -0.0193 5.977902E-4
      vertex -6.451671E-4 -0.0193 0.0010589426
      vertex -6.143078E-4 -0.0193 3.3559787E-4
    endloop
  endfacet
  facet normal 0.0 -1.0 -0.0
    outer loop
      vertex -6.451671E-4 -0.0193 0.0010589426
      vertex -0.0010882023 -0.0193 5.9448765E-4
      vertex -6.143078E-4 -0.0193 3.3559787E-4
    endloop
  endfacet
  facet normal -0.0 -1.0 0.0
    outer loop
      vertex -6.143078E-4 -0.0193 3.3559787E-4
      vertex -0.0010882023 -0.0193 5.9448765E-4
      vertex -6.998051E-4 -0.0193 -1.651761E-5
    endloop
  endfacet
  facet normal 0.0 -1.0 -0.0
    outer loop
      vertex -0.0010882023 -0.0193 5.9448765E-4
      vertex -0.0012396547 -0.0193 -2.9259765E-5
      vertex -6.998051E-4 -0.0193 -1.651761E-5
    endloop
  endfacet
  facet normal 0.0 -1.0 -0.0
    outer loop
      vertex -6.998051E-4 -0.0193 -1.651761E-5
      vertex -0.0012396547 -0.0193 -2.9259765E-5
      vertex -5.977902E-4 -0.0193 -3.6420723E-4
    endloop
  endfacet
  facet normal 0.0 -1.0 0.0
    outer loop
      vertex -0.0012396547 -0.0193 -2.9259765E-5
      vertex -0.0010589426 -0.0193 -6.451671E-4
      vertex -5.977902E-4 -0.0193 -3.6420723E-4
    endloop
  endfacet
  facet normal 0.0 -1.0 -0.0
    outer loop
      vertex -5.977902E-4 -0.0193 -3.6420723E-4
      vertex -0.0010589426 -0.0193 -6.451671E-4
      vertex -3.3559787E-4 -0.0193 -6.143078E-4
    endloop
  endfacet
  facet normal 0.0 -1.0 0.0
    outer loop
      vertex -0.0010589426 -0.0193 -6.451671E-4
      vertex -5.9448765E-4 -0.0193 -0.0010882023
      vertex -3.3559787E-4 -0.0193 -6.143078E-4
    endloop
  endfacet
  facet normal 0.0 -1.0 -0.0
    outer loop
      vertex -3.3559787E-4 -0.0193 -6.143078E-4
      vertex -5.9448765E-4 -0.0193 -0.0010882023
      vertex 8.3603806E-19 -0.0193 -7.0E-4
    endloop
  endfacet
  facet normal 0.0 -1.0 0.0
    outer loop
      vertex -5.9448765E-4 -0.0193 -0.0010882023
      vertex 3.7964051E-19 -0.0193 -0.00124
      vertex 8.3603806E-19 -0.0193 -7.0E-4
    endloop
  endfacet
  facet normal 0.011798706566164564 -1.1800219553636553E-18 -0.9999303928391045
    outer loop
      vertex 0.0 -0.0163 7.0E-4
      vertex -3.0003847E-19 -0.0193 7.0E-4
      vertex -1.651761E-5 -0.0193 6.998051E-4
    endloop
  endfacet
  facet normal 0.24740394601828816 4.590501636068108E-17 0.9689124250904102
    outer loop
      vertex -3.3559787E-4 -0.014843322 -6.143078E-4
      vertex 1.5543122E-19 -0.0163 -7.0E-4
      vertex -1.1657341E-19 -0.014843322 -7.0E-4
    endloop
  endfacet
  facet normal -0.011798706566164458 -2.2031655685114617E-18 0.9999303928391043
    outer loop
      vertex 1.5543122E-19 -0.0163 -7.0E-4
      vertex 1.651761E-5 -0.0163 -6.998051E-4
      vertex -1.1657341E-19 -0.014843322 -7.0E-4
    endloop
  endfacet
  facet normal -0.23595443324295384 0.0 -0.9717641202642732
    outer loop
      vertex -1.651761E-5 -0.014843322 6.998051E-4
      vertex 3.3559787E-4 -0.014843322 6.143078E-4
      vertex 3.3559787E-4 -0.0163 6.143078E-4
    endloop
  endfacet
  facet normal -0.6902245477073486 0.0 -0.7235952416525318
    outer loop
      vertex 3.3559787E-4 -0.0163 6.143078E-4
      vertex 3.3559787E-4 -0.014843322 6.143078E-4
      vertex 5.977902E-4 -0.0163 3.6420723E-4
    endloop
  endfacet
  facet normal -0.6902245477073486 0.0 -0.7235952416525318
    outer loop
      vertex 3.3559787E-4 -0.014843322 6.143078E-4
      vertex 5.977902E-4 -0.014843322 3.6420723E-4
      vertex 5.977902E-4 -0.0163 3.6420723E-4
    endloop
  endfacet
  facet normal -0.9595496401245394 0.0 -0.2815394965841685
    outer loop
      vertex 5.977902E-4 -0.0163 3.6420723E-4
      vertex 5.977902E-4 -0.014843322 3.6420723E-4
      vertex 6.998051E-4 -0.0163 1.651761E-5
    endloop
  endfacet
  facet normal -0.9595496401245394 0.0 -0.2815394965841685
    outer loop
      vertex 5.977902E-4 -0.014843322 3.6420723E-4
      vertex 6.998051E-4 -0.014843322 1.651761E-5
      vertex 6.998051E-4 -0.0163 1.651761E-5
    endloop
  endfacet
  facet normal -0.9717641202642732 0.0 0.23595443324295384
    outer loop
      vertex 6.998051E-4 -0.0163 1.651761E-5
      vertex 6.998051E-4 -0.014843322 1.651761E-5
      vertex 6.143078E-4 -0.0163 -3.3559787E-4
    endloop
  endfacet
  facet normal -0.9717641202642732 0.0 0.23595443324295384
    outer loop
      vertex 6.998051E-4 -0.014843322 1.651761E-5
      vertex 6.143078E-4 -0.014843322 -3.3559787E-4
      vertex 6.143078E-4 -0.0163 -3.3559787E-4
    endloop
  endfacet
  facet normal -0.7235952416525318 0.0 0.6902245477073486
    outer loop
      vertex 6.143078E-4 -0.0163 -3.3559787E-4
      vertex 6.143078E-4 -0.014843322 -3.3559787E-4
      vertex 3.6420723E-4 -0.0163 -5.977902E-4
    endloop
  endfacet
  facet normal -0.7235952416525318 0.0 0.6902245477073486
    outer loop
      vertex 6.143078E-4 -0.014843322 -3.3559787E-4
      vertex 3.6420723E-4 -0.014843322 -5.977902E-4
      vertex 3.6420723E-4 -0.0163 -5.977902E-4
    endloop
  endfacet
  facet normal -0.2815394965841685 0.0 0.9595496401245394
    outer loop
      vertex 3.6420723E-4 -0.0163 -5.977902E-4
      vertex 3.6420723E-4 -0.014843322 -5.977902E-4
      vertex 1.651761E-5 -0.0163 -6.998051E-4
    endloop
  endfacet
  facet normal -0.2815394965841685 0.0 0.9595496401245394
    outer loop
      vertex 3.6420723E-4 -0.014843322 -5.977902E-4
      vertex 1.651761E-5 -0.014843322 -6.998051E-4
      vertex 1.651761E-5 -0.0163 -6.998051E-4
    endloop
  endfacet
  facet normal -0.011798706566164266 0.0 0.9999303928391043
    outer loop
      vertex 1.651761E-5 -0.0163 -6.998051E-4
      vertex 1.651761E-5 -0.014843322 -6.998051E-4
      vertex -1.1657341E-19 -0.014843322 -7.0E-4
    endloop
  endfacet
  facet normal 0.24740394601828755 5.612827263434571E-17 0.9689124250904104
    outer loop
      vertex 8.3603806E-19 -0.0193 -7.0E-4
      vertex 1.5543122E-19 -0.0163 -7.0E-4
      vertex -3.3559787E-4 -0.0193 -6.143078E-4
    endloop
  endfacet
  facet normal 0.247403946018288 0.0 0.9689124250904103
    outer loop
      vertex 1.5543122E-19 -0.0163 -7.0E-4
      vertex -3.3559787E-4 -0.014843322 -6.143078E-4
      vertex -3.3559787E-4 -0.0193 -6.143078E-4
    endloop
  endfacet
  facet normal 0.6902245477073488 -0.0 0.7235952416525318
    outer loop
      vertex -3.3559787E-4 -0.0193 -6.143078E-4
      vertex -3.3559787E-4 -0.014843322 -6.143078E-4
      vertex -5.977902E-4 -0.0193 -3.6420723E-4
    endloop
  endfacet
  facet normal 0.6902245477073488 0.0 0.7235952416525318
    outer loop
      vertex -3.3559787E-4 -0.014843322 -6.143078E-4
      vertex -5.977902E-4 -0.014843322 -3.6420723E-4
      vertex -5.977902E-4 -0.0193 -3.6420723E-4
    endloop
  endfacet
  facet normal 0.9595496401245395 -0.0 0.28153949658416855
    outer loop
      vertex -5.977902E-4 -0.0193 -3.6420723E-4
      vertex -5.977902E-4 -0.014843322 -3.6420723E-4
      vertex -6.998051E-4 -0.0193 -1.651761E-5
    endloop
  endfacet
  facet normal 0.9595496401245395 0.0 0.28153949658416855
    outer loop
      vertex -5.977902E-4 -0.014843322 -3.6420723E-4
      vertex -6.998051E-4 -0.014843322 -1.651761E-5
      vertex -6.998051E-4 -0.0193 -1.651761E-5
    endloop
  endfacet
  facet normal 0.971764120264273 0.0 -0.23595443324295381
    outer loop
      vertex -6.998051E-4 -0.0193 -1.651761E-5
      vertex -6.998051E-4 -0.014843322 -1.651761E-5
      vertex -6.143078E-4 -0.0193 3.3559787E-4
    endloop
  endfacet
  facet normal 0.971764120264273 0.0 -0.23595443324295381
    outer loop
      vertex -6.998051E-4 -0.014843322 -1.651761E-5
      vertex -6.143078E-4 -0.014843322 3.3559787E-4
      vertex -6.143078E-4 -0.0193 3.3559787E-4
    endloop
  endfacet
  facet normal 0.7235952416525318 0.0 -0.6902245477073488
    outer loop
      vertex -6.143078E-4 -0.0193 3.3559787E-4
      vertex -6.143078E-4 -0.014843322 3.3559787E-4
      vertex -3.6420723E-4 -0.0193 5.977902E-4
    endloop
  endfacet
  facet normal 0.7235952416525318 0.0 -0.6902245477073488
    outer loop
      vertex -6.143078E-4 -0.014843322 3.3559787E-4
      vertex -3.6420723E-4 -0.014843322 5.977902E-4
      vertex -3.6420723E-4 -0.0193 5.977902E-4
    endloop
  endfacet
  facet normal 0.28153949658416855 0.0 -0.9595496401245395
    outer loop
      vertex -3.6420723E-4 -0.0193 5.977902E-4
      vertex -3.6420723E-4 -0.014843322 5.977902E-4
      vertex -1.651761E-5 -0.0193 6.998051E-4
    endloop
  endfacet
  facet normal 0.28153949658416855 0.0 -0.9595496401245395
    outer loop
      vertex -3.6420723E-4 -0.014843322 5.977902E-4
      vertex -1.651761E-5 -0.014843322 6.998051E-4
      vertex -1.651761E-5 -0.0193 6.998051E-4
    endloop
  endfacet
  facet normal 0.011798706566164349 0.0 -0.9999303928391045
    outer loop
      vertex -1.651761E-5 -0.0193 6.998051E-4
      vertex -1.651761E-5 -0.014843322 6.998051E-4
      vertex 0.0 -0.0163 7.0E-4
    endloop
  endfacet
  facet normal -0.24740288042206668 -0.002934996279190873 -0.9689082518771867
    outer loop
      vertex -1.651761E-5 -0.014843322 6.998051E-4
      vertex 3.3559787E-4 -0.0163 6.143078E-4
      vertex 0.0 -0.0163 7.0E-4
    endloop
  endfacet
endsolid Connector_5521_DC00990B_4
