solid DIFF_ARM5t_x1_1
  facet normal 0.060000003768552905 0.0 -0.9981983768509011
    outer loop
      vertex 7.5E-4 0.005 -0.01247748
      vertex 0.1253 0.005 -0.0049909917
      vertex 7.5E-4 0.0 -0.01247748
    endloop
  endfacet
  facet normal 0.060000003768552905 0.0 -0.9981983768509011
    outer loop
      vertex 0.1253 0.005 -0.0049909917
      vertex 0.1253 0.0 -0.0049909917
      vertex 7.5E-4 0.0 -0.01247748
    endloop
  endfacet
  facet normal 0.060000003768552905 0.0 0.9981983768509011
    outer loop
      vertex 0.1253 0.005 0.0049909917
      vertex 7.5E-4 0.005 0.01247748
      vertex 0.1253 0.0 0.0049909917
    endloop
  endfacet
  facet normal 0.060000003768552905 0.0 0.9981983768509011
    outer loop
      vertex 7.5E-4 0.005 0.01247748
      vertex 7.5E-4 0.0 0.01247748
      vertex 0.1253 0.0 0.0049909917
    endloop
  endfacet
  facet normal 0.30680031973007205 0.0 0.9517739037258406
    outer loop
      vertex 0.1253 0.005 0.0049909917
      vertex 0.1253 0.0 0.0049909917
      vertex 0.12767126 0.0 0.004226626
    endloop
  endfacet
  facet normal 0.30680031973007205 0.0 0.9517739037258406
    outer loop
      vertex 0.1253 0.005 0.0049909917
      vertex 0.12767126 0.0 0.004226626
      vertex 0.12767126 0.005 0.004226626
    endloop
  endfacet
  facet normal 0.7280102255060608 -0.0 0.6855662707270643
    outer loop
      vertex 0.12767126 0.0 0.004226626
      vertex 0.12937929 0.0 0.0024128505
      vertex 0.12767126 0.005 0.004226626
    endloop
  endfacet
  facet normal 0.7280102255060608 0.0 0.6855662707270643
    outer loop
      vertex 0.12767126 0.005 0.004226626
      vertex 0.12937929 0.0 0.0024128505
      vertex 0.12937929 0.005 0.0024128505
    endloop
  endfacet
  facet normal 0.9684674926879063 -0.0 0.24913995184795212
    outer loop
      vertex 0.12937929 0.0 0.0024128505
      vertex 0.13 0.0 1.0755286E-18
      vertex 0.12937929 0.005 0.0024128505
    endloop
  endfacet
  facet normal 0.9684674926879063 0.0 0.24913995184795212
    outer loop
      vertex 0.12937929 0.005 0.0024128505
      vertex 0.13 0.0 1.0755286E-18
      vertex 0.13 0.005 1.0755286E-18
    endloop
  endfacet
  facet normal 0.9684674926879066 0.0 -0.249139951847952
    outer loop
      vertex 0.13 0.0 1.0755286E-18
      vertex 0.12937929 0.0 -0.0024128505
      vertex 0.13 0.005 1.0755286E-18
    endloop
  endfacet
  facet normal 0.9684674926879066 0.0 -0.249139951847952
    outer loop
      vertex 0.13 0.005 1.0755286E-18
      vertex 0.12937929 0.0 -0.0024128505
      vertex 0.12937929 0.005 -0.0024128505
    endloop
  endfacet
  facet normal 0.7280102255060608 0.0 -0.6855662707270643
    outer loop
      vertex 0.12937929 0.0 -0.0024128505
      vertex 0.12767126 0.0 -0.004226626
      vertex 0.12937929 0.005 -0.0024128505
    endloop
  endfacet
  facet normal 0.7280102255060608 0.0 -0.6855662707270643
    outer loop
      vertex 0.12937929 0.005 -0.0024128505
      vertex 0.12767126 0.0 -0.004226626
      vertex 0.12767126 0.005 -0.004226626
    endloop
  endfacet
  facet normal 0.30680031973007205 0.0 -0.9517739037258406
    outer loop
      vertex 0.12767126 0.0 -0.004226626
      vertex 0.1253 0.0 -0.0049909917
      vertex 0.12767126 0.005 -0.004226626
    endloop
  endfacet
  facet normal 0.30680031973007205 0.0 -0.9517739037258406
    outer loop
      vertex 0.12767126 0.005 -0.004226626
      vertex 0.1253 0.0 -0.0049909917
      vertex 0.1253 0.005 -0.0049909917
    endloop
  endfacet
  facet normal 0.0 0.0 -1.0
    outer loop
      vertex -7.5E-4 0.005 -0.01247748
      vertex 7.5E-4 0.005 -0.01247748
      vertex -7.5E-4 0.0 -0.01247748
    endloop
  endfacet
  facet normal 0.0 -0.0 -1.0
    outer loop
      vertex 7.5E-4 0.005 -0.01247748
      vertex 7.5E-4 0.0 -0.01247748
      vertex -7.5E-4 0.0 -0.01247748
    endloop
  endfacet
  facet normal 0.0 0.0 1.0
    outer loop
      vertex 7.5E-4 0.005 0.01247748
      vertex -7.5E-4 0.005 0.01247748
      vertex 7.5E-4 0.0 0.01247748
    endloop
  endfacet
  facet normal 0.0 0.0 1.0
    outer loop
      vertex -7.5E-4 0.005 0.01247748
      vertex -7.5E-4 0.0 0.01247748
      vertex 7.5E-4 0.0 0.01247748
    endloop
  endfacet
  facet normal 0.0 1.0 -0.0
    outer loop
      vertex 0.12370096 0.005 7.5E-4
      vertex 7.5E-4 0.005 0.01247748
      vertex 0.12425 0.005 0.0012990381
    endloop
  endfacet
  facet normal 0.0 1.0 0.0
    outer loop
      vertex 7.5E-4 0.005 0.01247748
      vertex 0.1253 0.005 0.0049909917
      vertex 0.12425 0.005 0.0012990381
    endloop
  endfacet
  facet normal 0.0 1.0 -0.0
    outer loop
      vertex 0.018700961 0.005 7.5E-4
      vertex -7.5E-4 0.005 0.01247748
      vertex 0.01925 0.005 0.0012990381
    endloop
  endfacet
  facet normal -0.0 1.0 0.0
    outer loop
      vertex -7.5E-4 0.005 0.01247748
      vertex 7.5E-4 0.005 0.01247748
      vertex 0.01925 0.005 0.0012990381
    endloop
  endfacet
  facet normal 0.0 1.0 -0.0
    outer loop
      vertex 0.01925 0.005 0.0012990381
      vertex 7.5E-4 0.005 0.01247748
      vertex 0.02 0.005 0.0015
    endloop
  endfacet
  facet normal 0.0 1.0 0.0
    outer loop
      vertex 7.5E-4 0.005 0.01247748
      vertex 0.12370096 0.005 7.5E-4
      vertex 0.02 0.005 0.0015
    endloop
  endfacet
  facet normal 0.0 1.0 0.0
    outer loop
      vertex 0.02 0.005 0.0015
      vertex 0.12370096 0.005 7.5E-4
      vertex 0.02075 0.005 0.0012990381
    endloop
  endfacet
  facet normal 0.0 1.0 -0.0
    outer loop
      vertex 0.12682319 0.005 -0.0045
      vertex 0.125 0.005 -0.0015
      vertex 0.12767126 0.005 -0.004226626
    endloop
  endfacet
  facet normal -0.0 1.0 0.0
    outer loop
      vertex 0.125 0.005 -0.0015
      vertex 0.12575 0.005 -0.0012990381
      vertex 0.12767126 0.005 -0.004226626
    endloop
  endfacet
  facet normal 0.0 1.0 -0.0
    outer loop
      vertex 0.12767126 0.005 -0.004226626
      vertex 0.12575 0.005 -0.0012990381
      vertex 0.12937929 0.005 -0.0024128505
    endloop
  endfacet
  facet normal -0.0 1.0 0.0
    outer loop
      vertex 0.12575 0.005 -0.0012990381
      vertex 0.12629904 0.005 -7.5E-4
      vertex 0.12937929 0.005 -0.0024128505
    endloop
  endfacet
  facet normal 0.0 1.0 -0.0
    outer loop
      vertex 0.12937929 0.005 -0.0024128505
      vertex 0.12629904 0.005 -7.5E-4
      vertex 0.13 0.005 1.0755286E-18
    endloop
  endfacet
  facet normal 0.0 1.0 0.0
    outer loop
      vertex 0.12629904 0.005 -7.5E-4
      vertex 0.1265 0.005 -8.4983083E-19
      vertex 0.13 0.005 1.0755286E-18
    endloop
  endfacet
  facet normal 0.0 1.0 0.0
    outer loop
      vertex 0.13 0.005 1.0755286E-18
      vertex 0.1265 0.005 -8.4983083E-19
      vertex 0.12937929 0.005 0.0024128505
    endloop
  endfacet
  facet normal 0.0 1.0 -0.0
    outer loop
      vertex 0.1265 0.005 -8.4983083E-19
      vertex 0.12629904 0.005 7.5E-4
      vertex 0.12937929 0.005 0.0024128505
    endloop
  endfacet
  facet normal 0.0 1.0 0.0
    outer loop
      vertex 0.12937929 0.005 0.0024128505
      vertex 0.12629904 0.005 7.5E-4
      vertex 0.12767126 0.005 0.004226626
    endloop
  endfacet
  facet normal 0.0 1.0 -0.0
    outer loop
      vertex 0.12629904 0.005 7.5E-4
      vertex 0.12575 0.005 0.0012990381
      vertex 0.12767126 0.005 0.004226626
    endloop
  endfacet
  facet normal 0.0 1.0 0.0
    outer loop
      vertex 0.12767126 0.005 0.004226626
      vertex 0.12575 0.005 0.0012990381
      vertex 0.1253 0.005 0.0049909917
    endloop
  endfacet
  facet normal 0.0 1.0 0.0
    outer loop
      vertex 0.12575 0.005 0.0012990381
      vertex 0.125 0.005 0.0015
      vertex 0.1253 0.005 0.0049909917
    endloop
  endfacet
  facet normal 0.0 1.0 0.0
    outer loop
      vertex 0.1253 0.005 0.0049909917
      vertex 0.125 0.005 0.0015
      vertex 0.12425 0.005 0.0012990381
    endloop
  endfacet
  facet normal 0.0 1.0 0.0
    outer loop
      vertex 0.01925 0.005 -0.0012990381
      vertex 0.02 0.005 -0.0015
      vertex 0.0057451907 0.005 -0.0045
    endloop
  endfacet
  facet normal -0.0 1.0 0.0
    outer loop
      vertex 0.02 0.005 -0.0015
      vertex 0.12370096 0.005 -7.5E-4
      vertex 0.0057451907 0.005 -0.0045
    endloop
  endfacet
  facet normal 0.0 1.0 0.0
    outer loop
      vertex 0.0057451907 0.005 -0.0045
      vertex 0.12370096 0.005 -7.5E-4
      vertex 0.12425 0.005 -0.0012990381
    endloop
  endfacet
  facet normal 0.0 1.0 0.0
    outer loop
      vertex 0.02 0.005 -0.0015
      vertex 0.02075 0.005 -0.0012990381
      vertex 0.12370096 0.005 -7.5E-4
    endloop
  endfacet
  facet normal 0.0 1.0 0.0
    outer loop
      vertex 0.02075 0.005 -0.0012990381
      vertex 0.021299038 0.005 -7.5E-4
      vertex 0.12370096 0.005 -7.5E-4
    endloop
  endfacet
  facet normal 0.0 1.0 0.0
    outer loop
      vertex 0.12370096 0.005 -7.5E-4
      vertex 0.021299038 0.005 -7.5E-4
      vertex 0.1235 0.005 0.0
    endloop
  endfacet
  facet normal 0.0 1.0 0.0
    outer loop
      vertex 0.021299038 0.005 -7.5E-4
      vertex 0.0215 0.005 -8.4983083E-19
      vertex 0.1235 0.005 0.0
    endloop
  endfacet
  facet normal 0.0 1.0 -0.0
    outer loop
      vertex 0.1235 0.005 0.0
      vertex 0.0215 0.005 -8.4983083E-19
      vertex 0.12370096 0.005 7.5E-4
    endloop
  endfacet
  facet normal 0.0 1.0 -0.0
    outer loop
      vertex 0.0215 0.005 -8.4983083E-19
      vertex 0.021299038 0.005 7.5E-4
      vertex 0.12370096 0.005 7.5E-4
    endloop
  endfacet
  facet normal 0.0 1.0 0.0
    outer loop
      vertex 0.12370096 0.005 7.5E-4
      vertex 0.021299038 0.005 7.5E-4
      vertex 0.02075 0.005 0.0012990381
    endloop
  endfacet
  facet normal 0.0 1.0 0.0
    outer loop
      vertex 0.01925 0.005 -0.0012990381
      vertex 0.0057451907 0.005 -0.0045
      vertex 0.018700961 0.005 -7.5E-4
    endloop
  endfacet
  facet normal 0.0 1.0 0.0
    outer loop
      vertex 0.0057451907 0.005 -0.0045
      vertex 0.0064951903 0.005 -0.00375
      vertex 0.018700961 0.005 -7.5E-4
    endloop
  endfacet
  facet normal 0.0 1.0 0.0
    outer loop
      vertex 0.018700961 0.005 -7.5E-4
      vertex 0.0064951903 0.005 -0.00375
      vertex 0.0185 0.005 0.0
    endloop
  endfacet
  facet normal 0.0 1.0 0.0
    outer loop
      vertex 0.0064951903 0.005 -0.00375
      vertex 0.0075 0.005 1.8369702E-18
      vertex 0.0185 0.005 0.0
    endloop
  endfacet
  facet normal 0.0 1.0 -0.0
    outer loop
      vertex 0.0185 0.005 0.0
      vertex 0.0075 0.005 1.8369702E-18
      vertex 0.018700961 0.005 7.5E-4
    endloop
  endfacet
  facet normal 0.0 1.0 -0.0
    outer loop
      vertex 0.0075 0.005 1.8369702E-18
      vertex 0.0064951903 0.005 0.00375
      vertex 0.018700961 0.005 7.5E-4
    endloop
  endfacet
  facet normal -0.0 1.0 -0.0
    outer loop
      vertex 0.0064951903 0.005 0.00375
      vertex 0.00375 0.005 0.0064951903
      vertex 0.018700961 0.005 7.5E-4
    endloop
  endfacet
  facet normal 0.0 1.0 0.0
    outer loop
      vertex 0.018700961 0.005 7.5E-4
      vertex 0.00375 0.005 0.0064951903
      vertex -7.5E-4 0.005 0.01247748
    endloop
  endfacet
  facet normal 0.0 1.0 0.0
    outer loop
      vertex 0.00375 0.005 0.0064951903
      vertex -8.039066E-18 0.005 0.0075
      vertex -7.5E-4 0.005 0.01247748
    endloop
  endfacet
  facet normal 0.0 1.0 0.0
    outer loop
      vertex -7.5E-4 0.005 0.01247748
      vertex -8.039066E-18 0.005 0.0075
      vertex -0.013 0.005 0.011741153
    endloop
  endfacet
  facet normal 0.0 1.0 0.0
    outer loop
      vertex -8.039066E-18 0.005 0.0075
      vertex -0.00375 0.005 0.0064951903
      vertex -0.013 0.005 0.011741153
    endloop
  endfacet
  facet normal 0.0 1.0 0.0
    outer loop
      vertex -0.00375 0.005 0.0064951903
      vertex -0.0064951903 0.005 0.00375
      vertex -0.013 0.005 0.011741153
    endloop
  endfacet
  facet normal 0.0 1.0 0.0
    outer loop
      vertex -0.013 0.005 0.011741153
      vertex -0.0064951903 0.005 0.00375
      vertex -0.013 0.005 -0.0045
    endloop
  endfacet
  facet normal 0.0 1.0 0.0
    outer loop
      vertex -0.0064951903 0.005 0.00375
      vertex -0.0075 0.005 -4.249154E-18
      vertex -0.013 0.005 -0.0045
    endloop
  endfacet
  facet normal 0.0 1.0 0.0
    outer loop
      vertex -0.0075 0.005 -4.249154E-18
      vertex -0.0064951903 0.005 -0.00375
      vertex -0.013 0.005 -0.0045
    endloop
  endfacet
  facet normal 0.0 1.0 0.0
    outer loop
      vertex -0.0064951903 0.005 -0.00375
      vertex -0.0057451907 0.005 -0.0045
      vertex -0.013 0.005 -0.0045
    endloop
  endfacet
  facet normal -0.0 1.0 0.0
    outer loop
      vertex -0.013 0.005 -0.0045
      vertex -0.0057451907 0.005 -0.0045
      vertex -0.013 0.005 -0.011741153
    endloop
  endfacet
  facet normal 0.0 1.0 0.0
    outer loop
      vertex -0.0057451907 0.005 -0.0045
      vertex -0.00375 0.005 -0.0064951903
      vertex -0.013 0.005 -0.011741153
    endloop
  endfacet
  facet normal -0.0 1.0 0.0
    outer loop
      vertex -0.013 0.005 -0.011741153
      vertex -0.00375 0.005 -0.0064951903
      vertex -7.5E-4 0.005 -0.01247748
    endloop
  endfacet
  facet normal 0.0 1.0 0.0
    outer loop
      vertex -0.00375 0.005 -0.0064951903
      vertex 2.124577E-18 0.005 -0.0075
      vertex -7.5E-4 0.005 -0.01247748
    endloop
  endfacet
  facet normal 0.0 1.0 0.0
    outer loop
      vertex -7.5E-4 0.005 -0.01247748
      vertex 2.124577E-18 0.005 -0.0075
      vertex 7.5E-4 0.005 -0.01247748
    endloop
  endfacet
  facet normal -0.0 1.0 0.0
    outer loop
      vertex 2.124577E-18 0.005 -0.0075
      vertex 0.00375 0.005 -0.0064951903
      vertex 7.5E-4 0.005 -0.01247748
    endloop
  endfacet
  facet normal 0.0 1.0 0.0
    outer loop
      vertex 7.5E-4 0.005 -0.01247748
      vertex 0.00375 0.005 -0.0064951903
      vertex 0.1253 0.005 -0.0049909917
    endloop
  endfacet
  facet normal 0.0 1.0 0.0
    outer loop
      vertex 0.00375 0.005 -0.0064951903
      vertex 0.0057451907 0.005 -0.0045
      vertex 0.1253 0.005 -0.0049909917
    endloop
  endfacet
  facet normal 0.0 1.0 -0.0
    outer loop
      vertex 0.1253 0.005 -0.0049909917
      vertex 0.0057451907 0.005 -0.0045
      vertex 0.12682319 0.005 -0.0045
    endloop
  endfacet
  facet normal 0.0 1.0 0.0
    outer loop
      vertex 0.0057451907 0.005 -0.0045
      vertex 0.12425 0.005 -0.0012990381
      vertex 0.12682319 0.005 -0.0045
    endloop
  endfacet
  facet normal 0.0 1.0 0.0
    outer loop
      vertex 0.12682319 0.005 -0.0045
      vertex 0.12425 0.005 -0.0012990381
      vertex 0.125 0.005 -0.0015
    endloop
  endfacet
  facet normal -0.0 1.0 0.0
    outer loop
      vertex -0.1253 0.005 0.0049909917
      vertex -0.013 0.005 0.011741153
      vertex -0.12370096 0.005 7.5E-4
    endloop
  endfacet
  facet normal 0.0 1.0 0.0
    outer loop
      vertex -0.0215 0.005 -8.4983083E-19
      vertex -0.125 0.005 -0.0015
      vertex -0.12425 0.005 -0.0012990381
    endloop
  endfacet
  facet normal 0.0 1.0 0.0
    outer loop
      vertex -0.021299038 0.005 -7.5E-4
      vertex -0.02075 0.005 -0.0012990381
      vertex -0.12682319 0.005 -0.0045
    endloop
  endfacet
  facet normal 0.0 1.0 0.0
    outer loop
      vertex -0.12425 0.005 -0.0012990381
      vertex -0.12370096 0.005 -7.5E-4
      vertex -0.0215 0.005 -8.4983083E-19
    endloop
  endfacet
  facet normal 0.0 1.0 0.0
    outer loop
      vertex -0.12370096 0.005 -7.5E-4
      vertex -0.1235 0.005 3.6739403E-19
      vertex -0.0215 0.005 -8.4983083E-19
    endloop
  endfacet
  facet normal 0.0 1.0 -0.0
    outer loop
      vertex -0.0215 0.005 -8.4983083E-19
      vertex -0.1235 0.005 3.6739403E-19
      vertex -0.021299038 0.005 7.5E-4
    endloop
  endfacet
  facet normal 0.0 1.0 -0.0
    outer loop
      vertex -0.1235 0.005 3.6739403E-19
      vertex -0.12370096 0.005 7.5E-4
      vertex -0.021299038 0.005 7.5E-4
    endloop
  endfacet
  facet normal 0.0 1.0 -0.0
    outer loop
      vertex -0.021299038 0.005 7.5E-4
      vertex -0.12370096 0.005 7.5E-4
      vertex -0.02075 0.005 0.0012990381
    endloop
  endfacet
  facet normal 0.0 1.0 0.0
    outer loop
      vertex -0.12370096 0.005 7.5E-4
      vertex -0.013 0.005 0.011741153
      vertex -0.02075 0.005 0.0012990381
    endloop
  endfacet
  facet normal 0.0 1.0 0.0
    outer loop
      vertex -0.02075 0.005 0.0012990381
      vertex -0.013 0.005 0.011741153
      vertex -0.02 0.005 0.0015
    endloop
  endfacet
  facet normal 0.0 1.0 0.0
    outer loop
      vertex -0.013 0.005 0.011741153
      vertex -0.01925 0.005 0.0012990381
      vertex -0.02 0.005 0.0015
    endloop
  endfacet
  facet normal 0.0 1.0 0.0
    outer loop
      vertex -0.013 0.005 -0.0045
      vertex -0.02 0.005 -0.0015
      vertex -0.01925 0.005 -0.0012990381
    endloop
  endfacet
  facet normal -0.0 1.0 0.0
    outer loop
      vertex -0.01925 0.005 -0.0012990381
      vertex -0.018700961 0.005 -7.5E-4
      vertex -0.013 0.005 -0.0045
    endloop
  endfacet
  facet normal -0.0 1.0 0.0
    outer loop
      vertex -0.018700961 0.005 -7.5E-4
      vertex -0.0185 0.005 3.6739403E-19
      vertex -0.013 0.005 -0.0045
    endloop
  endfacet
  facet normal 0.0 1.0 -0.0
    outer loop
      vertex -0.013 0.005 -0.0045
      vertex -0.0185 0.005 3.6739403E-19
      vertex -0.013 0.005 0.011741153
    endloop
  endfacet
  facet normal 0.0 1.0 -0.0
    outer loop
      vertex -0.0185 0.005 3.6739403E-19
      vertex -0.018700961 0.005 7.5E-4
      vertex -0.013 0.005 0.011741153
    endloop
  endfacet
  facet normal 0.0 1.0 0.0
    outer loop
      vertex -0.013 0.005 0.011741153
      vertex -0.018700961 0.005 7.5E-4
      vertex -0.01925 0.005 0.0012990381
    endloop
  endfacet
  facet normal 0.0 1.0 0.0
    outer loop
      vertex -0.0215 0.005 -8.4983083E-19
      vertex -0.021299038 0.005 -7.5E-4
      vertex -0.125 0.005 -0.0015
    endloop
  endfacet
  facet normal 0.0 1.0 0.0
    outer loop
      vertex -0.021299038 0.005 -7.5E-4
      vertex -0.12682319 0.005 -0.0045
      vertex -0.125 0.005 -0.0015
    endloop
  endfacet
  facet normal 0.0 1.0 0.0
    outer loop
      vertex -0.125 0.005 -0.0015
      vertex -0.12682319 0.005 -0.0045
      vertex -0.12575 0.005 -0.0012990381
    endloop
  endfacet
  facet normal 0.0 1.0 -0.0
    outer loop
      vertex -0.12682319 0.005 -0.0045
      vertex -0.12767126 0.005 -0.004226626
      vertex -0.12575 0.005 -0.0012990381
    endloop
  endfacet
  facet normal 0.0 1.0 0.0
    outer loop
      vertex -0.12575 0.005 -0.0012990381
      vertex -0.12767126 0.005 -0.004226626
      vertex -0.12629904 0.005 -7.5E-4
    endloop
  endfacet
  facet normal 0.0 1.0 -0.0
    outer loop
      vertex -0.12767126 0.005 -0.004226626
      vertex -0.12937929 0.005 -0.0024128505
      vertex -0.12629904 0.005 -7.5E-4
    endloop
  endfacet
  facet normal 0.0 1.0 0.0
    outer loop
      vertex -0.12629904 0.005 -7.5E-4
      vertex -0.12937929 0.005 -0.0024128505
      vertex -0.1265 0.005 -8.4983083E-19
    endloop
  endfacet
  facet normal 0.0 1.0 -0.0
    outer loop
      vertex -0.12937929 0.005 -0.0024128505
      vertex -0.13 0.005 -3.469447E-20
      vertex -0.1265 0.005 -8.4983083E-19
    endloop
  endfacet
  facet normal 0.0 1.0 -0.0
    outer loop
      vertex -0.1265 0.005 -8.4983083E-19
      vertex -0.13 0.005 -3.469447E-20
      vertex -0.12629904 0.005 7.5E-4
    endloop
  endfacet
  facet normal 0.0 1.0 0.0
    outer loop
      vertex -0.13 0.005 -3.469447E-20
      vertex -0.12937929 0.005 0.0024128505
      vertex -0.12629904 0.005 7.5E-4
    endloop
  endfacet
  facet normal 0.0 1.0 -0.0
    outer loop
      vertex -0.12629904 0.005 7.5E-4
      vertex -0.12937929 0.005 0.0024128505
      vertex -0.12575 0.005 0.0012990381
    endloop
  endfacet
  facet normal -0.0 1.0 0.0
    outer loop
      vertex -0.12937929 0.005 0.0024128505
      vertex -0.12767126 0.005 0.004226626
      vertex -0.12575 0.005 0.0012990381
    endloop
  endfacet
  facet normal 0.0 1.0 -0.0
    outer loop
      vertex -0.12575 0.005 0.0012990381
      vertex -0.12767126 0.005 0.004226626
      vertex -0.125 0.005 0.0015
    endloop
  endfacet
  facet normal -0.0 1.0 0.0
    outer loop
      vertex -0.12767126 0.005 0.004226626
      vertex -0.1253 0.005 0.0049909917
      vertex -0.125 0.005 0.0015
    endloop
  endfacet
  facet normal -0.0 1.0 -0.0
    outer loop
      vertex -0.125 0.005 0.0015
      vertex -0.1253 0.005 0.0049909917
      vertex -0.12425 0.005 0.0012990381
    endloop
  endfacet
  facet normal 0.0 1.0 0.0
    outer loop
      vertex -0.1253 0.005 0.0049909917
      vertex -0.12370096 0.005 7.5E-4
      vertex -0.12425 0.005 0.0012990381
    endloop
  endfacet
  facet normal 0.0 1.0 0.0
    outer loop
      vertex -0.02075 0.005 -0.0012990381
      vertex -0.02 0.005 -0.0015
      vertex -0.12682319 0.005 -0.0045
    endloop
  endfacet
  facet normal 0.0 1.0 0.0
    outer loop
      vertex -0.02 0.005 -0.0015
      vertex -0.013 0.005 -0.0045
      vertex -0.12682319 0.005 -0.0045
    endloop
  endfacet
  facet normal -0.0 1.0 0.0
    outer loop
      vertex -0.12682319 0.005 -0.0045
      vertex -0.013 0.005 -0.0045
      vertex -0.1253 0.005 -0.0049909917
    endloop
  endfacet
  facet normal 0.0 1.0 0.0
    outer loop
      vertex -0.013 0.005 -0.0045
      vertex -0.013 0.005 -0.011741153
      vertex -0.1253 0.005 -0.0049909917
    endloop
  endfacet
  facet normal -0.9659261142385609 -1.901763544059662E-17 0.25881797045799326
    outer loop
      vertex -0.0185 0.0 0.0
      vertex -0.0185 0.005 3.6739403E-19
      vertex -0.018700961 0.0 -7.5E-4
    endloop
  endfacet
  facet normal -0.9659261142385609 0.0 0.25881797045799315
    outer loop
      vertex -0.0185 0.005 3.6739403E-19
      vertex -0.018700961 0.005 -7.5E-4
      vertex -0.018700961 0.0 -7.5E-4
    endloop
  endfacet
  facet normal -0.7071062016312826 0.0 0.7071073607413376
    outer loop
      vertex -0.018700961 0.0 -7.5E-4
      vertex -0.018700961 0.005 -7.5E-4
      vertex -0.01925 0.0 -0.0012990381
    endloop
  endfacet
  facet normal -0.7071062016312826 0.0 0.7071073607413376
    outer loop
      vertex -0.018700961 0.005 -7.5E-4
      vertex -0.01925 0.005 -0.0012990381
      vertex -0.01925 0.0 -0.0012990381
    endloop
  endfacet
  facet normal -0.2588190519237522 0.0 0.9659258244613248
    outer loop
      vertex -0.01925 0.0 -0.0012990381
      vertex -0.01925 0.005 -0.0012990381
      vertex -0.02 0.0 -0.0015
    endloop
  endfacet
  facet normal -0.2588190519237522 0.0 0.9659258244613248
    outer loop
      vertex -0.01925 0.005 -0.0012990381
      vertex -0.02 0.005 -0.0015
      vertex -0.02 0.0 -0.0015
    endloop
  endfacet
  facet normal 0.2588190519237522 -0.0 0.9659258244613248
    outer loop
      vertex -0.02 0.0 -0.0015
      vertex -0.02 0.005 -0.0015
      vertex -0.02075 0.0 -0.0012990381
    endloop
  endfacet
  facet normal 0.2588190519237522 0.0 0.9659258244613248
    outer loop
      vertex -0.02 0.005 -0.0015
      vertex -0.02075 0.005 -0.0012990381
      vertex -0.02075 0.0 -0.0012990381
    endloop
  endfacet
  facet normal 0.7071068455816074 -0.0 0.707106716791482
    outer loop
      vertex -0.02075 0.0 -0.0012990381
      vertex -0.02075 0.005 -0.0012990381
      vertex -0.021299038 0.0 -7.5E-4
    endloop
  endfacet
  facet normal 0.7071068455816074 0.0 0.707106716791482
    outer loop
      vertex -0.02075 0.005 -0.0012990381
      vertex -0.021299038 0.005 -7.5E-4
      vertex -0.021299038 0.0 -7.5E-4
    endloop
  endfacet
  facet normal 0.9659257922637904 -0.0 0.2588191720865534
    outer loop
      vertex -0.021299038 0.0 -7.5E-4
      vertex -0.021299038 0.005 -7.5E-4
      vertex -0.0215 0.0 -8.4983083E-19
    endloop
  endfacet
  facet normal 0.9659257922637904 0.0 0.2588191720865534
    outer loop
      vertex -0.021299038 0.005 -7.5E-4
      vertex -0.0215 0.005 -8.4983083E-19
      vertex -0.0215 0.0 -8.4983083E-19
    endloop
  endfacet
  facet normal 0.9659257922637905 0.0 -0.25881917208655286
    outer loop
      vertex -0.0215 0.0 -8.4983083E-19
      vertex -0.0215 0.005 -8.4983083E-19
      vertex -0.021299038 0.0 7.5E-4
    endloop
  endfacet
  facet normal 0.9659257922637905 0.0 -0.25881917208655286
    outer loop
      vertex -0.0215 0.005 -8.4983083E-19
      vertex -0.021299038 0.005 7.5E-4
      vertex -0.021299038 0.0 7.5E-4
    endloop
  endfacet
  facet normal 0.7071068455816074 0.0 -0.707106716791482
    outer loop
      vertex -0.021299038 0.0 7.5E-4
      vertex -0.021299038 0.005 7.5E-4
      vertex -0.02075 0.0 0.0012990381
    endloop
  endfacet
  facet normal 0.7071068455816074 0.0 -0.707106716791482
    outer loop
      vertex -0.021299038 0.005 7.5E-4
      vertex -0.02075 0.005 0.0012990381
      vertex -0.02075 0.0 0.0012990381
    endloop
  endfacet
  facet normal 0.2588190519237522 0.0 -0.9659258244613248
    outer loop
      vertex -0.02075 0.0 0.0012990381
      vertex -0.02075 0.005 0.0012990381
      vertex -0.02 0.0 0.0015
    endloop
  endfacet
  facet normal 0.2588190519237522 0.0 -0.9659258244613248
    outer loop
      vertex -0.02075 0.005 0.0012990381
      vertex -0.02 0.005 0.0015
      vertex -0.02 0.0 0.0015
    endloop
  endfacet
  facet normal -0.2588190519237522 0.0 -0.9659258244613248
    outer loop
      vertex -0.02 0.0 0.0015
      vertex -0.02 0.005 0.0015
      vertex -0.01925 0.0 0.0012990381
    endloop
  endfacet
  facet normal -0.2588190519237522 0.0 -0.9659258244613248
    outer loop
      vertex -0.02 0.005 0.0015
      vertex -0.01925 0.005 0.0012990381
      vertex -0.01925 0.0 0.0012990381
    endloop
  endfacet
  facet normal -0.7071062016312826 0.0 -0.7071073607413376
    outer loop
      vertex -0.01925 0.0 0.0012990381
      vertex -0.01925 0.005 0.0012990381
      vertex -0.018700961 0.0 7.5E-4
    endloop
  endfacet
  facet normal -0.7071062016312826 0.0 -0.7071073607413376
    outer loop
      vertex -0.01925 0.005 0.0012990381
      vertex -0.018700961 0.005 7.5E-4
      vertex -0.018700961 0.0 7.5E-4
    endloop
  endfacet
  facet normal -0.9659261142385609 0.0 -0.25881797045799326
    outer loop
      vertex -0.018700961 0.0 7.5E-4
      vertex -0.018700961 0.005 7.5E-4
      vertex -0.0185 0.0 0.0
    endloop
  endfacet
  facet normal -0.9659261142385609 2.0454281084334564E-17 -0.2588179704579934
    outer loop
      vertex -0.018700961 0.005 7.5E-4
      vertex -0.0185 0.005 3.6739403E-19
      vertex -0.0185 0.0 0.0
    endloop
  endfacet
  facet normal -0.9659264362120512 -1.901754714627649E-17 0.2588167688282318
    outer loop
      vertex -0.1235 0.0 0.0
      vertex -0.1235 0.005 3.6739403E-19
      vertex -0.12370096 0.0 -7.5E-4
    endloop
  endfacet
  facet normal -0.9659264362120512 0.0 0.2588167688282317
    outer loop
      vertex -0.1235 0.005 3.6739403E-19
      vertex -0.12370096 0.005 -7.5E-4
      vertex -0.12370096 0.0 -7.5E-4
    endloop
  endfacet
  facet normal -0.7071055576815463 0.0 0.7071080046894317
    outer loop
      vertex -0.12370096 0.0 -7.5E-4
      vertex -0.12370096 0.005 -7.5E-4
      vertex -0.12425 0.0 -0.0012990381
    endloop
  endfacet
  facet normal -0.7071055576815463 0.0 0.7071080046894317
    outer loop
      vertex -0.12370096 0.005 -7.5E-4
      vertex -0.12425 0.005 -0.0012990381
      vertex -0.12425 0.0 -0.0012990381
    endloop
  endfacet
  facet normal -0.2588190519237522 0.0 0.9659258244613248
    outer loop
      vertex -0.12425 0.0 -0.0012990381
      vertex -0.12425 0.005 -0.0012990381
      vertex -0.125 0.0 -0.0015
    endloop
  endfacet
  facet normal -0.2588190519237522 0.0 0.9659258244613248
    outer loop
      vertex -0.12425 0.005 -0.0012990381
      vertex -0.125 0.005 -0.0015
      vertex -0.125 0.0 -0.0015
    endloop
  endfacet
  facet normal 0.2588190519237522 -0.0 0.9659258244613248
    outer loop
      vertex -0.125 0.0 -0.0015
      vertex -0.125 0.005 -0.0015
      vertex -0.12575 0.0 -0.0012990381
    endloop
  endfacet
  facet normal 0.2588190519237522 0.0 0.9659258244613248
    outer loop
      vertex -0.125 0.005 -0.0015
      vertex -0.12575 0.005 -0.0012990381
      vertex -0.12575 0.0 -0.0012990381
    endloop
  endfacet
  facet normal 0.7071055576815463 -0.0 0.7071080046894317
    outer loop
      vertex -0.12575 0.0 -0.0012990381
      vertex -0.12575 0.005 -0.0012990381
      vertex -0.12629904 0.0 -7.5E-4
    endloop
  endfacet
  facet normal 0.7071055576815463 0.0 0.7071080046894317
    outer loop
      vertex -0.12575 0.005 -0.0012990381
      vertex -0.12629904 0.005 -7.5E-4
      vertex -0.12629904 0.0 -7.5E-4
    endloop
  endfacet
  facet normal 0.965926436212051 -0.0 0.258816768828232
    outer loop
      vertex -0.12629904 0.0 -7.5E-4
      vertex -0.12629904 0.005 -7.5E-4
      vertex -0.1265 0.0 -8.4983083E-19
    endloop
  endfacet
  facet normal 0.965926436212051 0.0 0.258816768828232
    outer loop
      vertex -0.12629904 0.005 -7.5E-4
      vertex -0.1265 0.005 -8.4983083E-19
      vertex -0.1265 0.0 -8.4983083E-19
    endloop
  endfacet
  facet normal 0.9659264362120513 0.0 -0.2588167688282315
    outer loop
      vertex -0.1265 0.0 -8.4983083E-19
      vertex -0.1265 0.005 -8.4983083E-19
      vertex -0.12629904 0.0 7.5E-4
    endloop
  endfacet
  facet normal 0.9659264362120513 0.0 -0.2588167688282315
    outer loop
      vertex -0.1265 0.005 -8.4983083E-19
      vertex -0.12629904 0.005 7.5E-4
      vertex -0.12629904 0.0 7.5E-4
    endloop
  endfacet
  facet normal 0.7071055576815463 0.0 -0.7071080046894317
    outer loop
      vertex -0.12629904 0.0 7.5E-4
      vertex -0.12629904 0.005 7.5E-4
      vertex -0.12575 0.0 0.0012990381
    endloop
  endfacet
  facet normal 0.7071055576815463 0.0 -0.7071080046894317
    outer loop
      vertex -0.12629904 0.005 7.5E-4
      vertex -0.12575 0.005 0.0012990381
      vertex -0.12575 0.0 0.0012990381
    endloop
  endfacet
  facet normal 0.2588190519237522 0.0 -0.9659258244613248
    outer loop
      vertex -0.12575 0.0 0.0012990381
      vertex -0.12575 0.005 0.0012990381
      vertex -0.125 0.0 0.0015
    endloop
  endfacet
  facet normal 0.2588190519237522 0.0 -0.9659258244613248
    outer loop
      vertex -0.12575 0.005 0.0012990381
      vertex -0.125 0.005 0.0015
      vertex -0.125 0.0 0.0015
    endloop
  endfacet
  facet normal -0.2588190519237522 0.0 -0.9659258244613248
    outer loop
      vertex -0.125 0.0 0.0015
      vertex -0.125 0.005 0.0015
      vertex -0.12425 0.0 0.0012990381
    endloop
  endfacet
  facet normal -0.2588190519237522 0.0 -0.9659258244613248
    outer loop
      vertex -0.125 0.005 0.0015
      vertex -0.12425 0.005 0.0012990381
      vertex -0.12425 0.0 0.0012990381
    endloop
  endfacet
  facet normal -0.7071055576815463 0.0 -0.7071080046894317
    outer loop
      vertex -0.12425 0.0 0.0012990381
      vertex -0.12425 0.005 0.0012990381
      vertex -0.12370096 0.0 7.5E-4
    endloop
  endfacet
  facet normal -0.7071055576815463 0.0 -0.7071080046894317
    outer loop
      vertex -0.12425 0.005 0.0012990381
      vertex -0.12370096 0.005 7.5E-4
      vertex -0.12370096 0.0 7.5E-4
    endloop
  endfacet
  facet normal -0.9659264362120512 0.0 -0.2588167688282318
    outer loop
      vertex -0.12370096 0.0 7.5E-4
      vertex -0.12370096 0.005 7.5E-4
      vertex -0.1235 0.0 0.0
    endloop
  endfacet
  facet normal -0.965926436212051 1.3636191934925614E-17 -0.25881676882823185
    outer loop
      vertex -0.12370096 0.005 7.5E-4
      vertex -0.1235 0.005 3.6739403E-19
      vertex -0.1235 0.0 0.0
    endloop
  endfacet
  facet normal -0.9659258115823124 -9.508859477407657E-17 0.25881909998887453
    outer loop
      vertex 0.0075 0.0 0.0
      vertex 0.0075 0.005 1.8369702E-18
      vertex 0.0064951903 0.0 -0.00375
    endloop
  endfacet
  facet normal -0.9659258115823124 0.0 0.2588190999888744
    outer loop
      vertex 0.0075 0.005 1.8369702E-18
      vertex 0.0064951903 0.005 -0.00375
      vertex 0.0064951903 0.0 -0.00375
    endloop
  endfacet
  facet normal -0.7071067811865476 0.0 0.7071067811865476
    outer loop
      vertex 0.0064951903 0.0 -0.00375
      vertex 0.0064951903 0.005 -0.00375
      vertex 0.00375 0.0 -0.0064951903
    endloop
  endfacet
  facet normal -0.7071067811865476 0.0 0.7071067811865476
    outer loop
      vertex 0.0064951903 0.005 -0.00375
      vertex 0.00375 0.005 -0.0064951903
      vertex 0.00375 0.0 -0.0064951903
    endloop
  endfacet
  facet normal -0.2588190999888747 0.0 0.9659258115823124
    outer loop
      vertex 0.00375 0.0 -0.0064951903
      vertex 0.00375 0.005 -0.0064951903
      vertex 2.124577E-18 0.0 -0.0075
    endloop
  endfacet
  facet normal -0.2588190999888747 0.0 0.9659258115823124
    outer loop
      vertex 0.00375 0.005 -0.0064951903
      vertex 2.124577E-18 0.005 -0.0075
      vertex 2.124577E-18 0.0 -0.0075
    endloop
  endfacet
  facet normal 0.25881909998887437 -0.0 0.9659258115823124
    outer loop
      vertex 2.124577E-18 0.0 -0.0075
      vertex 2.124577E-18 0.005 -0.0075
      vertex -0.00375 0.0 -0.0064951903
    endloop
  endfacet
  facet normal 0.25881909998887437 0.0 0.9659258115823124
    outer loop
      vertex 2.124577E-18 0.005 -0.0075
      vertex -0.00375 0.005 -0.0064951903
      vertex -0.00375 0.0 -0.0064951903
    endloop
  endfacet
  facet normal 0.7071067811865476 -0.0 0.7071067811865476
    outer loop
      vertex -0.00375 0.0 -0.0064951903
      vertex -0.00375 0.005 -0.0064951903
      vertex -0.0064951903 0.0 -0.00375
    endloop
  endfacet
  facet normal 0.7071067811865476 0.0 0.7071067811865476
    outer loop
      vertex -0.00375 0.005 -0.0064951903
      vertex -0.0064951903 0.005 -0.00375
      vertex -0.0064951903 0.0 -0.00375
    endloop
  endfacet
  facet normal 0.9659258115823124 -0.0 0.2588190999888748
    outer loop
      vertex -0.0064951903 0.0 -0.00375
      vertex -0.0064951903 0.005 -0.00375
      vertex -0.0075 0.0 -4.249154E-18
    endloop
  endfacet
  facet normal 0.9659258115823124 0.0 0.2588190999888748
    outer loop
      vertex -0.0064951903 0.005 -0.00375
      vertex -0.0075 0.005 -4.249154E-18
      vertex -0.0075 0.0 -4.249154E-18
    endloop
  endfacet
  facet normal 0.9659258115823126 0.0 -0.2588190999888743
    outer loop
      vertex -0.0075 0.0 -4.249154E-18
      vertex -0.0075 0.005 -4.249154E-18
      vertex -0.0064951903 0.0 0.00375
    endloop
  endfacet
  facet normal 0.9659258115823126 0.0 -0.2588190999888743
    outer loop
      vertex -0.0075 0.005 -4.249154E-18
      vertex -0.0064951903 0.005 0.00375
      vertex -0.0064951903 0.0 0.00375
    endloop
  endfacet
  facet normal 0.7071067811865476 0.0 -0.7071067811865476
    outer loop
      vertex -0.0064951903 0.0 0.00375
      vertex -0.0064951903 0.005 0.00375
      vertex -0.00375 0.0 0.0064951903
    endloop
  endfacet
  facet normal 0.7071067811865476 0.0 -0.7071067811865476
    outer loop
      vertex -0.0064951903 0.005 0.00375
      vertex -0.00375 0.005 0.0064951903
      vertex -0.00375 0.0 0.0064951903
    endloop
  endfacet
  facet normal 0.2588190999888751 0.0 -0.9659258115823124
    outer loop
      vertex -0.00375 0.0 0.0064951903
      vertex -0.00375 0.005 0.0064951903
      vertex -8.039066E-18 0.0 0.0075
    endloop
  endfacet
  facet normal 0.2588190999888751 0.0 -0.9659258115823124
    outer loop
      vertex -0.00375 0.005 0.0064951903
      vertex -8.039066E-18 0.005 0.0075
      vertex -8.039066E-18 0.0 0.0075
    endloop
  endfacet
  facet normal -0.25881909998887404 0.0 -0.9659258115823126
    outer loop
      vertex -8.039066E-18 0.0 0.0075
      vertex -8.039066E-18 0.005 0.0075
      vertex 0.00375 0.0 0.0064951903
    endloop
  endfacet
  facet normal -0.25881909998887404 0.0 -0.9659258115823126
    outer loop
      vertex -8.039066E-18 0.005 0.0075
      vertex 0.00375 0.005 0.0064951903
      vertex 0.00375 0.0 0.0064951903
    endloop
  endfacet
  facet normal -0.7071067811865476 0.0 -0.7071067811865476
    outer loop
      vertex 0.00375 0.0 0.0064951903
      vertex 0.00375 0.005 0.0064951903
      vertex 0.0064951903 0.0 0.00375
    endloop
  endfacet
  facet normal -0.7071067811865476 0.0 -0.7071067811865476
    outer loop
      vertex 0.00375 0.005 0.0064951903
      vertex 0.0064951903 0.005 0.00375
      vertex 0.0064951903 0.0 0.00375
    endloop
  endfacet
  facet normal -0.9659258115823124 0.0 -0.25881909998887453
    outer loop
      vertex 0.0064951903 0.0 0.00375
      vertex 0.0064951903 0.005 0.00375
      vertex 0.0075 0.0 0.0
    endloop
  endfacet
  facet normal -0.9659258115823124 8.727157194811397E-17 -0.25881909998887465
    outer loop
      vertex 0.0064951903 0.005 0.00375
      vertex 0.0075 0.005 1.8369702E-18
      vertex 0.0075 0.0 0.0
    endloop
  endfacet
  facet normal -0.060000003768552905 0.0 0.9981983768509011
    outer loop
      vertex -7.5E-4 0.005 0.01247748
      vertex -0.1253 0.005 0.0049909917
      vertex -7.5E-4 0.0 0.01247748
    endloop
  endfacet
  facet normal -0.060000003768552905 0.0 0.9981983768509011
    outer loop
      vertex -0.1253 0.005 0.0049909917
      vertex -0.1253 0.0 0.0049909917
      vertex -7.5E-4 0.0 0.01247748
    endloop
  endfacet
  facet normal -0.30680031973007205 0.0 0.9517739037258406
    outer loop
      vertex -0.1253 0.0 0.0049909917
      vertex -0.1253 0.005 0.0049909917
      vertex -0.12767126 0.005 0.004226626
    endloop
  endfacet
  facet normal -0.30680031973007205 0.0 0.9517739037258406
    outer loop
      vertex -0.1253 0.0 0.0049909917
      vertex -0.12767126 0.005 0.004226626
      vertex -0.12767126 0.0 0.004226626
    endloop
  endfacet
  facet normal -0.7280102255060608 0.0 0.6855662707270643
    outer loop
      vertex -0.12767126 0.005 0.004226626
      vertex -0.12937929 0.005 0.0024128505
      vertex -0.12767126 0.0 0.004226626
    endloop
  endfacet
  facet normal -0.7280102255060608 0.0 0.6855662707270643
    outer loop
      vertex -0.12767126 0.0 0.004226626
      vertex -0.12937929 0.005 0.0024128505
      vertex -0.12937929 0.0 0.0024128505
    endloop
  endfacet
  facet normal -0.9684674926879063 0.0 0.24913995184795204
    outer loop
      vertex -0.12937929 0.005 0.0024128505
      vertex -0.13 0.005 -3.469447E-20
      vertex -0.12937929 0.0 0.0024128505
    endloop
  endfacet
  facet normal -0.9684674926879063 0.0 0.24913995184795204
    outer loop
      vertex -0.12937929 0.0 0.0024128505
      vertex -0.13 0.005 -3.469447E-20
      vertex -0.13 0.0 -3.469447E-20
    endloop
  endfacet
  facet normal -0.9684674926879063 -0.0 -0.24913995184795204
    outer loop
      vertex -0.13 0.005 -3.469447E-20
      vertex -0.12937929 0.005 -0.0024128505
      vertex -0.13 0.0 -3.469447E-20
    endloop
  endfacet
  facet normal -0.9684674926879063 0.0 -0.24913995184795204
    outer loop
      vertex -0.13 0.0 -3.469447E-20
      vertex -0.12937929 0.005 -0.0024128505
      vertex -0.12937929 0.0 -0.0024128505
    endloop
  endfacet
  facet normal -0.7280102255060608 -0.0 -0.6855662707270643
    outer loop
      vertex -0.12937929 0.005 -0.0024128505
      vertex -0.12767126 0.005 -0.004226626
      vertex -0.12937929 0.0 -0.0024128505
    endloop
  endfacet
  facet normal -0.7280102255060608 0.0 -0.6855662707270643
    outer loop
      vertex -0.12937929 0.0 -0.0024128505
      vertex -0.12767126 0.005 -0.004226626
      vertex -0.12767126 0.0 -0.004226626
    endloop
  endfacet
  facet normal -0.30680031973007205 -0.0 -0.9517739037258406
    outer loop
      vertex -0.12767126 0.005 -0.004226626
      vertex -0.1253 0.005 -0.0049909917
      vertex -0.12767126 0.0 -0.004226626
    endloop
  endfacet
  facet normal -0.30680031973007205 0.0 -0.9517739037258406
    outer loop
      vertex -0.12767126 0.0 -0.004226626
      vertex -0.1253 0.005 -0.0049909917
      vertex -0.1253 0.0 -0.0049909917
    endloop
  endfacet
  facet normal -0.060000003768552905 -0.0 -0.9981983768509011
    outer loop
      vertex -0.1253 0.005 -0.0049909917
      vertex -7.5E-4 0.005 -0.01247748
      vertex -0.1253 0.0 -0.0049909917
    endloop
  endfacet
  facet normal -0.060000003768552905 -0.0 -0.9981983768509011
    outer loop
      vertex -7.5E-4 0.005 -0.01247748
      vertex -7.5E-4 0.0 -0.01247748
      vertex -0.1253 0.0 -0.0049909917
    endloop
  endfacet
  facet normal 0.0 -1.0 0.0
    outer loop
      vertex -0.00375 0.0 -0.0064951903
      vertex -0.0057451907 0.0 -0.0045
      vertex -0.013 0.0 -0.0045
    endloop
  endfacet
  facet normal -0.0 -1.0 0.0
    outer loop
      vertex 0.12425 0.0 -0.0012990381
      vertex 0.12370096 0.0 -7.5E-4
      vertex 0.0057451907 0.0 -0.0045
    endloop
  endfacet
  facet normal 0.0 -1.0 0.0
    outer loop
      vertex 0.12370096 0.0 -7.5E-4
      vertex 0.02075 0.0 -0.0012990381
      vertex 0.02 0.0 -0.0015
    endloop
  endfacet
  facet normal 0.0 -1.0 0.0
    outer loop
      vertex 0.12370096 0.0 -7.5E-4
      vertex 0.02 0.0 -0.0015
      vertex 0.0057451907 0.0 -0.0045
    endloop
  endfacet
  facet normal -0.0 -1.0 0.0
    outer loop
      vertex 0.02 0.0 -0.0015
      vertex 0.01925 0.0 -0.0012990381
      vertex 0.0057451907 0.0 -0.0045
    endloop
  endfacet
  facet normal 0.0 -1.0 0.0
    outer loop
      vertex 0.0057451907 0.0 -0.0045
      vertex 0.01925 0.0 -0.0012990381
      vertex 0.018700961 0.0 -7.5E-4
    endloop
  endfacet
  facet normal -0.0 -1.0 -0.0
    outer loop
      vertex 7.5E-4 0.0 0.01247748
      vertex -7.5E-4 0.0 0.01247748
      vertex 0.018700961 0.0 7.5E-4
    endloop
  endfacet
  facet normal -0.0 -1.0 0.0
    outer loop
      vertex 0.12370096 0.0 7.5E-4
      vertex 0.021299038 0.0 7.5E-4
      vertex 0.1235 0.0 3.6739403E-19
    endloop
  endfacet
  facet normal 0.0 -1.0 0.0
    outer loop
      vertex 0.021299038 0.0 7.5E-4
      vertex 0.0215 0.0 -8.4983083E-19
      vertex 0.1235 0.0 3.6739403E-19
    endloop
  endfacet
  facet normal 0.0 -1.0 -0.0
    outer loop
      vertex 0.1235 0.0 3.6739403E-19
      vertex 0.0215 0.0 -8.4983083E-19
      vertex 0.12370096 0.0 -7.5E-4
    endloop
  endfacet
  facet normal 0.0 -1.0 -0.0
    outer loop
      vertex 0.0215 0.0 -8.4983083E-19
      vertex 0.021299038 0.0 -7.5E-4
      vertex 0.12370096 0.0 -7.5E-4
    endloop
  endfacet
  facet normal -0.0 -1.0 0.0
    outer loop
      vertex 0.12370096 0.0 -7.5E-4
      vertex 0.021299038 0.0 -7.5E-4
      vertex 0.02075 0.0 -0.0012990381
    endloop
  endfacet
  facet normal -0.0 -1.0 0.0
    outer loop
      vertex 0.1253 0.0 0.0049909917
      vertex 7.5E-4 0.0 0.01247748
      vertex 0.12370096 0.0 7.5E-4
    endloop
  endfacet
  facet normal 0.0 -1.0 0.0
    outer loop
      vertex 0.018700961 0.0 7.5E-4
      vertex 0.01925 0.0 0.0012990381
      vertex 7.5E-4 0.0 0.01247748
    endloop
  endfacet
  facet normal 0.0 -1.0 0.0
    outer loop
      vertex 0.01925 0.0 0.0012990381
      vertex 0.02 0.0 0.0015
      vertex 7.5E-4 0.0 0.01247748
    endloop
  endfacet
  facet normal 0.0 -1.0 0.0
    outer loop
      vertex 7.5E-4 0.0 0.01247748
      vertex 0.02 0.0 0.0015
      vertex 0.12370096 0.0 7.5E-4
    endloop
  endfacet
  facet normal 0.0 -1.0 0.0
    outer loop
      vertex 0.02 0.0 0.0015
      vertex 0.02075 0.0 0.0012990381
      vertex 0.12370096 0.0 7.5E-4
    endloop
  endfacet
  facet normal 0.0 -1.0 0.0
    outer loop
      vertex 0.12370096 0.0 7.5E-4
      vertex 0.02075 0.0 0.0012990381
      vertex 0.021299038 0.0 7.5E-4
    endloop
  endfacet
  facet normal 0.0 -1.0 0.0
    outer loop
      vertex 0.125 0.0 -0.0015
      vertex 0.12682319 0.0 -0.0045
      vertex 0.12575 0.0 -0.0012990381
    endloop
  endfacet
  facet normal 0.0 -1.0 0.0
    outer loop
      vertex 0.12682319 0.0 -0.0045
      vertex 0.12767126 0.0 -0.004226626
      vertex 0.12575 0.0 -0.0012990381
    endloop
  endfacet
  facet normal 0.0 -1.0 0.0
    outer loop
      vertex 0.12575 0.0 -0.0012990381
      vertex 0.12767126 0.0 -0.004226626
      vertex 0.12629904 0.0 -7.5E-4
    endloop
  endfacet
  facet normal 0.0 -1.0 0.0
    outer loop
      vertex 0.12767126 0.0 -0.004226626
      vertex 0.12937929 0.0 -0.0024128505
      vertex 0.12629904 0.0 -7.5E-4
    endloop
  endfacet
  facet normal 0.0 -1.0 0.0
    outer loop
      vertex 0.12629904 0.0 -7.5E-4
      vertex 0.12937929 0.0 -0.0024128505
      vertex 0.1265 0.0 -8.4983083E-19
    endloop
  endfacet
  facet normal 0.0 -1.0 0.0
    outer loop
      vertex 0.12937929 0.0 -0.0024128505
      vertex 0.13 0.0 1.0755286E-18
      vertex 0.1265 0.0 -8.4983083E-19
    endloop
  endfacet
  facet normal 0.0 -1.0 0.0
    outer loop
      vertex 0.1265 0.0 -8.4983083E-19
      vertex 0.13 0.0 1.0755286E-18
      vertex 0.12629904 0.0 7.5E-4
    endloop
  endfacet
  facet normal 0.0 -1.0 0.0
    outer loop
      vertex 0.13 0.0 1.0755286E-18
      vertex 0.12937929 0.0 0.0024128505
      vertex 0.12629904 0.0 7.5E-4
    endloop
  endfacet
  facet normal 0.0 -1.0 0.0
    outer loop
      vertex 0.12629904 0.0 7.5E-4
      vertex 0.12937929 0.0 0.0024128505
      vertex 0.12575 0.0 0.0012990381
    endloop
  endfacet
  facet normal -0.0 -1.0 0.0
    outer loop
      vertex 0.12937929 0.0 0.0024128505
      vertex 0.12767126 0.0 0.004226626
      vertex 0.12575 0.0 0.0012990381
    endloop
  endfacet
  facet normal 0.0 -1.0 0.0
    outer loop
      vertex 0.12575 0.0 0.0012990381
      vertex 0.12767126 0.0 0.004226626
      vertex 0.125 0.0 0.0015
    endloop
  endfacet
  facet normal -0.0 -1.0 0.0
    outer loop
      vertex 0.12767126 0.0 0.004226626
      vertex 0.1253 0.0 0.0049909917
      vertex 0.125 0.0 0.0015
    endloop
  endfacet
  facet normal -0.0 -1.0 0.0
    outer loop
      vertex 0.125 0.0 0.0015
      vertex 0.1253 0.0 0.0049909917
      vertex 0.12425 0.0 0.0012990381
    endloop
  endfacet
  facet normal 0.0 -1.0 0.0
    outer loop
      vertex 0.1253 0.0 0.0049909917
      vertex 0.12370096 0.0 7.5E-4
      vertex 0.12425 0.0 0.0012990381
    endloop
  endfacet
  facet normal 0.0 -1.0 0.0
    outer loop
      vertex -0.0057451907 0.0 -0.0045
      vertex -0.0064951903 0.0 -0.00375
      vertex -0.013 0.0 -0.0045
    endloop
  endfacet
  facet normal -0.0 -1.0 0.0
    outer loop
      vertex -0.0064951903 0.0 -0.00375
      vertex -0.0075 0.0 -4.249154E-18
      vertex -0.013 0.0 -0.0045
    endloop
  endfacet
  facet normal 0.0 -1.0 0.0
    outer loop
      vertex -0.013 0.0 -0.0045
      vertex -0.0075 0.0 -4.249154E-18
      vertex -0.013 0.0 0.011741153
    endloop
  endfacet
  facet normal 0.0 -1.0 0.0
    outer loop
      vertex -7.5E-4 0.0 0.01247748
      vertex 0.00375 0.0 0.0064951903
      vertex 0.018700961 0.0 7.5E-4
    endloop
  endfacet
  facet normal 0.0 -1.0 0.0
    outer loop
      vertex 0.00375 0.0 0.0064951903
      vertex 0.0064951903 0.0 0.00375
      vertex 0.018700961 0.0 7.5E-4
    endloop
  endfacet
  facet normal -0.0 -1.0 0.0
    outer loop
      vertex 0.018700961 0.0 7.5E-4
      vertex 0.0064951903 0.0 0.00375
      vertex 0.0185 0.0 3.6739403E-19
    endloop
  endfacet
  facet normal 0.0 -1.0 0.0
    outer loop
      vertex 0.0064951903 0.0 0.00375
      vertex 0.0075 0.0 0.0
      vertex 0.0185 0.0 3.6739403E-19
    endloop
  endfacet
  facet normal 0.0 -1.0 -0.0
    outer loop
      vertex 0.0185 0.0 3.6739403E-19
      vertex 0.0075 0.0 0.0
      vertex 0.018700961 0.0 -7.5E-4
    endloop
  endfacet
  facet normal 0.0 -1.0 -0.0
    outer loop
      vertex 0.0075 0.0 0.0
      vertex 0.0064951903 0.0 -0.00375
      vertex 0.018700961 0.0 -7.5E-4
    endloop
  endfacet
  facet normal 0.0 -1.0 0.0
    outer loop
      vertex 0.018700961 0.0 -7.5E-4
      vertex 0.0064951903 0.0 -0.00375
      vertex 0.0057451907 0.0 -0.0045
    endloop
  endfacet
  facet normal 0.0 -1.0 0.0
    outer loop
      vertex -0.0075 0.0 -4.249154E-18
      vertex -0.0064951903 0.0 0.00375
      vertex -0.013 0.0 0.011741153
    endloop
  endfacet
  facet normal 0.0 -1.0 0.0
    outer loop
      vertex -0.0064951903 0.0 0.00375
      vertex -0.00375 0.0 0.0064951903
      vertex -0.013 0.0 0.011741153
    endloop
  endfacet
  facet normal 0.0 -1.0 0.0
    outer loop
      vertex -0.013 0.0 0.011741153
      vertex -0.00375 0.0 0.0064951903
      vertex -7.5E-4 0.0 0.01247748
    endloop
  endfacet
  facet normal 0.0 -1.0 0.0
    outer loop
      vertex -0.00375 0.0 0.0064951903
      vertex -8.039066E-18 0.0 0.0075
      vertex -7.5E-4 0.0 0.01247748
    endloop
  endfacet
  facet normal 0.0 -1.0 0.0
    outer loop
      vertex -7.5E-4 0.0 0.01247748
      vertex -8.039066E-18 0.0 0.0075
      vertex 0.00375 0.0 0.0064951903
    endloop
  endfacet
  facet normal -0.0 -1.0 -0.0
    outer loop
      vertex 0.125 0.0 -0.0015
      vertex 0.12425 0.0 -0.0012990381
      vertex 0.12682319 0.0 -0.0045
    endloop
  endfacet
  facet normal 0.0 -1.0 -0.0
    outer loop
      vertex 0.12425 0.0 -0.0012990381
      vertex 0.0057451907 0.0 -0.0045
      vertex 0.12682319 0.0 -0.0045
    endloop
  endfacet
  facet normal -0.0 -1.0 0.0
    outer loop
      vertex 0.12682319 0.0 -0.0045
      vertex 0.0057451907 0.0 -0.0045
      vertex 0.1253 0.0 -0.0049909917
    endloop
  endfacet
  facet normal 0.0 -1.0 -0.0
    outer loop
      vertex 0.0057451907 0.0 -0.0045
      vertex 7.5E-4 0.0 -0.01247748
      vertex 0.1253 0.0 -0.0049909917
    endloop
  endfacet
  facet normal 0.0 -1.0 0.0
    outer loop
      vertex 0.0057451907 0.0 -0.0045
      vertex 0.00375 0.0 -0.0064951903
      vertex 7.5E-4 0.0 -0.01247748
    endloop
  endfacet
  facet normal 0.0 -1.0 0.0
    outer loop
      vertex 0.00375 0.0 -0.0064951903
      vertex 2.124577E-18 0.0 -0.0075
      vertex 7.5E-4 0.0 -0.01247748
    endloop
  endfacet
  facet normal 0.0 -1.0 0.0
    outer loop
      vertex 7.5E-4 0.0 -0.01247748
      vertex 2.124577E-18 0.0 -0.0075
      vertex -7.5E-4 0.0 -0.01247748
    endloop
  endfacet
  facet normal 0.0 -1.0 0.0
    outer loop
      vertex 2.124577E-18 0.0 -0.0075
      vertex -0.013 0.0 -0.011741153
      vertex -7.5E-4 0.0 -0.01247748
    endloop
  endfacet
  facet normal -0.0 -1.0 0.0
    outer loop
      vertex 2.124577E-18 0.0 -0.0075
      vertex -0.00375 0.0 -0.0064951903
      vertex -0.013 0.0 -0.011741153
    endloop
  endfacet
  facet normal -0.0 -1.0 0.0
    outer loop
      vertex -0.00375 0.0 -0.0064951903
      vertex -0.013 0.0 -0.0045
      vertex -0.013 0.0 -0.011741153
    endloop
  endfacet
  facet normal 0.0 -1.0 0.0
    outer loop
      vertex -0.013 0.0 -0.011741153
      vertex -0.013 0.0 -0.0045
      vertex -0.1253 0.0 -0.0049909917
    endloop
  endfacet
  facet normal -0.0 -1.0 0.0
    outer loop
      vertex -0.013 0.0 -0.0045
      vertex -0.12682319 0.0 -0.0045
      vertex -0.1253 0.0 -0.0049909917
    endloop
  endfacet
  facet normal 0.0 -1.0 0.0
    outer loop
      vertex -0.0215 0.0 -8.4983083E-19
      vertex -0.125 0.0 0.0015
      vertex -0.12425 0.0 0.0012990381
    endloop
  endfacet
  facet normal 0.0 -1.0 0.0
    outer loop
      vertex -0.02 0.0 -0.0015
      vertex -0.013 0.0 -0.0045
      vertex -0.01925 0.0 -0.0012990381
    endloop
  endfacet
  facet normal 0.0 -1.0 0.0
    outer loop
      vertex -0.013 0.0 -0.0045
      vertex -0.018700961 0.0 -7.5E-4
      vertex -0.01925 0.0 -0.0012990381
    endloop
  endfacet
  facet normal 0.0 -1.0 0.0
    outer loop
      vertex -0.12425 0.0 0.0012990381
      vertex -0.12370096 0.0 7.5E-4
      vertex -0.0215 0.0 -8.4983083E-19
    endloop
  endfacet
  facet normal 0.0 -1.0 0.0
    outer loop
      vertex -0.12370096 0.0 7.5E-4
      vertex -0.1235 0.0 0.0
      vertex -0.0215 0.0 -8.4983083E-19
    endloop
  endfacet
  facet normal -0.0 -1.0 -0.0
    outer loop
      vertex -0.0215 0.0 -8.4983083E-19
      vertex -0.1235 0.0 0.0
      vertex -0.021299038 0.0 -7.5E-4
    endloop
  endfacet
  facet normal 0.0 -1.0 -0.0
    outer loop
      vertex -0.1235 0.0 0.0
      vertex -0.12370096 0.0 -7.5E-4
      vertex -0.021299038 0.0 -7.5E-4
    endloop
  endfacet
  facet normal -0.0 -1.0 -0.0
    outer loop
      vertex -0.021299038 0.0 -7.5E-4
      vertex -0.12370096 0.0 -7.5E-4
      vertex -0.02075 0.0 -0.0012990381
    endloop
  endfacet
  facet normal -0.0 -1.0 0.0
    outer loop
      vertex -0.02 0.0 0.0015
      vertex -0.013 0.0 0.011741153
      vertex -0.02075 0.0 0.0012990381
    endloop
  endfacet
  facet normal 0.0 -1.0 0.0
    outer loop
      vertex -0.013 0.0 0.011741153
      vertex -0.1253 0.0 0.0049909917
      vertex -0.02075 0.0 0.0012990381
    endloop
  endfacet
  facet normal -0.0 -1.0 0.0
    outer loop
      vertex -0.02075 0.0 0.0012990381
      vertex -0.1253 0.0 0.0049909917
      vertex -0.021299038 0.0 7.5E-4
    endloop
  endfacet
  facet normal 0.0 -1.0 0.0
    outer loop
      vertex -0.02 0.0 0.0015
      vertex -0.01925 0.0 0.0012990381
      vertex -0.013 0.0 0.011741153
    endloop
  endfacet
  facet normal 0.0 -1.0 0.0
    outer loop
      vertex -0.01925 0.0 0.0012990381
      vertex -0.018700961 0.0 7.5E-4
      vertex -0.013 0.0 0.011741153
    endloop
  endfacet
  facet normal 0.0 -1.0 -0.0
    outer loop
      vertex -0.013 0.0 0.011741153
      vertex -0.018700961 0.0 7.5E-4
      vertex -0.013 0.0 -0.0045
    endloop
  endfacet
  facet normal 0.0 -1.0 0.0
    outer loop
      vertex -0.018700961 0.0 7.5E-4
      vertex -0.0185 0.0 0.0
      vertex -0.013 0.0 -0.0045
    endloop
  endfacet
  facet normal 0.0 -1.0 0.0
    outer loop
      vertex -0.013 0.0 -0.0045
      vertex -0.0185 0.0 0.0
      vertex -0.018700961 0.0 -7.5E-4
    endloop
  endfacet
  facet normal 0.0 -1.0 0.0
    outer loop
      vertex -0.0215 0.0 -8.4983083E-19
      vertex -0.021299038 0.0 7.5E-4
      vertex -0.125 0.0 0.0015
    endloop
  endfacet
  facet normal 0.0 -1.0 0.0
    outer loop
      vertex -0.021299038 0.0 7.5E-4
      vertex -0.1253 0.0 0.0049909917
      vertex -0.125 0.0 0.0015
    endloop
  endfacet
  facet normal -0.0 -1.0 0.0
    outer loop
      vertex -0.125 0.0 0.0015
      vertex -0.1253 0.0 0.0049909917
      vertex -0.12575 0.0 0.0012990381
    endloop
  endfacet
  facet normal 0.0 -1.0 0.0
    outer loop
      vertex -0.1253 0.0 0.0049909917
      vertex -0.12767126 0.0 0.004226626
      vertex -0.12575 0.0 0.0012990381
    endloop
  endfacet
  facet normal -0.0 -1.0 0.0
    outer loop
      vertex -0.12575 0.0 0.0012990381
      vertex -0.12767126 0.0 0.004226626
      vertex -0.12629904 0.0 7.5E-4
    endloop
  endfacet
  facet normal 0.0 -1.0 -0.0
    outer loop
      vertex -0.12767126 0.0 0.004226626
      vertex -0.12937929 0.0 0.0024128505
      vertex -0.12629904 0.0 7.5E-4
    endloop
  endfacet
  facet normal -0.0 -1.0 0.0
    outer loop
      vertex -0.12629904 0.0 7.5E-4
      vertex -0.12937929 0.0 0.0024128505
      vertex -0.1265 0.0 -8.4983083E-19
    endloop
  endfacet
  facet normal 0.0 -1.0 -0.0
    outer loop
      vertex -0.12937929 0.0 0.0024128505
      vertex -0.13 0.0 -3.469447E-20
      vertex -0.1265 0.0 -8.4983083E-19
    endloop
  endfacet
  facet normal -0.0 -1.0 -0.0
    outer loop
      vertex -0.1265 0.0 -8.4983083E-19
      vertex -0.13 0.0 -3.469447E-20
      vertex -0.12629904 0.0 -7.5E-4
    endloop
  endfacet
  facet normal 0.0 -1.0 0.0
    outer loop
      vertex -0.13 0.0 -3.469447E-20
      vertex -0.12937929 0.0 -0.0024128505
      vertex -0.12629904 0.0 -7.5E-4
    endloop
  endfacet
  facet normal 0.0 -1.0 -0.0
    outer loop
      vertex -0.12629904 0.0 -7.5E-4
      vertex -0.12937929 0.0 -0.0024128505
      vertex -0.12575 0.0 -0.0012990381
    endloop
  endfacet
  facet normal 0.0 -1.0 0.0
    outer loop
      vertex -0.12937929 0.0 -0.0024128505
      vertex -0.12767126 0.0 -0.004226626
      vertex -0.12575 0.0 -0.0012990381
    endloop
  endfacet
  facet normal 0.0 -1.0 -0.0
    outer loop
      vertex -0.12575 0.0 -0.0012990381
      vertex -0.12767126 0.0 -0.004226626
      vertex -0.125 0.0 -0.0015
    endloop
  endfacet
  facet normal 0.0 -1.0 0.0
    outer loop
      vertex -0.12767126 0.0 -0.004226626
      vertex -0.12682319 0.0 -0.0045
      vertex -0.125 0.0 -0.0015
    endloop
  endfacet
  facet normal 0.0 -1.0 -0.0
    outer loop
      vertex -0.125 0.0 -0.0015
      vertex -0.12682319 0.0 -0.0045
      vertex -0.12425 0.0 -0.0012990381
    endloop
  endfacet
  facet normal 0.0 -1.0 0.0
    outer loop
      vertex -0.12682319 0.0 -0.0045
      vertex -0.013 0.0 -0.0045
      vertex -0.12425 0.0 -0.0012990381
    endloop
  endfacet
  facet normal 0.0 -1.0 0.0
    outer loop
      vertex -0.12425 0.0 -0.0012990381
      vertex -0.013 0.0 -0.0045
      vertex -0.12370096 0.0 -7.5E-4
    endloop
  endfacet
  facet normal 0.0 -1.0 0.0
    outer loop
      vertex -0.013 0.0 -0.0045
      vertex -0.02 0.0 -0.0015
      vertex -0.12370096 0.0 -7.5E-4
    endloop
  endfacet
  facet normal 0.0 -1.0 0.0
    outer loop
      vertex -0.12370096 0.0 -7.5E-4
      vertex -0.02 0.0 -0.0015
      vertex -0.02075 0.0 -0.0012990381
    endloop
  endfacet
  facet normal 0.9659261142385609 1.901763544059662E-17 0.25881797045799326
    outer loop
      vertex 0.0185 0.005 0.0
      vertex 0.0185 0.0 3.6739403E-19
      vertex 0.018700961 0.005 -7.5E-4
    endloop
  endfacet
  facet normal 0.9659261142385609 0.0 0.25881797045799315
    outer loop
      vertex 0.0185 0.0 3.6739403E-19
      vertex 0.018700961 0.0 -7.5E-4
      vertex 0.018700961 0.005 -7.5E-4
    endloop
  endfacet
  facet normal 0.7071062016312826 0.0 0.7071073607413376
    outer loop
      vertex 0.018700961 0.005 -7.5E-4
      vertex 0.018700961 0.0 -7.5E-4
      vertex 0.01925 0.005 -0.0012990381
    endloop
  endfacet
  facet normal 0.7071062016312826 0.0 0.7071073607413376
    outer loop
      vertex 0.018700961 0.0 -7.5E-4
      vertex 0.01925 0.0 -0.0012990381
      vertex 0.01925 0.005 -0.0012990381
    endloop
  endfacet
  facet normal 0.2588190519237522 0.0 0.9659258244613248
    outer loop
      vertex 0.01925 0.005 -0.0012990381
      vertex 0.01925 0.0 -0.0012990381
      vertex 0.02 0.005 -0.0015
    endloop
  endfacet
  facet normal 0.2588190519237522 0.0 0.9659258244613248
    outer loop
      vertex 0.01925 0.0 -0.0012990381
      vertex 0.02 0.0 -0.0015
      vertex 0.02 0.005 -0.0015
    endloop
  endfacet
  facet normal -0.2588190519237522 0.0 0.9659258244613248
    outer loop
      vertex 0.02 0.005 -0.0015
      vertex 0.02 0.0 -0.0015
      vertex 0.02075 0.005 -0.0012990381
    endloop
  endfacet
  facet normal -0.2588190519237522 0.0 0.9659258244613248
    outer loop
      vertex 0.02 0.0 -0.0015
      vertex 0.02075 0.0 -0.0012990381
      vertex 0.02075 0.005 -0.0012990381
    endloop
  endfacet
  facet normal -0.7071068455816074 0.0 0.707106716791482
    outer loop
      vertex 0.02075 0.005 -0.0012990381
      vertex 0.02075 0.0 -0.0012990381
      vertex 0.021299038 0.005 -7.5E-4
    endloop
  endfacet
  facet normal -0.7071068455816074 0.0 0.707106716791482
    outer loop
      vertex 0.02075 0.0 -0.0012990381
      vertex 0.021299038 0.0 -7.5E-4
      vertex 0.021299038 0.005 -7.5E-4
    endloop
  endfacet
  facet normal -0.9659257922637904 0.0 0.2588191720865534
    outer loop
      vertex 0.021299038 0.005 -7.5E-4
      vertex 0.021299038 0.0 -7.5E-4
      vertex 0.0215 0.005 -8.4983083E-19
    endloop
  endfacet
  facet normal -0.9659257922637904 0.0 0.2588191720865534
    outer loop
      vertex 0.021299038 0.0 -7.5E-4
      vertex 0.0215 0.0 -8.4983083E-19
      vertex 0.0215 0.005 -8.4983083E-19
    endloop
  endfacet
  facet normal -0.9659257922637905 -0.0 -0.25881917208655286
    outer loop
      vertex 0.0215 0.005 -8.4983083E-19
      vertex 0.0215 0.0 -8.4983083E-19
      vertex 0.021299038 0.005 7.5E-4
    endloop
  endfacet
  facet normal -0.9659257922637905 0.0 -0.25881917208655286
    outer loop
      vertex 0.0215 0.0 -8.4983083E-19
      vertex 0.021299038 0.0 7.5E-4
      vertex 0.021299038 0.005 7.5E-4
    endloop
  endfacet
  facet normal -0.7071068455816074 -0.0 -0.707106716791482
    outer loop
      vertex 0.021299038 0.005 7.5E-4
      vertex 0.021299038 0.0 7.5E-4
      vertex 0.02075 0.005 0.0012990381
    endloop
  endfacet
  facet normal -0.7071068455816074 0.0 -0.707106716791482
    outer loop
      vertex 0.021299038 0.0 7.5E-4
      vertex 0.02075 0.0 0.0012990381
      vertex 0.02075 0.005 0.0012990381
    endloop
  endfacet
  facet normal -0.2588190519237522 -0.0 -0.9659258244613248
    outer loop
      vertex 0.02075 0.005 0.0012990381
      vertex 0.02075 0.0 0.0012990381
      vertex 0.02 0.005 0.0015
    endloop
  endfacet
  facet normal -0.2588190519237522 0.0 -0.9659258244613248
    outer loop
      vertex 0.02075 0.0 0.0012990381
      vertex 0.02 0.0 0.0015
      vertex 0.02 0.005 0.0015
    endloop
  endfacet
  facet normal 0.2588190519237522 0.0 -0.9659258244613248
    outer loop
      vertex 0.02 0.005 0.0015
      vertex 0.02 0.0 0.0015
      vertex 0.01925 0.005 0.0012990381
    endloop
  endfacet
  facet normal 0.2588190519237522 0.0 -0.9659258244613248
    outer loop
      vertex 0.02 0.0 0.0015
      vertex 0.01925 0.0 0.0012990381
      vertex 0.01925 0.005 0.0012990381
    endloop
  endfacet
  facet normal 0.7071062016312826 0.0 -0.7071073607413376
    outer loop
      vertex 0.01925 0.005 0.0012990381
      vertex 0.01925 0.0 0.0012990381
      vertex 0.018700961 0.005 7.5E-4
    endloop
  endfacet
  facet normal 0.7071062016312826 0.0 -0.7071073607413376
    outer loop
      vertex 0.01925 0.0 0.0012990381
      vertex 0.018700961 0.0 7.5E-4
      vertex 0.018700961 0.005 7.5E-4
    endloop
  endfacet
  facet normal 0.9659261142385609 0.0 -0.25881797045799326
    outer loop
      vertex 0.018700961 0.005 7.5E-4
      vertex 0.018700961 0.0 7.5E-4
      vertex 0.0185 0.005 0.0
    endloop
  endfacet
  facet normal 0.9659261142385609 -2.0454281084334564E-17 -0.2588179704579934
    outer loop
      vertex 0.018700961 0.0 7.5E-4
      vertex 0.0185 0.0 3.6739403E-19
      vertex 0.0185 0.005 0.0
    endloop
  endfacet
  facet normal 0.9659264362120512 1.901754714627649E-17 0.2588167688282318
    outer loop
      vertex 0.1235 0.005 0.0
      vertex 0.1235 0.0 3.6739403E-19
      vertex 0.12370096 0.005 -7.5E-4
    endloop
  endfacet
  facet normal 0.9659264362120512 0.0 0.2588167688282317
    outer loop
      vertex 0.1235 0.0 3.6739403E-19
      vertex 0.12370096 0.0 -7.5E-4
      vertex 0.12370096 0.005 -7.5E-4
    endloop
  endfacet
  facet normal 0.7071055576815463 0.0 0.7071080046894317
    outer loop
      vertex 0.12370096 0.005 -7.5E-4
      vertex 0.12370096 0.0 -7.5E-4
      vertex 0.12425 0.005 -0.0012990381
    endloop
  endfacet
  facet normal 0.7071055576815463 0.0 0.7071080046894317
    outer loop
      vertex 0.12370096 0.0 -7.5E-4
      vertex 0.12425 0.0 -0.0012990381
      vertex 0.12425 0.005 -0.0012990381
    endloop
  endfacet
  facet normal 0.2588190519237522 0.0 0.9659258244613248
    outer loop
      vertex 0.12425 0.005 -0.0012990381
      vertex 0.12425 0.0 -0.0012990381
      vertex 0.125 0.005 -0.0015
    endloop
  endfacet
  facet normal 0.2588190519237522 0.0 0.9659258244613248
    outer loop
      vertex 0.12425 0.0 -0.0012990381
      vertex 0.125 0.0 -0.0015
      vertex 0.125 0.005 -0.0015
    endloop
  endfacet
  facet normal -0.2588190519237522 0.0 0.9659258244613248
    outer loop
      vertex 0.125 0.005 -0.0015
      vertex 0.125 0.0 -0.0015
      vertex 0.12575 0.005 -0.0012990381
    endloop
  endfacet
  facet normal -0.2588190519237522 0.0 0.9659258244613248
    outer loop
      vertex 0.125 0.0 -0.0015
      vertex 0.12575 0.0 -0.0012990381
      vertex 0.12575 0.005 -0.0012990381
    endloop
  endfacet
  facet normal -0.7071055576815463 0.0 0.7071080046894317
    outer loop
      vertex 0.12575 0.005 -0.0012990381
      vertex 0.12575 0.0 -0.0012990381
      vertex 0.12629904 0.005 -7.5E-4
    endloop
  endfacet
  facet normal -0.7071055576815463 0.0 0.7071080046894317
    outer loop
      vertex 0.12575 0.0 -0.0012990381
      vertex 0.12629904 0.0 -7.5E-4
      vertex 0.12629904 0.005 -7.5E-4
    endloop
  endfacet
  facet normal -0.965926436212051 0.0 0.258816768828232
    outer loop
      vertex 0.12629904 0.005 -7.5E-4
      vertex 0.12629904 0.0 -7.5E-4
      vertex 0.1265 0.005 -8.4983083E-19
    endloop
  endfacet
  facet normal -0.965926436212051 0.0 0.258816768828232
    outer loop
      vertex 0.12629904 0.0 -7.5E-4
      vertex 0.1265 0.0 -8.4983083E-19
      vertex 0.1265 0.005 -8.4983083E-19
    endloop
  endfacet
  facet normal -0.9659264362120513 -0.0 -0.2588167688282315
    outer loop
      vertex 0.1265 0.005 -8.4983083E-19
      vertex 0.1265 0.0 -8.4983083E-19
      vertex 0.12629904 0.005 7.5E-4
    endloop
  endfacet
  facet normal -0.9659264362120513 0.0 -0.2588167688282315
    outer loop
      vertex 0.1265 0.0 -8.4983083E-19
      vertex 0.12629904 0.0 7.5E-4
      vertex 0.12629904 0.005 7.5E-4
    endloop
  endfacet
  facet normal -0.7071055576815463 -0.0 -0.7071080046894317
    outer loop
      vertex 0.12629904 0.005 7.5E-4
      vertex 0.12629904 0.0 7.5E-4
      vertex 0.12575 0.005 0.0012990381
    endloop
  endfacet
  facet normal -0.7071055576815463 0.0 -0.7071080046894317
    outer loop
      vertex 0.12629904 0.0 7.5E-4
      vertex 0.12575 0.0 0.0012990381
      vertex 0.12575 0.005 0.0012990381
    endloop
  endfacet
  facet normal -0.2588190519237522 -0.0 -0.9659258244613248
    outer loop
      vertex 0.12575 0.005 0.0012990381
      vertex 0.12575 0.0 0.0012990381
      vertex 0.125 0.005 0.0015
    endloop
  endfacet
  facet normal -0.2588190519237522 0.0 -0.9659258244613248
    outer loop
      vertex 0.12575 0.0 0.0012990381
      vertex 0.125 0.0 0.0015
      vertex 0.125 0.005 0.0015
    endloop
  endfacet
  facet normal 0.2588190519237522 0.0 -0.9659258244613248
    outer loop
      vertex 0.125 0.005 0.0015
      vertex 0.125 0.0 0.0015
      vertex 0.12425 0.005 0.0012990381
    endloop
  endfacet
  facet normal 0.2588190519237522 0.0 -0.9659258244613248
    outer loop
      vertex 0.125 0.0 0.0015
      vertex 0.12425 0.0 0.0012990381
      vertex 0.12425 0.005 0.0012990381
    endloop
  endfacet
  facet normal 0.7071055576815463 0.0 -0.7071080046894317
    outer loop
      vertex 0.12425 0.005 0.0012990381
      vertex 0.12425 0.0 0.0012990381
      vertex 0.12370096 0.005 7.5E-4
    endloop
  endfacet
  facet normal 0.7071055576815463 0.0 -0.7071080046894317
    outer loop
      vertex 0.12425 0.0 0.0012990381
      vertex 0.12370096 0.0 7.5E-4
      vertex 0.12370096 0.005 7.5E-4
    endloop
  endfacet
  facet normal 0.9659264362120512 0.0 -0.2588167688282318
    outer loop
      vertex 0.12370096 0.005 7.5E-4
      vertex 0.12370096 0.0 7.5E-4
      vertex 0.1235 0.005 0.0
    endloop
  endfacet
  facet normal 0.965926436212051 -1.3636191934925614E-17 -0.25881676882823185
    outer loop
      vertex 0.12370096 0.0 7.5E-4
      vertex 0.1235 0.0 3.6739403E-19
      vertex 0.1235 0.005 0.0
    endloop
  endfacet
endsolid DIFF_ARM5t_x1_1
