solid front_cover_1
  facet normal 0.9659264362120512 0.25881676882823157 -0.0
    outer loop
      vertex 0.0585 -0.026 0.0
      vertex 0.0585 -0.026 0.002
      vertex 0.05870096 -0.02675 0.0
    endloop
  endfacet
  facet normal 0.9659264362120512 0.25881676882823157 0.0
    outer loop
      vertex 0.0585 -0.026 0.002
      vertex 0.05870096 -0.02675 0.002
      vertex 0.05870096 -0.02675 0.0
    endloop
  endfacet
  facet normal 0.7071048493336489 0.7071087130341682 -0.0
    outer loop
      vertex 0.05870096 -0.02675 0.0
      vertex 0.05870096 -0.02675 0.002
      vertex 0.05925 -0.027299037 0.0
    endloop
  endfacet
  facet normal 0.7071048493336489 0.7071087130341682 0.0
    outer loop
      vertex 0.05870096 -0.02675 0.002
      vertex 0.05925 -0.027299037 0.002
      vertex 0.05925 -0.027299037 0.0
    endloop
  endfacet
  facet normal 0.2588203737139112 0.9659254702877398 -0.0
    outer loop
      vertex 0.05925 -0.027299037 0.0
      vertex 0.05925 -0.027299037 0.002
      vertex 0.06 -0.0275 0.0
    endloop
  endfacet
  facet normal 0.2588203737139112 0.9659254702877398 0.0
    outer loop
      vertex 0.05925 -0.027299037 0.002
      vertex 0.06 -0.0275 0.002
      vertex 0.06 -0.0275 0.0
    endloop
  endfacet
  facet normal -0.2588203737139112 0.9659254702877398 0.0
    outer loop
      vertex 0.06 -0.0275 0.0
      vertex 0.06 -0.0275 0.002
      vertex 0.06075 -0.027299037 0.0
    endloop
  endfacet
  facet normal -0.2588203737139112 0.9659254702877398 0.0
    outer loop
      vertex 0.06 -0.0275 0.002
      vertex 0.06075 -0.027299037 0.002
      vertex 0.06075 -0.027299037 0.0
    endloop
  endfacet
  facet normal -0.7071067811865476 0.7071067811865476 0.0
    outer loop
      vertex 0.06075 -0.027299037 0.0
      vertex 0.06075 -0.027299037 0.002
      vertex 0.061299037 -0.02675 0.0
    endloop
  endfacet
  facet normal -0.7071067811865476 0.7071067811865476 0.0
    outer loop
      vertex 0.06075 -0.027299037 0.002
      vertex 0.061299037 -0.02675 0.002
      vertex 0.061299037 -0.02675 0.0
    endloop
  endfacet
  facet normal -0.9659254702877398 0.2588203737139112 0.0
    outer loop
      vertex 0.061299037 -0.02675 0.0
      vertex 0.061299037 -0.02675 0.002
      vertex 0.0615 -0.026 0.0
    endloop
  endfacet
  facet normal -0.9659254702877398 0.2588203737139112 0.0
    outer loop
      vertex 0.061299037 -0.02675 0.002
      vertex 0.0615 -0.026 0.002
      vertex 0.0615 -0.026 0.0
    endloop
  endfacet
  facet normal -0.9659254702877395 -0.2588203737139123 0.0
    outer loop
      vertex 0.0615 -0.026 0.0
      vertex 0.0615 -0.026 0.002
      vertex 0.061299037 -0.02525 0.0
    endloop
  endfacet
  facet normal -0.9659254702877395 -0.2588203737139123 0.0
    outer loop
      vertex 0.0615 -0.026 0.002
      vertex 0.061299037 -0.02525 0.002
      vertex 0.061299037 -0.02525 0.0
    endloop
  endfacet
  facet normal -0.7071074251375152 -0.7071061372349934 0.0
    outer loop
      vertex 0.061299037 -0.02525 0.0
      vertex 0.061299037 -0.02525 0.002
      vertex 0.06075 -0.024700962 0.0
    endloop
  endfacet
  facet normal -0.7071074251375152 -0.7071061372349934 0.0
    outer loop
      vertex 0.061299037 -0.02525 0.002
      vertex 0.06075 -0.024700962 0.002
      vertex 0.06075 -0.024700962 0.0
    endloop
  endfacet
  facet normal -0.258819172086553 -0.9659257922637905 0.0
    outer loop
      vertex 0.06075 -0.024700962 0.0
      vertex 0.06075 -0.024700962 0.002
      vertex 0.06 -0.0245 0.0
    endloop
  endfacet
  facet normal -0.258819172086553 -0.9659257922637905 0.0
    outer loop
      vertex 0.06075 -0.024700962 0.002
      vertex 0.06 -0.0245 0.002
      vertex 0.06 -0.0245 0.0
    endloop
  endfacet
  facet normal 0.258819172086553 -0.9659257922637905 0.0
    outer loop
      vertex 0.06 -0.0245 0.0
      vertex 0.06 -0.0245 0.002
      vertex 0.05925 -0.024700962 0.0
    endloop
  endfacet
  facet normal 0.258819172086553 -0.9659257922637905 0.0
    outer loop
      vertex 0.06 -0.0245 0.002
      vertex 0.05925 -0.024700962 0.002
      vertex 0.05925 -0.024700962 0.0
    endloop
  endfacet
  facet normal 0.7071054932863758 -0.7071080690843733 0.0
    outer loop
      vertex 0.05925 -0.024700962 0.0
      vertex 0.05925 -0.024700962 0.002
      vertex 0.05870096 -0.02525 0.0
    endloop
  endfacet
  facet normal 0.7071054932863758 -0.7071080690843733 0.0
    outer loop
      vertex 0.05925 -0.024700962 0.002
      vertex 0.05870096 -0.02525 0.002
      vertex 0.05870096 -0.02525 0.0
    endloop
  endfacet
  facet normal 0.9659264362120508 -0.2588167688282326 0.0
    outer loop
      vertex 0.05870096 -0.02525 0.0
      vertex 0.05870096 -0.02525 0.002
      vertex 0.0585 -0.026 0.0
    endloop
  endfacet
  facet normal 0.9659264362120508 -0.2588167688282326 0.0
    outer loop
      vertex 0.05870096 -0.02525 0.002
      vertex 0.0585 -0.026 0.002
      vertex 0.0585 -0.026 0.0
    endloop
  endfacet
  facet normal 0.9659254702877395 0.2588203737139123 -0.0
    outer loop
      vertex -0.0615 0.026 0.0
      vertex -0.0615 0.026 0.002
      vertex -0.061299037 0.02525 0.0
    endloop
  endfacet
  facet normal 0.9659254702877395 0.2588203737139123 0.0
    outer loop
      vertex -0.0615 0.026 0.002
      vertex -0.061299037 0.02525 0.002
      vertex -0.061299037 0.02525 0.0
    endloop
  endfacet
  facet normal 0.7071074251375152 0.7071061372349934 -0.0
    outer loop
      vertex -0.061299037 0.02525 0.0
      vertex -0.061299037 0.02525 0.002
      vertex -0.06075 0.024700962 0.0
    endloop
  endfacet
  facet normal 0.7071074251375152 0.7071061372349934 0.0
    outer loop
      vertex -0.061299037 0.02525 0.002
      vertex -0.06075 0.024700962 0.002
      vertex -0.06075 0.024700962 0.0
    endloop
  endfacet
  facet normal 0.258819172086553 0.9659257922637905 -0.0
    outer loop
      vertex -0.06075 0.024700962 0.0
      vertex -0.06075 0.024700962 0.002
      vertex -0.06 0.0245 0.0
    endloop
  endfacet
  facet normal 0.258819172086553 0.9659257922637905 0.0
    outer loop
      vertex -0.06075 0.024700962 0.002
      vertex -0.06 0.0245 0.002
      vertex -0.06 0.0245 0.0
    endloop
  endfacet
  facet normal -0.258819172086553 0.9659257922637905 0.0
    outer loop
      vertex -0.06 0.0245 0.0
      vertex -0.06 0.0245 0.002
      vertex -0.05925 0.024700962 0.0
    endloop
  endfacet
  facet normal -0.258819172086553 0.9659257922637905 0.0
    outer loop
      vertex -0.06 0.0245 0.002
      vertex -0.05925 0.024700962 0.002
      vertex -0.05925 0.024700962 0.0
    endloop
  endfacet
  facet normal -0.7071054932863758 0.7071080690843733 0.0
    outer loop
      vertex -0.05925 0.024700962 0.0
      vertex -0.05925 0.024700962 0.002
      vertex -0.05870096 0.02525 0.0
    endloop
  endfacet
  facet normal -0.7071054932863758 0.7071080690843733 0.0
    outer loop
      vertex -0.05925 0.024700962 0.002
      vertex -0.05870096 0.02525 0.002
      vertex -0.05870096 0.02525 0.0
    endloop
  endfacet
  facet normal -0.9659264362120508 0.2588167688282326 0.0
    outer loop
      vertex -0.05870096 0.02525 0.0
      vertex -0.05870096 0.02525 0.002
      vertex -0.0585 0.026 0.0
    endloop
  endfacet
  facet normal -0.9659264362120508 0.2588167688282326 0.0
    outer loop
      vertex -0.05870096 0.02525 0.002
      vertex -0.0585 0.026 0.002
      vertex -0.0585 0.026 0.0
    endloop
  endfacet
  facet normal -0.9659264362120512 -0.25881676882823157 0.0
    outer loop
      vertex -0.0585 0.026 0.0
      vertex -0.0585 0.026 0.002
      vertex -0.05870096 0.02675 0.0
    endloop
  endfacet
  facet normal -0.9659264362120512 -0.25881676882823157 0.0
    outer loop
      vertex -0.0585 0.026 0.002
      vertex -0.05870096 0.02675 0.002
      vertex -0.05870096 0.02675 0.0
    endloop
  endfacet
  facet normal -0.7071048493336489 -0.7071087130341682 0.0
    outer loop
      vertex -0.05870096 0.02675 0.0
      vertex -0.05870096 0.02675 0.002
      vertex -0.05925 0.027299037 0.0
    endloop
  endfacet
  facet normal -0.7071048493336489 -0.7071087130341682 0.0
    outer loop
      vertex -0.05870096 0.02675 0.002
      vertex -0.05925 0.027299037 0.002
      vertex -0.05925 0.027299037 0.0
    endloop
  endfacet
  facet normal -0.2588203737139112 -0.9659254702877398 0.0
    outer loop
      vertex -0.05925 0.027299037 0.0
      vertex -0.05925 0.027299037 0.002
      vertex -0.06 0.0275 0.0
    endloop
  endfacet
  facet normal -0.2588203737139112 -0.9659254702877398 0.0
    outer loop
      vertex -0.05925 0.027299037 0.002
      vertex -0.06 0.0275 0.002
      vertex -0.06 0.0275 0.0
    endloop
  endfacet
  facet normal 0.2588203737139112 -0.9659254702877398 0.0
    outer loop
      vertex -0.06 0.0275 0.0
      vertex -0.06 0.0275 0.002
      vertex -0.06075 0.027299037 0.0
    endloop
  endfacet
  facet normal 0.2588203737139112 -0.9659254702877398 0.0
    outer loop
      vertex -0.06 0.0275 0.002
      vertex -0.06075 0.027299037 0.002
      vertex -0.06075 0.027299037 0.0
    endloop
  endfacet
  facet normal 0.7071067811865476 -0.7071067811865476 0.0
    outer loop
      vertex -0.06075 0.027299037 0.0
      vertex -0.06075 0.027299037 0.002
      vertex -0.061299037 0.02675 0.0
    endloop
  endfacet
  facet normal 0.7071067811865476 -0.7071067811865476 0.0
    outer loop
      vertex -0.06075 0.027299037 0.002
      vertex -0.061299037 0.02675 0.002
      vertex -0.061299037 0.02675 0.0
    endloop
  endfacet
  facet normal 0.9659254702877398 -0.2588203737139112 0.0
    outer loop
      vertex -0.061299037 0.02675 0.0
      vertex -0.061299037 0.02675 0.002
      vertex -0.0615 0.026 0.0
    endloop
  endfacet
  facet normal 0.9659254702877398 -0.2588203737139112 0.0
    outer loop
      vertex -0.061299037 0.02675 0.002
      vertex -0.0615 0.026 0.002
      vertex -0.0615 0.026 0.0
    endloop
  endfacet
  facet normal 0.9659264362120508 0.2588167688282326 -0.0
    outer loop
      vertex 0.0585 0.026 0.0
      vertex 0.0585 0.026 0.002
      vertex 0.05870096 0.02525 0.0
    endloop
  endfacet
  facet normal 0.9659264362120508 0.2588167688282326 0.0
    outer loop
      vertex 0.0585 0.026 0.002
      vertex 0.05870096 0.02525 0.002
      vertex 0.05870096 0.02525 0.0
    endloop
  endfacet
  facet normal 0.7071054932863758 0.7071080690843733 -0.0
    outer loop
      vertex 0.05870096 0.02525 0.0
      vertex 0.05870096 0.02525 0.002
      vertex 0.05925 0.024700962 0.0
    endloop
  endfacet
  facet normal 0.7071054932863758 0.7071080690843733 0.0
    outer loop
      vertex 0.05870096 0.02525 0.002
      vertex 0.05925 0.024700962 0.002
      vertex 0.05925 0.024700962 0.0
    endloop
  endfacet
  facet normal 0.258819172086553 0.9659257922637905 -0.0
    outer loop
      vertex 0.05925 0.024700962 0.0
      vertex 0.05925 0.024700962 0.002
      vertex 0.06 0.0245 0.0
    endloop
  endfacet
  facet normal 0.258819172086553 0.9659257922637905 0.0
    outer loop
      vertex 0.05925 0.024700962 0.002
      vertex 0.06 0.0245 0.002
      vertex 0.06 0.0245 0.0
    endloop
  endfacet
  facet normal -0.258819172086553 0.9659257922637905 0.0
    outer loop
      vertex 0.06 0.0245 0.0
      vertex 0.06 0.0245 0.002
      vertex 0.06075 0.024700962 0.0
    endloop
  endfacet
  facet normal -0.258819172086553 0.9659257922637905 0.0
    outer loop
      vertex 0.06 0.0245 0.002
      vertex 0.06075 0.024700962 0.002
      vertex 0.06075 0.024700962 0.0
    endloop
  endfacet
  facet normal -0.7071074251375152 0.7071061372349934 0.0
    outer loop
      vertex 0.06075 0.024700962 0.0
      vertex 0.06075 0.024700962 0.002
      vertex 0.061299037 0.02525 0.0
    endloop
  endfacet
  facet normal -0.7071074251375152 0.7071061372349934 0.0
    outer loop
      vertex 0.06075 0.024700962 0.002
      vertex 0.061299037 0.02525 0.002
      vertex 0.061299037 0.02525 0.0
    endloop
  endfacet
  facet normal -0.9659254702877395 0.2588203737139123 0.0
    outer loop
      vertex 0.061299037 0.02525 0.0
      vertex 0.061299037 0.02525 0.002
      vertex 0.0615 0.026 0.0
    endloop
  endfacet
  facet normal -0.9659254702877395 0.2588203737139123 0.0
    outer loop
      vertex 0.061299037 0.02525 0.002
      vertex 0.0615 0.026 0.002
      vertex 0.0615 0.026 0.0
    endloop
  endfacet
  facet normal -0.9659254702877398 -0.2588203737139112 0.0
    outer loop
      vertex 0.0615 0.026 0.0
      vertex 0.0615 0.026 0.002
      vertex 0.061299037 0.02675 0.0
    endloop
  endfacet
  facet normal -0.9659254702877398 -0.2588203737139112 0.0
    outer loop
      vertex 0.0615 0.026 0.002
      vertex 0.061299037 0.02675 0.002
      vertex 0.061299037 0.02675 0.0
    endloop
  endfacet
  facet normal -0.7071067811865476 -0.7071067811865476 0.0
    outer loop
      vertex 0.061299037 0.02675 0.0
      vertex 0.061299037 0.02675 0.002
      vertex 0.06075 0.027299037 0.0
    endloop
  endfacet
  facet normal -0.7071067811865476 -0.7071067811865476 0.0
    outer loop
      vertex 0.061299037 0.02675 0.002
      vertex 0.06075 0.027299037 0.002
      vertex 0.06075 0.027299037 0.0
    endloop
  endfacet
  facet normal -0.2588203737139112 -0.9659254702877398 0.0
    outer loop
      vertex 0.06075 0.027299037 0.0
      vertex 0.06075 0.027299037 0.002
      vertex 0.06 0.0275 0.0
    endloop
  endfacet
  facet normal -0.2588203737139112 -0.9659254702877398 0.0
    outer loop
      vertex 0.06075 0.027299037 0.002
      vertex 0.06 0.0275 0.002
      vertex 0.06 0.0275 0.0
    endloop
  endfacet
  facet normal 0.2588203737139112 -0.9659254702877398 0.0
    outer loop
      vertex 0.06 0.0275 0.0
      vertex 0.06 0.0275 0.002
      vertex 0.05925 0.027299037 0.0
    endloop
  endfacet
  facet normal 0.2588203737139112 -0.9659254702877398 0.0
    outer loop
      vertex 0.06 0.0275 0.002
      vertex 0.05925 0.027299037 0.002
      vertex 0.05925 0.027299037 0.0
    endloop
  endfacet
  facet normal 0.7071048493336489 -0.7071087130341682 0.0
    outer loop
      vertex 0.05925 0.027299037 0.0
      vertex 0.05925 0.027299037 0.002
      vertex 0.05870096 0.02675 0.0
    endloop
  endfacet
  facet normal 0.7071048493336489 -0.7071087130341682 0.0
    outer loop
      vertex 0.05925 0.027299037 0.002
      vertex 0.05870096 0.02675 0.002
      vertex 0.05870096 0.02675 0.0
    endloop
  endfacet
  facet normal 0.9659264362120512 -0.25881676882823157 0.0
    outer loop
      vertex 0.05870096 0.02675 0.0
      vertex 0.05870096 0.02675 0.002
      vertex 0.0585 0.026 0.0
    endloop
  endfacet
  facet normal 0.9659264362120512 -0.25881676882823157 0.0
    outer loop
      vertex 0.05870096 0.02675 0.002
      vertex 0.0585 0.026 0.002
      vertex 0.0585 0.026 0.0
    endloop
  endfacet
  facet normal 0.9659254702877398 0.2588203737139112 -0.0
    outer loop
      vertex -0.0615 -0.026 0.0
      vertex -0.0615 -0.026 0.002
      vertex -0.061299037 -0.02675 0.0
    endloop
  endfacet
  facet normal 0.9659254702877398 0.2588203737139112 0.0
    outer loop
      vertex -0.0615 -0.026 0.002
      vertex -0.061299037 -0.02675 0.002
      vertex -0.061299037 -0.02675 0.0
    endloop
  endfacet
  facet normal 0.7071067811865476 0.7071067811865476 -0.0
    outer loop
      vertex -0.061299037 -0.02675 0.0
      vertex -0.061299037 -0.02675 0.002
      vertex -0.06075 -0.027299037 0.0
    endloop
  endfacet
  facet normal 0.7071067811865476 0.7071067811865476 0.0
    outer loop
      vertex -0.061299037 -0.02675 0.002
      vertex -0.06075 -0.027299037 0.002
      vertex -0.06075 -0.027299037 0.0
    endloop
  endfacet
  facet normal 0.2588203737139112 0.9659254702877398 -0.0
    outer loop
      vertex -0.06075 -0.027299037 0.0
      vertex -0.06075 -0.027299037 0.002
      vertex -0.06 -0.0275 0.0
    endloop
  endfacet
  facet normal 0.2588203737139112 0.9659254702877398 0.0
    outer loop
      vertex -0.06075 -0.027299037 0.002
      vertex -0.06 -0.0275 0.002
      vertex -0.06 -0.0275 0.0
    endloop
  endfacet
  facet normal -0.2588203737139112 0.9659254702877398 0.0
    outer loop
      vertex -0.06 -0.0275 0.0
      vertex -0.06 -0.0275 0.002
      vertex -0.05925 -0.027299037 0.0
    endloop
  endfacet
  facet normal -0.2588203737139112 0.9659254702877398 0.0
    outer loop
      vertex -0.06 -0.0275 0.002
      vertex -0.05925 -0.027299037 0.002
      vertex -0.05925 -0.027299037 0.0
    endloop
  endfacet
  facet normal -0.7071048493336489 0.7071087130341682 0.0
    outer loop
      vertex -0.05925 -0.027299037 0.0
      vertex -0.05925 -0.027299037 0.002
      vertex -0.05870096 -0.02675 0.0
    endloop
  endfacet
  facet normal -0.7071048493336489 0.7071087130341682 0.0
    outer loop
      vertex -0.05925 -0.027299037 0.002
      vertex -0.05870096 -0.02675 0.002
      vertex -0.05870096 -0.02675 0.0
    endloop
  endfacet
  facet normal -0.9659264362120512 0.25881676882823157 0.0
    outer loop
      vertex -0.05870096 -0.02675 0.0
      vertex -0.05870096 -0.02675 0.002
      vertex -0.0585 -0.026 0.0
    endloop
  endfacet
  facet normal -0.9659264362120512 0.25881676882823157 0.0
    outer loop
      vertex -0.05870096 -0.02675 0.002
      vertex -0.0585 -0.026 0.002
      vertex -0.0585 -0.026 0.0
    endloop
  endfacet
  facet normal -0.9659264362120508 -0.2588167688282326 0.0
    outer loop
      vertex -0.0585 -0.026 0.0
      vertex -0.0585 -0.026 0.002
      vertex -0.05870096 -0.02525 0.0
    endloop
  endfacet
  facet normal -0.9659264362120508 -0.2588167688282326 0.0
    outer loop
      vertex -0.0585 -0.026 0.002
      vertex -0.05870096 -0.02525 0.002
      vertex -0.05870096 -0.02525 0.0
    endloop
  endfacet
  facet normal -0.7071054932863758 -0.7071080690843733 0.0
    outer loop
      vertex -0.05870096 -0.02525 0.0
      vertex -0.05870096 -0.02525 0.002
      vertex -0.05925 -0.024700962 0.0
    endloop
  endfacet
  facet normal -0.7071054932863758 -0.7071080690843733 0.0
    outer loop
      vertex -0.05870096 -0.02525 0.002
      vertex -0.05925 -0.024700962 0.002
      vertex -0.05925 -0.024700962 0.0
    endloop
  endfacet
  facet normal -0.258819172086553 -0.9659257922637905 0.0
    outer loop
      vertex -0.05925 -0.024700962 0.0
      vertex -0.05925 -0.024700962 0.002
      vertex -0.06 -0.0245 0.0
    endloop
  endfacet
  facet normal -0.258819172086553 -0.9659257922637905 0.0
    outer loop
      vertex -0.05925 -0.024700962 0.002
      vertex -0.06 -0.0245 0.002
      vertex -0.06 -0.0245 0.0
    endloop
  endfacet
  facet normal 0.258819172086553 -0.9659257922637905 0.0
    outer loop
      vertex -0.06 -0.0245 0.0
      vertex -0.06 -0.0245 0.002
      vertex -0.06075 -0.024700962 0.0
    endloop
  endfacet
  facet normal 0.258819172086553 -0.9659257922637905 0.0
    outer loop
      vertex -0.06 -0.0245 0.002
      vertex -0.06075 -0.024700962 0.002
      vertex -0.06075 -0.024700962 0.0
    endloop
  endfacet
  facet normal 0.7071074251375152 -0.7071061372349934 0.0
    outer loop
      vertex -0.06075 -0.024700962 0.0
      vertex -0.06075 -0.024700962 0.002
      vertex -0.061299037 -0.02525 0.0
    endloop
  endfacet
  facet normal 0.7071074251375152 -0.7071061372349934 0.0
    outer loop
      vertex -0.06075 -0.024700962 0.002
      vertex -0.061299037 -0.02525 0.002
      vertex -0.061299037 -0.02525 0.0
    endloop
  endfacet
  facet normal 0.9659254702877395 -0.2588203737139123 0.0
    outer loop
      vertex -0.061299037 -0.02525 0.0
      vertex -0.061299037 -0.02525 0.002
      vertex -0.0615 -0.026 0.0
    endloop
  endfacet
  facet normal 0.9659254702877395 -0.2588203737139123 0.0
    outer loop
      vertex -0.061299037 -0.02525 0.002
      vertex -0.0615 -0.026 0.002
      vertex -0.0615 -0.026 0.0
    endloop
  endfacet
  facet normal -1.0 -0.0 -0.0
    outer loop
      vertex -0.065 0.026 0.002
      vertex -0.065 0.026 0.0
      vertex -0.065 -0.026 0.002
    endloop
  endfacet
  facet normal -1.0 0.0 0.0
    outer loop
      vertex -0.065 0.026 0.0
      vertex -0.065 -0.026 0.0
      vertex -0.065 -0.026 0.002
    endloop
  endfacet
  facet normal 0.0 -0.0 1.0
    outer loop
      vertex -0.05870096 0.02675 0.002
      vertex 0.06 0.031 0.002
      vertex -0.05925 0.027299037 0.002
    endloop
  endfacet
  facet normal 0.0 0.0 1.0
    outer loop
      vertex 0.06 0.031 0.002
      vertex -0.06 0.031 0.002
      vertex -0.05925 0.027299037 0.002
    endloop
  endfacet
  facet normal 0.0 0.0 1.0
    outer loop
      vertex -0.05925 0.027299037 0.002
      vertex -0.06 0.031 0.002
      vertex -0.06 0.0275 0.002
    endloop
  endfacet
  facet normal 0.0 0.0 1.0
    outer loop
      vertex -0.0585 -0.026 0.002
      vertex -0.05870096 -0.02675 0.002
      vertex 0.05870096 -0.02675 0.002
    endloop
  endfacet
  facet normal -0.0 0.0 1.0
    outer loop
      vertex -0.05870096 -0.02675 0.002
      vertex -0.06 -0.031 0.002
      vertex 0.05870096 -0.02675 0.002
    endloop
  endfacet
  facet normal 0.0 0.0 1.0
    outer loop
      vertex 0.05870096 -0.02675 0.002
      vertex -0.06 -0.031 0.002
      vertex 0.05925 -0.027299037 0.002
    endloop
  endfacet
  facet normal 0.0 0.0 1.0
    outer loop
      vertex -0.06 -0.031 0.002
      vertex 0.06 -0.031 0.002
      vertex 0.05925 -0.027299037 0.002
    endloop
  endfacet
  facet normal -0.0 -0.0 1.0
    outer loop
      vertex -0.05870096 -0.02525 0.002
      vertex -0.0585 -0.026 0.002
      vertex -0.05925 0.024700962 0.002
    endloop
  endfacet
  facet normal 0.0 0.0 1.0
    outer loop
      vertex -0.05870096 -0.02675 0.002
      vertex -0.05925 -0.027299037 0.002
      vertex -0.06 -0.031 0.002
    endloop
  endfacet
  facet normal 0.0 0.0 1.0
    outer loop
      vertex -0.05925 -0.027299037 0.002
      vertex -0.06 -0.0275 0.002
      vertex -0.06 -0.031 0.002
    endloop
  endfacet
  facet normal 0.0 -0.0 1.0
    outer loop
      vertex -0.06 -0.031 0.002
      vertex -0.06 -0.0275 0.002
      vertex -0.0625 -0.030330127 0.002
    endloop
  endfacet
  facet normal 0.0 0.0 1.0
    outer loop
      vertex -0.06 -0.0275 0.002
      vertex -0.06075 -0.027299037 0.002
      vertex -0.0625 -0.030330127 0.002
    endloop
  endfacet
  facet normal 0.0 -0.0 1.0
    outer loop
      vertex -0.0625 -0.030330127 0.002
      vertex -0.06075 -0.027299037 0.002
      vertex -0.06433012 -0.0285 0.002
    endloop
  endfacet
  facet normal 0.0 0.0 1.0
    outer loop
      vertex -0.06075 -0.027299037 0.002
      vertex -0.061299037 -0.02675 0.002
      vertex -0.06433012 -0.0285 0.002
    endloop
  endfacet
  facet normal 0.0 -0.0 1.0
    outer loop
      vertex -0.06433012 -0.0285 0.002
      vertex -0.061299037 -0.02675 0.002
      vertex -0.065 -0.026 0.002
    endloop
  endfacet
  facet normal 0.0 -0.0 1.0
    outer loop
      vertex 0.065 -0.026 0.002
      vertex 0.065 0.026 0.002
      vertex 0.06075 -0.024700962 0.002
    endloop
  endfacet
  facet normal 0.0 0.0 1.0
    outer loop
      vertex -0.061299037 -0.02675 0.002
      vertex -0.0615 -0.026 0.002
      vertex -0.065 -0.026 0.002
    endloop
  endfacet
  facet normal 0.0 -0.0 1.0
    outer loop
      vertex -0.0615 -0.026 0.002
      vertex -0.061299037 -0.02525 0.002
      vertex -0.065 -0.026 0.002
    endloop
  endfacet
  facet normal 0.0 0.0 1.0
    outer loop
      vertex -0.065 -0.026 0.002
      vertex -0.061299037 -0.02525 0.002
      vertex -0.065 0.026 0.002
    endloop
  endfacet
  facet normal 0.0 -0.0 1.0
    outer loop
      vertex -0.061299037 -0.02525 0.002
      vertex -0.06075 -0.024700962 0.002
      vertex -0.065 0.026 0.002
    endloop
  endfacet
  facet normal 0.0 -0.0 1.0
    outer loop
      vertex -0.06 0.0275 0.002
      vertex -0.06 0.031 0.002
      vertex -0.06075 0.027299037 0.002
    endloop
  endfacet
  facet normal 0.0 0.0 1.0
    outer loop
      vertex -0.06 0.031 0.002
      vertex -0.0625 0.030330127 0.002
      vertex -0.06075 0.027299037 0.002
    endloop
  endfacet
  facet normal 0.0 0.0 1.0
    outer loop
      vertex -0.06075 0.027299037 0.002
      vertex -0.0625 0.030330127 0.002
      vertex -0.061299037 0.02675 0.002
    endloop
  endfacet
  facet normal 0.0 0.0 1.0
    outer loop
      vertex -0.0625 0.030330127 0.002
      vertex -0.06433012 0.0285 0.002
      vertex -0.061299037 0.02675 0.002
    endloop
  endfacet
  facet normal 0.0 0.0 1.0
    outer loop
      vertex -0.061299037 0.02675 0.002
      vertex -0.06433012 0.0285 0.002
      vertex -0.0615 0.026 0.002
    endloop
  endfacet
  facet normal 0.0 0.0 1.0
    outer loop
      vertex -0.06433012 0.0285 0.002
      vertex -0.065 0.026 0.002
      vertex -0.0615 0.026 0.002
    endloop
  endfacet
  facet normal 0.0 0.0 1.0
    outer loop
      vertex -0.0615 0.026 0.002
      vertex -0.065 0.026 0.002
      vertex -0.061299037 0.02525 0.002
    endloop
  endfacet
  facet normal 0.0 0.0 1.0
    outer loop
      vertex 0.06075 -0.024700962 0.002
      vertex 0.061299037 -0.02525 0.002
      vertex 0.065 -0.026 0.002
    endloop
  endfacet
  facet normal 0.0 0.0 1.0
    outer loop
      vertex 0.061299037 -0.02525 0.002
      vertex 0.0615 -0.026 0.002
      vertex 0.065 -0.026 0.002
    endloop
  endfacet
  facet normal 0.0 0.0 1.0
    outer loop
      vertex 0.065 -0.026 0.002
      vertex 0.0615 -0.026 0.002
      vertex 0.06433012 -0.0285 0.002
    endloop
  endfacet
  facet normal 0.0 0.0 1.0
    outer loop
      vertex 0.0615 -0.026 0.002
      vertex 0.061299037 -0.02675 0.002
      vertex 0.06433012 -0.0285 0.002
    endloop
  endfacet
  facet normal 0.0 0.0 1.0
    outer loop
      vertex 0.06433012 -0.0285 0.002
      vertex 0.061299037 -0.02675 0.002
      vertex 0.0625 -0.030330127 0.002
    endloop
  endfacet
  facet normal 0.0 0.0 1.0
    outer loop
      vertex 0.061299037 -0.02675 0.002
      vertex 0.06075 -0.027299037 0.002
      vertex 0.0625 -0.030330127 0.002
    endloop
  endfacet
  facet normal 0.0 0.0 1.0
    outer loop
      vertex 0.0625 -0.030330127 0.002
      vertex 0.06075 -0.027299037 0.002
      vertex 0.06 -0.031 0.002
    endloop
  endfacet
  facet normal 0.0 0.0 1.0
    outer loop
      vertex 0.06075 -0.027299037 0.002
      vertex 0.06 -0.0275 0.002
      vertex 0.06 -0.031 0.002
    endloop
  endfacet
  facet normal 0.0 -0.0 1.0
    outer loop
      vertex 0.06 -0.031 0.002
      vertex 0.06 -0.0275 0.002
      vertex 0.05925 -0.027299037 0.002
    endloop
  endfacet
  facet normal -0.0 0.0 1.0
    outer loop
      vertex -0.05925 0.024700962 0.002
      vertex -0.0585 -0.026 0.002
      vertex -0.05870096 0.02525 0.002
    endloop
  endfacet
  facet normal 0.0 0.0 1.0
    outer loop
      vertex 0.05870096 -0.02675 0.002
      vertex 0.0585 -0.026 0.002
      vertex -0.0585 -0.026 0.002
    endloop
  endfacet
  facet normal 0.0 -0.0 1.0
    outer loop
      vertex 0.0585 -0.026 0.002
      vertex 0.05870096 -0.02525 0.002
      vertex -0.0585 -0.026 0.002
    endloop
  endfacet
  facet normal 0.0 -0.0 1.0
    outer loop
      vertex -0.0585 -0.026 0.002
      vertex 0.05870096 -0.02525 0.002
      vertex -0.05870096 0.02525 0.002
    endloop
  endfacet
  facet normal 0.0 -0.0 1.0
    outer loop
      vertex 0.05870096 -0.02525 0.002
      vertex 0.05925 -0.024700962 0.002
      vertex -0.05870096 0.02525 0.002
    endloop
  endfacet
  facet normal -0.0 0.0 1.0
    outer loop
      vertex -0.05870096 0.02525 0.002
      vertex 0.05925 -0.024700962 0.002
      vertex -0.0585 0.026 0.002
    endloop
  endfacet
  facet normal 0.0 0.0 1.0
    outer loop
      vertex 0.065 0.026 0.002
      vertex 0.061299037 0.02525 0.002
      vertex 0.06075 -0.024700962 0.002
    endloop
  endfacet
  facet normal 0.0 0.0 1.0
    outer loop
      vertex 0.061299037 0.02525 0.002
      vertex 0.06075 0.024700962 0.002
      vertex 0.06075 -0.024700962 0.002
    endloop
  endfacet
  facet normal 0.0 -0.0 1.0
    outer loop
      vertex 0.06075 -0.024700962 0.002
      vertex 0.06075 0.024700962 0.002
      vertex 0.06 -0.0245 0.002
    endloop
  endfacet
  facet normal 0.0 0.0 1.0
    outer loop
      vertex 0.06075 0.024700962 0.002
      vertex 0.06 0.0245 0.002
      vertex 0.06 -0.0245 0.002
    endloop
  endfacet
  facet normal 0.0 -0.0 1.0
    outer loop
      vertex 0.06 -0.0245 0.002
      vertex 0.06 0.0245 0.002
      vertex 0.05925 -0.024700962 0.002
    endloop
  endfacet
  facet normal 0.0 0.0 1.0
    outer loop
      vertex 0.06 0.0245 0.002
      vertex 0.05925 0.024700962 0.002
      vertex 0.05925 -0.024700962 0.002
    endloop
  endfacet
  facet normal 0.0 0.0 1.0
    outer loop
      vertex 0.05925 0.024700962 0.002
      vertex 0.05870096 0.02525 0.002
      vertex 0.05925 -0.024700962 0.002
    endloop
  endfacet
  facet normal 0.0 0.0 1.0
    outer loop
      vertex 0.05870096 0.02525 0.002
      vertex 0.0585 0.026 0.002
      vertex 0.05925 -0.024700962 0.002
    endloop
  endfacet
  facet normal 0.0 0.0 1.0
    outer loop
      vertex 0.05925 -0.024700962 0.002
      vertex 0.0585 0.026 0.002
      vertex -0.0585 0.026 0.002
    endloop
  endfacet
  facet normal 0.0 -0.0 1.0
    outer loop
      vertex 0.0585 0.026 0.002
      vertex 0.05870096 0.02675 0.002
      vertex -0.0585 0.026 0.002
    endloop
  endfacet
  facet normal 0.0 -0.0 1.0
    outer loop
      vertex -0.0585 0.026 0.002
      vertex 0.05870096 0.02675 0.002
      vertex -0.05870096 0.02675 0.002
    endloop
  endfacet
  facet normal 0.0 -0.0 1.0
    outer loop
      vertex 0.05870096 0.02675 0.002
      vertex 0.05925 0.027299037 0.002
      vertex -0.05870096 0.02675 0.002
    endloop
  endfacet
  facet normal 0.0 0.0 1.0
    outer loop
      vertex -0.05870096 0.02675 0.002
      vertex 0.05925 0.027299037 0.002
      vertex 0.06 0.031 0.002
    endloop
  endfacet
  facet normal 0.0 0.0 1.0
    outer loop
      vertex 0.05925 0.027299037 0.002
      vertex 0.06 0.0275 0.002
      vertex 0.06 0.031 0.002
    endloop
  endfacet
  facet normal 0.0 0.0 1.0
    outer loop
      vertex 0.06 0.031 0.002
      vertex 0.06 0.0275 0.002
      vertex 0.0625 0.030330127 0.002
    endloop
  endfacet
  facet normal -0.0 0.0 1.0
    outer loop
      vertex 0.06 0.0275 0.002
      vertex 0.06075 0.027299037 0.002
      vertex 0.0625 0.030330127 0.002
    endloop
  endfacet
  facet normal 0.0 0.0 1.0
    outer loop
      vertex 0.0625 0.030330127 0.002
      vertex 0.06075 0.027299037 0.002
      vertex 0.06433012 0.0285 0.002
    endloop
  endfacet
  facet normal -0.0 0.0 1.0
    outer loop
      vertex 0.06075 0.027299037 0.002
      vertex 0.061299037 0.02675 0.002
      vertex 0.06433012 0.0285 0.002
    endloop
  endfacet
  facet normal 0.0 0.0 1.0
    outer loop
      vertex 0.06433012 0.0285 0.002
      vertex 0.061299037 0.02675 0.002
      vertex 0.065 0.026 0.002
    endloop
  endfacet
  facet normal 0.0 0.0 1.0
    outer loop
      vertex 0.061299037 0.02675 0.002
      vertex 0.0615 0.026 0.002
      vertex 0.065 0.026 0.002
    endloop
  endfacet
  facet normal 0.0 0.0 1.0
    outer loop
      vertex 0.065 0.026 0.002
      vertex 0.0615 0.026 0.002
      vertex 0.061299037 0.02525 0.002
    endloop
  endfacet
  facet normal 0.0 0.0 1.0
    outer loop
      vertex -0.061299037 0.02525 0.002
      vertex -0.065 0.026 0.002
      vertex -0.06075 0.024700962 0.002
    endloop
  endfacet
  facet normal 0.0 0.0 1.0
    outer loop
      vertex -0.065 0.026 0.002
      vertex -0.06075 -0.024700962 0.002
      vertex -0.06075 0.024700962 0.002
    endloop
  endfacet
  facet normal 0.0 0.0 1.0
    outer loop
      vertex -0.06075 0.024700962 0.002
      vertex -0.06075 -0.024700962 0.002
      vertex -0.06 0.0245 0.002
    endloop
  endfacet
  facet normal 0.0 0.0 1.0
    outer loop
      vertex -0.06075 -0.024700962 0.002
      vertex -0.06 -0.0245 0.002
      vertex -0.06 0.0245 0.002
    endloop
  endfacet
  facet normal -0.0 0.0 1.0
    outer loop
      vertex -0.06 0.0245 0.002
      vertex -0.06 -0.0245 0.002
      vertex -0.05925 0.024700962 0.002
    endloop
  endfacet
  facet normal -0.0 0.0 1.0
    outer loop
      vertex -0.06 -0.0245 0.002
      vertex -0.05925 -0.024700962 0.002
      vertex -0.05925 0.024700962 0.002
    endloop
  endfacet
  facet normal 0.0 0.0 1.0
    outer loop
      vertex -0.05925 0.024700962 0.002
      vertex -0.05925 -0.024700962 0.002
      vertex -0.05870096 -0.02525 0.002
    endloop
  endfacet
  facet normal -0.2588190519237527 -0.9659258244613247 0.0
    outer loop
      vertex -0.06 -0.031 0.0
      vertex -0.06 -0.031 0.002
      vertex -0.0625 -0.030330127 0.002
    endloop
  endfacet
  facet normal -0.2588190519237527 -0.9659258244613247 0.0
    outer loop
      vertex -0.06 -0.031 0.0
      vertex -0.0625 -0.030330127 0.002
      vertex -0.0625 -0.030330127 0.0
    endloop
  endfacet
  facet normal -0.7071081334840099 -0.7071054288864989 -0.0
    outer loop
      vertex -0.0625 -0.030330127 0.002
      vertex -0.06433012 -0.0285 0.002
      vertex -0.0625 -0.030330127 0.0
    endloop
  endfacet
  facet normal -0.7071081334840099 -0.7071054288864989 0.0
    outer loop
      vertex -0.0625 -0.030330127 0.0
      vertex -0.06433012 -0.0285 0.002
      vertex -0.06433012 -0.0285 0.0
    endloop
  endfacet
  facet normal -0.9659251483104087 -0.25882157534006944 -0.0
    outer loop
      vertex -0.06433012 -0.0285 0.002
      vertex -0.065 -0.026 0.002
      vertex -0.06433012 -0.0285 0.0
    endloop
  endfacet
  facet normal -0.9659251483104087 -0.25882157534006944 0.0
    outer loop
      vertex -0.06433012 -0.0285 0.0
      vertex -0.065 -0.026 0.002
      vertex -0.065 -0.026 0.0
    endloop
  endfacet
  facet normal 0.0 -1.0 0.0
    outer loop
      vertex 0.06 -0.031 0.0
      vertex 0.06 -0.031 0.002
      vertex -0.06 -0.031 0.0
    endloop
  endfacet
  facet normal -0.0 -1.0 0.0
    outer loop
      vertex 0.06 -0.031 0.002
      vertex -0.06 -0.031 0.002
      vertex -0.06 -0.031 0.0
    endloop
  endfacet
  facet normal 0.0 0.0 -1.0
    outer loop
      vertex 0.061299037 0.02525 0.0
      vertex 0.0615 0.026 0.0
      vertex 0.065 0.026 0.0
    endloop
  endfacet
  facet normal 0.0 0.0 -1.0
    outer loop
      vertex 0.06 -0.031 0.0
      vertex -0.06 -0.031 0.0
      vertex 0.05870096 -0.02675 0.0
    endloop
  endfacet
  facet normal 0.0 0.0 -1.0
    outer loop
      vertex 0.05870096 -0.02675 0.0
      vertex 0.05925 -0.027299037 0.0
      vertex 0.06 -0.031 0.0
    endloop
  endfacet
  facet normal 0.0 0.0 -1.0
    outer loop
      vertex 0.05925 -0.027299037 0.0
      vertex 0.06 -0.0275 0.0
      vertex 0.06 -0.031 0.0
    endloop
  endfacet
  facet normal 0.0 0.0 -1.0
    outer loop
      vertex 0.06 -0.031 0.0
      vertex 0.06 -0.0275 0.0
      vertex 0.0625 -0.030330127 0.0
    endloop
  endfacet
  facet normal 0.0 0.0 -1.0
    outer loop
      vertex 0.06 -0.0275 0.0
      vertex 0.06075 -0.027299037 0.0
      vertex 0.0625 -0.030330127 0.0
    endloop
  endfacet
  facet normal 0.0 0.0 -1.0
    outer loop
      vertex 0.0625 -0.030330127 0.0
      vertex 0.06075 -0.027299037 0.0
      vertex 0.06433012 -0.0285 0.0
    endloop
  endfacet
  facet normal 0.0 0.0 -1.0
    outer loop
      vertex 0.06075 -0.027299037 0.0
      vertex 0.061299037 -0.02675 0.0
      vertex 0.06433012 -0.0285 0.0
    endloop
  endfacet
  facet normal 0.0 0.0 -1.0
    outer loop
      vertex 0.06433012 -0.0285 0.0
      vertex 0.061299037 -0.02675 0.0
      vertex 0.065 -0.026 0.0
    endloop
  endfacet
  facet normal 0.0 0.0 -1.0
    outer loop
      vertex -0.06 -0.0275 0.0
      vertex -0.05925 -0.027299037 0.0
      vertex 0.0585 -0.026 0.0
    endloop
  endfacet
  facet normal 0.0 0.0 -1.0
    outer loop
      vertex -0.05925 -0.027299037 0.0
      vertex -0.05870096 -0.02675 0.0
      vertex 0.0585 -0.026 0.0
    endloop
  endfacet
  facet normal -0.0 0.0 -1.0
    outer loop
      vertex 0.0585 -0.026 0.0
      vertex -0.05870096 -0.02675 0.0
      vertex -0.0585 -0.026 0.0
    endloop
  endfacet
  facet normal 0.0 0.0 -1.0
    outer loop
      vertex 0.061299037 -0.02675 0.0
      vertex 0.0615 -0.026 0.0
      vertex 0.065 -0.026 0.0
    endloop
  endfacet
  facet normal 0.0 0.0 -1.0
    outer loop
      vertex 0.0615 -0.026 0.0
      vertex 0.061299037 -0.02525 0.0
      vertex 0.065 -0.026 0.0
    endloop
  endfacet
  facet normal 0.0 0.0 -1.0
    outer loop
      vertex 0.065 -0.026 0.0
      vertex 0.061299037 -0.02525 0.0
      vertex 0.065 0.026 0.0
    endloop
  endfacet
  facet normal 0.0 0.0 -1.0
    outer loop
      vertex 0.061299037 -0.02525 0.0
      vertex 0.06075 -0.024700962 0.0
      vertex 0.065 0.026 0.0
    endloop
  endfacet
  facet normal 0.0 0.0 -1.0
    outer loop
      vertex -0.065 -0.026 0.0
      vertex -0.065 0.026 0.0
      vertex -0.06075 -0.024700962 0.0
    endloop
  endfacet
  facet normal 0.0 0.0 -1.0
    outer loop
      vertex 0.065 0.026 0.0
      vertex 0.0615 0.026 0.0
      vertex 0.06433012 0.0285 0.0
    endloop
  endfacet
  facet normal 0.0 0.0 -1.0
    outer loop
      vertex 0.0615 0.026 0.0
      vertex 0.061299037 0.02675 0.0
      vertex 0.06433012 0.0285 0.0
    endloop
  endfacet
  facet normal -0.0 0.0 -1.0
    outer loop
      vertex 0.06433012 0.0285 0.0
      vertex 0.061299037 0.02675 0.0
      vertex 0.0625 0.030330127 0.0
    endloop
  endfacet
  facet normal 0.0 0.0 -1.0
    outer loop
      vertex 0.061299037 0.02675 0.0
      vertex 0.06075 0.027299037 0.0
      vertex 0.0625 0.030330127 0.0
    endloop
  endfacet
  facet normal -0.0 0.0 -1.0
    outer loop
      vertex 0.0625 0.030330127 0.0
      vertex 0.06075 0.027299037 0.0
      vertex 0.06 0.031 0.0
    endloop
  endfacet
  facet normal 0.0 -0.0 -1.0
    outer loop
      vertex -0.05925 0.024700962 0.0
      vertex 0.0585 0.026 0.0
      vertex -0.06 0.0245 0.0
    endloop
  endfacet
  facet normal 0.0 0.0 -1.0
    outer loop
      vertex 0.0585 0.026 0.0
      vertex -0.05870096 -0.02525 0.0
      vertex -0.06 0.0245 0.0
    endloop
  endfacet
  facet normal 0.0 0.0 -1.0
    outer loop
      vertex -0.05870096 -0.02525 0.0
      vertex 0.0585 0.026 0.0
      vertex -0.0585 -0.026 0.0
    endloop
  endfacet
  facet normal 0.0 -0.0 -1.0
    outer loop
      vertex 0.0585 0.026 0.0
      vertex 0.05870096 0.02525 0.0
      vertex -0.0585 -0.026 0.0
    endloop
  endfacet
  facet normal 0.0 0.0 -1.0
    outer loop
      vertex -0.0585 -0.026 0.0
      vertex 0.05870096 0.02525 0.0
      vertex 0.0585 -0.026 0.0
    endloop
  endfacet
  facet normal 0.0 -0.0 -1.0
    outer loop
      vertex 0.05870096 0.02525 0.0
      vertex 0.05925 0.024700962 0.0
      vertex 0.0585 -0.026 0.0
    endloop
  endfacet
  facet normal 0.0 0.0 -1.0
    outer loop
      vertex 0.0585 -0.026 0.0
      vertex 0.05925 0.024700962 0.0
      vertex 0.05870096 -0.02525 0.0
    endloop
  endfacet
  facet normal 0.0 -0.0 -1.0
    outer loop
      vertex 0.0585 -0.026 0.0
      vertex 0.05870096 -0.02675 0.0
      vertex -0.06 -0.0275 0.0
    endloop
  endfacet
  facet normal 0.0 0.0 -1.0
    outer loop
      vertex 0.05870096 -0.02675 0.0
      vertex -0.06 -0.031 0.0
      vertex -0.06 -0.0275 0.0
    endloop
  endfacet
  facet normal -0.0 -0.0 -1.0
    outer loop
      vertex -0.06 -0.0275 0.0
      vertex -0.06 -0.031 0.0
      vertex -0.06075 -0.027299037 0.0
    endloop
  endfacet
  facet normal 0.0 0.0 -1.0
    outer loop
      vertex -0.06 -0.031 0.0
      vertex -0.0625 -0.030330127 0.0
      vertex -0.06075 -0.027299037 0.0
    endloop
  endfacet
  facet normal -0.0 0.0 -1.0
    outer loop
      vertex -0.06075 -0.027299037 0.0
      vertex -0.0625 -0.030330127 0.0
      vertex -0.061299037 -0.02675 0.0
    endloop
  endfacet
  facet normal 0.0 0.0 -1.0
    outer loop
      vertex -0.0625 -0.030330127 0.0
      vertex -0.06433012 -0.0285 0.0
      vertex -0.061299037 -0.02675 0.0
    endloop
  endfacet
  facet normal -0.0 0.0 -1.0
    outer loop
      vertex -0.061299037 -0.02675 0.0
      vertex -0.06433012 -0.0285 0.0
      vertex -0.0615 -0.026 0.0
    endloop
  endfacet
  facet normal 0.0 0.0 -1.0
    outer loop
      vertex -0.06433012 -0.0285 0.0
      vertex -0.065 -0.026 0.0
      vertex -0.0615 -0.026 0.0
    endloop
  endfacet
  facet normal 0.0 0.0 -1.0
    outer loop
      vertex -0.0615 -0.026 0.0
      vertex -0.065 -0.026 0.0
      vertex -0.061299037 -0.02525 0.0
    endloop
  endfacet
  facet normal 0.0 0.0 -1.0
    outer loop
      vertex -0.065 -0.026 0.0
      vertex -0.06075 -0.024700962 0.0
      vertex -0.061299037 -0.02525 0.0
    endloop
  endfacet
  facet normal 0.0 -0.0 -1.0
    outer loop
      vertex 0.061299037 0.02525 0.0
      vertex 0.065 0.026 0.0
      vertex 0.06075 0.024700962 0.0
    endloop
  endfacet
  facet normal 0.0 0.0 -1.0
    outer loop
      vertex 0.065 0.026 0.0
      vertex 0.06075 -0.024700962 0.0
      vertex 0.06075 0.024700962 0.0
    endloop
  endfacet
  facet normal 0.0 -0.0 -1.0
    outer loop
      vertex 0.06075 0.024700962 0.0
      vertex 0.06075 -0.024700962 0.0
      vertex 0.06 0.0245 0.0
    endloop
  endfacet
  facet normal 0.0 0.0 -1.0
    outer loop
      vertex 0.06075 -0.024700962 0.0
      vertex 0.06 -0.0245 0.0
      vertex 0.06 0.0245 0.0
    endloop
  endfacet
  facet normal -0.0 -0.0 -1.0
    outer loop
      vertex 0.06 0.0245 0.0
      vertex 0.06 -0.0245 0.0
      vertex 0.05925 0.024700962 0.0
    endloop
  endfacet
  facet normal -0.0 0.0 -1.0
    outer loop
      vertex 0.06 -0.0245 0.0
      vertex 0.05925 -0.024700962 0.0
      vertex 0.05925 0.024700962 0.0
    endloop
  endfacet
  facet normal 0.0 -0.0 -1.0
    outer loop
      vertex 0.05925 0.024700962 0.0
      vertex 0.05925 -0.024700962 0.0
      vertex 0.05870096 -0.02525 0.0
    endloop
  endfacet
  facet normal 0.0 0.0 -1.0
    outer loop
      vertex -0.05870096 -0.02525 0.0
      vertex -0.05925 -0.024700962 0.0
      vertex -0.06 0.0245 0.0
    endloop
  endfacet
  facet normal 0.0 0.0 -1.0
    outer loop
      vertex -0.05925 -0.024700962 0.0
      vertex -0.06 -0.0245 0.0
      vertex -0.06 0.0245 0.0
    endloop
  endfacet
  facet normal -0.0 -0.0 -1.0
    outer loop
      vertex -0.06 0.0245 0.0
      vertex -0.06 -0.0245 0.0
      vertex -0.06075 0.024700962 0.0
    endloop
  endfacet
  facet normal -0.0 0.0 -1.0
    outer loop
      vertex -0.06 -0.0245 0.0
      vertex -0.06075 -0.024700962 0.0
      vertex -0.06075 0.024700962 0.0
    endloop
  endfacet
  facet normal -0.0 -0.0 -1.0
    outer loop
      vertex -0.06075 0.024700962 0.0
      vertex -0.06075 -0.024700962 0.0
      vertex -0.061299037 0.02525 0.0
    endloop
  endfacet
  facet normal 0.0 0.0 -1.0
    outer loop
      vertex -0.06075 -0.024700962 0.0
      vertex -0.065 0.026 0.0
      vertex -0.061299037 0.02525 0.0
    endloop
  endfacet
  facet normal 0.0 0.0 -1.0
    outer loop
      vertex -0.05925 0.024700962 0.0
      vertex -0.05870096 0.02525 0.0
      vertex 0.0585 0.026 0.0
    endloop
  endfacet
  facet normal 0.0 0.0 -1.0
    outer loop
      vertex -0.05870096 0.02525 0.0
      vertex -0.0585 0.026 0.0
      vertex 0.0585 0.026 0.0
    endloop
  endfacet
  facet normal 0.0 0.0 -1.0
    outer loop
      vertex 0.0585 0.026 0.0
      vertex -0.0585 0.026 0.0
      vertex 0.05870096 0.02675 0.0
    endloop
  endfacet
  facet normal 0.0 0.0 -1.0
    outer loop
      vertex -0.0585 0.026 0.0
      vertex -0.05870096 0.02675 0.0
      vertex 0.05870096 0.02675 0.0
    endloop
  endfacet
  facet normal 0.0 0.0 -1.0
    outer loop
      vertex -0.05870096 0.02675 0.0
      vertex -0.06 0.031 0.0
      vertex 0.05870096 0.02675 0.0
    endloop
  endfacet
  facet normal 0.0 0.0 -1.0
    outer loop
      vertex 0.05870096 0.02675 0.0
      vertex -0.06 0.031 0.0
      vertex 0.05925 0.027299037 0.0
    endloop
  endfacet
  facet normal 0.0 0.0 -1.0
    outer loop
      vertex -0.06 0.031 0.0
      vertex 0.06 0.031 0.0
      vertex 0.05925 0.027299037 0.0
    endloop
  endfacet
  facet normal 0.0 0.0 -1.0
    outer loop
      vertex 0.05925 0.027299037 0.0
      vertex 0.06 0.031 0.0
      vertex 0.06 0.0275 0.0
    endloop
  endfacet
  facet normal 0.0 0.0 -1.0
    outer loop
      vertex 0.06 0.031 0.0
      vertex 0.06075 0.027299037 0.0
      vertex 0.06 0.0275 0.0
    endloop
  endfacet
  facet normal 0.0 0.0 -1.0
    outer loop
      vertex -0.05870096 0.02675 0.0
      vertex -0.05925 0.027299037 0.0
      vertex -0.06 0.031 0.0
    endloop
  endfacet
  facet normal 0.0 0.0 -1.0
    outer loop
      vertex -0.05925 0.027299037 0.0
      vertex -0.06 0.0275 0.0
      vertex -0.06 0.031 0.0
    endloop
  endfacet
  facet normal 0.0 -0.0 -1.0
    outer loop
      vertex -0.06 0.031 0.0
      vertex -0.06 0.0275 0.0
      vertex -0.0625 0.030330127 0.0
    endloop
  endfacet
  facet normal -0.0 0.0 -1.0
    outer loop
      vertex -0.06 0.0275 0.0
      vertex -0.06075 0.027299037 0.0
      vertex -0.0625 0.030330127 0.0
    endloop
  endfacet
  facet normal 0.0 -0.0 -1.0
    outer loop
      vertex -0.0625 0.030330127 0.0
      vertex -0.06075 0.027299037 0.0
      vertex -0.06433012 0.0285 0.0
    endloop
  endfacet
  facet normal -0.0 0.0 -1.0
    outer loop
      vertex -0.06075 0.027299037 0.0
      vertex -0.061299037 0.02675 0.0
      vertex -0.06433012 0.0285 0.0
    endloop
  endfacet
  facet normal 0.0 -0.0 -1.0
    outer loop
      vertex -0.06433012 0.0285 0.0
      vertex -0.061299037 0.02675 0.0
      vertex -0.065 0.026 0.0
    endloop
  endfacet
  facet normal 0.0 0.0 -1.0
    outer loop
      vertex -0.061299037 0.02675 0.0
      vertex -0.0615 0.026 0.0
      vertex -0.065 0.026 0.0
    endloop
  endfacet
  facet normal 0.0 0.0 -1.0
    outer loop
      vertex -0.065 0.026 0.0
      vertex -0.0615 0.026 0.0
      vertex -0.061299037 0.02525 0.0
    endloop
  endfacet
  facet normal 0.9659251483104087 -0.25882157534006944 0.0
    outer loop
      vertex 0.065 -0.026 0.0
      vertex 0.065 -0.026 0.002
      vertex 0.06433012 -0.0285 0.002
    endloop
  endfacet
  facet normal 0.9659251483104087 -0.25882157534006944 0.0
    outer loop
      vertex 0.065 -0.026 0.0
      vertex 0.06433012 -0.0285 0.002
      vertex 0.06433012 -0.0285 0.0
    endloop
  endfacet
  facet normal 0.7071081334840099 -0.7071054288864989 0.0
    outer loop
      vertex 0.06433012 -0.0285 0.002
      vertex 0.0625 -0.030330127 0.002
      vertex 0.06433012 -0.0285 0.0
    endloop
  endfacet
  facet normal 0.7071081334840099 -0.7071054288864989 0.0
    outer loop
      vertex 0.06433012 -0.0285 0.0
      vertex 0.0625 -0.030330127 0.002
      vertex 0.0625 -0.030330127 0.0
    endloop
  endfacet
  facet normal 0.2588190519237527 -0.9659258244613247 0.0
    outer loop
      vertex 0.0625 -0.030330127 0.002
      vertex 0.06 -0.031 0.002
      vertex 0.0625 -0.030330127 0.0
    endloop
  endfacet
  facet normal 0.2588190519237527 -0.9659258244613247 0.0
    outer loop
      vertex 0.0625 -0.030330127 0.0
      vertex 0.06 -0.031 0.002
      vertex 0.06 -0.031 0.0
    endloop
  endfacet
  facet normal 1.0 0.0 -0.0
    outer loop
      vertex 0.065 0.026 0.0
      vertex 0.065 0.026 0.002
      vertex 0.065 -0.026 0.0
    endloop
  endfacet
  facet normal 1.0 0.0 0.0
    outer loop
      vertex 0.065 0.026 0.002
      vertex 0.065 -0.026 0.002
      vertex 0.065 -0.026 0.0
    endloop
  endfacet
  facet normal 0.2588190519237527 0.9659258244613247 -0.0
    outer loop
      vertex 0.06 0.031 0.0
      vertex 0.06 0.031 0.002
      vertex 0.0625 0.030330127 0.002
    endloop
  endfacet
  facet normal 0.2588190519237527 0.9659258244613247 0.0
    outer loop
      vertex 0.06 0.031 0.0
      vertex 0.0625 0.030330127 0.002
      vertex 0.0625 0.030330127 0.0
    endloop
  endfacet
  facet normal 0.7071081334840099 0.7071054288864989 0.0
    outer loop
      vertex 0.0625 0.030330127 0.002
      vertex 0.06433012 0.0285 0.002
      vertex 0.0625 0.030330127 0.0
    endloop
  endfacet
  facet normal 0.7071081334840099 0.7071054288864989 0.0
    outer loop
      vertex 0.0625 0.030330127 0.0
      vertex 0.06433012 0.0285 0.002
      vertex 0.06433012 0.0285 0.0
    endloop
  endfacet
  facet normal 0.9659251483104087 0.25882157534006944 0.0
    outer loop
      vertex 0.06433012 0.0285 0.002
      vertex 0.065 0.026 0.002
      vertex 0.06433012 0.0285 0.0
    endloop
  endfacet
  facet normal 0.9659251483104087 0.25882157534006944 0.0
    outer loop
      vertex 0.06433012 0.0285 0.0
      vertex 0.065 0.026 0.002
      vertex 0.065 0.026 0.0
    endloop
  endfacet
  facet normal 0.0 1.0 0.0
    outer loop
      vertex -0.06 0.031 0.0
      vertex -0.06 0.031 0.002
      vertex 0.06 0.031 0.0
    endloop
  endfacet
  facet normal -0.0 1.0 0.0
    outer loop
      vertex -0.06 0.031 0.002
      vertex 0.06 0.031 0.002
      vertex 0.06 0.031 0.0
    endloop
  endfacet
  facet normal -0.9659251483104087 0.25882157534006944 0.0
    outer loop
      vertex -0.065 0.026 0.0
      vertex -0.065 0.026 0.002
      vertex -0.06433012 0.0285 0.002
    endloop
  endfacet
  facet normal -0.9659251483104087 0.25882157534006944 0.0
    outer loop
      vertex -0.065 0.026 0.0
      vertex -0.06433012 0.0285 0.002
      vertex -0.06433012 0.0285 0.0
    endloop
  endfacet
  facet normal -0.7071081334840099 0.7071054288864989 0.0
    outer loop
      vertex -0.06433012 0.0285 0.002
      vertex -0.0625 0.030330127 0.002
      vertex -0.06433012 0.0285 0.0
    endloop
  endfacet
  facet normal -0.7071081334840099 0.7071054288864989 0.0
    outer loop
      vertex -0.06433012 0.0285 0.0
      vertex -0.0625 0.030330127 0.002
      vertex -0.0625 0.030330127 0.0
    endloop
  endfacet
  facet normal -0.2588190519237527 0.9659258244613247 0.0
    outer loop
      vertex -0.0625 0.030330127 0.002
      vertex -0.06 0.031 0.002
      vertex -0.0625 0.030330127 0.0
    endloop
  endfacet
  facet normal -0.2588190519237527 0.9659258244613247 0.0
    outer loop
      vertex -0.0625 0.030330127 0.0
      vertex -0.06 0.031 0.002
      vertex -0.06 0.031 0.0
    endloop
  endfacet
endsolid front_cover_1
