solid rear_pivot_cover_1
  facet normal 0.2855591915786964 0.0 -0.9583610739720814
    outer loop
      vertex 0.0071945144 0.0 -0.014291219
      vertex 0.0071945144 0.003 -0.014291219
      vertex 0.007868705 0.0 -0.014090333
    endloop
  endfacet
  facet normal 0.2855591915786964 0.0 -0.9583610739720814
    outer loop
      vertex 0.0071945144 0.003 -0.014291219
      vertex 0.007868705 0.003 -0.014090333
      vertex 0.007868705 0.0 -0.014090333
    endloop
  endfacet
  facet normal -0.06394603728538809 0.0 -0.9979533577855709
    outer loop
      vertex 0.007868705 0.0 -0.014090333
      vertex 0.007868705 0.003 -0.014090333
      vertex 0.008570749 0.0 -0.014135318
    endloop
  endfacet
  facet normal -0.06394603728538809 0.0 -0.9979533577855709
    outer loop
      vertex 0.007868705 0.003 -0.014090333
      vertex 0.008570749 0.003 -0.014135318
      vertex 0.008570749 0.0 -0.014135318
    endloop
  endfacet
  facet normal -0.4055405147617867 0.0 -0.914077070539867
    outer loop
      vertex 0.008570749 0.0 -0.014135318
      vertex 0.008570749 0.003 -0.014135318
      vertex 0.009213787 0.0 -0.014420609
    endloop
  endfacet
  facet normal -0.4055405147617867 0.0 -0.914077070539867
    outer loop
      vertex 0.008570749 0.003 -0.014135318
      vertex 0.009213787 0.003 -0.014420609
      vertex 0.009213787 0.0 -0.014420609
    endloop
  endfacet
  facet normal 0.4055405147617867 0.0 -0.914077070539867
    outer loop
      vertex -0.009213787 0.0 -0.014420609
      vertex -0.009213787 0.003 -0.014420609
      vertex -0.008570749 0.0 -0.014135318
    endloop
  endfacet
  facet normal 0.4055405147617867 0.0 -0.914077070539867
    outer loop
      vertex -0.009213787 0.003 -0.014420609
      vertex -0.008570749 0.003 -0.014135318
      vertex -0.008570749 0.0 -0.014135318
    endloop
  endfacet
  facet normal 0.06394603728538809 0.0 -0.9979533577855709
    outer loop
      vertex -0.008570749 0.0 -0.014135318
      vertex -0.008570749 0.003 -0.014135318
      vertex -0.007868705 0.0 -0.014090333
    endloop
  endfacet
  facet normal 0.06394603728538809 0.0 -0.9979533577855709
    outer loop
      vertex -0.008570749 0.003 -0.014135318
      vertex -0.007868705 0.003 -0.014090333
      vertex -0.007868705 0.0 -0.014090333
    endloop
  endfacet
  facet normal -0.2855591915786964 0.0 -0.9583610739720814
    outer loop
      vertex -0.007868705 0.0 -0.014090333
      vertex -0.007868705 0.003 -0.014090333
      vertex -0.0071945144 0.0 -0.014291219
    endloop
  endfacet
  facet normal -0.2855591915786964 0.0 -0.9583610739720814
    outer loop
      vertex -0.007868705 0.003 -0.014090333
      vertex -0.0071945144 0.003 -0.014291219
      vertex -0.0071945144 0.0 -0.014291219
    endloop
  endfacet
  facet normal -0.23108316203398616 0.0 -0.9729340019879943
    outer loop
      vertex -0.0071945144 0.0 -0.014291219
      vertex -0.0071945144 0.003 -0.014291219
      vertex -7.21645E-19 0.003 -0.016
    endloop
  endfacet
  facet normal -0.23108316203398616 0.0 -0.9729340019879943
    outer loop
      vertex -0.0071945144 0.0 -0.014291219
      vertex -7.21645E-19 0.003 -0.016
      vertex -7.21645E-19 0.0 -0.016
    endloop
  endfacet
  facet normal 0.23108316203398613 0.0 -0.9729340019879943
    outer loop
      vertex -7.21645E-19 0.003 -0.016
      vertex 0.0071945144 0.003 -0.014291219
      vertex -7.21645E-19 0.0 -0.016
    endloop
  endfacet
  facet normal 0.23108316203398613 0.0 -0.9729340019879943
    outer loop
      vertex -7.21645E-19 0.0 -0.016
      vertex 0.0071945144 0.003 -0.014291219
      vertex 0.0071945144 0.0 -0.014291219
    endloop
  endfacet
  facet normal -0.3563893820358353 0.0 -0.9343375237953978
    outer loop
      vertex 0.009213787 0.0 -0.014420609
      vertex 0.009213787 0.003 -0.014420609
      vertex 0.010811072 0.003 -0.01502987
    endloop
  endfacet
  facet normal -0.3563893820358353 0.0 -0.9343375237953978
    outer loop
      vertex 0.009213787 0.0 -0.014420609
      vertex 0.010811072 0.003 -0.01502987
      vertex 0.010811072 0.0 -0.01502987
    endloop
  endfacet
  facet normal 0.09537372830023384 0.0 -0.9954415361788522
    outer loop
      vertex 0.010811072 0.003 -0.01502987
      vertex 0.012512817 0.003 -0.014866825
      vertex 0.010811072 0.0 -0.01502987
    endloop
  endfacet
  facet normal 0.09537372830023384 0.0 -0.9954415361788522
    outer loop
      vertex 0.010811072 0.0 -0.01502987
      vertex 0.012512817 0.003 -0.014866825
      vertex 0.012512817 0.0 -0.014866825
    endloop
  endfacet
  facet normal 0.5273156539648219 0.0 -0.8496694657828139
    outer loop
      vertex 0.012512817 0.003 -0.014866825
      vertex 0.013965359 0.003 -0.013965359
      vertex 0.012512817 0.0 -0.014866825
    endloop
  endfacet
  facet normal 0.5273156539648219 0.0 -0.8496694657828139
    outer loop
      vertex 0.012512817 0.0 -0.014866825
      vertex 0.013965359 0.003 -0.013965359
      vertex 0.013965359 0.0 -0.013965359
    endloop
  endfacet
  facet normal 0.8496694657828139 0.0 -0.5273156539648219
    outer loop
      vertex 0.013965359 0.003 -0.013965359
      vertex 0.014866825 0.003 -0.012512817
      vertex 0.013965359 0.0 -0.013965359
    endloop
  endfacet
  facet normal 0.8496694657828139 0.0 -0.5273156539648219
    outer loop
      vertex 0.013965359 0.0 -0.013965359
      vertex 0.014866825 0.003 -0.012512817
      vertex 0.014866825 0.0 -0.012512817
    endloop
  endfacet
  facet normal 0.9954415361788522 0.0 -0.09537372830023384
    outer loop
      vertex 0.014866825 0.003 -0.012512817
      vertex 0.01502987 0.003 -0.010811072
      vertex 0.014866825 0.0 -0.012512817
    endloop
  endfacet
  facet normal 0.9954415361788522 0.0 -0.09537372830023384
    outer loop
      vertex 0.014866825 0.0 -0.012512817
      vertex 0.01502987 0.003 -0.010811072
      vertex 0.01502987 0.0 -0.010811072
    endloop
  endfacet
  facet normal 0.9343375237953978 0.0 0.3563893820358353
    outer loop
      vertex 0.01502987 0.003 -0.010811072
      vertex 0.014420609 0.003 -0.009213787
      vertex 0.01502987 0.0 -0.010811072
    endloop
  endfacet
  facet normal 0.9343375237953978 0.0 0.3563893820358353
    outer loop
      vertex 0.01502987 0.0 -0.010811072
      vertex 0.014420609 0.003 -0.009213787
      vertex 0.014420609 0.0 -0.009213787
    endloop
  endfacet
  facet normal 0.914077070539867 -0.0 0.4055405147617867
    outer loop
      vertex 0.014420609 0.0 -0.009213787
      vertex 0.014420609 0.003 -0.009213787
      vertex 0.014135318 0.0 -0.008570749
    endloop
  endfacet
  facet normal 0.914077070539867 0.0 0.4055405147617867
    outer loop
      vertex 0.014420609 0.003 -0.009213787
      vertex 0.014135318 0.003 -0.008570749
      vertex 0.014135318 0.0 -0.008570749
    endloop
  endfacet
  facet normal 0.9979533577855709 -0.0 0.06394603728538809
    outer loop
      vertex 0.014135318 0.0 -0.008570749
      vertex 0.014135318 0.003 -0.008570749
      vertex 0.014090333 0.0 -0.007868705
    endloop
  endfacet
  facet normal 0.9979533577855709 0.0 0.06394603728538809
    outer loop
      vertex 0.014135318 0.003 -0.008570749
      vertex 0.014090333 0.003 -0.007868705
      vertex 0.014090333 0.0 -0.007868705
    endloop
  endfacet
  facet normal 0.9583610739720814 0.0 -0.2855591915786964
    outer loop
      vertex 0.014090333 0.0 -0.007868705
      vertex 0.014090333 0.003 -0.007868705
      vertex 0.014291219 0.0 -0.0071945144
    endloop
  endfacet
  facet normal 0.9583610739720814 0.0 -0.2855591915786964
    outer loop
      vertex 0.014090333 0.003 -0.007868705
      vertex 0.014291219 0.003 -0.0071945144
      vertex 0.014291219 0.0 -0.0071945144
    endloop
  endfacet
  facet normal 0.9729340019879943 0.0 -0.2310831620339862
    outer loop
      vertex 0.014291219 0.0 -0.0071945144
      vertex 0.014291219 0.003 -0.0071945144
      vertex 0.016 0.003 -3.552714E-18
    endloop
  endfacet
  facet normal 0.9729340019879943 0.0 -0.2310831620339862
    outer loop
      vertex 0.014291219 0.0 -0.0071945144
      vertex 0.016 0.003 -3.552714E-18
      vertex 0.016 0.0 -3.552714E-18
    endloop
  endfacet
  facet normal 0.9729340019879943 0.0 0.23108316203398602
    outer loop
      vertex 0.016 0.003 -3.552714E-18
      vertex 0.014291219 0.003 0.0071945144
      vertex 0.016 0.0 -3.552714E-18
    endloop
  endfacet
  facet normal 0.9729340019879943 0.0 0.23108316203398602
    outer loop
      vertex 0.016 0.0 -3.552714E-18
      vertex 0.014291219 0.003 0.0071945144
      vertex 0.014291219 0.0 0.0071945144
    endloop
  endfacet
  facet normal -0.9659255850579416 0.0 0.2588199453876637
    outer loop
      vertex -0.009913708 0.0 0.0113137085
      vertex -0.009913708 0.003 0.0113137085
      vertex -0.010101273 0.0 0.010613709
    endloop
  endfacet
  facet normal -0.9659255850579416 0.0 0.2588199453876637
    outer loop
      vertex -0.009913708 0.003 0.0113137085
      vertex -0.010101273 0.003 0.010613709
      vertex -0.010101273 0.0 0.010613709
    endloop
  endfacet
  facet normal -0.7071067811865475 0.0 0.7071067811865475
    outer loop
      vertex -0.010101273 0.0 0.010613709
      vertex -0.010101273 0.003 0.010613709
      vertex -0.010613709 0.0 0.010101273
    endloop
  endfacet
  facet normal -0.7071067811865475 0.0 0.7071067811865475
    outer loop
      vertex -0.010101273 0.003 0.010613709
      vertex -0.010613709 0.003 0.010101273
      vertex -0.010613709 0.0 0.010101273
    endloop
  endfacet
  facet normal -0.2588199453876637 0.0 0.9659255850579416
    outer loop
      vertex -0.010613709 0.0 0.010101273
      vertex -0.010613709 0.003 0.010101273
      vertex -0.0113137085 0.0 0.009913708
    endloop
  endfacet
  facet normal -0.2588199453876637 0.0 0.9659255850579416
    outer loop
      vertex -0.010613709 0.003 0.010101273
      vertex -0.0113137085 0.003 0.009913708
      vertex -0.0113137085 0.0 0.009913708
    endloop
  endfacet
  facet normal 0.2588199453876637 -0.0 0.9659255850579416
    outer loop
      vertex -0.0113137085 0.0 0.009913708
      vertex -0.0113137085 0.003 0.009913708
      vertex -0.012013708 0.0 0.010101273
    endloop
  endfacet
  facet normal 0.2588199453876637 0.0 0.9659255850579416
    outer loop
      vertex -0.0113137085 0.003 0.009913708
      vertex -0.012013708 0.003 0.010101273
      vertex -0.012013708 0.0 0.010101273
    endloop
  endfacet
  facet normal 0.7071067811865487 -0.0 0.7071067811865464
    outer loop
      vertex -0.012013708 0.0 0.010101273
      vertex -0.012013708 0.003 0.010101273
      vertex -0.012526144 0.0 0.010613709
    endloop
  endfacet
  facet normal 0.7071067811865487 0.0 0.7071067811865464
    outer loop
      vertex -0.012013708 0.003 0.010101273
      vertex -0.012526144 0.003 0.010613709
      vertex -0.012526144 0.0 0.010613709
    endloop
  endfacet
  facet normal 0.965925585057941 -0.0 0.2588199453876659
    outer loop
      vertex -0.012526144 0.0 0.010613709
      vertex -0.012526144 0.003 0.010613709
      vertex -0.012713709 0.0 0.0113137085
    endloop
  endfacet
  facet normal 0.965925585057941 0.0 0.2588199453876659
    outer loop
      vertex -0.012526144 0.003 0.010613709
      vertex -0.012713709 0.003 0.0113137085
      vertex -0.012713709 0.0 0.0113137085
    endloop
  endfacet
  facet normal 0.965925585057941 0.0 -0.2588199453876659
    outer loop
      vertex -0.012713709 0.0 0.0113137085
      vertex -0.012713709 0.003 0.0113137085
      vertex -0.012526144 0.0 0.012013708
    endloop
  endfacet
  facet normal 0.965925585057941 0.0 -0.2588199453876659
    outer loop
      vertex -0.012713709 0.003 0.0113137085
      vertex -0.012526144 0.003 0.012013708
      vertex -0.012526144 0.0 0.012013708
    endloop
  endfacet
  facet normal 0.7071067811865475 0.0 -0.7071067811865475
    outer loop
      vertex -0.012526144 0.0 0.012013708
      vertex -0.012526144 0.003 0.012013708
      vertex -0.012013708 0.0 0.012526144
    endloop
  endfacet
  facet normal 0.7071067811865475 0.0 -0.7071067811865475
    outer loop
      vertex -0.012526144 0.003 0.012013708
      vertex -0.012013708 0.003 0.012526144
      vertex -0.012013708 0.0 0.012526144
    endloop
  endfacet
  facet normal 0.2588199453876659 0.0 -0.965925585057941
    outer loop
      vertex -0.012013708 0.0 0.012526144
      vertex -0.012013708 0.003 0.012526144
      vertex -0.0113137085 0.0 0.012713709
    endloop
  endfacet
  facet normal 0.2588199453876659 0.0 -0.965925585057941
    outer loop
      vertex -0.012013708 0.003 0.012526144
      vertex -0.0113137085 0.003 0.012713709
      vertex -0.0113137085 0.0 0.012713709
    endloop
  endfacet
  facet normal -0.2588199453876659 0.0 -0.965925585057941
    outer loop
      vertex -0.0113137085 0.0 0.012713709
      vertex -0.0113137085 0.003 0.012713709
      vertex -0.010613709 0.0 0.012526144
    endloop
  endfacet
  facet normal -0.2588199453876659 0.0 -0.965925585057941
    outer loop
      vertex -0.0113137085 0.003 0.012713709
      vertex -0.010613709 0.003 0.012526144
      vertex -0.010613709 0.0 0.012526144
    endloop
  endfacet
  facet normal -0.7071067811865464 0.0 -0.7071067811865487
    outer loop
      vertex -0.010613709 0.0 0.012526144
      vertex -0.010613709 0.003 0.012526144
      vertex -0.010101273 0.0 0.012013708
    endloop
  endfacet
  facet normal -0.7071067811865464 0.0 -0.7071067811865487
    outer loop
      vertex -0.010613709 0.003 0.012526144
      vertex -0.010101273 0.003 0.012013708
      vertex -0.010101273 0.0 0.012013708
    endloop
  endfacet
  facet normal -0.9659255850579416 0.0 -0.2588199453876637
    outer loop
      vertex -0.010101273 0.0 0.012013708
      vertex -0.010101273 0.003 0.012013708
      vertex -0.009913708 0.0 0.0113137085
    endloop
  endfacet
  facet normal -0.9659255850579416 0.0 -0.2588199453876637
    outer loop
      vertex -0.010101273 0.003 0.012013708
      vertex -0.009913708 0.003 0.0113137085
      vertex -0.009913708 0.0 0.0113137085
    endloop
  endfacet
  facet normal 0.9583610739720814 -0.0 0.2855591915786964
    outer loop
      vertex 0.014291219 0.0 0.0071945144
      vertex 0.014291219 0.003 0.0071945144
      vertex 0.014090333 0.0 0.007868705
    endloop
  endfacet
  facet normal 0.9583610739720814 0.0 0.2855591915786964
    outer loop
      vertex 0.014291219 0.003 0.0071945144
      vertex 0.014090333 0.003 0.007868705
      vertex 0.014090333 0.0 0.007868705
    endloop
  endfacet
  facet normal 0.9979533577855709 0.0 -0.06394603728538809
    outer loop
      vertex 0.014090333 0.0 0.007868705
      vertex 0.014090333 0.003 0.007868705
      vertex 0.014135318 0.0 0.008570749
    endloop
  endfacet
  facet normal 0.9979533577855709 0.0 -0.06394603728538809
    outer loop
      vertex 0.014090333 0.003 0.007868705
      vertex 0.014135318 0.003 0.008570749
      vertex 0.014135318 0.0 0.008570749
    endloop
  endfacet
  facet normal 0.914077070539867 0.0 -0.4055405147617867
    outer loop
      vertex 0.014135318 0.0 0.008570749
      vertex 0.014135318 0.003 0.008570749
      vertex 0.014420609 0.0 0.009213787
    endloop
  endfacet
  facet normal 0.914077070539867 0.0 -0.4055405147617867
    outer loop
      vertex 0.014135318 0.003 0.008570749
      vertex 0.014420609 0.003 0.009213787
      vertex 0.014420609 0.0 0.009213787
    endloop
  endfacet
  facet normal -0.9659255850579416 0.0 0.2588199453876637
    outer loop
      vertex -0.009913708 0.0 -0.0113137085
      vertex -0.009913708 0.003 -0.0113137085
      vertex -0.010101273 0.0 -0.012013708
    endloop
  endfacet
  facet normal -0.9659255850579416 0.0 0.2588199453876637
    outer loop
      vertex -0.009913708 0.003 -0.0113137085
      vertex -0.010101273 0.003 -0.012013708
      vertex -0.010101273 0.0 -0.012013708
    endloop
  endfacet
  facet normal -0.7071067811865464 0.0 0.7071067811865487
    outer loop
      vertex -0.010101273 0.0 -0.012013708
      vertex -0.010101273 0.003 -0.012013708
      vertex -0.010613709 0.0 -0.012526144
    endloop
  endfacet
  facet normal -0.7071067811865464 0.0 0.7071067811865487
    outer loop
      vertex -0.010101273 0.003 -0.012013708
      vertex -0.010613709 0.003 -0.012526144
      vertex -0.010613709 0.0 -0.012526144
    endloop
  endfacet
  facet normal -0.2588199453876659 0.0 0.965925585057941
    outer loop
      vertex -0.010613709 0.0 -0.012526144
      vertex -0.010613709 0.003 -0.012526144
      vertex -0.0113137085 0.0 -0.012713709
    endloop
  endfacet
  facet normal -0.2588199453876659 0.0 0.965925585057941
    outer loop
      vertex -0.010613709 0.003 -0.012526144
      vertex -0.0113137085 0.003 -0.012713709
      vertex -0.0113137085 0.0 -0.012713709
    endloop
  endfacet
  facet normal 0.2588199453876659 -0.0 0.965925585057941
    outer loop
      vertex -0.0113137085 0.0 -0.012713709
      vertex -0.0113137085 0.003 -0.012713709
      vertex -0.012013708 0.0 -0.012526144
    endloop
  endfacet
  facet normal 0.2588199453876659 0.0 0.965925585057941
    outer loop
      vertex -0.0113137085 0.003 -0.012713709
      vertex -0.012013708 0.003 -0.012526144
      vertex -0.012013708 0.0 -0.012526144
    endloop
  endfacet
  facet normal 0.7071067811865475 -0.0 0.7071067811865475
    outer loop
      vertex -0.012013708 0.0 -0.012526144
      vertex -0.012013708 0.003 -0.012526144
      vertex -0.012526144 0.0 -0.012013708
    endloop
  endfacet
  facet normal 0.7071067811865475 0.0 0.7071067811865475
    outer loop
      vertex -0.012013708 0.003 -0.012526144
      vertex -0.012526144 0.003 -0.012013708
      vertex -0.012526144 0.0 -0.012013708
    endloop
  endfacet
  facet normal 0.965925585057941 -0.0 0.2588199453876659
    outer loop
      vertex -0.012526144 0.0 -0.012013708
      vertex -0.012526144 0.003 -0.012013708
      vertex -0.012713709 0.0 -0.0113137085
    endloop
  endfacet
  facet normal 0.965925585057941 0.0 0.2588199453876659
    outer loop
      vertex -0.012526144 0.003 -0.012013708
      vertex -0.012713709 0.003 -0.0113137085
      vertex -0.012713709 0.0 -0.0113137085
    endloop
  endfacet
  facet normal 0.965925585057941 0.0 -0.2588199453876659
    outer loop
      vertex -0.012713709 0.0 -0.0113137085
      vertex -0.012713709 0.003 -0.0113137085
      vertex -0.012526144 0.0 -0.010613709
    endloop
  endfacet
  facet normal 0.965925585057941 0.0 -0.2588199453876659
    outer loop
      vertex -0.012713709 0.003 -0.0113137085
      vertex -0.012526144 0.003 -0.010613709
      vertex -0.012526144 0.0 -0.010613709
    endloop
  endfacet
  facet normal 0.7071067811865487 0.0 -0.7071067811865464
    outer loop
      vertex -0.012526144 0.0 -0.010613709
      vertex -0.012526144 0.003 -0.010613709
      vertex -0.012013708 0.0 -0.010101273
    endloop
  endfacet
  facet normal 0.7071067811865487 0.0 -0.7071067811865464
    outer loop
      vertex -0.012526144 0.003 -0.010613709
      vertex -0.012013708 0.003 -0.010101273
      vertex -0.012013708 0.0 -0.010101273
    endloop
  endfacet
  facet normal 0.2588199453876637 0.0 -0.9659255850579416
    outer loop
      vertex -0.012013708 0.0 -0.010101273
      vertex -0.012013708 0.003 -0.010101273
      vertex -0.0113137085 0.0 -0.009913708
    endloop
  endfacet
  facet normal 0.2588199453876637 0.0 -0.9659255850579416
    outer loop
      vertex -0.012013708 0.003 -0.010101273
      vertex -0.0113137085 0.003 -0.009913708
      vertex -0.0113137085 0.0 -0.009913708
    endloop
  endfacet
  facet normal -0.2588199453876637 0.0 -0.9659255850579416
    outer loop
      vertex -0.0113137085 0.0 -0.009913708
      vertex -0.0113137085 0.003 -0.009913708
      vertex -0.010613709 0.0 -0.010101273
    endloop
  endfacet
  facet normal -0.2588199453876637 0.0 -0.9659255850579416
    outer loop
      vertex -0.0113137085 0.003 -0.009913708
      vertex -0.010613709 0.003 -0.010101273
      vertex -0.010613709 0.0 -0.010101273
    endloop
  endfacet
  facet normal -0.7071067811865475 0.0 -0.7071067811865475
    outer loop
      vertex -0.010613709 0.0 -0.010101273
      vertex -0.010613709 0.003 -0.010101273
      vertex -0.010101273 0.0 -0.010613709
    endloop
  endfacet
  facet normal -0.7071067811865475 0.0 -0.7071067811865475
    outer loop
      vertex -0.010613709 0.003 -0.010101273
      vertex -0.010101273 0.003 -0.010613709
      vertex -0.010101273 0.0 -0.010613709
    endloop
  endfacet
  facet normal -0.9659255850579416 0.0 -0.2588199453876637
    outer loop
      vertex -0.010101273 0.0 -0.010613709
      vertex -0.010101273 0.003 -0.010613709
      vertex -0.009913708 0.0 -0.0113137085
    endloop
  endfacet
  facet normal -0.9659255850579416 0.0 -0.2588199453876637
    outer loop
      vertex -0.010101273 0.003 -0.010613709
      vertex -0.009913708 0.003 -0.0113137085
      vertex -0.009913708 0.0 -0.0113137085
    endloop
  endfacet
  facet normal 0.9343375237953978 0.0 -0.3563893820358353
    outer loop
      vertex 0.014420609 0.0 0.009213787
      vertex 0.014420609 0.003 0.009213787
      vertex 0.01502987 0.003 0.010811072
    endloop
  endfacet
  facet normal 0.9343375237953978 0.0 -0.3563893820358353
    outer loop
      vertex 0.014420609 0.0 0.009213787
      vertex 0.01502987 0.003 0.010811072
      vertex 0.01502987 0.0 0.010811072
    endloop
  endfacet
  facet normal 0.9954415361788522 0.0 0.09537372830023384
    outer loop
      vertex 0.01502987 0.003 0.010811072
      vertex 0.014866825 0.003 0.012512817
      vertex 0.01502987 0.0 0.010811072
    endloop
  endfacet
  facet normal 0.9954415361788522 0.0 0.09537372830023384
    outer loop
      vertex 0.01502987 0.0 0.010811072
      vertex 0.014866825 0.003 0.012512817
      vertex 0.014866825 0.0 0.012512817
    endloop
  endfacet
  facet normal 0.8496694657828139 0.0 0.5273156539648219
    outer loop
      vertex 0.014866825 0.003 0.012512817
      vertex 0.013965359 0.003 0.013965359
      vertex 0.014866825 0.0 0.012512817
    endloop
  endfacet
  facet normal 0.8496694657828139 0.0 0.5273156539648219
    outer loop
      vertex 0.014866825 0.0 0.012512817
      vertex 0.013965359 0.003 0.013965359
      vertex 0.013965359 0.0 0.013965359
    endloop
  endfacet
  facet normal 0.5273156539648219 0.0 0.8496694657828139
    outer loop
      vertex 0.013965359 0.003 0.013965359
      vertex 0.012512817 0.003 0.014866825
      vertex 0.013965359 0.0 0.013965359
    endloop
  endfacet
  facet normal 0.5273156539648219 0.0 0.8496694657828139
    outer loop
      vertex 0.013965359 0.0 0.013965359
      vertex 0.012512817 0.003 0.014866825
      vertex 0.012512817 0.0 0.014866825
    endloop
  endfacet
  facet normal 0.09537372830023384 0.0 0.9954415361788522
    outer loop
      vertex 0.012512817 0.003 0.014866825
      vertex 0.010811072 0.003 0.01502987
      vertex 0.012512817 0.0 0.014866825
    endloop
  endfacet
  facet normal 0.09537372830023384 0.0 0.9954415361788522
    outer loop
      vertex 0.012512817 0.0 0.014866825
      vertex 0.010811072 0.003 0.01502987
      vertex 0.010811072 0.0 0.01502987
    endloop
  endfacet
  facet normal -0.3563893820358353 0.0 0.9343375237953978
    outer loop
      vertex 0.010811072 0.003 0.01502987
      vertex 0.009213787 0.003 0.014420609
      vertex 0.010811072 0.0 0.01502987
    endloop
  endfacet
  facet normal -0.3563893820358353 0.0 0.9343375237953978
    outer loop
      vertex 0.010811072 0.0 0.01502987
      vertex 0.009213787 0.003 0.014420609
      vertex 0.009213787 0.0 0.014420609
    endloop
  endfacet
  facet normal -0.965925585057941 0.0 0.2588199453876659
    outer loop
      vertex 0.012713709 0.0 -0.0113137085
      vertex 0.012713709 0.003 -0.0113137085
      vertex 0.012526144 0.0 -0.012013708
    endloop
  endfacet
  facet normal -0.965925585057941 0.0 0.2588199453876659
    outer loop
      vertex 0.012713709 0.003 -0.0113137085
      vertex 0.012526144 0.003 -0.012013708
      vertex 0.012526144 0.0 -0.012013708
    endloop
  endfacet
  facet normal -0.7071067811865475 0.0 0.7071067811865475
    outer loop
      vertex 0.012526144 0.0 -0.012013708
      vertex 0.012526144 0.003 -0.012013708
      vertex 0.012013708 0.0 -0.012526144
    endloop
  endfacet
  facet normal -0.7071067811865475 0.0 0.7071067811865475
    outer loop
      vertex 0.012526144 0.003 -0.012013708
      vertex 0.012013708 0.003 -0.012526144
      vertex 0.012013708 0.0 -0.012526144
    endloop
  endfacet
  facet normal -0.2588199453876659 0.0 0.965925585057941
    outer loop
      vertex 0.012013708 0.0 -0.012526144
      vertex 0.012013708 0.003 -0.012526144
      vertex 0.0113137085 0.0 -0.012713709
    endloop
  endfacet
  facet normal -0.2588199453876659 0.0 0.965925585057941
    outer loop
      vertex 0.012013708 0.003 -0.012526144
      vertex 0.0113137085 0.003 -0.012713709
      vertex 0.0113137085 0.0 -0.012713709
    endloop
  endfacet
  facet normal 0.2588199453876659 -0.0 0.965925585057941
    outer loop
      vertex 0.0113137085 0.0 -0.012713709
      vertex 0.0113137085 0.003 -0.012713709
      vertex 0.010613709 0.0 -0.012526144
    endloop
  endfacet
  facet normal 0.2588199453876659 0.0 0.965925585057941
    outer loop
      vertex 0.0113137085 0.003 -0.012713709
      vertex 0.010613709 0.003 -0.012526144
      vertex 0.010613709 0.0 -0.012526144
    endloop
  endfacet
  facet normal 0.7071067811865464 -0.0 0.7071067811865487
    outer loop
      vertex 0.010613709 0.0 -0.012526144
      vertex 0.010613709 0.003 -0.012526144
      vertex 0.010101273 0.0 -0.012013708
    endloop
  endfacet
  facet normal 0.7071067811865464 0.0 0.7071067811865487
    outer loop
      vertex 0.010613709 0.003 -0.012526144
      vertex 0.010101273 0.003 -0.012013708
      vertex 0.010101273 0.0 -0.012013708
    endloop
  endfacet
  facet normal 0.9659255850579416 -0.0 0.2588199453876637
    outer loop
      vertex 0.010101273 0.0 -0.012013708
      vertex 0.010101273 0.003 -0.012013708
      vertex 0.009913708 0.0 -0.0113137085
    endloop
  endfacet
  facet normal 0.9659255850579416 0.0 0.2588199453876637
    outer loop
      vertex 0.010101273 0.003 -0.012013708
      vertex 0.009913708 0.003 -0.0113137085
      vertex 0.009913708 0.0 -0.0113137085
    endloop
  endfacet
  facet normal 0.9659255850579416 0.0 -0.2588199453876637
    outer loop
      vertex 0.009913708 0.0 -0.0113137085
      vertex 0.009913708 0.003 -0.0113137085
      vertex 0.010101273 0.0 -0.010613709
    endloop
  endfacet
  facet normal 0.9659255850579416 0.0 -0.2588199453876637
    outer loop
      vertex 0.009913708 0.003 -0.0113137085
      vertex 0.010101273 0.003 -0.010613709
      vertex 0.010101273 0.0 -0.010613709
    endloop
  endfacet
  facet normal 0.7071067811865475 0.0 -0.7071067811865475
    outer loop
      vertex 0.010101273 0.0 -0.010613709
      vertex 0.010101273 0.003 -0.010613709
      vertex 0.010613709 0.0 -0.010101273
    endloop
  endfacet
  facet normal 0.7071067811865475 0.0 -0.7071067811865475
    outer loop
      vertex 0.010101273 0.003 -0.010613709
      vertex 0.010613709 0.003 -0.010101273
      vertex 0.010613709 0.0 -0.010101273
    endloop
  endfacet
  facet normal 0.2588199453876637 0.0 -0.9659255850579416
    outer loop
      vertex 0.010613709 0.0 -0.010101273
      vertex 0.010613709 0.003 -0.010101273
      vertex 0.0113137085 0.0 -0.009913708
    endloop
  endfacet
  facet normal 0.2588199453876637 0.0 -0.9659255850579416
    outer loop
      vertex 0.010613709 0.003 -0.010101273
      vertex 0.0113137085 0.003 -0.009913708
      vertex 0.0113137085 0.0 -0.009913708
    endloop
  endfacet
  facet normal -0.2588199453876637 0.0 -0.9659255850579416
    outer loop
      vertex 0.0113137085 0.0 -0.009913708
      vertex 0.0113137085 0.003 -0.009913708
      vertex 0.012013708 0.0 -0.010101273
    endloop
  endfacet
  facet normal -0.2588199453876637 0.0 -0.9659255850579416
    outer loop
      vertex 0.0113137085 0.003 -0.009913708
      vertex 0.012013708 0.003 -0.010101273
      vertex 0.012013708 0.0 -0.010101273
    endloop
  endfacet
  facet normal -0.7071067811865487 0.0 -0.7071067811865464
    outer loop
      vertex 0.012013708 0.0 -0.010101273
      vertex 0.012013708 0.003 -0.010101273
      vertex 0.012526144 0.0 -0.010613709
    endloop
  endfacet
  facet normal -0.7071067811865487 0.0 -0.7071067811865464
    outer loop
      vertex 0.012013708 0.003 -0.010101273
      vertex 0.012526144 0.003 -0.010613709
      vertex 0.012526144 0.0 -0.010613709
    endloop
  endfacet
  facet normal -0.965925585057941 0.0 -0.2588199453876659
    outer loop
      vertex 0.012526144 0.0 -0.010613709
      vertex 0.012526144 0.003 -0.010613709
      vertex 0.012713709 0.0 -0.0113137085
    endloop
  endfacet
  facet normal -0.965925585057941 0.0 -0.2588199453876659
    outer loop
      vertex 0.012526144 0.003 -0.010613709
      vertex 0.012713709 0.003 -0.0113137085
      vertex 0.012713709 0.0 -0.0113137085
    endloop
  endfacet
  facet normal -0.4055405147617867 0.0 0.914077070539867
    outer loop
      vertex 0.009213787 0.0 0.014420609
      vertex 0.009213787 0.003 0.014420609
      vertex 0.008570749 0.0 0.014135318
    endloop
  endfacet
  facet normal -0.4055405147617867 0.0 0.914077070539867
    outer loop
      vertex 0.009213787 0.003 0.014420609
      vertex 0.008570749 0.003 0.014135318
      vertex 0.008570749 0.0 0.014135318
    endloop
  endfacet
  facet normal -0.06394603728538809 0.0 0.9979533577855709
    outer loop
      vertex 0.008570749 0.0 0.014135318
      vertex 0.008570749 0.003 0.014135318
      vertex 0.007868705 0.0 0.014090333
    endloop
  endfacet
  facet normal -0.06394603728538809 0.0 0.9979533577855709
    outer loop
      vertex 0.008570749 0.003 0.014135318
      vertex 0.007868705 0.003 0.014090333
      vertex 0.007868705 0.0 0.014090333
    endloop
  endfacet
  facet normal 0.2855591915786964 -0.0 0.9583610739720814
    outer loop
      vertex 0.007868705 0.0 0.014090333
      vertex 0.007868705 0.003 0.014090333
      vertex 0.0071945144 0.0 0.014291219
    endloop
  endfacet
  facet normal 0.2855591915786964 0.0 0.9583610739720814
    outer loop
      vertex 0.007868705 0.003 0.014090333
      vertex 0.0071945144 0.003 0.014291219
      vertex 0.0071945144 0.0 0.014291219
    endloop
  endfacet
  facet normal -0.965925585057941 0.0 0.2588199453876659
    outer loop
      vertex 0.012713709 0.0 0.0113137085
      vertex 0.012713709 0.003 0.0113137085
      vertex 0.012526144 0.0 0.010613709
    endloop
  endfacet
  facet normal -0.965925585057941 0.0 0.2588199453876659
    outer loop
      vertex 0.012713709 0.003 0.0113137085
      vertex 0.012526144 0.003 0.010613709
      vertex 0.012526144 0.0 0.010613709
    endloop
  endfacet
  facet normal -0.7071067811865487 0.0 0.7071067811865464
    outer loop
      vertex 0.012526144 0.0 0.010613709
      vertex 0.012526144 0.003 0.010613709
      vertex 0.012013708 0.0 0.010101273
    endloop
  endfacet
  facet normal -0.7071067811865487 0.0 0.7071067811865464
    outer loop
      vertex 0.012526144 0.003 0.010613709
      vertex 0.012013708 0.003 0.010101273
      vertex 0.012013708 0.0 0.010101273
    endloop
  endfacet
  facet normal -0.2588199453876637 0.0 0.9659255850579416
    outer loop
      vertex 0.012013708 0.0 0.010101273
      vertex 0.012013708 0.003 0.010101273
      vertex 0.0113137085 0.0 0.009913708
    endloop
  endfacet
  facet normal -0.2588199453876637 0.0 0.9659255850579416
    outer loop
      vertex 0.012013708 0.003 0.010101273
      vertex 0.0113137085 0.003 0.009913708
      vertex 0.0113137085 0.0 0.009913708
    endloop
  endfacet
  facet normal 0.2588199453876637 -0.0 0.9659255850579416
    outer loop
      vertex 0.0113137085 0.0 0.009913708
      vertex 0.0113137085 0.003 0.009913708
      vertex 0.010613709 0.0 0.010101273
    endloop
  endfacet
  facet normal 0.2588199453876637 0.0 0.9659255850579416
    outer loop
      vertex 0.0113137085 0.003 0.009913708
      vertex 0.010613709 0.003 0.010101273
      vertex 0.010613709 0.0 0.010101273
    endloop
  endfacet
  facet normal 0.7071067811865475 -0.0 0.7071067811865475
    outer loop
      vertex 0.010613709 0.0 0.010101273
      vertex 0.010613709 0.003 0.010101273
      vertex 0.010101273 0.0 0.010613709
    endloop
  endfacet
  facet normal 0.7071067811865475 0.0 0.7071067811865475
    outer loop
      vertex 0.010613709 0.003 0.010101273
      vertex 0.010101273 0.003 0.010613709
      vertex 0.010101273 0.0 0.010613709
    endloop
  endfacet
  facet normal 0.9659255850579416 -0.0 0.2588199453876637
    outer loop
      vertex 0.010101273 0.0 0.010613709
      vertex 0.010101273 0.003 0.010613709
      vertex 0.009913708 0.0 0.0113137085
    endloop
  endfacet
  facet normal 0.9659255850579416 0.0 0.2588199453876637
    outer loop
      vertex 0.010101273 0.003 0.010613709
      vertex 0.009913708 0.003 0.0113137085
      vertex 0.009913708 0.0 0.0113137085
    endloop
  endfacet
  facet normal 0.9659255850579416 0.0 -0.2588199453876637
    outer loop
      vertex 0.009913708 0.0 0.0113137085
      vertex 0.009913708 0.003 0.0113137085
      vertex 0.010101273 0.0 0.012013708
    endloop
  endfacet
  facet normal 0.9659255850579416 0.0 -0.2588199453876637
    outer loop
      vertex 0.009913708 0.003 0.0113137085
      vertex 0.010101273 0.003 0.012013708
      vertex 0.010101273 0.0 0.012013708
    endloop
  endfacet
  facet normal 0.7071067811865464 0.0 -0.7071067811865487
    outer loop
      vertex 0.010101273 0.0 0.012013708
      vertex 0.010101273 0.003 0.012013708
      vertex 0.010613709 0.0 0.012526144
    endloop
  endfacet
  facet normal 0.7071067811865464 0.0 -0.7071067811865487
    outer loop
      vertex 0.010101273 0.003 0.012013708
      vertex 0.010613709 0.003 0.012526144
      vertex 0.010613709 0.0 0.012526144
    endloop
  endfacet
  facet normal 0.2588199453876659 0.0 -0.965925585057941
    outer loop
      vertex 0.010613709 0.0 0.012526144
      vertex 0.010613709 0.003 0.012526144
      vertex 0.0113137085 0.0 0.012713709
    endloop
  endfacet
  facet normal 0.2588199453876659 0.0 -0.965925585057941
    outer loop
      vertex 0.010613709 0.003 0.012526144
      vertex 0.0113137085 0.003 0.012713709
      vertex 0.0113137085 0.0 0.012713709
    endloop
  endfacet
  facet normal -0.2588199453876659 0.0 -0.965925585057941
    outer loop
      vertex 0.0113137085 0.0 0.012713709
      vertex 0.0113137085 0.003 0.012713709
      vertex 0.012013708 0.0 0.012526144
    endloop
  endfacet
  facet normal -0.2588199453876659 0.0 -0.965925585057941
    outer loop
      vertex 0.0113137085 0.003 0.012713709
      vertex 0.012013708 0.003 0.012526144
      vertex 0.012013708 0.0 0.012526144
    endloop
  endfacet
  facet normal -0.7071067811865475 0.0 -0.7071067811865475
    outer loop
      vertex 0.012013708 0.0 0.012526144
      vertex 0.012013708 0.003 0.012526144
      vertex 0.012526144 0.0 0.012013708
    endloop
  endfacet
  facet normal -0.7071067811865475 0.0 -0.7071067811865475
    outer loop
      vertex 0.012013708 0.003 0.012526144
      vertex 0.012526144 0.003 0.012013708
      vertex 0.012526144 0.0 0.012013708
    endloop
  endfacet
  facet normal -0.965925585057941 0.0 -0.2588199453876659
    outer loop
      vertex 0.012526144 0.0 0.012013708
      vertex 0.012526144 0.003 0.012013708
      vertex 0.012713709 0.0 0.0113137085
    endloop
  endfacet
  facet normal -0.965925585057941 0.0 -0.2588199453876659
    outer loop
      vertex 0.012526144 0.003 0.012013708
      vertex 0.012713709 0.003 0.0113137085
      vertex 0.012713709 0.0 0.0113137085
    endloop
  endfacet
  facet normal 0.23108316203398657 -0.0 0.9729340019879943
    outer loop
      vertex 0.0071945144 0.0 0.014291219
      vertex 0.0071945144 0.003 0.014291219
      vertex 1.4377388E-17 0.003 0.016
    endloop
  endfacet
  facet normal 0.23108316203398657 0.0 0.9729340019879943
    outer loop
      vertex 0.0071945144 0.0 0.014291219
      vertex 1.4377388E-17 0.003 0.016
      vertex 1.4377388E-17 0.0 0.016
    endloop
  endfacet
  facet normal -0.23108316203398566 0.0 0.9729340019879944
    outer loop
      vertex 1.4377388E-17 0.003 0.016
      vertex -0.0071945144 0.003 0.014291219
      vertex 1.4377388E-17 0.0 0.016
    endloop
  endfacet
  facet normal -0.23108316203398566 0.0 0.9729340019879944
    outer loop
      vertex 1.4377388E-17 0.0 0.016
      vertex -0.0071945144 0.003 0.014291219
      vertex -0.0071945144 0.0 0.014291219
    endloop
  endfacet
  facet normal -0.9659258508047527 -2.3243865921618537E-16 0.25881895360872365
    outer loop
      vertex 0.011 0.0 0.0
      vertex 0.011 0.003 2.694223E-18
      vertex 0.00952628 0.0 -0.0055
    endloop
  endfacet
  facet normal -0.9659258508047527 0.0 0.2588189536087235
    outer loop
      vertex 0.011 0.003 2.694223E-18
      vertex 0.00952628 0.003 -0.0055
      vertex 0.00952628 0.0 -0.0055
    endloop
  endfacet
  facet normal -0.7071067811865475 0.0 0.7071067811865475
    outer loop
      vertex 0.00952628 0.0 -0.0055
      vertex 0.00952628 0.003 -0.0055
      vertex 0.0055 0.0 -0.00952628
    endloop
  endfacet
  facet normal -0.7071067811865475 0.0 0.7071067811865475
    outer loop
      vertex 0.00952628 0.003 -0.0055
      vertex 0.0055 0.003 -0.00952628
      vertex 0.0055 0.0 -0.00952628
    endloop
  endfacet
  facet normal -0.2588189536087238 0.0 0.9659258508047527
    outer loop
      vertex 0.0055 0.0 -0.00952628
      vertex 0.0055 0.003 -0.00952628
      vertex 3.1160464E-18 0.0 -0.011
    endloop
  endfacet
  facet normal -0.2588189536087238 0.0 0.9659258508047527
    outer loop
      vertex 0.0055 0.003 -0.00952628
      vertex 3.1160464E-18 0.003 -0.011
      vertex 3.1160464E-18 0.0 -0.011
    endloop
  endfacet
  facet normal 0.2588189536087234 -0.0 0.9659258508047527
    outer loop
      vertex 3.1160464E-18 0.0 -0.011
      vertex 3.1160464E-18 0.003 -0.011
      vertex -0.0055 0.0 -0.00952628
    endloop
  endfacet
  facet normal 0.2588189536087234 0.0 0.9659258508047527
    outer loop
      vertex 3.1160464E-18 0.003 -0.011
      vertex -0.0055 0.003 -0.00952628
      vertex -0.0055 0.0 -0.00952628
    endloop
  endfacet
  facet normal 0.7071067811865475 -0.0 0.7071067811865475
    outer loop
      vertex -0.0055 0.0 -0.00952628
      vertex -0.0055 0.003 -0.00952628
      vertex -0.00952628 0.0 -0.0055
    endloop
  endfacet
  facet normal 0.7071067811865475 0.0 0.7071067811865475
    outer loop
      vertex -0.0055 0.003 -0.00952628
      vertex -0.00952628 0.003 -0.0055
      vertex -0.00952628 0.0 -0.0055
    endloop
  endfacet
  facet normal 0.9659258508047527 -0.0 0.2588189536087239
    outer loop
      vertex -0.00952628 0.0 -0.0055
      vertex -0.00952628 0.003 -0.0055
      vertex -0.011 0.0 -6.232093E-18
    endloop
  endfacet
  facet normal 0.9659258508047527 0.0 0.2588189536087239
    outer loop
      vertex -0.00952628 0.003 -0.0055
      vertex -0.011 0.003 -6.232093E-18
      vertex -0.011 0.0 -6.232093E-18
    endloop
  endfacet
  facet normal 0.9659258508047528 0.0 -0.2588189536087233
    outer loop
      vertex -0.011 0.0 -6.232093E-18
      vertex -0.011 0.003 -6.232093E-18
      vertex -0.00952628 0.0 0.0055
    endloop
  endfacet
  facet normal 0.9659258508047528 0.0 -0.2588189536087233
    outer loop
      vertex -0.011 0.003 -6.232093E-18
      vertex -0.00952628 0.003 0.0055
      vertex -0.00952628 0.0 0.0055
    endloop
  endfacet
  facet normal 0.7071067811865475 0.0 -0.7071067811865475
    outer loop
      vertex -0.00952628 0.0 0.0055
      vertex -0.00952628 0.003 0.0055
      vertex -0.0055 0.0 0.00952628
    endloop
  endfacet
  facet normal 0.7071067811865475 0.0 -0.7071067811865475
    outer loop
      vertex -0.00952628 0.003 0.0055
      vertex -0.0055 0.003 0.00952628
      vertex -0.0055 0.0 0.00952628
    endloop
  endfacet
  facet normal 0.2588189536087241 0.0 -0.9659258508047525
    outer loop
      vertex -0.0055 0.0 0.00952628
      vertex -0.0055 0.003 0.00952628
      vertex -1.179063E-17 0.0 0.011
    endloop
  endfacet
  facet normal 0.2588189536087241 0.0 -0.9659258508047525
    outer loop
      vertex -0.0055 0.003 0.00952628
      vertex -1.179063E-17 0.003 0.011
      vertex -1.179063E-17 0.0 0.011
    endloop
  endfacet
  facet normal -0.25881895360872315 0.0 -0.965925850804753
    outer loop
      vertex -1.179063E-17 0.0 0.011
      vertex -1.179063E-17 0.003 0.011
      vertex 0.0055 0.0 0.00952628
    endloop
  endfacet
  facet normal -0.25881895360872315 0.0 -0.965925850804753
    outer loop
      vertex -1.179063E-17 0.003 0.011
      vertex 0.0055 0.003 0.00952628
      vertex 0.0055 0.0 0.00952628
    endloop
  endfacet
  facet normal -0.7071067811865475 0.0 -0.7071067811865475
    outer loop
      vertex 0.0055 0.0 0.00952628
      vertex 0.0055 0.003 0.00952628
      vertex 0.00952628 0.0 0.0055
    endloop
  endfacet
  facet normal -0.7071067811865475 0.0 -0.7071067811865475
    outer loop
      vertex 0.0055 0.003 0.00952628
      vertex 0.00952628 0.003 0.0055
      vertex 0.00952628 0.0 0.0055
    endloop
  endfacet
  facet normal -0.9659258508047527 0.0 -0.25881895360872365
    outer loop
      vertex 0.00952628 0.0 0.0055
      vertex 0.00952628 0.003 0.0055
      vertex 0.011 0.0 0.0
    endloop
  endfacet
  facet normal -0.9659258508047527 2.975167346313701E-16 -0.25881895360872376
    outer loop
      vertex 0.00952628 0.003 0.0055
      vertex 0.011 0.003 2.694223E-18
      vertex 0.011 0.0 0.0
    endloop
  endfacet
  facet normal -0.2855591915786964 0.0 0.9583610739720814
    outer loop
      vertex -0.0071945144 0.0 0.014291219
      vertex -0.0071945144 0.003 0.014291219
      vertex -0.007868705 0.0 0.014090333
    endloop
  endfacet
  facet normal -0.2855591915786964 0.0 0.9583610739720814
    outer loop
      vertex -0.0071945144 0.003 0.014291219
      vertex -0.007868705 0.003 0.014090333
      vertex -0.007868705 0.0 0.014090333
    endloop
  endfacet
  facet normal 0.06394603728538809 -0.0 0.9979533577855709
    outer loop
      vertex -0.007868705 0.0 0.014090333
      vertex -0.007868705 0.003 0.014090333
      vertex -0.008570749 0.0 0.014135318
    endloop
  endfacet
  facet normal 0.06394603728538809 0.0 0.9979533577855709
    outer loop
      vertex -0.007868705 0.003 0.014090333
      vertex -0.008570749 0.003 0.014135318
      vertex -0.008570749 0.0 0.014135318
    endloop
  endfacet
  facet normal 0.4055405147617867 -0.0 0.914077070539867
    outer loop
      vertex -0.008570749 0.0 0.014135318
      vertex -0.008570749 0.003 0.014135318
      vertex -0.009213787 0.0 0.014420609
    endloop
  endfacet
  facet normal 0.4055405147617867 0.0 0.914077070539867
    outer loop
      vertex -0.008570749 0.003 0.014135318
      vertex -0.009213787 0.003 0.014420609
      vertex -0.009213787 0.0 0.014420609
    endloop
  endfacet
  facet normal 0.3563893820358353 -0.0 0.9343375237953978
    outer loop
      vertex -0.009213787 0.0 0.014420609
      vertex -0.009213787 0.003 0.014420609
      vertex -0.010811072 0.003 0.01502987
    endloop
  endfacet
  facet normal 0.3563893820358353 0.0 0.9343375237953978
    outer loop
      vertex -0.009213787 0.0 0.014420609
      vertex -0.010811072 0.003 0.01502987
      vertex -0.010811072 0.0 0.01502987
    endloop
  endfacet
  facet normal -0.09537372830023384 0.0 0.9954415361788522
    outer loop
      vertex -0.010811072 0.003 0.01502987
      vertex -0.012512817 0.003 0.014866825
      vertex -0.010811072 0.0 0.01502987
    endloop
  endfacet
  facet normal -0.09537372830023384 0.0 0.9954415361788522
    outer loop
      vertex -0.010811072 0.0 0.01502987
      vertex -0.012512817 0.003 0.014866825
      vertex -0.012512817 0.0 0.014866825
    endloop
  endfacet
  facet normal -0.5273156539648219 0.0 0.8496694657828139
    outer loop
      vertex -0.012512817 0.003 0.014866825
      vertex -0.013965359 0.003 0.013965359
      vertex -0.012512817 0.0 0.014866825
    endloop
  endfacet
  facet normal -0.5273156539648219 0.0 0.8496694657828139
    outer loop
      vertex -0.012512817 0.0 0.014866825
      vertex -0.013965359 0.003 0.013965359
      vertex -0.013965359 0.0 0.013965359
    endloop
  endfacet
  facet normal -0.8496694657828139 0.0 0.5273156539648219
    outer loop
      vertex -0.013965359 0.003 0.013965359
      vertex -0.014866825 0.003 0.012512817
      vertex -0.013965359 0.0 0.013965359
    endloop
  endfacet
  facet normal -0.8496694657828139 0.0 0.5273156539648219
    outer loop
      vertex -0.013965359 0.0 0.013965359
      vertex -0.014866825 0.003 0.012512817
      vertex -0.014866825 0.0 0.012512817
    endloop
  endfacet
  facet normal -0.9954415361788522 0.0 0.09537372830023384
    outer loop
      vertex -0.014866825 0.003 0.012512817
      vertex -0.01502987 0.003 0.010811072
      vertex -0.014866825 0.0 0.012512817
    endloop
  endfacet
  facet normal -0.9954415361788522 0.0 0.09537372830023384
    outer loop
      vertex -0.014866825 0.0 0.012512817
      vertex -0.01502987 0.003 0.010811072
      vertex -0.01502987 0.0 0.010811072
    endloop
  endfacet
  facet normal -0.9343375237953978 -0.0 -0.3563893820358353
    outer loop
      vertex -0.01502987 0.003 0.010811072
      vertex -0.014420609 0.003 0.009213787
      vertex -0.01502987 0.0 0.010811072
    endloop
  endfacet
  facet normal -0.9343375237953978 0.0 -0.3563893820358353
    outer loop
      vertex -0.01502987 0.0 0.010811072
      vertex -0.014420609 0.003 0.009213787
      vertex -0.014420609 0.0 0.009213787
    endloop
  endfacet
  facet normal 0.0 1.0 0.0
    outer loop
      vertex 0.014291219 0.003 -0.0071945144
      vertex 0.012013708 0.003 -0.010101273
      vertex 0.0113137085 0.003 -0.009913708
    endloop
  endfacet
  facet normal -0.0 1.0 0.0
    outer loop
      vertex -0.0071945144 0.003 0.014291219
      vertex 1.4377388E-17 0.003 0.016
      vertex -1.179063E-17 0.003 0.011
    endloop
  endfacet
  facet normal -0.0 1.0 0.0
    outer loop
      vertex -0.007868705 0.003 0.014090333
      vertex -0.0071945144 0.003 0.014291219
      vertex -0.010101273 0.003 0.012013708
    endloop
  endfacet
  facet normal -0.0 1.0 0.0
    outer loop
      vertex -0.010101273 0.003 0.012013708
      vertex -0.0071945144 0.003 0.014291219
      vertex -0.009913708 0.003 0.0113137085
    endloop
  endfacet
  facet normal 0.0 1.0 0.0
    outer loop
      vertex -0.0071945144 0.003 0.014291219
      vertex -1.179063E-17 0.003 0.011
      vertex -0.009913708 0.003 0.0113137085
    endloop
  endfacet
  facet normal 0.0 1.0 0.0
    outer loop
      vertex -0.009913708 0.003 0.0113137085
      vertex -1.179063E-17 0.003 0.011
      vertex -0.0055 0.003 0.00952628
    endloop
  endfacet
  facet normal 0.0 1.0 0.0
    outer loop
      vertex -0.014291219 0.003 0.0071945144
      vertex -0.014090333 0.003 0.007868705
      vertex -0.012013708 0.003 0.010101273
    endloop
  endfacet
  facet normal 0.0 1.0 -0.0
    outer loop
      vertex -0.014090333 0.003 0.007868705
      vertex -0.014135318 0.003 0.008570749
      vertex -0.012013708 0.003 0.010101273
    endloop
  endfacet
  facet normal 0.0 1.0 0.0
    outer loop
      vertex -0.012013708 0.003 0.010101273
      vertex -0.014135318 0.003 0.008570749
      vertex -0.012526144 0.003 0.010613709
    endloop
  endfacet
  facet normal 0.0 1.0 -0.0
    outer loop
      vertex -0.014135318 0.003 0.008570749
      vertex -0.014420609 0.003 0.009213787
      vertex -0.012526144 0.003 0.010613709
    endloop
  endfacet
  facet normal 0.0 1.0 0.0
    outer loop
      vertex -0.012526144 0.003 0.010613709
      vertex -0.014420609 0.003 0.009213787
      vertex -0.012713709 0.003 0.0113137085
    endloop
  endfacet
  facet normal 0.0 1.0 -0.0
    outer loop
      vertex -0.014420609 0.003 0.009213787
      vertex -0.01502987 0.003 0.010811072
      vertex -0.012713709 0.003 0.0113137085
    endloop
  endfacet
  facet normal 0.0 1.0 -0.0
    outer loop
      vertex -0.012713709 0.003 0.0113137085
      vertex -0.01502987 0.003 0.010811072
      vertex -0.012526144 0.003 0.012013708
    endloop
  endfacet
  facet normal 0.0 1.0 0.0
    outer loop
      vertex -0.01502987 0.003 0.010811072
      vertex -0.014866825 0.003 0.012512817
      vertex -0.012526144 0.003 0.012013708
    endloop
  endfacet
  facet normal 0.0 1.0 -0.0
    outer loop
      vertex -0.012526144 0.003 0.012013708
      vertex -0.014866825 0.003 0.012512817
      vertex -0.012013708 0.003 0.012526144
    endloop
  endfacet
  facet normal 0.0 1.0 -0.0
    outer loop
      vertex -0.011 0.003 -6.232093E-18
      vertex -0.0113137085 0.003 0.009913708
      vertex -0.00952628 0.003 0.0055
    endloop
  endfacet
  facet normal -0.0 1.0 0.0
    outer loop
      vertex -0.0113137085 0.003 0.009913708
      vertex -0.010613709 0.003 0.010101273
      vertex -0.00952628 0.003 0.0055
    endloop
  endfacet
  facet normal 0.0 1.0 -0.0
    outer loop
      vertex -0.00952628 0.003 0.0055
      vertex -0.010613709 0.003 0.010101273
      vertex -0.0055 0.003 0.00952628
    endloop
  endfacet
  facet normal -0.0 1.0 0.0
    outer loop
      vertex -0.010613709 0.003 0.010101273
      vertex -0.010101273 0.003 0.010613709
      vertex -0.0055 0.003 0.00952628
    endloop
  endfacet
  facet normal 0.0 1.0 0.0
    outer loop
      vertex -0.0055 0.003 0.00952628
      vertex -0.010101273 0.003 0.010613709
      vertex -0.009913708 0.003 0.0113137085
    endloop
  endfacet
  facet normal 0.0 1.0 0.0
    outer loop
      vertex -0.014866825 0.003 0.012512817
      vertex -0.013965359 0.003 0.013965359
      vertex -0.012013708 0.003 0.012526144
    endloop
  endfacet
  facet normal -0.0 1.0 0.0
    outer loop
      vertex -0.013965359 0.003 0.013965359
      vertex -0.012512817 0.003 0.014866825
      vertex -0.012013708 0.003 0.012526144
    endloop
  endfacet
  facet normal 0.0 1.0 -0.0
    outer loop
      vertex -0.012013708 0.003 0.012526144
      vertex -0.012512817 0.003 0.014866825
      vertex -0.0113137085 0.003 0.012713709
    endloop
  endfacet
  facet normal -0.0 1.0 0.0
    outer loop
      vertex -0.012512817 0.003 0.014866825
      vertex -0.010811072 0.003 0.01502987
      vertex -0.0113137085 0.003 0.012713709
    endloop
  endfacet
  facet normal -0.0 1.0 0.0
    outer loop
      vertex -0.0113137085 0.003 0.012713709
      vertex -0.010811072 0.003 0.01502987
      vertex -0.010613709 0.003 0.012526144
    endloop
  endfacet
  facet normal 0.0 1.0 0.0
    outer loop
      vertex -0.010811072 0.003 0.01502987
      vertex -0.009213787 0.003 0.014420609
      vertex -0.010613709 0.003 0.012526144
    endloop
  endfacet
  facet normal -0.0 1.0 0.0
    outer loop
      vertex -0.010613709 0.003 0.012526144
      vertex -0.009213787 0.003 0.014420609
      vertex -0.010101273 0.003 0.012013708
    endloop
  endfacet
  facet normal 0.0 1.0 0.0
    outer loop
      vertex -0.009213787 0.003 0.014420609
      vertex -0.008570749 0.003 0.014135318
      vertex -0.010101273 0.003 0.012013708
    endloop
  endfacet
  facet normal 0.0 1.0 0.0
    outer loop
      vertex -0.010101273 0.003 0.012013708
      vertex -0.008570749 0.003 0.014135318
      vertex -0.007868705 0.003 0.014090333
    endloop
  endfacet
  facet normal -0.0 1.0 -0.0
    outer loop
      vertex -0.014090333 0.003 -0.007868705
      vertex -0.014291219 0.003 -0.0071945144
      vertex -0.012013708 0.003 -0.010101273
    endloop
  endfacet
  facet normal 0.0 1.0 0.0
    outer loop
      vertex -0.012013708 0.003 0.010101273
      vertex -0.0113137085 0.003 0.009913708
      vertex -0.014291219 0.003 0.0071945144
    endloop
  endfacet
  facet normal 0.0 1.0 0.0
    outer loop
      vertex -0.0113137085 0.003 0.009913708
      vertex -0.011 0.003 -6.232093E-18
      vertex -0.014291219 0.003 0.0071945144
    endloop
  endfacet
  facet normal 0.0 1.0 0.0
    outer loop
      vertex -0.014291219 0.003 0.0071945144
      vertex -0.011 0.003 -6.232093E-18
      vertex -0.016 0.003 5.3290706E-18
    endloop
  endfacet
  facet normal 0.0 1.0 0.0
    outer loop
      vertex -0.011 0.003 -6.232093E-18
      vertex -0.014291219 0.003 -0.0071945144
      vertex -0.016 0.003 5.3290706E-18
    endloop
  endfacet
  facet normal 0.0 1.0 -0.0
    outer loop
      vertex -0.012013708 0.003 -0.010101273
      vertex -0.014291219 0.003 -0.0071945144
      vertex -0.0113137085 0.003 -0.009913708
    endloop
  endfacet
  facet normal -0.0 1.0 0.0
    outer loop
      vertex -0.014291219 0.003 -0.0071945144
      vertex -0.011 0.003 -6.232093E-18
      vertex -0.0113137085 0.003 -0.009913708
    endloop
  endfacet
  facet normal 0.0 1.0 0.0
    outer loop
      vertex -0.0113137085 0.003 -0.009913708
      vertex -0.011 0.003 -6.232093E-18
      vertex -0.00952628 0.003 -0.0055
    endloop
  endfacet
  facet normal 0.0 1.0 0.0
    outer loop
      vertex 3.1160464E-18 0.003 -0.011
      vertex -0.009913708 0.003 -0.0113137085
      vertex -0.0055 0.003 -0.00952628
    endloop
  endfacet
  facet normal 0.0 1.0 -0.0
    outer loop
      vertex -0.009913708 0.003 -0.0113137085
      vertex -0.010101273 0.003 -0.010613709
      vertex -0.0055 0.003 -0.00952628
    endloop
  endfacet
  facet normal 0.0 1.0 0.0
    outer loop
      vertex -0.0055 0.003 -0.00952628
      vertex -0.010101273 0.003 -0.010613709
      vertex -0.00952628 0.003 -0.0055
    endloop
  endfacet
  facet normal 0.0 1.0 -0.0
    outer loop
      vertex -0.010101273 0.003 -0.010613709
      vertex -0.010613709 0.003 -0.010101273
      vertex -0.00952628 0.003 -0.0055
    endloop
  endfacet
  facet normal 0.0 1.0 0.0
    outer loop
      vertex -0.00952628 0.003 -0.0055
      vertex -0.010613709 0.003 -0.010101273
      vertex -0.0113137085 0.003 -0.009913708
    endloop
  endfacet
  facet normal 0.0 1.0 0.0
    outer loop
      vertex -0.012526144 0.003 -0.012013708
      vertex -0.014866825 0.003 -0.012512817
      vertex -0.012713709 0.003 -0.0113137085
    endloop
  endfacet
  facet normal 0.0 1.0 -0.0
    outer loop
      vertex -0.014866825 0.003 -0.012512817
      vertex -0.01502987 0.003 -0.010811072
      vertex -0.012713709 0.003 -0.0113137085
    endloop
  endfacet
  facet normal 0.0 1.0 -0.0
    outer loop
      vertex -0.012713709 0.003 -0.0113137085
      vertex -0.01502987 0.003 -0.010811072
      vertex -0.012526144 0.003 -0.010613709
    endloop
  endfacet
  facet normal 0.0 1.0 0.0
    outer loop
      vertex -0.01502987 0.003 -0.010811072
      vertex -0.014420609 0.003 -0.009213787
      vertex -0.012526144 0.003 -0.010613709
    endloop
  endfacet
  facet normal 0.0 1.0 -0.0
    outer loop
      vertex -0.012526144 0.003 -0.010613709
      vertex -0.014420609 0.003 -0.009213787
      vertex -0.012013708 0.003 -0.010101273
    endloop
  endfacet
  facet normal -0.0 1.0 0.0
    outer loop
      vertex -0.014420609 0.003 -0.009213787
      vertex -0.014135318 0.003 -0.008570749
      vertex -0.012013708 0.003 -0.010101273
    endloop
  endfacet
  facet normal 0.0 1.0 0.0
    outer loop
      vertex -0.012013708 0.003 -0.010101273
      vertex -0.014135318 0.003 -0.008570749
      vertex -0.014090333 0.003 -0.007868705
    endloop
  endfacet
  facet normal 0.0 1.0 0.0
    outer loop
      vertex -0.0071945144 0.003 -0.014291219
      vertex -0.007868705 0.003 -0.014090333
      vertex -0.010101273 0.003 -0.012013708
    endloop
  endfacet
  facet normal 0.0 1.0 0.0
    outer loop
      vertex -0.007868705 0.003 -0.014090333
      vertex -0.008570749 0.003 -0.014135318
      vertex -0.010101273 0.003 -0.012013708
    endloop
  endfacet
  facet normal 0.0 1.0 0.0
    outer loop
      vertex -0.010101273 0.003 -0.012013708
      vertex -0.008570749 0.003 -0.014135318
      vertex -0.010613709 0.003 -0.012526144
    endloop
  endfacet
  facet normal 0.0 1.0 0.0
    outer loop
      vertex -0.008570749 0.003 -0.014135318
      vertex -0.009213787 0.003 -0.014420609
      vertex -0.010613709 0.003 -0.012526144
    endloop
  endfacet
  facet normal 0.0 1.0 0.0
    outer loop
      vertex -0.010613709 0.003 -0.012526144
      vertex -0.009213787 0.003 -0.014420609
      vertex -0.0113137085 0.003 -0.012713709
    endloop
  endfacet
  facet normal 0.0 1.0 0.0
    outer loop
      vertex -0.009213787 0.003 -0.014420609
      vertex -0.010811072 0.003 -0.01502987
      vertex -0.0113137085 0.003 -0.012713709
    endloop
  endfacet
  facet normal 0.0 1.0 0.0
    outer loop
      vertex -0.0113137085 0.003 -0.012713709
      vertex -0.010811072 0.003 -0.01502987
      vertex -0.012013708 0.003 -0.012526144
    endloop
  endfacet
  facet normal 0.0 1.0 0.0
    outer loop
      vertex -0.010811072 0.003 -0.01502987
      vertex -0.012512817 0.003 -0.014866825
      vertex -0.012013708 0.003 -0.012526144
    endloop
  endfacet
  facet normal 0.0 1.0 0.0
    outer loop
      vertex -0.012013708 0.003 -0.012526144
      vertex -0.012512817 0.003 -0.014866825
      vertex -0.012526144 0.003 -0.012013708
    endloop
  endfacet
  facet normal 0.0 1.0 0.0
    outer loop
      vertex -0.012512817 0.003 -0.014866825
      vertex -0.013965359 0.003 -0.013965359
      vertex -0.012526144 0.003 -0.012013708
    endloop
  endfacet
  facet normal 0.0 1.0 0.0
    outer loop
      vertex -0.012526144 0.003 -0.012013708
      vertex -0.013965359 0.003 -0.013965359
      vertex -0.014866825 0.003 -0.012512817
    endloop
  endfacet
  facet normal -0.0 1.0 0.0
    outer loop
      vertex -0.010101273 0.003 -0.012013708
      vertex -0.009913708 0.003 -0.0113137085
      vertex -0.0071945144 0.003 -0.014291219
    endloop
  endfacet
  facet normal -0.0 1.0 0.0
    outer loop
      vertex -0.009913708 0.003 -0.0113137085
      vertex 3.1160464E-18 0.003 -0.011
      vertex -0.0071945144 0.003 -0.014291219
    endloop
  endfacet
  facet normal -0.0 1.0 0.0
    outer loop
      vertex -0.0071945144 0.003 -0.014291219
      vertex 3.1160464E-18 0.003 -0.011
      vertex -7.21645E-19 0.003 -0.016
    endloop
  endfacet
  facet normal 0.0 1.0 0.0
    outer loop
      vertex 3.1160464E-18 0.003 -0.011
      vertex 0.0071945144 0.003 -0.014291219
      vertex -7.21645E-19 0.003 -0.016
    endloop
  endfacet
  facet normal 0.0 1.0 0.0
    outer loop
      vertex 0.009913708 0.003 -0.0113137085
      vertex 3.1160464E-18 0.003 -0.011
      vertex 0.0055 0.003 -0.00952628
    endloop
  endfacet
  facet normal 0.0 1.0 -0.0
    outer loop
      vertex 0.009913708 0.003 -0.0113137085
      vertex 0.0055 0.003 -0.00952628
      vertex 0.010101273 0.003 -0.010613709
    endloop
  endfacet
  facet normal 0.0 1.0 0.0
    outer loop
      vertex 3.1160464E-18 0.003 -0.011
      vertex 0.009913708 0.003 -0.0113137085
      vertex 0.0071945144 0.003 -0.014291219
    endloop
  endfacet
  facet normal 0.0 1.0 0.0
    outer loop
      vertex 0.009913708 0.003 -0.0113137085
      vertex 0.010101273 0.003 -0.012013708
      vertex 0.0071945144 0.003 -0.014291219
    endloop
  endfacet
  facet normal 0.0 1.0 0.0
    outer loop
      vertex 0.0071945144 0.003 -0.014291219
      vertex 0.010101273 0.003 -0.012013708
      vertex 0.007868705 0.003 -0.014090333
    endloop
  endfacet
  facet normal 0.0 1.0 -0.0
    outer loop
      vertex 0.010101273 0.003 -0.010613709
      vertex 0.0055 0.003 -0.00952628
      vertex 0.010613709 0.003 -0.010101273
    endloop
  endfacet
  facet normal -0.0 1.0 0.0
    outer loop
      vertex 0.0055 0.003 -0.00952628
      vertex 0.00952628 0.003 -0.0055
      vertex 0.010613709 0.003 -0.010101273
    endloop
  endfacet
  facet normal 0.0 1.0 -0.0
    outer loop
      vertex 0.010613709 0.003 -0.010101273
      vertex 0.00952628 0.003 -0.0055
      vertex 0.0113137085 0.003 -0.009913708
    endloop
  endfacet
  facet normal -0.0 1.0 0.0
    outer loop
      vertex 0.00952628 0.003 -0.0055
      vertex 0.011 0.003 2.694223E-18
      vertex 0.0113137085 0.003 -0.009913708
    endloop
  endfacet
  facet normal 0.0 1.0 -0.0
    outer loop
      vertex 0.0113137085 0.003 -0.009913708
      vertex 0.011 0.003 2.694223E-18
      vertex 0.014291219 0.003 -0.0071945144
    endloop
  endfacet
  facet normal 0.0 1.0 0.0
    outer loop
      vertex 0.012013708 0.003 -0.012526144
      vertex 0.012512817 0.003 -0.014866825
      vertex 0.0113137085 0.003 -0.012713709
    endloop
  endfacet
  facet normal 0.0 1.0 0.0
    outer loop
      vertex 0.012512817 0.003 -0.014866825
      vertex 0.010811072 0.003 -0.01502987
      vertex 0.0113137085 0.003 -0.012713709
    endloop
  endfacet
  facet normal 0.0 1.0 0.0
    outer loop
      vertex 0.0113137085 0.003 -0.012713709
      vertex 0.010811072 0.003 -0.01502987
      vertex 0.010613709 0.003 -0.012526144
    endloop
  endfacet
  facet normal 0.0 1.0 0.0
    outer loop
      vertex 0.010811072 0.003 -0.01502987
      vertex 0.009213787 0.003 -0.014420609
      vertex 0.010613709 0.003 -0.012526144
    endloop
  endfacet
  facet normal 0.0 1.0 0.0
    outer loop
      vertex 0.010613709 0.003 -0.012526144
      vertex 0.009213787 0.003 -0.014420609
      vertex 0.010101273 0.003 -0.012013708
    endloop
  endfacet
  facet normal 0.0 1.0 -0.0
    outer loop
      vertex 0.009213787 0.003 -0.014420609
      vertex 0.008570749 0.003 -0.014135318
      vertex 0.010101273 0.003 -0.012013708
    endloop
  endfacet
  facet normal 0.0 1.0 0.0
    outer loop
      vertex 0.010101273 0.003 -0.012013708
      vertex 0.008570749 0.003 -0.014135318
      vertex 0.007868705 0.003 -0.014090333
    endloop
  endfacet
  facet normal 0.0 1.0 0.0
    outer loop
      vertex 0.014291219 0.003 -0.0071945144
      vertex 0.014090333 0.003 -0.007868705
      vertex 0.012013708 0.003 -0.010101273
    endloop
  endfacet
  facet normal 0.0 1.0 0.0
    outer loop
      vertex 0.014090333 0.003 -0.007868705
      vertex 0.014135318 0.003 -0.008570749
      vertex 0.012013708 0.003 -0.010101273
    endloop
  endfacet
  facet normal -0.0 1.0 0.0
    outer loop
      vertex 0.012013708 0.003 -0.010101273
      vertex 0.014135318 0.003 -0.008570749
      vertex 0.012526144 0.003 -0.010613709
    endloop
  endfacet
  facet normal 0.0 1.0 0.0
    outer loop
      vertex 0.014135318 0.003 -0.008570749
      vertex 0.014420609 0.003 -0.009213787
      vertex 0.012526144 0.003 -0.010613709
    endloop
  endfacet
  facet normal -0.0 1.0 0.0
    outer loop
      vertex 0.012526144 0.003 -0.010613709
      vertex 0.014420609 0.003 -0.009213787
      vertex 0.012713709 0.003 -0.0113137085
    endloop
  endfacet
  facet normal 0.0 1.0 0.0
    outer loop
      vertex 0.014420609 0.003 -0.009213787
      vertex 0.01502987 0.003 -0.010811072
      vertex 0.012713709 0.003 -0.0113137085
    endloop
  endfacet
  facet normal -0.0 1.0 0.0
    outer loop
      vertex 0.012713709 0.003 -0.0113137085
      vertex 0.01502987 0.003 -0.010811072
      vertex 0.012526144 0.003 -0.012013708
    endloop
  endfacet
  facet normal 0.0 1.0 0.0
    outer loop
      vertex 0.01502987 0.003 -0.010811072
      vertex 0.014866825 0.003 -0.012512817
      vertex 0.012526144 0.003 -0.012013708
    endloop
  endfacet
  facet normal 0.0 1.0 0.0
    outer loop
      vertex 0.012526144 0.003 -0.012013708
      vertex 0.014866825 0.003 -0.012512817
      vertex 0.012013708 0.003 -0.012526144
    endloop
  endfacet
  facet normal 0.0 1.0 0.0
    outer loop
      vertex 0.014866825 0.003 -0.012512817
      vertex 0.013965359 0.003 -0.013965359
      vertex 0.012013708 0.003 -0.012526144
    endloop
  endfacet
  facet normal 0.0 1.0 0.0
    outer loop
      vertex 0.012013708 0.003 -0.012526144
      vertex 0.013965359 0.003 -0.013965359
      vertex 0.012512817 0.003 -0.014866825
    endloop
  endfacet
  facet normal 0.0 1.0 0.0
    outer loop
      vertex 0.0071945144 0.003 0.014291219
      vertex 0.010101273 0.003 0.012013708
      vertex 0.009913708 0.003 0.0113137085
    endloop
  endfacet
  facet normal -0.0 1.0 0.0
    outer loop
      vertex 0.00952628 0.003 0.0055
      vertex 0.014291219 0.003 0.0071945144
      vertex 0.011 0.003 2.694223E-18
    endloop
  endfacet
  facet normal 0.0 1.0 0.0
    outer loop
      vertex 0.014291219 0.003 0.0071945144
      vertex 0.016 0.003 -3.552714E-18
      vertex 0.011 0.003 2.694223E-18
    endloop
  endfacet
  facet normal 0.0 1.0 0.0
    outer loop
      vertex 0.011 0.003 2.694223E-18
      vertex 0.016 0.003 -3.552714E-18
      vertex 0.014291219 0.003 -0.0071945144
    endloop
  endfacet
  facet normal 0.0 1.0 0.0
    outer loop
      vertex 0.00952628 0.003 0.0055
      vertex 0.0113137085 0.003 0.009913708
      vertex 0.014291219 0.003 0.0071945144
    endloop
  endfacet
  facet normal -0.0 1.0 0.0
    outer loop
      vertex 0.0113137085 0.003 0.009913708
      vertex 0.012013708 0.003 0.010101273
      vertex 0.014291219 0.003 0.0071945144
    endloop
  endfacet
  facet normal 0.0 1.0 0.0
    outer loop
      vertex 0.014291219 0.003 0.0071945144
      vertex 0.012013708 0.003 0.010101273
      vertex 0.014090333 0.003 0.007868705
    endloop
  endfacet
  facet normal 0.0 1.0 0.0
    outer loop
      vertex 1.4377388E-17 0.003 0.016
      vertex 0.0071945144 0.003 0.014291219
      vertex -1.179063E-17 0.003 0.011
    endloop
  endfacet
  facet normal 0.0 1.0 0.0
    outer loop
      vertex 0.0071945144 0.003 0.014291219
      vertex 0.009913708 0.003 0.0113137085
      vertex -1.179063E-17 0.003 0.011
    endloop
  endfacet
  facet normal -0.0 1.0 0.0
    outer loop
      vertex -1.179063E-17 0.003 0.011
      vertex 0.009913708 0.003 0.0113137085
      vertex 0.0055 0.003 0.00952628
    endloop
  endfacet
  facet normal 0.0 1.0 0.0
    outer loop
      vertex 0.009913708 0.003 0.0113137085
      vertex 0.010101273 0.003 0.010613709
      vertex 0.0055 0.003 0.00952628
    endloop
  endfacet
  facet normal -0.0 1.0 0.0
    outer loop
      vertex 0.0055 0.003 0.00952628
      vertex 0.010101273 0.003 0.010613709
      vertex 0.00952628 0.003 0.0055
    endloop
  endfacet
  facet normal 0.0 1.0 0.0
    outer loop
      vertex 0.010101273 0.003 0.010613709
      vertex 0.010613709 0.003 0.010101273
      vertex 0.00952628 0.003 0.0055
    endloop
  endfacet
  facet normal 0.0 1.0 0.0
    outer loop
      vertex 0.00952628 0.003 0.0055
      vertex 0.010613709 0.003 0.010101273
      vertex 0.0113137085 0.003 0.009913708
    endloop
  endfacet
  facet normal 0.0 1.0 0.0
    outer loop
      vertex 0.0071945144 0.003 0.014291219
      vertex 0.007868705 0.003 0.014090333
      vertex 0.010101273 0.003 0.012013708
    endloop
  endfacet
  facet normal -0.0 1.0 0.0
    outer loop
      vertex 0.007868705 0.003 0.014090333
      vertex 0.008570749 0.003 0.014135318
      vertex 0.010101273 0.003 0.012013708
    endloop
  endfacet
  facet normal 0.0 1.0 -0.0
    outer loop
      vertex 0.010101273 0.003 0.012013708
      vertex 0.008570749 0.003 0.014135318
      vertex 0.010613709 0.003 0.012526144
    endloop
  endfacet
  facet normal -0.0 1.0 0.0
    outer loop
      vertex 0.008570749 0.003 0.014135318
      vertex 0.009213787 0.003 0.014420609
      vertex 0.010613709 0.003 0.012526144
    endloop
  endfacet
  facet normal 0.0 1.0 -0.0
    outer loop
      vertex 0.010613709 0.003 0.012526144
      vertex 0.009213787 0.003 0.014420609
      vertex 0.0113137085 0.003 0.012713709
    endloop
  endfacet
  facet normal -0.0 1.0 0.0
    outer loop
      vertex 0.009213787 0.003 0.014420609
      vertex 0.010811072 0.003 0.01502987
      vertex 0.0113137085 0.003 0.012713709
    endloop
  endfacet
  facet normal -0.0 1.0 -0.0
    outer loop
      vertex 0.0113137085 0.003 0.012713709
      vertex 0.010811072 0.003 0.01502987
      vertex 0.012013708 0.003 0.012526144
    endloop
  endfacet
  facet normal 0.0 1.0 0.0
    outer loop
      vertex 0.010811072 0.003 0.01502987
      vertex 0.012512817 0.003 0.014866825
      vertex 0.012013708 0.003 0.012526144
    endloop
  endfacet
  facet normal -0.0 1.0 0.0
    outer loop
      vertex 0.012013708 0.003 0.012526144
      vertex 0.012512817 0.003 0.014866825
      vertex 0.012526144 0.003 0.012013708
    endloop
  endfacet
  facet normal 0.0 1.0 0.0
    outer loop
      vertex 0.012512817 0.003 0.014866825
      vertex 0.013965359 0.003 0.013965359
      vertex 0.012526144 0.003 0.012013708
    endloop
  endfacet
  facet normal 0.0 1.0 0.0
    outer loop
      vertex 0.013965359 0.003 0.013965359
      vertex 0.014866825 0.003 0.012512817
      vertex 0.012526144 0.003 0.012013708
    endloop
  endfacet
  facet normal -0.0 1.0 0.0
    outer loop
      vertex 0.012526144 0.003 0.012013708
      vertex 0.014866825 0.003 0.012512817
      vertex 0.012713709 0.003 0.0113137085
    endloop
  endfacet
  facet normal 0.0 1.0 0.0
    outer loop
      vertex 0.014866825 0.003 0.012512817
      vertex 0.01502987 0.003 0.010811072
      vertex 0.012713709 0.003 0.0113137085
    endloop
  endfacet
  facet normal 0.0 1.0 0.0
    outer loop
      vertex 0.012713709 0.003 0.0113137085
      vertex 0.01502987 0.003 0.010811072
      vertex 0.012526144 0.003 0.010613709
    endloop
  endfacet
  facet normal 0.0 1.0 0.0
    outer loop
      vertex 0.01502987 0.003 0.010811072
      vertex 0.014420609 0.003 0.009213787
      vertex 0.012526144 0.003 0.010613709
    endloop
  endfacet
  facet normal 0.0 1.0 0.0
    outer loop
      vertex 0.012526144 0.003 0.010613709
      vertex 0.014420609 0.003 0.009213787
      vertex 0.012013708 0.003 0.010101273
    endloop
  endfacet
  facet normal 0.0 1.0 0.0
    outer loop
      vertex 0.014420609 0.003 0.009213787
      vertex 0.014135318 0.003 0.008570749
      vertex 0.012013708 0.003 0.010101273
    endloop
  endfacet
  facet normal 0.0 1.0 0.0
    outer loop
      vertex 0.012013708 0.003 0.010101273
      vertex 0.014135318 0.003 0.008570749
      vertex 0.014090333 0.003 0.007868705
    endloop
  endfacet
  facet normal -0.914077070539867 0.0 -0.4055405147617867
    outer loop
      vertex -0.014420609 0.0 0.009213787
      vertex -0.014420609 0.003 0.009213787
      vertex -0.014135318 0.0 0.008570749
    endloop
  endfacet
  facet normal -0.914077070539867 0.0 -0.4055405147617867
    outer loop
      vertex -0.014420609 0.003 0.009213787
      vertex -0.014135318 0.003 0.008570749
      vertex -0.014135318 0.0 0.008570749
    endloop
  endfacet
  facet normal -0.9979533577855709 0.0 -0.06394603728538809
    outer loop
      vertex -0.014135318 0.0 0.008570749
      vertex -0.014135318 0.003 0.008570749
      vertex -0.014090333 0.0 0.007868705
    endloop
  endfacet
  facet normal -0.9979533577855709 0.0 -0.06394603728538809
    outer loop
      vertex -0.014135318 0.003 0.008570749
      vertex -0.014090333 0.003 0.007868705
      vertex -0.014090333 0.0 0.007868705
    endloop
  endfacet
  facet normal -0.9583610739720814 0.0 0.2855591915786964
    outer loop
      vertex -0.014090333 0.0 0.007868705
      vertex -0.014090333 0.003 0.007868705
      vertex -0.014291219 0.0 0.0071945144
    endloop
  endfacet
  facet normal -0.9583610739720814 0.0 0.2855591915786964
    outer loop
      vertex -0.014090333 0.003 0.007868705
      vertex -0.014291219 0.003 0.0071945144
      vertex -0.014291219 0.0 0.0071945144
    endloop
  endfacet
  facet normal 0.0 -1.0 -0.0
    outer loop
      vertex -0.014291219 0.0 0.0071945144
      vertex -0.016 0.0 5.3290706E-18
      vertex -0.011 0.0 -6.232093E-18
    endloop
  endfacet
  facet normal 0.0 -1.0 0.0
    outer loop
      vertex -0.0071945144 0.0 0.014291219
      vertex -0.007868705 0.0 0.014090333
      vertex -0.010101273 0.0 0.012013708
    endloop
  endfacet
  facet normal -0.0 -1.0 0.0
    outer loop
      vertex -0.007868705 0.0 0.014090333
      vertex -0.008570749 0.0 0.014135318
      vertex -0.010101273 0.0 0.012013708
    endloop
  endfacet
  facet normal 0.0 -1.0 0.0
    outer loop
      vertex -0.010101273 0.0 0.012013708
      vertex -0.008570749 0.0 0.014135318
      vertex -0.010613709 0.0 0.012526144
    endloop
  endfacet
  facet normal -0.0 -1.0 0.0
    outer loop
      vertex -0.008570749 0.0 0.014135318
      vertex -0.009213787 0.0 0.014420609
      vertex -0.010613709 0.0 0.012526144
    endloop
  endfacet
  facet normal 0.0 -1.0 0.0
    outer loop
      vertex -0.010613709 0.0 0.012526144
      vertex -0.009213787 0.0 0.014420609
      vertex -0.0113137085 0.0 0.012713709
    endloop
  endfacet
  facet normal -0.0 -1.0 0.0
    outer loop
      vertex -0.009213787 0.0 0.014420609
      vertex -0.010811072 0.0 0.01502987
      vertex -0.0113137085 0.0 0.012713709
    endloop
  endfacet
  facet normal -0.0 -1.0 0.0
    outer loop
      vertex -0.0113137085 0.0 0.012713709
      vertex -0.010811072 0.0 0.01502987
      vertex -0.012013708 0.0 0.012526144
    endloop
  endfacet
  facet normal 0.0 -1.0 0.0
    outer loop
      vertex -0.014135318 0.0 0.008570749
      vertex -0.012013708 0.0 0.010101273
      vertex -0.014420609 0.0 0.009213787
    endloop
  endfacet
  facet normal -0.0 -1.0 0.0
    outer loop
      vertex -0.012013708 0.0 0.010101273
      vertex -0.012526144 0.0 0.010613709
      vertex -0.014420609 0.0 0.009213787
    endloop
  endfacet
  facet normal 0.0 -1.0 0.0
    outer loop
      vertex -0.014420609 0.0 0.009213787
      vertex -0.012526144 0.0 0.010613709
      vertex -0.01502987 0.0 0.010811072
    endloop
  endfacet
  facet normal 0.0 -1.0 0.0
    outer loop
      vertex -0.012526144 0.0 0.010613709
      vertex -0.012713709 0.0 0.0113137085
      vertex -0.01502987 0.0 0.010811072
    endloop
  endfacet
  facet normal 0.0 -1.0 0.0
    outer loop
      vertex -0.01502987 0.0 0.010811072
      vertex -0.012713709 0.0 0.0113137085
      vertex -0.014866825 0.0 0.012512817
    endloop
  endfacet
  facet normal 0.0 -1.0 0.0
    outer loop
      vertex -0.012713709 0.0 0.0113137085
      vertex -0.012526144 0.0 0.012013708
      vertex -0.014866825 0.0 0.012512817
    endloop
  endfacet
  facet normal 0.0 -1.0 0.0
    outer loop
      vertex -0.014866825 0.0 0.012512817
      vertex -0.012526144 0.0 0.012013708
      vertex -0.013965359 0.0 0.013965359
    endloop
  endfacet
  facet normal 0.0 -1.0 0.0
    outer loop
      vertex -0.012526144 0.0 0.012013708
      vertex -0.012013708 0.0 0.012526144
      vertex -0.013965359 0.0 0.013965359
    endloop
  endfacet
  facet normal 0.0 -1.0 0.0
    outer loop
      vertex -0.013965359 0.0 0.013965359
      vertex -0.012013708 0.0 0.012526144
      vertex -0.012512817 0.0 0.014866825
    endloop
  endfacet
  facet normal 0.0 -1.0 0.0
    outer loop
      vertex -0.012013708 0.0 0.012526144
      vertex -0.010811072 0.0 0.01502987
      vertex -0.012512817 0.0 0.014866825
    endloop
  endfacet
  facet normal 0.0 -1.0 0.0
    outer loop
      vertex -0.014135318 0.0 0.008570749
      vertex -0.014090333 0.0 0.007868705
      vertex -0.012013708 0.0 0.010101273
    endloop
  endfacet
  facet normal 0.0 -1.0 -0.0
    outer loop
      vertex -0.014090333 0.0 0.007868705
      vertex -0.014291219 0.0 0.0071945144
      vertex -0.012013708 0.0 0.010101273
    endloop
  endfacet
  facet normal 0.0 -1.0 -0.0
    outer loop
      vertex -0.012013708 0.0 0.010101273
      vertex -0.014291219 0.0 0.0071945144
      vertex -0.0113137085 0.0 0.009913708
    endloop
  endfacet
  facet normal 0.0 -1.0 0.0
    outer loop
      vertex -0.014291219 0.0 0.0071945144
      vertex -0.011 0.0 -6.232093E-18
      vertex -0.0113137085 0.0 0.009913708
    endloop
  endfacet
  facet normal 0.0 -1.0 0.0
    outer loop
      vertex -0.0113137085 0.0 0.009913708
      vertex -0.011 0.0 -6.232093E-18
      vertex -0.010613709 0.0 0.010101273
    endloop
  endfacet
  facet normal 0.0 -1.0 0.0
    outer loop
      vertex -0.011 0.0 -6.232093E-18
      vertex -0.00952628 0.0 0.0055
      vertex -0.010613709 0.0 0.010101273
    endloop
  endfacet
  facet normal 0.0 -1.0 0.0
    outer loop
      vertex -0.010613709 0.0 0.010101273
      vertex -0.00952628 0.0 0.0055
      vertex -0.010101273 0.0 0.010613709
    endloop
  endfacet
  facet normal 0.0 -1.0 0.0
    outer loop
      vertex -0.00952628 0.0 0.0055
      vertex -0.0055 0.0 0.00952628
      vertex -0.010101273 0.0 0.010613709
    endloop
  endfacet
  facet normal 0.0 -1.0 0.0
    outer loop
      vertex -0.010101273 0.0 0.010613709
      vertex -0.0055 0.0 0.00952628
      vertex -0.009913708 0.0 0.0113137085
    endloop
  endfacet
  facet normal 0.0 -1.0 0.0
    outer loop
      vertex -0.0055 0.0 0.00952628
      vertex -1.179063E-17 0.0 0.011
      vertex -0.009913708 0.0 0.0113137085
    endloop
  endfacet
  facet normal 0.0 -1.0 0.0
    outer loop
      vertex -0.010101273 0.0 0.012013708
      vertex -0.009913708 0.0 0.0113137085
      vertex -0.0071945144 0.0 0.014291219
    endloop
  endfacet
  facet normal 0.0 -1.0 0.0
    outer loop
      vertex -0.009913708 0.0 0.0113137085
      vertex -1.179063E-17 0.0 0.011
      vertex -0.0071945144 0.0 0.014291219
    endloop
  endfacet
  facet normal 0.0 -1.0 0.0
    outer loop
      vertex -0.0071945144 0.0 0.014291219
      vertex -1.179063E-17 0.0 0.011
      vertex 1.4377388E-17 0.0 0.016
    endloop
  endfacet
  facet normal 0.0 -1.0 0.0
    outer loop
      vertex -1.179063E-17 0.0 0.011
      vertex 0.0071945144 0.0 0.014291219
      vertex 1.4377388E-17 0.0 0.016
    endloop
  endfacet
  facet normal 0.0 -1.0 0.0
    outer loop
      vertex 0.011 0.0 0.0
      vertex 0.0113137085 0.0 0.009913708
      vertex 0.00952628 0.0 0.0055
    endloop
  endfacet
  facet normal -0.0 -1.0 0.0
    outer loop
      vertex 0.0113137085 0.0 0.009913708
      vertex 0.010613709 0.0 0.010101273
      vertex 0.00952628 0.0 0.0055
    endloop
  endfacet
  facet normal 0.0 -1.0 0.0
    outer loop
      vertex 0.00952628 0.0 0.0055
      vertex 0.010613709 0.0 0.010101273
      vertex 0.0055 0.0 0.00952628
    endloop
  endfacet
  facet normal -0.0 -1.0 0.0
    outer loop
      vertex 0.010613709 0.0 0.010101273
      vertex 0.010101273 0.0 0.010613709
      vertex 0.0055 0.0 0.00952628
    endloop
  endfacet
  facet normal 0.0 -1.0 0.0
    outer loop
      vertex 0.0055 0.0 0.00952628
      vertex 0.010101273 0.0 0.010613709
      vertex -1.179063E-17 0.0 0.011
    endloop
  endfacet
  facet normal 0.0 -1.0 0.0
    outer loop
      vertex 0.010101273 0.0 0.010613709
      vertex 0.009913708 0.0 0.0113137085
      vertex -1.179063E-17 0.0 0.011
    endloop
  endfacet
  facet normal 0.0 -1.0 0.0
    outer loop
      vertex -1.179063E-17 0.0 0.011
      vertex 0.009913708 0.0 0.0113137085
      vertex 0.0071945144 0.0 0.014291219
    endloop
  endfacet
  facet normal 0.0 -1.0 0.0
    outer loop
      vertex 0.009913708 0.0 0.0113137085
      vertex 0.010101273 0.0 0.012013708
      vertex 0.0071945144 0.0 0.014291219
    endloop
  endfacet
  facet normal 0.0 -1.0 0.0
    outer loop
      vertex 0.0071945144 0.0 0.014291219
      vertex 0.010101273 0.0 0.012013708
      vertex 0.007868705 0.0 0.014090333
    endloop
  endfacet
  facet normal 0.0 -1.0 0.0
    outer loop
      vertex 0.012526144 0.0 0.012013708
      vertex 0.013965359 0.0 0.013965359
      vertex 0.012013708 0.0 0.012526144
    endloop
  endfacet
  facet normal -0.0 -1.0 0.0
    outer loop
      vertex 0.013965359 0.0 0.013965359
      vertex 0.012512817 0.0 0.014866825
      vertex 0.012013708 0.0 0.012526144
    endloop
  endfacet
  facet normal 0.0 -1.0 0.0
    outer loop
      vertex 0.012013708 0.0 0.012526144
      vertex 0.012512817 0.0 0.014866825
      vertex 0.0113137085 0.0 0.012713709
    endloop
  endfacet
  facet normal -0.0 -1.0 0.0
    outer loop
      vertex 0.012512817 0.0 0.014866825
      vertex 0.010811072 0.0 0.01502987
      vertex 0.0113137085 0.0 0.012713709
    endloop
  endfacet
  facet normal -0.0 -1.0 0.0
    outer loop
      vertex 0.0113137085 0.0 0.012713709
      vertex 0.010811072 0.0 0.01502987
      vertex 0.010613709 0.0 0.012526144
    endloop
  endfacet
  facet normal 0.0 -1.0 0.0
    outer loop
      vertex 0.010811072 0.0 0.01502987
      vertex 0.009213787 0.0 0.014420609
      vertex 0.010613709 0.0 0.012526144
    endloop
  endfacet
  facet normal -0.0 -1.0 0.0
    outer loop
      vertex 0.010613709 0.0 0.012526144
      vertex 0.009213787 0.0 0.014420609
      vertex 0.010101273 0.0 0.012013708
    endloop
  endfacet
  facet normal 0.0 -1.0 -0.0
    outer loop
      vertex 0.009213787 0.0 0.014420609
      vertex 0.008570749 0.0 0.014135318
      vertex 0.010101273 0.0 0.012013708
    endloop
  endfacet
  facet normal 0.0 -1.0 0.0
    outer loop
      vertex 0.010101273 0.0 0.012013708
      vertex 0.008570749 0.0 0.014135318
      vertex 0.007868705 0.0 0.014090333
    endloop
  endfacet
  facet normal 0.0 -1.0 0.0
    outer loop
      vertex 0.014291219 0.0 0.0071945144
      vertex 0.014090333 0.0 0.007868705
      vertex 0.012013708 0.0 0.010101273
    endloop
  endfacet
  facet normal 0.0 -1.0 0.0
    outer loop
      vertex 0.014090333 0.0 0.007868705
      vertex 0.014135318 0.0 0.008570749
      vertex 0.012013708 0.0 0.010101273
    endloop
  endfacet
  facet normal 0.0 -1.0 0.0
    outer loop
      vertex 0.012013708 0.0 0.010101273
      vertex 0.014135318 0.0 0.008570749
      vertex 0.012526144 0.0 0.010613709
    endloop
  endfacet
  facet normal 0.0 -1.0 0.0
    outer loop
      vertex 0.014135318 0.0 0.008570749
      vertex 0.014420609 0.0 0.009213787
      vertex 0.012526144 0.0 0.010613709
    endloop
  endfacet
  facet normal 0.0 -1.0 0.0
    outer loop
      vertex 0.012526144 0.0 0.010613709
      vertex 0.014420609 0.0 0.009213787
      vertex 0.012713709 0.0 0.0113137085
    endloop
  endfacet
  facet normal 0.0 -1.0 0.0
    outer loop
      vertex 0.014420609 0.0 0.009213787
      vertex 0.01502987 0.0 0.010811072
      vertex 0.012713709 0.0 0.0113137085
    endloop
  endfacet
  facet normal 0.0 -1.0 0.0
    outer loop
      vertex 0.012713709 0.0 0.0113137085
      vertex 0.01502987 0.0 0.010811072
      vertex 0.012526144 0.0 0.012013708
    endloop
  endfacet
  facet normal 0.0 -1.0 0.0
    outer loop
      vertex 0.01502987 0.0 0.010811072
      vertex 0.014866825 0.0 0.012512817
      vertex 0.012526144 0.0 0.012013708
    endloop
  endfacet
  facet normal 0.0 -1.0 0.0
    outer loop
      vertex 0.012526144 0.0 0.012013708
      vertex 0.014866825 0.0 0.012512817
      vertex 0.013965359 0.0 0.013965359
    endloop
  endfacet
  facet normal -0.0 -1.0 0.0
    outer loop
      vertex 0.014090333 0.0 -0.007868705
      vertex 0.014291219 0.0 -0.0071945144
      vertex 0.012013708 0.0 -0.010101273
    endloop
  endfacet
  facet normal 0.0 -1.0 -0.0
    outer loop
      vertex 0.012013708 0.0 0.010101273
      vertex 0.0113137085 0.0 0.009913708
      vertex 0.014291219 0.0 0.0071945144
    endloop
  endfacet
  facet normal 0.0 -1.0 -0.0
    outer loop
      vertex 0.0113137085 0.0 0.009913708
      vertex 0.011 0.0 0.0
      vertex 0.014291219 0.0 0.0071945144
    endloop
  endfacet
  facet normal 0.0 -1.0 -0.0
    outer loop
      vertex 0.014291219 0.0 0.0071945144
      vertex 0.011 0.0 0.0
      vertex 0.016 0.0 -3.552714E-18
    endloop
  endfacet
  facet normal 0.0 -1.0 0.0
    outer loop
      vertex 0.011 0.0 0.0
      vertex 0.014291219 0.0 -0.0071945144
      vertex 0.016 0.0 -3.552714E-18
    endloop
  endfacet
  facet normal 0.0 -1.0 0.0
    outer loop
      vertex 0.012013708 0.0 -0.010101273
      vertex 0.014291219 0.0 -0.0071945144
      vertex 0.0113137085 0.0 -0.009913708
    endloop
  endfacet
  facet normal -0.0 -1.0 0.0
    outer loop
      vertex 0.014291219 0.0 -0.0071945144
      vertex 0.011 0.0 0.0
      vertex 0.0113137085 0.0 -0.009913708
    endloop
  endfacet
  facet normal 0.0 -1.0 0.0
    outer loop
      vertex 0.0113137085 0.0 -0.009913708
      vertex 0.011 0.0 0.0
      vertex 0.00952628 0.0 -0.0055
    endloop
  endfacet
  facet normal 0.0 -1.0 0.0
    outer loop
      vertex 0.0071945144 0.0 -0.014291219
      vertex 0.007868705 0.0 -0.014090333
      vertex 0.010101273 0.0 -0.012013708
    endloop
  endfacet
  facet normal 0.0 -1.0 0.0
    outer loop
      vertex 0.007868705 0.0 -0.014090333
      vertex 0.008570749 0.0 -0.014135318
      vertex 0.010101273 0.0 -0.012013708
    endloop
  endfacet
  facet normal 0.0 -1.0 -0.0
    outer loop
      vertex 0.010101273 0.0 -0.012013708
      vertex 0.008570749 0.0 -0.014135318
      vertex 0.010613709 0.0 -0.012526144
    endloop
  endfacet
  facet normal 0.0 -1.0 0.0
    outer loop
      vertex 0.008570749 0.0 -0.014135318
      vertex 0.009213787 0.0 -0.014420609
      vertex 0.010613709 0.0 -0.012526144
    endloop
  endfacet
  facet normal 0.0 -1.0 -0.0
    outer loop
      vertex 0.010613709 0.0 -0.012526144
      vertex 0.009213787 0.0 -0.014420609
      vertex 0.0113137085 0.0 -0.012713709
    endloop
  endfacet
  facet normal 0.0 -1.0 0.0
    outer loop
      vertex 0.009213787 0.0 -0.014420609
      vertex 0.010811072 0.0 -0.01502987
      vertex 0.0113137085 0.0 -0.012713709
    endloop
  endfacet
  facet normal 0.0 -1.0 -0.0
    outer loop
      vertex 0.0113137085 0.0 -0.012713709
      vertex 0.010811072 0.0 -0.01502987
      vertex 0.012013708 0.0 -0.012526144
    endloop
  endfacet
  facet normal 0.0 -1.0 0.0
    outer loop
      vertex 0.010811072 0.0 -0.01502987
      vertex 0.012512817 0.0 -0.014866825
      vertex 0.012013708 0.0 -0.012526144
    endloop
  endfacet
  facet normal 0.0 -1.0 0.0
    outer loop
      vertex 0.012512817 0.0 -0.014866825
      vertex 0.013965359 0.0 -0.013965359
      vertex 0.012013708 0.0 -0.012526144
    endloop
  endfacet
  facet normal 0.0 -1.0 0.0
    outer loop
      vertex 0.012013708 0.0 -0.012526144
      vertex 0.013965359 0.0 -0.013965359
      vertex 0.012526144 0.0 -0.012013708
    endloop
  endfacet
  facet normal 0.0 -1.0 0.0
    outer loop
      vertex 0.013965359 0.0 -0.013965359
      vertex 0.014866825 0.0 -0.012512817
      vertex 0.012526144 0.0 -0.012013708
    endloop
  endfacet
  facet normal 0.0 -1.0 0.0
    outer loop
      vertex 0.012526144 0.0 -0.012013708
      vertex 0.014866825 0.0 -0.012512817
      vertex 0.012713709 0.0 -0.0113137085
    endloop
  endfacet
  facet normal 0.0 -1.0 0.0
    outer loop
      vertex 0.014866825 0.0 -0.012512817
      vertex 0.01502987 0.0 -0.010811072
      vertex 0.012713709 0.0 -0.0113137085
    endloop
  endfacet
  facet normal 0.0 -1.0 0.0
    outer loop
      vertex 0.012713709 0.0 -0.0113137085
      vertex 0.01502987 0.0 -0.010811072
      vertex 0.012526144 0.0 -0.010613709
    endloop
  endfacet
  facet normal 0.0 -1.0 0.0
    outer loop
      vertex 0.01502987 0.0 -0.010811072
      vertex 0.014420609 0.0 -0.009213787
      vertex 0.012526144 0.0 -0.010613709
    endloop
  endfacet
  facet normal 0.0 -1.0 0.0
    outer loop
      vertex 0.012526144 0.0 -0.010613709
      vertex 0.014420609 0.0 -0.009213787
      vertex 0.012013708 0.0 -0.010101273
    endloop
  endfacet
  facet normal -0.0 -1.0 0.0
    outer loop
      vertex 0.014420609 0.0 -0.009213787
      vertex 0.014135318 0.0 -0.008570749
      vertex 0.012013708 0.0 -0.010101273
    endloop
  endfacet
  facet normal 0.0 -1.0 0.0
    outer loop
      vertex 0.012013708 0.0 -0.010101273
      vertex 0.014135318 0.0 -0.008570749
      vertex 0.014090333 0.0 -0.007868705
    endloop
  endfacet
  facet normal 0.0 -1.0 0.0
    outer loop
      vertex 3.1160464E-18 0.0 -0.011
      vertex 0.009913708 0.0 -0.0113137085
      vertex 0.0055 0.0 -0.00952628
    endloop
  endfacet
  facet normal 0.0 -1.0 0.0
    outer loop
      vertex 0.009913708 0.0 -0.0113137085
      vertex 0.010101273 0.0 -0.010613709
      vertex 0.0055 0.0 -0.00952628
    endloop
  endfacet
  facet normal 0.0 -1.0 0.0
    outer loop
      vertex 0.0055 0.0 -0.00952628
      vertex 0.010101273 0.0 -0.010613709
      vertex 0.00952628 0.0 -0.0055
    endloop
  endfacet
  facet normal 0.0 -1.0 0.0
    outer loop
      vertex 0.010101273 0.0 -0.010613709
      vertex 0.010613709 0.0 -0.010101273
      vertex 0.00952628 0.0 -0.0055
    endloop
  endfacet
  facet normal 0.0 -1.0 0.0
    outer loop
      vertex 0.00952628 0.0 -0.0055
      vertex 0.010613709 0.0 -0.010101273
      vertex 0.0113137085 0.0 -0.009913708
    endloop
  endfacet
  facet normal 0.0 -1.0 0.0
    outer loop
      vertex -0.014291219 0.0 -0.0071945144
      vertex -0.012013708 0.0 -0.010101273
      vertex -0.0113137085 0.0 -0.009913708
    endloop
  endfacet
  facet normal -0.0 -1.0 0.0
    outer loop
      vertex 0.010101273 0.0 -0.012013708
      vertex 0.009913708 0.0 -0.0113137085
      vertex 0.0071945144 0.0 -0.014291219
    endloop
  endfacet
  facet normal -0.0 -1.0 0.0
    outer loop
      vertex 0.009913708 0.0 -0.0113137085
      vertex 3.1160464E-18 0.0 -0.011
      vertex 0.0071945144 0.0 -0.014291219
    endloop
  endfacet
  facet normal -0.0 -1.0 0.0
    outer loop
      vertex 0.0071945144 0.0 -0.014291219
      vertex 3.1160464E-18 0.0 -0.011
      vertex -7.21645E-19 0.0 -0.016
    endloop
  endfacet
  facet normal 0.0 -1.0 0.0
    outer loop
      vertex 3.1160464E-18 0.0 -0.011
      vertex -0.0071945144 0.0 -0.014291219
      vertex -7.21645E-19 0.0 -0.016
    endloop
  endfacet
  facet normal 0.0 -1.0 0.0
    outer loop
      vertex -0.016 0.0 5.3290706E-18
      vertex -0.014291219 0.0 -0.0071945144
      vertex -0.011 0.0 -6.232093E-18
    endloop
  endfacet
  facet normal 0.0 -1.0 0.0
    outer loop
      vertex -0.014291219 0.0 -0.0071945144
      vertex -0.0113137085 0.0 -0.009913708
      vertex -0.011 0.0 -6.232093E-18
    endloop
  endfacet
  facet normal 0.0 -1.0 -0.0
    outer loop
      vertex -0.011 0.0 -6.232093E-18
      vertex -0.0113137085 0.0 -0.009913708
      vertex -0.00952628 0.0 -0.0055
    endloop
  endfacet
  facet normal 0.0 -1.0 0.0
    outer loop
      vertex -0.0113137085 0.0 -0.009913708
      vertex -0.010613709 0.0 -0.010101273
      vertex -0.00952628 0.0 -0.0055
    endloop
  endfacet
  facet normal 0.0 -1.0 -0.0
    outer loop
      vertex -0.00952628 0.0 -0.0055
      vertex -0.010613709 0.0 -0.010101273
      vertex -0.0055 0.0 -0.00952628
    endloop
  endfacet
  facet normal 0.0 -1.0 0.0
    outer loop
      vertex -0.010613709 0.0 -0.010101273
      vertex -0.010101273 0.0 -0.010613709
      vertex -0.0055 0.0 -0.00952628
    endloop
  endfacet
  facet normal 0.0 -1.0 -0.0
    outer loop
      vertex -0.0055 0.0 -0.00952628
      vertex -0.010101273 0.0 -0.010613709
      vertex 3.1160464E-18 0.0 -0.011
    endloop
  endfacet
  facet normal 0.0 -1.0 0.0
    outer loop
      vertex -0.010101273 0.0 -0.010613709
      vertex -0.009913708 0.0 -0.0113137085
      vertex 3.1160464E-18 0.0 -0.011
    endloop
  endfacet
  facet normal 0.0 -1.0 0.0
    outer loop
      vertex 3.1160464E-18 0.0 -0.011
      vertex -0.009913708 0.0 -0.0113137085
      vertex -0.0071945144 0.0 -0.014291219
    endloop
  endfacet
  facet normal 0.0 -1.0 -0.0
    outer loop
      vertex -0.009913708 0.0 -0.0113137085
      vertex -0.010101273 0.0 -0.012013708
      vertex -0.0071945144 0.0 -0.014291219
    endloop
  endfacet
  facet normal 0.0 -1.0 0.0
    outer loop
      vertex -0.0071945144 0.0 -0.014291219
      vertex -0.010101273 0.0 -0.012013708
      vertex -0.007868705 0.0 -0.014090333
    endloop
  endfacet
  facet normal 0.0 -1.0 0.0
    outer loop
      vertex -0.014291219 0.0 -0.0071945144
      vertex -0.014090333 0.0 -0.007868705
      vertex -0.012013708 0.0 -0.010101273
    endloop
  endfacet
  facet normal 0.0 -1.0 -0.0
    outer loop
      vertex -0.014090333 0.0 -0.007868705
      vertex -0.014135318 0.0 -0.008570749
      vertex -0.012013708 0.0 -0.010101273
    endloop
  endfacet
  facet normal -0.0 -1.0 0.0
    outer loop
      vertex -0.012013708 0.0 -0.010101273
      vertex -0.014135318 0.0 -0.008570749
      vertex -0.012526144 0.0 -0.010613709
    endloop
  endfacet
  facet normal 0.0 -1.0 -0.0
    outer loop
      vertex -0.014135318 0.0 -0.008570749
      vertex -0.014420609 0.0 -0.009213787
      vertex -0.012526144 0.0 -0.010613709
    endloop
  endfacet
  facet normal -0.0 -1.0 0.0
    outer loop
      vertex -0.012526144 0.0 -0.010613709
      vertex -0.014420609 0.0 -0.009213787
      vertex -0.012713709 0.0 -0.0113137085
    endloop
  endfacet
  facet normal 0.0 -1.0 -0.0
    outer loop
      vertex -0.014420609 0.0 -0.009213787
      vertex -0.01502987 0.0 -0.010811072
      vertex -0.012713709 0.0 -0.0113137085
    endloop
  endfacet
  facet normal -0.0 -1.0 -0.0
    outer loop
      vertex -0.012713709 0.0 -0.0113137085
      vertex -0.01502987 0.0 -0.010811072
      vertex -0.012526144 0.0 -0.012013708
    endloop
  endfacet
  facet normal 0.0 -1.0 0.0
    outer loop
      vertex -0.01502987 0.0 -0.010811072
      vertex -0.014866825 0.0 -0.012512817
      vertex -0.012526144 0.0 -0.012013708
    endloop
  endfacet
  facet normal 0.0 -1.0 0.0
    outer loop
      vertex -0.014866825 0.0 -0.012512817
      vertex -0.013965359 0.0 -0.013965359
      vertex -0.012526144 0.0 -0.012013708
    endloop
  endfacet
  facet normal 0.0 -1.0 -0.0
    outer loop
      vertex -0.012526144 0.0 -0.012013708
      vertex -0.013965359 0.0 -0.013965359
      vertex -0.012013708 0.0 -0.012526144
    endloop
  endfacet
  facet normal 0.0 -1.0 0.0
    outer loop
      vertex -0.013965359 0.0 -0.013965359
      vertex -0.012512817 0.0 -0.014866825
      vertex -0.012013708 0.0 -0.012526144
    endloop
  endfacet
  facet normal 0.0 -1.0 -0.0
    outer loop
      vertex -0.012013708 0.0 -0.012526144
      vertex -0.012512817 0.0 -0.014866825
      vertex -0.0113137085 0.0 -0.012713709
    endloop
  endfacet
  facet normal 0.0 -1.0 0.0
    outer loop
      vertex -0.012512817 0.0 -0.014866825
      vertex -0.010811072 0.0 -0.01502987
      vertex -0.0113137085 0.0 -0.012713709
    endloop
  endfacet
  facet normal 0.0 -1.0 0.0
    outer loop
      vertex -0.0113137085 0.0 -0.012713709
      vertex -0.010811072 0.0 -0.01502987
      vertex -0.010613709 0.0 -0.012526144
    endloop
  endfacet
  facet normal 0.0 -1.0 0.0
    outer loop
      vertex -0.010811072 0.0 -0.01502987
      vertex -0.009213787 0.0 -0.014420609
      vertex -0.010613709 0.0 -0.012526144
    endloop
  endfacet
  facet normal 0.0 -1.0 0.0
    outer loop
      vertex -0.010613709 0.0 -0.012526144
      vertex -0.009213787 0.0 -0.014420609
      vertex -0.010101273 0.0 -0.012013708
    endloop
  endfacet
  facet normal 0.0 -1.0 0.0
    outer loop
      vertex -0.009213787 0.0 -0.014420609
      vertex -0.008570749 0.0 -0.014135318
      vertex -0.010101273 0.0 -0.012013708
    endloop
  endfacet
  facet normal 0.0 -1.0 0.0
    outer loop
      vertex -0.010101273 0.0 -0.012013708
      vertex -0.008570749 0.0 -0.014135318
      vertex -0.007868705 0.0 -0.014090333
    endloop
  endfacet
  facet normal -0.9729340019879943 0.0 0.2310831620339863
    outer loop
      vertex -0.014291219 0.0 0.0071945144
      vertex -0.014291219 0.003 0.0071945144
      vertex -0.016 0.003 5.3290706E-18
    endloop
  endfacet
  facet normal -0.9729340019879943 0.0 0.2310831620339863
    outer loop
      vertex -0.014291219 0.0 0.0071945144
      vertex -0.016 0.003 5.3290706E-18
      vertex -0.016 0.0 5.3290706E-18
    endloop
  endfacet
  facet normal -0.9729340019879943 -0.0 -0.23108316203398596
    outer loop
      vertex -0.016 0.003 5.3290706E-18
      vertex -0.014291219 0.003 -0.0071945144
      vertex -0.016 0.0 5.3290706E-18
    endloop
  endfacet
  facet normal -0.9729340019879943 0.0 -0.23108316203398596
    outer loop
      vertex -0.016 0.0 5.3290706E-18
      vertex -0.014291219 0.003 -0.0071945144
      vertex -0.014291219 0.0 -0.0071945144
    endloop
  endfacet
  facet normal -0.9583610739720814 0.0 -0.2855591915786964
    outer loop
      vertex -0.014291219 0.0 -0.0071945144
      vertex -0.014291219 0.003 -0.0071945144
      vertex -0.014090333 0.0 -0.007868705
    endloop
  endfacet
  facet normal -0.9583610739720814 0.0 -0.2855591915786964
    outer loop
      vertex -0.014291219 0.003 -0.0071945144
      vertex -0.014090333 0.003 -0.007868705
      vertex -0.014090333 0.0 -0.007868705
    endloop
  endfacet
  facet normal -0.9979533577855709 0.0 0.06394603728538809
    outer loop
      vertex -0.014090333 0.0 -0.007868705
      vertex -0.014090333 0.003 -0.007868705
      vertex -0.014135318 0.0 -0.008570749
    endloop
  endfacet
  facet normal -0.9979533577855709 0.0 0.06394603728538809
    outer loop
      vertex -0.014090333 0.003 -0.007868705
      vertex -0.014135318 0.003 -0.008570749
      vertex -0.014135318 0.0 -0.008570749
    endloop
  endfacet
  facet normal -0.914077070539867 0.0 0.4055405147617867
    outer loop
      vertex -0.014135318 0.0 -0.008570749
      vertex -0.014135318 0.003 -0.008570749
      vertex -0.014420609 0.0 -0.009213787
    endloop
  endfacet
  facet normal -0.914077070539867 0.0 0.4055405147617867
    outer loop
      vertex -0.014135318 0.003 -0.008570749
      vertex -0.014420609 0.003 -0.009213787
      vertex -0.014420609 0.0 -0.009213787
    endloop
  endfacet
  facet normal -0.9343375237953978 0.0 0.3563893820358353
    outer loop
      vertex -0.014420609 0.0 -0.009213787
      vertex -0.014420609 0.003 -0.009213787
      vertex -0.01502987 0.003 -0.010811072
    endloop
  endfacet
  facet normal -0.9343375237953978 0.0 0.3563893820358353
    outer loop
      vertex -0.014420609 0.0 -0.009213787
      vertex -0.01502987 0.003 -0.010811072
      vertex -0.01502987 0.0 -0.010811072
    endloop
  endfacet
  facet normal -0.9954415361788522 -0.0 -0.09537372830023384
    outer loop
      vertex -0.01502987 0.003 -0.010811072
      vertex -0.014866825 0.003 -0.012512817
      vertex -0.01502987 0.0 -0.010811072
    endloop
  endfacet
  facet normal -0.9954415361788522 0.0 -0.09537372830023384
    outer loop
      vertex -0.01502987 0.0 -0.010811072
      vertex -0.014866825 0.003 -0.012512817
      vertex -0.014866825 0.0 -0.012512817
    endloop
  endfacet
  facet normal -0.8496694657828139 -0.0 -0.5273156539648219
    outer loop
      vertex -0.014866825 0.003 -0.012512817
      vertex -0.013965359 0.003 -0.013965359
      vertex -0.014866825 0.0 -0.012512817
    endloop
  endfacet
  facet normal -0.8496694657828139 0.0 -0.5273156539648219
    outer loop
      vertex -0.014866825 0.0 -0.012512817
      vertex -0.013965359 0.003 -0.013965359
      vertex -0.013965359 0.0 -0.013965359
    endloop
  endfacet
  facet normal -0.5273156539648219 -0.0 -0.8496694657828139
    outer loop
      vertex -0.013965359 0.003 -0.013965359
      vertex -0.012512817 0.003 -0.014866825
      vertex -0.013965359 0.0 -0.013965359
    endloop
  endfacet
  facet normal -0.5273156539648219 0.0 -0.8496694657828139
    outer loop
      vertex -0.013965359 0.0 -0.013965359
      vertex -0.012512817 0.003 -0.014866825
      vertex -0.012512817 0.0 -0.014866825
    endloop
  endfacet
  facet normal -0.09537372830023384 -0.0 -0.9954415361788522
    outer loop
      vertex -0.012512817 0.003 -0.014866825
      vertex -0.010811072 0.003 -0.01502987
      vertex -0.012512817 0.0 -0.014866825
    endloop
  endfacet
  facet normal -0.09537372830023384 0.0 -0.9954415361788522
    outer loop
      vertex -0.012512817 0.0 -0.014866825
      vertex -0.010811072 0.003 -0.01502987
      vertex -0.010811072 0.0 -0.01502987
    endloop
  endfacet
  facet normal 0.3563893820358353 0.0 -0.9343375237953978
    outer loop
      vertex -0.010811072 0.003 -0.01502987
      vertex -0.009213787 0.003 -0.014420609
      vertex -0.010811072 0.0 -0.01502987
    endloop
  endfacet
  facet normal 0.3563893820358353 0.0 -0.9343375237953978
    outer loop
      vertex -0.010811072 0.0 -0.01502987
      vertex -0.009213787 0.003 -0.014420609
      vertex -0.009213787 0.0 -0.014420609
    endloop
  endfacet
endsolid rear_pivot_cover_1
