solid rod_end_bearing_3
  facet normal 3.169619150901555E-17 0.25881905192375243 0.9659258244613247
    outer loop
      vertex 0.0015 0.0 -0.0015
      vertex -0.0015 3.6739403E-19 -0.0015
      vertex 0.0015 -7.5E-4 -0.0012990381
    endloop
  endfacet
  facet normal 0.0 0.2588190519237523 0.9659258244613247
    outer loop
      vertex -0.0015 3.6739403E-19 -0.0015
      vertex -0.0015 -7.5E-4 -0.0012990381
      vertex 0.0015 -7.5E-4 -0.0012990381
    endloop
  endfacet
  facet normal 0.0 0.7071067811865475 0.7071067811865475
    outer loop
      vertex 0.0015 -7.5E-4 -0.0012990381
      vertex -0.0015 -7.5E-4 -0.0012990381
      vertex 0.0015 -0.0012990381 -7.5E-4
    endloop
  endfacet
  facet normal 0.0 0.7071067811865475 0.7071067811865475
    outer loop
      vertex -0.0015 -7.5E-4 -0.0012990381
      vertex -0.0015 -0.0012990381 -7.5E-4
      vertex 0.0015 -0.0012990381 -7.5E-4
    endloop
  endfacet
  facet normal 0.0 0.9659258244613247 0.25881905192375254
    outer loop
      vertex 0.0015 -0.0012990381 -7.5E-4
      vertex -0.0015 -0.0012990381 -7.5E-4
      vertex 0.0015 -0.0015 -4.2491542E-19
    endloop
  endfacet
  facet normal 0.0 0.9659258244613247 0.25881905192375254
    outer loop
      vertex -0.0015 -0.0012990381 -7.5E-4
      vertex -0.0015 -0.0015 -4.2491542E-19
      vertex 0.0015 -0.0015 -4.2491542E-19
    endloop
  endfacet
  facet normal 0.0 0.9659258244613248 -0.25881905192375226
    outer loop
      vertex 0.0015 -0.0015 -4.2491542E-19
      vertex -0.0015 -0.0015 -4.2491542E-19
      vertex 0.0015 -0.0012990381 7.5E-4
    endloop
  endfacet
  facet normal 0.0 0.9659258244613248 -0.25881905192375226
    outer loop
      vertex -0.0015 -0.0015 -4.2491542E-19
      vertex -0.0015 -0.0012990381 7.5E-4
      vertex 0.0015 -0.0012990381 7.5E-4
    endloop
  endfacet
  facet normal 0.0 0.7071067811865475 -0.7071067811865475
    outer loop
      vertex 0.0015 -0.0012990381 7.5E-4
      vertex -0.0015 -0.0012990381 7.5E-4
      vertex 0.0015 -7.5E-4 0.0012990381
    endloop
  endfacet
  facet normal 0.0 0.7071067811865475 -0.7071067811865475
    outer loop
      vertex -0.0015 -0.0012990381 7.5E-4
      vertex -0.0015 -7.5E-4 0.0012990381
      vertex 0.0015 -7.5E-4 0.0012990381
    endloop
  endfacet
  facet normal 0.0 0.2588190519237527 -0.9659258244613247
    outer loop
      vertex 0.0015 -7.5E-4 0.0012990381
      vertex -0.0015 -7.5E-4 0.0012990381
      vertex 0.0015 -8.4983083E-19 0.0015
    endloop
  endfacet
  facet normal 0.0 0.2588190519237527 -0.9659258244613247
    outer loop
      vertex -0.0015 -7.5E-4 0.0012990381
      vertex -0.0015 -8.4983083E-19 0.0015
      vertex 0.0015 -8.4983083E-19 0.0015
    endloop
  endfacet
  facet normal -0.0 -0.25881905192375215 -0.9659258244613248
    outer loop
      vertex 0.0015 -8.4983083E-19 0.0015
      vertex -0.0015 -8.4983083E-19 0.0015
      vertex 0.0015 7.5E-4 0.0012990381
    endloop
  endfacet
  facet normal 0.0 -0.25881905192375215 -0.9659258244613248
    outer loop
      vertex -0.0015 -8.4983083E-19 0.0015
      vertex -0.0015 7.5E-4 0.0012990381
      vertex 0.0015 7.5E-4 0.0012990381
    endloop
  endfacet
  facet normal -0.0 -0.7071067811865475 -0.7071067811865475
    outer loop
      vertex 0.0015 7.5E-4 0.0012990381
      vertex -0.0015 7.5E-4 0.0012990381
      vertex 0.0015 0.0012990381 7.5E-4
    endloop
  endfacet
  facet normal 0.0 -0.7071067811865475 -0.7071067811865475
    outer loop
      vertex -0.0015 7.5E-4 0.0012990381
      vertex -0.0015 0.0012990381 7.5E-4
      vertex 0.0015 0.0012990381 7.5E-4
    endloop
  endfacet
  facet normal -0.0 -0.9659258244613247 -0.25881905192375293
    outer loop
      vertex 0.0015 0.0012990381 7.5E-4
      vertex -0.0015 0.0012990381 7.5E-4
      vertex 0.0015 0.0015 1.6078132E-18
    endloop
  endfacet
  facet normal 0.0 -0.9659258244613247 -0.25881905192375293
    outer loop
      vertex -0.0015 0.0012990381 7.5E-4
      vertex -0.0015 0.0015 1.6078132E-18
      vertex 0.0015 0.0015 1.6078132E-18
    endloop
  endfacet
  facet normal 0.0 -0.965925824461325 0.25881905192375193
    outer loop
      vertex 0.0015 0.0015 1.6078132E-18
      vertex -0.0015 0.0015 1.6078132E-18
      vertex 0.0015 0.0012990381 -7.5E-4
    endloop
  endfacet
  facet normal 0.0 -0.965925824461325 0.25881905192375193
    outer loop
      vertex -0.0015 0.0015 1.6078132E-18
      vertex -0.0015 0.0012990381 -7.5E-4
      vertex 0.0015 0.0012990381 -7.5E-4
    endloop
  endfacet
  facet normal 0.0 -0.7071067811865475 0.7071067811865475
    outer loop
      vertex 0.0015 0.0012990381 -7.5E-4
      vertex -0.0015 0.0012990381 -7.5E-4
      vertex 0.0015 7.5E-4 -0.0012990381
    endloop
  endfacet
  facet normal 0.0 -0.7071067811865475 0.7071067811865475
    outer loop
      vertex -0.0015 0.0012990381 -7.5E-4
      vertex -0.0015 7.5E-4 -0.0012990381
      vertex 0.0015 7.5E-4 -0.0012990381
    endloop
  endfacet
  facet normal 0.0 -0.25881905192375243 0.9659258244613247
    outer loop
      vertex 0.0015 7.5E-4 -0.0012990381
      vertex -0.0015 7.5E-4 -0.0012990381
      vertex 0.0015 0.0 -0.0015
    endloop
  endfacet
  facet normal -3.4090458246771503E-17 -0.25881905192375254 0.9659258244613247
    outer loop
      vertex -0.0015 7.5E-4 -0.0012990381
      vertex -0.0015 3.6739403E-19 -0.0015
      vertex 0.0015 0.0 -0.0015
    endloop
  endfacet
  facet normal -1.0 0.0 0.0
    outer loop
      vertex -0.0015 7.5E-4 0.0012990381
      vertex -0.0015 0.001 0.0017320508
      vertex -0.0015 0.0012990381 7.5E-4
    endloop
  endfacet
  facet normal -1.0 0.0 0.0
    outer loop
      vertex -0.0015 0.001 0.0017320508
      vertex -0.0015 0.0017320508 0.001
      vertex -0.0015 0.0012990381 7.5E-4
    endloop
  endfacet
  facet normal -1.0 0.0 0.0
    outer loop
      vertex -0.0015 0.0012990381 7.5E-4
      vertex -0.0015 0.0017320508 0.001
      vertex -0.0015 0.0015 1.6078132E-18
    endloop
  endfacet
  facet normal -1.0 0.0 -0.0
    outer loop
      vertex -0.0015 0.0017320508 0.001
      vertex -0.0015 0.002 -1.1331078E-18
      vertex -0.0015 0.0015 1.6078132E-18
    endloop
  endfacet
  facet normal -1.0 0.0 -0.0
    outer loop
      vertex -0.0015 0.0015 1.6078132E-18
      vertex -0.0015 0.002 -1.1331078E-18
      vertex -0.0015 0.0012990381 -7.5E-4
    endloop
  endfacet
  facet normal -1.0 0.0 0.0
    outer loop
      vertex -0.0015 0.002 -1.1331078E-18
      vertex -0.0015 0.0017320508 -0.001
      vertex -0.0015 0.0012990381 -7.5E-4
    endloop
  endfacet
  facet normal -1.0 0.0 -0.0
    outer loop
      vertex -0.0015 0.0012990381 -7.5E-4
      vertex -0.0015 0.0017320508 -0.001
      vertex -0.0015 7.5E-4 -0.0012990381
    endloop
  endfacet
  facet normal -1.0 0.0 0.0
    outer loop
      vertex -0.0015 0.0017320508 -0.001
      vertex -0.0015 0.001 -0.0017320508
      vertex -0.0015 7.5E-4 -0.0012990381
    endloop
  endfacet
  facet normal -1.0 0.0 -0.0
    outer loop
      vertex -0.0015 7.5E-4 -0.0012990381
      vertex -0.0015 0.001 -0.0017320508
      vertex -0.0015 3.6739403E-19 -0.0015
    endloop
  endfacet
  facet normal -1.0 -0.0 0.0
    outer loop
      vertex -0.0015 0.001 -0.0017320508
      vertex -0.0015 -5.204749E-19 -0.002
      vertex -0.0015 3.6739403E-19 -0.0015
    endloop
  endfacet
  facet normal -1.0 -0.0 0.0
    outer loop
      vertex -0.0015 3.6739403E-19 -0.0015
      vertex -0.0015 -5.204749E-19 -0.002
      vertex -0.0015 -7.5E-4 -0.0012990381
    endloop
  endfacet
  facet normal -1.0 0.0 0.0
    outer loop
      vertex -0.0015 -5.204749E-19 -0.002
      vertex -0.0015 -0.001 -0.0017320508
      vertex -0.0015 -7.5E-4 -0.0012990381
    endloop
  endfacet
  facet normal -1.0 -0.0 0.0
    outer loop
      vertex -0.0015 -7.5E-4 -0.0012990381
      vertex -0.0015 -0.001 -0.0017320508
      vertex -0.0015 -0.0012990381 -7.5E-4
    endloop
  endfacet
  facet normal -1.0 0.0 0.0
    outer loop
      vertex -0.0015 -0.001 -0.0017320508
      vertex -0.0015 -0.0017320508 -0.001
      vertex -0.0015 -0.0012990381 -7.5E-4
    endloop
  endfacet
  facet normal -1.0 -0.0 0.0
    outer loop
      vertex -0.0015 -0.0012990381 -7.5E-4
      vertex -0.0015 -0.0017320508 -0.001
      vertex -0.0015 -0.0015 -4.2491542E-19
    endloop
  endfacet
  facet normal -1.0 0.0 0.0
    outer loop
      vertex -0.0015 -0.0017320508 -0.001
      vertex -0.0015 -0.002 0.0
      vertex -0.0015 -0.0015 -4.2491542E-19
    endloop
  endfacet
  facet normal -1.0 0.0 0.0
    outer loop
      vertex -0.0015 -0.0015 -4.2491542E-19
      vertex -0.0015 -0.002 0.0
      vertex -0.0015 -0.0012990381 7.5E-4
    endloop
  endfacet
  facet normal -1.0 0.0 0.0
    outer loop
      vertex -0.0015 -0.002 0.0
      vertex -0.0015 -0.0017320508 0.001
      vertex -0.0015 -0.0012990381 7.5E-4
    endloop
  endfacet
  facet normal -1.0 0.0 0.0
    outer loop
      vertex -0.0015 -0.0012990381 7.5E-4
      vertex -0.0015 -0.0017320508 0.001
      vertex -0.0015 -7.5E-4 0.0012990381
    endloop
  endfacet
  facet normal -1.0 0.0 0.0
    outer loop
      vertex -0.0015 -0.0017320508 0.001
      vertex -0.0015 -0.001 0.0017320508
      vertex -0.0015 -7.5E-4 0.0012990381
    endloop
  endfacet
  facet normal -1.0 0.0 0.0
    outer loop
      vertex -0.0015 -7.5E-4 0.0012990381
      vertex -0.0015 -0.001 0.0017320508
      vertex -0.0015 -8.4983083E-19 0.0015
    endloop
  endfacet
  facet normal -1.0 0.0 0.0
    outer loop
      vertex -0.0015 -0.001 0.0017320508
      vertex -0.0015 4.5924256E-19 0.002
      vertex -0.0015 -8.4983083E-19 0.0015
    endloop
  endfacet
  facet normal -1.0 0.0 0.0
    outer loop
      vertex -0.0015 -8.4983083E-19 0.0015
      vertex -0.0015 4.5924256E-19 0.002
      vertex -0.0015 7.5E-4 0.0012990381
    endloop
  endfacet
  facet normal -1.0 0.0 0.0
    outer loop
      vertex -0.0015 4.5924256E-19 0.002
      vertex -0.0015 0.001 0.0017320508
      vertex -0.0015 7.5E-4 0.0012990381
    endloop
  endfacet
  facet normal 1.0 0.0 0.0
    outer loop
      vertex 0.0015 -0.0012990381 7.5E-4
      vertex 0.0015 -0.0017320508 0.001
      vertex 0.0015 -0.0015 -4.2491542E-19
    endloop
  endfacet
  facet normal 1.0 0.0 0.0
    outer loop
      vertex 0.0015 -0.0017320508 0.001
      vertex 0.0015 -0.002 4.8985874E-19
      vertex 0.0015 -0.0015 -4.2491542E-19
    endloop
  endfacet
  facet normal 1.0 0.0 0.0
    outer loop
      vertex 0.0015 -0.0015 -4.2491542E-19
      vertex 0.0015 -0.002 4.8985874E-19
      vertex 0.0015 -0.0012990381 -7.5E-4
    endloop
  endfacet
  facet normal 1.0 0.0 0.0
    outer loop
      vertex 0.0015 -0.002 4.8985874E-19
      vertex 0.0015 -0.0017320508 -0.001
      vertex 0.0015 -0.0012990381 -7.5E-4
    endloop
  endfacet
  facet normal 1.0 0.0 0.0
    outer loop
      vertex 0.0015 -0.0012990381 -7.5E-4
      vertex 0.0015 -0.0017320508 -0.001
      vertex 0.0015 -7.5E-4 -0.0012990381
    endloop
  endfacet
  facet normal 1.0 0.0 0.0
    outer loop
      vertex 0.0015 -0.0017320508 -0.001
      vertex 0.0015 -0.001 -0.0017320508
      vertex 0.0015 -7.5E-4 -0.0012990381
    endloop
  endfacet
  facet normal 1.0 0.0 0.0
    outer loop
      vertex 0.0015 -7.5E-4 -0.0012990381
      vertex 0.0015 -0.001 -0.0017320508
      vertex 0.0015 0.0 -0.0015
    endloop
  endfacet
  facet normal 1.0 -0.0 0.0
    outer loop
      vertex 0.0015 -0.001 -0.0017320508
      vertex 0.0015 -2.1431319E-19 -0.002
      vertex 0.0015 0.0 -0.0015
    endloop
  endfacet
  facet normal 1.0 -0.0 0.0
    outer loop
      vertex 0.0015 0.0 -0.0015
      vertex 0.0015 -2.1431319E-19 -0.002
      vertex 0.0015 7.5E-4 -0.0012990381
    endloop
  endfacet
  facet normal 1.0 0.0 0.0
    outer loop
      vertex 0.0015 -2.1431319E-19 -0.002
      vertex 0.0015 0.001 -0.0017320508
      vertex 0.0015 7.5E-4 -0.0012990381
    endloop
  endfacet
  facet normal 1.0 -0.0 0.0
    outer loop
      vertex 0.0015 7.5E-4 -0.0012990381
      vertex 0.0015 0.001 -0.0017320508
      vertex 0.0015 0.0012990381 -7.5E-4
    endloop
  endfacet
  facet normal 1.0 0.0 0.0
    outer loop
      vertex 0.0015 0.001 -0.0017320508
      vertex 0.0015 0.0017320508 -0.001
      vertex 0.0015 0.0012990381 -7.5E-4
    endloop
  endfacet
  facet normal 1.0 -0.0 0.0
    outer loop
      vertex 0.0015 0.0012990381 -7.5E-4
      vertex 0.0015 0.0017320508 -0.001
      vertex 0.0015 0.0015 1.6078132E-18
    endloop
  endfacet
  facet normal 1.0 0.0 -0.0
    outer loop
      vertex 0.0015 0.0017320508 -0.001
      vertex 0.0015 0.002 -1.1331078E-18
      vertex 0.0015 0.0015 1.6078132E-18
    endloop
  endfacet
  facet normal 1.0 -0.0 -0.0
    outer loop
      vertex 0.0015 0.0015 1.6078132E-18
      vertex 0.0015 0.002 -1.1331078E-18
      vertex 0.0015 0.0012990381 7.5E-4
    endloop
  endfacet
  facet normal 1.0 0.0 0.0
    outer loop
      vertex 0.0015 0.002 -1.1331078E-18
      vertex 0.0015 0.0017320508 0.001
      vertex 0.0015 0.0012990381 7.5E-4
    endloop
  endfacet
  facet normal 1.0 0.0 -0.0
    outer loop
      vertex 0.0015 0.0012990381 7.5E-4
      vertex 0.0015 0.0017320508 0.001
      vertex 0.0015 7.5E-4 0.0012990381
    endloop
  endfacet
  facet normal 1.0 0.0 0.0
    outer loop
      vertex 0.0015 0.0017320508 0.001
      vertex 0.0015 0.001 0.0017320508
      vertex 0.0015 7.5E-4 0.0012990381
    endloop
  endfacet
  facet normal 1.0 0.0 -0.0
    outer loop
      vertex 0.0015 7.5E-4 0.0012990381
      vertex 0.0015 0.001 0.0017320508
      vertex 0.0015 -8.4983083E-19 0.0015
    endloop
  endfacet
  facet normal 1.0 0.0 0.0
    outer loop
      vertex 0.0015 0.001 0.0017320508
      vertex 0.0015 2.7554552E-19 0.002
      vertex 0.0015 -8.4983083E-19 0.0015
    endloop
  endfacet
  facet normal 1.0 0.0 -0.0
    outer loop
      vertex 0.0015 -8.4983083E-19 0.0015
      vertex 0.0015 2.7554552E-19 0.002
      vertex 0.0015 -7.5E-4 0.0012990381
    endloop
  endfacet
  facet normal 1.0 0.0 0.0
    outer loop
      vertex 0.0015 2.7554552E-19 0.002
      vertex 0.0015 -0.001 0.0017320508
      vertex 0.0015 -7.5E-4 0.0012990381
    endloop
  endfacet
  facet normal 1.0 0.0 0.0
    outer loop
      vertex 0.0015 -7.5E-4 0.0012990381
      vertex 0.0015 -0.001 0.0017320508
      vertex 0.0015 -0.0012990381 7.5E-4
    endloop
  endfacet
  facet normal 1.0 0.0 0.0
    outer loop
      vertex 0.0015 -0.001 0.0017320508
      vertex 0.0015 -0.0017320508 0.001
      vertex 0.0015 -0.0012990381 7.5E-4
    endloop
  endfacet
  facet normal 0.40413757112175647 -0.8835306269733265 -0.2367413246730012
    outer loop
      vertex 0.0015 -0.002 4.8985874E-19
      vertex 5.321482E-4 -0.0021154464 -0.0012213535
      vertex 0.0015 -0.0017320508 -0.001
    endloop
  endfacet
  facet normal 0.4041375517423993 -0.6467893162659923 -0.6467893162659923
    outer loop
      vertex 5.321482E-4 -0.0021154464 -0.0012213535
      vertex 5.321482E-4 -0.0012213535 -0.0021154464
      vertex 0.0015 -0.0017320508 -0.001
    endloop
  endfacet
  facet normal 0.40413755174239924 -0.6467893162659922 -0.6467893162659922
    outer loop
      vertex 0.0015 -0.0017320508 -0.001
      vertex 5.321482E-4 -0.0012213535 -0.0021154464
      vertex 0.0015 -0.001 -0.0017320508
    endloop
  endfacet
  facet normal 0.40413756466824785 -0.23674126247770827 -0.8835306465904161
    outer loop
      vertex 5.321482E-4 -0.0012213535 -0.0021154464
      vertex 5.321482E-4 -7.1057213E-19 -0.002442707
      vertex 0.0015 -0.001 -0.0017320508
    endloop
  endfacet
  facet normal 0.40413749990520453 -0.23674133281682835 -0.8835306573665017
    outer loop
      vertex 0.0015 -0.001 -0.0017320508
      vertex 5.321482E-4 -7.1057213E-19 -0.002442707
      vertex 0.0015 -2.1431319E-19 -0.002
    endloop
  endfacet
  facet normal 0.4041375063587136 0.23674126914557683 -0.8835306714752478
    outer loop
      vertex 5.321482E-4 -7.1057213E-19 -0.002442707
      vertex 5.321482E-4 0.0012213535 -0.0021154464
      vertex 0.0015 -2.1431319E-19 -0.002
    endloop
  endfacet
  facet normal 0.4041375711217566 0.2367413246730013 -0.8835306269733266
    outer loop
      vertex 0.0015 -2.1431319E-19 -0.002
      vertex 5.321482E-4 0.0012213535 -0.0021154464
      vertex 0.0015 0.001 -0.0017320508
    endloop
  endfacet
  facet normal 0.4041375517423993 0.6467893162659923 -0.6467893162659923
    outer loop
      vertex 5.321482E-4 0.0012213535 -0.0021154464
      vertex 5.321482E-4 0.0021154464 -0.0012213535
      vertex 0.0015 0.001 -0.0017320508
    endloop
  endfacet
  facet normal 0.40413755174239924 0.6467893162659922 -0.6467893162659922
    outer loop
      vertex 0.0015 0.001 -0.0017320508
      vertex 5.321482E-4 0.0021154464 -0.0012213535
      vertex 0.0015 0.0017320508 -0.001
    endloop
  endfacet
  facet normal 0.4041375646682478 0.883530646590416 -0.23674126247770838
    outer loop
      vertex 5.321482E-4 0.0021154464 -0.0012213535
      vertex 5.321482E-4 0.002442707 -1.3559748E-18
      vertex 0.0015 0.0017320508 -0.001
    endloop
  endfacet
  facet normal 0.40413749990520453 0.8835306573665017 -0.23674133281682858
    outer loop
      vertex 0.0015 0.0017320508 -0.001
      vertex 5.321482E-4 0.002442707 -1.3559748E-18
      vertex 0.0015 0.002 -1.1331078E-18
    endloop
  endfacet
  facet normal 0.4041375063587137 0.8835306714752478 0.23674126914557672
    outer loop
      vertex 5.321482E-4 0.002442707 -1.3559748E-18
      vertex 5.321482E-4 0.0021154464 0.0012213535
      vertex 0.0015 0.002 -1.1331078E-18
    endloop
  endfacet
  facet normal 0.40413757112175647 0.8835306269733266 0.23674132467300107
    outer loop
      vertex 0.0015 0.002 -1.1331078E-18
      vertex 5.321482E-4 0.0021154464 0.0012213535
      vertex 0.0015 0.0017320508 0.001
    endloop
  endfacet
  facet normal 0.4041375517423993 0.6467893162659923 0.6467893162659923
    outer loop
      vertex 5.321482E-4 0.0021154464 0.0012213535
      vertex 5.321482E-4 0.0012213535 0.0021154464
      vertex 0.0015 0.0017320508 0.001
    endloop
  endfacet
  facet normal 0.40413755174239924 0.6467893162659922 0.6467893162659922
    outer loop
      vertex 0.0015 0.0017320508 0.001
      vertex 5.321482E-4 0.0012213535 0.0021154464
      vertex 0.0015 0.001 0.0017320508
    endloop
  endfacet
  facet normal 0.40413756466824785 0.2367412624777085 0.883530646590416
    outer loop
      vertex 5.321482E-4 0.0012213535 0.0021154464
      vertex 5.321482E-4 2.0013776E-18 0.002442707
      vertex 0.0015 0.001 0.0017320508
    endloop
  endfacet
  facet normal 0.4041374999052048 0.2367413328168283 0.8835306573665015
    outer loop
      vertex 0.0015 0.001 0.0017320508
      vertex 5.321482E-4 2.0013776E-18 0.002442707
      vertex 0.0015 2.7554552E-19 0.002
    endloop
  endfacet
  facet normal 0.40413750635871354 -0.23674126914557664 0.883530671475248
    outer loop
      vertex 5.321482E-4 2.0013776E-18 0.002442707
      vertex 5.321482E-4 -0.0012213535 0.0021154464
      vertex 0.0015 2.7554552E-19 0.002
    endloop
  endfacet
  facet normal 0.4041375711217566 -0.2367413246730013 0.8835306269733266
    outer loop
      vertex 0.0015 2.7554552E-19 0.002
      vertex 5.321482E-4 -0.0012213535 0.0021154464
      vertex 0.0015 -0.001 0.0017320508
    endloop
  endfacet
  facet normal 0.4041375517423993 -0.6467893162659923 0.6467893162659923
    outer loop
      vertex 5.321482E-4 -0.0012213535 0.0021154464
      vertex 5.321482E-4 -0.0021154464 0.0012213535
      vertex 0.0015 -0.001 0.0017320508
    endloop
  endfacet
  facet normal 0.40413755174239924 -0.6467893162659922 0.6467893162659922
    outer loop
      vertex 0.0015 -0.001 0.0017320508
      vertex 5.321482E-4 -0.0021154464 0.0012213535
      vertex 0.0015 -0.0017320508 0.001
    endloop
  endfacet
  facet normal 0.4041375646682478 -0.8835306465904161 0.23674126247770816
    outer loop
      vertex 5.321482E-4 -0.0021154464 0.0012213535
      vertex 5.321482E-4 -0.002442707 0.0
      vertex 0.0015 -0.0017320508 0.001
    endloop
  endfacet
  facet normal 0.4041374999052045 -0.8835306573665018 0.23674133281682844
    outer loop
      vertex 0.0015 -0.0017320508 0.001
      vertex 5.321482E-4 -0.002442707 0.0
      vertex 0.0015 -0.002 4.8985874E-19
    endloop
  endfacet
  facet normal 0.40413750635871387 -0.8835306714752477 -0.23674126914557694
    outer loop
      vertex 5.321482E-4 -0.002442707 0.0
      vertex 5.321482E-4 -0.0021154464 -0.0012213535
      vertex 0.0015 -0.002 4.8985874E-19
    endloop
  endfacet
  facet normal 0.0 -0.9659258428968229 -0.2588189831215287
    outer loop
      vertex 5.321482E-4 -0.002442707 0.0
      vertex -5.321482E-4 -0.0021154464 -0.0012213535
      vertex 5.321482E-4 -0.0021154464 -0.0012213535
    endloop
  endfacet
  facet normal 0.0 -0.7071067811865475 -0.7071067811865475
    outer loop
      vertex -5.321482E-4 -0.0021154464 -0.0012213535
      vertex -5.321482E-4 -0.0012213535 -0.0021154464
      vertex 5.321482E-4 -0.0021154464 -0.0012213535
    endloop
  endfacet
  facet normal 0.0 -0.7071067811865475 -0.7071067811865475
    outer loop
      vertex 5.321482E-4 -0.0021154464 -0.0012213535
      vertex -5.321482E-4 -0.0012213535 -0.0021154464
      vertex 5.321482E-4 -0.0012213535 -0.0021154464
    endloop
  endfacet
  facet normal 0.0 -0.25881898312152885 -0.9659258428968229
    outer loop
      vertex -5.321482E-4 -0.0012213535 -0.0021154464
      vertex -5.321482E-4 -6.4540276E-19 -0.002442707
      vertex 5.321482E-4 -0.0012213535 -0.0021154464
    endloop
  endfacet
  facet normal 0.0 -0.25881898312152885 -0.9659258428968229
    outer loop
      vertex 5.321482E-4 -0.0012213535 -0.0021154464
      vertex -5.321482E-4 -6.4540276E-19 -0.002442707
      vertex 5.321482E-4 -7.1057213E-19 -0.002442707
    endloop
  endfacet
  facet normal 1.584809464174701E-17 0.25881898312152857 -0.9659258428968229
    outer loop
      vertex -5.321482E-4 -6.4540276E-19 -0.002442707
      vertex -5.321482E-4 0.0012213535 -0.0021154464
      vertex 5.321482E-4 -7.1057213E-19 -0.002442707
    endloop
  endfacet
  facet normal 0.0 0.25881898312152857 -0.9659258428968229
    outer loop
      vertex 5.321482E-4 -7.1057213E-19 -0.002442707
      vertex -5.321482E-4 0.0012213535 -0.0021154464
      vertex 5.321482E-4 0.0012213535 -0.0021154464
    endloop
  endfacet
  facet normal 0.0 0.7071067811865475 -0.7071067811865475
    outer loop
      vertex -5.321482E-4 0.0012213535 -0.0021154464
      vertex -5.321482E-4 0.0021154464 -0.0012213535
      vertex 5.321482E-4 0.0012213535 -0.0021154464
    endloop
  endfacet
  facet normal 0.0 0.7071067811865475 -0.7071067811865475
    outer loop
      vertex 5.321482E-4 0.0012213535 -0.0021154464
      vertex -5.321482E-4 0.0021154464 -0.0012213535
      vertex 5.321482E-4 0.0021154464 -0.0012213535
    endloop
  endfacet
  facet normal 0.0 0.9659258428968229 -0.258818983121529
    outer loop
      vertex -5.321482E-4 0.0021154464 -0.0012213535
      vertex -5.321482E-4 0.002442707 -1.3559748E-18
      vertex 5.321482E-4 0.0021154464 -0.0012213535
    endloop
  endfacet
  facet normal 0.0 0.9659258428968229 -0.258818983121529
    outer loop
      vertex 5.321482E-4 0.0021154464 -0.0012213535
      vertex -5.321482E-4 0.002442707 -1.3559748E-18
      vertex 5.321482E-4 0.002442707 -1.3559748E-18
    endloop
  endfacet
  facet normal -0.0 0.9659258428968229 0.2588189831215284
    outer loop
      vertex -5.321482E-4 0.002442707 -1.3559748E-18
      vertex -5.321482E-4 0.0021154464 0.0012213535
      vertex 5.321482E-4 0.002442707 -1.3559748E-18
    endloop
  endfacet
  facet normal 0.0 0.9659258428968229 0.2588189831215284
    outer loop
      vertex 5.321482E-4 0.002442707 -1.3559748E-18
      vertex -5.321482E-4 0.0021154464 0.0012213535
      vertex 5.321482E-4 0.0021154464 0.0012213535
    endloop
  endfacet
  facet normal -0.0 0.7071067811865475 0.7071067811865475
    outer loop
      vertex -5.321482E-4 0.0021154464 0.0012213535
      vertex -5.321482E-4 0.0012213535 0.0021154464
      vertex 5.321482E-4 0.0021154464 0.0012213535
    endloop
  endfacet
  facet normal 0.0 0.7071067811865475 0.7071067811865475
    outer loop
      vertex 5.321482E-4 0.0021154464 0.0012213535
      vertex -5.321482E-4 0.0012213535 0.0021154464
      vertex 5.321482E-4 0.0012213535 0.0021154464
    endloop
  endfacet
  facet normal -0.0 0.2588189831215292 0.9659258428968229
    outer loop
      vertex -5.321482E-4 0.0012213535 0.0021154464
      vertex -5.321482E-4 2.066547E-18 0.002442707
      vertex 5.321482E-4 0.0012213535 0.0021154464
    endloop
  endfacet
  facet normal 3.933871159620422E-17 0.2588189831215291 0.9659258428968229
    outer loop
      vertex 5.321482E-4 0.0012213535 0.0021154464
      vertex -5.321482E-4 2.066547E-18 0.002442707
      vertex 5.321482E-4 2.0013776E-18 0.002442707
    endloop
  endfacet
  facet normal -1.5848101937242427E-17 -0.25881898312152823 0.965925842896823
    outer loop
      vertex -5.321482E-4 2.066547E-18 0.002442707
      vertex -5.321482E-4 -0.0012213535 0.0021154464
      vertex 5.321482E-4 2.0013776E-18 0.002442707
    endloop
  endfacet
  facet normal 0.0 -0.2588189831215283 0.965925842896823
    outer loop
      vertex 5.321482E-4 2.0013776E-18 0.002442707
      vertex -5.321482E-4 -0.0012213535 0.0021154464
      vertex 5.321482E-4 -0.0012213535 0.0021154464
    endloop
  endfacet
  facet normal 0.0 -0.7071067811865475 0.7071067811865475
    outer loop
      vertex -5.321482E-4 -0.0012213535 0.0021154464
      vertex -5.321482E-4 -0.0021154464 0.0012213535
      vertex 5.321482E-4 -0.0012213535 0.0021154464
    endloop
  endfacet
  facet normal 0.0 -0.7071067811865475 0.7071067811865475
    outer loop
      vertex 5.321482E-4 -0.0012213535 0.0021154464
      vertex -5.321482E-4 -0.0021154464 0.0012213535
      vertex 5.321482E-4 -0.0021154464 0.0012213535
    endloop
  endfacet
  facet normal 0.0 -0.9659258428968229 0.2588189831215287
    outer loop
      vertex -5.321482E-4 -0.0021154464 0.0012213535
      vertex -5.321482E-4 -0.002442707 0.0
      vertex 5.321482E-4 -0.0021154464 0.0012213535
    endloop
  endfacet
  facet normal 0.0 -0.9659258428968229 0.2588189831215287
    outer loop
      vertex 5.321482E-4 -0.0021154464 0.0012213535
      vertex -5.321482E-4 -0.002442707 0.0
      vertex 5.321482E-4 -0.002442707 0.0
    endloop
  endfacet
  facet normal 0.0 -0.9659258428968229 -0.2588189831215287
    outer loop
      vertex -5.321482E-4 -0.002442707 0.0
      vertex -5.321482E-4 -0.0021154464 -0.0012213535
      vertex 5.321482E-4 -0.002442707 0.0
    endloop
  endfacet
  facet normal -0.4041375646682479 -0.8835306465904161 -0.23674126247770816
    outer loop
      vertex -5.321482E-4 -0.002442707 0.0
      vertex -0.0015 -0.0017320508 -0.001
      vertex -5.321482E-4 -0.0021154464 -0.0012213535
    endloop
  endfacet
  facet normal -0.40413755174239924 -0.6467893162659922 -0.6467893162659922
    outer loop
      vertex -0.0015 -0.0017320508 -0.001
      vertex -0.0015 -0.001 -0.0017320508
      vertex -5.321482E-4 -0.0021154464 -0.0012213535
    endloop
  endfacet
  facet normal -0.4041375517423994 -0.6467893162659923 -0.6467893162659923
    outer loop
      vertex -5.321482E-4 -0.0021154464 -0.0012213535
      vertex -0.0015 -0.001 -0.0017320508
      vertex -5.321482E-4 -0.0012213535 -0.0021154464
    endloop
  endfacet
  facet normal -0.40413757112175663 -0.2367413246730015 -0.8835306269733267
    outer loop
      vertex -0.0015 -0.001 -0.0017320508
      vertex -0.0015 -5.204749E-19 -0.002
      vertex -5.321482E-4 -0.0012213535 -0.0021154464
    endloop
  endfacet
  facet normal -0.4041375063587138 -0.23674126914557705 -0.8835306714752477
    outer loop
      vertex -5.321482E-4 -0.0012213535 -0.0021154464
      vertex -0.0015 -5.204749E-19 -0.002
      vertex -5.321482E-4 -6.4540276E-19 -0.002442707
    endloop
  endfacet
  facet normal -0.4041374999052044 0.23674133281682821 -0.8835306573665017
    outer loop
      vertex -0.0015 -5.204749E-19 -0.002
      vertex -0.0015 0.001 -0.0017320508
      vertex -5.321482E-4 -6.4540276E-19 -0.002442707
    endloop
  endfacet
  facet normal -0.4041375646682478 0.236741262477708 -0.8835306465904161
    outer loop
      vertex -5.321482E-4 -6.4540276E-19 -0.002442707
      vertex -0.0015 0.001 -0.0017320508
      vertex -5.321482E-4 0.0012213535 -0.0021154464
    endloop
  endfacet
  facet normal -0.40413755174239924 0.6467893162659922 -0.6467893162659922
    outer loop
      vertex -0.0015 0.001 -0.0017320508
      vertex -0.0015 0.0017320508 -0.001
      vertex -5.321482E-4 0.0012213535 -0.0021154464
    endloop
  endfacet
  facet normal -0.4041375517423994 0.6467893162659923 -0.6467893162659923
    outer loop
      vertex -5.321482E-4 0.0012213535 -0.0021154464
      vertex -0.0015 0.0017320508 -0.001
      vertex -5.321482E-4 0.0021154464 -0.0012213535
    endloop
  endfacet
  facet normal -0.40413757112175663 0.8835306269733267 -0.23674132467300163
    outer loop
      vertex -0.0015 0.0017320508 -0.001
      vertex -0.0015 0.002 -1.1331078E-18
      vertex -5.321482E-4 0.0021154464 -0.0012213535
    endloop
  endfacet
  facet normal -0.40413750635871376 0.8835306714752476 -0.23674126914557717
    outer loop
      vertex -5.321482E-4 0.0021154464 -0.0012213535
      vertex -0.0015 0.002 -1.1331078E-18
      vertex -5.321482E-4 0.002442707 -1.3559748E-18
    endloop
  endfacet
  facet normal -0.4041374999052045 0.8835306573665018 0.23674133281682808
    outer loop
      vertex -0.0015 0.002 -1.1331078E-18
      vertex -0.0015 0.0017320508 0.001
      vertex -5.321482E-4 0.002442707 -1.3559748E-18
    endloop
  endfacet
  facet normal -0.4041375646682478 0.8835306465904162 0.23674126247770794
    outer loop
      vertex -5.321482E-4 0.002442707 -1.3559748E-18
      vertex -0.0015 0.0017320508 0.001
      vertex -5.321482E-4 0.0021154464 0.0012213535
    endloop
  endfacet
  facet normal -0.40413755174239924 0.6467893162659922 0.6467893162659922
    outer loop
      vertex -0.0015 0.0017320508 0.001
      vertex -0.0015 0.001 0.0017320508
      vertex -5.321482E-4 0.0021154464 0.0012213535
    endloop
  endfacet
  facet normal -0.4041375517423994 0.6467893162659923 0.6467893162659923
    outer loop
      vertex -5.321482E-4 0.0021154464 0.0012213535
      vertex -0.0015 0.001 0.0017320508
      vertex -5.321482E-4 0.0012213535 0.0021154464
    endloop
  endfacet
  facet normal -0.40413757112175663 0.2367413246730015 0.8835306269733267
    outer loop
      vertex -0.0015 0.001 0.0017320508
      vertex -0.0015 4.5924256E-19 0.002
      vertex -5.321482E-4 0.0012213535 0.0021154464
    endloop
  endfacet
  facet normal -0.40413750635871415 0.23674126914557733 0.8835306714752476
    outer loop
      vertex -5.321482E-4 0.0012213535 0.0021154464
      vertex -0.0015 4.5924256E-19 0.002
      vertex -5.321482E-4 2.066547E-18 0.002442707
    endloop
  endfacet
  facet normal -0.4041374999052041 -0.23674133281682821 0.8835306573665017
    outer loop
      vertex -0.0015 4.5924256E-19 0.002
      vertex -0.0015 -0.001 0.0017320508
      vertex -5.321482E-4 2.066547E-18 0.002442707
    endloop
  endfacet
  facet normal -0.4041375646682477 -0.23674126247770774 0.8835306465904162
    outer loop
      vertex -5.321482E-4 2.066547E-18 0.002442707
      vertex -0.0015 -0.001 0.0017320508
      vertex -5.321482E-4 -0.0012213535 0.0021154464
    endloop
  endfacet
  facet normal -0.40413755174239924 -0.6467893162659922 0.6467893162659922
    outer loop
      vertex -0.0015 -0.001 0.0017320508
      vertex -0.0015 -0.0017320508 0.001
      vertex -5.321482E-4 -0.0012213535 0.0021154464
    endloop
  endfacet
  facet normal -0.4041375517423994 -0.6467893162659923 0.6467893162659923
    outer loop
      vertex -5.321482E-4 -0.0012213535 0.0021154464
      vertex -0.0015 -0.0017320508 0.001
      vertex -5.321482E-4 -0.0021154464 0.0012213535
    endloop
  endfacet
  facet normal -0.4041375711217565 -0.8835306269733266 0.23674132467300135
    outer loop
      vertex -0.0015 -0.0017320508 0.001
      vertex -0.0015 -0.002 0.0
      vertex -5.321482E-4 -0.0021154464 0.0012213535
    endloop
  endfacet
  facet normal -0.40413750635871376 -0.8835306714752479 0.236741269145577
    outer loop
      vertex -5.321482E-4 -0.0021154464 0.0012213535
      vertex -0.0015 -0.002 0.0
      vertex -5.321482E-4 -0.002442707 0.0
    endloop
  endfacet
  facet normal -0.4041374999052045 -0.8835306573665017 -0.2367413328168283
    outer loop
      vertex -0.0015 -0.002 0.0
      vertex -0.0015 -0.0017320508 -0.001
      vertex -5.321482E-4 -0.002442707 0.0
    endloop
  endfacet
endsolid rod_end_bearing_3
