solid rod_end_2
  facet normal 1.0 -0.0 0.0
    outer loop
      vertex 0.0015 0.0017320508 -0.001
      vertex 0.0015 0.0025980761 -0.0015
      vertex 0.0015 0.002 5.551115E-19
    endloop
  endfacet
  facet normal 1.0 0.0 -0.0
    outer loop
      vertex 0.0015 0.0025980761 -0.0015
      vertex 0.0015 0.003 -7.3478805E-19
      vertex 0.0015 0.002 5.551115E-19
    endloop
  endfacet
  facet normal 1.0 -0.0 -0.0
    outer loop
      vertex 0.0015 0.002 5.551115E-19
      vertex 0.0015 0.003 -7.3478805E-19
      vertex 0.0015 0.0017320508 0.001
    endloop
  endfacet
  facet normal 1.0 0.0 0.0
    outer loop
      vertex 0.0015 0.003 -7.3478805E-19
      vertex 0.0015 0.0025980761 0.0015
      vertex 0.0015 0.0017320508 0.001
    endloop
  endfacet
  facet normal 1.0 0.0 -0.0
    outer loop
      vertex 0.0015 0.0017320508 0.001
      vertex 0.0015 0.0025980761 0.0015
      vertex 0.0015 0.001 0.0017320508
    endloop
  endfacet
  facet normal 1.0 0.0 0.0
    outer loop
      vertex 0.0015 0.0025980761 0.0015
      vertex 0.0015 0.0015 0.0025980761
      vertex 0.0015 0.001 0.0017320508
    endloop
  endfacet
  facet normal 1.0 0.0 -0.0
    outer loop
      vertex 0.0015 0.001 0.0017320508
      vertex 0.0015 0.0015 0.0025980761
      vertex 0.0015 0.0 0.002
    endloop
  endfacet
  facet normal 1.0 0.0 0.0
    outer loop
      vertex 0.0015 0.0015 0.0025980761
      vertex 0.0015 9.1848507E-20 0.003
      vertex 0.0015 0.0 0.002
    endloop
  endfacet
  facet normal 1.0 0.0 -0.0
    outer loop
      vertex 0.0015 0.0 0.002
      vertex 0.0015 9.1848507E-20 0.003
      vertex 0.0015 -0.001 0.0017320508
    endloop
  endfacet
  facet normal 1.0 0.0 0.0
    outer loop
      vertex 0.0015 9.1848507E-20 0.003
      vertex 0.0015 -0.0015 0.0025980761
      vertex 0.0015 -0.001 0.0017320508
    endloop
  endfacet
  facet normal 1.0 0.0 0.0
    outer loop
      vertex 0.0015 -0.001 0.0017320508
      vertex 0.0015 -0.0015 0.0025980761
      vertex 0.0015 -0.0017320508 0.001
    endloop
  endfacet
  facet normal 1.0 0.0 0.0
    outer loop
      vertex 0.0015 -0.0015 0.0025980761
      vertex 0.0015 -0.0025980761 0.0015
      vertex 0.0015 -0.0017320508 0.001
    endloop
  endfacet
  facet normal 1.0 0.0 0.0
    outer loop
      vertex 0.0015 -0.0017320508 0.001
      vertex 0.0015 -0.0025980761 0.0015
      vertex 0.0015 -0.002 -1.6653345E-18
    endloop
  endfacet
  facet normal 1.0 0.0 0.0
    outer loop
      vertex 0.0015 -0.0025980761 0.0015
      vertex 0.0015 -0.003 1.6996617E-18
      vertex 0.0015 -0.002 -1.6653345E-18
    endloop
  endfacet
  facet normal 1.0 0.0 0.0
    outer loop
      vertex 0.0015 -0.002 -1.6653345E-18
      vertex 0.0015 -0.003 1.6996617E-18
      vertex 0.0015 -0.0017320508 -0.001
    endloop
  endfacet
  facet normal 1.0 0.0 0.0
    outer loop
      vertex 0.0015 -0.003 1.6996617E-18
      vertex 0.0015 -0.0025980761 -0.0015
      vertex 0.0015 -0.0017320508 -0.001
    endloop
  endfacet
  facet normal 1.0 0.0 0.0
    outer loop
      vertex 0.0015 -0.0017320508 -0.001
      vertex 0.0015 -0.0025980761 -0.0015
      vertex 0.0015 -0.001 -0.0017320508
    endloop
  endfacet
  facet normal 1.0 0.0 0.0
    outer loop
      vertex 0.0015 -0.0025980761 -0.0015
      vertex 0.0015 -0.0015 -0.0025980761
      vertex 0.0015 -0.001 -0.0017320508
    endloop
  endfacet
  facet normal 1.0 0.0 0.0
    outer loop
      vertex 0.0015 -0.001 -0.0017320508
      vertex 0.0015 -0.0015 -0.0025980761
      vertex 0.0015 1.110223E-18 -0.002
    endloop
  endfacet
  facet normal 1.0 -0.0 0.0
    outer loop
      vertex 0.0015 -0.0015 -0.0025980761
      vertex 0.0015 -3.2156264E-18 -0.003
      vertex 0.0015 1.110223E-18 -0.002
    endloop
  endfacet
  facet normal 1.0 -0.0 0.0
    outer loop
      vertex 0.0015 1.110223E-18 -0.002
      vertex 0.0015 -3.2156264E-18 -0.003
      vertex 0.0015 0.001 -0.0017320508
    endloop
  endfacet
  facet normal 1.0 0.0 0.0
    outer loop
      vertex 0.0015 -3.2156264E-18 -0.003
      vertex 0.0015 0.0015 -0.0025980761
      vertex 0.0015 0.001 -0.0017320508
    endloop
  endfacet
  facet normal 1.0 -0.0 0.0
    outer loop
      vertex 0.0015 0.001 -0.0017320508
      vertex 0.0015 0.0015 -0.0025980761
      vertex 0.0015 0.0017320508 -0.001
    endloop
  endfacet
  facet normal 1.0 0.0 0.0
    outer loop
      vertex 0.0015 0.0015 -0.0025980761
      vertex 0.0015 0.0025980761 -0.0015
      vertex 0.0015 0.0017320508 -0.001
    endloop
  endfacet
  facet normal 0.0 -0.0 1.0
    outer loop
      vertex 7.5E-4 -0.0012990381 0.02
      vertex 0.0012990381 -7.5E-4 0.02
      vertex 0.0 0.0 0.02
    endloop
  endfacet
  facet normal 0.0 -0.0 1.0
    outer loop
      vertex 0.0012990381 -7.5E-4 0.02
      vertex 0.0015 0.0 0.02
      vertex 0.0 0.0 0.02
    endloop
  endfacet
  facet normal 0.0 0.0 1.0
    outer loop
      vertex 0.0 0.0 0.02
      vertex 0.0015 0.0 0.02
      vertex 0.0012990381 7.5E-4 0.02
    endloop
  endfacet
  facet normal -0.0 0.0 1.0
    outer loop
      vertex -0.0012990381 -7.5E-4 0.02
      vertex -7.5E-4 -0.0012990381 0.02
      vertex 0.0 0.0 0.02
    endloop
  endfacet
  facet normal -0.0 0.0 1.0
    outer loop
      vertex -7.5E-4 -0.0012990381 0.02
      vertex -1.6078132E-18 -0.0015 0.02
      vertex 0.0 0.0 0.02
    endloop
  endfacet
  facet normal 0.0 0.0 1.0
    outer loop
      vertex 0.0 0.0 0.02
      vertex -1.6078132E-18 -0.0015 0.02
      vertex 7.5E-4 -0.0012990381 0.02
    endloop
  endfacet
  facet normal 0.0 0.0 1.0
    outer loop
      vertex -7.5E-4 0.0012990381 0.02
      vertex -0.0012990381 7.5E-4 0.02
      vertex 0.0 0.0 0.02
    endloop
  endfacet
  facet normal 0.0 0.0 1.0
    outer loop
      vertex -0.0012990381 7.5E-4 0.02
      vertex -0.0015 8.4983083E-19 0.02
      vertex 0.0 0.0 0.02
    endloop
  endfacet
  facet normal 0.0 0.0 1.0
    outer loop
      vertex 0.0 0.0 0.02
      vertex -0.0015 8.4983083E-19 0.02
      vertex -0.0012990381 -7.5E-4 0.02
    endloop
  endfacet
  facet normal 0.0 0.0 1.0
    outer loop
      vertex 0.0012990381 7.5E-4 0.02
      vertex 7.5E-4 0.0012990381 0.02
      vertex 0.0 0.0 0.02
    endloop
  endfacet
  facet normal 0.0 0.0 1.0
    outer loop
      vertex 7.5E-4 0.0012990381 0.02
      vertex 4.2491542E-19 0.0015 0.02
      vertex 0.0 0.0 0.02
    endloop
  endfacet
  facet normal 0.0 -0.0 1.0
    outer loop
      vertex 0.0 0.0 0.02
      vertex 4.2491542E-19 0.0015 0.02
      vertex -7.5E-4 0.0012990381 0.02
    endloop
  endfacet
  facet normal -1.0 0.0 0.0
    outer loop
      vertex -0.0015 0.0017320508 0.001
      vertex -0.0015 0.0025980761 0.0015
      vertex -0.0015 0.002 -5.551115E-19
    endloop
  endfacet
  facet normal -1.0 0.0 -0.0
    outer loop
      vertex -0.0015 0.0025980761 0.0015
      vertex -0.0015 0.003 0.0
      vertex -0.0015 0.002 -5.551115E-19
    endloop
  endfacet
  facet normal -1.0 0.0 -0.0
    outer loop
      vertex -0.0015 0.002 -5.551115E-19
      vertex -0.0015 0.003 0.0
      vertex -0.0015 0.0017320508 -0.001
    endloop
  endfacet
  facet normal -1.0 0.0 0.0
    outer loop
      vertex -0.0015 0.003 0.0
      vertex -0.0015 0.0025980761 -0.0015
      vertex -0.0015 0.0017320508 -0.001
    endloop
  endfacet
  facet normal -1.0 0.0 -0.0
    outer loop
      vertex -0.0015 0.0017320508 -0.001
      vertex -0.0015 0.0025980761 -0.0015
      vertex -0.0015 0.001 -0.0017320508
    endloop
  endfacet
  facet normal -1.0 0.0 0.0
    outer loop
      vertex -0.0015 0.0025980761 -0.0015
      vertex -0.0015 0.0015 -0.0025980761
      vertex -0.0015 0.001 -0.0017320508
    endloop
  endfacet
  facet normal -1.0 0.0 -0.0
    outer loop
      vertex -0.0015 0.001 -0.0017320508
      vertex -0.0015 0.0015 -0.0025980761
      vertex -0.0015 0.0 -0.002
    endloop
  endfacet
  facet normal -1.0 -0.0 0.0
    outer loop
      vertex -0.0015 0.0015 -0.0025980761
      vertex -0.0015 -3.2156264E-18 -0.003
      vertex -0.0015 0.0 -0.002
    endloop
  endfacet
  facet normal -1.0 -0.0 0.0
    outer loop
      vertex -0.0015 0.0 -0.002
      vertex -0.0015 -3.2156264E-18 -0.003
      vertex -0.0015 -0.001 -0.0017320508
    endloop
  endfacet
  facet normal -1.0 0.0 0.0
    outer loop
      vertex -0.0015 -3.2156264E-18 -0.003
      vertex -0.0015 -0.0015 -0.0025980761
      vertex -0.0015 -0.001 -0.0017320508
    endloop
  endfacet
  facet normal -1.0 -0.0 0.0
    outer loop
      vertex -0.0015 -0.001 -0.0017320508
      vertex -0.0015 -0.0015 -0.0025980761
      vertex -0.0015 -0.0017320508 -0.001
    endloop
  endfacet
  facet normal -1.0 0.0 0.0
    outer loop
      vertex -0.0015 -0.0015 -0.0025980761
      vertex -0.0015 -0.0025980761 -0.0015
      vertex -0.0015 -0.0017320508 -0.001
    endloop
  endfacet
  facet normal -1.0 -0.0 0.0
    outer loop
      vertex -0.0015 -0.0017320508 -0.001
      vertex -0.0015 -0.0025980761 -0.0015
      vertex -0.0015 -0.002 1.6653345E-18
    endloop
  endfacet
  facet normal -1.0 0.0 0.0
    outer loop
      vertex -0.0015 -0.0025980761 -0.0015
      vertex -0.0015 -0.003 1.6996617E-18
      vertex -0.0015 -0.002 1.6653345E-18
    endloop
  endfacet
  facet normal -1.0 0.0 0.0
    outer loop
      vertex -0.0015 -0.002 1.6653345E-18
      vertex -0.0015 -0.003 1.6996617E-18
      vertex -0.0015 -0.0017320508 0.001
    endloop
  endfacet
  facet normal -1.0 0.0 0.0
    outer loop
      vertex -0.0015 -0.003 1.6996617E-18
      vertex -0.0015 -0.0025980761 0.0015
      vertex -0.0015 -0.0017320508 0.001
    endloop
  endfacet
  facet normal -1.0 0.0 0.0
    outer loop
      vertex -0.0015 -0.0017320508 0.001
      vertex -0.0015 -0.0025980761 0.0015
      vertex -0.0015 -0.001 0.0017320508
    endloop
  endfacet
  facet normal -1.0 0.0 0.0
    outer loop
      vertex -0.0015 -0.0025980761 0.0015
      vertex -0.0015 -0.0015 0.0025980761
      vertex -0.0015 -0.001 0.0017320508
    endloop
  endfacet
  facet normal -1.0 0.0 0.0
    outer loop
      vertex -0.0015 -0.001 0.0017320508
      vertex -0.0015 -0.0015 0.0025980761
      vertex -0.0015 1.110223E-18 0.002
    endloop
  endfacet
  facet normal -1.0 0.0 0.0
    outer loop
      vertex -0.0015 -0.0015 0.0025980761
      vertex -0.0015 -2.7554552E-19 0.003
      vertex -0.0015 1.110223E-18 0.002
    endloop
  endfacet
  facet normal -1.0 0.0 0.0
    outer loop
      vertex -0.0015 1.110223E-18 0.002
      vertex -0.0015 -2.7554552E-19 0.003
      vertex -0.0015 0.001 0.0017320508
    endloop
  endfacet
  facet normal -1.0 0.0 0.0
    outer loop
      vertex -0.0015 -2.7554552E-19 0.003
      vertex -0.0015 0.0015 0.0025980761
      vertex -0.0015 0.001 0.0017320508
    endloop
  endfacet
  facet normal -1.0 0.0 0.0
    outer loop
      vertex -0.0015 0.001 0.0017320508
      vertex -0.0015 0.0015 0.0025980761
      vertex -0.0015 0.0017320508 0.001
    endloop
  endfacet
  facet normal -1.0 0.0 0.0
    outer loop
      vertex -0.0015 0.0015 0.0025980761
      vertex -0.0015 0.0025980761 0.0015
      vertex -0.0015 0.0017320508 0.001
    endloop
  endfacet
  facet normal 0.0 -0.7071067811865476 0.7071067811865476
    outer loop
      vertex -0.0015 -0.0025980761 0.0015
      vertex -1.7328023E-18 -0.0015 0.0025980761
      vertex -0.0015 -0.0015 0.0025980761
    endloop
  endfacet
  facet normal 0.0 -0.4913800070792509 0.8709452845287099
    outer loop
      vertex -1.7328023E-18 -0.0015 0.0025980761
      vertex -3.9105106E-4 -0.0014481295 0.002627341
      vertex -0.0015 -0.0015 0.0025980761
    endloop
  endfacet
  facet normal -0.0018245020956247097 -0.4615074398695107 0.8871344622644264
    outer loop
      vertex -0.0015 -0.0015 0.0025980761
      vertex -3.9105106E-4 -0.0014481295 0.002627341
      vertex -7.5E-4 -0.0012990381 0.0027041635
    endloop
  endfacet
  facet normal -0.03188699618274068 -0.37094263149690315 0.9281081745209417
    outer loop
      vertex -7.5E-4 -0.0012990381 0.0027041635
      vertex -0.0012990381 -7.5E-4 0.0029047376
      vertex -0.0015 -0.0015 0.0025980761
    endloop
  endfacet
  facet normal -0.2858752974200206 -0.2960504021407614 0.9113887610220505
    outer loop
      vertex -0.0012990381 -7.5E-4 0.0029047376
      vertex -0.0014477116 -3.9259536E-4 0.0029742005
      vertex -0.0015 -0.0015 0.0025980761
    endloop
  endfacet
  facet normal -0.8262311933173129 -0.14580087504402675 0.5441361226989488
    outer loop
      vertex -0.0015 -0.0015 0.0025980761
      vertex -0.0014477116 -3.9259536E-4 0.0029742005
      vertex -0.0015 -2.7554552E-19 0.003
    endloop
  endfacet
  facet normal 0.8282795218273599 -0.14502026180627173 0.541222835241715
    outer loop
      vertex 0.0015 -0.0015 0.0025980761
      vertex 0.0015 9.1848507E-20 0.003
      vertex 0.0014483208 -3.9034215E-4 0.0029744972
    endloop
  endfacet
  facet normal 0.2867272830392997 -0.29575225320922716 0.9112179047201423
    outer loop
      vertex 0.0014483208 -3.9034215E-4 0.0029744972
      vertex 0.0012990381 -7.5E-4 0.0029047376
      vertex 0.0015 -0.0015 0.0025980761
    endloop
  endfacet
  facet normal 0.03188699618274068 -0.37094263149690315 0.9281081745209417
    outer loop
      vertex 0.0012990381 -7.5E-4 0.0029047376
      vertex 7.5E-4 -0.0012990381 0.0027041635
      vertex 0.0015 -0.0015 0.0025980761
    endloop
  endfacet
  facet normal 0.0018241501992072033 -0.46150847050782656 0.8871339268259204
    outer loop
      vertex 0.0015 -0.0015 0.0025980761
      vertex 7.5E-4 -0.0012990381 0.0027041635
      vertex 3.9099596E-4 -0.0014481444 0.002627333
    endloop
  endfacet
  facet normal 0.03188699618274068 0.37094263149690315 0.9281081745209417
    outer loop
      vertex 7.5E-4 0.0012990381 0.0027041635
      vertex 0.0012990381 7.5E-4 0.0029047376
      vertex 0.0015 0.0015 0.0025980761
    endloop
  endfacet
  facet normal 0.2858752974200206 0.2960504021407614 0.9113887610220505
    outer loop
      vertex 0.0012990381 7.5E-4 0.0029047376
      vertex 0.0014477116 3.9259536E-4 0.0029742005
      vertex 0.0015 0.0015 0.0025980761
    endloop
  endfacet
  facet normal 0.826231193317313 0.14580087504402664 0.5441361226989485
    outer loop
      vertex 0.0015 0.0015 0.0025980761
      vertex 0.0014477116 3.9259536E-4 0.0029742005
      vertex 0.0015 9.1848507E-20 0.003
    endloop
  endfacet
  facet normal -0.8282795218273602 0.1450202618062716 0.5412228352417146
    outer loop
      vertex -0.0015 -2.7554552E-19 0.003
      vertex -0.0014483208 3.9034215E-4 0.0029744972
      vertex -0.0015 0.0015 0.0025980761
    endloop
  endfacet
  facet normal -0.2867272830392997 0.29575225320922716 0.9112179047201423
    outer loop
      vertex -0.0014483208 3.9034215E-4 0.0029744972
      vertex -0.0012990381 7.5E-4 0.0029047376
      vertex -0.0015 0.0015 0.0025980761
    endloop
  endfacet
  facet normal -0.03188699618274068 0.37094263149690315 0.9281081745209417
    outer loop
      vertex -0.0015 0.0015 0.0025980761
      vertex -0.0012990381 7.5E-4 0.0029047376
      vertex -7.5E-4 0.0012990381 0.0027041635
    endloop
  endfacet
  facet normal -0.0018241501992072035 0.46150847050782656 0.8871339268259203
    outer loop
      vertex -7.5E-4 0.0012990381 0.0027041635
      vertex -3.9099596E-4 0.0014481444 0.002627333
      vertex -0.0015 0.0015 0.0025980761
    endloop
  endfacet
  facet normal 0.0 0.4913851853761575 0.8709423629568374
    outer loop
      vertex -3.9099596E-4 0.0014481444 0.002627333
      vertex -3.165625E-20 0.0015 0.0025980761
      vertex -0.0015 0.0015 0.0025980761
    endloop
  endfacet
  facet normal -0.0 0.7071067811865475 0.7071067811865475
    outer loop
      vertex -0.0015 0.0015 0.0025980761
      vertex -3.165625E-20 0.0015 0.0025980761
      vertex -0.0015 0.0025980761 0.0015
    endloop
  endfacet
  facet normal 0.0 -0.49138518537615755 0.8709423629568374
    outer loop
      vertex 3.9099596E-4 -0.0014481444 0.002627333
      vertex -1.7328023E-18 -0.0015 0.0025980761
      vertex 0.0015 -0.0015 0.0025980761
    endloop
  endfacet
  facet normal 0.0 -0.7071067811865475 0.7071067811865475
    outer loop
      vertex -1.7328023E-18 -0.0015 0.0025980761
      vertex -0.0015 -0.0025980761 0.0015
      vertex 0.0015 -0.0015 0.0025980761
    endloop
  endfacet
  facet normal 0.0 -0.7071067811865475 0.7071067811865475
    outer loop
      vertex 0.0015 -0.0015 0.0025980761
      vertex -0.0015 -0.0025980761 0.0015
      vertex 0.0015 -0.0025980761 0.0015
    endloop
  endfacet
  facet normal 0.0 -0.9659258083625589 0.25881911200515517
    outer loop
      vertex -0.0015 -0.0025980761 0.0015
      vertex -0.0015 -0.003 1.6996617E-18
      vertex 0.0015 -0.0025980761 0.0015
    endloop
  endfacet
  facet normal 0.0 -0.9659258083625589 0.25881911200515517
    outer loop
      vertex 0.0015 -0.0025980761 0.0015
      vertex -0.0015 -0.003 1.6996617E-18
      vertex 0.0015 -0.003 1.6996617E-18
    endloop
  endfacet
  facet normal 0.0 -0.965925808362559 -0.2588191120051546
    outer loop
      vertex -0.0015 -0.003 1.6996617E-18
      vertex -0.0015 -0.0025980761 -0.0015
      vertex 0.0015 -0.003 1.6996617E-18
    endloop
  endfacet
  facet normal 0.0 -0.965925808362559 -0.2588191120051546
    outer loop
      vertex 0.0015 -0.003 1.6996617E-18
      vertex -0.0015 -0.0025980761 -0.0015
      vertex 0.0015 -0.0025980761 -0.0015
    endloop
  endfacet
  facet normal 0.0 -0.7071067811865475 -0.7071067811865475
    outer loop
      vertex -0.0015 -0.0025980761 -0.0015
      vertex -0.0015 -0.0015 -0.0025980761
      vertex 0.0015 -0.0025980761 -0.0015
    endloop
  endfacet
  facet normal 0.0 -0.7071067811865475 -0.7071067811865475
    outer loop
      vertex 0.0015 -0.0025980761 -0.0015
      vertex -0.0015 -0.0015 -0.0025980761
      vertex 0.0015 -0.0015 -0.0025980761
    endloop
  endfacet
  facet normal 0.0 -0.25881911200515545 -0.9659258083625589
    outer loop
      vertex -0.0015 -0.0015 -0.0025980761
      vertex -0.0015 -3.2156264E-18 -0.003
      vertex 0.0015 -0.0015 -0.0025980761
    endloop
  endfacet
  facet normal 0.0 -0.25881911200515545 -0.9659258083625589
    outer loop
      vertex 0.0015 -0.0015 -0.0025980761
      vertex -0.0015 -3.2156264E-18 -0.003
      vertex 0.0015 -3.2156264E-18 -0.003
    endloop
  endfacet
  facet normal 0.0 0.2588191120051544 -0.9659258083625593
    outer loop
      vertex -0.0015 -3.2156264E-18 -0.003
      vertex -0.0015 0.0015 -0.0025980761
      vertex 0.0015 -3.2156264E-18 -0.003
    endloop
  endfacet
  facet normal 0.0 0.2588191120051544 -0.9659258083625593
    outer loop
      vertex 0.0015 -3.2156264E-18 -0.003
      vertex -0.0015 0.0015 -0.0025980761
      vertex 0.0015 0.0015 -0.0025980761
    endloop
  endfacet
  facet normal 0.0 0.7071067811865475 -0.7071067811865475
    outer loop
      vertex -0.0015 0.0015 -0.0025980761
      vertex -0.0015 0.0025980761 -0.0015
      vertex 0.0015 0.0015 -0.0025980761
    endloop
  endfacet
  facet normal 0.0 0.7071067811865475 -0.7071067811865475
    outer loop
      vertex 0.0015 0.0015 -0.0025980761
      vertex -0.0015 0.0025980761 -0.0015
      vertex 0.0015 0.0025980761 -0.0015
    endloop
  endfacet
  facet normal 0.0 0.9659258083625589 -0.2588191120051549
    outer loop
      vertex -0.0015 0.0025980761 -0.0015
      vertex -0.0015 0.003 0.0
      vertex 0.0015 0.0025980761 -0.0015
    endloop
  endfacet
  facet normal -4.545394357146284E-17 0.9659258083625589 -0.258819112005155
    outer loop
      vertex 0.0015 0.0025980761 -0.0015
      vertex -0.0015 0.003 0.0
      vertex 0.0015 0.003 -7.3478805E-19
    endloop
  endfacet
  facet normal 6.33923968709998E-17 0.9659258083625589 0.2588191120051549
    outer loop
      vertex -0.0015 0.003 0.0
      vertex -0.0015 0.0025980761 0.0015
      vertex 0.0015 0.003 -7.3478805E-19
    endloop
  endfacet
  facet normal 0.0 0.9659258083625589 0.25881911200515484
    outer loop
      vertex 0.0015 0.003 -7.3478805E-19
      vertex -0.0015 0.0025980761 0.0015
      vertex 0.0015 0.0025980761 0.0015
    endloop
  endfacet
  facet normal -0.0 0.7071067811865475 0.7071067811865475
    outer loop
      vertex -0.0015 0.0025980761 0.0015
      vertex -3.165625E-20 0.0015 0.0025980761
      vertex 0.0015 0.0025980761 0.0015
    endloop
  endfacet
  facet normal 0.0 0.7071067811865475 0.7071067811865475
    outer loop
      vertex 0.0015 0.0025980761 0.0015
      vertex -3.165625E-20 0.0015 0.0025980761
      vertex 0.0015 0.0015 0.0025980761
    endloop
  endfacet
  facet normal -0.0 0.49138000707925095 0.8709452845287099
    outer loop
      vertex -3.165625E-20 0.0015 0.0025980761
      vertex 3.9105106E-4 0.0014481295 0.002627341
      vertex 0.0015 0.0015 0.0025980761
    endloop
  endfacet
  facet normal 0.0018245020956247097 0.4615074398695107 0.8871344622644264
    outer loop
      vertex 0.0015 0.0015 0.0025980761
      vertex 3.9105106E-4 0.0014481295 0.002627341
      vertex 7.5E-4 0.0012990381 0.0027041635
    endloop
  endfacet
  facet normal 0.2581988968535498 -0.06918416719687955 -0.9636113742961341
    outer loop
      vertex -0.00125 6.938894E-19 0.0021650635
      vertex -0.0010825318 6.25E-4 0.0021650635
      vertex 3.061617E-19 0.0 0.0025
    endloop
  endfacet
  facet normal 0.25819889685354985 0.06918416719687942 -0.963611374296134
    outer loop
      vertex -0.00125 6.938894E-19 0.0021650635
      vertex 3.061617E-19 0.0 0.0025
      vertex -0.0010825318 -6.25E-4 0.0021650635
    endloop
  endfacet
  facet normal -0.2581988968535499 0.06918416719687952 -0.9636113742961341
    outer loop
      vertex 0.00125 0.0 0.0021650635
      vertex 0.0010825318 -6.25E-4 0.0021650635
      vertex 3.061617E-19 0.0 0.0025
    endloop
  endfacet
  facet normal -0.2581988968535499 -0.06918416719687952 -0.9636113742961341
    outer loop
      vertex 0.0010825318 6.25E-4 0.0021650635
      vertex 0.00125 0.0 0.0021650635
      vertex 3.061617E-19 0.0 0.0025
    endloop
  endfacet
  facet normal -0.18901470605744616 -0.18901470605744616 0.9636113748747648
    outer loop
      vertex -9.2444635E-35 0.0 -0.0025
      vertex 0.0010825318 6.25E-4 -0.0021650635
      vertex 6.25E-4 0.0010825318 -0.0021650635
    endloop
  endfacet
  facet normal 0.18901470605744616 -0.18901470605744616 0.9636113748747648
    outer loop
      vertex -9.2444635E-35 0.0 -0.0025
      vertex -6.25E-4 0.0010825318 -0.0021650635
      vertex -0.0010825318 6.25E-4 -0.0021650635
    endloop
  endfacet
  facet normal 0.18901470605744616 0.18901470605744616 0.9636113748747648
    outer loop
      vertex -9.2444635E-35 0.0 -0.0025
      vertex -0.0010825318 -6.25E-4 -0.0021650635
      vertex -6.25E-4 -0.0010825318 -0.0021650635
    endloop
  endfacet
  facet normal -0.18901470605744616 0.18901470605744616 0.9636113748747648
    outer loop
      vertex -9.2444635E-35 0.0 -0.0025
      vertex 6.25E-4 -0.0010825318 -0.0021650635
      vertex 0.0010825318 -6.25E-4 -0.0021650635
    endloop
  endfacet
  facet normal -0.49465844911328327 -0.5191900814679138 -0.696961030493228
    outer loop
      vertex 6.25E-4 0.0010825318 0.0021650635
      vertex 0.0010825318 0.001875 0.00125
      vertex 0.0015 0.0014960507 0.001236
    endloop
  endfacet
  facet normal -0.38458091472452 -0.652724172911472 -0.6527240413273333
    outer loop
      vertex 0.0015 0.0014960507 0.001236
      vertex 0.0015 0.001 0.0017320508
      vertex 6.25E-4 0.0010825318 0.0021650635
    endloop
  endfacet
  facet normal -0.4323633789805214 -0.4323633789805213 -0.791279860120989
    outer loop
      vertex 0.0015 0.001 0.0017320508
      vertex 0.0010825318 6.25E-4 0.0021650635
      vertex 6.25E-4 0.0010825318 0.0021650635
    endloop
  endfacet
  facet normal -0.1890147060574462 -0.1890147060574462 -0.9636113748747648
    outer loop
      vertex 6.25E-4 0.0010825318 0.0021650635
      vertex 0.0010825318 6.25E-4 0.0021650635
      vertex 3.061617E-19 0.0 0.0025
    endloop
  endfacet
  facet normal -0.44792887536948506 -0.8558502523677025 0.2586118097310489
    outer loop
      vertex 0.0010825318 0.001875 -0.00125
      vertex 0.0015 0.0017320508 -0.001
      vertex 0.00125 0.0021650635 -4.642681E-19
    endloop
  endfacet
  facet normal -0.5377110331499229 -0.8144002658824068 0.2182178997229781
    outer loop
      vertex 0.0015 0.0017320508 -0.001
      vertex 0.0015 0.002 5.551115E-19
      vertex 0.00125 0.0021650635 -4.642681E-19
    endloop
  endfacet
  facet normal -0.5322793324933432 -0.8061735824294061 -0.2583851141094988
    outer loop
      vertex 0.00125 0.0021650635 -4.642681E-19
      vertex 0.0015 0.002 5.551115E-19
      vertex 0.0010825318 0.001875 0.00125
    endloop
  endfacet
  facet normal -0.43692630945060157 -0.8688476750778722 -0.23280703945897596
    outer loop
      vertex 0.0015 0.002 5.551115E-19
      vertex 0.0015 0.0017320508 0.001
      vertex 0.0010825318 0.001875 0.00125
    endloop
  endfacet
  facet normal -0.5540717987569151 -0.588644267863193 -0.5886445172887302
    outer loop
      vertex 0.0010825318 0.001875 0.00125
      vertex 0.0015 0.0017320508 0.001
      vertex 0.0015 0.0014960507 0.001236
    endloop
  endfacet
  facet normal -0.4545433009882719 -0.4545433009882719 0.7660161715351513
    outer loop
      vertex 0.0010825318 6.25E-4 -0.0021650635
      vertex 0.0015 8.8560977E-4 -0.0017627015
      vertex 6.25E-4 0.0010825318 -0.0021650635
    endloop
  endfacet
  facet normal -0.44894389096079595 -0.23126984175095172 0.8631127638179561
    outer loop
      vertex 0.0015 8.8560977E-4 -0.0017627015
      vertex 0.0015 0.001 -0.0017320508
      vertex 6.25E-4 0.0010825318 -0.0021650635
    endloop
  endfacet
  facet normal -0.4041820579658753 -0.5817110858971982 0.7058676055484995
    outer loop
      vertex 6.25E-4 0.0010825318 -0.0021650635
      vertex 0.0015 0.001 -0.0017320508
      vertex 0.0010825318 0.001875 -0.00125
    endloop
  endfacet
  facet normal -0.554071910255961 -0.5886443994338298 0.5886442807676772
    outer loop
      vertex 0.0015 0.001 -0.0017320508
      vertex 0.0015 0.0014960507 -0.001236
      vertex 0.0010825318 0.001875 -0.00125
    endloop
  endfacet
  facet normal -0.5540717987569151 -0.588644267863193 0.5886445172887302
    outer loop
      vertex 0.0010825318 0.001875 -0.00125
      vertex 0.0015 0.0014960507 -0.001236
      vertex 0.0015 0.0017320508 -0.001
    endloop
  endfacet
  facet normal -0.6097962306129423 0.2051292281375601 0.7655524520853788
    outer loop
      vertex 0.0015 -8.8560977E-4 -0.0017627015
      vertex 0.0015 1.110223E-18 -0.002
      vertex 0.0010825318 -6.25E-4 -0.0021650635
    endloop
  endfacet
  facet normal -0.5450813695040371 0.14605407328700168 0.8255631461589589
    outer loop
      vertex 0.0015 1.110223E-18 -0.002
      vertex 0.00125 0.0 -0.0021650635
      vertex 0.0010825318 -6.25E-4 -0.0021650635
    endloop
  endfacet
  facet normal -0.25819889685354985 0.0691841671968795 0.9636113742961341
    outer loop
      vertex 0.0010825318 -6.25E-4 -0.0021650635
      vertex 0.00125 0.0 -0.0021650635
      vertex -9.2444635E-35 0.0 -0.0025
    endloop
  endfacet
  facet normal -0.6097965066204888 0.20512867528126558 0.7655523803704102
    outer loop
      vertex 0.0015 -8.8560977E-4 -0.0017627015
      vertex 0.0010825318 -6.25E-4 -0.0021650635
      vertex 0.0015 -0.001 -0.0017320508
    endloop
  endfacet
  facet normal -0.43236337898052135 0.43236337898052135 0.791279860120989
    outer loop
      vertex 0.0010825318 -6.25E-4 -0.0021650635
      vertex 6.25E-4 -0.0010825318 -0.0021650635
      vertex 0.0015 -0.001 -0.0017320508
    endloop
  endfacet
  facet normal -0.38458091472452 0.652724172911472 0.6527240413273333
    outer loop
      vertex 0.0015 -0.001 -0.0017320508
      vertex 6.25E-4 -0.0010825318 -0.0021650635
      vertex 0.0015 -0.0014960507 -0.001236
    endloop
  endfacet
  facet normal -0.49465844911328327 0.5191900814679138 0.696961030493228
    outer loop
      vertex 6.25E-4 -0.0010825318 -0.0021650635
      vertex 0.0010825318 -0.001875 -0.00125
      vertex 0.0015 -0.0014960507 -0.001236
    endloop
  endfacet
  facet normal -0.5540717987569151 0.5886442678631929 0.5886445172887302
    outer loop
      vertex 0.0015 -0.0014960507 -0.001236
      vertex 0.0010825318 -0.001875 -0.00125
      vertex 0.0015 -0.0017320508 -0.001
    endloop
  endfacet
  facet normal -0.4369263094506016 0.868847675077872 0.23280703945897618
    outer loop
      vertex 0.0015 -0.0017320508 -0.001
      vertex 0.0010825318 -0.001875 -0.00125
      vertex 0.0015 -0.002 -1.6653345E-18
    endloop
  endfacet
  facet normal -0.5322793324933429 0.8061735824294062 0.25838511410949905
    outer loop
      vertex 0.0010825318 -0.001875 -0.00125
      vertex 0.00125 -0.0021650635 -4.642681E-19
      vertex 0.0015 -0.002 -1.6653345E-18
    endloop
  endfacet
  facet normal -0.5377110331499229 0.8144002658824068 -0.2182178997229778
    outer loop
      vertex 0.0015 -0.002 -1.6653345E-18
      vertex 0.00125 -0.0021650635 -4.642681E-19
      vertex 0.0015 -0.0017320508 0.001
    endloop
  endfacet
  facet normal -0.447928875369485 0.8558502523677026 -0.25861180973104875
    outer loop
      vertex 0.00125 -0.0021650635 -4.642681E-19
      vertex 0.0010825318 -0.001875 0.00125
      vertex 0.0015 -0.0017320508 0.001
    endloop
  endfacet
  facet normal -0.5540717987569151 0.5886442678631929 -0.5886445172887302
    outer loop
      vertex 0.0015 -0.0017320508 0.001
      vertex 0.0010825318 -0.001875 0.00125
      vertex 0.0015 -0.0014960507 0.001236
    endloop
  endfacet
  facet normal -0.5540719102559611 0.5886443994338298 -0.5886442807676772
    outer loop
      vertex 0.0015 -0.0014960507 0.001236
      vertex 0.0010825318 -0.001875 0.00125
      vertex 0.0015 -0.001 0.0017320508
    endloop
  endfacet
  facet normal -0.4041820579658755 0.5817110858971982 -0.7058676055484997
    outer loop
      vertex 0.0010825318 -0.001875 0.00125
      vertex 6.25E-4 -0.0010825318 0.0021650635
      vertex 0.0015 -0.001 0.0017320508
    endloop
  endfacet
  facet normal -0.44894389096079595 0.23126984175095172 -0.8631127638179561
    outer loop
      vertex 0.0015 -0.001 0.0017320508
      vertex 6.25E-4 -0.0010825318 0.0021650635
      vertex 0.0015 -8.8560977E-4 0.0017627015
    endloop
  endfacet
  facet normal 0.6097962306129422 -0.20512922813756032 0.7655524520853788
    outer loop
      vertex -0.0015 8.8560977E-4 -0.0017627015
      vertex -0.0015 0.0 -0.002
      vertex -0.0010825318 6.25E-4 -0.0021650635
    endloop
  endfacet
  facet normal 0.5450813695040369 -0.1460540732870018 0.8255631461589591
    outer loop
      vertex -0.0015 0.0 -0.002
      vertex -0.00125 6.938894E-19 -0.0021650635
      vertex -0.0010825318 6.25E-4 -0.0021650635
    endloop
  endfacet
  facet normal 0.2581988968535498 -0.06918416719687956 0.9636113742961341
    outer loop
      vertex -0.0010825318 6.25E-4 -0.0021650635
      vertex -0.00125 6.938894E-19 -0.0021650635
      vertex -9.2444635E-35 0.0 -0.0025
    endloop
  endfacet
  facet normal 0.6097965066204888 -0.20512867528126558 0.7655523803704102
    outer loop
      vertex -0.0015 8.8560977E-4 -0.0017627015
      vertex -0.0010825318 6.25E-4 -0.0021650635
      vertex -0.0015 0.001 -0.0017320508
    endloop
  endfacet
  facet normal 0.43236337898052135 -0.43236337898052135 0.791279860120989
    outer loop
      vertex -0.0010825318 6.25E-4 -0.0021650635
      vertex -6.25E-4 0.0010825318 -0.0021650635
      vertex -0.0015 0.001 -0.0017320508
    endloop
  endfacet
  facet normal 0.38458091472452 -0.652724172911472 0.6527240413273333
    outer loop
      vertex -0.0015 0.001 -0.0017320508
      vertex -6.25E-4 0.0010825318 -0.0021650635
      vertex -0.0015 0.0014960507 -0.001236
    endloop
  endfacet
  facet normal 0.49465844911328327 -0.5191900814679138 0.696961030493228
    outer loop
      vertex -6.25E-4 0.0010825318 -0.0021650635
      vertex -0.0010825318 0.001875 -0.00125
      vertex -0.0015 0.0014960507 -0.001236
    endloop
  endfacet
  facet normal 0.5540717987569151 -0.5886442678631929 0.5886445172887302
    outer loop
      vertex -0.0015 0.0014960507 -0.001236
      vertex -0.0010825318 0.001875 -0.00125
      vertex -0.0015 0.0017320508 -0.001
    endloop
  endfacet
  facet normal 0.43692630945060157 -0.8688476750778722 0.23280703945897596
    outer loop
      vertex -0.0015 0.0017320508 -0.001
      vertex -0.0010825318 0.001875 -0.00125
      vertex -0.0015 0.002 -5.551115E-19
    endloop
  endfacet
  facet normal 0.5322793324933435 -0.8061735824294057 0.25838511410949894
    outer loop
      vertex -0.0010825318 0.001875 -0.00125
      vertex -0.00125 0.0021650635 -3.1118726E-19
      vertex -0.0015 0.002 -5.551115E-19
    endloop
  endfacet
  facet normal 0.5377110331499223 -0.8144002658824072 -0.2182178997229782
    outer loop
      vertex -0.0015 0.002 -5.551115E-19
      vertex -0.00125 0.0021650635 -3.1118726E-19
      vertex -0.0015 0.0017320508 0.001
    endloop
  endfacet
  facet normal 0.44792887536948506 -0.8558502523677024 -0.25861180973104875
    outer loop
      vertex -0.00125 0.0021650635 -3.1118726E-19
      vertex -0.0010825318 0.001875 0.00125
      vertex -0.0015 0.0017320508 0.001
    endloop
  endfacet
  facet normal 0.5540717987569151 -0.5886442678631929 -0.5886445172887302
    outer loop
      vertex -0.0015 0.0017320508 0.001
      vertex -0.0010825318 0.001875 0.00125
      vertex -0.0015 0.0014960507 0.001236
    endloop
  endfacet
  facet normal 0.5540719102559611 -0.5886443994338298 -0.5886442807676772
    outer loop
      vertex -0.0015 0.0014960507 0.001236
      vertex -0.0010825318 0.001875 0.00125
      vertex -0.0015 0.001 0.0017320508
    endloop
  endfacet
  facet normal 0.4041820579658755 -0.5817110858971982 -0.7058676055484997
    outer loop
      vertex -0.0010825318 0.001875 0.00125
      vertex -6.25E-4 0.0010825318 0.0021650635
      vertex -0.0015 0.001 0.0017320508
    endloop
  endfacet
  facet normal 0.44894389096079595 -0.23126984175095172 -0.8631127638179561
    outer loop
      vertex -0.0015 0.001 0.0017320508
      vertex -6.25E-4 0.0010825318 0.0021650635
      vertex -0.0015 8.8560977E-4 0.0017627015
    endloop
  endfacet
  facet normal 0.49465844911328327 0.5191900814679138 -0.696961030493228
    outer loop
      vertex -6.25E-4 -0.0010825318 0.0021650635
      vertex -0.0010825318 -0.001875 0.00125
      vertex -0.0015 -0.0014960507 0.001236
    endloop
  endfacet
  facet normal 0.38458091472452 0.652724172911472 -0.6527240413273333
    outer loop
      vertex -0.0015 -0.0014960507 0.001236
      vertex -0.0015 -0.001 0.0017320508
      vertex -6.25E-4 -0.0010825318 0.0021650635
    endloop
  endfacet
  facet normal 0.4323633789805214 0.4323633789805213 -0.791279860120989
    outer loop
      vertex -0.0015 -0.001 0.0017320508
      vertex -0.0010825318 -6.25E-4 0.0021650635
      vertex -6.25E-4 -0.0010825318 0.0021650635
    endloop
  endfacet
  facet normal 0.18901470605744608 0.18901470605744608 -0.9636113748747648
    outer loop
      vertex -6.25E-4 -0.0010825318 0.0021650635
      vertex -0.0010825318 -6.25E-4 0.0021650635
      vertex 3.061617E-19 0.0 0.0025
    endloop
  endfacet
  facet normal 0.44792887536948506 0.8558502523677025 0.25861180973104886
    outer loop
      vertex -0.0010825318 -0.001875 -0.00125
      vertex -0.0015 -0.0017320508 -0.001
      vertex -0.00125 -0.0021650635 -3.1118726E-19
    endloop
  endfacet
  facet normal 0.5377110331499234 0.8144002658824065 0.21821789972297775
    outer loop
      vertex -0.0015 -0.0017320508 -0.001
      vertex -0.0015 -0.002 1.6653345E-18
      vertex -0.00125 -0.0021650635 -3.1118726E-19
    endloop
  endfacet
  facet normal 0.5322793324933426 0.8061735824294065 -0.25838511410949894
    outer loop
      vertex -0.00125 -0.0021650635 -3.1118726E-19
      vertex -0.0015 -0.002 1.6653345E-18
      vertex -0.0010825318 -0.001875 0.00125
    endloop
  endfacet
  facet normal 0.4369263094506017 0.868847675077872 -0.23280703945897618
    outer loop
      vertex -0.0015 -0.002 1.6653345E-18
      vertex -0.0015 -0.0017320508 0.001
      vertex -0.0010825318 -0.001875 0.00125
    endloop
  endfacet
  facet normal 0.5540717987569151 0.588644267863193 -0.5886445172887302
    outer loop
      vertex -0.0010825318 -0.001875 0.00125
      vertex -0.0015 -0.0017320508 0.001
      vertex -0.0015 -0.0014960507 0.001236
    endloop
  endfacet
  facet normal 0.4545433009882719 0.4545433009882719 0.7660161715351513
    outer loop
      vertex -0.0010825318 -6.25E-4 -0.0021650635
      vertex -0.0015 -8.8560977E-4 -0.0017627015
      vertex -6.25E-4 -0.0010825318 -0.0021650635
    endloop
  endfacet
  facet normal 0.44894389096079595 0.23126984175095172 0.8631127638179561
    outer loop
      vertex -0.0015 -8.8560977E-4 -0.0017627015
      vertex -0.0015 -0.001 -0.0017320508
      vertex -6.25E-4 -0.0010825318 -0.0021650635
    endloop
  endfacet
  facet normal 0.4041820579658753 0.5817110858971982 0.7058676055484995
    outer loop
      vertex -6.25E-4 -0.0010825318 -0.0021650635
      vertex -0.0015 -0.001 -0.0017320508
      vertex -0.0010825318 -0.001875 -0.00125
    endloop
  endfacet
  facet normal 0.554071910255961 0.5886443994338298 0.5886442807676772
    outer loop
      vertex -0.0015 -0.001 -0.0017320508
      vertex -0.0015 -0.0014960507 -0.001236
      vertex -0.0010825318 -0.001875 -0.00125
    endloop
  endfacet
  facet normal 0.5540717987569151 0.588644267863193 0.5886445172887302
    outer loop
      vertex -0.0010825318 -0.001875 -0.00125
      vertex -0.0015 -0.0014960507 -0.001236
      vertex -0.0015 -0.0017320508 -0.001
    endloop
  endfacet
  facet normal -0.0691841671968794 0.2581988968535499 -0.963611374296134
    outer loop
      vertex 3.061617E-19 0.0 0.0025
      vertex 6.25E-4 -0.0010825318 0.0021650635
      vertex -9.082622E-19 -0.00125 0.0021650635
    endloop
  endfacet
  facet normal -0.18615674489908676 0.6947466179365952 -0.6947465747984937
    outer loop
      vertex 6.25E-4 -0.0010825318 0.0021650635
      vertex 0.0010825318 -0.001875 0.00125
      vertex -9.082622E-19 -0.00125 0.0021650635
    endloop
  endfacet
  facet normal -0.18615677452091403 0.6947465923989732 -0.6947465923989729
    outer loop
      vertex -9.082622E-19 -0.00125 0.0021650635
      vertex 0.0010825318 -0.001875 0.00125
      vertex -1.7262371E-18 -0.0021650635 0.00125
    endloop
  endfacet
  facet normal -0.25056279077682797 0.9351131352709441 -0.2505627907768282
    outer loop
      vertex 0.0010825318 -0.001875 0.00125
      vertex 0.00125 -0.0021650635 -4.642681E-19
      vertex -1.7262371E-18 -0.0021650635 0.00125
    endloop
  endfacet
  facet normal -0.25056281327478036 0.9351131232143278 -0.25056281327478064
    outer loop
      vertex -1.7262371E-18 -0.0021650635 0.00125
      vertex 0.00125 -0.0021650635 -4.642681E-19
      vertex -2.0816683E-18 -0.0025 -3.877277E-19
    endloop
  endfacet
  facet normal -0.2505628146736542 0.935113128434996 0.25056279239210794
    outer loop
      vertex 0.00125 -0.0021650635 -4.642681E-19
      vertex 0.0010825318 -0.001875 -0.00125
      vertex -2.0816683E-18 -0.0025 -3.877277E-19
    endloop
  endfacet
  facet normal -0.2505627891615477 0.9351131292426359 0.2505628148900611
    outer loop
      vertex -2.0816683E-18 -0.0025 -3.877277E-19
      vertex 0.0010825318 -0.001875 -0.00125
      vertex -1.879318E-18 -0.0021650635 -0.00125
    endloop
  endfacet
  facet normal -0.18615677774202455 0.6947466044203225 0.6947465795145294
    outer loop
      vertex 0.0010825318 -0.001875 -0.00125
      vertex 6.25E-4 -0.0010825318 -0.0021650635
      vertex -1.879318E-18 -0.0021650635 -0.00125
    endloop
  endfacet
  facet normal -0.18615673931996013 0.6947465971150059 0.6947465971150057
    outer loop
      vertex -1.879318E-18 -0.0021650635 -0.00125
      vertex 6.25E-4 -0.0010825318 -0.0021650635
      vertex -1.173406E-18 -0.00125 -0.0021650635
    endloop
  endfacet
  facet normal -0.06918416719687938 0.2581988968535499 0.963611374296134
    outer loop
      vertex 6.25E-4 -0.0010825318 -0.0021650635
      vertex -9.2444635E-35 0.0 -0.0025
      vertex -1.173406E-18 -0.00125 -0.0021650635
    endloop
  endfacet
  facet normal 0.06918416719687956 0.2581988968535498 -0.963611374296134
    outer loop
      vertex 3.061617E-19 0.0 0.0025
      vertex -9.082622E-19 -0.00125 0.0021650635
      vertex -6.25E-4 -0.0010825318 0.0021650635
    endloop
  endfacet
  facet normal 0.18615673931996066 0.6947465971150056 -0.6947465971150057
    outer loop
      vertex -9.082622E-19 -0.00125 0.0021650635
      vertex -1.7262371E-18 -0.0021650635 0.00125
      vertex -6.25E-4 -0.0010825318 0.0021650635
    endloop
  endfacet
  facet normal 0.18615677774202516 0.6947466044203223 -0.6947465795145294
    outer loop
      vertex -6.25E-4 -0.0010825318 0.0021650635
      vertex -1.7262371E-18 -0.0021650635 0.00125
      vertex -0.0010825318 -0.001875 0.00125
    endloop
  endfacet
  facet normal 0.2505627891615485 0.9351131292426357 -0.25056281489006105
    outer loop
      vertex -1.7262371E-18 -0.0021650635 0.00125
      vertex -2.0816683E-18 -0.0025 -3.877277E-19
      vertex -0.0010825318 -0.001875 0.00125
    endloop
  endfacet
  facet normal 0.25056281467365504 0.9351131284349959 -0.2505627923921079
    outer loop
      vertex -0.0010825318 -0.001875 0.00125
      vertex -2.0816683E-18 -0.0025 -3.877277E-19
      vertex -0.00125 -0.0021650635 -3.1118726E-19
    endloop
  endfacet
  facet normal 0.25056281327478114 0.9351131232143276 0.2505628132747808
    outer loop
      vertex -2.0816683E-18 -0.0025 -3.877277E-19
      vertex -1.879318E-18 -0.0021650635 -0.00125
      vertex -0.00125 -0.0021650635 -3.1118726E-19
    endloop
  endfacet
  facet normal 0.2505627907768287 0.9351131352709438 0.25056279077682836
    outer loop
      vertex -0.00125 -0.0021650635 -3.1118726E-19
      vertex -1.879318E-18 -0.0021650635 -0.00125
      vertex -0.0010825318 -0.001875 -0.00125
    endloop
  endfacet
  facet normal 0.18615677452091453 0.6947465923989729 0.6947465923989731
    outer loop
      vertex -1.879318E-18 -0.0021650635 -0.00125
      vertex -1.173406E-18 -0.00125 -0.0021650635
      vertex -0.0010825318 -0.001875 -0.00125
    endloop
  endfacet
  facet normal 0.1861567448990873 0.6947466179365951 0.6947465747984938
    outer loop
      vertex -0.0010825318 -0.001875 -0.00125
      vertex -1.173406E-18 -0.00125 -0.0021650635
      vertex -6.25E-4 -0.0010825318 -0.0021650635
    endloop
  endfacet
  facet normal 0.06918416719687961 0.2581988968535498 0.963611374296134
    outer loop
      vertex -1.173406E-18 -0.00125 -0.0021650635
      vertex -9.2444635E-35 0.0 -0.0025
      vertex -6.25E-4 -0.0010825318 -0.0021650635
    endloop
  endfacet
  facet normal 0.5377110255301855 0.21821796156892698 0.814400254341794
    outer loop
      vertex -0.0015 0.0 -0.002
      vertex -0.0015 -8.8560977E-4 -0.0017627015
      vertex -0.00125 6.938894E-19 -0.0021650635
    endloop
  endfacet
  facet normal 0.6276354312085822 0.16817436147316003 0.760125745935968
    outer loop
      vertex -0.0015 -8.8560977E-4 -0.0017627015
      vertex -0.0010825318 -6.25E-4 -0.0021650635
      vertex -0.00125 6.938894E-19 -0.0021650635
    endloop
  endfacet
  facet normal 0.25819889685354985 0.06918416719687943 0.963611374296134
    outer loop
      vertex -0.00125 6.938894E-19 -0.0021650635
      vertex -0.0010825318 -6.25E-4 -0.0021650635
      vertex -9.2444635E-35 0.0 -0.0025
    endloop
  endfacet
  facet normal -0.6097965066204888 -0.20512867528126558 -0.7655523803704102
    outer loop
      vertex 0.0015 0.001 0.0017320508
      vertex 0.0015 8.8560977E-4 0.0017627015
      vertex 0.0010825318 6.25E-4 0.0021650635
    endloop
  endfacet
  facet normal -0.6097962306129422 -0.20512922813756032 -0.7655524520853788
    outer loop
      vertex 0.0015 8.8560977E-4 0.0017627015
      vertex 0.0015 0.0 0.002
      vertex 0.0010825318 6.25E-4 0.0021650635
    endloop
  endfacet
  facet normal -0.5450813695040365 -0.1460540732870015 -0.8255631461589592
    outer loop
      vertex 0.0010825318 6.25E-4 0.0021650635
      vertex 0.0015 0.0 0.002
      vertex 0.00125 0.0 0.0021650635
    endloop
  endfacet
  facet normal -0.5377110255301858 0.2182179615689269 -0.8144002543417936
    outer loop
      vertex 0.0015 0.0 0.002
      vertex 0.0015 -8.8560977E-4 0.0017627015
      vertex 0.00125 0.0 0.0021650635
    endloop
  endfacet
  facet normal -0.6276354312085822 0.16817436147316026 -0.760125745935968
    outer loop
      vertex 0.00125 0.0 0.0021650635
      vertex 0.0015 -8.8560977E-4 0.0017627015
      vertex 0.0010825318 -6.25E-4 0.0021650635
    endloop
  endfacet
  facet normal -0.4545433009882719 0.45454330098827184 -0.7660161715351512
    outer loop
      vertex 0.0015 -8.8560977E-4 0.0017627015
      vertex 6.25E-4 -0.0010825318 0.0021650635
      vertex 0.0010825318 -6.25E-4 0.0021650635
    endloop
  endfacet
  facet normal -0.18901470605744616 0.18901470605744616 -0.9636113748747648
    outer loop
      vertex 0.0010825318 -6.25E-4 0.0021650635
      vertex 6.25E-4 -0.0010825318 0.0021650635
      vertex 3.061617E-19 0.0 0.0025
    endloop
  endfacet
  facet normal 0.06918416719687943 -0.25819889685354985 -0.9636113742961341
    outer loop
      vertex 3.061617E-19 0.0 0.0025
      vertex -6.25E-4 0.0010825318 0.0021650635
      vertex 4.795166E-19 0.00125 0.0021650635
    endloop
  endfacet
  facet normal 0.18615674489908685 -0.6947466179365951 -0.6947465747984938
    outer loop
      vertex -6.25E-4 0.0010825318 0.0021650635
      vertex -0.0010825318 0.001875 0.00125
      vertex 4.795166E-19 0.00125 0.0021650635
    endloop
  endfacet
  facet normal 0.1861567745209142 -0.6947465923989731 -0.6947465923989731
    outer loop
      vertex 4.795166E-19 0.00125 0.0021650635
      vertex -0.0010825318 0.001875 0.00125
      vertex 6.7746625E-19 0.0021650635 0.00125
    endloop
  endfacet
  facet normal 0.2505627907768282 -0.9351131352709441 -0.2505627907768283
    outer loop
      vertex -0.0010825318 0.001875 0.00125
      vertex -0.00125 0.0021650635 -3.1118726E-19
      vertex 6.7746625E-19 0.0021650635 0.00125
    endloop
  endfacet
  facet normal 0.25056281327478064 -0.9351131232143279 -0.2505628132747807
    outer loop
      vertex 6.7746625E-19 0.0021650635 0.00125
      vertex -0.00125 0.0021650635 -3.1118726E-19
      vertex 6.938894E-19 0.0025 -3.877277E-19
    endloop
  endfacet
  facet normal 0.2505628146736545 -0.9351131284349959 0.2505627923921079
    outer loop
      vertex -0.00125 0.0021650635 -3.1118726E-19
      vertex -0.0010825318 0.001875 -0.00125
      vertex 6.938894E-19 0.0025 -3.877277E-19
    endloop
  endfacet
  facet normal 0.25056278916154806 -0.9351131292426359 0.25056281489006116
    outer loop
      vertex 6.938894E-19 0.0025 -3.877277E-19
      vertex -0.0010825318 0.001875 -0.00125
      vertex 5.243854E-19 0.0021650635 -0.00125
    endloop
  endfacet
  facet normal 0.1861567777420248 -0.6947466044203224 0.6947465795145294
    outer loop
      vertex -0.0010825318 0.001875 -0.00125
      vertex -6.25E-4 0.0010825318 -0.0021650635
      vertex 5.243854E-19 0.0021650635 -0.00125
    endloop
  endfacet
  facet normal 0.1861567393199604 -0.6947465971150059 0.6947465971150059
    outer loop
      vertex 5.243854E-19 0.0021650635 -0.00125
      vertex -6.25E-4 0.0010825318 -0.0021650635
      vertex 2.1437279E-19 0.00125 -0.0021650635
    endloop
  endfacet
  facet normal 0.06918416719687948 -0.25819889685354985 0.9636113742961341
    outer loop
      vertex -6.25E-4 0.0010825318 -0.0021650635
      vertex -9.2444635E-35 0.0 -0.0025
      vertex 2.1437279E-19 0.00125 -0.0021650635
    endloop
  endfacet
  facet normal -0.06918416719687955 -0.2581988968535499 -0.9636113742961341
    outer loop
      vertex 3.061617E-19 0.0 0.0025
      vertex 4.795166E-19 0.00125 0.0021650635
      vertex 6.25E-4 0.0010825318 0.0021650635
    endloop
  endfacet
  facet normal -0.1861567393199606 -0.6947465971150057 -0.6947465971150057
    outer loop
      vertex 4.795166E-19 0.00125 0.0021650635
      vertex 6.7746625E-19 0.0021650635 0.00125
      vertex 6.25E-4 0.0010825318 0.0021650635
    endloop
  endfacet
  facet normal -0.18615677774202502 -0.6947466044203224 -0.6947465795145296
    outer loop
      vertex 6.25E-4 0.0010825318 0.0021650635
      vertex 6.7746625E-19 0.0021650635 0.00125
      vertex 0.0010825318 0.001875 0.00125
    endloop
  endfacet
  facet normal -0.2505627891615483 -0.9351131292426358 -0.250562814890061
    outer loop
      vertex 6.7746625E-19 0.0021650635 0.00125
      vertex 6.938894E-19 0.0025 -3.877277E-19
      vertex 0.0010825318 0.001875 0.00125
    endloop
  endfacet
  facet normal -0.2505628146736547 -0.9351131284349959 -0.2505627923921078
    outer loop
      vertex 0.0010825318 0.001875 0.00125
      vertex 6.938894E-19 0.0025 -3.877277E-19
      vertex 0.00125 0.0021650635 -4.642681E-19
    endloop
  endfacet
  facet normal -0.25056281327478086 -0.9351131232143278 0.25056281327478086
    outer loop
      vertex 6.938894E-19 0.0025 -3.877277E-19
      vertex 5.243854E-19 0.0021650635 -0.00125
      vertex 0.00125 0.0021650635 -4.642681E-19
    endloop
  endfacet
  facet normal -0.2505627907768284 -0.935113135270944 0.2505627907768284
    outer loop
      vertex 0.00125 0.0021650635 -4.642681E-19
      vertex 5.243854E-19 0.0021650635 -0.00125
      vertex 0.0010825318 0.001875 -0.00125
    endloop
  endfacet
  facet normal -0.1861567745209143 -0.694746592398973 0.694746592398973
    outer loop
      vertex 5.243854E-19 0.0021650635 -0.00125
      vertex 2.1437279E-19 0.00125 -0.0021650635
      vertex 0.0010825318 0.001875 -0.00125
    endloop
  endfacet
  facet normal -0.18615674489908707 -0.6947466179365951 0.6947465747984938
    outer loop
      vertex 0.0010825318 0.001875 -0.00125
      vertex 2.1437279E-19 0.00125 -0.0021650635
      vertex 6.25E-4 0.0010825318 -0.0021650635
    endloop
  endfacet
  facet normal -0.06918416719687952 -0.25819889685354985 0.963611374296134
    outer loop
      vertex 2.1437279E-19 0.00125 -0.0021650635
      vertex -9.2444635E-35 0.0 -0.0025
      vertex 6.25E-4 0.0010825318 -0.0021650635
    endloop
  endfacet
  facet normal -0.5377110255301851 -0.21821796156892728 0.814400254341794
    outer loop
      vertex 0.0015 1.110223E-18 -0.002
      vertex 0.0015 8.8560977E-4 -0.0017627015
      vertex 0.00125 0.0 -0.0021650635
    endloop
  endfacet
  facet normal -0.6276354312085822 -0.16817436147316023 0.760125745935968
    outer loop
      vertex 0.0015 8.8560977E-4 -0.0017627015
      vertex 0.0010825318 6.25E-4 -0.0021650635
      vertex 0.00125 0.0 -0.0021650635
    endloop
  endfacet
  facet normal -0.25819889685354985 -0.0691841671968795 0.9636113742961341
    outer loop
      vertex 0.00125 0.0 -0.0021650635
      vertex 0.0010825318 6.25E-4 -0.0021650635
      vertex -9.2444635E-35 0.0 -0.0025
    endloop
  endfacet
  facet normal 0.6097965066204888 0.20512867528126558 -0.7655523803704102
    outer loop
      vertex -0.0015 -0.001 0.0017320508
      vertex -0.0015 -8.8560977E-4 0.0017627015
      vertex -0.0010825318 -6.25E-4 0.0021650635
    endloop
  endfacet
  facet normal 0.6097962306129423 0.2051292281375601 -0.7655524520853788
    outer loop
      vertex -0.0015 -8.8560977E-4 0.0017627015
      vertex -0.0015 1.110223E-18 0.002
      vertex -0.0010825318 -6.25E-4 0.0021650635
    endloop
  endfacet
  facet normal 0.5450813695040367 0.14605407328700143 -0.8255631461589592
    outer loop
      vertex -0.0010825318 -6.25E-4 0.0021650635
      vertex -0.0015 1.110223E-18 0.002
      vertex -0.00125 6.938894E-19 0.0021650635
    endloop
  endfacet
  facet normal 0.5377110255301856 -0.21821796156892723 -0.8144002543417939
    outer loop
      vertex -0.0015 1.110223E-18 0.002
      vertex -0.0015 8.8560977E-4 0.0017627015
      vertex -0.00125 6.938894E-19 0.0021650635
    endloop
  endfacet
  facet normal 0.6276354312085821 -0.16817436147316042 -0.760125745935968
    outer loop
      vertex -0.00125 6.938894E-19 0.0021650635
      vertex -0.0015 8.8560977E-4 0.0017627015
      vertex -0.0010825318 6.25E-4 0.0021650635
    endloop
  endfacet
  facet normal 0.4545433009882719 -0.45454330098827184 -0.7660161715351512
    outer loop
      vertex -0.0015 8.8560977E-4 0.0017627015
      vertex -6.25E-4 0.0010825318 0.0021650635
      vertex -0.0010825318 6.25E-4 0.0021650635
    endloop
  endfacet
  facet normal 0.1890147060574461 -0.1890147060574461 -0.9636113748747648
    outer loop
      vertex -0.0010825318 6.25E-4 0.0021650635
      vertex -6.25E-4 0.0010825318 0.0021650635
      vertex 3.061617E-19 0.0 0.0025
    endloop
  endfacet
  facet normal 0.2588179319253708 -0.9659216445705802 0.002941881020696551
    outer loop
      vertex 7.5E-4 -0.0012990381 0.02
      vertex -1.6078132E-18 -0.0015 0.02
      vertex 3.9099596E-4 -0.0014481444 0.002627333
    endloop
  endfacet
  facet normal -0.9233015627891907 -0.3840758052143326 0.0
    outer loop
      vertex -0.0014477116 -3.9259536E-4 0.0029742005
      vertex -0.0012990381 -7.5E-4 0.0029047376
      vertex -0.0012990381 -7.5E-4 0.02
    endloop
  endfacet
  facet normal -0.7071067811865475 -0.7071067811865475 0.0
    outer loop
      vertex -0.0012990381 -7.5E-4 0.0029047376
      vertex -7.5E-4 -0.0012990381 0.0027041635
      vertex -0.0012990381 -7.5E-4 0.02
    endloop
  endfacet
  facet normal -0.7071067811865475 -0.7071067811865475 0.0
    outer loop
      vertex -0.0012990381 -7.5E-4 0.02
      vertex -7.5E-4 -0.0012990381 0.0027041635
      vertex -7.5E-4 -0.0012990381 0.02
    endloop
  endfacet
  facet normal -0.3835833605410665 -0.9235062563491501 0.0
    outer loop
      vertex -7.5E-4 -0.0012990381 0.0027041635
      vertex -3.9105106E-4 -0.0014481295 0.002627341
      vertex -7.5E-4 -0.0012990381 0.02
    endloop
  endfacet
  facet normal -0.2588179319300977 -0.9659216445882174 0.0029418748139049397
    outer loop
      vertex -7.5E-4 -0.0012990381 0.02
      vertex -3.9105106E-4 -0.0014481295 0.002627341
      vertex -1.6078132E-18 -0.0015 0.02
    endloop
  endfacet
  facet normal -0.1314920866662623 -0.9913172202398949 9.639893850719605E-19
    outer loop
      vertex -3.9105106E-4 -0.0014481295 0.002627341
      vertex -1.7328023E-18 -0.0015 0.0025980761
      vertex -1.6078132E-18 -0.0015 0.02
    endloop
  endfacet
  facet normal 0.131473172596089 -0.9913197288904921 -9.443044120500849E-19
    outer loop
      vertex -1.6078132E-18 -0.0015 0.02
      vertex -1.7328023E-18 -0.0015 0.0025980761
      vertex 3.9099596E-4 -0.0014481444 0.002627333
    endloop
  endfacet
  facet normal -0.9911792414140445 -0.13239782769842293 0.005875934871841643
    outer loop
      vertex -0.0014477116 -3.9259536E-4 0.0029742005
      vertex -0.0012990381 -7.5E-4 0.02
      vertex -0.0015 -2.7554552E-19 0.003
    endloop
  endfacet
  facet normal -0.9659258244613248 -0.25881905192375215 2.0053210733394975E-17
    outer loop
      vertex -0.0012990381 -7.5E-4 0.02
      vertex -0.0015 8.4983083E-19 0.02
      vertex -0.0015 -2.7554552E-19 0.003
    endloop
  endfacet
  facet normal -0.9913493909133901 0.13124932432454786 -8.688522679313286E-18
    outer loop
      vertex -0.0015 -2.7554552E-19 0.003
      vertex -0.0015 8.4983083E-19 0.02
      vertex -0.0014483208 3.9034215E-4 0.0029744972
    endloop
  endfacet
  facet normal -0.9659214721714847 0.2588178857311719 0.003001936661166628
    outer loop
      vertex -0.0015 8.4983083E-19 0.02
      vertex -0.0012990381 7.5E-4 0.02
      vertex -0.0014483208 3.9034215E-4 0.0029744972
    endloop
  endfacet
  facet normal -0.9236000630362445 0.3833574357690809 0.0
    outer loop
      vertex -0.0014483208 3.9034215E-4 0.0029744972
      vertex -0.0012990381 7.5E-4 0.02
      vertex -0.0012990381 7.5E-4 0.0029047376
    endloop
  endfacet
  facet normal -0.7071067811865475 0.7071067811865475 0.0
    outer loop
      vertex -0.0012990381 7.5E-4 0.02
      vertex -7.5E-4 0.0012990381 0.02
      vertex -0.0012990381 7.5E-4 0.0029047376
    endloop
  endfacet
  facet normal -0.7071067811865475 0.7071067811865475 0.0
    outer loop
      vertex -0.0012990381 7.5E-4 0.0029047376
      vertex -7.5E-4 0.0012990381 0.02
      vertex -7.5E-4 0.0012990381 0.0027041635
    endloop
  endfacet
  facet normal -0.3835658395253092 0.9235135336037285 0.0
    outer loop
      vertex -7.5E-4 0.0012990381 0.0027041635
      vertex -7.5E-4 0.0012990381 0.02
      vertex -3.9099596E-4 0.0014481444 0.002627333
    endloop
  endfacet
  facet normal -0.25881793192537117 0.9659216445705802 0.0029418810206965425
    outer loop
      vertex -7.5E-4 0.0012990381 0.02
      vertex 4.2491542E-19 0.0015 0.02
      vertex -3.9099596E-4 0.0014481444 0.002627333
    endloop
  endfacet
  facet normal -0.13147317259608962 0.9913197288904921 3.856510689551931E-18
    outer loop
      vertex -3.9099596E-4 0.0014481444 0.002627333
      vertex 4.2491542E-19 0.0015 0.02
      vertex -3.165625E-20 0.0015 0.0025980761
    endloop
  endfacet
  facet normal 0.1314920866662617 0.9913172202398949 -3.4499381761461347E-18
    outer loop
      vertex -3.165625E-20 0.0015 0.0025980761
      vertex 4.2491542E-19 0.0015 0.02
      vertex 3.9105106E-4 0.0014481295 0.002627341
    endloop
  endfacet
  facet normal 0.2588179319300974 0.9659216445882176 0.00294187481390495
    outer loop
      vertex 4.2491542E-19 0.0015 0.02
      vertex 7.5E-4 0.0012990381 0.02
      vertex 3.9105106E-4 0.0014481295 0.002627341
    endloop
  endfacet
  facet normal 0.3835833605410665 0.9235062563491501 0.0
    outer loop
      vertex 3.9105106E-4 0.0014481295 0.002627341
      vertex 7.5E-4 0.0012990381 0.02
      vertex 7.5E-4 0.0012990381 0.0027041635
    endloop
  endfacet
  facet normal 0.7071067811865475 0.7071067811865475 0.0
    outer loop
      vertex 7.5E-4 0.0012990381 0.02
      vertex 0.0012990381 7.5E-4 0.02
      vertex 7.5E-4 0.0012990381 0.0027041635
    endloop
  endfacet
  facet normal 0.7071067811865475 0.7071067811865475 0.0
    outer loop
      vertex 7.5E-4 0.0012990381 0.0027041635
      vertex 0.0012990381 7.5E-4 0.02
      vertex 0.0012990381 7.5E-4 0.0029047376
    endloop
  endfacet
  facet normal 0.38356583952530915 -0.9235135336037285 0.0
    outer loop
      vertex 3.9099596E-4 -0.0014481444 0.002627333
      vertex 7.5E-4 -0.0012990381 0.0027041635
      vertex 7.5E-4 -0.0012990381 0.02
    endloop
  endfacet
  facet normal 0.7071067811865475 -0.7071067811865475 0.0
    outer loop
      vertex 7.5E-4 -0.0012990381 0.0027041635
      vertex 0.0012990381 -7.5E-4 0.0029047376
      vertex 7.5E-4 -0.0012990381 0.02
    endloop
  endfacet
  facet normal 0.7071067811865475 -0.7071067811865475 0.0
    outer loop
      vertex 7.5E-4 -0.0012990381 0.02
      vertex 0.0012990381 -7.5E-4 0.0029047376
      vertex 0.0012990381 -7.5E-4 0.02
    endloop
  endfacet
  facet normal 0.9236000630362445 -0.3833574357690809 0.0
    outer loop
      vertex 0.0012990381 -7.5E-4 0.0029047376
      vertex 0.0014483208 -3.9034215E-4 0.0029744972
      vertex 0.0012990381 -7.5E-4 0.02
    endloop
  endfacet
  facet normal 0.9659214721714849 -0.2588178857311717 0.0030019366611666346
    outer loop
      vertex 0.0012990381 -7.5E-4 0.02
      vertex 0.0014483208 -3.9034215E-4 0.0029744972
      vertex 0.0015 0.0 0.02
    endloop
  endfacet
  facet normal 0.9913493909133901 -0.13124932432454792 -4.943023908217044E-19
    outer loop
      vertex 0.0014483208 -3.9034215E-4 0.0029744972
      vertex 0.0015 9.1848507E-20 0.003
      vertex 0.0015 0.0 0.02
    endloop
  endfacet
  facet normal 0.9659258244613247 0.2588190519237524 1.398361382491302E-18
    outer loop
      vertex 0.0015 0.0 0.02
      vertex 0.0015 9.1848507E-20 0.003
      vertex 0.0012990381 7.5E-4 0.02
    endloop
  endfacet
  facet normal 0.9911792414140445 0.13239782769842287 0.005875934871841644
    outer loop
      vertex 0.0015 9.1848507E-20 0.003
      vertex 0.0014477116 3.9259536E-4 0.0029742005
      vertex 0.0012990381 7.5E-4 0.02
    endloop
  endfacet
  facet normal 0.9233015627891907 0.3840758052143327 0.0
    outer loop
      vertex 0.0012990381 7.5E-4 0.02
      vertex 0.0014477116 3.9259536E-4 0.0029742005
      vertex 0.0012990381 7.5E-4 0.0029047376
    endloop
  endfacet
endsolid rod_end_2
