solid toggle_switchSTEP_Switch_12V_LED_CLOSED_OFF_8
  facet normal -0.3791732505030257 0.15807326646152636 -0.9117239102563631
    outer loop
      vertex -0.0073406 0.0020028576 0.0021270576
      vertex -0.0073406 0.0042380975 0.0025146
      vertex -0.006159173 0.003556 0.001905
    endloop
  endfacet
  facet normal -0.296891197014053 0.29689123365853415 -0.9075853747787459
    outer loop
      vertex -0.0073406 0.0042380975 0.0025146
      vertex -0.0036703 0.006357146 0.0020071515
      vertex -0.006159173 0.003556 0.001905
    endloop
  endfacet
  facet normal -0.29689147100421237 0.29689147100421237 -0.9075852075094162
    outer loop
      vertex -0.006159173 0.003556 0.001905
      vertex -0.0036703 0.006357146 0.0020071515
      vertex -0.003556 0.006159173 0.001905
    endloop
  endfacet
  facet normal -0.10867004445224503 0.4055613569544822 -0.9075851514783537
    outer loop
      vertex -0.0036703 0.006357146 0.0020071515
      vertex 4.3368087E-18 0.008476195 0.0025146
      vertex -0.003556 0.006159173 0.001905
    endloop
  endfacet
  facet normal -0.10866966324244451 0.40556084419326155 -0.9075854262536518
    outer loop
      vertex -0.003556 0.006159173 0.001905
      vertex 4.3368087E-18 0.008476195 0.0025146
      vertex 4.354844E-19 0.007112 0.001905
    endloop
  endfacet
  facet normal 0.1086697098623595 0.40556084211406684 -0.9075854216007215
    outer loop
      vertex 4.3368087E-18 0.008476195 0.0025146
      vertex 0.0036703 0.006357146 0.0020071515
      vertex 4.354844E-19 0.007112 0.001905
    endloop
  endfacet
  facet normal 0.10866983042227327 0.4055614681170914 -0.9075851274314183
    outer loop
      vertex 4.354844E-19 0.007112 0.001905
      vertex 0.0036703 0.006357146 0.0020071515
      vertex 0.003556 0.006159173 0.001905
    endloop
  endfacet
  facet normal 0.29689135541345335 0.29689154479598884 -0.9075852211827901
    outer loop
      vertex 0.0036703 0.006357146 0.0020071515
      vertex 0.0073406 0.0042380975 0.0025146
      vertex 0.003556 0.006159173 0.001905
    endloop
  endfacet
  facet normal 0.2968912112923446 0.2968912112923446 -0.9075853774244761
    outer loop
      vertex 0.003556 0.006159173 0.001905
      vertex 0.0073406 0.0042380975 0.0025146
      vertex 0.006159173 0.003556 0.001905
    endloop
  endfacet
  facet normal 0.405560983839465 0.10866971055615914 -0.9075853581866589
    outer loop
      vertex 0.0073406 0.0042380975 0.0025146
      vertex 0.0073406 -8.673617E-18 0.0020071515
      vertex 0.006159173 0.003556 0.001905
    endloop
  endfacet
  facet normal 0.40556085747991655 0.1086696668025917 -0.9075854198901437
    outer loop
      vertex 0.006159173 0.003556 0.001905
      vertex 0.0073406 -8.673617E-18 0.0020071515
      vertex 0.007112 -2.6020852E-18 0.001905
    endloop
  endfacet
  facet normal 0.40556085522598867 -0.1086697173402882 -0.9075854148461986
    outer loop
      vertex 0.0073406 -8.673617E-18 0.0020071515
      vertex 0.0073406 -0.0042380975 0.0025146
      vertex 0.007112 -2.6020852E-18 0.001905
    endloop
  endfacet
  facet normal 0.40556098835116405 -0.10866970186942485 -0.9075853572106799
    outer loop
      vertex 0.007112 -2.6020852E-18 0.001905
      vertex 0.0073406 -0.0042380975 0.0025146
      vertex 0.006159173 -0.003556 0.001905
    endloop
  endfacet
  facet normal 0.296891197014053 -0.29689123365853415 -0.9075853747787459
    outer loop
      vertex 0.0073406 -0.0042380975 0.0025146
      vertex 0.0036703 -0.006357146 0.0020071515
      vertex 0.006159173 -0.003556 0.001905
    endloop
  endfacet
  facet normal 0.29689147100421237 -0.29689147100421237 -0.9075852075094162
    outer loop
      vertex 0.006159173 -0.003556 0.001905
      vertex 0.0036703 -0.006357146 0.0020071515
      vertex 0.003556 -0.006159173 0.001905
    endloop
  endfacet
  facet normal 0.108670044452245 -0.4055613569544822 -0.9075851514783537
    outer loop
      vertex 0.0036703 -0.006357146 0.0020071515
      vertex -5.2041704E-18 -0.008476195 0.0025146
      vertex 0.003556 -0.006159173 0.001905
    endloop
  endfacet
  facet normal 0.10866966324244448 -0.40556084419326155 -0.9075854262536518
    outer loop
      vertex 0.003556 -0.006159173 0.001905
      vertex -5.2041704E-18 -0.008476195 0.0025146
      vertex -1.3064532E-18 -0.007112 0.001905
    endloop
  endfacet
  facet normal -0.10866970986235952 -0.4055608421140668 -0.9075854216007215
    outer loop
      vertex -5.2041704E-18 -0.008476195 0.0025146
      vertex -0.0036703 -0.006357146 0.0020071515
      vertex -1.3064532E-18 -0.007112 0.001905
    endloop
  endfacet
  facet normal -0.10866983042227332 -0.40556146811709143 -0.9075851274314183
    outer loop
      vertex -1.3064532E-18 -0.007112 0.001905
      vertex -0.0036703 -0.006357146 0.0020071515
      vertex -0.003556 -0.006159173 0.001905
    endloop
  endfacet
  facet normal -0.29689135541345335 -0.29689154479598884 -0.9075852211827901
    outer loop
      vertex -0.0036703 -0.006357146 0.0020071515
      vertex -0.0073406 -0.0042380975 0.0025146
      vertex -0.003556 -0.006159173 0.001905
    endloop
  endfacet
  facet normal -0.2968912112923446 -0.2968912112923446 -0.9075853774244761
    outer loop
      vertex -0.003556 -0.006159173 0.001905
      vertex -0.0073406 -0.0042380975 0.0025146
      vertex -0.006159173 -0.003556 0.001905
    endloop
  endfacet
  facet normal -0.3791732505030257 -0.15807326646152636 -0.9117239102563631
    outer loop
      vertex -0.0073406 -0.0042380975 0.0025146
      vertex -0.0073406 -0.0020028576 0.0021270576
      vertex -0.006159173 -0.003556 0.001905
    endloop
  endfacet
  facet normal -0.2779024950511911 -0.0744637234679812 -0.9577188298929945
    outer loop
      vertex -0.006159173 -0.003556 0.001905
      vertex -0.0073406 -0.0020028576 0.0021270576
      vertex -0.007112 1.0821197E-20 0.001905
    endloop
  endfacet
  facet normal -0.40736886548150253 -0.05457710764880478 -0.9116314752996434
    outer loop
      vertex -0.0073406 -0.0020028576 0.0021270576
      vertex -0.0073406 -4.8707025E-18 0.0020071515
      vertex -0.007112 1.0821197E-20 0.001905
    endloop
  endfacet
  facet normal -0.40556085747991594 0.10866966680259163 -0.9075854198901441
    outer loop
      vertex -0.007112 1.0821197E-20 0.001905
      vertex -0.0073406 -4.8707025E-18 0.0020071515
      vertex -0.006159173 0.003556 0.001905
    endloop
  endfacet
  facet normal -0.2572274305342342 0.05774962482804976 -0.9646237763050294
    outer loop
      vertex -0.0073406 -4.8707025E-18 0.0020071515
      vertex -0.0073406 0.0020028576 0.0021270576
      vertex -0.006159173 0.003556 0.001905
    endloop
  endfacet
  facet normal 0.3791732278946728 0.1580733076424527 0.9117239125189759
    outer loop
      vertex 0.0073406 0.0020028576 0.0036641425
      vertex 0.0073406 0.0042380975 0.0032766
      vertex 0.006159173 0.003556 0.0038862
    endloop
  endfacet
  facet normal 0.29689118385234126 0.2968912542756593 0.9075853723399144
    outer loop
      vertex 0.0073406 0.0042380975 0.0032766
      vertex 0.0036703 0.006357146 0.0037840484
      vertex 0.006159173 0.003556 0.0038862
    endloop
  endfacet
  facet normal 0.29689171040615864 0.29689171040615864 0.9075850508818506
    outer loop
      vertex 0.006159173 0.003556 0.0038862
      vertex 0.0036703 0.006357146 0.0037840484
      vertex 0.003556 0.006159173 0.0038862
    endloop
  endfacet
  facet normal 0.10867024426312419 0.4055616257179055 0.9075850074548623
    outer loop
      vertex 0.0036703 0.006357146 0.0037840484
      vertex 4.3368087E-18 0.008476195 0.0032766
      vertex 0.003556 0.006159173 0.0038862
    endloop
  endfacet
  facet normal 0.10866966324244431 0.4055608441932608 0.9075854262536521
    outer loop
      vertex 0.003556 0.006159173 0.0038862
      vertex 4.3368087E-18 0.008476195 0.0032766
      vertex -4.354844E-19 0.007112 0.0038862
    endloop
  endfacet
  facet normal -0.10866973429817252 0.4055608410242579 0.9075854191618887
    outer loop
      vertex 4.3368087E-18 0.008476195 0.0032766
      vertex -0.0036703 0.006357146 0.0037840484
      vertex -4.354844E-19 0.007112 0.0038862
    endloop
  endfacet
  facet normal -0.1086699180494598 0.4055617951463163 0.9075849708037375
    outer loop
      vertex -4.354844E-19 0.007112 0.0038862
      vertex -0.0036703 0.006357146 0.0037840484
      vertex -0.003556 0.006159173 0.0038862
    endloop
  endfacet
  facet normal -0.2968914882640264 0.2968918522190891 0.9075850771593207
    outer loop
      vertex -0.0036703 0.006357146 0.0037840484
      vertex -0.0073406 0.0042380975 0.0032766
      vertex -0.003556 0.006159173 0.0038862
    endloop
  endfacet
  facet normal -0.2968912112923444 0.2968912112923444 0.9075853774244762
    outer loop
      vertex -0.003556 0.006159173 0.0038862
      vertex -0.0073406 0.0042380975 0.0032766
      vertex -0.006159173 0.003556 0.0038862
    endloop
  endfacet
  facet normal -0.4055609951135712 0.10866968884922162 0.9075853557478235
    outer loop
      vertex -0.0073406 0.0042380975 0.0032766
      vertex -0.0073406 2.6020852E-18 0.0037840484
      vertex -0.006159173 0.003556 0.0038862
    endloop
  endfacet
  facet normal -0.40556118450885464 0.10866975442970132 0.9075852632628866
    outer loop
      vertex -0.006159173 0.003556 0.0038862
      vertex -0.0073406 2.6020852E-18 0.0037840484
      vertex -0.007112 -4.344023E-18 0.0038862
    endloop
  endfacet
  facet normal -0.4055611878871791 -0.1086696786807586 0.9075852708230565
    outer loop
      vertex -0.0073406 2.6020852E-18 0.0037840484
      vertex -0.0073406 -0.0042380975 0.0032766
      vertex -0.007112 -4.344023E-18 0.0038862
    endloop
  endfacet
  facet normal -0.4055609883511638 -0.10866970186942482 0.90758535721068
    outer loop
      vertex -0.007112 -4.344023E-18 0.0038862
      vertex -0.0073406 -0.0042380975 0.0032766
      vertex -0.006159173 -0.003556 0.0038862
    endloop
  endfacet
  facet normal -0.29689118385234126 -0.2968912542756593 0.9075853723399144
    outer loop
      vertex -0.0073406 -0.0042380975 0.0032766
      vertex -0.0036703 -0.006357146 0.0037840484
      vertex -0.006159173 -0.003556 0.0038862
    endloop
  endfacet
  facet normal -0.29689171040615864 -0.29689171040615864 0.9075850508818506
    outer loop
      vertex -0.006159173 -0.003556 0.0038862
      vertex -0.0036703 -0.006357146 0.0037840484
      vertex -0.003556 -0.006159173 0.0038862
    endloop
  endfacet
  facet normal -0.10867024426312398 -0.40556162571790566 0.9075850074548623
    outer loop
      vertex -0.0036703 -0.006357146 0.0037840484
      vertex 5.421011E-18 -0.008476195 0.0032766
      vertex -0.003556 -0.006159173 0.0038862
    endloop
  endfacet
  facet normal -0.10866966324244441 -0.4055608441932613 0.9075854262536519
    outer loop
      vertex -0.003556 -0.006159173 0.0038862
      vertex 5.421011E-18 -0.008476195 0.0032766
      vertex 1.3064532E-18 -0.007112 0.0038862
    endloop
  endfacet
  facet normal 0.10866973429817246 -0.40556084102425727 0.9075854191618891
    outer loop
      vertex 5.421011E-18 -0.008476195 0.0032766
      vertex 0.0036703 -0.006357146 0.0037840484
      vertex 1.3064532E-18 -0.007112 0.0038862
    endloop
  endfacet
  facet normal 0.10866991804945987 -0.4055617951463164 0.9075849708037375
    outer loop
      vertex 1.3064532E-18 -0.007112 0.0038862
      vertex 0.0036703 -0.006357146 0.0037840484
      vertex 0.003556 -0.006159173 0.0038862
    endloop
  endfacet
  facet normal 0.2968914882640264 -0.2968918522190891 0.9075850771593207
    outer loop
      vertex 0.0036703 -0.006357146 0.0037840484
      vertex 0.0073406 -0.0042380975 0.0032766
      vertex 0.003556 -0.006159173 0.0038862
    endloop
  endfacet
  facet normal 0.2968912112923444 -0.2968912112923444 0.9075853774244762
    outer loop
      vertex 0.003556 -0.006159173 0.0038862
      vertex 0.0073406 -0.0042380975 0.0032766
      vertex 0.006159173 -0.003556 0.0038862
    endloop
  endfacet
  facet normal 0.3791732278946728 -0.1580733076424527 0.9117239125189759
    outer loop
      vertex 0.0073406 -0.0042380975 0.0032766
      vertex 0.0073406 -0.0020028576 0.0036641425
      vertex 0.006159173 -0.003556 0.0038862
    endloop
  endfacet
  facet normal 0.27790238026150094 -0.074463692710187 0.9577188655931106
    outer loop
      vertex 0.006159173 -0.003556 0.0038862
      vertex 0.0073406 -0.0020028576 0.0036641425
      vertex 0.007112 1.4272461E-18 0.0038862
    endloop
  endfacet
  facet normal 0.4073692001155016 -0.0545770080206139 0.9116313317305271
    outer loop
      vertex 0.0073406 -0.0020028576 0.0036641425
      vertex 0.0073406 -3.799224E-18 0.0037840484
      vertex 0.007112 1.4272461E-18 0.0038862
    endloop
  endfacet
  facet normal 0.4055611845088594 0.10866975442970278 0.9075852632628842
    outer loop
      vertex 0.007112 1.4272461E-18 0.0038862
      vertex 0.0073406 -3.799224E-18 0.0037840484
      vertex 0.006159173 0.003556 0.0038862
    endloop
  endfacet
  facet normal 0.25722723746550086 0.057749531918504286 0.9646238333511464
    outer loop
      vertex 0.0073406 -3.799224E-18 0.0037840484
      vertex 0.0073406 0.0020028576 0.0036641425
      vertex 0.006159173 0.003556 0.0038862
    endloop
  endfacet
  facet normal 0.965925825034731 -0.25881904978377124 0.0
    outer loop
      vertex -0.0056769 0.0 0.0038862
      vertex -0.0056769 0.0 0.001905
      vertex -0.0049163396 0.00283845 0.0038862
    endloop
  endfacet
  facet normal 0.965925825034731 -0.25881904978377124 0.0
    outer loop
      vertex -0.0056769 0.0 0.001905
      vertex -0.0049163396 0.00283845 0.001905
      vertex -0.0049163396 0.00283845 0.0038862
    endloop
  endfacet
  facet normal 0.7071067811865476 -0.7071067811865476 0.0
    outer loop
      vertex -0.0049163396 0.00283845 0.0038862
      vertex -0.0049163396 0.00283845 0.001905
      vertex -0.00283845 0.0049163396 0.0038862
    endloop
  endfacet
  facet normal 0.7071067811865476 -0.7071067811865476 0.0
    outer loop
      vertex -0.0049163396 0.00283845 0.001905
      vertex -0.00283845 0.0049163396 0.001905
      vertex -0.00283845 0.0049163396 0.0038862
    endloop
  endfacet
  facet normal 0.25881904978377135 -0.9659258250347309 0.0
    outer loop
      vertex -0.00283845 0.0049163396 0.0038862
      vertex -0.00283845 0.0049163396 0.001905
      vertex -1.6081349E-18 0.0056769 0.0038862
    endloop
  endfacet
  facet normal 0.25881904978377135 -0.9659258250347309 0.0
    outer loop
      vertex -0.00283845 0.0049163396 0.001905
      vertex -1.6081349E-18 0.0056769 0.001905
      vertex -1.6081349E-18 0.0056769 0.0038862
    endloop
  endfacet
  facet normal -0.25881904978377107 -0.965925825034731 -0.0
    outer loop
      vertex -1.6081349E-18 0.0056769 0.0038862
      vertex -1.6081349E-18 0.0056769 0.001905
      vertex 0.00283845 0.0049163396 0.0038862
    endloop
  endfacet
  facet normal -0.25881904978377107 -0.965925825034731 0.0
    outer loop
      vertex -1.6081349E-18 0.0056769 0.001905
      vertex 0.00283845 0.0049163396 0.001905
      vertex 0.00283845 0.0049163396 0.0038862
    endloop
  endfacet
  facet normal -0.7071067811865476 -0.7071067811865476 -0.0
    outer loop
      vertex 0.00283845 0.0049163396 0.0038862
      vertex 0.00283845 0.0049163396 0.001905
      vertex 0.0049163396 0.00283845 0.0038862
    endloop
  endfacet
  facet normal -0.7071067811865476 -0.7071067811865476 0.0
    outer loop
      vertex 0.00283845 0.0049163396 0.001905
      vertex 0.0049163396 0.00283845 0.001905
      vertex 0.0049163396 0.00283845 0.0038862
    endloop
  endfacet
  facet normal -0.965925825034731 -0.2588190497837713 -0.0
    outer loop
      vertex 0.0049163396 0.00283845 0.0038862
      vertex 0.0049163396 0.00283845 0.001905
      vertex 0.0056769 6.9521977E-19 0.0038862
    endloop
  endfacet
  facet normal -0.965925825034731 -0.2588190497837714 -1.4549045876990694E-16
    outer loop
      vertex 0.0049163396 0.00283845 0.001905
      vertex 0.0056769 2.0856592E-18 0.001905
      vertex 0.0056769 6.9521977E-19 0.0038862
    endloop
  endfacet
  facet normal -0.965925825034731 0.2588190497837711 1.8164355544845971E-16
    outer loop
      vertex 0.0056769 6.9521977E-19 0.0038862
      vertex 0.0056769 2.0856592E-18 0.001905
      vertex 0.0049163396 -0.00283845 0.0038862
    endloop
  endfacet
  facet normal -0.965925825034731 0.258819049783771 0.0
    outer loop
      vertex 0.0056769 2.0856592E-18 0.001905
      vertex 0.0049163396 -0.00283845 0.001905
      vertex 0.0049163396 -0.00283845 0.0038862
    endloop
  endfacet
  facet normal -0.7071067811865476 0.7071067811865476 0.0
    outer loop
      vertex 0.0049163396 -0.00283845 0.0038862
      vertex 0.0049163396 -0.00283845 0.001905
      vertex 0.00283845 -0.0049163396 0.0038862
    endloop
  endfacet
  facet normal -0.7071067811865476 0.7071067811865476 0.0
    outer loop
      vertex 0.0049163396 -0.00283845 0.001905
      vertex 0.00283845 -0.0049163396 0.001905
      vertex 0.00283845 -0.0049163396 0.0038862
    endloop
  endfacet
  facet normal -0.25881904978377174 0.9659258250347308 0.0
    outer loop
      vertex 0.00283845 -0.0049163396 0.0038862
      vertex 0.00283845 -0.0049163396 0.001905
      vertex 6.0849296E-18 -0.0056769 0.0038862
    endloop
  endfacet
  facet normal -0.25881904978377174 0.9659258250347308 0.0
    outer loop
      vertex 0.00283845 -0.0049163396 0.001905
      vertex 6.0849296E-18 -0.0056769 0.001905
      vertex 6.0849296E-18 -0.0056769 0.0038862
    endloop
  endfacet
  facet normal 0.2588190497837707 0.9659258250347311 0.0
    outer loop
      vertex 6.0849296E-18 -0.0056769 0.0038862
      vertex 6.0849296E-18 -0.0056769 0.001905
      vertex -0.00283845 -0.0049163396 0.0038862
    endloop
  endfacet
  facet normal 0.2588190497837707 0.9659258250347311 0.0
    outer loop
      vertex 6.0849296E-18 -0.0056769 0.001905
      vertex -0.00283845 -0.0049163396 0.001905
      vertex -0.00283845 -0.0049163396 0.0038862
    endloop
  endfacet
  facet normal 0.7071067811865476 0.7071067811865476 0.0
    outer loop
      vertex -0.00283845 -0.0049163396 0.0038862
      vertex -0.00283845 -0.0049163396 0.001905
      vertex -0.0049163396 -0.00283845 0.0038862
    endloop
  endfacet
  facet normal 0.7071067811865476 0.7071067811865476 0.0
    outer loop
      vertex -0.00283845 -0.0049163396 0.001905
      vertex -0.0049163396 -0.00283845 0.001905
      vertex -0.0049163396 -0.00283845 0.0038862
    endloop
  endfacet
  facet normal 0.965925825034731 0.25881904978377124 0.0
    outer loop
      vertex -0.0049163396 -0.00283845 0.0038862
      vertex -0.0049163396 -0.00283845 0.001905
      vertex -0.0056769 0.0 0.0038862
    endloop
  endfacet
  facet normal 0.965925825034731 0.25881904978377124 0.0
    outer loop
      vertex -0.0049163396 -0.00283845 0.001905
      vertex -0.0056769 0.0 0.001905
      vertex -0.0056769 0.0 0.0038862
    endloop
  endfacet
  facet normal 0.0 -0.0 1.0
    outer loop
      vertex 0.00283845 0.0049163396 0.0038862
      vertex 0.003556 0.006159173 0.0038862
      vertex -1.6081349E-18 0.0056769 0.0038862
    endloop
  endfacet
  facet normal 0.0 0.0 1.0
    outer loop
      vertex 0.003556 0.006159173 0.0038862
      vertex -4.354844E-19 0.007112 0.0038862
      vertex -1.6081349E-18 0.0056769 0.0038862
    endloop
  endfacet
  facet normal 0.0 -0.0 1.0
    outer loop
      vertex -1.6081349E-18 0.0056769 0.0038862
      vertex -4.354844E-19 0.007112 0.0038862
      vertex -0.00283845 0.0049163396 0.0038862
    endloop
  endfacet
  facet normal 0.0 0.0 1.0
    outer loop
      vertex -4.354844E-19 0.007112 0.0038862
      vertex -0.003556 0.006159173 0.0038862
      vertex -0.00283845 0.0049163396 0.0038862
    endloop
  endfacet
  facet normal 0.0 0.0 1.0
    outer loop
      vertex -0.00283845 0.0049163396 0.0038862
      vertex -0.003556 0.006159173 0.0038862
      vertex -0.0049163396 0.00283845 0.0038862
    endloop
  endfacet
  facet normal 0.0 0.0 1.0
    outer loop
      vertex -0.003556 0.006159173 0.0038862
      vertex -0.006159173 0.003556 0.0038862
      vertex -0.0049163396 0.00283845 0.0038862
    endloop
  endfacet
  facet normal 0.0 0.0 1.0
    outer loop
      vertex -0.0049163396 0.00283845 0.0038862
      vertex -0.006159173 0.003556 0.0038862
      vertex -0.0056769 0.0 0.0038862
    endloop
  endfacet
  facet normal 0.0 0.0 1.0
    outer loop
      vertex -0.006159173 0.003556 0.0038862
      vertex -0.007112 -4.344023E-18 0.0038862
      vertex -0.0056769 0.0 0.0038862
    endloop
  endfacet
  facet normal 0.0 0.0 1.0
    outer loop
      vertex -0.0056769 0.0 0.0038862
      vertex -0.007112 -4.344023E-18 0.0038862
      vertex -0.0049163396 -0.00283845 0.0038862
    endloop
  endfacet
  facet normal 0.0 0.0 1.0
    outer loop
      vertex -0.007112 -4.344023E-18 0.0038862
      vertex -0.006159173 -0.003556 0.0038862
      vertex -0.0049163396 -0.00283845 0.0038862
    endloop
  endfacet
  facet normal 0.0 0.0 1.0
    outer loop
      vertex -0.0049163396 -0.00283845 0.0038862
      vertex -0.006159173 -0.003556 0.0038862
      vertex -0.00283845 -0.0049163396 0.0038862
    endloop
  endfacet
  facet normal 0.0 0.0 1.0
    outer loop
      vertex -0.006159173 -0.003556 0.0038862
      vertex -0.003556 -0.006159173 0.0038862
      vertex -0.00283845 -0.0049163396 0.0038862
    endloop
  endfacet
  facet normal 0.0 0.0 1.0
    outer loop
      vertex -0.00283845 -0.0049163396 0.0038862
      vertex -0.003556 -0.006159173 0.0038862
      vertex 6.0849296E-18 -0.0056769 0.0038862
    endloop
  endfacet
  facet normal -0.0 0.0 1.0
    outer loop
      vertex -0.003556 -0.006159173 0.0038862
      vertex 1.3064532E-18 -0.007112 0.0038862
      vertex 6.0849296E-18 -0.0056769 0.0038862
    endloop
  endfacet
  facet normal -0.0 0.0 1.0
    outer loop
      vertex 6.0849296E-18 -0.0056769 0.0038862
      vertex 1.3064532E-18 -0.007112 0.0038862
      vertex 0.00283845 -0.0049163396 0.0038862
    endloop
  endfacet
  facet normal 0.0 0.0 1.0
    outer loop
      vertex 1.3064532E-18 -0.007112 0.0038862
      vertex 0.003556 -0.006159173 0.0038862
      vertex 0.00283845 -0.0049163396 0.0038862
    endloop
  endfacet
  facet normal -0.0 0.0 1.0
    outer loop
      vertex 0.00283845 -0.0049163396 0.0038862
      vertex 0.003556 -0.006159173 0.0038862
      vertex 0.0049163396 -0.00283845 0.0038862
    endloop
  endfacet
  facet normal 0.0 0.0 1.0
    outer loop
      vertex 0.003556 -0.006159173 0.0038862
      vertex 0.006159173 -0.003556 0.0038862
      vertex 0.0049163396 -0.00283845 0.0038862
    endloop
  endfacet
  facet normal -0.0 0.0 1.0
    outer loop
      vertex 0.0049163396 -0.00283845 0.0038862
      vertex 0.006159173 -0.003556 0.0038862
      vertex 0.0056769 6.9521977E-19 0.0038862
    endloop
  endfacet
  facet normal 0.0 -0.0 1.0
    outer loop
      vertex 0.006159173 -0.003556 0.0038862
      vertex 0.007112 1.4272461E-18 0.0038862
      vertex 0.0056769 6.9521977E-19 0.0038862
    endloop
  endfacet
  facet normal 0.0 -0.0 1.0
    outer loop
      vertex 0.0056769 6.9521977E-19 0.0038862
      vertex 0.007112 1.4272461E-18 0.0038862
      vertex 0.0049163396 0.00283845 0.0038862
    endloop
  endfacet
  facet normal 0.0 0.0 1.0
    outer loop
      vertex 0.007112 1.4272461E-18 0.0038862
      vertex 0.006159173 0.003556 0.0038862
      vertex 0.0049163396 0.00283845 0.0038862
    endloop
  endfacet
  facet normal 0.0 -0.0 1.0
    outer loop
      vertex 0.0049163396 0.00283845 0.0038862
      vertex 0.006159173 0.003556 0.0038862
      vertex 0.00283845 0.0049163396 0.0038862
    endloop
  endfacet
  facet normal 0.0 0.0 1.0
    outer loop
      vertex 0.006159173 0.003556 0.0038862
      vertex 0.003556 0.006159173 0.0038862
      vertex 0.00283845 0.0049163396 0.0038862
    endloop
  endfacet
  facet normal 0.0 0.0 -1.0
    outer loop
      vertex -0.0049163396 0.00283845 0.001905
      vertex -0.006159173 0.003556 0.001905
      vertex -0.00283845 0.0049163396 0.001905
    endloop
  endfacet
  facet normal 0.0 0.0 -1.0
    outer loop
      vertex -0.006159173 0.003556 0.001905
      vertex -0.003556 0.006159173 0.001905
      vertex -0.00283845 0.0049163396 0.001905
    endloop
  endfacet
  facet normal 0.0 0.0 -1.0
    outer loop
      vertex -0.00283845 0.0049163396 0.001905
      vertex -0.003556 0.006159173 0.001905
      vertex -1.6081349E-18 0.0056769 0.001905
    endloop
  endfacet
  facet normal 0.0 0.0 -1.0
    outer loop
      vertex -0.003556 0.006159173 0.001905
      vertex 4.354844E-19 0.007112 0.001905
      vertex -1.6081349E-18 0.0056769 0.001905
    endloop
  endfacet
  facet normal 0.0 0.0 -1.0
    outer loop
      vertex -1.6081349E-18 0.0056769 0.001905
      vertex 4.354844E-19 0.007112 0.001905
      vertex 0.00283845 0.0049163396 0.001905
    endloop
  endfacet
  facet normal 0.0 0.0 -1.0
    outer loop
      vertex 4.354844E-19 0.007112 0.001905
      vertex 0.003556 0.006159173 0.001905
      vertex 0.00283845 0.0049163396 0.001905
    endloop
  endfacet
  facet normal 0.0 0.0 -1.0
    outer loop
      vertex 0.00283845 0.0049163396 0.001905
      vertex 0.003556 0.006159173 0.001905
      vertex 0.0049163396 0.00283845 0.001905
    endloop
  endfacet
  facet normal 0.0 0.0 -1.0
    outer loop
      vertex 0.003556 0.006159173 0.001905
      vertex 0.006159173 0.003556 0.001905
      vertex 0.0049163396 0.00283845 0.001905
    endloop
  endfacet
  facet normal 0.0 0.0 -1.0
    outer loop
      vertex 0.0049163396 0.00283845 0.001905
      vertex 0.006159173 0.003556 0.001905
      vertex 0.0056769 2.0856592E-18 0.001905
    endloop
  endfacet
  facet normal 0.0 -0.0 -1.0
    outer loop
      vertex 0.006159173 0.003556 0.001905
      vertex 0.007112 -2.6020852E-18 0.001905
      vertex 0.0056769 2.0856592E-18 0.001905
    endloop
  endfacet
  facet normal 0.0 -0.0 -1.0
    outer loop
      vertex 0.0056769 2.0856592E-18 0.001905
      vertex 0.007112 -2.6020852E-18 0.001905
      vertex 0.0049163396 -0.00283845 0.001905
    endloop
  endfacet
  facet normal 0.0 0.0 -1.0
    outer loop
      vertex 0.007112 -2.6020852E-18 0.001905
      vertex 0.006159173 -0.003556 0.001905
      vertex 0.0049163396 -0.00283845 0.001905
    endloop
  endfacet
  facet normal 0.0 -0.0 -1.0
    outer loop
      vertex 0.0049163396 -0.00283845 0.001905
      vertex 0.006159173 -0.003556 0.001905
      vertex 0.00283845 -0.0049163396 0.001905
    endloop
  endfacet
  facet normal 0.0 0.0 -1.0
    outer loop
      vertex 0.006159173 -0.003556 0.001905
      vertex 0.003556 -0.006159173 0.001905
      vertex 0.00283845 -0.0049163396 0.001905
    endloop
  endfacet
  facet normal 0.0 -0.0 -1.0
    outer loop
      vertex 0.00283845 -0.0049163396 0.001905
      vertex 0.003556 -0.006159173 0.001905
      vertex 6.0849296E-18 -0.0056769 0.001905
    endloop
  endfacet
  facet normal -0.0 0.0 -1.0
    outer loop
      vertex 0.003556 -0.006159173 0.001905
      vertex -1.3064532E-18 -0.007112 0.001905
      vertex 6.0849296E-18 -0.0056769 0.001905
    endloop
  endfacet
  facet normal -0.0 0.0 -1.0
    outer loop
      vertex 6.0849296E-18 -0.0056769 0.001905
      vertex -1.3064532E-18 -0.007112 0.001905
      vertex -0.00283845 -0.0049163396 0.001905
    endloop
  endfacet
  facet normal 0.0 0.0 -1.0
    outer loop
      vertex -1.3064532E-18 -0.007112 0.001905
      vertex -0.003556 -0.006159173 0.001905
      vertex -0.00283845 -0.0049163396 0.001905
    endloop
  endfacet
  facet normal -0.0 0.0 -1.0
    outer loop
      vertex -0.00283845 -0.0049163396 0.001905
      vertex -0.003556 -0.006159173 0.001905
      vertex -0.0049163396 -0.00283845 0.001905
    endloop
  endfacet
  facet normal 0.0 0.0 -1.0
    outer loop
      vertex -0.003556 -0.006159173 0.001905
      vertex -0.006159173 -0.003556 0.001905
      vertex -0.0049163396 -0.00283845 0.001905
    endloop
  endfacet
  facet normal -0.0 0.0 -1.0
    outer loop
      vertex -0.0049163396 -0.00283845 0.001905
      vertex -0.006159173 -0.003556 0.001905
      vertex -0.0056769 0.0 0.001905
    endloop
  endfacet
  facet normal 0.0 0.0 -1.0
    outer loop
      vertex -0.006159173 -0.003556 0.001905
      vertex -0.007112 1.0821197E-20 0.001905
      vertex -0.0056769 0.0 0.001905
    endloop
  endfacet
  facet normal 0.0 0.0 -1.0
    outer loop
      vertex -0.0056769 0.0 0.001905
      vertex -0.007112 1.0821197E-20 0.001905
      vertex -0.0049163396 0.00283845 0.001905
    endloop
  endfacet
  facet normal 0.0 0.0 -1.0
    outer loop
      vertex -0.007112 1.0821197E-20 0.001905
      vertex -0.006159173 0.003556 0.001905
      vertex -0.0049163396 0.00283845 0.001905
    endloop
  endfacet
  facet normal 0.5000000543274399 -0.8660253724184743 -6.971904563305646E-15
    outer loop
      vertex 5.421011E-18 -0.008476195 0.0032766
      vertex -5.2041704E-18 -0.008476195 0.0025146
      vertex 0.0036703 -0.006357146 0.0037840484
    endloop
  endfacet
  facet normal 0.500000054327438 -0.8660253724184754 0.0
    outer loop
      vertex -5.2041704E-18 -0.008476195 0.0025146
      vertex 0.0036703 -0.006357146 0.0020071515
      vertex 0.0036703 -0.006357146 0.0037840484
    endloop
  endfacet
  facet normal 0.499999965844339 -0.8660254235042177 0.0
    outer loop
      vertex 0.0036703 -0.006357146 0.0037840484
      vertex 0.0036703 -0.006357146 0.0020071515
      vertex 0.0073406 -0.0042380975 0.0032766
    endloop
  endfacet
  facet normal 0.49999996584433903 -0.866025423504218 0.0
    outer loop
      vertex 0.0036703 -0.006357146 0.0020071515
      vertex 0.0073406 -0.0042380975 0.0025146
      vertex 0.0073406 -0.0042380975 0.0032766
    endloop
  endfacet
  facet normal -0.5000000543274399 -0.8660253724184743 6.971904563305646E-15
    outer loop
      vertex -5.2041704E-18 -0.008476195 0.0025146
      vertex 5.421011E-18 -0.008476195 0.0032766
      vertex -0.0036703 -0.006357146 0.0020071515
    endloop
  endfacet
  facet normal -0.500000054327438 -0.8660253724184754 0.0
    outer loop
      vertex 5.421011E-18 -0.008476195 0.0032766
      vertex -0.0036703 -0.006357146 0.0037840484
      vertex -0.0036703 -0.006357146 0.0020071515
    endloop
  endfacet
  facet normal -0.499999965844339 -0.8660254235042177 0.0
    outer loop
      vertex -0.0036703 -0.006357146 0.0020071515
      vertex -0.0036703 -0.006357146 0.0037840484
      vertex -0.0073406 -0.0042380975 0.0025146
    endloop
  endfacet
  facet normal -0.49999996584433903 -0.8660254235042179 0.0
    outer loop
      vertex -0.0036703 -0.006357146 0.0037840484
      vertex -0.0073406 -0.0042380975 0.0032766
      vertex -0.0073406 -0.0042380975 0.0025146
    endloop
  endfacet
  facet normal -1.0 -0.0 -0.0
    outer loop
      vertex -0.0073406 0.0042380975 0.0032766
      vertex -0.0073406 0.0042380975 0.0025146
      vertex -0.0073406 2.6020852E-18 0.0037840484
    endloop
  endfacet
  facet normal -1.0 -0.0 0.0
    outer loop
      vertex -0.0073406 0.0042380975 0.0025146
      vertex -0.0073406 0.0020028576 0.0021270576
      vertex -0.0073406 2.6020852E-18 0.0037840484
    endloop
  endfacet
  facet normal -1.0 0.0 0.0
    outer loop
      vertex -0.0073406 -0.0042380975 0.0025146
      vertex -0.0073406 -0.0042380975 0.0032766
      vertex -0.0073406 -0.0020028576 0.0021270576
    endloop
  endfacet
  facet normal -1.0 0.0 0.0
    outer loop
      vertex -0.0073406 -0.0042380975 0.0032766
      vertex -0.0073406 2.6020852E-18 0.0037840484
      vertex -0.0073406 -0.0020028576 0.0021270576
    endloop
  endfacet
  facet normal -1.0 0.0 0.0
    outer loop
      vertex -0.0073406 -0.0020028576 0.0021270576
      vertex -0.0073406 2.6020852E-18 0.0037840484
      vertex -0.0073406 -4.8707025E-18 0.0020071515
    endloop
  endfacet
  facet normal -1.0 0.0 -0.0
    outer loop
      vertex -0.0073406 2.6020852E-18 0.0037840484
      vertex -0.0073406 0.0020028576 0.0021270576
      vertex -0.0073406 -4.8707025E-18 0.0020071515
    endloop
  endfacet
  facet normal -0.5000000543274381 0.8660253724184753 0.0
    outer loop
      vertex 4.3368087E-18 0.008476195 0.0032766
      vertex 4.3368087E-18 0.008476195 0.0025146
      vertex -0.0036703 0.006357146 0.0037840484
    endloop
  endfacet
  facet normal -0.5000000543274381 0.8660253724184754 0.0
    outer loop
      vertex 4.3368087E-18 0.008476195 0.0025146
      vertex -0.0036703 0.006357146 0.0020071515
      vertex -0.0036703 0.006357146 0.0037840484
    endloop
  endfacet
  facet normal -0.499999965844339 0.8660254235042177 0.0
    outer loop
      vertex -0.0036703 0.006357146 0.0037840484
      vertex -0.0036703 0.006357146 0.0020071515
      vertex -0.0073406 0.0042380975 0.0032766
    endloop
  endfacet
  facet normal -0.49999996584433903 0.866025423504218 0.0
    outer loop
      vertex -0.0036703 0.006357146 0.0020071515
      vertex -0.0073406 0.0042380975 0.0025146
      vertex -0.0073406 0.0042380975 0.0032766
    endloop
  endfacet
  facet normal 0.49999996584433903 0.866025423504218 0.0
    outer loop
      vertex 0.0073406 0.0042380975 0.0032766
      vertex 0.0073406 0.0042380975 0.0025146
      vertex 0.0036703 0.006357146 0.0037840484
    endloop
  endfacet
  facet normal 0.499999965844339 0.8660254235042177 0.0
    outer loop
      vertex 0.0073406 0.0042380975 0.0025146
      vertex 0.0036703 0.006357146 0.0020071515
      vertex 0.0036703 0.006357146 0.0037840484
    endloop
  endfacet
  facet normal 0.500000054327439 0.8660253724184749 0.0
    outer loop
      vertex 0.0036703 0.006357146 0.0037840484
      vertex 0.0036703 0.006357146 0.0020071515
      vertex 4.3368087E-18 0.008476195 0.0032766
    endloop
  endfacet
  facet normal 0.500000054327439 0.8660253724184749 0.0
    outer loop
      vertex 0.0036703 0.006357146 0.0020071515
      vertex 4.3368087E-18 0.008476195 0.0025146
      vertex 4.3368087E-18 0.008476195 0.0032766
    endloop
  endfacet
  facet normal 1.0 0.0 -0.0
    outer loop
      vertex 0.0073406 0.0042380975 0.0025146
      vertex 0.0073406 0.0042380975 0.0032766
      vertex 0.0073406 -8.673617E-18 0.0020071515
    endloop
  endfacet
  facet normal 1.0 0.0 0.0
    outer loop
      vertex 0.0073406 0.0042380975 0.0032766
      vertex 0.0073406 0.0020028576 0.0036641425
      vertex 0.0073406 -8.673617E-18 0.0020071515
    endloop
  endfacet
  facet normal 1.0 -0.0 0.0
    outer loop
      vertex 0.0073406 -0.0042380975 0.0032766
      vertex 0.0073406 -0.0042380975 0.0025146
      vertex 0.0073406 -0.0020028576 0.0036641425
    endloop
  endfacet
  facet normal 1.0 -0.0 0.0
    outer loop
      vertex 0.0073406 -0.0042380975 0.0025146
      vertex 0.0073406 -8.673617E-18 0.0020071515
      vertex 0.0073406 -0.0020028576 0.0036641425
    endloop
  endfacet
  facet normal 1.0 -0.0 0.0
    outer loop
      vertex 0.0073406 -0.0020028576 0.0036641425
      vertex 0.0073406 -8.673617E-18 0.0020071515
      vertex 0.0073406 -3.799224E-18 0.0037840484
    endloop
  endfacet
  facet normal 1.0 0.0 0.0
    outer loop
      vertex 0.0073406 -8.673617E-18 0.0020071515
      vertex 0.0073406 0.0020028576 0.0036641425
      vertex 0.0073406 -3.799224E-18 0.0037840484
    endloop
  endfacet
endsolid toggle_switchSTEP_Switch_12V_LED_CLOSED_OFF_8
