solid toggle_switchSTEP_Switch_12V_LED_CLOSED_OFF_4
  facet normal -0.9225958246930436 -0.3726232679626122 0.09984410063607102
    outer loop
      vertex -0.005622836 -0.001256269 0.007112
      vertex -0.0055780974 -0.0011838909 0.0077955197
      vertex -0.005622836 -0.0010879609 0.0077401344
    endloop
  endfacet
  facet normal -0.9225958818708135 -0.2727791105831551 0.27277902335861265
    outer loop
      vertex -0.0055780974 -0.0011838909 0.0077955197
      vertex -0.0055780974 -6.8351976E-4 0.008295891
      vertex -0.005622836 -0.0010879609 0.0077401344
    endloop
  endfacet
  facet normal -0.9225958316938911 -0.2727792111474813 0.27277909250310045
    outer loop
      vertex -0.005622836 -0.0010879609 0.0077401344
      vertex -0.0055780974 -6.8351976E-4 0.008295891
      vertex -0.005622836 -6.281345E-4 0.008199961
    endloop
  endfacet
  facet normal -0.9225957831849085 -0.09984384046348309 0.3726234404474947
    outer loop
      vertex -0.0055780974 -6.8351976E-4 0.008295891
      vertex -0.0055780974 -1.04368E-18 0.008479039
      vertex -0.005622836 -6.281345E-4 0.008199961
    endloop
  endfacet
  facet normal -0.9225952788754689 -0.09984436831019872 0.3726245476527725
    outer loop
      vertex -0.005622836 -6.281345E-4 0.008199961
      vertex -0.0055780974 -1.04368E-18 0.008479039
      vertex -0.005622836 -7.4414853E-19 0.008368269
    endloop
  endfacet
  facet normal -0.9225953001701522 0.09984413944185419 0.3726245562534259
    outer loop
      vertex -0.0055780974 -1.04368E-18 0.008479039
      vertex -0.0055780974 6.8351976E-4 0.008295891
      vertex -0.005622836 -7.4414853E-19 0.008368269
    endloop
  endfacet
  facet normal -0.9225958044795857 0.09984404296899477 0.37262333346191806
    outer loop
      vertex -0.005622836 -7.4414853E-19 0.008368269
      vertex -0.0055780974 6.8351976E-4 0.008295891
      vertex -0.005622836 6.281345E-4 0.008199961
    endloop
  endfacet
  facet normal -0.9225958338126345 0.2727791918545628 0.27277910462999433
    outer loop
      vertex -0.0055780974 6.8351976E-4 0.008295891
      vertex -0.0055780974 0.0011838909 0.0077955197
      vertex -0.005622836 6.281345E-4 0.008199961
    endloop
  endfacet
  facet normal -0.9225958839895501 0.2727791227100474 0.272779004065705
    outer loop
      vertex -0.005622836 6.281345E-4 0.008199961
      vertex -0.0055780974 0.0011838909 0.0077955197
      vertex -0.005622836 0.0010879609 0.0077401344
    endloop
  endfacet
  facet normal -0.9225958274074211 0.37262325432541593 0.09984412644894348
    outer loop
      vertex -0.0055780974 0.0011838909 0.0077955197
      vertex -0.0055780974 0.0013670395 0.007112
      vertex -0.005622836 0.0010879609 0.0077401344
    endloop
  endfacet
  facet normal -0.9225958916901327 0.37262311319320807 0.09984405916573545
    outer loop
      vertex -0.005622836 0.0010879609 0.0077401344
      vertex -0.0055780974 0.0013670395 0.007112
      vertex -0.005622836 0.001256269 0.007112
    endloop
  endfacet
  facet normal -0.9225958930124613 0.37262311372727747 -0.09984404495375648
    outer loop
      vertex -0.0055780974 0.0013670395 0.007112
      vertex -0.0055780974 0.0011838909 0.00642848
      vertex -0.005622836 0.001256269 0.007112
    endloop
  endfacet
  facet normal -0.9225958549763943 0.3726232059529762 -0.09984405222997439
    outer loop
      vertex -0.005622836 0.001256269 0.007112
      vertex -0.0055780974 0.0011838909 0.00642848
      vertex -0.005622836 0.0010879609 0.0064838654
    endloop
  endfacet
  facet normal -0.9225959615785637 0.2727788940159712 -0.2727789703374308
    outer loop
      vertex -0.0055780974 0.0011838909 0.00642848
      vertex -0.0055780974 6.8351976E-4 0.005928109
      vertex -0.005622836 0.0010879609 0.0064838654
    endloop
  endfacet
  facet normal -0.9225958396944779 0.27277913829547273 -0.27277913829547273
    outer loop
      vertex -0.005622836 0.0010879609 0.0064838654
      vertex -0.0055780974 6.8351976E-4 0.005928109
      vertex -0.005622836 6.281345E-4 0.006024039
    endloop
  endfacet
  facet normal -0.9225958032718875 0.09984403148415039 -0.37262333952946775
    outer loop
      vertex -0.0055780974 6.8351976E-4 0.005928109
      vertex -0.0055780974 4.7403865E-19 0.0057449606
      vertex -0.005622836 6.281345E-4 0.006024039
    endloop
  endfacet
  facet normal -0.9225957746707423 0.09984406142026331 -0.37262340232304164
    outer loop
      vertex -0.005622836 6.281345E-4 0.006024039
      vertex -0.0055780974 4.7403865E-19 0.0057449606
      vertex -0.005622836 -4.3645136E-19 0.005855731
    endloop
  endfacet
  facet normal -0.9225957758784377 -0.09984404844032044 -0.37262340281081424
    outer loop
      vertex -0.0055780974 4.7403865E-19 0.0057449606
      vertex -0.0055780974 -6.8351976E-4 0.005928109
      vertex -0.005622836 -4.3645136E-19 0.005855731
    endloop
  endfacet
  facet normal -0.9225958044795868 -0.09984404296899471 -0.37262333346191523
    outer loop
      vertex -0.005622836 -4.3645136E-19 0.005855731
      vertex -0.0055780974 -6.8351976E-4 0.005928109
      vertex -0.005622836 -6.281345E-4 0.006024039
    endloop
  endfacet
  facet normal -0.9225958448410885 -0.2727790914312584 -0.27277916775277317
    outer loop
      vertex -0.0055780974 -6.8351976E-4 0.005928109
      vertex -0.0055780974 -0.0011838909 0.00642848
      vertex -0.005622836 -6.281345E-4 0.006024039
    endloop
  endfacet
  facet normal -0.9225959667251473 -0.27277892347328697 -0.27277892347328697
    outer loop
      vertex -0.005622836 -6.281345E-4 0.006024039
      vertex -0.0055780974 -0.0011838909 0.00642848
      vertex -0.005622836 -0.0010879609 0.0064838654
    endloop
  endfacet
  facet normal -0.9225958565824955 -0.37262319788384185 -0.09984406750343601
    outer loop
      vertex -0.0055780974 -0.0011838909 0.00642848
      vertex -0.0055780974 -0.0013670395 0.007112
      vertex -0.005622836 -0.0010879609 0.0064838654
    endloop
  endfacet
  facet normal -0.9225958946185514 -0.372623114375954 -0.09984402769199383
    outer loop
      vertex -0.005622836 -0.0010879609 0.0064838654
      vertex -0.0055780974 -0.0013670395 0.007112
      vertex -0.005622836 -0.001256269 0.007112
    endloop
  endfacet
  facet normal -0.9225958889757641 -0.37262311209691396 0.09984408833892117
    outer loop
      vertex -0.0055780974 -0.0013670395 0.007112
      vertex -0.0055780974 -0.0011838909 0.0077955197
      vertex -0.005622836 -0.001256269 0.007112
    endloop
  endfacet
  facet normal -0.6404346444337281 -0.7418432628440251 0.19877635569145308
    outer loop
      vertex -0.0055780974 -0.0013670395 0.007112
      vertex -0.0054876693 -0.0012514987 0.007834553
      vertex -0.0055780974 -0.0011838909 0.0077955197
    endloop
  endfacet
  facet normal -0.6404343972481805 -0.5430668070054616 0.5430674230242982
    outer loop
      vertex -0.0054876693 -0.0012514987 0.007834553
      vertex -0.0054876693 -7.225531E-4 0.008363498
      vertex -0.0055780974 -0.0011838909 0.0077955197
    endloop
  endfacet
  facet normal -0.6404317463036635 -0.5430687649540825 0.5430685913010325
    outer loop
      vertex -0.0055780974 -0.0011838909 0.0077955197
      vertex -0.0054876693 -7.225531E-4 0.008363498
      vertex -0.0055780974 -6.8351976E-4 0.008295891
    endloop
  endfacet
  facet normal -0.6404308812652539 -0.19877757904508053 0.7418461837812385
    outer loop
      vertex -0.0054876693 -7.225531E-4 0.008363498
      vertex -0.0054876693 -1.059337E-18 0.008557106
      vertex -0.0055780974 -6.8351976E-4 0.008295891
    endloop
  endfacet
  facet normal -0.6404359684260631 -0.1987754460854272 0.741842363565003
    outer loop
      vertex -0.0055780974 -6.8351976E-4 0.008295891
      vertex -0.0054876693 -1.059337E-18 0.008557106
      vertex -0.0055780974 -1.04368E-18 0.008479039
    endloop
  endfacet
  facet normal -0.6404358272043246 0.19877651158671414 0.7418421999822667
    outer loop
      vertex -0.0054876693 -1.059337E-18 0.008557106
      vertex -0.0054876693 7.225531E-4 0.008363498
      vertex -0.0055780974 -1.04368E-18 0.008479039
    endloop
  endfacet
  facet normal -0.6404307400403555 0.1987765744970231 0.7418465748674669
    outer loop
      vertex -0.0055780974 -1.04368E-18 0.008479039
      vertex -0.0054876693 7.225531E-4 0.008363498
      vertex -0.0055780974 6.8351976E-4 0.008295891
    endloop
  endfacet
  facet normal -0.6404318198937389 0.5430683267254242 0.5430689427459847
    outer loop
      vertex -0.0054876693 7.225531E-4 0.008363498
      vertex -0.0054876693 0.0012514987 0.007834553
      vertex -0.0055780974 6.8351976E-4 0.008295891
    endloop
  endfacet
  facet normal -0.6404344708398957 0.5430671584481848 0.5430669847956484
    outer loop
      vertex -0.0055780974 6.8351976E-4 0.008295891
      vertex -0.0054876693 0.0012514987 0.007834553
      vertex -0.0055780974 0.0011838909 0.0077955197
    endloop
  endfacet
  facet normal -0.6404346386860821 0.7418432787609479 0.198776314806956
    outer loop
      vertex -0.0054876693 0.0012514987 0.007834553
      vertex -0.0054876693 0.0014451062 0.007112
      vertex -0.0055780974 0.0011838909 0.0077955197
    endloop
  endfacet
  facet normal -0.6404344316416586 0.7418434342419333 0.1987764016173963
    outer loop
      vertex -0.0055780974 0.0011838909 0.0077955197
      vertex -0.0054876693 0.0014451062 0.007112
      vertex -0.0055780974 0.0013670395 0.007112
    endloop
  endfacet
  facet normal -0.6404344373893277 0.7418434408997118 -0.19877635825190823
    outer loop
      vertex -0.0054876693 0.0014451062 0.007112
      vertex -0.0054876693 0.0012514987 0.006389447
      vertex -0.0055780974 0.0013670395 0.007112
    endloop
  endfacet
  facet normal -0.6404342443543444 0.7418436069073823 -0.1987763606390996
    outer loop
      vertex -0.0055780974 0.0013670395 0.007112
      vertex -0.0054876693 0.0012514987 0.006389447
      vertex -0.0055780974 0.0011838909 0.00642848
    endloop
  endfacet
  facet normal -0.6404333919607794 0.5430677077775897 -0.5430677077775892
    outer loop
      vertex -0.0054876693 0.0012514987 0.006389447
      vertex -0.0054876693 7.225531E-4 0.0058605014
      vertex -0.0055780974 0.0011838909 0.00642848
    endloop
  endfacet
  facet normal -0.640433902046193 0.5430673310354478 -0.5430674829815562
    outer loop
      vertex -0.0055780974 0.0011838909 0.00642848
      vertex -0.0054876693 7.225531E-4 0.0058605014
      vertex -0.0055780974 6.8351976E-4 0.005928109
    endloop
  endfacet
  facet normal -0.6404337061978267 0.1987763946016919 -0.7418440623977981
    outer loop
      vertex -0.0054876693 7.225531E-4 0.0058605014
      vertex -0.0054876693 5.4505314E-19 0.005666894
      vertex -0.0055780974 6.8351976E-4 0.005928109
    endloop
  endfacet
  facet normal -0.6404339776066402 0.19877628080451923 -0.7418438585824244
    outer loop
      vertex -0.0055780974 6.8351976E-4 0.005928109
      vertex -0.0054876693 5.4505314E-19 0.005666894
      vertex -0.0055780974 4.7403865E-19 0.0057449606
    endloop
  endfacet
  facet normal -0.6404339700722007 -0.1987763376510397 -0.7418438498549403
    outer loop
      vertex -0.0054876693 5.4505314E-19 0.005666894
      vertex -0.0054876693 -7.225531E-4 0.0058605014
      vertex -0.0055780974 4.7403865E-19 0.0057449606
    endloop
  endfacet
  facet normal -0.6404336986633499 -0.19877634100740108 -0.741844083262845
    outer loop
      vertex -0.0055780974 4.7403865E-19 0.0057449606
      vertex -0.0054876693 -7.225531E-4 0.0058605014
      vertex -0.0055780974 -6.8351976E-4 0.005928109
    endloop
  endfacet
  facet normal -0.6404338878860204 -0.5430674153579814 -0.543067415357981
    outer loop
      vertex -0.0054876693 -7.225531E-4 0.0058605014
      vertex -0.0054876693 -0.0012514987 0.006389447
      vertex -0.0055780974 -6.8351976E-4 0.005928109
    endloop
  endfacet
  facet normal -0.6404333778003082 -0.5430676401541256 -0.5430677921003203
    outer loop
      vertex -0.0055780974 -6.8351976E-4 0.005928109
      vertex -0.0054876693 -0.0012514987 0.006389447
      vertex -0.0055780974 -0.0011838909 0.00642848
    endloop
  endfacet
  facet normal -0.6404342497130102 -0.7418435920675266 -0.19877639875720365
    outer loop
      vertex -0.0054876693 -0.0012514987 0.006389447
      vertex -0.0054876693 -0.0014451062 0.007112
      vertex -0.0055780974 -0.0011838909 0.00642848
    endloop
  endfacet
  facet normal -0.640434442748083 -0.7418434471069942 -0.19877631782072214
    outer loop
      vertex -0.0055780974 -0.0011838909 0.00642848
      vertex -0.0054876693 -0.0014451062 0.007112
      vertex -0.0055780974 -0.0013670395 0.007112
    endloop
  endfacet
  facet normal -0.6404344373893277 -0.7418434408997118 0.19877635825190848
    outer loop
      vertex -0.0054876693 -0.0014451062 0.007112
      vertex -0.0054876693 -0.0012514987 0.007834553
      vertex -0.0055780974 -0.0013670395 0.007112
    endloop
  endfacet
  facet normal -0.22757426901605887 -0.9405806318273785 0.2520278300367163
    outer loop
      vertex -0.0054876693 -0.0014451062 0.007112
      vertex -0.0053715557 -0.0012758286 0.0078486
      vertex -0.0054876693 -0.0012514987 0.007834553
    endloop
  endfacet
  facet normal -0.22757468435276915 -0.6885523611053677 0.6885531272588635
    outer loop
      vertex -0.0053715557 -0.0012758286 0.0078486
      vertex -0.0053715557 -7.366E-4 0.008387828
      vertex -0.0054876693 -0.0012514987 0.007834553
    endloop
  endfacet
  facet normal -0.22757474931455898 -0.6885523429228245 0.6885531239707687
    outer loop
      vertex -0.0054876693 -0.0012514987 0.007834553
      vertex -0.0053715557 -7.366E-4 0.008387828
      vertex -0.0054876693 -7.225531E-4 0.008363498
    endloop
  endfacet
  facet normal -0.22757487653200786 -0.2520285290340458 0.9405802975420954
    outer loop
      vertex -0.0053715557 -7.366E-4 0.008387828
      vertex -0.0053715557 -7.4072876E-19 0.0085852
      vertex -0.0054876693 -7.225531E-4 0.008363498
    endloop
  endfacet
  facet normal -0.22757590472090738 -0.2520283058250695 0.9405801085784271
    outer loop
      vertex -0.0054876693 -7.225531E-4 0.008363498
      vertex -0.0053715557 -7.4072876E-19 0.0085852
      vertex -0.0054876693 -1.059337E-18 0.008557106
    endloop
  endfacet
  facet normal -0.22757589482270238 0.25202846743947394 0.9405800676687532
    outer loop
      vertex -0.0053715557 -7.4072876E-19 0.0085852
      vertex -0.0053715557 7.366E-4 0.008387828
      vertex -0.0054876693 -1.059337E-18 0.008557106
    endloop
  endfacet
  facet normal -0.22757486663393653 0.2520283686170412 0.9405803429206773
    outer loop
      vertex -0.0054876693 -1.059337E-18 0.008557106
      vertex -0.0053715557 7.366E-4 0.008387828
      vertex -0.0054876693 7.225531E-4 0.008363498
    endloop
  endfacet
  facet normal -0.2275747486891857 0.6885523504734052 0.6885531166268892
    outer loop
      vertex -0.0053715557 7.366E-4 0.008387828
      vertex -0.0053715557 0.0012758286 0.0078486
      vertex -0.0054876693 7.225531E-4 0.008363498
    endloop
  endfacet
  facet normal -0.2275746837274051 0.6885523537614783 0.6885531348094348
    outer loop
      vertex -0.0054876693 7.225531E-4 0.008363498
      vertex -0.0053715557 0.0012758286 0.0078486
      vertex -0.0054876693 0.0012514987 0.007834553
    endloop
  endfacet
  facet normal -0.22757427030174815 0.9405806259331481 0.25202785087333907
    outer loop
      vertex -0.0053715557 0.0012758286 0.0078486
      vertex -0.0053715557 0.0014732 0.007112
      vertex -0.0054876693 0.0012514987 0.007834553
    endloop
  endfacet
  facet normal -0.2275744038535888 0.9405806013887132 0.2520278218807003
    outer loop
      vertex -0.0054876693 0.0012514987 0.007834553
      vertex -0.0053715557 0.0014732 0.007112
      vertex -0.0054876693 0.0014451062 0.007112
    endloop
  endfacet
  facet normal -0.2275744025679187 0.9405805960749503 -0.25202784287285807
    outer loop
      vertex -0.0053715557 0.0014732 0.007112
      vertex -0.0053715557 0.0012758286 0.0063754
      vertex -0.0054876693 0.0014451062 0.007112
    endloop
  endfacet
  facet normal -0.22757426901605726 0.9405806318273789 -0.2520278300367162
    outer loop
      vertex -0.0054876693 0.0014451062 0.007112
      vertex -0.0053715557 0.0012758286 0.0063754
      vertex -0.0054876693 0.0012514987 0.006389447
    endloop
  endfacet
  facet normal -0.2275747057980658 0.6885526129460493 -0.6885528683304513
    outer loop
      vertex -0.0053715557 0.0012758286 0.0063754
      vertex -0.0053715557 7.366E-4 0.0058361716
      vertex -0.0054876693 0.0012514987 0.006389447
    endloop
  endfacet
  facet normal -0.22757359194496504 0.6885529247085032 -0.6885529247085024
    outer loop
      vertex -0.0054876693 0.0012514987 0.006389447
      vertex -0.0053715557 7.366E-4 0.0058361716
      vertex -0.0054876693 7.225531E-4 0.0058605014
    endloop
  endfacet
  facet normal -0.22757331103798376 0.25202814717376903 -0.9405807786338004
    outer loop
      vertex -0.0053715557 7.366E-4 0.0058361716
      vertex -0.0053715557 -3.7989885E-19 0.0056388
      vertex -0.0054876693 7.225531E-4 0.0058605014
    endloop
  endfacet
  facet normal -0.22757594951825588 0.2520275743884324 -0.9405802937276262
    outer loop
      vertex -0.0054876693 7.225531E-4 0.0058605014
      vertex -0.0053715557 -3.7989885E-19 0.0056388
      vertex -0.0054876693 5.4505314E-19 0.005666894
    endloop
  endfacet
  facet normal -0.22757592411811148 -0.25202798911411683 -0.9405801887478187
    outer loop
      vertex -0.0053715557 -3.7989885E-19 0.0056388
      vertex -0.0053715557 -7.366E-4 0.0058361716
      vertex -0.0054876693 5.4505314E-19 0.005666894
    endloop
  endfacet
  facet normal -0.22757328563784968 -0.25202773552062097 -0.9405808950815139
    outer loop
      vertex -0.0054876693 5.4505314E-19 0.005666894
      vertex -0.0053715557 -7.366E-4 0.0058361716
      vertex -0.0054876693 -7.225531E-4 0.0058605014
    endloop
  endfacet
  facet normal -0.22757360266759977 -0.6885527952442875 -0.6885530506287572
    outer loop
      vertex -0.0053715557 -7.366E-4 0.0058361716
      vertex -0.0053715557 -0.0012758286 0.0063754
      vertex -0.0054876693 -7.225531E-4 0.0058605014
    endloop
  endfacet
  facet normal -0.2275747165206993 -0.6885527388662848 -0.6885527388662841
    outer loop
      vertex -0.0054876693 -7.225531E-4 0.0058605014
      vertex -0.0053715557 -0.0012758286 0.0063754
      vertex -0.0054876693 -0.0012514987 0.006389447
    endloop
  endfacet
  facet normal -0.22757427030174637 -0.9405806259331485 -0.2520278508733392
    outer loop
      vertex -0.0053715557 -0.0012758286 0.0063754
      vertex -0.0053715557 -0.0014732 0.007112
      vertex -0.0054876693 -0.0012514987 0.006389447
    endloop
  endfacet
  facet normal -0.22757440385358915 -0.9405806013887134 -0.2520278218807
    outer loop
      vertex -0.0054876693 -0.0012514987 0.006389447
      vertex -0.0053715557 -0.0014732 0.007112
      vertex -0.0054876693 -0.0014451062 0.007112
    endloop
  endfacet
  facet normal -0.2275744025679187 -0.9405805960749503 0.25202784287285807
    outer loop
      vertex -0.0053715557 -0.0014732 0.007112
      vertex -0.0053715557 -0.0012758286 0.0078486
      vertex -0.0054876693 -0.0014451062 0.007112
    endloop
  endfacet
  facet normal 0.0 -0.9659258181407129 0.2588190755125953
    outer loop
      vertex -0.0053715557 -0.0014732 0.007112
      vertex -0.00508 -0.0012758286 0.0078486
      vertex -0.0053715557 -0.0012758286 0.0078486
    endloop
  endfacet
  facet normal 0.0 -0.7071063877871401 0.707107174585736
    outer loop
      vertex -0.00508 -0.0012758286 0.0078486
      vertex -0.00508 -7.366E-4 0.008387828
      vertex -0.0053715557 -0.0012758286 0.0078486
    endloop
  endfacet
  facet normal 0.0 -0.7071063877871401 0.707107174585736
    outer loop
      vertex -0.0053715557 -0.0012758286 0.0078486
      vertex -0.00508 -7.366E-4 0.008387828
      vertex -0.0053715557 -7.366E-4 0.008387828
    endloop
  endfacet
  facet normal 0.0 -0.25881980960499296 0.965925621440924
    outer loop
      vertex -0.00508 -7.366E-4 0.008387828
      vertex -0.00508 -1.1095545E-18 0.0085852
      vertex -0.0053715557 -7.366E-4 0.008387828
    endloop
  endfacet
  facet normal -3.571593426501869E-16 -0.25881980960499285 0.965925621440924
    outer loop
      vertex -0.0053715557 -7.366E-4 0.008387828
      vertex -0.00508 -1.1095545E-18 0.0085852
      vertex -0.0053715557 -7.4072876E-19 0.0085852
    endloop
  endfacet
  facet normal 3.27413965167618E-16 0.25881980960499223 0.9659256214409242
    outer loop
      vertex -0.00508 -1.1095545E-18 0.0085852
      vertex -0.00508 7.366E-4 0.008387828
      vertex -0.0053715557 -7.4072876E-19 0.0085852
    endloop
  endfacet
  facet normal 0.0 0.2588198096049924 0.9659256214409242
    outer loop
      vertex -0.0053715557 -7.4072876E-19 0.0085852
      vertex -0.00508 7.366E-4 0.008387828
      vertex -0.0053715557 7.366E-4 0.008387828
    endloop
  endfacet
  facet normal 0.0 0.7071063877871401 0.707107174585736
    outer loop
      vertex -0.00508 7.366E-4 0.008387828
      vertex -0.00508 0.0012758286 0.0078486
      vertex -0.0053715557 7.366E-4 0.008387828
    endloop
  endfacet
  facet normal 0.0 0.7071063877871401 0.707107174585736
    outer loop
      vertex -0.0053715557 7.366E-4 0.008387828
      vertex -0.00508 0.0012758286 0.0078486
      vertex -0.0053715557 0.0012758286 0.0078486
    endloop
  endfacet
  facet normal 0.0 0.9659258181407129 0.2588190755125953
    outer loop
      vertex -0.00508 0.0012758286 0.0078486
      vertex -0.00508 0.0014732 0.007112
      vertex -0.0053715557 0.0012758286 0.0078486
    endloop
  endfacet
  facet normal 0.0 0.9659258181407129 0.2588190755125953
    outer loop
      vertex -0.0053715557 0.0012758286 0.0078486
      vertex -0.00508 0.0014732 0.007112
      vertex -0.0053715557 0.0014732 0.007112
    endloop
  endfacet
  facet normal 0.0 0.9659258181407129 -0.2588190755125953
    outer loop
      vertex -0.00508 0.0014732 0.007112
      vertex -0.00508 0.0012758286 0.0063754
      vertex -0.0053715557 0.0014732 0.007112
    endloop
  endfacet
  facet normal 0.0 0.9659258181407129 -0.2588190755125953
    outer loop
      vertex -0.0053715557 0.0014732 0.007112
      vertex -0.00508 0.0012758286 0.0063754
      vertex -0.0053715557 0.0012758286 0.0063754
    endloop
  endfacet
  facet normal 0.0 0.7071066500534849 -0.7071069123195858
    outer loop
      vertex -0.00508 0.0012758286 0.0063754
      vertex -0.00508 7.366E-4 0.0058361716
      vertex -0.0053715557 0.0012758286 0.0063754
    endloop
  endfacet
  facet normal 0.0 0.7071066500534849 -0.7071069123195858
    outer loop
      vertex -0.0053715557 0.0012758286 0.0063754
      vertex -0.00508 7.366E-4 0.0058361716
      vertex -0.0053715557 7.366E-4 0.0058361716
    endloop
  endfacet
  facet normal 0.0 0.2588193202101108 -0.9659257525741697
    outer loop
      vertex -0.00508 7.366E-4 0.0058361716
      vertex -0.00508 8.868559E-19 0.0056388
      vertex -0.0053715557 7.366E-4 0.0058361716
    endloop
  endfacet
  facet normal -1.1905313037927892E-15 0.25881932021011034 -0.9659257525741699
    outer loop
      vertex -0.0053715557 7.366E-4 0.0058361716
      vertex -0.00508 8.868559E-19 0.0056388
      vertex -0.0053715557 -3.7989885E-19 0.0056388
    endloop
  endfacet
  facet normal 1.12452132909056E-15 -0.2588193202101102 -0.9659257525741699
    outer loop
      vertex -0.00508 8.868559E-19 0.0056388
      vertex -0.00508 -7.366E-4 0.0058361716
      vertex -0.0053715557 -3.7989885E-19 0.0056388
    endloop
  endfacet
  facet normal 0.0 -0.2588193202101106 -0.9659257525741697
    outer loop
      vertex -0.0053715557 -3.7989885E-19 0.0056388
      vertex -0.00508 -7.366E-4 0.0058361716
      vertex -0.0053715557 -7.366E-4 0.0058361716
    endloop
  endfacet
  facet normal -0.0 -0.7071066500534849 -0.7071069123195858
    outer loop
      vertex -0.00508 -7.366E-4 0.0058361716
      vertex -0.00508 -0.0012758286 0.0063754
      vertex -0.0053715557 -7.366E-4 0.0058361716
    endloop
  endfacet
  facet normal 0.0 -0.7071066500534849 -0.7071069123195858
    outer loop
      vertex -0.0053715557 -7.366E-4 0.0058361716
      vertex -0.00508 -0.0012758286 0.0063754
      vertex -0.0053715557 -0.0012758286 0.0063754
    endloop
  endfacet
  facet normal -0.0 -0.9659258181407129 -0.2588190755125953
    outer loop
      vertex -0.00508 -0.0012758286 0.0063754
      vertex -0.00508 -0.0014732 0.007112
      vertex -0.0053715557 -0.0012758286 0.0063754
    endloop
  endfacet
  facet normal 0.0 -0.9659258181407129 -0.2588190755125953
    outer loop
      vertex -0.0053715557 -0.0012758286 0.0063754
      vertex -0.00508 -0.0014732 0.007112
      vertex -0.0053715557 -0.0014732 0.007112
    endloop
  endfacet
  facet normal 0.0 -0.9659258181407129 0.2588190755125953
    outer loop
      vertex -0.00508 -0.0014732 0.007112
      vertex -0.00508 -0.0012758286 0.0078486
      vertex -0.0053715557 -0.0014732 0.007112
    endloop
  endfacet
  facet normal 0.0 -0.9659258480390387 0.25881896393051185
    outer loop
      vertex -0.00508 -7.9375E-4 0.007112
      vertex 0.00508 -6.874077E-4 0.007508875
      vertex -0.00508 -6.874077E-4 0.007508875
    endloop
  endfacet
  facet normal 0.0 -0.7071065378035666 0.7071070245694446
    outer loop
      vertex 0.00508 -6.874077E-4 0.007508875
      vertex 0.00508 -3.96875E-4 0.0077994075
      vertex -0.00508 -6.874077E-4 0.007508875
    endloop
  endfacet
  facet normal 0.0 -0.7071065378035666 0.7071070245694446
    outer loop
      vertex -0.00508 -6.874077E-4 0.007508875
      vertex 0.00508 -3.96875E-4 0.0077994075
      vertex -0.00508 -3.96875E-4 0.0077994075
    endloop
  endfacet
  facet normal 0.0 -0.2588194180891024 0.9659257263475377
    outer loop
      vertex 0.00508 -3.96875E-4 0.0077994075
      vertex 0.00508 -4.8603168E-20 0.00790575
      vertex -0.00508 -3.96875E-4 0.0077994075
    endloop
  endfacet
  facet normal 2.2192930450269515E-17 -0.25881941808910297 0.9659257263475376
    outer loop
      vertex -0.00508 -3.96875E-4 0.0077994075
      vertex 0.00508 -4.8603168E-20 0.00790575
      vertex -0.00508 -9.17082E-19 0.00790575
    endloop
  endfacet
  facet normal -2.212393562214009E-17 0.25881941808910236 0.9659257263475377
    outer loop
      vertex 0.00508 -4.8603168E-20 0.00790575
      vertex 0.00508 3.96875E-4 0.0077994075
      vertex -0.00508 -9.17082E-19 0.00790575
    endloop
  endfacet
  facet normal 0.0 0.25881941808910186 0.965925726347538
    outer loop
      vertex -0.00508 -9.17082E-19 0.00790575
      vertex 0.00508 3.96875E-4 0.0077994075
      vertex -0.00508 3.96875E-4 0.0077994075
    endloop
  endfacet
  facet normal 0.0 0.7071065378035666 0.7071070245694446
    outer loop
      vertex 0.00508 3.96875E-4 0.0077994075
      vertex 0.00508 6.874077E-4 0.007508875
      vertex -0.00508 3.96875E-4 0.0077994075
    endloop
  endfacet
  facet normal 0.0 0.7071065378035666 0.7071070245694446
    outer loop
      vertex -0.00508 3.96875E-4 0.0077994075
      vertex 0.00508 6.874077E-4 0.007508875
      vertex -0.00508 6.874077E-4 0.007508875
    endloop
  endfacet
  facet normal 0.0 0.9659258480390387 0.25881896393051185
    outer loop
      vertex 0.00508 6.874077E-4 0.007508875
      vertex 0.00508 7.9375E-4 0.007112
      vertex -0.00508 6.874077E-4 0.007508875
    endloop
  endfacet
  facet normal 0.0 0.9659258480390387 0.25881896393051185
    outer loop
      vertex -0.00508 6.874077E-4 0.007508875
      vertex 0.00508 7.9375E-4 0.007112
      vertex -0.00508 7.9375E-4 0.007112
    endloop
  endfacet
  facet normal 0.0 0.965925848039039 -0.2588189639305114
    outer loop
      vertex 0.00508 7.9375E-4 0.007112
      vertex 0.00508 6.874077E-4 0.006715125
      vertex -0.00508 7.9375E-4 0.007112
    endloop
  endfacet
  facet normal 0.0 0.965925848039039 -0.2588189639305114
    outer loop
      vertex -0.00508 7.9375E-4 0.007112
      vertex 0.00508 6.874077E-4 0.006715125
      vertex -0.00508 6.874077E-4 0.006715125
    endloop
  endfacet
  facet normal 0.0 0.7071067811865467 -0.7071067811865482
    outer loop
      vertex 0.00508 6.874077E-4 0.006715125
      vertex 0.00508 3.96875E-4 0.0064245923
      vertex -0.00508 6.874077E-4 0.006715125
    endloop
  endfacet
  facet normal 0.0 0.7071067811865467 -0.7071067811865482
    outer loop
      vertex -0.00508 6.874077E-4 0.006715125
      vertex 0.00508 3.96875E-4 0.0064245923
      vertex -0.00508 3.96875E-4 0.0064245923
    endloop
  endfacet
  facet normal 0.0 0.2588189639305125 -0.9659258480390388
    outer loop
      vertex 0.00508 3.96875E-4 0.0064245923
      vertex 0.00508 1.458095E-19 0.00631825
      vertex -0.00508 3.96875E-4 0.0064245923
    endloop
  endfacet
  facet normal 0.0 0.2588189639305125 -0.9659258480390388
    outer loop
      vertex -0.00508 3.96875E-4 0.0064245923
      vertex 0.00508 1.458095E-19 0.00631825
      vertex -0.00508 1.5857015E-19 0.00631825
    endloop
  endfacet
  facet normal -3.2506872166140636E-19 -0.2588189639305123 -0.9659258480390388
    outer loop
      vertex 0.00508 1.458095E-19 0.00631825
      vertex 0.00508 -3.96875E-4 0.0064245923
      vertex -0.00508 1.5857015E-19 0.00631825
    endloop
  endfacet
  facet normal 0.0 -0.2588189639305123 -0.9659258480390388
    outer loop
      vertex -0.00508 1.5857015E-19 0.00631825
      vertex 0.00508 -3.96875E-4 0.0064245923
      vertex -0.00508 -3.96875E-4 0.0064245923
    endloop
  endfacet
  facet normal -0.0 -0.7071067811865467 -0.7071067811865482
    outer loop
      vertex 0.00508 -3.96875E-4 0.0064245923
      vertex 0.00508 -6.874077E-4 0.006715125
      vertex -0.00508 -3.96875E-4 0.0064245923
    endloop
  endfacet
  facet normal 0.0 -0.7071067811865467 -0.7071067811865482
    outer loop
      vertex -0.00508 -3.96875E-4 0.0064245923
      vertex 0.00508 -6.874077E-4 0.006715125
      vertex -0.00508 -6.874077E-4 0.006715125
    endloop
  endfacet
  facet normal -0.0 -0.965925848039039 -0.2588189639305114
    outer loop
      vertex 0.00508 -6.874077E-4 0.006715125
      vertex 0.00508 -7.9375E-4 0.007112
      vertex -0.00508 -6.874077E-4 0.006715125
    endloop
  endfacet
  facet normal 0.0 -0.965925848039039 -0.2588189639305114
    outer loop
      vertex -0.00508 -6.874077E-4 0.006715125
      vertex 0.00508 -7.9375E-4 0.007112
      vertex -0.00508 -7.9375E-4 0.007112
    endloop
  endfacet
  facet normal 0.0 -0.9659258480390387 0.25881896393051185
    outer loop
      vertex 0.00508 -7.9375E-4 0.007112
      vertex 0.00508 -6.874077E-4 0.007508875
      vertex -0.00508 -7.9375E-4 0.007112
    endloop
  endfacet
  facet normal 0.2505635475732628 -0.9351129624650045 0.25056267889976
    outer loop
      vertex 0.00508 -7.9375E-4 0.007112
      vertex 0.005207 -6.579372E-4 0.00749186
      vertex 0.00508 -6.874077E-4 0.007508875
    endloop
  endfacet
  facet normal 0.25056419324273227 -0.6845501026861388 0.6845500288342814
    outer loop
      vertex 0.005207 -6.579372E-4 0.00749186
      vertex 0.005207 -3.7986023E-4 0.007769937
      vertex 0.00508 -6.874077E-4 0.007508875
    endloop
  endfacet
  facet normal 0.2505630496032557 -0.6845500394423548 0.6845505106805391
    outer loop
      vertex 0.00508 -6.874077E-4 0.007508875
      vertex 0.005207 -3.7986023E-4 0.007769937
      vertex 0.00508 -3.96875E-4 0.0077994075
    endloop
  endfacet
  facet normal 0.2505630901943288 -0.25056223259894167 0.9351132046053582
    outer loop
      vertex 0.005207 -3.7986023E-4 0.007769937
      vertex 0.005207 -2.0242295E-19 0.00787172
      vertex 0.00508 -3.96875E-4 0.0077994075
    endloop
  endfacet
  facet normal 0.25056590583134963 -0.25056296059590516 0.9351122550861636
    outer loop
      vertex 0.00508 -3.96875E-4 0.0077994075
      vertex 0.005207 -2.0242295E-19 0.00787172
      vertex 0.00508 -4.8603168E-20 0.00790575
    endloop
  endfacet
  facet normal 0.2505659675100239 0.2505620398543513 0.935112485271046
    outer loop
      vertex 0.005207 -2.0242295E-19 0.00787172
      vertex 0.005207 3.7986023E-4 0.007769937
      vertex 0.00508 -4.8603168E-20 0.00790575
    endloop
  endfacet
  facet normal 0.25056315187225825 0.2505631450778022 0.9351129435809131
    outer loop
      vertex 0.00508 -4.8603168E-20 0.00790575
      vertex 0.005207 3.7986023E-4 0.007769937
      vertex 0.00508 3.96875E-4 0.0077994075
    endloop
  endfacet
  facet normal 0.2505630245511523 0.6845503165722844 0.6845502427204039
    outer loop
      vertex 0.005207 3.7986023E-4 0.007769937
      vertex 0.005207 6.579372E-4 0.00749186
      vertex 0.00508 3.96875E-4 0.0077994075
    endloop
  endfacet
  facet normal 0.2505641681910872 0.684549834725945 0.6845503059639884
    outer loop
      vertex 0.00508 3.96875E-4 0.0077994075
      vertex 0.005207 6.579372E-4 0.00749186
      vertex 0.00508 6.874077E-4 0.007508875
    endloop
  endfacet
  facet normal 0.25056356364340177 0.9351128944567997 0.25056291663960417
    outer loop
      vertex 0.005207 6.579372E-4 0.00749186
      vertex 0.005207 7.5972045E-4 0.007112
      vertex 0.00508 6.874077E-4 0.007508875
    endloop
  endfacet
  facet normal 0.25056283004822577 0.9351131418465595 0.2505627269648867
    outer loop
      vertex 0.00508 6.874077E-4 0.007508875
      vertex 0.005207 7.5972045E-4 0.007112
      vertex 0.00508 7.9375E-4 0.007112
    endloop
  endfacet
  facet normal 0.2505628264020511 0.9351131282388514 -0.25056278139573135
    outer loop
      vertex 0.005207 7.5972045E-4 0.007112
      vertex 0.005207 6.579372E-4 0.0067321397
      vertex 0.00508 7.9375E-4 0.007112
    endloop
  endfacet
  facet normal 0.25056299285228195 0.9351131011455265 -0.25056271605908087
    outer loop
      vertex 0.00508 7.9375E-4 0.007112
      vertex 0.005207 6.579372E-4 0.0067321397
      vertex 0.00508 6.874077E-4 0.006715125
    endloop
  endfacet
  facet normal 0.2505626890307018 0.6845505010632372 -0.6845501810384501
    outer loop
      vertex 0.005207 6.579372E-4 0.0067321397
      vertex 0.005207 3.7986023E-4 0.0064540626
      vertex 0.00508 6.874077E-4 0.006715125
    endloop
  endfacet
  facet normal 0.2505620175938284 0.6845504639321004 -0.684550463932102
    outer loop
      vertex 0.00508 6.874077E-4 0.006715125
      vertex 0.005207 3.7986023E-4 0.0064540626
      vertex 0.00508 3.96875E-4 0.0064245923
    endloop
  endfacet
  facet normal 0.25056175639387845 0.250563010994066 -0.9351133534253493
    outer loop
      vertex 0.005207 3.7986023E-4 0.0064540626
      vertex 0.005207 6.410362E-19 0.0063522793
      vertex 0.00508 3.96875E-4 0.0064245923
    endloop
  endfacet
  facet normal 0.25056110484010496 0.2505628425314685 -0.935113573147057
    outer loop
      vertex 0.00508 3.96875E-4 0.0064245923
      vertex 0.005207 6.410362E-19 0.0063522793
      vertex 0.00508 1.458095E-19 0.00631825
    endloop
  endfacet
  facet normal 0.2505610905675958 -0.2505630555957299 -0.9351135198809332
    outer loop
      vertex 0.005207 6.410362E-19 0.0063522793
      vertex 0.005207 -3.7986023E-4 0.0064540626
      vertex 0.00508 1.458095E-19 0.00631825
    endloop
  endfacet
  facet normal 0.250561742121216 -0.2505627998419935 -0.9351134138277145
    outer loop
      vertex 0.00508 1.458095E-19 0.00631825
      vertex 0.005207 -3.7986023E-4 0.0064540626
      vertex 0.00508 -3.96875E-4 0.0064245923
    endloop
  endfacet
  facet normal 0.25056200288583885 -0.6845506266362452 -0.6845503066113994
    outer loop
      vertex 0.005207 -3.7986023E-4 0.0064540626
      vertex 0.005207 -6.579372E-4 0.0067321397
      vertex 0.00508 -3.96875E-4 0.0064245923
    endloop
  endfacet
  facet normal 0.25056267432241397 -0.6845503437426637 -0.6845503437426651
    outer loop
      vertex 0.00508 -3.96875E-4 0.0064245923
      vertex 0.005207 -6.579372E-4 0.0067321397
      vertex 0.00508 -6.874077E-4 0.006715125
    endloop
  endfacet
  facet normal 0.25056299649842284 -0.9351130857147393 -0.25056277000143107
    outer loop
      vertex 0.005207 -6.579372E-4 0.0067321397
      vertex 0.005207 -7.5972045E-4 0.007112
      vertex 0.00508 -6.874077E-4 0.006715125
    endloop
  endfacet
  facet normal 0.2505628300482258 -0.9351131418465595 -0.2505627269648862
    outer loop
      vertex 0.00508 -6.874077E-4 0.006715125
      vertex 0.005207 -7.5972045E-4 0.007112
      vertex 0.00508 -7.9375E-4 0.007112
    endloop
  endfacet
  facet normal 0.25056281397844726 -0.9351130818733343 0.2505629668577477
    outer loop
      vertex 0.005207 -7.5972045E-4 0.007112
      vertex 0.005207 -6.579372E-4 0.00749186
      vertex 0.00508 -7.9375E-4 0.007112
    endloop
  endfacet
  facet normal 0.6947461362852592 -0.6947469825960123 0.18615702052418145
    outer loop
      vertex 0.005207 -7.5972045E-4 0.007112
      vertex 0.0052999705 -5.7742244E-4 0.007445375
      vertex 0.005207 -6.579372E-4 0.00749186
    endloop
  endfacet
  facet normal 0.6947457398499729 -0.5085904463059946 0.5085903212671108
    outer loop
      vertex 0.0052999705 -5.7742244E-4 0.007445375
      vertex 0.0052999705 -3.33375E-4 0.0076894225
      vertex 0.005207 -6.579372E-4 0.00749186
    endloop
  endfacet
  facet normal 0.6947456379161516 -0.5085904808428092 0.5085904259741422
    outer loop
      vertex 0.005207 -6.579372E-4 0.00749186
      vertex 0.0052999705 -3.33375E-4 0.0076894225
      vertex 0.005207 -3.7986023E-4 0.007769937
    endloop
  endfacet
  facet normal 0.6947453361850552 -0.1861569808986083 0.6947477933119542
    outer loop
      vertex 0.0052999705 -3.33375E-4 0.0076894225
      vertex 0.0052999705 -1.704386E-19 0.00777875
      vertex 0.005207 -3.7986023E-4 0.007769937
    endloop
  endfacet
  facet normal 0.6947447148787445 -0.1861568440994277 0.6947484512706692
    outer loop
      vertex 0.005207 -3.7986023E-4 0.007769937
      vertex 0.0052999705 -1.704386E-19 0.00777875
      vertex 0.005207 -2.0242295E-19 0.00787172
    endloop
  endfacet
  facet normal 0.694744674385212 0.18615714634773195 0.6947484107769192
    outer loop
      vertex 0.0052999705 -1.704386E-19 0.00777875
      vertex 0.0052999705 3.33375E-4 0.0076894225
      vertex 0.005207 -2.0242295E-19 0.00787172
    endloop
  endfacet
  facet normal 0.6947452956911858 0.18615669889727957 0.6947479093675881
    outer loop
      vertex 0.005207 -2.0242295E-19 0.00787172
      vertex 0.0052999705 3.33375E-4 0.0076894225
      vertex 0.005207 3.7986023E-4 0.007769937
    endloop
  endfacet
  facet normal 0.6947456312726517 0.5085905204655066 0.5085903954266046
    outer loop
      vertex 0.0052999705 3.33375E-4 0.0076894225
      vertex 0.0052999705 5.7742244E-4 0.007445375
      vertex 0.005207 3.7986023E-4 0.007769937
    endloop
  endfacet
  facet normal 0.6947457332063842 0.5085904157585305 0.5085903608898704
    outer loop
      vertex 0.005207 3.7986023E-4 0.007769937
      vertex 0.0052999705 5.7742244E-4 0.007445375
      vertex 0.005207 6.579372E-4 0.00749186
    endloop
  endfacet
  facet normal 0.6947461192372392 0.6947470314563403 0.18615690179898975
    outer loop
      vertex 0.0052999705 5.7742244E-4 0.007445375
      vertex 0.0052999705 6.6675E-4 0.007112
      vertex 0.005207 6.579372E-4 0.00749186
    endloop
  endfacet
  facet normal 0.6947463808116882 0.6947467544499693 0.18615695939259155
    outer loop
      vertex 0.005207 6.579372E-4 0.00749186
      vertex 0.0052999705 6.6675E-4 0.007112
      vertex 0.005207 7.5972045E-4 0.007112
    endloop
  endfacet
  facet normal 0.6947463978598527 0.6947467714981429 -0.18615683214340178
    outer loop
      vertex 0.0052999705 6.6675E-4 0.007112
      vertex 0.0052999705 5.7742244E-4 0.006778625
      vertex 0.005207 7.5972045E-4 0.007112
    endloop
  endfacet
  facet normal 0.6947464280279371 0.6947467471516595 -0.1861568104169455
    outer loop
      vertex 0.005207 7.5972045E-4 0.007112
      vertex 0.0052999705 5.7742244E-4 0.006778625
      vertex 0.005207 6.579372E-4 0.0067321397
    endloop
  endfacet
  facet normal 0.6947466283149091 0.5085900478714792 -0.5085895060371892
    outer loop
      vertex 0.0052999705 5.7742244E-4 0.006778625
      vertex 0.0052999705 3.33375E-4 0.0065345773
      vertex 0.005207 6.579372E-4 0.0067321397
    endloop
  endfacet
  facet normal 0.6947461866033463 0.5085901975308499 -0.5085899597668435
    outer loop
      vertex 0.005207 6.579372E-4 0.0067321397
      vertex 0.0052999705 3.33375E-4 0.0065345773
      vertex 0.005207 3.7986023E-4 0.0064540626
    endloop
  endfacet
  facet normal 0.6947460554553625 0.18615641220534943 -0.6947472264241479
    outer loop
      vertex 0.0052999705 3.33375E-4 0.0065345773
      vertex 0.0052999705 5.698026E-19 0.00644525
      vertex 0.005207 3.7986023E-4 0.0064540626
    endloop
  endfacet
  facet normal 0.6947473500271193 0.18615669724536352 -0.6947458554759385
    outer loop
      vertex 0.005207 3.7986023E-4 0.0064540626
      vertex 0.0052999705 5.698026E-19 0.00644525
      vertex 0.005207 6.410362E-19 0.0063522793
    endloop
  endfacet
  facet normal 0.6947474344009535 -0.18615606746974664 -0.6947459398495914
    outer loop
      vertex 0.0052999705 5.698026E-19 0.00644525
      vertex 0.0052999705 -3.33375E-4 0.0065345773
      vertex 0.005207 6.410362E-19 0.0063522793
    endloop
  endfacet
  facet normal 0.6947461398296778 -0.1861569997950144 -0.694746984605965
    outer loop
      vertex 0.005207 6.410362E-19 0.0063522793
      vertex 0.0052999705 -3.33375E-4 0.0065345773
      vertex 0.005207 -3.7986023E-4 0.0064540626
    endloop
  endfacet
  facet normal 0.6947461578147247 -0.5085903692290759 -0.5085898273944435
    outer loop
      vertex 0.0052999705 -3.33375E-4 0.0065345773
      vertex 0.0052999705 -5.7742244E-4 0.006778625
      vertex 0.005207 -3.7986023E-4 0.0064540626
    endloop
  endfacet
  facet normal 0.6947465995264295 -0.5085899154992282 -0.5085896777353537
    outer loop
      vertex 0.005207 -3.7986023E-4 0.0064540626
      vertex 0.0052999705 -5.7742244E-4 0.006778625
      vertex 0.005207 -6.579372E-4 0.0067321397
    endloop
  endfacet
  facet normal 0.6947464299941534 -0.694746741516447 -0.18615682410983078
    outer loop
      vertex 0.0052999705 -5.7742244E-4 0.006778625
      vertex 0.0052999705 -6.6675E-4 0.007112
      vertex 0.005207 -6.579372E-4 0.0067321397
    endloop
  endfacet
  facet normal 0.6947463998260626 -0.6947467734643539 -0.18615681746741
    outer loop
      vertex 0.005207 -6.579372E-4 0.0067321397
      vertex 0.0052999705 -6.6675E-4 0.007112
      vertex 0.005207 -7.5972045E-4 0.007112
    endloop
  endfacet
  facet normal 0.6947463978598526 -0.6947467714981427 0.18615683214340223
    outer loop
      vertex 0.0052999705 -6.6675E-4 0.007112
      vertex 0.0052999705 -5.7742244E-4 0.007445375
      vertex 0.005207 -7.5972045E-4 0.007112
    endloop
  endfacet
  facet normal 0.9636114783118167 -0.2581985303824029 0.06918408613317122
    outer loop
      vertex 0.0052999705 -6.6675E-4 0.007112
      vertex 0.005334 -4.674372E-4 0.007381875
      vertex 0.0052999705 -5.7742244E-4 0.007445375
    endloop
  endfacet
  facet normal 0.9636114670850972 -0.18901437533616613 0.18901456668306085
    outer loop
      vertex 0.005334 -4.674372E-4 0.007381875
      vertex 0.005334 -2.69875E-4 0.007579437
      vertex 0.0052999705 -5.7742244E-4 0.007445375
    endloop
  endfacet
  facet normal 0.9636115773442185 -0.18901421318926304 0.18901416671940421
    outer loop
      vertex 0.0052999705 -5.7742244E-4 0.007445375
      vertex 0.005334 -2.69875E-4 0.007579437
      vertex 0.0052999705 -3.33375E-4 0.0076894225
    endloop
  endfacet
  facet normal 0.9636116328767267 -0.06918413235220439 0.2581979411523673
    outer loop
      vertex 0.005334 -2.69875E-4 0.007579437
      vertex 0.005334 -1.6166473E-20 0.00765175
      vertex 0.0052999705 -3.33375E-4 0.0076894225
    endloop
  endfacet
  facet normal 0.9636114741811616 -0.06918404663009321 0.25819855638305494
    outer loop
      vertex 0.0052999705 -3.33375E-4 0.0076894225
      vertex 0.005334 -1.6166473E-20 0.00765175
      vertex 0.0052999705 -1.704386E-19 0.00777875
    endloop
  endfacet
  facet normal 0.9636114574762857 0.06918429600389497 0.25819855190700336
    outer loop
      vertex 0.005334 -1.6166473E-20 0.00765175
      vertex 0.005334 2.69875E-4 0.007579437
      vertex 0.0052999705 -1.704386E-19 0.00777875
    endloop
  endfacet
  facet normal 0.9636116161720291 0.06918391415056872 0.25819806196239553
    outer loop
      vertex 0.0052999705 -1.704386E-19 0.00777875
      vertex 0.005334 2.69875E-4 0.007579437
      vertex 0.0052999705 3.33375E-4 0.0076894225
    endloop
  endfacet
  facet normal 0.9636115889504779 0.18901406469613385 0.18901425604271413
    outer loop
      vertex 0.005334 2.69875E-4 0.007579437
      vertex 0.005334 4.674372E-4 0.007381875
      vertex 0.0052999705 3.33375E-4 0.0076894225
    endloop
  endfacet
  facet normal 0.9636114786913602 0.1890144646597484 0.18901441818982775
    outer loop
      vertex 0.0052999705 3.33375E-4 0.0076894225
      vertex 0.005334 4.674372E-4 0.007381875
      vertex 0.0052999705 5.7742244E-4 0.007445375
    endloop
  endfacet
  facet normal 0.9636114791622457 0.25819852423205 0.06918409724163917
    outer loop
      vertex 0.005334 4.674372E-4 0.007381875
      vertex 0.005334 5.3975E-4 0.007112
      vertex 0.0052999705 5.7742244E-4 0.007445375
    endloop
  endfacet
  facet normal 0.9636114710831707 0.25819855555295274 0.06918409287759955
    outer loop
      vertex 0.0052999705 5.7742244E-4 0.007445375
      vertex 0.005334 5.3975E-4 0.007112
      vertex 0.0052999705 6.6675E-4 0.007112
    endloop
  endfacet
  facet normal 0.9636114702327416 0.2581985553250813 -0.06918410557299315
    outer loop
      vertex 0.005334 5.3975E-4 0.007112
      vertex 0.005334 4.674372E-4 0.006842125
      vertex 0.0052999705 6.6675E-4 0.007112
    endloop
  endfacet
  facet normal 0.963611478311817 0.25819853038240265 -0.06918408613317097
    outer loop
      vertex 0.0052999705 6.6675E-4 0.007112
      vertex 0.005334 4.674372E-4 0.006842125
      vertex 0.0052999705 5.7742244E-4 0.006778625
    endloop
  endfacet
  facet normal 0.9636114670850976 0.18901437533616558 -0.18901456668305947
    outer loop
      vertex 0.005334 4.674372E-4 0.006842125
      vertex 0.005334 2.69875E-4 0.006644563
      vertex 0.0052999705 5.7742244E-4 0.006778625
    endloop
  endfacet
  facet normal 0.9636116491601463 0.18901410757669307 -0.1890139062075841
    outer loop
      vertex 0.0052999705 5.7742244E-4 0.006778625
      vertex 0.005334 2.69875E-4 0.006644563
      vertex 0.0052999705 3.33375E-4 0.0065345773
    endloop
  endfacet
  facet normal 0.9636117413054669 0.06918403118607759 -0.2581975635963473
    outer loop
      vertex 0.005334 2.69875E-4 0.006644563
      vertex 0.005334 1.1603414E-19 0.00657225
      vertex 0.0052999705 3.33375E-4 0.0065345773
    endloop
  endfacet
  facet normal 0.9636114845077821 0.0691838924717373 -0.25819855915006057
    outer loop
      vertex 0.0052999705 3.33375E-4 0.0065345773
      vertex 0.005334 1.1603414E-19 0.00657225
      vertex 0.0052999705 5.698026E-19 0.00644525
    endloop
  endfacet
  facet normal 0.9636114574762857 -0.06918429600389497 -0.2581985519070036
    outer loop
      vertex 0.005334 1.1603414E-19 0.00657225
      vertex 0.005334 -2.69875E-4 0.006644563
      vertex 0.0052999705 5.698026E-19 0.00644525
    endloop
  endfacet
  facet normal 0.9636117142743521 -0.06918367809649685 -0.2581977590884254
    outer loop
      vertex 0.0052999705 5.698026E-19 0.00644525
      vertex 0.005334 -2.69875E-4 0.006644563
      vertex 0.0052999705 -3.33375E-4 0.0065345773
    endloop
  endfacet
  facet normal 0.9636116683260683 -0.18901386236408696 -0.18901405371046154
    outer loop
      vertex 0.005334 -2.69875E-4 0.006644563
      vertex 0.005334 -4.674372E-4 0.006842125
      vertex 0.0052999705 -3.33375E-4 0.0065345773
    endloop
  endfacet
  facet normal 0.9636114862509695 -0.18901452283977632 -0.18901432147022496
    outer loop
      vertex 0.0052999705 -3.33375E-4 0.0065345773
      vertex 0.005334 -4.674372E-4 0.006842125
      vertex 0.0052999705 -5.7742244E-4 0.006778625
    endloop
  endfacet
  facet normal 0.9636114791622459 -0.2581985242320496 -0.06918409724163907
    outer loop
      vertex 0.005334 -4.674372E-4 0.006842125
      vertex 0.005334 -5.3975E-4 0.007112
      vertex 0.0052999705 -5.7742244E-4 0.006778625
    endloop
  endfacet
  facet normal 0.9636114710831708 -0.25819855555295274 -0.06918409287759937
    outer loop
      vertex 0.0052999705 -5.7742244E-4 0.006778625
      vertex 0.005334 -5.3975E-4 0.007112
      vertex 0.0052999705 -6.6675E-4 0.007112
    endloop
  endfacet
  facet normal 0.9636114702327416 -0.2581985553250813 0.06918410557299315
    outer loop
      vertex 0.005334 -5.3975E-4 0.007112
      vertex 0.005334 -4.674372E-4 0.007381875
      vertex 0.0052999705 -6.6675E-4 0.007112
    endloop
  endfacet
  facet normal -1.0 0.0 0.0
    outer loop
      vertex -0.005622836 0.001256269 0.007112
      vertex -0.005622836 -0.001256269 0.007112
      vertex -0.005622836 -0.0010879609 0.0077401344
    endloop
  endfacet
  facet normal -1.0 -0.0 -0.0
    outer loop
      vertex -0.005622836 6.281345E-4 0.008199961
      vertex -0.005622836 0.0010879609 0.0077401344
      vertex -0.005622836 -7.4414853E-19 0.008368269
    endloop
  endfacet
  facet normal -1.0 -0.0 -0.0
    outer loop
      vertex -0.005622836 0.0010879609 0.0077401344
      vertex -0.005622836 0.001256269 0.007112
      vertex -0.005622836 -7.4414853E-19 0.008368269
    endloop
  endfacet
  facet normal -1.0 0.0 -0.0
    outer loop
      vertex -0.005622836 -7.4414853E-19 0.008368269
      vertex -0.005622836 0.001256269 0.007112
      vertex -0.005622836 -6.281345E-4 0.008199961
    endloop
  endfacet
  facet normal -1.0 0.0 0.0
    outer loop
      vertex -0.005622836 0.001256269 0.007112
      vertex -0.005622836 -0.0010879609 0.0077401344
      vertex -0.005622836 -6.281345E-4 0.008199961
    endloop
  endfacet
  facet normal -1.0 0.0 0.0
    outer loop
      vertex -0.005622836 0.001256269 0.007112
      vertex -0.005622836 0.0010879609 0.0064838654
      vertex -0.005622836 6.281345E-4 0.006024039
    endloop
  endfacet
  facet normal -1.0 0.0 0.0
    outer loop
      vertex -0.005622836 -0.0010879609 0.0064838654
      vertex -0.005622836 -0.001256269 0.007112
      vertex -0.005622836 -6.281345E-4 0.006024039
    endloop
  endfacet
  facet normal -1.0 0.0 0.0
    outer loop
      vertex -0.005622836 -0.001256269 0.007112
      vertex -0.005622836 0.001256269 0.007112
      vertex -0.005622836 -6.281345E-4 0.006024039
    endloop
  endfacet
  facet normal -1.0 0.0 0.0
    outer loop
      vertex -0.005622836 -6.281345E-4 0.006024039
      vertex -0.005622836 0.001256269 0.007112
      vertex -0.005622836 -4.3645136E-19 0.005855731
    endloop
  endfacet
  facet normal -1.0 0.0 0.0
    outer loop
      vertex -0.005622836 0.001256269 0.007112
      vertex -0.005622836 6.281345E-4 0.006024039
      vertex -0.005622836 -4.3645136E-19 0.005855731
    endloop
  endfacet
  facet normal 1.0 0.0 0.0
    outer loop
      vertex 0.005334 -2.69875E-4 0.007579437
      vertex 0.005334 -4.674372E-4 0.007381875
      vertex 0.005334 0.0 0.007112
    endloop
  endfacet
  facet normal 1.0 0.0 0.0
    outer loop
      vertex 0.005334 -4.674372E-4 0.007381875
      vertex 0.005334 -5.3975E-4 0.007112
      vertex 0.005334 0.0 0.007112
    endloop
  endfacet
  facet normal 1.0 0.0 0.0
    outer loop
      vertex 0.005334 0.0 0.007112
      vertex 0.005334 -5.3975E-4 0.007112
      vertex 0.005334 -4.674372E-4 0.006842125
    endloop
  endfacet
  facet normal 1.0 0.0 0.0
    outer loop
      vertex 0.005334 4.674372E-4 0.007381875
      vertex 0.005334 2.69875E-4 0.007579437
      vertex 0.005334 0.0 0.007112
    endloop
  endfacet
  facet normal 1.0 0.0 0.0
    outer loop
      vertex 0.005334 2.69875E-4 0.007579437
      vertex 0.005334 -1.6166473E-20 0.00765175
      vertex 0.005334 0.0 0.007112
    endloop
  endfacet
  facet normal 1.0 0.0 0.0
    outer loop
      vertex 0.005334 0.0 0.007112
      vertex 0.005334 -1.6166473E-20 0.00765175
      vertex 0.005334 -2.69875E-4 0.007579437
    endloop
  endfacet
  facet normal 1.0 0.0 -0.0
    outer loop
      vertex 0.005334 2.69875E-4 0.006644563
      vertex 0.005334 4.674372E-4 0.006842125
      vertex 0.005334 0.0 0.007112
    endloop
  endfacet
  facet normal 1.0 0.0 -0.0
    outer loop
      vertex 0.005334 4.674372E-4 0.006842125
      vertex 0.005334 5.3975E-4 0.007112
      vertex 0.005334 0.0 0.007112
    endloop
  endfacet
  facet normal 1.0 0.0 0.0
    outer loop
      vertex 0.005334 0.0 0.007112
      vertex 0.005334 5.3975E-4 0.007112
      vertex 0.005334 4.674372E-4 0.007381875
    endloop
  endfacet
  facet normal 1.0 -0.0 0.0
    outer loop
      vertex 0.005334 -4.674372E-4 0.006842125
      vertex 0.005334 -2.69875E-4 0.006644563
      vertex 0.005334 0.0 0.007112
    endloop
  endfacet
  facet normal 1.0 -0.0 0.0
    outer loop
      vertex 0.005334 -2.69875E-4 0.006644563
      vertex 0.005334 1.1603414E-19 0.00657225
      vertex 0.005334 0.0 0.007112
    endloop
  endfacet
  facet normal 1.0 0.0 0.0
    outer loop
      vertex 0.005334 0.0 0.007112
      vertex 0.005334 1.1603414E-19 0.00657225
      vertex 0.005334 2.69875E-4 0.006644563
    endloop
  endfacet
  facet normal 1.0 0.0 0.0
    outer loop
      vertex -0.00508 -9.17082E-19 0.00790575
      vertex -0.00508 -1.1095545E-18 0.0085852
      vertex -0.00508 -3.96875E-4 0.0077994075
    endloop
  endfacet
  facet normal 1.0 0.0 0.0
    outer loop
      vertex -0.00508 -1.1095545E-18 0.0085852
      vertex -0.00508 -7.366E-4 0.008387828
      vertex -0.00508 -3.96875E-4 0.0077994075
    endloop
  endfacet
  facet normal 1.0 0.0 0.0
    outer loop
      vertex -0.00508 -3.96875E-4 0.0077994075
      vertex -0.00508 -7.366E-4 0.008387828
      vertex -0.00508 -6.874077E-4 0.007508875
    endloop
  endfacet
  facet normal 1.0 0.0 0.0
    outer loop
      vertex -0.00508 -7.366E-4 0.008387828
      vertex -0.00508 -0.0012758286 0.0078486
      vertex -0.00508 -6.874077E-4 0.007508875
    endloop
  endfacet
  facet normal 1.0 0.0 0.0
    outer loop
      vertex -0.00508 -6.874077E-4 0.007508875
      vertex -0.00508 -0.0012758286 0.0078486
      vertex -0.00508 -7.9375E-4 0.007112
    endloop
  endfacet
  facet normal 1.0 0.0 0.0
    outer loop
      vertex -0.00508 -0.0012758286 0.0078486
      vertex -0.00508 -0.0014732 0.007112
      vertex -0.00508 -7.9375E-4 0.007112
    endloop
  endfacet
  facet normal 1.0 0.0 0.0
    outer loop
      vertex -0.00508 -7.9375E-4 0.007112
      vertex -0.00508 -0.0014732 0.007112
      vertex -0.00508 -6.874077E-4 0.006715125
    endloop
  endfacet
  facet normal 1.0 0.0 0.0
    outer loop
      vertex -0.00508 -0.0014732 0.007112
      vertex -0.00508 -0.0012758286 0.0063754
      vertex -0.00508 -6.874077E-4 0.006715125
    endloop
  endfacet
  facet normal 1.0 0.0 0.0
    outer loop
      vertex -0.00508 -6.874077E-4 0.006715125
      vertex -0.00508 -0.0012758286 0.0063754
      vertex -0.00508 -3.96875E-4 0.0064245923
    endloop
  endfacet
  facet normal 1.0 -0.0 0.0
    outer loop
      vertex -0.00508 -0.0012758286 0.0063754
      vertex -0.00508 -7.366E-4 0.0058361716
      vertex -0.00508 -3.96875E-4 0.0064245923
    endloop
  endfacet
  facet normal 1.0 0.0 0.0
    outer loop
      vertex -0.00508 -3.96875E-4 0.0064245923
      vertex -0.00508 -7.366E-4 0.0058361716
      vertex -0.00508 1.5857015E-19 0.00631825
    endloop
  endfacet
  facet normal 1.0 -0.0 0.0
    outer loop
      vertex -0.00508 -7.366E-4 0.0058361716
      vertex -0.00508 8.868559E-19 0.0056388
      vertex -0.00508 1.5857015E-19 0.00631825
    endloop
  endfacet
  facet normal 1.0 -0.0 0.0
    outer loop
      vertex -0.00508 1.5857015E-19 0.00631825
      vertex -0.00508 8.868559E-19 0.0056388
      vertex -0.00508 3.96875E-4 0.0064245923
    endloop
  endfacet
  facet normal 1.0 0.0 0.0
    outer loop
      vertex -0.00508 8.868559E-19 0.0056388
      vertex -0.00508 7.366E-4 0.0058361716
      vertex -0.00508 3.96875E-4 0.0064245923
    endloop
  endfacet
  facet normal 1.0 -0.0 0.0
    outer loop
      vertex -0.00508 3.96875E-4 0.0064245923
      vertex -0.00508 7.366E-4 0.0058361716
      vertex -0.00508 6.874077E-4 0.006715125
    endloop
  endfacet
  facet normal 1.0 0.0 -0.0
    outer loop
      vertex -0.00508 7.366E-4 0.0058361716
      vertex -0.00508 0.0012758286 0.0063754
      vertex -0.00508 6.874077E-4 0.006715125
    endloop
  endfacet
  facet normal 1.0 -0.0 0.0
    outer loop
      vertex -0.00508 6.874077E-4 0.006715125
      vertex -0.00508 0.0012758286 0.0063754
      vertex -0.00508 7.9375E-4 0.007112
    endloop
  endfacet
  facet normal 1.0 0.0 -0.0
    outer loop
      vertex -0.00508 0.0012758286 0.0063754
      vertex -0.00508 0.0014732 0.007112
      vertex -0.00508 7.9375E-4 0.007112
    endloop
  endfacet
  facet normal 1.0 0.0 -0.0
    outer loop
      vertex -0.00508 7.9375E-4 0.007112
      vertex -0.00508 0.0014732 0.007112
      vertex -0.00508 6.874077E-4 0.007508875
    endloop
  endfacet
  facet normal 1.0 0.0 0.0
    outer loop
      vertex -0.00508 0.0014732 0.007112
      vertex -0.00508 0.0012758286 0.0078486
      vertex -0.00508 6.874077E-4 0.007508875
    endloop
  endfacet
  facet normal 1.0 0.0 -0.0
    outer loop
      vertex -0.00508 6.874077E-4 0.007508875
      vertex -0.00508 0.0012758286 0.0078486
      vertex -0.00508 3.96875E-4 0.0077994075
    endloop
  endfacet
  facet normal 1.0 0.0 0.0
    outer loop
      vertex -0.00508 0.0012758286 0.0078486
      vertex -0.00508 7.366E-4 0.008387828
      vertex -0.00508 3.96875E-4 0.0077994075
    endloop
  endfacet
  facet normal 1.0 0.0 -0.0
    outer loop
      vertex -0.00508 3.96875E-4 0.0077994075
      vertex -0.00508 7.366E-4 0.008387828
      vertex -0.00508 -9.17082E-19 0.00790575
    endloop
  endfacet
  facet normal 1.0 0.0 0.0
    outer loop
      vertex -0.00508 7.366E-4 0.008387828
      vertex -0.00508 -1.1095545E-18 0.0085852
      vertex -0.00508 -9.17082E-19 0.00790575
    endloop
  endfacet
endsolid toggle_switchSTEP_Switch_12V_LED_CLOSED_OFF_4
