solid toggle_switchSTEP_Switch_12V_LED_CLOSED_OFF_12
  facet normal 0.0 0.0 -1.0
    outer loop
      vertex -5.715E-4 -0.009752867 -0.01905
      vertex -9.89867E-4 -0.0093345 -0.01905
      vertex 3.1218663E-18 -0.008763 -0.01905
    endloop
  endfacet
  facet normal 0.0 0.0 -1.0
    outer loop
      vertex -9.89867E-4 -0.0093345 -0.01905
      vertex -0.001143 -0.008763 -0.01905
      vertex 3.1218663E-18 -0.008763 -0.01905
    endloop
  endfacet
  facet normal 0.0 0.0 -1.0
    outer loop
      vertex 3.1218663E-18 -0.008763 -0.01905
      vertex -0.001143 -0.008763 -0.01905
      vertex -9.89867E-4 -0.0081915 -0.01905
    endloop
  endfacet
  facet normal -0.0 0.0 -1.0
    outer loop
      vertex 9.89867E-4 -0.0093345 -0.01905
      vertex 5.715E-4 -0.009752867 -0.01905
      vertex 3.1218663E-18 -0.008763 -0.01905
    endloop
  endfacet
  facet normal -0.0 0.0 -1.0
    outer loop
      vertex 5.715E-4 -0.009752867 -0.01905
      vertex 1.8967125E-18 -0.009906 -0.01905
      vertex 3.1218663E-18 -0.008763 -0.01905
    endloop
  endfacet
  facet normal 0.0 0.0 -1.0
    outer loop
      vertex 3.1218663E-18 -0.008763 -0.01905
      vertex 1.8967125E-18 -0.009906 -0.01905
      vertex -5.715E-4 -0.009752867 -0.01905
    endloop
  endfacet
  facet normal 0.0 -0.0 -1.0
    outer loop
      vertex 5.715E-4 -0.007773133 -0.01905
      vertex 9.89867E-4 -0.0081915 -0.01905
      vertex 3.1218663E-18 -0.008763 -0.01905
    endloop
  endfacet
  facet normal 0.0 -0.0 -1.0
    outer loop
      vertex 9.89867E-4 -0.0081915 -0.01905
      vertex 0.001143 -0.008763 -0.01905
      vertex 3.1218663E-18 -0.008763 -0.01905
    endloop
  endfacet
  facet normal 0.0 0.0 -1.0
    outer loop
      vertex 3.1218663E-18 -0.008763 -0.01905
      vertex 0.001143 -0.008763 -0.01905
      vertex 9.89867E-4 -0.0093345 -0.01905
    endloop
  endfacet
  facet normal 0.0 0.0 -1.0
    outer loop
      vertex -9.89867E-4 -0.0081915 -0.01905
      vertex -5.715E-4 -0.007773133 -0.01905
      vertex 3.1218663E-18 -0.008763 -0.01905
    endloop
  endfacet
  facet normal 0.0 0.0 -1.0
    outer loop
      vertex -5.715E-4 -0.007773133 -0.01905
      vertex 3.4456519E-18 -0.00762 -0.01905
      vertex 3.1218663E-18 -0.008763 -0.01905
    endloop
  endfacet
  facet normal 0.0 0.0 -1.0
    outer loop
      vertex 3.1218663E-18 -0.008763 -0.01905
      vertex 3.4456519E-18 -0.00762 -0.01905
      vertex 5.715E-4 -0.007773133 -0.01905
    endloop
  endfacet
  facet normal 0.0 0.9899494441419691 -0.14142170287125908
    outer loop
      vertex -0.002032 -0.012065 -0.027686
      vertex -0.002831651 -0.011950764 -0.02688635
      vertex 0.002032 -0.012065 -0.027686
    endloop
  endfacet
  facet normal 0.0 0.9899494441419691 -0.14142170287125908
    outer loop
      vertex -0.002831651 -0.011950764 -0.02688635
      vertex 0.002831651 -0.011950764 -0.02688635
      vertex 0.002032 -0.012065 -0.027686
    endloop
  endfacet
  facet normal 0.9659258108555439 0.2588191027012112 0.0
    outer loop
      vertex 0.001143 -0.008763 -0.018288
      vertex 9.89867E-4 -0.0081915 -0.01905
      vertex 9.89867E-4 -0.0081915 -0.018288
    endloop
  endfacet
  facet normal 0.7071067811865485 0.7071067811865466 -0.0
    outer loop
      vertex 9.89867E-4 -0.0081915 -0.01905
      vertex 5.715E-4 -0.007773133 -0.01905
      vertex 9.89867E-4 -0.0081915 -0.018288
    endloop
  endfacet
  facet normal 0.7071067811865485 0.7071067811865466 0.0
    outer loop
      vertex 9.89867E-4 -0.0081915 -0.018288
      vertex 5.715E-4 -0.007773133 -0.01905
      vertex 5.715E-4 -0.007773133 -0.018288
    endloop
  endfacet
  facet normal 0.25881910270121194 0.9659258108555437 -0.0
    outer loop
      vertex 5.715E-4 -0.007773133 -0.01905
      vertex 3.4456519E-18 -0.00762 -0.01905
      vertex 5.715E-4 -0.007773133 -0.018288
    endloop
  endfacet
  facet normal 0.25881910270121194 0.9659258108555437 0.0
    outer loop
      vertex 5.715E-4 -0.007773133 -0.018288
      vertex 3.4456519E-18 -0.00762 -0.01905
      vertex 3.4456519E-18 -0.00762 -0.018288
    endloop
  endfacet
  facet normal -0.258819102701209 0.9659258108555444 0.0
    outer loop
      vertex 3.4456519E-18 -0.00762 -0.01905
      vertex -5.715E-4 -0.007773133 -0.01905
      vertex 3.4456519E-18 -0.00762 -0.018288
    endloop
  endfacet
  facet normal -0.258819102701209 0.9659258108555444 0.0
    outer loop
      vertex 3.4456519E-18 -0.00762 -0.018288
      vertex -5.715E-4 -0.007773133 -0.01905
      vertex -5.715E-4 -0.007773133 -0.018288
    endloop
  endfacet
  facet normal -0.7071067811865485 0.7071067811865466 0.0
    outer loop
      vertex -5.715E-4 -0.007773133 -0.01905
      vertex -9.89867E-4 -0.0081915 -0.01905
      vertex -5.715E-4 -0.007773133 -0.018288
    endloop
  endfacet
  facet normal -0.7071067811865485 0.7071067811865466 0.0
    outer loop
      vertex -5.715E-4 -0.007773133 -0.018288
      vertex -9.89867E-4 -0.0081915 -0.01905
      vertex -9.89867E-4 -0.0081915 -0.018288
    endloop
  endfacet
  facet normal -0.9659258108555439 0.2588191027012112 0.0
    outer loop
      vertex -9.89867E-4 -0.0081915 -0.01905
      vertex -0.001143 -0.008763 -0.01905
      vertex -9.89867E-4 -0.0081915 -0.018288
    endloop
  endfacet
  facet normal -0.9659258108555439 0.2588191027012112 0.0
    outer loop
      vertex -9.89867E-4 -0.0081915 -0.018288
      vertex -0.001143 -0.008763 -0.01905
      vertex -0.001143 -0.008763 -0.018288
    endloop
  endfacet
  facet normal -0.965925810855544 -0.25881910270121045 0.0
    outer loop
      vertex -0.001143 -0.008763 -0.01905
      vertex -9.89867E-4 -0.0093345 -0.01905
      vertex -0.001143 -0.008763 -0.018288
    endloop
  endfacet
  facet normal -0.965925810855544 -0.25881910270121045 0.0
    outer loop
      vertex -0.001143 -0.008763 -0.018288
      vertex -9.89867E-4 -0.0093345 -0.01905
      vertex -9.89867E-4 -0.0093345 -0.018288
    endloop
  endfacet
  facet normal -0.707106781186547 -0.707106781186548 0.0
    outer loop
      vertex -9.89867E-4 -0.0093345 -0.01905
      vertex -5.715E-4 -0.009752867 -0.01905
      vertex -9.89867E-4 -0.0093345 -0.018288
    endloop
  endfacet
  facet normal -0.707106781186547 -0.707106781186548 0.0
    outer loop
      vertex -9.89867E-4 -0.0093345 -0.018288
      vertex -5.715E-4 -0.009752867 -0.01905
      vertex -5.715E-4 -0.009752867 -0.018288
    endloop
  endfacet
  facet normal -0.2588191027012097 -0.9659258108555443 0.0
    outer loop
      vertex -5.715E-4 -0.009752867 -0.01905
      vertex 1.8967125E-18 -0.009906 -0.01905
      vertex -5.715E-4 -0.009752867 -0.018288
    endloop
  endfacet
  facet normal -0.2588191027012097 -0.9659258108555443 0.0
    outer loop
      vertex -5.715E-4 -0.009752867 -0.018288
      vertex 1.8967125E-18 -0.009906 -0.01905
      vertex 1.8967125E-18 -0.009906 -0.018288
    endloop
  endfacet
  facet normal 0.2588191027012113 -0.965925810855544 0.0
    outer loop
      vertex 1.8967125E-18 -0.009906 -0.01905
      vertex 5.715E-4 -0.009752867 -0.01905
      vertex 1.8967125E-18 -0.009906 -0.018288
    endloop
  endfacet
  facet normal 0.2588191027012113 -0.965925810855544 0.0
    outer loop
      vertex 1.8967125E-18 -0.009906 -0.018288
      vertex 5.715E-4 -0.009752867 -0.01905
      vertex 5.715E-4 -0.009752867 -0.018288
    endloop
  endfacet
  facet normal 0.707106781186547 -0.707106781186548 0.0
    outer loop
      vertex 5.715E-4 -0.009752867 -0.01905
      vertex 9.89867E-4 -0.0093345 -0.01905
      vertex 5.715E-4 -0.009752867 -0.018288
    endloop
  endfacet
  facet normal 0.707106781186547 -0.707106781186548 0.0
    outer loop
      vertex 5.715E-4 -0.009752867 -0.018288
      vertex 9.89867E-4 -0.0093345 -0.01905
      vertex 9.89867E-4 -0.0093345 -0.018288
    endloop
  endfacet
  facet normal 0.965925810855544 -0.25881910270121045 0.0
    outer loop
      vertex 9.89867E-4 -0.0093345 -0.01905
      vertex 0.001143 -0.008763 -0.01905
      vertex 9.89867E-4 -0.0093345 -0.018288
    endloop
  endfacet
  facet normal 0.965925810855544 -0.25881910270121045 0.0
    outer loop
      vertex 9.89867E-4 -0.0093345 -0.018288
      vertex 0.001143 -0.008763 -0.01905
      vertex 0.001143 -0.008763 -0.018288
    endloop
  endfacet
  facet normal 0.9659258108555439 0.2588191027012112 -0.0
    outer loop
      vertex 0.001143 -0.008763 -0.01905
      vertex 9.89867E-4 -0.0081915 -0.01905
      vertex 0.001143 -0.008763 -0.018288
    endloop
  endfacet
  facet normal 0.0 0.25881870846623584 -0.9659259164904261
    outer loop
      vertex -0.0024384 -0.01143 -0.018288
      vertex 0.0024384 -0.01143 -0.018288
      vertex -0.0024384 -0.011684 -0.018356059
    endloop
  endfacet
  facet normal 0.0 0.25881870846623584 -0.9659259164904261
    outer loop
      vertex 0.0024384 -0.01143 -0.018288
      vertex 0.0024384 -0.011684 -0.018356059
      vertex -0.0024384 -0.011684 -0.018356059
    endloop
  endfacet
  facet normal 0.0 0.7071067811865442 -0.7071067811865509
    outer loop
      vertex -0.0024384 -0.011684 -0.018356059
      vertex 0.0024384 -0.011684 -0.018356059
      vertex -0.0024384 -0.011869941 -0.018542
    endloop
  endfacet
  facet normal 0.0 0.7071067811865442 -0.7071067811865509
    outer loop
      vertex 0.0024384 -0.011684 -0.018356059
      vertex 0.0024384 -0.011869941 -0.018542
      vertex -0.0024384 -0.011869941 -0.018542
    endloop
  endfacet
  facet normal 0.0 0.9659259164904278 -0.2588187084662297
    outer loop
      vertex -0.0024384 -0.011869941 -0.018542
      vertex 0.0024384 -0.011869941 -0.018542
      vertex -0.0024384 -0.011938 -0.018796
    endloop
  endfacet
  facet normal 0.0 0.9659259164904278 -0.2588187084662297
    outer loop
      vertex 0.0024384 -0.011869941 -0.018542
      vertex 0.0024384 -0.011938 -0.018796
      vertex -0.0024384 -0.011938 -0.018796
    endloop
  endfacet
  facet normal 0.0 0.0 -1.0
    outer loop
      vertex -0.0024384 -0.01143 -0.018288
      vertex -5.715E-4 -0.009752867 -0.018288
      vertex 1.8967125E-18 -0.009906 -0.018288
    endloop
  endfacet
  facet normal 0.0 0.0 -1.0
    outer loop
      vertex -0.0024384 -0.01143 -0.018288
      vertex 1.8967125E-18 -0.009906 -0.018288
      vertex 0.0024384 -0.01143 -0.018288
    endloop
  endfacet
  facet normal 0.0 0.0 -1.0
    outer loop
      vertex 1.8967125E-18 -0.009906 -0.018288
      vertex 5.715E-4 -0.009752867 -0.018288
      vertex 0.0024384 -0.01143 -0.018288
    endloop
  endfacet
  facet normal 0.0 0.0 -1.0
    outer loop
      vertex 5.715E-4 -0.009752867 -0.018288
      vertex 9.89867E-4 -0.0093345 -0.018288
      vertex 0.0024384 -0.01143 -0.018288
    endloop
  endfacet
  facet normal 0.0 0.0 -1.0
    outer loop
      vertex 0.0024384 -0.01143 -0.018288
      vertex 9.89867E-4 -0.0093345 -0.018288
      vertex 0.0024384 -0.008763 -0.018288
    endloop
  endfacet
  facet normal 0.0 0.0 -1.0
    outer loop
      vertex 9.89867E-4 -0.0093345 -0.018288
      vertex 0.001143 -0.008763 -0.018288
      vertex 0.0024384 -0.008763 -0.018288
    endloop
  endfacet
  facet normal 0.0 0.0 -1.0
    outer loop
      vertex 0.0024384 -0.008763 -0.018288
      vertex 0.001143 -0.008763 -0.018288
      vertex 0.0021117164 -0.0075438 -0.018288
    endloop
  endfacet
  facet normal 0.0 0.0 -1.0
    outer loop
      vertex 0.001143 -0.008763 -0.018288
      vertex 9.89867E-4 -0.0081915 -0.018288
      vertex 0.0021117164 -0.0075438 -0.018288
    endloop
  endfacet
  facet normal -0.0 0.0 -1.0
    outer loop
      vertex 0.0021117164 -0.0075438 -0.018288
      vertex 9.89867E-4 -0.0081915 -0.018288
      vertex 0.0012192 -0.0066512837 -0.018288
    endloop
  endfacet
  facet normal 0.0 0.0 -1.0
    outer loop
      vertex 9.89867E-4 -0.0081915 -0.018288
      vertex 5.715E-4 -0.007773133 -0.018288
      vertex 0.0012192 -0.0066512837 -0.018288
    endloop
  endfacet
  facet normal -0.0 0.0 -1.0
    outer loop
      vertex 0.0012192 -0.0066512837 -0.018288
      vertex 5.715E-4 -0.007773133 -0.018288
      vertex 3.8126086E-18 -0.0063246 -0.018288
    endloop
  endfacet
  facet normal 0.0 0.0 -1.0
    outer loop
      vertex 5.715E-4 -0.007773133 -0.018288
      vertex 3.4456519E-18 -0.00762 -0.018288
      vertex 3.8126086E-18 -0.0063246 -0.018288
    endloop
  endfacet
  facet normal 0.0 0.0 -1.0
    outer loop
      vertex 3.8126086E-18 -0.0063246 -0.018288
      vertex 3.4456519E-18 -0.00762 -0.018288
      vertex -0.0012192 -0.0066512837 -0.018288
    endloop
  endfacet
  facet normal -0.0 0.0 -1.0
    outer loop
      vertex 3.4456519E-18 -0.00762 -0.018288
      vertex -5.715E-4 -0.007773133 -0.018288
      vertex -0.0012192 -0.0066512837 -0.018288
    endloop
  endfacet
  facet normal 0.0 -0.0 -1.0
    outer loop
      vertex -0.0012192 -0.0066512837 -0.018288
      vertex -5.715E-4 -0.007773133 -0.018288
      vertex -0.0021117164 -0.0075438 -0.018288
    endloop
  endfacet
  facet normal -0.0 0.0 -1.0
    outer loop
      vertex -5.715E-4 -0.007773133 -0.018288
      vertex -9.89867E-4 -0.0081915 -0.018288
      vertex -0.0021117164 -0.0075438 -0.018288
    endloop
  endfacet
  facet normal 0.0 -0.0 -1.0
    outer loop
      vertex -0.0021117164 -0.0075438 -0.018288
      vertex -9.89867E-4 -0.0081915 -0.018288
      vertex -0.0024384 -0.008763 -0.018288
    endloop
  endfacet
  facet normal 0.0 0.0 -1.0
    outer loop
      vertex -9.89867E-4 -0.0081915 -0.018288
      vertex -0.001143 -0.008763 -0.018288
      vertex -0.0024384 -0.008763 -0.018288
    endloop
  endfacet
  facet normal 0.0 0.0 -1.0
    outer loop
      vertex -0.0024384 -0.008763 -0.018288
      vertex -0.001143 -0.008763 -0.018288
      vertex -0.0024384 -0.01143 -0.018288
    endloop
  endfacet
  facet normal 0.0 -0.0 -1.0
    outer loop
      vertex -0.001143 -0.008763 -0.018288
      vertex -9.89867E-4 -0.0093345 -0.018288
      vertex -0.0024384 -0.01143 -0.018288
    endloop
  endfacet
  facet normal 0.0 0.0 -1.0
    outer loop
      vertex -0.0024384 -0.01143 -0.018288
      vertex -9.89867E-4 -0.0093345 -0.018288
      vertex -5.715E-4 -0.009752867 -0.018288
    endloop
  endfacet
  facet normal 0.0 -0.9659257263475373 0.2588194180891038
    outer loop
      vertex -0.0024384 -0.0127 -0.018796
      vertex 0.0024384 -0.0127 -0.018796
      vertex 0.0024384 -0.012529852 -0.018161
    endloop
  endfacet
  facet normal 0.0 -0.9659257263475373 0.2588194180891038
    outer loop
      vertex -0.0024384 -0.0127 -0.018796
      vertex 0.0024384 -0.012529852 -0.018161
      vertex -0.0024384 -0.012529852 -0.018161
    endloop
  endfacet
  facet normal 0.0 -0.7071067811865489 0.7071067811865462
    outer loop
      vertex 0.0024384 -0.012529852 -0.018161
      vertex 0.0024384 -0.012065 -0.017696148
      vertex -0.0024384 -0.012529852 -0.018161
    endloop
  endfacet
  facet normal 0.0 -0.7071067811865489 0.7071067811865462
    outer loop
      vertex -0.0024384 -0.012529852 -0.018161
      vertex 0.0024384 -0.012065 -0.017696148
      vertex -0.0024384 -0.012065 -0.017696148
    endloop
  endfacet
  facet normal 0.0 -0.25881941808910136 0.965925726347538
    outer loop
      vertex 0.0024384 -0.012065 -0.017696148
      vertex 0.0024384 -0.01143 -0.017526
      vertex -0.0024384 -0.012065 -0.017696148
    endloop
  endfacet
  facet normal 0.0 -0.25881941808910136 0.965925726347538
    outer loop
      vertex -0.0024384 -0.012065 -0.017696148
      vertex 0.0024384 -0.01143 -0.017526
      vertex -0.0024384 -0.01143 -0.017526
    endloop
  endfacet
  facet normal -1.0 0.0 0.0
    outer loop
      vertex -0.0024384 -0.011938 -0.021336
      vertex -0.0024384 -0.0127 -0.021336
      vertex -0.0024384 -0.011938 -0.018796
    endloop
  endfacet
  facet normal -1.0 0.0 0.0
    outer loop
      vertex -0.0024384 -0.0127 -0.021336
      vertex -0.0024384 -0.0127 -0.018796
      vertex -0.0024384 -0.011938 -0.018796
    endloop
  endfacet
  facet normal -1.0 0.0 0.0
    outer loop
      vertex -0.0024384 -0.011938 -0.018796
      vertex -0.0024384 -0.0127 -0.018796
      vertex -0.0024384 -0.011869941 -0.018542
    endloop
  endfacet
  facet normal -1.0 0.0 0.0
    outer loop
      vertex -0.0024384 -0.0127 -0.018796
      vertex -0.0024384 -0.012529852 -0.018161
      vertex -0.0024384 -0.011869941 -0.018542
    endloop
  endfacet
  facet normal -1.0 0.0 0.0
    outer loop
      vertex -0.0024384 -0.011869941 -0.018542
      vertex -0.0024384 -0.012529852 -0.018161
      vertex -0.0024384 -0.011684 -0.018356059
    endloop
  endfacet
  facet normal -1.0 0.0 0.0
    outer loop
      vertex -0.0024384 -0.012529852 -0.018161
      vertex -0.0024384 -0.012065 -0.017696148
      vertex -0.0024384 -0.011684 -0.018356059
    endloop
  endfacet
  facet normal -1.0 0.0 0.0
    outer loop
      vertex -0.0024384 -0.011684 -0.018356059
      vertex -0.0024384 -0.012065 -0.017696148
      vertex -0.0024384 -0.01143 -0.018288
    endloop
  endfacet
  facet normal -1.0 0.0 0.0
    outer loop
      vertex -0.0024384 -0.012065 -0.017696148
      vertex -0.0024384 -0.01143 -0.017526
      vertex -0.0024384 -0.01143 -0.018288
    endloop
  endfacet
  facet normal -1.0 0.0 0.0
    outer loop
      vertex -0.0024384 -0.01143 -0.018288
      vertex -0.0024384 -0.01143 -0.017526
      vertex -0.0024384 -0.008763 -0.018288
    endloop
  endfacet
  facet normal -1.0 0.0 0.0
    outer loop
      vertex -0.0024384 -0.01143 -0.017526
      vertex -0.0024384 -0.008763 -0.017526
      vertex -0.0024384 -0.008763 -0.018288
    endloop
  endfacet
  facet normal -0.0 -0.9899494441419693 -0.14142170287125697
    outer loop
      vertex 0.002032 -0.012573 -0.027686
      vertex 0.002831651 -0.012687236 -0.02688635
      vertex -0.002032 -0.012573 -0.027686
    endloop
  endfacet
  facet normal -0.0 -0.9899494441419693 -0.14142170287125694
    outer loop
      vertex 0.002831651 -0.012687236 -0.02688635
      vertex -0.002831651 -0.012687236 -0.02688635
      vertex -0.002032 -0.012573 -0.027686
    endloop
  endfacet
  facet normal 0.0 -1.0 0.0
    outer loop
      vertex -5.207E-4 -0.0127 -0.02282172
      vertex 2.5506944E-19 -0.0127 -0.0226822
      vertex 0.0024384 -0.0127 -0.021336
    endloop
  endfacet
  facet normal 0.0 -1.0 0.0
    outer loop
      vertex 2.5506944E-19 -0.0127 -0.0226822
      vertex 5.207E-4 -0.0127 -0.02282172
      vertex 0.0024384 -0.0127 -0.021336
    endloop
  endfacet
  facet normal 0.0 -1.0 -0.0
    outer loop
      vertex 0.0024384 -0.0127 -0.021336
      vertex 5.207E-4 -0.0127 -0.02282172
      vertex 0.003175 -0.0127 -0.021336
    endloop
  endfacet
  facet normal 0.0 -1.0 0.0
    outer loop
      vertex 5.207E-4 -0.0127 -0.02282172
      vertex 9.0187887E-4 -0.0127 -0.0232029
      vertex 0.003175 -0.0127 -0.021336
    endloop
  endfacet
  facet normal 0.0 -1.0 0.0
    outer loop
      vertex 9.0187887E-4 -0.0127 -0.0232029
      vertex 0.0010414 -0.0127 -0.0237236
      vertex 0.003175 -0.0127 -0.021336
    endloop
  endfacet
  facet normal 0.0 -1.0 -0.0
    outer loop
      vertex 0.003175 -0.0127 -0.021336
      vertex 0.0010414 -0.0127 -0.0237236
      vertex 0.003175 -0.0127 -0.026543
    endloop
  endfacet
  facet normal 0.0 -1.0 -0.0
    outer loop
      vertex 0.0010414 -0.0127 -0.0237236
      vertex 9.0187887E-4 -0.0127 -0.0242443
      vertex 0.003175 -0.0127 -0.026543
    endloop
  endfacet
  facet normal -0.0 -1.0 0.0
    outer loop
      vertex 0.003175 -0.0127 -0.026543
      vertex 9.0187887E-4 -0.0127 -0.0242443
      vertex 0.0030112562 -0.0127 -0.026706744
    endloop
  endfacet
  facet normal 0.0 -1.0 -0.0
    outer loop
      vertex 9.0187887E-4 -0.0127 -0.0242443
      vertex 5.207E-4 -0.0127 -0.024625478
      vertex 0.0030112562 -0.0127 -0.026706744
    endloop
  endfacet
  facet normal 0.0 -1.0 -0.0
    outer loop
      vertex 5.207E-4 -0.0127 -0.024625478
      vertex -5.900092E-19 -0.0127 -0.024765
      vertex 0.0030112562 -0.0127 -0.026706744
    endloop
  endfacet
  facet normal 0.0 -1.0 0.0
    outer loop
      vertex 0.0030112562 -0.0127 -0.026706744
      vertex -5.900092E-19 -0.0127 -0.024765
      vertex -0.0030112562 -0.0127 -0.026706744
    endloop
  endfacet
  facet normal -0.0 -1.0 0.0
    outer loop
      vertex -5.900092E-19 -0.0127 -0.024765
      vertex -5.207E-4 -0.0127 -0.024625478
      vertex -0.0030112562 -0.0127 -0.026706744
    endloop
  endfacet
  facet normal 0.0 -1.0 0.0
    outer loop
      vertex -0.0030112562 -0.0127 -0.026706744
      vertex -5.207E-4 -0.0127 -0.024625478
      vertex -0.003175 -0.0127 -0.026543
    endloop
  endfacet
  facet normal -0.0 -1.0 0.0
    outer loop
      vertex -5.207E-4 -0.0127 -0.024625478
      vertex -9.0187887E-4 -0.0127 -0.0242443
      vertex -0.003175 -0.0127 -0.026543
    endloop
  endfacet
  facet normal 0.0 -1.0 0.0
    outer loop
      vertex -0.003175 -0.0127 -0.026543
      vertex -9.0187887E-4 -0.0127 -0.0242443
      vertex -0.003175 -0.0127 -0.021336
    endloop
  endfacet
  facet normal 0.0 -1.0 0.0
    outer loop
      vertex -9.0187887E-4 -0.0127 -0.0242443
      vertex -0.0010414 -0.0127 -0.0237236
      vertex -0.003175 -0.0127 -0.021336
    endloop
  endfacet
  facet normal 0.0 -1.0 0.0
    outer loop
      vertex -0.003175 -0.0127 -0.021336
      vertex -0.0010414 -0.0127 -0.0237236
      vertex -0.0024384 -0.0127 -0.021336
    endloop
  endfacet
  facet normal 0.0 -1.0 0.0
    outer loop
      vertex -0.0010414 -0.0127 -0.0237236
      vertex -9.0187887E-4 -0.0127 -0.0232029
      vertex -0.0024384 -0.0127 -0.021336
    endloop
  endfacet
  facet normal 0.0 -1.0 0.0
    outer loop
      vertex -0.0024384 -0.0127 -0.021336
      vertex -9.0187887E-4 -0.0127 -0.0232029
      vertex -0.0024384 -0.0127 -0.018796
    endloop
  endfacet
  facet normal 0.0 -1.0 0.0
    outer loop
      vertex -9.0187887E-4 -0.0127 -0.0232029
      vertex -5.207E-4 -0.0127 -0.02282172
      vertex -0.0024384 -0.0127 -0.018796
    endloop
  endfacet
  facet normal 0.0 -1.0 0.0
    outer loop
      vertex -0.0024384 -0.0127 -0.018796
      vertex -5.207E-4 -0.0127 -0.02282172
      vertex 0.0024384 -0.0127 -0.018796
    endloop
  endfacet
  facet normal 0.0 -1.0 0.0
    outer loop
      vertex -5.207E-4 -0.0127 -0.02282172
      vertex 0.0024384 -0.0127 -0.021336
      vertex 0.0024384 -0.0127 -0.018796
    endloop
  endfacet
  facet normal 0.0 0.9974842894813427 -0.07088788498679548
    outer loop
      vertex -0.002831651 -0.011950764 -0.02688635
      vertex -0.0030112562 -0.011938 -0.026706744
      vertex 0.002831651 -0.011950764 -0.02688635
    endloop
  endfacet
  facet normal 0.0 0.9974842894813426 -0.07088788498679548
    outer loop
      vertex -0.0030112562 -0.011938 -0.026706744
      vertex 0.0030112562 -0.011938 -0.026706744
      vertex 0.002831651 -0.011950764 -0.02688635
    endloop
  endfacet
  facet normal 1.0 0.0 -0.0
    outer loop
      vertex 0.0024384 -0.008763 -0.018288
      vertex 0.0024384 -0.008763 -0.017526
      vertex 0.0024384 -0.01143 -0.018288
    endloop
  endfacet
  facet normal 1.0 0.0 0.0
    outer loop
      vertex 0.0024384 -0.008763 -0.017526
      vertex 0.0024384 -0.01143 -0.017526
      vertex 0.0024384 -0.01143 -0.018288
    endloop
  endfacet
  facet normal 1.0 0.0 -0.0
    outer loop
      vertex 0.0024384 -0.01143 -0.018288
      vertex 0.0024384 -0.01143 -0.017526
      vertex 0.0024384 -0.011684 -0.018356059
    endloop
  endfacet
  facet normal 1.0 0.0 0.0
    outer loop
      vertex 0.0024384 -0.01143 -0.017526
      vertex 0.0024384 -0.012065 -0.017696148
      vertex 0.0024384 -0.011684 -0.018356059
    endloop
  endfacet
  facet normal 1.0 0.0 0.0
    outer loop
      vertex 0.0024384 -0.011684 -0.018356059
      vertex 0.0024384 -0.012065 -0.017696148
      vertex 0.0024384 -0.011869941 -0.018542
    endloop
  endfacet
  facet normal 1.0 0.0 0.0
    outer loop
      vertex 0.0024384 -0.012065 -0.017696148
      vertex 0.0024384 -0.012529852 -0.018161
      vertex 0.0024384 -0.011869941 -0.018542
    endloop
  endfacet
  facet normal 1.0 0.0 0.0
    outer loop
      vertex 0.0024384 -0.011869941 -0.018542
      vertex 0.0024384 -0.012529852 -0.018161
      vertex 0.0024384 -0.011938 -0.018796
    endloop
  endfacet
  facet normal 1.0 0.0 0.0
    outer loop
      vertex 0.0024384 -0.012529852 -0.018161
      vertex 0.0024384 -0.0127 -0.018796
      vertex 0.0024384 -0.011938 -0.018796
    endloop
  endfacet
  facet normal 1.0 0.0 0.0
    outer loop
      vertex 0.0024384 -0.011938 -0.018796
      vertex 0.0024384 -0.0127 -0.018796
      vertex 0.0024384 -0.011938 -0.021336
    endloop
  endfacet
  facet normal 1.0 0.0 0.0
    outer loop
      vertex 0.0024384 -0.0127 -0.018796
      vertex 0.0024384 -0.0127 -0.021336
      vertex 0.0024384 -0.011938 -0.021336
    endloop
  endfacet
  facet normal 0.0 -0.9974842894813418 -0.07088788498680505
    outer loop
      vertex -0.0030112562 -0.0127 -0.026706744
      vertex -0.002831651 -0.012687236 -0.02688635
      vertex 0.0030112562 -0.0127 -0.026706744
    endloop
  endfacet
  facet normal 0.0 -0.9974842894813418 -0.07088788498680505
    outer loop
      vertex -0.002831651 -0.012687236 -0.02688635
      vertex 0.002831651 -0.012687236 -0.02688635
      vertex 0.0030112562 -0.0127 -0.026706744
    endloop
  endfacet
  facet normal -0.9659258372642778 0.25881900414247716 0.0
    outer loop
      vertex -0.0024384 -0.008763 -0.018288
      vertex -0.0024384 -0.008763 -0.017526
      vertex -0.0021117164 -0.0075438 -0.017526
    endloop
  endfacet
  facet normal -0.9659258372642778 0.25881900414247716 0.0
    outer loop
      vertex -0.0024384 -0.008763 -0.018288
      vertex -0.0021117164 -0.0075438 -0.017526
      vertex -0.0021117164 -0.0075438 -0.018288
    endloop
  endfacet
  facet normal -0.7071067415734468 0.7071068207996462 0.0
    outer loop
      vertex -0.0021117164 -0.0075438 -0.017526
      vertex -0.0012192 -0.0066512837 -0.017526
      vertex -0.0021117164 -0.0075438 -0.018288
    endloop
  endfacet
  facet normal -0.7071067415734468 0.7071068207996462 0.0
    outer loop
      vertex -0.0021117164 -0.0075438 -0.018288
      vertex -0.0012192 -0.0066512837 -0.017526
      vertex -0.0012192 -0.0066512837 -0.018288
    endloop
  endfacet
  facet normal -0.25881907806152765 0.9659258174577285 0.0
    outer loop
      vertex -0.0012192 -0.0066512837 -0.017526
      vertex 3.8126086E-18 -0.0063246 -0.017526
      vertex -0.0012192 -0.0066512837 -0.018288
    endloop
  endfacet
  facet normal -0.25881907806152765 0.9659258174577285 0.0
    outer loop
      vertex -0.0012192 -0.0066512837 -0.018288
      vertex 3.8126086E-18 -0.0063246 -0.017526
      vertex 3.8126086E-18 -0.0063246 -0.018288
    endloop
  endfacet
  facet normal 0.2588190780615291 0.9659258174577279 0.0
    outer loop
      vertex 3.8126086E-18 -0.0063246 -0.017526
      vertex 0.0012192 -0.0066512837 -0.017526
      vertex 3.8126086E-18 -0.0063246 -0.018288
    endloop
  endfacet
  facet normal 0.2588190780615291 0.9659258174577279 0.0
    outer loop
      vertex 3.8126086E-18 -0.0063246 -0.018288
      vertex 0.0012192 -0.0066512837 -0.017526
      vertex 0.0012192 -0.0066512837 -0.018288
    endloop
  endfacet
  facet normal 0.7071067415734468 0.7071068207996462 0.0
    outer loop
      vertex 0.0012192 -0.0066512837 -0.017526
      vertex 0.0021117164 -0.0075438 -0.017526
      vertex 0.0012192 -0.0066512837 -0.018288
    endloop
  endfacet
  facet normal 0.7071067415734468 0.7071068207996462 0.0
    outer loop
      vertex 0.0012192 -0.0066512837 -0.018288
      vertex 0.0021117164 -0.0075438 -0.017526
      vertex 0.0021117164 -0.0075438 -0.018288
    endloop
  endfacet
  facet normal 0.9659258372642778 0.25881900414247716 0.0
    outer loop
      vertex 0.0021117164 -0.0075438 -0.017526
      vertex 0.0024384 -0.008763 -0.017526
      vertex 0.0021117164 -0.0075438 -0.018288
    endloop
  endfacet
  facet normal 0.9659258372642778 0.25881900414247716 0.0
    outer loop
      vertex 0.0021117164 -0.0075438 -0.018288
      vertex 0.0024384 -0.008763 -0.017526
      vertex 0.0024384 -0.008763 -0.018288
    endloop
  endfacet
  facet normal 0.0 0.0 1.0
    outer loop
      vertex -0.0024384 -0.01143 -0.017526
      vertex 0.0024384 -0.01143 -0.017526
      vertex -0.0024384 -0.008763 -0.017526
    endloop
  endfacet
  facet normal 0.0 -0.0 1.0
    outer loop
      vertex 0.0024384 -0.01143 -0.017526
      vertex 0.0024384 -0.008763 -0.017526
      vertex -0.0024384 -0.008763 -0.017526
    endloop
  endfacet
  facet normal 0.0 0.0 1.0
    outer loop
      vertex -0.0024384 -0.008763 -0.017526
      vertex 0.0024384 -0.008763 -0.017526
      vertex -0.0021117164 -0.0075438 -0.017526
    endloop
  endfacet
  facet normal 0.0 0.0 1.0
    outer loop
      vertex 3.8126086E-18 -0.0063246 -0.017526
      vertex -0.0012192 -0.0066512837 -0.017526
      vertex 0.0012192 -0.0066512837 -0.017526
    endloop
  endfacet
  facet normal -0.0 0.0 1.0
    outer loop
      vertex -0.0012192 -0.0066512837 -0.017526
      vertex -0.0021117164 -0.0075438 -0.017526
      vertex 0.0012192 -0.0066512837 -0.017526
    endloop
  endfacet
  facet normal 0.0 0.0 1.0
    outer loop
      vertex 0.0012192 -0.0066512837 -0.017526
      vertex -0.0021117164 -0.0075438 -0.017526
      vertex 0.0021117164 -0.0075438 -0.017526
    endloop
  endfacet
  facet normal -0.0 0.0 1.0
    outer loop
      vertex -0.0021117164 -0.0075438 -0.017526
      vertex 0.0024384 -0.008763 -0.017526
      vertex 0.0021117164 -0.0075438 -0.017526
    endloop
  endfacet
  facet normal 0.0 0.0 1.0
    outer loop
      vertex -0.0024384 -0.011938 -0.021336
      vertex -0.003175 -0.011938 -0.021336
      vertex -0.0024384 -0.0127 -0.021336
    endloop
  endfacet
  facet normal 0.0 0.0 1.0
    outer loop
      vertex -0.003175 -0.011938 -0.021336
      vertex -0.003175 -0.0127 -0.021336
      vertex -0.0024384 -0.0127 -0.021336
    endloop
  endfacet
  facet normal -1.0 -0.0 -0.0
    outer loop
      vertex -0.003175 -0.011938 -0.021336
      vertex -0.003175 -0.011938 -0.026543
      vertex -0.003175 -0.0127 -0.021336
    endloop
  endfacet
  facet normal -1.0 0.0 0.0
    outer loop
      vertex -0.003175 -0.011938 -0.026543
      vertex -0.003175 -0.0127 -0.026543
      vertex -0.003175 -0.0127 -0.021336
    endloop
  endfacet
  facet normal -0.7071072130234386 0.0 -0.7071063493493928
    outer loop
      vertex -0.003175 -0.0127 -0.026543
      vertex -0.003175 -0.011938 -0.026543
      vertex -0.0030112562 -0.0127 -0.026706744
    endloop
  endfacet
  facet normal -0.7071072130234386 0.0 -0.7071063493493928
    outer loop
      vertex -0.003175 -0.011938 -0.026543
      vertex -0.0030112562 -0.011938 -0.026706744
      vertex -0.0030112562 -0.0127 -0.026706744
    endloop
  endfacet
  facet normal -0.707108355983754 0.0 -0.7071052063858337
    outer loop
      vertex -0.0030112562 -0.0127 -0.026706744
      vertex -0.0030112562 -0.011938 -0.026706744
      vertex -0.002831651 -0.012687236 -0.02688635
    endloop
  endfacet
  facet normal -0.707108355983754 0.0 -0.7071052063858339
    outer loop
      vertex -0.0030112562 -0.011938 -0.026706744
      vertex -0.002831651 -0.011950764 -0.02688635
      vertex -0.002831651 -0.012687236 -0.02688635
    endloop
  endfacet
  facet normal -0.7071063390515129 0.0 -0.7071072233213057
    outer loop
      vertex -0.002831651 -0.012687236 -0.02688635
      vertex -0.002831651 -0.011950764 -0.02688635
      vertex -0.002032 -0.012573 -0.027686
    endloop
  endfacet
  facet normal -0.7071063390515128 0.0 -0.7071072233213057
    outer loop
      vertex -0.002831651 -0.011950764 -0.02688635
      vertex -0.002032 -0.012065 -0.027686
      vertex -0.002032 -0.012573 -0.027686
    endloop
  endfacet
  facet normal 0.0 0.0 -1.0
    outer loop
      vertex -0.002032 -0.012065 -0.027686
      vertex 0.002032 -0.012065 -0.027686
      vertex -0.002032 -0.012573 -0.027686
    endloop
  endfacet
  facet normal 0.0 -0.0 -1.0
    outer loop
      vertex 0.002032 -0.012065 -0.027686
      vertex 0.002032 -0.012573 -0.027686
      vertex -0.002032 -0.012573 -0.027686
    endloop
  endfacet
  facet normal 0.7071063390515129 0.0 -0.7071072233213057
    outer loop
      vertex 0.002032 -0.012573 -0.027686
      vertex 0.002032 -0.012065 -0.027686
      vertex 0.002831651 -0.012687236 -0.02688635
    endloop
  endfacet
  facet normal 0.7071063390515128 0.0 -0.7071072233213058
    outer loop
      vertex 0.002032 -0.012065 -0.027686
      vertex 0.002831651 -0.011950764 -0.02688635
      vertex 0.002831651 -0.012687236 -0.02688635
    endloop
  endfacet
  facet normal 0.707108355983754 0.0 -0.7071052063858339
    outer loop
      vertex 0.002831651 -0.012687236 -0.02688635
      vertex 0.002831651 -0.011950764 -0.02688635
      vertex 0.0030112562 -0.0127 -0.026706744
    endloop
  endfacet
  facet normal 0.707108355983754 0.0 -0.7071052063858337
    outer loop
      vertex 0.002831651 -0.011950764 -0.02688635
      vertex 0.0030112562 -0.011938 -0.026706744
      vertex 0.0030112562 -0.0127 -0.026706744
    endloop
  endfacet
  facet normal 0.7071072130234386 0.0 -0.7071063493493928
    outer loop
      vertex 0.0030112562 -0.0127 -0.026706744
      vertex 0.0030112562 -0.011938 -0.026706744
      vertex 0.003175 -0.0127 -0.026543
    endloop
  endfacet
  facet normal 0.7071072130234386 0.0 -0.7071063493493928
    outer loop
      vertex 0.0030112562 -0.011938 -0.026706744
      vertex 0.003175 -0.011938 -0.026543
      vertex 0.003175 -0.0127 -0.026543
    endloop
  endfacet
  facet normal 1.0 0.0 -0.0
    outer loop
      vertex 0.003175 -0.011938 -0.026543
      vertex 0.003175 -0.011938 -0.021336
      vertex 0.003175 -0.0127 -0.026543
    endloop
  endfacet
  facet normal 1.0 0.0 0.0
    outer loop
      vertex 0.003175 -0.011938 -0.021336
      vertex 0.003175 -0.0127 -0.021336
      vertex 0.003175 -0.0127 -0.026543
    endloop
  endfacet
  facet normal 0.0 0.0 1.0
    outer loop
      vertex 0.003175 -0.011938 -0.021336
      vertex 0.0024384 -0.011938 -0.021336
      vertex 0.003175 -0.0127 -0.021336
    endloop
  endfacet
  facet normal 0.0 0.0 1.0
    outer loop
      vertex 0.0024384 -0.011938 -0.021336
      vertex 0.0024384 -0.0127 -0.021336
      vertex 0.003175 -0.0127 -0.021336
    endloop
  endfacet
  facet normal 0.25881706421649386 8.66355953177759E-17 -0.9659263570637024
    outer loop
      vertex 0.0 -0.011938 -0.0226822
      vertex 2.5506944E-19 -0.0127 -0.0226822
      vertex -5.207E-4 -0.011938 -0.02282172
    endloop
  endfacet
  facet normal 0.2588170642164938 0.0 -0.9659263570637027
    outer loop
      vertex 2.5506944E-19 -0.0127 -0.0226822
      vertex -5.207E-4 -0.0127 -0.02282172
      vertex -5.207E-4 -0.011938 -0.02282172
    endloop
  endfacet
  facet normal 0.7071078292888269 0.0 -0.7071057330827145
    outer loop
      vertex -5.207E-4 -0.011938 -0.02282172
      vertex -5.207E-4 -0.0127 -0.02282172
      vertex -9.0187887E-4 -0.011938 -0.0232029
    endloop
  endfacet
  facet normal 0.7071078292888269 0.0 -0.7071057330827145
    outer loop
      vertex -5.207E-4 -0.0127 -0.02282172
      vertex -9.0187887E-4 -0.0127 -0.0232029
      vertex -9.0187887E-4 -0.011938 -0.0232029
    endloop
  endfacet
  facet normal 0.9659258330131166 0.0 -0.25881902000802903
    outer loop
      vertex -9.0187887E-4 -0.011938 -0.0232029
      vertex -9.0187887E-4 -0.0127 -0.0232029
      vertex -0.0010414 -0.011938 -0.0237236
    endloop
  endfacet
  facet normal 0.9659258330131166 0.0 -0.25881902000802903
    outer loop
      vertex -9.0187887E-4 -0.0127 -0.0232029
      vertex -0.0010414 -0.0127 -0.0237236
      vertex -0.0010414 -0.011938 -0.0237236
    endloop
  endfacet
  facet normal 0.9659258330131162 0.0 0.25881902000803064
    outer loop
      vertex -0.0010414 -0.011938 -0.0237236
      vertex -0.0010414 -0.0127 -0.0237236
      vertex -9.0187887E-4 -0.011938 -0.0242443
    endloop
  endfacet
  facet normal 0.9659258330131162 0.0 0.25881902000803064
    outer loop
      vertex -0.0010414 -0.0127 -0.0237236
      vertex -9.0187887E-4 -0.0127 -0.0242443
      vertex -9.0187887E-4 -0.011938 -0.0242443
    endloop
  endfacet
  facet normal 0.7071059742373675 0.0 0.7071075881348066
    outer loop
      vertex -9.0187887E-4 -0.011938 -0.0242443
      vertex -9.0187887E-4 -0.0127 -0.0242443
      vertex -5.207E-4 -0.011938 -0.024625478
    endloop
  endfacet
  facet normal 0.7071059742373675 0.0 0.7071075881348066
    outer loop
      vertex -9.0187887E-4 -0.0127 -0.0242443
      vertex -5.207E-4 -0.0127 -0.024625478
      vertex -5.207E-4 -0.011938 -0.024625478
    endloop
  endfacet
  facet normal 0.2588205257922656 0.0 0.9659254295382305
    outer loop
      vertex -5.207E-4 -0.011938 -0.024625478
      vertex -5.207E-4 -0.0127 -0.024625478
      vertex -5.900092E-19 -0.011938 -0.024765
    endloop
  endfacet
  facet normal 0.2588205257922656 0.0 0.9659254295382305
    outer loop
      vertex -5.207E-4 -0.0127 -0.024625478
      vertex -5.900092E-19 -0.0127 -0.024765
      vertex -5.900092E-19 -0.011938 -0.024765
    endloop
  endfacet
  facet normal -0.2588205257922651 0.0 0.9659254295382307
    outer loop
      vertex -5.900092E-19 -0.011938 -0.024765
      vertex -5.900092E-19 -0.0127 -0.024765
      vertex 5.207E-4 -0.011938 -0.024625478
    endloop
  endfacet
  facet normal -0.2588205257922651 0.0 0.9659254295382307
    outer loop
      vertex -5.900092E-19 -0.0127 -0.024765
      vertex 5.207E-4 -0.0127 -0.024625478
      vertex 5.207E-4 -0.011938 -0.024625478
    endloop
  endfacet
  facet normal -0.7071059742373675 0.0 0.7071075881348066
    outer loop
      vertex 5.207E-4 -0.011938 -0.024625478
      vertex 5.207E-4 -0.0127 -0.024625478
      vertex 9.0187887E-4 -0.011938 -0.0242443
    endloop
  endfacet
  facet normal -0.7071059742373675 0.0 0.7071075881348066
    outer loop
      vertex 5.207E-4 -0.0127 -0.024625478
      vertex 9.0187887E-4 -0.0127 -0.0242443
      vertex 9.0187887E-4 -0.011938 -0.0242443
    endloop
  endfacet
  facet normal -0.9659258330131162 0.0 0.25881902000803064
    outer loop
      vertex 9.0187887E-4 -0.011938 -0.0242443
      vertex 9.0187887E-4 -0.0127 -0.0242443
      vertex 0.0010414 -0.011938 -0.0237236
    endloop
  endfacet
  facet normal -0.9659258330131162 0.0 0.25881902000803064
    outer loop
      vertex 9.0187887E-4 -0.0127 -0.0242443
      vertex 0.0010414 -0.0127 -0.0237236
      vertex 0.0010414 -0.011938 -0.0237236
    endloop
  endfacet
  facet normal -0.9659258330131166 -0.0 -0.25881902000802903
    outer loop
      vertex 0.0010414 -0.011938 -0.0237236
      vertex 0.0010414 -0.0127 -0.0237236
      vertex 9.0187887E-4 -0.011938 -0.0232029
    endloop
  endfacet
  facet normal -0.9659258330131166 0.0 -0.25881902000802903
    outer loop
      vertex 0.0010414 -0.0127 -0.0237236
      vertex 9.0187887E-4 -0.0127 -0.0232029
      vertex 9.0187887E-4 -0.011938 -0.0232029
    endloop
  endfacet
  facet normal -0.7071078292888269 -0.0 -0.7071057330827145
    outer loop
      vertex 9.0187887E-4 -0.011938 -0.0232029
      vertex 9.0187887E-4 -0.0127 -0.0232029
      vertex 5.207E-4 -0.011938 -0.02282172
    endloop
  endfacet
  facet normal -0.7071078292888269 0.0 -0.7071057330827145
    outer loop
      vertex 9.0187887E-4 -0.0127 -0.0232029
      vertex 5.207E-4 -0.0127 -0.02282172
      vertex 5.207E-4 -0.011938 -0.02282172
    endloop
  endfacet
  facet normal -0.25881706421649386 -0.0 -0.9659263570637024
    outer loop
      vertex 5.207E-4 -0.011938 -0.02282172
      vertex 5.207E-4 -0.0127 -0.02282172
      vertex 0.0 -0.011938 -0.0226822
    endloop
  endfacet
  facet normal -0.258817064216494 -9.665916786362024E-17 -0.9659263570637024
    outer loop
      vertex 5.207E-4 -0.0127 -0.02282172
      vertex 2.5506944E-19 -0.0127 -0.0226822
      vertex 0.0 -0.011938 -0.0226822
    endloop
  endfacet
  facet normal 0.0 1.0 0.0
    outer loop
      vertex 9.0187887E-4 -0.011938 -0.0242443
      vertex 0.0010414 -0.011938 -0.0237236
      vertex 0.0024384 -0.011938 -0.021336
    endloop
  endfacet
  facet normal 0.0 1.0 -0.0
    outer loop
      vertex 0.0010414 -0.011938 -0.0237236
      vertex 9.0187887E-4 -0.011938 -0.0232029
      vertex 0.0024384 -0.011938 -0.021336
    endloop
  endfacet
  facet normal 0.0 1.0 -0.0
    outer loop
      vertex 0.0024384 -0.011938 -0.021336
      vertex 9.0187887E-4 -0.011938 -0.0232029
      vertex 0.0024384 -0.011938 -0.018796
    endloop
  endfacet
  facet normal 0.0 1.0 -0.0
    outer loop
      vertex 9.0187887E-4 -0.011938 -0.0232029
      vertex 5.207E-4 -0.011938 -0.02282172
      vertex 0.0024384 -0.011938 -0.018796
    endloop
  endfacet
  facet normal 0.0 1.0 -0.0
    outer loop
      vertex 5.207E-4 -0.011938 -0.02282172
      vertex 0.0 -0.011938 -0.0226822
      vertex 0.0024384 -0.011938 -0.018796
    endloop
  endfacet
  facet normal 0.0 1.0 0.0
    outer loop
      vertex 0.0024384 -0.011938 -0.018796
      vertex 0.0 -0.011938 -0.0226822
      vertex -0.0024384 -0.011938 -0.018796
    endloop
  endfacet
  facet normal 0.0 1.0 0.0
    outer loop
      vertex 0.0 -0.011938 -0.0226822
      vertex -5.207E-4 -0.011938 -0.02282172
      vertex -0.0024384 -0.011938 -0.018796
    endloop
  endfacet
  facet normal 0.0 1.0 0.0
    outer loop
      vertex -0.0024384 -0.011938 -0.018796
      vertex -5.207E-4 -0.011938 -0.02282172
      vertex -0.0024384 -0.011938 -0.021336
    endloop
  endfacet
  facet normal 0.0 1.0 0.0
    outer loop
      vertex -5.207E-4 -0.011938 -0.02282172
      vertex -9.0187887E-4 -0.011938 -0.0232029
      vertex -0.0024384 -0.011938 -0.021336
    endloop
  endfacet
  facet normal 0.0 1.0 0.0
    outer loop
      vertex -0.0024384 -0.011938 -0.021336
      vertex -9.0187887E-4 -0.011938 -0.0232029
      vertex -0.003175 -0.011938 -0.021336
    endloop
  endfacet
  facet normal 0.0 1.0 0.0
    outer loop
      vertex -9.0187887E-4 -0.011938 -0.0232029
      vertex -0.0010414 -0.011938 -0.0237236
      vertex -0.003175 -0.011938 -0.021336
    endloop
  endfacet
  facet normal 0.0 1.0 0.0
    outer loop
      vertex -0.003175 -0.011938 -0.021336
      vertex -0.0010414 -0.011938 -0.0237236
      vertex -0.003175 -0.011938 -0.026543
    endloop
  endfacet
  facet normal 0.0 1.0 0.0
    outer loop
      vertex -0.0010414 -0.011938 -0.0237236
      vertex -9.0187887E-4 -0.011938 -0.0242443
      vertex -0.003175 -0.011938 -0.026543
    endloop
  endfacet
  facet normal -0.0 1.0 0.0
    outer loop
      vertex -0.003175 -0.011938 -0.026543
      vertex -9.0187887E-4 -0.011938 -0.0242443
      vertex -0.0030112562 -0.011938 -0.026706744
    endloop
  endfacet
  facet normal -0.0 1.0 0.0
    outer loop
      vertex 0.0024384 -0.011938 -0.021336
      vertex 0.003175 -0.011938 -0.021336
      vertex 9.0187887E-4 -0.011938 -0.0242443
    endloop
  endfacet
  facet normal 0.0 1.0 0.0
    outer loop
      vertex 0.003175 -0.011938 -0.021336
      vertex 0.003175 -0.011938 -0.026543
      vertex 9.0187887E-4 -0.011938 -0.0242443
    endloop
  endfacet
  facet normal 0.0 1.0 0.0
    outer loop
      vertex 9.0187887E-4 -0.011938 -0.0242443
      vertex 0.003175 -0.011938 -0.026543
      vertex 5.207E-4 -0.011938 -0.024625478
    endloop
  endfacet
  facet normal 0.0 1.0 0.0
    outer loop
      vertex 0.003175 -0.011938 -0.026543
      vertex 0.0030112562 -0.011938 -0.026706744
      vertex 5.207E-4 -0.011938 -0.024625478
    endloop
  endfacet
  facet normal 0.0 1.0 0.0
    outer loop
      vertex 5.207E-4 -0.011938 -0.024625478
      vertex 0.0030112562 -0.011938 -0.026706744
      vertex -5.900092E-19 -0.011938 -0.024765
    endloop
  endfacet
  facet normal 0.0 1.0 0.0
    outer loop
      vertex 0.0030112562 -0.011938 -0.026706744
      vertex -0.0030112562 -0.011938 -0.026706744
      vertex -5.900092E-19 -0.011938 -0.024765
    endloop
  endfacet
  facet normal 0.0 1.0 0.0
    outer loop
      vertex -5.900092E-19 -0.011938 -0.024765
      vertex -0.0030112562 -0.011938 -0.026706744
      vertex -5.207E-4 -0.011938 -0.024625478
    endloop
  endfacet
  facet normal 0.0 1.0 0.0
    outer loop
      vertex -0.0030112562 -0.011938 -0.026706744
      vertex -9.0187887E-4 -0.011938 -0.0242443
      vertex -5.207E-4 -0.011938 -0.024625478
    endloop
  endfacet
endsolid toggle_switchSTEP_Switch_12V_LED_CLOSED_OFF_12
