solid toggle_switchSTEP_Switch_12V_LED_CLOSED_OFF_6
  facet normal 0.25056279166906475 -0.935112910913259 -0.250563627197437
    outer loop
      vertex 0.0 0.005969 0.00734695
      vertex -0.0029845 0.0051693055 0.00734695
      vertex 0.0 0.006071089 0.00696595
    endloop
  endfacet
  facet normal 0.25056287615897227 -0.9351130055771063 -0.25056318941834665
    outer loop
      vertex -0.0029845 0.0051693055 0.00734695
      vertex -0.0030355444 0.005257717 0.00696595
      vertex 0.0 0.006071089 0.00696595
    endloop
  endfacet
  facet normal 0.18615698954389073 -0.6947470617759356 -0.6947460654063902
    outer loop
      vertex 0.0 0.006071089 0.00696595
      vertex -0.0030355444 0.005257717 0.00696595
      vertex 0.0 0.00635 0.0066870386
    endloop
  endfacet
  facet normal 0.1861567659930467 -0.6947465790642667 -0.6947466080187141
    outer loop
      vertex -0.0030355444 0.005257717 0.00696595
      vertex -0.003175 0.0054992614 0.0066870386
      vertex 0.0 0.00635 0.0066870386
    endloop
  endfacet
  facet normal 0.06918415040851261 -0.2581987904945511 -0.9636114040002866
    outer loop
      vertex 0.0 0.00635 0.0066870386
      vertex -0.003175 0.0054992614 0.0066870386
      vertex 0.0 0.006731 0.00658495
    endloop
  endfacet
  facet normal 0.06918417018370528 -0.25819884024566914 -0.9636113892497243
    outer loop
      vertex -0.003175 0.0054992614 0.0066870386
      vertex -0.0033655 0.005829217 0.00658495
      vertex 0.0 0.006731 0.00658495
    endloop
  endfacet
  facet normal -0.0691841568220876 0.25819879037943266 -0.9636114035706587
    outer loop
      vertex 0.0 0.006731 0.00658495
      vertex -0.0033655 0.005829217 0.00658495
      vertex 0.0 0.007112 0.0066870386
    endloop
  endfacet
  facet normal -0.06918408245839099 0.2581985997689386 -0.963611459983613
    outer loop
      vertex -0.0033655 0.005829217 0.00658495
      vertex -0.003556 0.006159173 0.0066870386
      vertex 0.0 0.007112 0.0066870386
    endloop
  endfacet
  facet normal -0.1861568548441636 0.6947470798223035 -0.6947460834527323
    outer loop
      vertex 0.0 0.007112 0.0066870386
      vertex -0.003556 0.006159173 0.0066870386
      vertex 0.0 0.007390911 0.00696595
    endloop
  endfacet
  facet normal -0.1861568536028494 0.6947470769617168 -0.6947460866459325
    outer loop
      vertex -0.003556 0.006159173 0.0066870386
      vertex -0.0036954556 0.006400717 0.00696595
      vertex 0.0 0.007390911 0.00696595
    endloop
  endfacet
  facet normal -0.2505626704629386 0.9351129412147735 -0.25056363531673187
    outer loop
      vertex 0.0 0.007390911 0.00696595
      vertex -0.0036954556 0.006400717 0.00696595
      vertex 0.0 0.007493 0.00734695
    endloop
  endfacet
  facet normal -0.25056282443937505 0.9351131442017131 -0.25056272378418365
    outer loop
      vertex -0.0036954556 0.006400717 0.00696595
      vertex -0.0037465 0.0064891283 0.00734695
      vertex 0.0 0.007493 0.00734695
    endloop
  endfacet
  facet normal -0.25056276379699327 0.9351129178812745 0.2505636290645172
    outer loop
      vertex 0.0 0.007493 0.00734695
      vertex -0.0037465 0.0064891283 0.00734695
      vertex 0.0 0.007390911 0.00772795
    endloop
  endfacet
  facet normal -0.2505627319429374 0.9351131706613319 0.250562717531963
    outer loop
      vertex -0.0037465 0.0064891283 0.00734695
      vertex -0.0036954556 0.006400717 0.00772795
      vertex 0.0 0.007390911 0.00772795
    endloop
  endfacet
  facet normal -0.18615672552362159 0.6947465989633652 0.694746598963363
    outer loop
      vertex 0.0 0.007390911 0.00772795
      vertex -0.0036954556 0.006400717 0.00772795
      vertex 0.0 0.007112 0.008006861
    endloop
  endfacet
  facet normal -0.18615672516833742 0.6947465958653649 0.6947466021565614
    outer loop
      vertex -0.0036954556 0.006400717 0.00772795
      vertex -0.003556 0.006159173 0.008006861
      vertex 0.0 0.007112 0.008006861
    endloop
  endfacet
  facet normal -0.06918438534940687 0.2581997301739884 0.9636111353455317
    outer loop
      vertex 0.0 0.007112 0.008006861
      vertex -0.003556 0.006159173 0.008006861
      vertex 0.0 0.006731 0.00810895
    endloop
  endfacet
  facet normal -0.06918435444494747 0.25819952791799217 0.9636111917588763
    outer loop
      vertex -0.003556 0.006159173 0.008006861
      vertex -0.0033655 0.005829217 0.00810895
      vertex 0.0 0.006731 0.00810895
    endloop
  endfacet
  facet normal 0.06918440852780133 -0.2581997297579522 0.9636111337928691
    outer loop
      vertex 0.0 0.006731 0.00810895
      vertex -0.0033655 0.005829217 0.00810895
      vertex 0.0 0.00635 0.008006861
    endloop
  endfacet
  facet normal 0.06918441627756042 -0.25819978273144584 0.9636111190422033
    outer loop
      vertex -0.0033655 0.005829217 0.00810895
      vertex -0.003175 0.0054992614 0.008006861
      vertex 0.0 0.00635 0.008006861
    endloop
  endfacet
  facet normal 0.18615676973777728 -0.6947465930397929 0.6947465930397907
    outer loop
      vertex 0.0 0.00635 0.008006861
      vertex -0.003175 0.0054992614 0.008006861
      vertex 0.0 0.006071089 0.00772795
    endloop
  endfacet
  facet normal 0.18615672198244598 -0.694746063223434 0.6947471356517353
    outer loop
      vertex -0.003175 0.0054992614 0.008006861
      vertex -0.0030355444 0.005257717 0.00772795
      vertex 0.0 0.006071089 0.00772795
    endloop
  endfacet
  facet normal 0.25056284708190346 -0.9351128970600521 0.2505636234854679
    outer loop
      vertex 0.0 0.006071089 0.00772795
      vertex -0.0030355444 0.005257717 0.00772795
      vertex 0.0 0.005969 0.00734695
    endloop
  endfacet
  facet normal 0.25056282124343765 -0.9351130212863024 0.2505631857063857
    outer loop
      vertex -0.0030355444 0.005257717 0.00772795
      vertex -0.0029845 0.0051693055 0.00734695
      vertex 0.0 0.005969 0.00734695
    endloop
  endfacet
  facet normal 0.6845502512890657 -0.6845502512890657 -0.2505631794980138
    outer loop
      vertex -0.0029845 0.0051693055 0.00734695
      vertex -0.0051693055 0.0029845 0.00734695
      vertex -0.0030355444 0.005257717 0.00696595
    endloop
  endfacet
  facet normal 0.6845502512890658 -0.6845502512890658 -0.2505631794980139
    outer loop
      vertex -0.0051693055 0.0029845 0.00734695
      vertex -0.005257717 0.0030355444 0.00696595
      vertex -0.0030355444 0.005257717 0.00696595
    endloop
  endfacet
  facet normal 0.5085898399539246 -0.5085898399539246 -0.6947465360772104
    outer loop
      vertex -0.0030355444 0.005257717 0.00696595
      vertex -0.005257717 0.0030355444 0.00696595
      vertex -0.003175 0.0054992614 0.0066870386
    endloop
  endfacet
  facet normal 0.5085898399539246 -0.5085898399539246 -0.6947465360772105
    outer loop
      vertex -0.005257717 0.0030355444 0.00696595
      vertex -0.0054992614 0.003175 0.0066870386
      vertex -0.003175 0.0054992614 0.0066870386
    endloop
  endfacet
  facet normal 0.1890146595906158 -0.1890146595906158 -0.963611393103925
    outer loop
      vertex -0.003175 0.0054992614 0.0066870386
      vertex -0.0054992614 0.003175 0.0066870386
      vertex -0.0033655 0.005829217 0.00658495
    endloop
  endfacet
  facet normal 0.1890146595906158 -0.18901465959061578 -0.9636113931039251
    outer loop
      vertex -0.0054992614 0.003175 0.0066870386
      vertex -0.005829217 0.0033655 0.00658495
      vertex -0.0033655 0.005829217 0.00658495
    endloop
  endfacet
  facet normal -0.18901452470198435 0.18901452470198435 -0.9636114460213545
    outer loop
      vertex -0.0033655 0.005829217 0.00658495
      vertex -0.005829217 0.0033655 0.00658495
      vertex -0.003556 0.006159173 0.0066870386
    endloop
  endfacet
  facet normal -0.18901452470198432 0.18901452470198432 -0.9636114460213545
    outer loop
      vertex -0.005829217 0.0033655 0.00658495
      vertex -0.006159173 0.003556 0.0066870386
      vertex -0.003556 0.006159173 0.0066870386
    endloop
  endfacet
  facet normal -0.508590097678349 0.508590097678349 -0.6947461587422092
    outer loop
      vertex -0.003556 0.006159173 0.0066870386
      vertex -0.006159173 0.003556 0.0066870386
      vertex -0.0036954556 0.006400717 0.00696595
    endloop
  endfacet
  facet normal -0.508590097678349 0.508590097678349 -0.6947461587422092
    outer loop
      vertex -0.006159173 0.003556 0.0066870386
      vertex -0.006400717 0.0036954556 0.00696595
      vertex -0.0036954556 0.006400717 0.00696595
    endloop
  endfacet
  facet normal -0.6845503129248164 0.6845503129248164 -0.2505628427143022
    outer loop
      vertex -0.0036954556 0.006400717 0.00696595
      vertex -0.006400717 0.0036954556 0.00696595
      vertex -0.0037465 0.0064891283 0.00734695
    endloop
  endfacet
  facet normal -0.6845503129248163 0.6845503129248163 -0.2505628427143021
    outer loop
      vertex -0.006400717 0.0036954556 0.00696595
      vertex -0.0064891283 0.0037465 0.00734695
      vertex -0.0037465 0.0064891283 0.00734695
    endloop
  endfacet
  facet normal -0.6845503129248164 0.6845503129248164 0.25056284271430157
    outer loop
      vertex -0.0037465 0.0064891283 0.00734695
      vertex -0.0064891283 0.0037465 0.00734695
      vertex -0.0036954556 0.006400717 0.00772795
    endloop
  endfacet
  facet normal -0.6845503129248165 0.6845503129248163 0.2505628427143016
    outer loop
      vertex -0.0064891283 0.0037465 0.00734695
      vertex -0.006400717 0.0036954556 0.00772795
      vertex -0.0036954556 0.006400717 0.00772795
    endloop
  endfacet
  facet normal -0.5085897456201873 0.5085897456201873 0.6947466741913819
    outer loop
      vertex -0.0036954556 0.006400717 0.00772795
      vertex -0.006400717 0.0036954556 0.00772795
      vertex -0.003556 0.006159173 0.008006861
    endloop
  endfacet
  facet normal -0.5085897456201873 0.5085897456201873 0.694746674191382
    outer loop
      vertex -0.006400717 0.0036954556 0.00772795
      vertex -0.006159173 0.003556 0.008006861
      vertex -0.003556 0.006159173 0.008006861
    endloop
  endfacet
  facet normal -0.18901521237445482 0.18901521237445482 0.9636111762438623
    outer loop
      vertex -0.003556 0.006159173 0.008006861
      vertex -0.006159173 0.003556 0.008006861
      vertex -0.0033655 0.005829217 0.00810895
    endloop
  endfacet
  facet normal -0.18901521237445482 0.18901521237445482 0.963611176243862
    outer loop
      vertex -0.006159173 0.003556 0.008006861
      vertex -0.005829217 0.0033655 0.00810895
      vertex -0.0033655 0.005829217 0.00810895
    endloop
  endfacet
  facet normal 0.18901534726350144 -0.18901534726350144 0.9636111233260624
    outer loop
      vertex -0.0033655 0.005829217 0.00810895
      vertex -0.005829217 0.0033655 0.00810895
      vertex -0.003175 0.0054992614 0.008006861
    endloop
  endfacet
  facet normal 0.18901534726350144 -0.18901534726350147 0.9636111233260624
    outer loop
      vertex -0.005829217 0.0033655 0.00810895
      vertex -0.0054992614 0.003175 0.008006861
      vertex -0.003175 0.0054992614 0.008006861
    endloop
  endfacet
  facet normal 0.508589487895559 -0.508589487895559 0.6947470515261409
    outer loop
      vertex -0.003175 0.0054992614 0.008006861
      vertex -0.0054992614 0.003175 0.008006861
      vertex -0.0030355444 0.005257717 0.00772795
    endloop
  endfacet
  facet normal 0.508589487895559 -0.508589487895559 0.6947470515261408
    outer loop
      vertex -0.0054992614 0.003175 0.008006861
      vertex -0.005257717 0.0030355444 0.00772795
      vertex -0.0030355444 0.005257717 0.00772795
    endloop
  endfacet
  facet normal 0.6845502512890658 -0.6845502512890658 0.2505631794980133
    outer loop
      vertex -0.0030355444 0.005257717 0.00772795
      vertex -0.005257717 0.0030355444 0.00772795
      vertex -0.0029845 0.0051693055 0.00734695
    endloop
  endfacet
  facet normal 0.6845502512890659 -0.6845502512890659 0.2505631794980133
    outer loop
      vertex -0.005257717 0.0030355444 0.00772795
      vertex -0.0051693055 0.0029845 0.00734695
      vertex -0.0029845 0.0051693055 0.00734695
    endloop
  endfacet
  facet normal 0.9351130212863024 -0.2505628212434371 -0.2505631857063862
    outer loop
      vertex -0.0051693055 0.0029845 0.00734695
      vertex -0.005969 -5.8375525E-18 0.00734695
      vertex -0.005257717 0.0030355444 0.00696595
    endloop
  endfacet
  facet normal 0.9351128970600519 -0.25056284708190296 -0.25056362348546835
    outer loop
      vertex -0.005969 -5.8375525E-18 0.00734695
      vertex -0.006071089 -5.875698E-18 0.00696595
      vertex -0.005257717 0.0030355444 0.00696595
    endloop
  endfacet
  facet normal 0.6947465441441543 -0.18615685084481642 -0.6947466202028588
    outer loop
      vertex -0.005257717 0.0030355444 0.00696595
      vertex -0.006071089 -5.875698E-18 0.00696595
      vertex -0.0054992614 0.003175 0.0066870386
    endloop
  endfacet
  facet normal 0.6947470739601287 -0.1861568985999795 -0.6947460775905657
    outer loop
      vertex -0.006071089 -5.875698E-18 0.00696595
      vertex -0.00635 -6.0736336E-18 0.0066870386
      vertex -0.0054992614 0.003175 0.0066870386
    endloop
  endfacet
  facet normal 0.25819884335276244 -0.0691841645718261 -0.9636113888200959
    outer loop
      vertex -0.0054992614 0.003175 0.0066870386
      vertex -0.00635 -6.0736336E-18 0.0066870386
      vertex -0.005829217 0.0033655 0.00658495
    endloop
  endfacet
  facet normal 0.2581987903794327 -0.06918415682208749 -0.9636114035706586
    outer loop
      vertex -0.00635 -6.0736336E-18 0.0066870386
      vertex -0.006731 -6.378324E-18 0.00658495
      vertex -0.005829217 0.0033655 0.00658495
    endloop
  endfacet
  facet normal -0.258198588540094 0.06918410273940011 -0.9636114615362602
    outer loop
      vertex -0.005829217 0.0033655 0.00658495
      vertex -0.006731 -6.378324E-18 0.00658495
      vertex -0.006159173 0.003556 0.0066870386
    endloop
  endfacet
  facet normal -0.25819879079546426 0.06918413364377653 -0.9636114051233101
    outer loop
      vertex -0.006731 -6.378324E-18 0.00658495
      vertex -0.007112 -6.7081262E-18 0.0066870386
      vertex -0.006159173 0.003556 0.0066870386
    endloop
  endfacet
  facet normal -0.6947470767857152 0.18615685403051216 -0.6947460867073423
    outer loop
      vertex -0.006159173 0.003556 0.0066870386
      vertex -0.007112 -6.7081262E-18 0.0066870386
      vertex -0.006400717 0.0036954556 0.00696595
    endloop
  endfacet
  facet normal -0.6947470798837134 0.18615685438579543 -0.6947460835141419
    outer loop
      vertex -0.007112 -6.7081262E-18 0.0066870386
      vertex -0.007390911 -6.974671E-18 0.00696595
      vertex -0.006400717 0.0036954556 0.00696595
    endloop
  endfacet
  facet normal -0.935113170661332 0.2505627319429369 -0.2505627175319635
    outer loop
      vertex -0.006400717 0.0036954556 0.00696595
      vertex -0.007390911 -6.974671E-18 0.00696595
      vertex -0.0064891283 0.0037465 0.00734695
    endloop
  endfacet
  facet normal -0.9351129178812745 0.2505627637969928 -0.2505636290645177
    outer loop
      vertex -0.007390911 -6.974671E-18 0.00696595
      vertex -0.007493 -7.106538E-18 0.00734695
      vertex -0.0064891283 0.0037465 0.00734695
    endloop
  endfacet
  facet normal -0.9351131442017133 0.25056282443937467 0.2505627237841831
    outer loop
      vertex -0.0064891283 0.0037465 0.00734695
      vertex -0.007493 -7.106538E-18 0.00734695
      vertex -0.006400717 0.0036954556 0.00772795
    endloop
  endfacet
  facet normal -0.9351129412147737 0.2505626704629383 0.2505636353167313
    outer loop
      vertex -0.007493 -7.106538E-18 0.00734695
      vertex -0.007390911 -7.068392E-18 0.00772795
      vertex -0.006400717 0.0036954556 0.00772795
    endloop
  endfacet
  facet normal -0.6947465960413666 0.18615672474067435 0.6947466020951517
    outer loop
      vertex -0.006400717 0.0036954556 0.00772795
      vertex -0.007390911 -7.068392E-18 0.00772795
      vertex -0.006159173 0.003556 0.008006861
    endloop
  endfacet
  facet normal -0.6947465989019558 0.18615672598198887 0.6947465989019533
    outer loop
      vertex -0.007390911 -7.068392E-18 0.00772795
      vertex -0.007112 -6.8704563E-18 0.008006861
      vertex -0.006159173 0.003556 0.008006861
    endloop
  endfacet
  facet normal -0.2581995391468748 0.06918433416386355 0.9636111902062182
    outer loop
      vertex -0.006159173 0.003556 0.008006861
      vertex -0.007112 -6.8704563E-18 0.008006861
      vertex -0.005829217 0.0033655 0.00810895
    endloop
  endfacet
  facet normal -0.2581997297579523 0.06918440852780122 0.9636111337928691
    outer loop
      vertex -0.007112 -6.8704563E-18 0.008006861
      vertex -0.006731 -6.5657664E-18 0.00810895
      vertex -0.005829217 0.0033655 0.00810895
    endloop
  endfacet
  facet normal 0.2581997796243423 -0.06918442188946003 0.9636111194718345
    outer loop
      vertex -0.005829217 0.0033655 0.00810895
      vertex -0.006731 -6.5657664E-18 0.00810895
      vertex -0.0054992614 0.003175 0.008006861
    endloop
  endfacet
  facet normal 0.25819972987307194 -0.06918440211420311 0.9636111342224999
    outer loop
      vertex -0.006731 -6.5657664E-18 0.00810895
      vertex -0.00635 -6.235964E-18 0.008006861
      vertex -0.0054992614 0.003175 0.008006861
    endloop
  endfacet
  facet normal 0.6947460981435393 -0.18615663713073882 0.6947471234675981
    outer loop
      vertex -0.0054992614 0.003175 0.008006861
      vertex -0.00635 -6.235964E-18 0.008006861
      vertex -0.005257717 0.0030355444 0.00772795
    endloop
  endfacet
  facet normal 0.6947465808556252 -0.18615686068162943 0.6947465808556229
    outer loop
      vertex -0.00635 -6.235964E-18 0.008006861
      vertex -0.006071089 -5.969419E-18 0.00772795
      vertex -0.005257717 0.0030355444 0.00772795
    endloop
  endfacet
  facet normal 0.9351130055771067 -0.2505628761589719 0.25056318941834615
    outer loop
      vertex -0.005257717 0.0030355444 0.00772795
      vertex -0.006071089 -5.969419E-18 0.00772795
      vertex -0.0051693055 0.0029845 0.00734695
    endloop
  endfacet
  facet normal 0.9351129109132592 -0.2505627916690643 0.25056362719743647
    outer loop
      vertex -0.006071089 -5.969419E-18 0.00772795
      vertex -0.005969 -5.8375525E-18 0.00734695
      vertex -0.0051693055 0.0029845 0.00734695
    endloop
  endfacet
  facet normal 0.9351129109132588 0.2505627916690652 -0.2505636271974371
    outer loop
      vertex -0.005969 -5.8375525E-18 0.00734695
      vertex -0.0051693055 -0.0029845 0.00734695
      vertex -0.006071089 -5.875698E-18 0.00696595
    endloop
  endfacet
  facet normal 0.9351130055771062 0.2505628761589727 -0.2505631894183467
    outer loop
      vertex -0.0051693055 -0.0029845 0.00734695
      vertex -0.005257717 -0.0030355444 0.00696595
      vertex -0.006071089 -5.875698E-18 0.00696595
    endloop
  endfacet
  facet normal 0.6947470617759354 0.18615698954389107 -0.6947460654063902
    outer loop
      vertex -0.006071089 -5.875698E-18 0.00696595
      vertex -0.005257717 -0.0030355444 0.00696595
      vertex -0.00635 -6.0736336E-18 0.0066870386
    endloop
  endfacet
  facet normal 0.6947465790642665 0.186156765993047 -0.6947466080187141
    outer loop
      vertex -0.005257717 -0.0030355444 0.00696595
      vertex -0.0054992614 -0.003175 0.0066870386
      vertex -0.00635 -6.0736336E-18 0.0066870386
    endloop
  endfacet
  facet normal 0.25819879049455097 0.06918415040851272 -0.9636114040002864
    outer loop
      vertex -0.00635 -6.0736336E-18 0.0066870386
      vertex -0.0054992614 -0.003175 0.0066870386
      vertex -0.006731 -6.378324E-18 0.00658495
    endloop
  endfacet
  facet normal 0.258198840245669 0.06918417018370539 -0.9636113892497242
    outer loop
      vertex -0.0054992614 -0.003175 0.0066870386
      vertex -0.005829217 -0.0033655 0.00658495
      vertex -0.006731 -6.378324E-18 0.00658495
    endloop
  endfacet
  facet normal -0.25819879037943255 -0.06918415682208773 -0.9636114035706586
    outer loop
      vertex -0.006731 -6.378324E-18 0.00658495
      vertex -0.005829217 -0.0033655 0.00658495
      vertex -0.007112 -6.7081262E-18 0.0066870386
    endloop
  endfacet
  facet normal -0.25819859976893855 -0.0691840824583911 -0.963611459983613
    outer loop
      vertex -0.005829217 -0.0033655 0.00658495
      vertex -0.006159173 -0.003556 0.0066870386
      vertex -0.007112 -6.7081262E-18 0.0066870386
    endloop
  endfacet
  facet normal -0.6947470798223033 -0.18615685484416392 -0.6947460834527324
    outer loop
      vertex -0.007112 -6.7081262E-18 0.0066870386
      vertex -0.006159173 -0.003556 0.0066870386
      vertex -0.007390911 -6.974671E-18 0.00696595
    endloop
  endfacet
  facet normal -0.6947470769617166 -0.18615685360284967 -0.6947460866459325
    outer loop
      vertex -0.006159173 -0.003556 0.0066870386
      vertex -0.006400717 -0.0036954556 0.00696595
      vertex -0.007390911 -6.974671E-18 0.00696595
    endloop
  endfacet
  facet normal -0.9351129412147735 -0.2505626704629391 -0.2505636353167319
    outer loop
      vertex -0.007390911 -6.974671E-18 0.00696595
      vertex -0.006400717 -0.0036954556 0.00696595
      vertex -0.007493 -7.106538E-18 0.00734695
    endloop
  endfacet
  facet normal -0.9351131442017129 -0.2505628244393755 -0.2505627237841837
    outer loop
      vertex -0.006400717 -0.0036954556 0.00696595
      vertex -0.0064891283 -0.0037465 0.00734695
      vertex -0.007493 -7.106538E-18 0.00734695
    endloop
  endfacet
  facet normal -0.9351129178812743 -0.25056276379699366 0.2505636290645171
    outer loop
      vertex -0.007493 -7.106538E-18 0.00734695
      vertex -0.0064891283 -0.0037465 0.00734695
      vertex -0.007390911 -7.068392E-18 0.00772795
    endloop
  endfacet
  facet normal -0.9351131706613318 -0.25056273194293777 0.250562717531963
    outer loop
      vertex -0.0064891283 -0.0037465 0.00734695
      vertex -0.006400717 -0.0036954556 0.00772795
      vertex -0.007390911 -7.068392E-18 0.00772795
    endloop
  endfacet
  facet normal -0.6947465989633652 -0.18615672552362192 0.6947465989633632
    outer loop
      vertex -0.007390911 -7.068392E-18 0.00772795
      vertex -0.006400717 -0.0036954556 0.00772795
      vertex -0.007112 -6.8704563E-18 0.008006861
    endloop
  endfacet
  facet normal -0.6947465958653648 -0.18615672516833776 0.6947466021565614
    outer loop
      vertex -0.006400717 -0.0036954556 0.00772795
      vertex -0.006159173 -0.003556 0.008006861
      vertex -0.007112 -6.8704563E-18 0.008006861
    endloop
  endfacet
  facet normal -0.25819973017398834 -0.06918438534940698 0.9636111353455317
    outer loop
      vertex -0.007112 -6.8704563E-18 0.008006861
      vertex -0.006159173 -0.003556 0.008006861
      vertex -0.006731 -6.5657664E-18 0.00810895
    endloop
  endfacet
  facet normal -0.2581995279179921 -0.06918435444494758 0.9636111917588762
    outer loop
      vertex -0.006159173 -0.003556 0.008006861
      vertex -0.005829217 -0.0033655 0.00810895
      vertex -0.006731 -6.5657664E-18 0.00810895
    endloop
  endfacet
  facet normal 0.25819972975795225 0.06918440852780146 0.9636111337928692
    outer loop
      vertex -0.006731 -6.5657664E-18 0.00810895
      vertex -0.005829217 -0.0033655 0.00810895
      vertex -0.00635 -6.235964E-18 0.008006861
    endloop
  endfacet
  facet normal 0.25819978273144584 0.06918441627756054 0.9636111190422032
    outer loop
      vertex -0.005829217 -0.0033655 0.00810895
      vertex -0.0054992614 -0.003175 0.008006861
      vertex -0.00635 -6.235964E-18 0.008006861
    endloop
  endfacet
  facet normal 0.6947465930397927 0.1861567697377776 0.6947465930397907
    outer loop
      vertex -0.00635 -6.235964E-18 0.008006861
      vertex -0.0054992614 -0.003175 0.008006861
      vertex -0.006071089 -5.969419E-18 0.00772795
    endloop
  endfacet
  facet normal 0.6947460632234338 0.1861567219824463 0.6947471356517353
    outer loop
      vertex -0.0054992614 -0.003175 0.008006861
      vertex -0.005257717 -0.0030355444 0.00772795
      vertex -0.006071089 -5.969419E-18 0.00772795
    endloop
  endfacet
  facet normal 0.935112897060052 0.25056284708190396 0.25056362348546796
    outer loop
      vertex -0.006071089 -5.969419E-18 0.00772795
      vertex -0.005257717 -0.0030355444 0.00772795
      vertex -0.005969 -5.8375525E-18 0.00734695
    endloop
  endfacet
  facet normal 0.935113021286302 0.25056282124343804 0.2505631857063857
    outer loop
      vertex -0.005257717 -0.0030355444 0.00772795
      vertex -0.0051693055 -0.0029845 0.00734695
      vertex -0.005969 -5.8375525E-18 0.00734695
    endloop
  endfacet
  facet normal 0.6845502512890657 0.6845502512890657 -0.2505631794980138
    outer loop
      vertex -0.0051693055 -0.0029845 0.00734695
      vertex -0.0029845 -0.0051693055 0.00734695
      vertex -0.005257717 -0.0030355444 0.00696595
    endloop
  endfacet
  facet normal 0.6845502512890658 0.6845502512890658 -0.2505631794980139
    outer loop
      vertex -0.0029845 -0.0051693055 0.00734695
      vertex -0.0030355444 -0.005257717 0.00696595
      vertex -0.005257717 -0.0030355444 0.00696595
    endloop
  endfacet
  facet normal 0.5085898399539246 0.5085898399539246 -0.6947465360772104
    outer loop
      vertex -0.005257717 -0.0030355444 0.00696595
      vertex -0.0030355444 -0.005257717 0.00696595
      vertex -0.0054992614 -0.003175 0.0066870386
    endloop
  endfacet
  facet normal 0.5085898399539246 0.5085898399539246 -0.6947465360772105
    outer loop
      vertex -0.0030355444 -0.005257717 0.00696595
      vertex -0.003175 -0.0054992614 0.0066870386
      vertex -0.0054992614 -0.003175 0.0066870386
    endloop
  endfacet
  facet normal 0.1890146595906158 0.1890146595906158 -0.963611393103925
    outer loop
      vertex -0.0054992614 -0.003175 0.0066870386
      vertex -0.003175 -0.0054992614 0.0066870386
      vertex -0.005829217 -0.0033655 0.00658495
    endloop
  endfacet
  facet normal 0.18901465959061578 0.1890146595906158 -0.9636113931039251
    outer loop
      vertex -0.003175 -0.0054992614 0.0066870386
      vertex -0.0033655 -0.005829217 0.00658495
      vertex -0.005829217 -0.0033655 0.00658495
    endloop
  endfacet
  facet normal -0.18901452470198435 -0.18901452470198435 -0.9636114460213545
    outer loop
      vertex -0.005829217 -0.0033655 0.00658495
      vertex -0.0033655 -0.005829217 0.00658495
      vertex -0.006159173 -0.003556 0.0066870386
    endloop
  endfacet
  facet normal -0.18901452470198432 -0.18901452470198432 -0.9636114460213545
    outer loop
      vertex -0.0033655 -0.005829217 0.00658495
      vertex -0.003556 -0.006159173 0.0066870386
      vertex -0.006159173 -0.003556 0.0066870386
    endloop
  endfacet
  facet normal -0.508590097678349 -0.508590097678349 -0.6947461587422092
    outer loop
      vertex -0.006159173 -0.003556 0.0066870386
      vertex -0.003556 -0.006159173 0.0066870386
      vertex -0.006400717 -0.0036954556 0.00696595
    endloop
  endfacet
  facet normal -0.508590097678349 -0.508590097678349 -0.6947461587422092
    outer loop
      vertex -0.003556 -0.006159173 0.0066870386
      vertex -0.0036954556 -0.006400717 0.00696595
      vertex -0.006400717 -0.0036954556 0.00696595
    endloop
  endfacet
  facet normal -0.6845503129248164 -0.6845503129248164 -0.2505628427143022
    outer loop
      vertex -0.006400717 -0.0036954556 0.00696595
      vertex -0.0036954556 -0.006400717 0.00696595
      vertex -0.0064891283 -0.0037465 0.00734695
    endloop
  endfacet
  facet normal -0.6845503129248163 -0.6845503129248163 -0.2505628427143021
    outer loop
      vertex -0.0036954556 -0.006400717 0.00696595
      vertex -0.0037465 -0.0064891283 0.00734695
      vertex -0.0064891283 -0.0037465 0.00734695
    endloop
  endfacet
  facet normal -0.6845503129248164 -0.6845503129248164 0.25056284271430157
    outer loop
      vertex -0.0064891283 -0.0037465 0.00734695
      vertex -0.0037465 -0.0064891283 0.00734695
      vertex -0.006400717 -0.0036954556 0.00772795
    endloop
  endfacet
  facet normal -0.6845503129248163 -0.6845503129248165 0.2505628427143016
    outer loop
      vertex -0.0037465 -0.0064891283 0.00734695
      vertex -0.0036954556 -0.006400717 0.00772795
      vertex -0.006400717 -0.0036954556 0.00772795
    endloop
  endfacet
  facet normal -0.5085897456201873 -0.5085897456201873 0.6947466741913819
    outer loop
      vertex -0.006400717 -0.0036954556 0.00772795
      vertex -0.0036954556 -0.006400717 0.00772795
      vertex -0.006159173 -0.003556 0.008006861
    endloop
  endfacet
  facet normal -0.5085897456201873 -0.5085897456201873 0.694746674191382
    outer loop
      vertex -0.0036954556 -0.006400717 0.00772795
      vertex -0.003556 -0.006159173 0.008006861
      vertex -0.006159173 -0.003556 0.008006861
    endloop
  endfacet
  facet normal -0.18901521237445482 -0.18901521237445482 0.9636111762438623
    outer loop
      vertex -0.006159173 -0.003556 0.008006861
      vertex -0.003556 -0.006159173 0.008006861
      vertex -0.005829217 -0.0033655 0.00810895
    endloop
  endfacet
  facet normal -0.18901521237445482 -0.18901521237445482 0.963611176243862
    outer loop
      vertex -0.003556 -0.006159173 0.008006861
      vertex -0.0033655 -0.005829217 0.00810895
      vertex -0.005829217 -0.0033655 0.00810895
    endloop
  endfacet
  facet normal 0.18901534726350144 0.18901534726350144 0.9636111233260624
    outer loop
      vertex -0.005829217 -0.0033655 0.00810895
      vertex -0.0033655 -0.005829217 0.00810895
      vertex -0.0054992614 -0.003175 0.008006861
    endloop
  endfacet
  facet normal 0.18901534726350147 0.18901534726350144 0.9636111233260624
    outer loop
      vertex -0.0033655 -0.005829217 0.00810895
      vertex -0.003175 -0.0054992614 0.008006861
      vertex -0.0054992614 -0.003175 0.008006861
    endloop
  endfacet
  facet normal 0.508589487895559 0.508589487895559 0.6947470515261409
    outer loop
      vertex -0.0054992614 -0.003175 0.008006861
      vertex -0.003175 -0.0054992614 0.008006861
      vertex -0.005257717 -0.0030355444 0.00772795
    endloop
  endfacet
  facet normal 0.508589487895559 0.508589487895559 0.6947470515261408
    outer loop
      vertex -0.003175 -0.0054992614 0.008006861
      vertex -0.0030355444 -0.005257717 0.00772795
      vertex -0.005257717 -0.0030355444 0.00772795
    endloop
  endfacet
  facet normal 0.6845502512890658 0.6845502512890658 0.2505631794980133
    outer loop
      vertex -0.005257717 -0.0030355444 0.00772795
      vertex -0.0030355444 -0.005257717 0.00772795
      vertex -0.0051693055 -0.0029845 0.00734695
    endloop
  endfacet
  facet normal 0.6845502512890659 0.6845502512890659 0.2505631794980133
    outer loop
      vertex -0.0030355444 -0.005257717 0.00772795
      vertex -0.0029845 -0.0051693055 0.00734695
      vertex -0.0051693055 -0.0029845 0.00734695
    endloop
  endfacet
  facet normal 0.25056282124343726 0.9351130212863021 -0.25056318570638614
    outer loop
      vertex -0.0029845 -0.0051693055 0.00734695
      vertex 3.3134605E-18 -0.005969 0.00734695
      vertex -0.0030355444 -0.005257717 0.00696595
    endloop
  endfacet
  facet normal 0.2505628470819032 0.935112897060052 -0.2505636234854684
    outer loop
      vertex 3.3134605E-18 -0.005969 0.00734695
      vertex 3.370131E-18 -0.006071089 0.00696595
      vertex -0.0030355444 -0.005257717 0.00696595
    endloop
  endfacet
  facet normal 0.1861568508448166 0.6947465441441543 -0.6947466202028589
    outer loop
      vertex -0.0030355444 -0.005257717 0.00696595
      vertex 3.370131E-18 -0.006071089 0.00696595
      vertex -0.003175 -0.0054992614 0.0066870386
    endloop
  endfacet
  facet normal 0.18615689859997964 0.6947470739601286 -0.6947460775905657
    outer loop
      vertex 3.370131E-18 -0.006071089 0.00696595
      vertex 3.5249582E-18 -0.00635 0.0066870386
      vertex -0.003175 -0.0054992614 0.0066870386
    endloop
  endfacet
  facet normal 0.06918416457182615 0.2581988433527624 -0.9636113888200959
    outer loop
      vertex -0.003175 -0.0054992614 0.0066870386
      vertex 3.5249582E-18 -0.00635 0.0066870386
      vertex -0.0033655 -0.005829217 0.00658495
    endloop
  endfacet
  facet normal 0.06918415682208753 0.25819879037943266 -0.9636114035706584
    outer loop
      vertex 3.5249582E-18 -0.00635 0.0066870386
      vertex 3.7364555E-18 -0.006731 0.00658495
      vertex -0.0033655 -0.005829217 0.00658495
    endloop
  endfacet
  facet normal -0.06918410273940014 -0.25819858854009387 -0.9636114615362601
    outer loop
      vertex -0.0033655 -0.005829217 0.00658495
      vertex 3.7364555E-18 -0.006731 0.00658495
      vertex -0.003556 -0.006159173 0.0066870386
    endloop
  endfacet
  facet normal -0.06918413364377658 -0.25819879079546426 -0.9636114051233101
    outer loop
      vertex 3.7364555E-18 -0.006731 0.00658495
      vertex 3.947953E-18 -0.007112 0.0066870386
      vertex -0.003556 -0.006159173 0.0066870386
    endloop
  endfacet
  facet normal -0.18615685403051227 -0.6947470767857151 -0.6947460867073423
    outer loop
      vertex -0.003556 -0.006159173 0.0066870386
      vertex 3.947953E-18 -0.007112 0.0066870386
      vertex -0.0036954556 -0.006400717 0.00696595
    endloop
  endfacet
  facet normal -0.18615685438579557 -0.6947470798837133 -0.6947460835141419
    outer loop
      vertex 3.947953E-18 -0.007112 0.0066870386
      vertex 4.10278E-18 -0.007390911 0.00696595
      vertex -0.0036954556 -0.006400717 0.00696595
    endloop
  endfacet
  facet normal -0.25056273194293704 -0.9351131706613319 -0.2505627175319635
    outer loop
      vertex -0.0036954556 -0.006400717 0.00696595
      vertex 4.10278E-18 -0.007390911 0.00696595
      vertex -0.0037465 -0.0064891283 0.00734695
    endloop
  endfacet
  facet normal -0.250562763796993 -0.9351129178812745 -0.2505636290645177
    outer loop
      vertex 4.10278E-18 -0.007390911 0.00696595
      vertex 4.1594504E-18 -0.007493 0.00734695
      vertex -0.0037465 -0.0064891283 0.00734695
    endloop
  endfacet
  facet normal -0.25056282443937483 -0.9351131442017133 0.25056272378418315
    outer loop
      vertex -0.0037465 -0.0064891283 0.00734695
      vertex 4.1594504E-18 -0.007493 0.00734695
      vertex -0.0036954556 -0.006400717 0.00772795
    endloop
  endfacet
  facet normal -0.25056267046293845 -0.9351129412147737 0.2505636353167313
    outer loop
      vertex 4.1594504E-18 -0.007493 0.00734695
      vertex 4.10278E-18 -0.007390911 0.00772795
      vertex -0.0036954556 -0.006400717 0.00772795
    endloop
  endfacet
  facet normal -0.18615672474067446 -0.6947465960413665 0.6947466020951517
    outer loop
      vertex -0.0036954556 -0.006400717 0.00772795
      vertex 4.10278E-18 -0.007390911 0.00772795
      vertex -0.003556 -0.006159173 0.008006861
    endloop
  endfacet
  facet normal -0.18615672598198904 -0.6947465989019558 0.6947465989019534
    outer loop
      vertex 4.10278E-18 -0.007390911 0.00772795
      vertex 3.947953E-18 -0.007112 0.008006861
      vertex -0.003556 -0.006159173 0.008006861
    endloop
  endfacet
  facet normal -0.06918433416386358 -0.2581995391468747 0.9636111902062181
    outer loop
      vertex -0.003556 -0.006159173 0.008006861
      vertex 3.947953E-18 -0.007112 0.008006861
      vertex -0.0033655 -0.005829217 0.00810895
    endloop
  endfacet
  facet normal -0.06918440852780128 -0.2581997297579523 0.9636111337928691
    outer loop
      vertex 3.947953E-18 -0.007112 0.008006861
      vertex 3.7364555E-18 -0.006731 0.00810895
      vertex -0.0033655 -0.005829217 0.00810895
    endloop
  endfacet
  facet normal 0.06918442188946008 0.25819977962434226 0.9636111194718345
    outer loop
      vertex -0.0033655 -0.005829217 0.00810895
      vertex 3.7364555E-18 -0.006731 0.00810895
      vertex -0.003175 -0.0054992614 0.008006861
    endloop
  endfacet
  facet normal 0.06918440211420315 0.25819972987307194 0.9636111342225001
    outer loop
      vertex 3.7364555E-18 -0.006731 0.00810895
      vertex 3.5249582E-18 -0.00635 0.008006861
      vertex -0.003175 -0.0054992614 0.008006861
    endloop
  endfacet
  facet normal 0.186156637130739 0.6947460981435393 0.6947471234675981
    outer loop
      vertex -0.003175 -0.0054992614 0.008006861
      vertex 3.5249582E-18 -0.00635 0.008006861
      vertex -0.0030355444 -0.005257717 0.00772795
    endloop
  endfacet
  facet normal 0.18615686068162957 0.6947465808556251 0.6947465808556229
    outer loop
      vertex 3.5249582E-18 -0.00635 0.008006861
      vertex 3.370131E-18 -0.006071089 0.00772795
      vertex -0.0030355444 -0.005257717 0.00772795
    endloop
  endfacet
  facet normal 0.25056287615897205 0.9351130055771066 0.25056318941834615
    outer loop
      vertex -0.0030355444 -0.005257717 0.00772795
      vertex 3.370131E-18 -0.006071089 0.00772795
      vertex -0.0029845 -0.0051693055 0.00734695
    endloop
  endfacet
  facet normal 0.25056279166906453 0.9351129109132591 0.2505636271974365
    outer loop
      vertex 3.370131E-18 -0.006071089 0.00772795
      vertex 3.3134605E-18 -0.005969 0.00734695
      vertex -0.0029845 -0.0051693055 0.00734695
    endloop
  endfacet
  facet normal -0.25056279166906503 0.9351129109132589 -0.2505636271974371
    outer loop
      vertex 3.3134605E-18 -0.005969 0.00734695
      vertex 0.0029845 -0.0051693055 0.00734695
      vertex 3.370131E-18 -0.006071089 0.00696595
    endloop
  endfacet
  facet normal -0.2505628761589726 0.9351130055771064 -0.2505631894183468
    outer loop
      vertex 0.0029845 -0.0051693055 0.00734695
      vertex 0.0030355444 -0.005257717 0.00696595
      vertex 3.370131E-18 -0.006071089 0.00696595
    endloop
  endfacet
  facet normal -0.1861569895438909 0.6947470617759354 -0.6947460654063902
    outer loop
      vertex 3.370131E-18 -0.006071089 0.00696595
      vertex 0.0030355444 -0.005257717 0.00696595
      vertex 3.5249582E-18 -0.00635 0.0066870386
    endloop
  endfacet
  facet normal -0.18615676599304684 0.6947465790642665 -0.694746608018714
    outer loop
      vertex 0.0030355444 -0.005257717 0.00696595
      vertex 0.003175 -0.0054992614 0.0066870386
      vertex 3.5249582E-18 -0.00635 0.0066870386
    endloop
  endfacet
  facet normal -0.06918415040851267 0.25819879049455097 -0.9636114040002864
    outer loop
      vertex 3.5249582E-18 -0.00635 0.0066870386
      vertex 0.003175 -0.0054992614 0.0066870386
      vertex 3.7364555E-18 -0.006731 0.00658495
    endloop
  endfacet
  facet normal -0.06918417018370535 0.258198840245669 -0.9636113892497242
    outer loop
      vertex 0.003175 -0.0054992614 0.0066870386
      vertex 0.0033655 -0.005829217 0.00658495
      vertex 3.7364555E-18 -0.006731 0.00658495
    endloop
  endfacet
  facet normal 0.06918415682208767 -0.25819879037943255 -0.9636114035706586
    outer loop
      vertex 3.7364555E-18 -0.006731 0.00658495
      vertex 0.0033655 -0.005829217 0.00658495
      vertex 3.947953E-18 -0.007112 0.0066870386
    endloop
  endfacet
  facet normal 0.06918408245839106 -0.2581985997689385 -0.9636114599836129
    outer loop
      vertex 0.0033655 -0.005829217 0.00658495
      vertex 0.003556 -0.006159173 0.0066870386
      vertex 3.947953E-18 -0.007112 0.0066870386
    endloop
  endfacet
  facet normal 0.18615685484416375 -0.6947470798223033 -0.6947460834527323
    outer loop
      vertex 3.947953E-18 -0.007112 0.0066870386
      vertex 0.003556 -0.006159173 0.0066870386
      vertex 4.10278E-18 -0.007390911 0.00696595
    endloop
  endfacet
  facet normal 0.18615685360284953 -0.6947470769617167 -0.6947460866459326
    outer loop
      vertex 0.003556 -0.006159173 0.0066870386
      vertex 0.0036954556 -0.006400717 0.00696595
      vertex 4.10278E-18 -0.007390911 0.00696595
    endloop
  endfacet
  facet normal 0.25056267046293884 -0.9351129412147734 -0.25056363531673187
    outer loop
      vertex 4.10278E-18 -0.007390911 0.00696595
      vertex 0.0036954556 -0.006400717 0.00696595
      vertex 4.1594504E-18 -0.007493 0.00734695
    endloop
  endfacet
  facet normal 0.2505628244393754 -0.9351131442017132 -0.25056272378418376
    outer loop
      vertex 0.0036954556 -0.006400717 0.00696595
      vertex 0.0037465 -0.0064891283 0.00734695
      vertex 4.1594504E-18 -0.007493 0.00734695
    endloop
  endfacet
  facet normal 0.25056276379699355 -0.9351129178812745 0.2505636290645172
    outer loop
      vertex 4.1594504E-18 -0.007493 0.00734695
      vertex 0.0037465 -0.0064891283 0.00734695
      vertex 4.10278E-18 -0.007390911 0.00772795
    endloop
  endfacet
  facet normal 0.2505627319429376 -0.9351131706613319 0.250562717531963
    outer loop
      vertex 0.0037465 -0.0064891283 0.00734695
      vertex 0.0036954556 -0.006400717 0.00772795
      vertex 4.10278E-18 -0.007390911 0.00772795
    endloop
  endfacet
  facet normal 0.18615672552362175 -0.6947465989633651 0.6947465989633631
    outer loop
      vertex 4.10278E-18 -0.007390911 0.00772795
      vertex 0.0036954556 -0.006400717 0.00772795
      vertex 3.947953E-18 -0.007112 0.008006861
    endloop
  endfacet
  facet normal 0.18615672516833762 -0.6947465958653649 0.6947466021565615
    outer loop
      vertex 0.0036954556 -0.006400717 0.00772795
      vertex 0.003556 -0.006159173 0.008006861
      vertex 3.947953E-18 -0.007112 0.008006861
    endloop
  endfacet
  facet normal 0.06918438534940692 -0.25819973017398834 0.9636111353455317
    outer loop
      vertex 3.947953E-18 -0.007112 0.008006861
      vertex 0.003556 -0.006159173 0.008006861
      vertex 3.7364555E-18 -0.006731 0.00810895
    endloop
  endfacet
  facet normal 0.06918435444494753 -0.2581995279179921 0.9636111917588763
    outer loop
      vertex 0.003556 -0.006159173 0.008006861
      vertex 0.0033655 -0.005829217 0.00810895
      vertex 3.7364555E-18 -0.006731 0.00810895
    endloop
  endfacet
  facet normal -0.0691844085278014 0.25819972975795225 0.9636111337928692
    outer loop
      vertex 3.7364555E-18 -0.006731 0.00810895
      vertex 0.0033655 -0.005829217 0.00810895
      vertex 3.5249582E-18 -0.00635 0.008006861
    endloop
  endfacet
  facet normal -0.0691844162775605 0.2581997827314459 0.9636111190422034
    outer loop
      vertex 0.0033655 -0.005829217 0.00810895
      vertex 0.003175 -0.0054992614 0.008006861
      vertex 3.5249582E-18 -0.00635 0.008006861
    endloop
  endfacet
  facet normal -0.18615676973777748 0.6947465930397928 0.6947465930397908
    outer loop
      vertex 3.5249582E-18 -0.00635 0.008006861
      vertex 0.003175 -0.0054992614 0.008006861
      vertex 3.370131E-18 -0.006071089 0.00772795
    endloop
  endfacet
  facet normal -0.18615672198244612 0.6947460632234338 0.6947471356517352
    outer loop
      vertex 0.003175 -0.0054992614 0.008006861
      vertex 0.0030355444 -0.005257717 0.00772795
      vertex 3.370131E-18 -0.006071089 0.00772795
    endloop
  endfacet
  facet normal -0.25056284708190374 0.935112897060052 0.2505636234854679
    outer loop
      vertex 3.370131E-18 -0.006071089 0.00772795
      vertex 0.0030355444 -0.005257717 0.00772795
      vertex 3.3134605E-18 -0.005969 0.00734695
    endloop
  endfacet
  facet normal -0.25056282124343787 0.9351130212863022 0.2505631857063857
    outer loop
      vertex 0.0030355444 -0.005257717 0.00772795
      vertex 0.0029845 -0.0051693055 0.00734695
      vertex 3.3134605E-18 -0.005969 0.00734695
    endloop
  endfacet
  facet normal -0.6845502512890657 0.6845502512890657 -0.2505631794980138
    outer loop
      vertex 0.0029845 -0.0051693055 0.00734695
      vertex 0.0051693055 -0.0029845 0.00734695
      vertex 0.0030355444 -0.005257717 0.00696595
    endloop
  endfacet
  facet normal -0.6845502512890658 0.6845502512890658 -0.2505631794980139
    outer loop
      vertex 0.0051693055 -0.0029845 0.00734695
      vertex 0.005257717 -0.0030355444 0.00696595
      vertex 0.0030355444 -0.005257717 0.00696595
    endloop
  endfacet
  facet normal -0.5085898399539246 0.5085898399539246 -0.6947465360772104
    outer loop
      vertex 0.0030355444 -0.005257717 0.00696595
      vertex 0.005257717 -0.0030355444 0.00696595
      vertex 0.003175 -0.0054992614 0.0066870386
    endloop
  endfacet
  facet normal -0.5085898399539246 0.5085898399539246 -0.6947465360772105
    outer loop
      vertex 0.005257717 -0.0030355444 0.00696595
      vertex 0.0054992614 -0.003175 0.0066870386
      vertex 0.003175 -0.0054992614 0.0066870386
    endloop
  endfacet
  facet normal -0.1890146595906158 0.1890146595906158 -0.963611393103925
    outer loop
      vertex 0.003175 -0.0054992614 0.0066870386
      vertex 0.0054992614 -0.003175 0.0066870386
      vertex 0.0033655 -0.005829217 0.00658495
    endloop
  endfacet
  facet normal -0.1890146595906158 0.18901465959061578 -0.9636113931039251
    outer loop
      vertex 0.0054992614 -0.003175 0.0066870386
      vertex 0.005829217 -0.0033655 0.00658495
      vertex 0.0033655 -0.005829217 0.00658495
    endloop
  endfacet
  facet normal 0.18901452470198435 -0.18901452470198435 -0.9636114460213545
    outer loop
      vertex 0.0033655 -0.005829217 0.00658495
      vertex 0.005829217 -0.0033655 0.00658495
      vertex 0.003556 -0.006159173 0.0066870386
    endloop
  endfacet
  facet normal 0.18901452470198432 -0.18901452470198432 -0.9636114460213545
    outer loop
      vertex 0.005829217 -0.0033655 0.00658495
      vertex 0.006159173 -0.003556 0.0066870386
      vertex 0.003556 -0.006159173 0.0066870386
    endloop
  endfacet
  facet normal 0.508590097678349 -0.508590097678349 -0.6947461587422092
    outer loop
      vertex 0.003556 -0.006159173 0.0066870386
      vertex 0.006159173 -0.003556 0.0066870386
      vertex 0.0036954556 -0.006400717 0.00696595
    endloop
  endfacet
  facet normal 0.508590097678349 -0.508590097678349 -0.6947461587422092
    outer loop
      vertex 0.006159173 -0.003556 0.0066870386
      vertex 0.006400717 -0.0036954556 0.00696595
      vertex 0.0036954556 -0.006400717 0.00696595
    endloop
  endfacet
  facet normal 0.6845503129248164 -0.6845503129248164 -0.2505628427143022
    outer loop
      vertex 0.0036954556 -0.006400717 0.00696595
      vertex 0.006400717 -0.0036954556 0.00696595
      vertex 0.0037465 -0.0064891283 0.00734695
    endloop
  endfacet
  facet normal 0.6845503129248163 -0.6845503129248163 -0.2505628427143021
    outer loop
      vertex 0.006400717 -0.0036954556 0.00696595
      vertex 0.0064891283 -0.0037465 0.00734695
      vertex 0.0037465 -0.0064891283 0.00734695
    endloop
  endfacet
  facet normal 0.6845503129248164 -0.6845503129248164 0.25056284271430157
    outer loop
      vertex 0.0037465 -0.0064891283 0.00734695
      vertex 0.0064891283 -0.0037465 0.00734695
      vertex 0.0036954556 -0.006400717 0.00772795
    endloop
  endfacet
  facet normal 0.6845503129248165 -0.6845503129248163 0.2505628427143016
    outer loop
      vertex 0.0064891283 -0.0037465 0.00734695
      vertex 0.006400717 -0.0036954556 0.00772795
      vertex 0.0036954556 -0.006400717 0.00772795
    endloop
  endfacet
  facet normal 0.5085897456201873 -0.5085897456201873 0.6947466741913819
    outer loop
      vertex 0.0036954556 -0.006400717 0.00772795
      vertex 0.006400717 -0.0036954556 0.00772795
      vertex 0.003556 -0.006159173 0.008006861
    endloop
  endfacet
  facet normal 0.5085897456201873 -0.5085897456201873 0.694746674191382
    outer loop
      vertex 0.006400717 -0.0036954556 0.00772795
      vertex 0.006159173 -0.003556 0.008006861
      vertex 0.003556 -0.006159173 0.008006861
    endloop
  endfacet
  facet normal 0.18901521237445482 -0.18901521237445482 0.9636111762438623
    outer loop
      vertex 0.003556 -0.006159173 0.008006861
      vertex 0.006159173 -0.003556 0.008006861
      vertex 0.0033655 -0.005829217 0.00810895
    endloop
  endfacet
  facet normal 0.18901521237445482 -0.18901521237445482 0.963611176243862
    outer loop
      vertex 0.006159173 -0.003556 0.008006861
      vertex 0.005829217 -0.0033655 0.00810895
      vertex 0.0033655 -0.005829217 0.00810895
    endloop
  endfacet
  facet normal -0.18901534726350144 0.18901534726350144 0.9636111233260624
    outer loop
      vertex 0.0033655 -0.005829217 0.00810895
      vertex 0.005829217 -0.0033655 0.00810895
      vertex 0.003175 -0.0054992614 0.008006861
    endloop
  endfacet
  facet normal -0.18901534726350144 0.18901534726350147 0.9636111233260624
    outer loop
      vertex 0.005829217 -0.0033655 0.00810895
      vertex 0.0054992614 -0.003175 0.008006861
      vertex 0.003175 -0.0054992614 0.008006861
    endloop
  endfacet
  facet normal -0.508589487895559 0.508589487895559 0.6947470515261409
    outer loop
      vertex 0.003175 -0.0054992614 0.008006861
      vertex 0.0054992614 -0.003175 0.008006861
      vertex 0.0030355444 -0.005257717 0.00772795
    endloop
  endfacet
  facet normal -0.508589487895559 0.508589487895559 0.6947470515261408
    outer loop
      vertex 0.0054992614 -0.003175 0.008006861
      vertex 0.005257717 -0.0030355444 0.00772795
      vertex 0.0030355444 -0.005257717 0.00772795
    endloop
  endfacet
  facet normal -0.6845502512890658 0.6845502512890658 0.2505631794980133
    outer loop
      vertex 0.0030355444 -0.005257717 0.00772795
      vertex 0.005257717 -0.0030355444 0.00772795
      vertex 0.0029845 -0.0051693055 0.00734695
    endloop
  endfacet
  facet normal -0.6845502512890659 0.6845502512890659 0.2505631794980133
    outer loop
      vertex 0.005257717 -0.0030355444 0.00772795
      vertex 0.0051693055 -0.0029845 0.00734695
      vertex 0.0029845 -0.0051693055 0.00734695
    endloop
  endfacet
  facet normal -0.935113021286302 0.2505628212434375 -0.2505631857063862
    outer loop
      vertex 0.0051693055 -0.0029845 0.00734695
      vertex 0.005969 7.893686E-19 0.00734695
      vertex 0.005257717 -0.0030355444 0.00696595
    endloop
  endfacet
  facet normal -0.935112897060052 0.25056284708190335 -0.25056362348546835
    outer loop
      vertex 0.005969 7.893686E-19 0.00734695
      vertex 0.006071089 8.645645E-19 0.00696595
      vertex 0.005257717 -0.0030355444 0.00696595
    endloop
  endfacet
  facet normal -0.6947465441441542 0.1861568508448167 -0.6947466202028589
    outer loop
      vertex 0.005257717 -0.0030355444 0.00696595
      vertex 0.006071089 8.645645E-19 0.00696595
      vertex 0.0054992614 -0.003175 0.0066870386
    endloop
  endfacet
  facet normal -0.6947470739601286 0.1861568985999798 -0.6947460775905657
    outer loop
      vertex 0.006071089 8.645645E-19 0.00696595
      vertex 0.00635 9.762824E-19 0.0066870386
      vertex 0.0054992614 -0.003175 0.0066870386
    endloop
  endfacet
  facet normal -0.25819884335276233 0.06918416457182619 -0.9636113888200959
    outer loop
      vertex 0.0054992614 -0.003175 0.0066870386
      vertex 0.00635 9.762824E-19 0.0066870386
      vertex 0.005829217 -0.0033655 0.00658495
    endloop
  endfacet
  facet normal -0.2581987903794326 0.06918415682208758 -0.9636114035706584
    outer loop
      vertex 0.00635 9.762824E-19 0.0066870386
      vertex 0.006731 1.0945874E-18 0.00658495
      vertex 0.005829217 -0.0033655 0.00658495
    endloop
  endfacet
  facet normal 0.2581985885400939 -0.0691841027394002 -0.9636114615362602
    outer loop
      vertex 0.005829217 -0.0033655 0.00658495
      vertex 0.006731 1.0945874E-18 0.00658495
      vertex 0.006159173 -0.003556 0.0066870386
    endloop
  endfacet
  facet normal 0.2581987907954642 -0.06918413364377661 -0.9636114051233101
    outer loop
      vertex 0.006731 1.0945874E-18 0.00658495
      vertex 0.007112 1.1877799E-18 0.0066870386
      vertex 0.006159173 -0.003556 0.0066870386
    endloop
  endfacet
  facet normal 0.6947470767857152 -0.18615685403051244 -0.6947460867073424
    outer loop
      vertex 0.006159173 -0.003556 0.0066870386
      vertex 0.007112 1.1877799E-18 0.0066870386
      vertex 0.006400717 -0.0036954556 0.00696595
    endloop
  endfacet
  facet normal 0.6947470798837133 -0.18615685438579568 -0.694746083514142
    outer loop
      vertex 0.007112 1.1877799E-18 0.0066870386
      vertex 0.007390911 1.2308889E-18 0.00696595
      vertex 0.006400717 -0.0036954556 0.00696595
    endloop
  endfacet
  facet normal 0.9351131706613318 -0.2505627319429372 -0.2505627175319635
    outer loop
      vertex 0.006400717 -0.0036954556 0.00696595
      vertex 0.007390911 1.2308889E-18 0.00696595
      vertex 0.0064891283 -0.0037465 0.00734695
    endloop
  endfacet
  facet normal 0.9351129178812744 -0.25056276379699316 -0.25056362906451773
    outer loop
      vertex 0.007390911 1.2308889E-18 0.00696595
      vertex 0.007493 1.2123636E-18 0.00734695
      vertex 0.0064891283 -0.0037465 0.00734695
    endloop
  endfacet
  facet normal 0.9351131442017133 -0.250562824439375 0.25056272378418315
    outer loop
      vertex 0.0064891283 -0.0037465 0.00734695
      vertex 0.007493 1.2123636E-18 0.00734695
      vertex 0.006400717 -0.0036954556 0.00772795
    endloop
  endfacet
  facet normal 0.9351129412147738 -0.2505626704629387 0.2505636353167313
    outer loop
      vertex 0.007493 1.2123636E-18 0.00734695
      vertex 0.007390911 1.1371676E-18 0.00772795
      vertex 0.006400717 -0.0036954556 0.00772795
    endloop
  endfacet
  facet normal 0.6947465960413665 -0.18615672474067457 0.6947466020951517
    outer loop
      vertex 0.006400717 -0.0036954556 0.00772795
      vertex 0.007390911 1.1371676E-18 0.00772795
      vertex 0.006159173 -0.003556 0.008006861
    endloop
  endfacet
  facet normal 0.6947465989019558 -0.18615672598198915 0.6947465989019533
    outer loop
      vertex 0.007390911 1.1371676E-18 0.00772795
      vertex 0.007112 1.0254497E-18 0.008006861
      vertex 0.006159173 -0.003556 0.008006861
    endloop
  endfacet
  facet normal 0.2581995391468747 -0.06918433416386363 0.9636111902062182
    outer loop
      vertex 0.006159173 -0.003556 0.008006861
      vertex 0.007112 1.0254497E-18 0.008006861
      vertex 0.005829217 -0.0033655 0.00810895
    endloop
  endfacet
  facet normal 0.2581997297579523 -0.06918440852780133 0.9636111337928691
    outer loop
      vertex 0.007112 1.0254497E-18 0.008006861
      vertex 0.006731 9.071447E-19 0.00810895
      vertex 0.005829217 -0.0033655 0.00810895
    endloop
  endfacet
  facet normal -0.2581997796243422 0.06918442188946014 0.9636111194718345
    outer loop
      vertex 0.005829217 -0.0033655 0.00810895
      vertex 0.006731 9.071447E-19 0.00810895
      vertex 0.0054992614 -0.003175 0.008006861
    endloop
  endfacet
  facet normal -0.258199729873072 0.06918440211420322 0.9636111342225
    outer loop
      vertex 0.006731 9.071447E-19 0.00810895
      vertex 0.00635 8.1395224E-19 0.008006861
      vertex 0.0054992614 -0.003175 0.008006861
    endloop
  endfacet
  facet normal -0.6947460981435392 0.1861566371307391 0.6947471234675981
    outer loop
      vertex 0.0054992614 -0.003175 0.008006861
      vertex 0.00635 8.1395224E-19 0.008006861
      vertex 0.005257717 -0.0030355444 0.00772795
    endloop
  endfacet
  facet normal -0.6947465808556251 0.18615686068162968 0.694746580855623
    outer loop
      vertex 0.00635 8.1395224E-19 0.008006861
      vertex 0.006071089 7.708432E-19 0.00772795
      vertex 0.005257717 -0.0030355444 0.00772795
    endloop
  endfacet
  facet normal -0.9351130055771066 0.25056287615897227 0.2505631894183462
    outer loop
      vertex 0.005257717 -0.0030355444 0.00772795
      vertex 0.006071089 7.708432E-19 0.00772795
      vertex 0.0051693055 -0.0029845 0.00734695
    endloop
  endfacet
  facet normal -0.9351129109132591 0.25056279166906475 0.2505636271974366
    outer loop
      vertex 0.006071089 7.708432E-19 0.00772795
      vertex 0.005969 7.893686E-19 0.00734695
      vertex 0.0051693055 -0.0029845 0.00734695
    endloop
  endfacet
  facet normal -0.9351129109132589 -0.2505627916690648 -0.2505636271974371
    outer loop
      vertex 0.005969 7.893686E-19 0.00734695
      vertex 0.0051693055 0.0029845 0.00734695
      vertex 0.006071089 8.645645E-19 0.00696595
    endloop
  endfacet
  facet normal -0.9351130055771063 -0.2505628761589723 -0.2505631894183467
    outer loop
      vertex 0.0051693055 0.0029845 0.00734695
      vertex 0.005257717 0.0030355444 0.00696595
      vertex 0.006071089 8.645645E-19 0.00696595
    endloop
  endfacet
  facet normal -0.6947470617759355 -0.18615698954389076 -0.6947460654063903
    outer loop
      vertex 0.006071089 8.645645E-19 0.00696595
      vertex 0.005257717 0.0030355444 0.00696595
      vertex 0.00635 9.762824E-19 0.0066870386
    endloop
  endfacet
  facet normal -0.6947465790642666 -0.18615676599304673 -0.6947466080187141
    outer loop
      vertex 0.005257717 0.0030355444 0.00696595
      vertex 0.0054992614 0.003175 0.0066870386
      vertex 0.00635 9.762824E-19 0.0066870386
    endloop
  endfacet
  facet normal -0.258198790494551 -0.06918415040851263 -0.9636114040002863
    outer loop
      vertex 0.00635 9.762824E-19 0.0066870386
      vertex 0.0054992614 0.003175 0.0066870386
      vertex 0.006731 1.0945874E-18 0.00658495
    endloop
  endfacet
  facet normal -0.2581988402456691 -0.0691841701837053 -0.9636113892497243
    outer loop
      vertex 0.0054992614 0.003175 0.0066870386
      vertex 0.005829217 0.0033655 0.00658495
      vertex 0.006731 1.0945874E-18 0.00658495
    endloop
  endfacet
  facet normal 0.25819879037943266 0.06918415682208763 -0.9636114035706586
    outer loop
      vertex 0.006731 1.0945874E-18 0.00658495
      vertex 0.005829217 0.0033655 0.00658495
      vertex 0.007112 1.1877799E-18 0.0066870386
    endloop
  endfacet
  facet normal 0.25819859976893855 0.06918408245839101 -0.963611459983613
    outer loop
      vertex 0.005829217 0.0033655 0.00658495
      vertex 0.006159173 0.003556 0.0066870386
      vertex 0.007112 1.1877799E-18 0.0066870386
    endloop
  endfacet
  facet normal 0.6947470798223034 0.18615685484416364 -0.6947460834527323
    outer loop
      vertex 0.007112 1.1877799E-18 0.0066870386
      vertex 0.006159173 0.003556 0.0066870386
      vertex 0.007390911 1.2308889E-18 0.00696595
    endloop
  endfacet
  facet normal 0.6947470769617167 0.18615685360284945 -0.6947460866459326
    outer loop
      vertex 0.006159173 0.003556 0.0066870386
      vertex 0.006400717 0.0036954556 0.00696595
      vertex 0.007390911 1.2308889E-18 0.00696595
    endloop
  endfacet
  facet normal 0.9351129412147736 0.2505626704629388 -0.25056363531673187
    outer loop
      vertex 0.007390911 1.2308889E-18 0.00696595
      vertex 0.006400717 0.0036954556 0.00696595
      vertex 0.007493 1.2123636E-18 0.00734695
    endloop
  endfacet
  facet normal 0.9351131442017131 0.25056282443937516 -0.2505627237841837
    outer loop
      vertex 0.006400717 0.0036954556 0.00696595
      vertex 0.0064891283 0.0037465 0.00734695
      vertex 0.007493 1.2123636E-18 0.00734695
    endloop
  endfacet
  facet normal 0.9351129178812744 0.25056276379699327 0.2505636290645172
    outer loop
      vertex 0.007493 1.2123636E-18 0.00734695
      vertex 0.0064891283 0.0037465 0.00734695
      vertex 0.007390911 1.1371676E-18 0.00772795
    endloop
  endfacet
  facet normal 0.9351131706613319 0.25056273194293743 0.250562717531963
    outer loop
      vertex 0.0064891283 0.0037465 0.00734695
      vertex 0.006400717 0.0036954556 0.00772795
      vertex 0.007390911 1.1371676E-18 0.00772795
    endloop
  endfacet
  facet normal 0.6947465989633652 0.18615672552362164 0.6947465989633631
    outer loop
      vertex 0.007390911 1.1371676E-18 0.00772795
      vertex 0.006400717 0.0036954556 0.00772795
      vertex 0.007112 1.0254497E-18 0.008006861
    endloop
  endfacet
  facet normal 0.6947465958653648 0.18615672516833745 0.6947466021565614
    outer loop
      vertex 0.006400717 0.0036954556 0.00772795
      vertex 0.006159173 0.003556 0.008006861
      vertex 0.007112 1.0254497E-18 0.008006861
    endloop
  endfacet
  facet normal 0.25819973017398834 0.06918438534940687 0.9636111353455317
    outer loop
      vertex 0.007112 1.0254497E-18 0.008006861
      vertex 0.006159173 0.003556 0.008006861
      vertex 0.006731 9.071447E-19 0.00810895
    endloop
  endfacet
  facet normal 0.2581995279179922 0.06918435444494749 0.9636111917588763
    outer loop
      vertex 0.006159173 0.003556 0.008006861
      vertex 0.005829217 0.0033655 0.00810895
      vertex 0.006731 9.071447E-19 0.00810895
    endloop
  endfacet
  facet normal -0.25819972975795225 -0.06918440852780135 0.9636111337928691
    outer loop
      vertex 0.006731 9.071447E-19 0.00810895
      vertex 0.005829217 0.0033655 0.00810895
      vertex 0.00635 8.1395224E-19 0.008006861
    endloop
  endfacet
  facet normal -0.2581997827314459 -0.06918441627756045 0.9636111190422033
    outer loop
      vertex 0.005829217 0.0033655 0.00810895
      vertex 0.0054992614 0.003175 0.008006861
      vertex 0.00635 8.1395224E-19 0.008006861
    endloop
  endfacet
  facet normal -0.6947465930397928 -0.1861567697377773 0.6947465930397907
    outer loop
      vertex 0.00635 8.1395224E-19 0.008006861
      vertex 0.0054992614 0.003175 0.008006861
      vertex 0.006071089 7.708432E-19 0.00772795
    endloop
  endfacet
  facet normal -0.6947460632234339 -0.186156721982446 0.6947471356517352
    outer loop
      vertex 0.0054992614 0.003175 0.008006861
      vertex 0.005257717 0.0030355444 0.00772795
      vertex 0.006071089 7.708432E-19 0.00772795
    endloop
  endfacet
  facet normal -0.9351128970600519 -0.25056284708190346 0.2505636234854678
    outer loop
      vertex 0.006071089 7.708432E-19 0.00772795
      vertex 0.005257717 0.0030355444 0.00772795
      vertex 0.005969 7.893686E-19 0.00734695
    endloop
  endfacet
  facet normal -0.9351130212863024 -0.25056282124343765 0.2505631857063857
    outer loop
      vertex 0.005257717 0.0030355444 0.00772795
      vertex 0.0051693055 0.0029845 0.00734695
      vertex 0.005969 7.893686E-19 0.00734695
    endloop
  endfacet
  facet normal -0.6845502512890657 -0.6845502512890657 -0.2505631794980138
    outer loop
      vertex 0.0051693055 0.0029845 0.00734695
      vertex 0.0029845 0.0051693055 0.00734695
      vertex 0.005257717 0.0030355444 0.00696595
    endloop
  endfacet
  facet normal -0.6845502512890658 -0.6845502512890658 -0.2505631794980139
    outer loop
      vertex 0.0029845 0.0051693055 0.00734695
      vertex 0.0030355444 0.005257717 0.00696595
      vertex 0.005257717 0.0030355444 0.00696595
    endloop
  endfacet
  facet normal -0.5085898399539246 -0.5085898399539246 -0.6947465360772104
    outer loop
      vertex 0.005257717 0.0030355444 0.00696595
      vertex 0.0030355444 0.005257717 0.00696595
      vertex 0.0054992614 0.003175 0.0066870386
    endloop
  endfacet
  facet normal -0.5085898399539246 -0.5085898399539246 -0.6947465360772105
    outer loop
      vertex 0.0030355444 0.005257717 0.00696595
      vertex 0.003175 0.0054992614 0.0066870386
      vertex 0.0054992614 0.003175 0.0066870386
    endloop
  endfacet
  facet normal -0.1890146595906158 -0.1890146595906158 -0.963611393103925
    outer loop
      vertex 0.0054992614 0.003175 0.0066870386
      vertex 0.003175 0.0054992614 0.0066870386
      vertex 0.005829217 0.0033655 0.00658495
    endloop
  endfacet
  facet normal -0.18901465959061578 -0.1890146595906158 -0.9636113931039251
    outer loop
      vertex 0.003175 0.0054992614 0.0066870386
      vertex 0.0033655 0.005829217 0.00658495
      vertex 0.005829217 0.0033655 0.00658495
    endloop
  endfacet
  facet normal 0.18901452470198435 0.18901452470198435 -0.9636114460213545
    outer loop
      vertex 0.005829217 0.0033655 0.00658495
      vertex 0.0033655 0.005829217 0.00658495
      vertex 0.006159173 0.003556 0.0066870386
    endloop
  endfacet
  facet normal 0.18901452470198432 0.18901452470198432 -0.9636114460213545
    outer loop
      vertex 0.0033655 0.005829217 0.00658495
      vertex 0.003556 0.006159173 0.0066870386
      vertex 0.006159173 0.003556 0.0066870386
    endloop
  endfacet
  facet normal 0.508590097678349 0.508590097678349 -0.6947461587422092
    outer loop
      vertex 0.006159173 0.003556 0.0066870386
      vertex 0.003556 0.006159173 0.0066870386
      vertex 0.006400717 0.0036954556 0.00696595
    endloop
  endfacet
  facet normal 0.508590097678349 0.508590097678349 -0.6947461587422092
    outer loop
      vertex 0.003556 0.006159173 0.0066870386
      vertex 0.0036954556 0.006400717 0.00696595
      vertex 0.006400717 0.0036954556 0.00696595
    endloop
  endfacet
  facet normal 0.6845503129248164 0.6845503129248164 -0.2505628427143022
    outer loop
      vertex 0.006400717 0.0036954556 0.00696595
      vertex 0.0036954556 0.006400717 0.00696595
      vertex 0.0064891283 0.0037465 0.00734695
    endloop
  endfacet
  facet normal 0.6845503129248163 0.6845503129248163 -0.2505628427143021
    outer loop
      vertex 0.0036954556 0.006400717 0.00696595
      vertex 0.0037465 0.0064891283 0.00734695
      vertex 0.0064891283 0.0037465 0.00734695
    endloop
  endfacet
  facet normal 0.6845503129248164 0.6845503129248164 0.25056284271430157
    outer loop
      vertex 0.0064891283 0.0037465 0.00734695
      vertex 0.0037465 0.0064891283 0.00734695
      vertex 0.006400717 0.0036954556 0.00772795
    endloop
  endfacet
  facet normal 0.6845503129248163 0.6845503129248165 0.2505628427143016
    outer loop
      vertex 0.0037465 0.0064891283 0.00734695
      vertex 0.0036954556 0.006400717 0.00772795
      vertex 0.006400717 0.0036954556 0.00772795
    endloop
  endfacet
  facet normal 0.5085897456201873 0.5085897456201873 0.6947466741913819
    outer loop
      vertex 0.006400717 0.0036954556 0.00772795
      vertex 0.0036954556 0.006400717 0.00772795
      vertex 0.006159173 0.003556 0.008006861
    endloop
  endfacet
  facet normal 0.5085897456201873 0.5085897456201873 0.694746674191382
    outer loop
      vertex 0.0036954556 0.006400717 0.00772795
      vertex 0.003556 0.006159173 0.008006861
      vertex 0.006159173 0.003556 0.008006861
    endloop
  endfacet
  facet normal 0.18901521237445482 0.18901521237445482 0.9636111762438623
    outer loop
      vertex 0.006159173 0.003556 0.008006861
      vertex 0.003556 0.006159173 0.008006861
      vertex 0.005829217 0.0033655 0.00810895
    endloop
  endfacet
  facet normal 0.18901521237445482 0.18901521237445482 0.963611176243862
    outer loop
      vertex 0.003556 0.006159173 0.008006861
      vertex 0.0033655 0.005829217 0.00810895
      vertex 0.005829217 0.0033655 0.00810895
    endloop
  endfacet
  facet normal -0.18901534726350144 -0.18901534726350144 0.9636111233260624
    outer loop
      vertex 0.005829217 0.0033655 0.00810895
      vertex 0.0033655 0.005829217 0.00810895
      vertex 0.0054992614 0.003175 0.008006861
    endloop
  endfacet
  facet normal -0.18901534726350147 -0.18901534726350144 0.9636111233260624
    outer loop
      vertex 0.0033655 0.005829217 0.00810895
      vertex 0.003175 0.0054992614 0.008006861
      vertex 0.0054992614 0.003175 0.008006861
    endloop
  endfacet
  facet normal -0.508589487895559 -0.508589487895559 0.6947470515261409
    outer loop
      vertex 0.0054992614 0.003175 0.008006861
      vertex 0.003175 0.0054992614 0.008006861
      vertex 0.005257717 0.0030355444 0.00772795
    endloop
  endfacet
  facet normal -0.508589487895559 -0.508589487895559 0.6947470515261408
    outer loop
      vertex 0.003175 0.0054992614 0.008006861
      vertex 0.0030355444 0.005257717 0.00772795
      vertex 0.005257717 0.0030355444 0.00772795
    endloop
  endfacet
  facet normal -0.6845502512890658 -0.6845502512890658 0.2505631794980133
    outer loop
      vertex 0.005257717 0.0030355444 0.00772795
      vertex 0.0030355444 0.005257717 0.00772795
      vertex 0.0051693055 0.0029845 0.00734695
    endloop
  endfacet
  facet normal -0.6845502512890659 -0.6845502512890659 0.2505631794980133
    outer loop
      vertex 0.0030355444 0.005257717 0.00772795
      vertex 0.0029845 0.0051693055 0.00734695
      vertex 0.0051693055 0.0029845 0.00734695
    endloop
  endfacet
  facet normal -0.25056282124343754 -0.9351130212863021 -0.2505631857063862
    outer loop
      vertex 0.0029845 0.0051693055 0.00734695
      vertex 0.0 0.005969 0.00734695
      vertex 0.0030355444 0.005257717 0.00696595
    endloop
  endfacet
  facet normal -0.2505628470819034 -0.935112897060052 -0.2505636234854684
    outer loop
      vertex 0.0 0.005969 0.00734695
      vertex 0.0 0.006071089 0.00696595
      vertex 0.0030355444 0.005257717 0.00696595
    endloop
  endfacet
  facet normal -0.18615685084481673 -0.6947465441441542 -0.6947466202028588
    outer loop
      vertex 0.0030355444 0.005257717 0.00696595
      vertex 0.0 0.006071089 0.00696595
      vertex 0.003175 0.0054992614 0.0066870386
    endloop
  endfacet
  facet normal -0.18615689859997983 -0.6947470739601286 -0.6947460775905657
    outer loop
      vertex 0.0 0.006071089 0.00696595
      vertex 0.0 0.00635 0.0066870386
      vertex 0.003175 0.0054992614 0.0066870386
    endloop
  endfacet
  facet normal -0.0691841645718262 -0.25819884335276233 -0.963611388820096
    outer loop
      vertex 0.003175 0.0054992614 0.0066870386
      vertex 0.0 0.00635 0.0066870386
      vertex 0.0033655 0.005829217 0.00658495
    endloop
  endfacet
  facet normal -0.0691841568220876 -0.25819879037943266 -0.9636114035706587
    outer loop
      vertex 0.0 0.00635 0.0066870386
      vertex 0.0 0.006731 0.00658495
      vertex 0.0033655 0.005829217 0.00658495
    endloop
  endfacet
  facet normal 0.06918410273940022 0.2581985885400939 -0.9636114615362602
    outer loop
      vertex 0.0033655 0.005829217 0.00658495
      vertex 0.0 0.006731 0.00658495
      vertex 0.003556 0.006159173 0.0066870386
    endloop
  endfacet
  facet normal 0.06918413364377665 0.2581987907954642 -0.9636114051233102
    outer loop
      vertex 0.0 0.006731 0.00658495
      vertex 0.0 0.007112 0.0066870386
      vertex 0.003556 0.006159173 0.0066870386
    endloop
  endfacet
  facet normal 0.1861568540305125 0.6947470767857152 -0.6947460867073424
    outer loop
      vertex 0.003556 0.006159173 0.0066870386
      vertex 0.0 0.007112 0.0066870386
      vertex 0.0036954556 0.006400717 0.00696595
    endloop
  endfacet
  facet normal 0.18615685438579574 0.6947470798837132 -0.6947460835141419
    outer loop
      vertex 0.0 0.007112 0.0066870386
      vertex 0.0 0.007390911 0.00696595
      vertex 0.0036954556 0.006400717 0.00696595
    endloop
  endfacet
  facet normal 0.2505627319429373 0.9351131706613319 -0.2505627175319635
    outer loop
      vertex 0.0036954556 0.006400717 0.00696595
      vertex 0.0 0.007390911 0.00696595
      vertex 0.0037465 0.0064891283 0.00734695
    endloop
  endfacet
  facet normal 0.25056276379699327 0.9351129178812744 -0.25056362906451773
    outer loop
      vertex 0.0 0.007390911 0.00696595
      vertex 0.0 0.007493 0.00734695
      vertex 0.0037465 0.0064891283 0.00734695
    endloop
  endfacet
  facet normal 0.25056282443937505 0.9351131442017131 0.2505627237841831
    outer loop
      vertex 0.0037465 0.0064891283 0.00734695
      vertex 0.0 0.007493 0.00734695
      vertex 0.0036954556 0.006400717 0.00772795
    endloop
  endfacet
  facet normal 0.25056267046293873 0.9351129412147737 0.25056363531673137
    outer loop
      vertex 0.0 0.007493 0.00734695
      vertex 0.0 0.007390911 0.00772795
      vertex 0.0036954556 0.006400717 0.00772795
    endloop
  endfacet
  facet normal 0.18615672474067466 0.6947465960413665 0.6947466020951517
    outer loop
      vertex 0.0036954556 0.006400717 0.00772795
      vertex 0.0 0.007390911 0.00772795
      vertex 0.003556 0.006159173 0.008006861
    endloop
  endfacet
  facet normal 0.1861567259819892 0.6947465989019557 0.6947465989019534
    outer loop
      vertex 0.0 0.007390911 0.00772795
      vertex 0.0 0.007112 0.008006861
      vertex 0.003556 0.006159173 0.008006861
    endloop
  endfacet
  facet normal 0.06918433416386364 0.2581995391468747 0.9636111902062182
    outer loop
      vertex 0.003556 0.006159173 0.008006861
      vertex 0.0 0.007112 0.008006861
      vertex 0.0033655 0.005829217 0.00810895
    endloop
  endfacet
  facet normal 0.06918440852780133 0.2581997297579522 0.9636111337928691
    outer loop
      vertex 0.0 0.007112 0.008006861
      vertex 0.0 0.006731 0.00810895
      vertex 0.0033655 0.005829217 0.00810895
    endloop
  endfacet
  facet normal -0.06918442188946015 -0.2581997796243422 0.9636111194718346
    outer loop
      vertex 0.0033655 0.005829217 0.00810895
      vertex 0.0 0.006731 0.00810895
      vertex 0.003175 0.0054992614 0.008006861
    endloop
  endfacet
  facet normal -0.06918440211420322 -0.25819972987307194 0.9636111342225
    outer loop
      vertex 0.0 0.006731 0.00810895
      vertex 0.0 0.00635 0.008006861
      vertex 0.003175 0.0054992614 0.008006861
    endloop
  endfacet
  facet normal -0.18615663713073916 -0.6947460981435392 0.6947471234675983
    outer loop
      vertex 0.003175 0.0054992614 0.008006861
      vertex 0.0 0.00635 0.008006861
      vertex 0.0030355444 0.005257717 0.00772795
    endloop
  endfacet
  facet normal -0.18615686068162976 -0.6947465808556251 0.6947465808556229
    outer loop
      vertex 0.0 0.00635 0.008006861
      vertex 0.0 0.006071089 0.00772795
      vertex 0.0030355444 0.005257717 0.00772795
    endloop
  endfacet
  facet normal -0.2505628761589724 -0.9351130055771065 0.2505631894183462
    outer loop
      vertex 0.0030355444 0.005257717 0.00772795
      vertex 0.0 0.006071089 0.00772795
      vertex 0.0029845 0.0051693055 0.00734695
    endloop
  endfacet
  facet normal -0.25056279166906475 -0.9351129109132591 0.2505636271974365
    outer loop
      vertex 0.0 0.006071089 0.00772795
      vertex 0.0 0.005969 0.00734695
      vertex 0.0029845 0.0051693055 0.00734695
    endloop
  endfacet
endsolid toggle_switchSTEP_Switch_12V_LED_CLOSED_OFF_6
