solid toggle_switchSTEP_Switch_12V_LED_CLOSED_OFF_3
  facet normal 0.25881900215890186 0.9387351248659701 0.22757216320178977
    outer loop
      vertex 0.0 0.0013301726 0.016718416
      vertex 0.001778 -0.002663532 0.031170318
      vertex 0.001778 8.6717E-4 0.016606173
    endloop
  endfacet
  facet normal 0.7071068902463841 0.687201692075201 0.1665943581729855
    outer loop
      vertex 0.001778 -0.002663532 0.031170318
      vertex 0.0030795864 -0.003928479 0.030863663
      vertex 0.001778 8.6717E-4 0.016606173
    endloop
  endfacet
  facet normal 0.7071068532883275 0.6872017264803782 0.16659437311946337
    outer loop
      vertex 0.001778 8.6717E-4 0.016606173
      vertex 0.0030795864 -0.003928479 0.030863663
      vertex 0.0030795864 -3.9777686E-4 0.016299518
    endloop
  endfacet
  facet normal 0.965925810494644 0.25153337235079753 0.06097779279459095
    outer loop
      vertex 0.0030795864 -0.003928479 0.030863663
      vertex 0.003556 -0.005656428 0.030444767
      vertex 0.0030795864 -3.9777686E-4 0.016299518
    endloop
  endfacet
  facet normal 0.9659258260563311 0.2515333176486141 0.060977771934336115
    outer loop
      vertex 0.0030795864 -3.9777686E-4 0.016299518
      vertex 0.003556 -0.005656428 0.030444767
      vertex 0.003556 -0.0021257263 0.015880622
    endloop
  endfacet
  facet normal 0.9659258544360182 -0.2515332147156377 -0.060977746980888134
    outer loop
      vertex 0.003556 -0.005656428 0.030444767
      vertex 0.0030795864 -0.007384378 0.03002587
      vertex 0.003556 -0.0021257263 0.015880622
    endloop
  endfacet
  facet normal 0.9659258523997122 -0.25153322187363003 -0.060977749710533616
    outer loop
      vertex 0.003556 -0.0021257263 0.015880622
      vertex 0.0030795864 -0.007384378 0.03002587
      vertex 0.0030795864 -0.003853676 0.015461724
    endloop
  endfacet
  facet normal 0.707106762253077 -0.6872018190846126 -0.16659437752448236
    outer loop
      vertex 0.0030795864 -0.007384378 0.03002587
      vertex 0.001778 -0.008649325 0.029719217
      vertex 0.0030795864 -0.003853676 0.015461724
    endloop
  endfacet
  facet normal 0.7071066678579715 -0.687201906959335 -0.1665944156994764
    outer loop
      vertex 0.0030795864 -0.003853676 0.015461724
      vertex 0.001778 -0.008649325 0.029719217
      vertex 0.001778 -0.0051186224 0.01515507
    endloop
  endfacet
  facet normal 0.25881870659582346 -0.9387352001330155 -0.22757218887046096
    outer loop
      vertex 0.001778 -0.008649325 0.029719217
      vertex 2.0146656E-18 -0.009112327 0.029606974
      vertex 0.001778 -0.0051186224 0.01515507
    endloop
  endfacet
  facet normal 0.2588191499404174 -0.9387350979656354 -0.22757210609292355
    outer loop
      vertex 0.001778 -0.0051186224 0.01515507
      vertex 2.0146656E-18 -0.009112327 0.029606974
      vertex 2.0146656E-18 -0.0055816253 0.015042827
    endloop
  endfacet
  facet normal -0.2588187065958201 -0.9387352134153736 -0.22757213408073412
    outer loop
      vertex 2.0146656E-18 -0.009112327 0.029606974
      vertex -0.001778 -0.008649325 0.029719217
      vertex 2.0146656E-18 -0.0055816253 0.015042827
    endloop
  endfacet
  facet normal -0.25881914994041333 -0.9387350846832805 -0.22757216088264406
    outer loop
      vertex 2.0146656E-18 -0.0055816253 0.015042827
      vertex -0.001778 -0.008649325 0.029719217
      vertex -0.001778 -0.0051186224 0.01515507
    endloop
  endfacet
  facet normal -0.7071067622530719 -0.6872018152214642 -0.16659439345999066
    outer loop
      vertex -0.001778 -0.008649325 0.029719217
      vertex -0.0030795864 -0.007384378 0.03002587
      vertex -0.001778 -0.0051186224 0.01515507
    endloop
  endfacet
  facet normal -0.7071066678579695 -0.6872019108224907 -0.1665943997639676
    outer loop
      vertex -0.001778 -0.0051186224 0.01515507
      vertex -0.0030795864 -0.007384378 0.03002587
      vertex -0.0030795864 -0.003853676 0.015461724
    endloop
  endfacet
  facet normal -0.9659258544360182 -0.25153321448795785 -0.06097774792006765
    outer loop
      vertex -0.0030795864 -0.007384378 0.03002587
      vertex -0.003556 -0.005656428 0.030444767
      vertex -0.0030795864 -0.003853676 0.015461724
    endloop
  endfacet
  facet normal -0.9659258523997122 -0.25153322210131046 -0.060977748771354194
    outer loop
      vertex -0.0030795864 -0.003853676 0.015461724
      vertex -0.003556 -0.005656428 0.030444767
      vertex -0.003556 -0.0021257263 0.015880622
    endloop
  endfacet
  facet normal -0.9659258104946448 0.25153337409074955 0.060977785617277576
    outer loop
      vertex -0.003556 -0.005656428 0.030444767
      vertex -0.0030795864 -0.003928479 0.030863663
      vertex -0.003556 -0.0021257263 0.015880622
    endloop
  endfacet
  facet normal -0.9659258260563302 0.2515333159086629 0.06097777911164797
    outer loop
      vertex -0.003556 -0.0021257263 0.015880622
      vertex -0.0030795864 -0.003928479 0.030863663
      vertex -0.0030795864 -3.9777686E-4 0.016299518
    endloop
  endfacet
  facet normal -0.7071068902463867 0.6872016905626755 0.16659436441214068
    outer loop
      vertex -0.0030795864 -0.003928479 0.030863663
      vertex -0.001778 -0.002663532 0.031170318
      vertex -0.0030795864 -3.9777686E-4 0.016299518
    endloop
  endfacet
  facet normal -0.7071068532883246 0.687201727992904 0.16659436688030788
    outer loop
      vertex -0.0030795864 -3.9777686E-4 0.016299518
      vertex -0.001778 -0.002663532 0.031170318
      vertex -0.001778 8.6717E-4 0.016606173
    endloop
  endfacet
  facet normal -0.2588188827394789 0.9387351559635448 0.22757217074059616
    outer loop
      vertex -0.001778 -0.002663532 0.031170318
      vertex 0.0 -0.0022005294 0.03128256
      vertex -0.001778 8.6717E-4 0.016606173
    endloop
  endfacet
  facet normal -0.25881900215890136 0.9387351212882298 0.22757217795996762
    outer loop
      vertex -0.001778 8.6717E-4 0.016606173
      vertex 0.0 -0.0022005294 0.03128256
      vertex 0.0 0.0013301726 0.016718416
    endloop
  endfacet
  facet normal 0.2588188827394707 0.9387351523858065 0.227572185498775
    outer loop
      vertex 0.0 -0.0022005294 0.03128256
      vertex 0.001778 -0.002663532 0.031170318
      vertex 0.0 0.0013301726 0.016718416
    endloop
  endfacet
  facet normal 0.25140066426687685 -0.2929151523717924 0.9224957558261082
    outer loop
      vertex -5.947422E-6 -0.00599041 0.03179549
      vertex 0.0024115143 -0.0058413437 0.03118401
      vertex 0.002413 -0.0058359555 0.031185316
    endloop
  endfacet
  facet normal -1.1428872884949339E-5 -0.23563878650690367 0.9718407082248277
    outer loop
      vertex 0.0 -0.0034908813 0.03175382
      vertex -5.859324E-6 -0.003492407 0.03175345
      vertex 0.0012065 -0.0038050616 0.031677656
    endloop
  endfacet
  facet normal 0.06669897175864428 0.016787237492663552 0.9976319139961914
    outer loop
      vertex -5.859324E-6 -0.003492407 0.03175345
      vertex -5.947422E-6 -0.00599041 0.03179549
      vertex 0.0012065 -0.0038050616 0.031677656
    endloop
  endfacet
  facet normal 0.18369981362650573 -0.048981438204225854 0.9817612730114347
    outer loop
      vertex 0.0012065 -0.0038050616 0.031677656
      vertex -5.947422E-6 -0.00599041 0.03179549
      vertex 0.0020897193 -0.0046634185 0.03146957
    endloop
  endfacet
  facet normal 0.25107072048446094 -0.1621236043122399 0.9542952531791312
    outer loop
      vertex -5.947422E-6 -0.00599041 0.03179549
      vertex 0.002413 -0.0058359555 0.031185316
      vertex 0.0020897193 -0.0046634185 0.03146957
    endloop
  endfacet
  facet normal -1.0463127983525244E-6 -0.23559962446283614 0.9718502029386401
    outer loop
      vertex 0.0020897193 -0.0070084925 0.030901065
      vertex 0.0024115143 -0.0058413437 0.03118401
      vertex 0.0012065 -0.007866849 0.030692978
    endloop
  endfacet
  facet normal 0.24936400602959394 -0.3657319419755827 0.8966926670357249
    outer loop
      vertex 0.0024115143 -0.0058413437 0.03118401
      vertex -5.947422E-6 -0.00599041 0.03179549
      vertex 0.0012065 -0.007866849 0.030692978
    endloop
  endfacet
  facet normal 0.06759796699368847 -0.47259674118545186 0.8786824426829134
    outer loop
      vertex 0.0012065 -0.007866849 0.030692978
      vertex -5.947422E-6 -0.00599041 0.03179549
      vertex 1.3394841E-18 -0.00818103 0.030616814
    endloop
  endfacet
  facet normal -0.06782937328875442 -0.4728744311326196 0.8785151953724285
    outer loop
      vertex -5.947422E-6 -0.00599041 0.03179549
      vertex -5.859324E-6 -0.008179504 0.030617183
      vertex 1.3394841E-18 -0.00818103 0.030616814
    endloop
  endfacet
  facet normal -0.25255853371648673 -0.29317175287166736 0.9220978854574672
    outer loop
      vertex -0.0024115143 -0.0058413437 0.03118401
      vertex -0.0020897193 -0.0070084925 0.030901065
      vertex -5.947422E-6 -0.00599041 0.03179549
    endloop
  endfacet
  facet normal -0.1849823517020516 -0.40717100102413306 0.8944234486437528
    outer loop
      vertex -0.0020897193 -0.0070084925 0.030901065
      vertex -0.0012065 -0.007866849 0.030692978
      vertex -5.947422E-6 -0.00599041 0.03179549
    endloop
  endfacet
  facet normal -0.0676807956103351 -0.47287920883014184 0.8785240826304827
    outer loop
      vertex -5.947422E-6 -0.00599041 0.03179549
      vertex -0.0012065 -0.007866849 0.030692978
      vertex -5.859324E-6 -0.008179504 0.030617183
    endloop
  endfacet
  facet normal -7.924513402947074E-5 -0.2355814290217934 0.9718546105360917
    outer loop
      vertex -0.002413 -0.0058359555 0.031185316
      vertex -0.0024115143 -0.0058413437 0.03118401
      vertex -0.0020897193 -0.0046634185 0.03146957
    endloop
  endfacet
  facet normal -0.2525270719462763 -0.16226006804173163 0.9538877021187205
    outer loop
      vertex -0.0024115143 -0.0058413437 0.03118401
      vertex -5.947422E-6 -0.00599041 0.03179549
      vertex -0.0020897193 -0.0046634185 0.03146957
    endloop
  endfacet
  facet normal -0.18431767692583018 -0.04832548439524559 0.9816779724179565
    outer loop
      vertex -0.0020897193 -0.0046634185 0.03146957
      vertex -5.947422E-6 -0.00599041 0.03179549
      vertex -0.0012065 -0.0038050616 0.031677656
    endloop
  endfacet
  facet normal -0.06734825727852893 0.016791229726190814 0.9975882250938146
    outer loop
      vertex -5.947422E-6 -0.00599041 0.03179549
      vertex -5.859324E-6 -0.003492407 0.03175345
      vertex -0.0012065 -0.0038050616 0.031677656
    endloop
  endfacet
  facet normal 0.2541699145187978 0.8774201651032655 0.40685563585093126
    outer loop
      vertex 0.0 -0.0022005294 0.03128256
      vertex 0.0017489981 -0.0027810528 0.03144188
      vertex 0.001778 -0.002663532 0.031170318
    endloop
  endfacet
  facet normal 0.6944059921614243 0.630404556107175 0.3469732175393708
    outer loop
      vertex 0.0017489981 -0.0027810528 0.03144188
      vertex 0.0030293537 -0.0040253666 0.031140227
      vertex 0.001778 -0.002663532 0.031170318
    endloop
  endfacet
  facet normal 0.6944060158792813 0.630404579905092 0.3469731268345543
    outer loop
      vertex 0.001778 -0.002663532 0.031170318
      vertex 0.0030293537 -0.0040253666 0.031140227
      vertex 0.0030795864 -0.003928479 0.030863663
    endloop
  endfacet
  facet normal 0.9485759937036135 0.2025615601256411 0.24325377392482259
    outer loop
      vertex 0.0030293537 -0.0040253666 0.031140227
      vertex 0.0034979961 -0.0057251304 0.030728163
      vertex 0.0030795864 -0.003928479 0.030863663
    endloop
  endfacet
  facet normal 0.948575674546983 0.20256138066698745 0.24325516792047808
    outer loop
      vertex 0.0030795864 -0.003928479 0.030863663
      vertex 0.0034979961 -0.0057251304 0.030728163
      vertex 0.003556 -0.005656428 0.030444767
    endloop
  endfacet
  facet normal 0.9485758538017944 -0.29146894739634055 0.12348968494520583
    outer loop
      vertex 0.0034979961 -0.0057251304 0.030728163
      vertex 0.0030293537 -0.0074248943 0.0303161
      vertex 0.003556 -0.005656428 0.030444767
    endloop
  endfacet
  facet normal 0.9485759138594283 -0.2914689340147998 0.1234892552007125
    outer loop
      vertex 0.003556 -0.005656428 0.030444767
      vertex 0.0030293537 -0.0074248943 0.0303161
      vertex 0.0030795864 -0.007384378 0.03002587
    endloop
  endfacet
  facet normal 0.6944056237840983 -0.7193121405421364 0.01977053680877868
    outer loop
      vertex 0.0030293537 -0.0074248943 0.0303161
      vertex 0.0017489981 -0.008669208 0.030014448
      vertex 0.0030795864 -0.007384378 0.03002587
    endloop
  endfacet
  facet normal 0.6944056161685753 -0.7193121363795807 0.019770955732711985
    outer loop
      vertex 0.0030795864 -0.007384378 0.03002587
      vertex 0.0017489981 -0.008669208 0.030014448
      vertex 0.001778 -0.008649325 0.029719217
    endloop
  endfacet
  facet normal 0.25416986201213204 -0.966327465230073 -0.0401112351686642
    outer loop
      vertex 0.0017489981 -0.008669208 0.030014448
      vertex 1.941778E-18 -0.009124658 0.029904036
      vertex 0.001778 -0.008649325 0.029719217
    endloop
  endfacet
  facet normal 0.25416976790345974 -0.9663274536400858 -0.040112110706979884
    outer loop
      vertex 0.001778 -0.008649325 0.029719217
      vertex 1.941778E-18 -0.009124658 0.029904036
      vertex 2.0146656E-18 -0.009112327 0.029606974
    endloop
  endfacet
  facet normal -0.2541699048102977 -0.9663274176918848 -0.040112109214775274
    outer loop
      vertex 1.941778E-18 -0.009124658 0.029904036
      vertex -0.0017489981 -0.008669208 0.030014448
      vertex 2.0146656E-18 -0.009112327 0.029606974
    endloop
  endfacet
  facet normal -0.254169725803322 -0.9663275004028744 -0.04011125091787441
    outer loop
      vertex 2.0146656E-18 -0.009112327 0.029606974
      vertex -0.0017489981 -0.008669208 0.030014448
      vertex -0.001778 -0.008649325 0.029719217
    endloop
  endfacet
  facet normal -0.6944055681506294 -0.7193121829507393 0.019770947879247974
    outer loop
      vertex -0.0017489981 -0.008669208 0.030014448
      vertex -0.0030293537 -0.0074248943 0.0303161
      vertex -0.001778 -0.008649325 0.029719217
    endloop
  endfacet
  facet normal -0.6944056708944274 -0.7193120946628735 0.019770551367359744
    outer loop
      vertex -0.001778 -0.008649325 0.029719217
      vertex -0.0030293537 -0.0074248943 0.0303161
      vertex -0.0030795864 -0.007384378 0.03002587
    endloop
  endfacet
  facet normal -0.9485759325391886 -0.2914688679445694 0.12348926765723334
    outer loop
      vertex -0.0030293537 -0.0074248943 0.0303161
      vertex -0.0034979961 -0.0057251304 0.030728163
      vertex -0.0030795864 -0.007384378 0.03002587
    endloop
  endfacet
  facet normal -0.9485758364063392 -0.29146901217076776 0.12348966568183294
    outer loop
      vertex -0.0030795864 -0.007384378 0.03002587
      vertex -0.0034979961 -0.0057251304 0.030728163
      vertex -0.003556 -0.005656428 0.030444767
    endloop
  endfacet
  facet normal -0.9485757322991293 0.20256116020623832 0.24325512629556872
    outer loop
      vertex -0.0034979961 -0.0057251304 0.030728163
      vertex -0.0030293537 -0.0040253666 0.031140227
      vertex -0.003556 -0.005656428 0.030444767
    endloop
  endfacet
  facet normal -0.948575931687756 0.20256177406269046 0.24325383760853878
    outer loop
      vertex -0.003556 -0.005656428 0.030444767
      vertex -0.0030293537 -0.0040253666 0.031140227
      vertex -0.0030795864 -0.003928479 0.030863663
    endloop
  endfacet
  facet normal -0.694406005004033 0.6304045908594343 0.3469731286968605
    outer loop
      vertex -0.0030293537 -0.0040253666 0.031140227
      vertex -0.0017489981 -0.0027810528 0.03144188
      vertex -0.0030795864 -0.003928479 0.030863663
    endloop
  endfacet
  facet normal -0.6944060032461543 0.6304045457196946 0.34697321422791055
    outer loop
      vertex -0.0030795864 -0.003928479 0.030863663
      vertex -0.0017489981 -0.0027810528 0.03144188
      vertex -0.001778 -0.002663532 0.031170318
    endloop
  endfacet
  facet normal -0.25417018045912076 0.8774200899726488 0.40685563173903205
    outer loop
      vertex -0.0017489981 -0.0027810528 0.03144188
      vertex 0.0 -0.0023256023 0.031552292
      vertex -0.001778 -0.002663532 0.031170318
    endloop
  endfacet
  facet normal -0.2541699967164619 0.8774208526635867 0.4068541017124665
    outer loop
      vertex -0.001778 -0.002663532 0.031170318
      vertex 0.0 -0.0023256023 0.031552292
      vertex 0.0 -0.0022005294 0.03128256
    endloop
  endfacet
  facet normal 0.2541702640191524 0.8774207889342276 0.40685407216159475
    outer loop
      vertex 0.0 -0.0023256023 0.031552292
      vertex 0.0017489981 -0.0027810528 0.03144188
      vertex 0.0 -0.0022005294 0.03128256
    endloop
  endfacet
  facet normal 0.21745937348168135 0.6609631254111317 0.7182194426021223
    outer loop
      vertex 0.0 -0.0023256023 0.031552292
      vertex 0.0016664077 -0.0029783195 0.031648427
      vertex 0.0017489981 -0.0027810528 0.03144188
    endloop
  endfacet
  facet normal 0.5941102595324045 0.44962535288830324 0.666985788123261
    outer loop
      vertex 0.0016664077 -0.0029783195 0.031648427
      vertex 0.0028863028 -0.004163875 0.03136102
      vertex 0.0017489981 -0.0027810528 0.03144188
    endloop
  endfacet
  facet normal 0.5941117521630717 0.44962671181730984 0.6669835424971734
    outer loop
      vertex 0.0017489981 -0.0027810528 0.03144188
      vertex 0.0028863028 -0.004163875 0.03136102
      vertex 0.0030293537 -0.0040253666 0.031140227
    endloop
  endfacet
  facet normal 0.8115713146317113 0.08357846463379072 0.5782444478906945
    outer loop
      vertex 0.0028863028 -0.004163875 0.03136102
      vertex 0.0033328154 -0.005783373 0.030968415
      vertex 0.0030293537 -0.0040253666 0.031140227
    endloop
  endfacet
  facet normal 0.811572518867108 0.08357884303166145 0.5782427030384271
    outer loop
      vertex 0.0030293537 -0.0040253666 0.031140227
      vertex 0.0033328154 -0.005783373 0.030968415
      vertex 0.0034979961 -0.0057251304 0.030728163
    endloop
  endfacet
  facet normal 0.811572210323885 -0.33909881919441526 0.47577572263720763
    outer loop
      vertex 0.0033328154 -0.005783373 0.030968415
      vertex 0.0028863028 -0.0074028717 0.030575808
      vertex 0.0034979961 -0.0057251304 0.030728163
    endloop
  endfacet
  facet normal 0.8115702778232875 -0.3390984385971382 0.47577929031728033
    outer loop
      vertex 0.0034979961 -0.0057251304 0.030728163
      vertex 0.0028863028 -0.0074028717 0.030575808
      vertex 0.0030293537 -0.0074248943 0.0303161
    endloop
  endfacet
  facet normal 0.5941111094292055 -0.7051469932740044 0.3870396717772352
    outer loop
      vertex 0.0028863028 -0.0074028717 0.030575808
      vertex 0.0016664077 -0.008588427 0.030288402
      vertex 0.0030293537 -0.0074248943 0.0303161
    endloop
  endfacet
  facet normal 0.594111738086609 -0.7051476770469559 0.38703746100731734
    outer loop
      vertex 0.0030293537 -0.0074248943 0.0303161
      vertex 0.0016664077 -0.008588427 0.030288402
      vertex 0.0017489981 -0.008669208 0.030014448
    endloop
  endfacet
  facet normal 0.21745993263144417 -0.9164862389306739 0.3358037396317011
    outer loop
      vertex 0.0016664077 -0.008588427 0.030288402
      vertex 1.8500842E-18 -0.00902237 0.030183204
      vertex 0.0017489981 -0.008669208 0.030014448
    endloop
  endfacet
  facet normal 0.21745992491474872 -0.9164863724327146 0.335803380270651
    outer loop
      vertex 0.0017489981 -0.008669208 0.030014448
      vertex 1.8500842E-18 -0.00902237 0.030183204
      vertex 1.941778E-18 -0.009124658 0.029904036
    endloop
  endfacet
  facet normal -0.21745998700048236 -0.9164863594449065 0.33580337551187867
    outer loop
      vertex 1.8500842E-18 -0.00902237 0.030183204
      vertex -0.0016664077 -0.008588427 0.030288402
      vertex 1.941778E-18 -0.009124658 0.029904036
    endloop
  endfacet
  facet normal -0.21745987311306947 -0.916486257609359 0.33580372719616985
    outer loop
      vertex 1.941778E-18 -0.009124658 0.029904036
      vertex -0.0016664077 -0.008588427 0.030288402
      vertex -0.0017489981 -0.008669208 0.030014448
    endloop
  endfacet
  facet normal -0.5941120383809287 -0.7051474165143721 0.38703747471525857
    outer loop
      vertex -0.0016664077 -0.008588427 0.030288402
      vertex -0.0028863028 -0.0074028717 0.030575808
      vertex -0.0017489981 -0.008669208 0.030014448
    endloop
  endfacet
  facet normal -0.5941108530003337 -0.7051472737939554 0.3870395543199281
    outer loop
      vertex -0.0017489981 -0.008669208 0.030014448
      vertex -0.0028863028 -0.0074028717 0.030575808
      vertex -0.0030293537 -0.0074248943 0.0303161
    endloop
  endfacet
  facet normal -0.8115700537501538 -0.3390990726122848 0.47577922065750294
    outer loop
      vertex -0.0028863028 -0.0074028717 0.030575808
      vertex -0.0033328154 -0.005783373 0.030968415
      vertex -0.0030293537 -0.0074248943 0.0303161
    endloop
  endfacet
  facet normal -0.8115723325602144 -0.33909819714973854 0.4757759574763836
    outer loop
      vertex -0.0030293537 -0.0074248943 0.0303161
      vertex -0.0033328154 -0.005783373 0.030968415
      vertex -0.0034979961 -0.0057251304 0.030728163
    endloop
  endfacet
  facet normal -0.8115724542712905 0.08357919209079805 0.5782427432467473
    outer loop
      vertex -0.0033328154 -0.005783373 0.030968415
      vertex -0.0028863028 -0.004163875 0.03136102
      vertex -0.0034979961 -0.0057251304 0.030728163
    endloop
  endfacet
  facet normal -0.81157143304343 0.0835781499260953 0.5782443271859782
    outer loop
      vertex -0.0034979961 -0.0057251304 0.030728163
      vertex -0.0028863028 -0.004163875 0.03136102
      vertex -0.0030293537 -0.0040253666 0.031140227
    endloop
  endfacet
  facet normal -0.5941114292693638 0.4496270935608187 0.6669835727718972
    outer loop
      vertex -0.0028863028 -0.004163875 0.03136102
      vertex -0.0016664077 -0.0029783195 0.031648427
      vertex -0.0030293537 -0.0040253666 0.031140227
    endloop
  endfacet
  facet normal -0.5941106376644854 0.4496250533409053 0.6669856532355748
    outer loop
      vertex -0.0030293537 -0.0040253666 0.031140227
      vertex -0.0016664077 -0.0029783195 0.031648427
      vertex -0.0017489981 -0.0027810528 0.03144188
    endloop
  endfacet
  facet normal -0.21745961817362497 0.6609630337322485 0.7182194528855674
    outer loop
      vertex -0.0016664077 -0.0029783195 0.031648427
      vertex 0.0 -0.0025443763 0.031753626
      vertex -0.0017489981 -0.0027810528 0.03144188
    endloop
  endfacet
  facet normal -0.2174595864507131 0.6609641982169656 0.7182183908367208
    outer loop
      vertex -0.0017489981 -0.0027810528 0.03144188
      vertex 0.0 -0.0025443763 0.031753626
      vertex 0.0 -0.0023256023 0.031552292
    endloop
  endfacet
  facet normal 0.21745984169716587 0.6609641597085945 0.7182183489926688
    outer loop
      vertex 0.0 -0.0025443763 0.031753626
      vertex 0.0016664077 -0.0029783195 0.031648427
      vertex 0.0 -0.0023256023 0.031552292
    endloop
  endfacet
  facet normal 0.14724146196985027 0.34028305906487216 0.9287235280698093
    outer loop
      vertex 0.0 -0.0025443763 0.031753626
      vertex 0.0015428024 -0.0032253002 0.031758517
      vertex 0.0016664077 -0.0029783195 0.031648427
    endloop
  endfacet
  facet normal 0.40226952854362086 0.19718757800371675 0.894033716079165
    outer loop
      vertex 0.0015428024 -0.0032253002 0.031758517
      vertex 0.0026722122 -0.004322917 0.03149243
      vertex 0.0016664077 -0.0029783195 0.031648427
    endloop
  endfacet
  facet normal 0.4022735953762686 0.19719091789516233 0.8940311495483328
    outer loop
      vertex 0.0016664077 -0.0029783195 0.031648427
      vertex 0.0026722122 -0.004322917 0.03149243
      vertex 0.0028863028 -0.004163875 0.03136102
    endloop
  endfacet
  facet normal 0.5495158716910125 -0.050661825828670695 0.8339458532562962
    outer loop
      vertex 0.0026722122 -0.004322917 0.03149243
      vertex 0.0030856049 -0.0058222897 0.031128945
      vertex 0.0028863028 -0.004163875 0.03136102
    endloop
  endfacet
  facet normal 0.5495126012994211 -0.05066251455835554 0.833947966381457
    outer loop
      vertex 0.0028863028 -0.004163875 0.03136102
      vertex 0.0030856049 -0.0058222897 0.031128945
      vertex 0.0033328154 -0.005783373 0.030968415
    endloop
  endfacet
  facet normal 0.5495128675579717 -0.3368564083235366 0.7645674388564961
    outer loop
      vertex 0.0030856049 -0.0058222897 0.031128945
      vertex 0.0026722122 -0.0073216627 0.03076546
      vertex 0.0033328154 -0.005783373 0.030968415
    endloop
  endfacet
  facet normal 0.5495139416553668 -0.3368567479880486 0.7645665172248248
    outer loop
      vertex 0.0033328154 -0.005783373 0.030968415
      vertex 0.0026722122 -0.0073216627 0.03076546
      vertex 0.0028863028 -0.0074028717 0.030575808
    endloop
  endfacet
  facet normal 0.40227299762755536 -0.5847069328491974 0.7044815384790611
    outer loop
      vertex 0.0026722122 -0.0073216627 0.03076546
      vertex 0.0015428024 -0.00841928 0.030499373
      vertex 0.0028863028 -0.0074028717 0.030575808
    endloop
  endfacet
  facet normal 0.4022740250698552 -0.5847081696207129 0.7044799252873664
    outer loop
      vertex 0.0028863028 -0.0074028717 0.030575808
      vertex 0.0015428024 -0.00841928 0.030499373
      vertex 0.0016664077 -0.008588427 0.030288402
    endloop
  endfacet
  facet normal 0.14724182040481482 -0.7278063432057137 0.6697893498058947
    outer loop
      vertex 0.0015428024 -0.00841928 0.030499373
      vertex 1.7128547E-18 -0.008821035 0.030401977
      vertex 0.0016664077 -0.008588427 0.030288402
    endloop
  endfacet
  facet normal 0.147241664949881 -0.7278039353010545 0.6697920004472178
    outer loop
      vertex 0.0016664077 -0.008588427 0.030288402
      vertex 1.7128547E-18 -0.008821035 0.030401977
      vertex 1.8500842E-18 -0.00902237 0.030183204
    endloop
  endfacet
  facet normal -0.1472410398904966 -0.7278040037685706 0.6697920634573117
    outer loop
      vertex 1.7128547E-18 -0.008821035 0.030401977
      vertex -0.0015428024 -0.00841928 0.030499373
      vertex 1.8500842E-18 -0.00902237 0.030183204
    endloop
  endfacet
  facet normal -0.14724238756872707 -0.7278061012113536 0.6697894880800906
    outer loop
      vertex 1.8500842E-18 -0.00902237 0.030183204
      vertex -0.0015428024 -0.00841928 0.030499373
      vertex -0.0016664077 -0.008588427 0.030288402
    endloop
  endfacet
  facet normal -0.4022743526120822 -0.5847079373919093 0.7044799309997619
    outer loop
      vertex -0.0015428024 -0.00841928 0.030499373
      vertex -0.0026722122 -0.0073216627 0.03076546
      vertex -0.0016664077 -0.008588427 0.030288402
    endloop
  endfacet
  facet normal -0.40227277059041944 -0.5847072395900451 0.7044814135323211
    outer loop
      vertex -0.0016664077 -0.008588427 0.030288402
      vertex -0.0026722122 -0.0073216627 0.03076546
      vertex -0.0028863028 -0.0074028717 0.030575808
    endloop
  endfacet
  facet normal -0.5495140503820336 -0.3368565167664338 0.7645665409529225
    outer loop
      vertex -0.0026722122 -0.0073216627 0.03076546
      vertex -0.0030856049 -0.0058222897 0.031128945
      vertex -0.0028863028 -0.0074028717 0.030575808
    endloop
  endfacet
  facet normal -0.5495128465668402 -0.33685664758912764 0.7645673485266178
    outer loop
      vertex -0.0028863028 -0.0074028717 0.030575808
      vertex -0.0030856049 -0.0058222897 0.031128945
      vertex -0.0033328154 -0.005783373 0.030968415
    endloop
  endfacet
  facet normal -0.5495126583269676 -0.05066320478552638 0.8339478868726086
    outer loop
      vertex -0.0030856049 -0.0058222897 0.031128945
      vertex -0.0026722122 -0.004322917 0.03149243
      vertex -0.0033328154 -0.005783373 0.030968415
    endloop
  endfacet
  facet normal -0.5495155763149161 -0.05066123788580782 0.833946083606826
    outer loop
      vertex -0.0033328154 -0.005783373 0.030968415
      vertex -0.0026722122 -0.004322917 0.03149243
      vertex -0.0028863028 -0.004163875 0.03136102
    endloop
  endfacet
  facet normal -0.40227301174383545 0.19719176596531024 0.8940312251023599
    outer loop
      vertex -0.0026722122 -0.004322917 0.03149243
      vertex -0.0015428024 -0.0032253002 0.031758517
      vertex -0.0028863028 -0.004163875 0.03136102
    endloop
  endfacet
  facet normal -0.402270370543346 0.1971870405749529 0.8940334557566684
    outer loop
      vertex -0.0028863028 -0.004163875 0.03136102
      vertex -0.0015428024 -0.0032253002 0.031758517
      vertex -0.0016664077 -0.0029783195 0.031648427
    endloop
  endfacet
  facet normal -0.1472426276431299 0.34028248677470607 0.9287235529473604
    outer loop
      vertex -0.0015428024 -0.0032253002 0.031758517
      vertex 0.0 -0.0028235444 0.031855915
      vertex -0.0016664077 -0.0029783195 0.031648427
    endloop
  endfacet
  facet normal -0.1472429471421574 0.34028938098095446 0.928720976240168
    outer loop
      vertex -0.0016664077 -0.0029783195 0.031648427
      vertex 0.0 -0.0028235444 0.031855915
      vertex 0.0 -0.0025443763 0.031753626
    endloop
  endfacet
  facet normal 0.14724423180073723 0.34028931518611366 0.9287207966722704
    outer loop
      vertex 0.0 -0.0028235444 0.031855915
      vertex 0.0015428024 -0.0032253002 0.031758517
      vertex 0.0 -0.0025443763 0.031753626
    endloop
  endfacet
  facet normal 0.05220431294637122 -0.04141957393749606 0.9977770936459874
    outer loop
      vertex 0.0 -0.0028235444 0.031855915
      vertex 0.001397 -0.0034843942 0.03175539
      vertex 0.0015428024 -0.0032253002 0.031758517
    endloop
  endfacet
  facet normal 0.14261937397107774 -0.0921512588415455 0.9854784927445227
    outer loop
      vertex 0.001397 -0.0034843942 0.03175539
      vertex 0.002419675 -0.004478281 0.03151445
      vertex 0.0015428024 -0.0032253002 0.031758517
    endloop
  endfacet
  facet normal 0.14262081708065233 -0.0921502270237213 0.9854783803791556
    outer loop
      vertex 0.0015428024 -0.0032253002 0.031758517
      vertex 0.002419675 -0.004478281 0.03151445
      vertex 0.0026722122 -0.004322917 0.03149243
    endloop
  endfacet
  facet normal 0.1948248468960793 -0.18002482839743114 0.9641754716815787
    outer loop
      vertex 0.002419675 -0.004478281 0.03151445
      vertex 0.002794 -0.0058359555 0.031185316
      vertex 0.0026722122 -0.004322917 0.03149243
    endloop
  endfacet
  facet normal 0.19482431557707072 -0.18002489059888127 0.9641755674278345
    outer loop
      vertex 0.0026722122 -0.004322917 0.03149243
      vertex 0.002794 -0.0058359555 0.031185316
      vertex 0.0030856049 -0.0058222897 0.031128945
    endloop
  endfacet
  facet normal 0.19482434695202563 -0.2814913464344411 0.9395776155897085
    outer loop
      vertex 0.002794 -0.0058359555 0.031185316
      vertex 0.002419675 -0.00719363 0.030856183
      vertex 0.0030856049 -0.0058222897 0.031128945
    endloop
  endfacet
  facet normal 0.19482674807950792 -0.281492353399335 0.9395768160243567
    outer loop
      vertex 0.0030856049 -0.0058222897 0.031128945
      vertex 0.002419675 -0.00719363 0.030856183
      vertex 0.0026722122 -0.0073216627 0.03076546
    endloop
  endfacet
  facet normal 0.1426228810717563 -0.36936648156811347 0.9182739874834657
    outer loop
      vertex 0.002419675 -0.00719363 0.030856183
      vertex 0.001397 -0.008187517 0.03061524
      vertex 0.0026722122 -0.0073216627 0.03076546
    endloop
  endfacet
  facet normal 0.14261808472597384 -0.36935999922334883 0.918277339850452
    outer loop
      vertex 0.0026722122 -0.0073216627 0.03076546
      vertex 0.001397 -0.008187517 0.03061524
      vertex 0.0015428024 -0.00841928 0.030499373
    endloop
  endfacet
  facet normal 0.05220205597512751 -0.4200922904043587 0.9059787044377973
    outer loop
      vertex 0.001397 -0.008187517 0.03061524
      vertex 1.5829516E-18 -0.008551305 0.03052705
      vertex 0.0015428024 -0.00841928 0.030499373
    endloop
  endfacet
  facet normal 0.05220252169603099 -0.42009832488518456 0.9059758794566428
    outer loop
      vertex 0.0015428024 -0.00841928 0.030499373
      vertex 1.5829516E-18 -0.008551305 0.03052705
      vertex 1.7128547E-18 -0.008821035 0.030401977
    endloop
  endfacet
  facet normal -0.05220380223020478 -0.4200982967257418 0.9059758187285356
    outer loop
      vertex 1.5829516E-18 -0.008551305 0.03052705
      vertex -0.001397 -0.008187517 0.03061524
      vertex 1.7128547E-18 -0.008821035 0.030401977
    endloop
  endfacet
  facet normal -0.05220094047069654 -0.42009288619019913 0.905978492452422
    outer loop
      vertex 1.7128547E-18 -0.008821035 0.030401977
      vertex -0.001397 -0.008187517 0.03061524
      vertex -0.0015428024 -0.00841928 0.030499373
    endloop
  endfacet
  facet normal -0.14261664330365775 -0.3693608473857504 0.9182772225593301
    outer loop
      vertex -0.001397 -0.008187517 0.03061524
      vertex -0.002419675 -0.00719363 0.030856183
      vertex -0.0015428024 -0.00841928 0.030499373
    endloop
  endfacet
  facet normal -0.1426237329922121 -0.36936510095245656 0.9182744105036075
    outer loop
      vertex -0.0015428024 -0.00841928 0.030499373
      vertex -0.002419675 -0.00719363 0.030856183
      vertex -0.0026722122 -0.0073216627 0.03076546
    endloop
  endfacet
  facet normal -0.1948270045628811 -0.281491905005011 0.9395768971775035
    outer loop
      vertex -0.002419675 -0.00719363 0.030856183
      vertex -0.002794 -0.0058359555 0.031185316
      vertex -0.0026722122 -0.0073216627 0.03076546
    endloop
  endfacet
  facet normal -0.19482434162678372 -0.28149184761703694 0.9395774665427206
    outer loop
      vertex -0.0026722122 -0.0073216627 0.03076546
      vertex -0.002794 -0.0058359555 0.031185316
      vertex -0.0030856049 -0.0058222897 0.031128945
    endloop
  endfacet
  facet normal -0.19482431663963812 -0.18002499311363818 0.9641755480722028
    outer loop
      vertex -0.002794 -0.0058359555 0.031185316
      vertex -0.002419675 -0.004478281 0.03151445
      vertex -0.0030856049 -0.0058222897 0.031128945
    endloop
  endfacet
  facet normal -0.19482479572164096 -0.18002474144917283 0.9641754982565047
    outer loop
      vertex -0.0030856049 -0.0058222897 0.031128945
      vertex -0.002419675 -0.004478281 0.03151445
      vertex -0.0026722122 -0.004322917 0.03149243
    endloop
  endfacet
  facet normal -0.14262064367169106 -0.0921499377647679 0.9854784325233211
    outer loop
      vertex -0.002419675 -0.004478281 0.03151445
      vertex -0.001397 -0.0034843942 0.03175539
      vertex -0.0026722122 -0.004322917 0.03149243
    endloop
  endfacet
  facet normal -0.14261966737309517 -0.09215142325240422 0.9854784349091278
    outer loop
      vertex -0.0026722122 -0.004322917 0.03149243
      vertex -0.001397 -0.0034843942 0.03175539
      vertex -0.0015428024 -0.0032253002 0.031758517
    endloop
  endfacet
  facet normal -0.05220467859841862 -0.04141977937048934 0.9977770659868545
    outer loop
      vertex -0.001397 -0.0034843942 0.03175539
      vertex -6.843326E-19 -0.0031206063 0.031843584
      vertex -0.0015428024 -0.0032253002 0.031758517
    endloop
  endfacet
  facet normal -0.05220483125699239 -0.04141759686903996 0.9977771485973321
    outer loop
      vertex -0.0015428024 -0.0032253002 0.031758517
      vertex -6.843326E-19 -0.0031206063 0.031843584
      vertex 0.0 -0.0028235444 0.031855915
    endloop
  endfacet
  facet normal 0.05220525100419853 -0.04141759595897943 0.9977771266733705
    outer loop
      vertex -6.843326E-19 -0.0031206063 0.031843584
      vertex 0.001397 -0.0034843942 0.03175539
      vertex 0.0 -0.0028235444 0.031855915
    endloop
  endfacet
  facet normal 0.6845503314105353 0.7243129272067541 -0.08222911435075389
    outer loop
      vertex 0.0014986 4.567001E-4 0.016245307
      vertex 0.0015156148 4.5541977E-4 0.016375676
      vertex 0.0025956514 -6.0946937E-4 0.015986841
    endloop
  endfacet
  facet normal 0.6845506185377069 0.7243127892689121 -0.08222793905438379
    outer loop
      vertex 0.0015156148 4.5541977E-4 0.016375676
      vertex 0.0026251217 -6.2285474E-4 0.016114276
      vertex 0.0025956514 -6.0946937E-4 0.015986841
    endloop
  endfacet
  facet normal 0.9351138575637865 0.3025415411518358 -0.18447408834209297
    outer loop
      vertex 0.0025956514 -6.0946937E-4 0.015986841
      vertex 0.0026251217 -6.2285474E-4 0.016114276
      vertex 0.0029972 -0.002065884 0.015633771
    endloop
  endfacet
  facet normal 0.9351129973524314 0.302542336803291 -0.18447714390719502
    outer loop
      vertex 0.0026251217 -6.2285474E-4 0.016114276
      vertex 0.0030312296 -0.0020958052 0.015757196
      vertex 0.0029972 -0.002065884 0.015633771
    endloop
  endfacet
  facet normal 0.9351130547584352 -0.18447681393816517 -0.3025423605705019
    outer loop
      vertex 0.0029972 -0.002065884 0.015633771
      vertex 0.0030312296 -0.0020958052 0.015757196
      vertex 0.0025956514 -0.0035222985 0.015280701
    endloop
  endfacet
  facet normal 0.9351132165894731 -0.18447708580902053 -0.30254169459943925
    outer loop
      vertex 0.0030312296 -0.0020958052 0.015757196
      vertex 0.0026251217 -0.0035687555 0.015400117
      vertex 0.0025956514 -0.0035222985 0.015280701
    endloop
  endfacet
  facet normal 0.6845502502464549 -0.6062477586429988 -0.4047895873510781
    outer loop
      vertex 0.0025956514 -0.0035222985 0.015280701
      vertex 0.0026251217 -0.0035687555 0.015400117
      vertex 0.0014986 -0.004588468 0.015022236
    endloop
  endfacet
  facet normal 0.6845500084941243 -0.6062468180076327 -0.4047914049560769
    outer loop
      vertex 0.0026251217 -0.0035687555 0.015400117
      vertex 0.0015156148 -0.00464703 0.015138717
      vertex 0.0014986 -0.004588468 0.015022236
    endloop
  endfacet
  facet normal 0.25056264489099267 -0.8497561809672719 -0.4638240980082292
    outer loop
      vertex 0.0014986 -0.004588468 0.015022236
      vertex 0.0015156148 -0.00464703 0.015138717
      vertex 1.6980753E-18 -0.004978713 0.014927631
    endloop
  endfacet
  facet normal 0.25056260515360557 -0.8497573574940901 -0.46382196399405184
    outer loop
      vertex 0.0015156148 -0.00464703 0.015138717
      vertex 1.6826704E-18 -0.005041706 0.015043039
      vertex 1.6980753E-18 -0.004978713 0.014927631
    endloop
  endfacet
  facet normal -0.25056280327636754 -0.8497573124845114 -0.46382193942653144
    outer loop
      vertex 1.6980753E-18 -0.004978713 0.014927631
      vertex 1.6826704E-18 -0.005041706 0.015043039
      vertex -0.0014986 -0.004588468 0.015022236
    endloop
  endfacet
  facet normal -0.2505624485446731 -0.8497562386800642 -0.4638240983429039
    outer loop
      vertex 1.6826704E-18 -0.005041706 0.015043039
      vertex -0.0015156148 -0.00464703 0.015138717
      vertex -0.0014986 -0.004588468 0.015022236
    endloop
  endfacet
  facet normal -0.6845498843517607 -0.6062469320193419 -0.40479144414269236
    outer loop
      vertex -0.0014986 -0.004588468 0.015022236
      vertex -0.0015156148 -0.00464703 0.015138717
      vertex -0.0025956514 -0.0035222985 0.015280701
    endloop
  endfacet
  facet normal -0.6845503702808301 -0.606247635351745 -0.4047895690093758
    outer loop
      vertex -0.0015156148 -0.00464703 0.015138717
      vertex -0.0026251217 -0.0035687555 0.015400117
      vertex -0.0025956514 -0.0035222985 0.015280701
    endloop
  endfacet
  facet normal -0.9351132335813768 -0.18447702902752378 -0.30254167670282994
    outer loop
      vertex -0.0025956514 -0.0035222985 0.015280701
      vertex -0.0026251217 -0.0035687555 0.015400117
      vertex -0.0029972 -0.002065884 0.015633771
    endloop
  endfacet
  facet normal -0.9351130397741102 -0.1844768731341867 -0.30254237078970736
    outer loop
      vertex -0.0026251217 -0.0035687555 0.015400117
      vertex -0.0030312296 -0.0020958052 0.015757196
      vertex -0.0029972 -0.002065884 0.015633771
    endloop
  endfacet
  facet normal -0.9351130638612192 0.3025420824556707 -0.18447722390438717
    outer loop
      vertex -0.0029972 -0.002065884 0.015633771
      vertex -0.0030312296 -0.0020958052 0.015757196
      vertex -0.0025956514 -6.0946937E-4 0.015986841
    endloop
  endfacet
  facet normal -0.9351137821451019 0.30254180157408456 -0.18447404354702568
    outer loop
      vertex -0.0030312296 -0.0020958052 0.015757196
      vertex -0.0026251217 -6.2285474E-4 0.016114276
      vertex -0.0025956514 -6.0946937E-4 0.015986841
    endloop
  endfacet
  facet normal -0.684550547610465 0.7243128589960435 -0.0822279153280089
    outer loop
      vertex -0.0025956514 -6.0946937E-4 0.015986841
      vertex -0.0026251217 -6.2285474E-4 0.016114276
      vertex -0.0014986 4.567001E-4 0.016245307
    endloop
  endfacet
  facet normal -0.6845504047651598 0.7243128567136008 -0.082229124616759
    outer loop
      vertex -0.0026251217 -6.2285474E-4 0.016114276
      vertex -0.0015156148 4.5541977E-4 0.016375676
      vertex -0.0014986 4.567001E-4 0.016245307
    endloop
  endfacet
  facet normal -0.25056281590470814 0.9678223925724048 -0.023196804118871824
    outer loop
      vertex -0.0014986 4.567001E-4 0.016245307
      vertex -0.0015156148 4.5541977E-4 0.016375676
      vertex 0.0 8.469452E-4 0.016339911
    endloop
  endfacet
  facet normal -0.2505628182034871 0.9678223886001502 -0.02319694501925085
    outer loop
      vertex -0.0015156148 4.5541977E-4 0.016375676
      vertex 0.0 8.5009565E-4 0.016471354
      vertex 0.0 8.469452E-4 0.016339911
    endloop
  endfacet
  facet normal 0.2505628067432059 0.9678223915654376 -0.02319694509032341
    outer loop
      vertex 0.0 8.469452E-4 0.016339911
      vertex 0.0 8.5009565E-4 0.016471354
      vertex 0.0014986 4.567001E-4 0.016245307
    endloop
  endfacet
  facet normal 0.25056282726212936 0.9678223895958155 -0.02319680563039144
    outer loop
      vertex 0.0 8.5009565E-4 0.016471354
      vertex 0.0015156148 4.5541977E-4 0.016375676
      vertex 0.0014986 4.567001E-4 0.016245307
    endloop
  endfacet
  facet normal 0.5085885774188598 0.6579546052300502 -0.5553678027898531
    outer loop
      vertex 0.0015156148 4.5541977E-4 0.016375676
      vertex 0.0015621 5.117642E-4 0.016484998
      vertex 0.0026251217 -6.2285474E-4 0.016114276
    endloop
  endfacet
  facet normal 0.508586479774009 0.657953640885134 -0.5553708662120094
    outer loop
      vertex 0.0015621 5.117642E-4 0.016484998
      vertex 0.0027056367 -5.995819E-4 0.01621558
      vertex 0.0026251217 -6.2285474E-4 0.016114276
    endloop
  endfacet
  facet normal 0.6947414225089621 0.3445992354917081 -0.6313364576426376
    outer loop
      vertex 0.0026251217 -6.2285474E-4 0.016114276
      vertex 0.0027056367 -5.995819E-4 0.01621558
      vertex 0.0030312296 -0.0020958052 0.015757196
    endloop
  endfacet
  facet normal 0.6947455774744549 0.3445988100323381 -0.6313321175926206
    outer loop
      vertex 0.0027056367 -5.995819E-4 0.01621558
      vertex 0.0031242 -0.002117709 0.015847549
      vertex 0.0030312296 -0.0020958052 0.015757196
    endloop
  endfacet
  facet normal 0.6947454977906528 -0.01723362963217711 -0.7190491605650611
    outer loop
      vertex 0.0030312296 -0.0020958052 0.015757196
      vertex 0.0031242 -0.002117709 0.015847549
      vertex 0.0026251217 -0.0035687555 0.015400117
    endloop
  endfacet
  facet normal 0.6947478124731521 -0.017235126428377438 -0.7190468882352302
    outer loop
      vertex 0.0031242 -0.002117709 0.015847549
      vertex 0.0027056367 -0.003635836 0.015479519
      vertex 0.0026251217 -0.0035687555 0.015400117
    endloop
  endfacet
  facet normal 0.5085911819609518 -0.3305924007292556 -0.7950117447004348
    outer loop
      vertex 0.0026251217 -0.0035687555 0.015400117
      vertex 0.0027056367 -0.003635836 0.015479519
      vertex 0.0015156148 -0.00464703 0.015138717
    endloop
  endfacet
  facet normal 0.5085900756912122 -0.33059060922349404 -0.7950131973757707
    outer loop
      vertex 0.0027056367 -0.003635836 0.015479519
      vertex 0.0015621 -0.004747182 0.015210101
      vertex 0.0015156148 -0.00464703 0.015138717
    endloop
  endfacet
  facet normal 0.18615635836264727 -0.5115075660648087 -0.8388717542626005
    outer loop
      vertex 0.0015156148 -0.00464703 0.015138717
      vertex 0.0015621 -0.004747182 0.015210101
      vertex 1.6826704E-18 -0.005041706 0.015043039
    endloop
  endfacet
  facet normal 0.18615607065116763 -0.511505177882477 -0.8388732743145016
    outer loop
      vertex 0.0015621 -0.004747182 0.015210101
      vertex 1.7342794E-18 -0.005153963 0.015111488
      vertex 1.6826704E-18 -0.005041706 0.015043039
    endloop
  endfacet
  facet normal -0.18615584067804639 -0.5115052005665519 -0.8388733115165969
    outer loop
      vertex 1.6826704E-18 -0.005041706 0.015043039
      vertex 1.7342794E-18 -0.005153963 0.015111488
      vertex -0.0015156148 -0.00464703 0.015138717
    endloop
  endfacet
  facet normal -0.18615657292993235 -0.5115074729879971 -0.838871763401544
    outer loop
      vertex 1.7342794E-18 -0.005153963 0.015111488
      vertex -0.0015621 -0.004747182 0.015210101
      vertex -0.0015156148 -0.00464703 0.015138717
    endloop
  endfacet
  facet normal -0.5085899104954708 -0.330590726471808 -0.7950132543002358
    outer loop
      vertex -0.0015156148 -0.00464703 0.015138717
      vertex -0.0015621 -0.004747182 0.015210101
      vertex -0.0026251217 -0.0035687555 0.015400117
    endloop
  endfacet
  facet normal -0.5085913093194312 -0.33059223365852086 -0.7950117326992205
    outer loop
      vertex -0.0015621 -0.004747182 0.015210101
      vertex -0.0027056367 -0.003635836 0.015479519
      vertex -0.0026251217 -0.0035687555 0.015400117
    endloop
  endfacet
  facet normal -0.6947479233331405 -0.01723487374651565 -0.7190467871781576
    outer loop
      vertex -0.0026251217 -0.0035687555 0.015400117
      vertex -0.0027056367 -0.003635836 0.015479519
      vertex -0.0030312296 -0.0020958052 0.015757196
    endloop
  endfacet
  facet normal -0.6947454591095287 -0.017233919338049315 -0.7190491909952614
    outer loop
      vertex -0.0027056367 -0.003635836 0.015479519
      vertex -0.0031242 -0.002117709 0.015847549
      vertex -0.0030312296 -0.0020958052 0.015757196
    endloop
  endfacet
  facet normal -0.6947455122547692 0.3445992677708616 -0.631331939516483
    outer loop
      vertex -0.0030312296 -0.0020958052 0.015757196
      vertex -0.0031242 -0.002117709 0.015847549
      vertex -0.0026251217 -6.2285474E-4 0.016114276
    endloop
  endfacet
  facet normal -0.6947416094316667 0.34459877871196887 -0.6313365012689486
    outer loop
      vertex -0.0031242 -0.002117709 0.015847549
      vertex -0.0027056367 -5.995819E-4 0.01621558
      vertex -0.0026251217 -6.2285474E-4 0.016114276
    endloop
  endfacet
  facet normal -0.5085866707557104 0.6579534099227888 -0.5553709649419901
    outer loop
      vertex -0.0026251217 -6.2285474E-4 0.016114276
      vertex -0.0027056367 -5.995819E-4 0.01621558
      vertex -0.0015156148 4.5541977E-4 0.016375676
    endloop
  endfacet
  facet normal -0.5085883296986892 0.657954800621445 -0.5553677981603651
    outer loop
      vertex -0.0027056367 -5.995819E-4 0.01621558
      vertex -0.0015621 5.117642E-4 0.016484998
      vertex -0.0015156148 4.5541977E-4 0.016375676
    endloop
  endfacet
  facet normal -0.1861566804751733 0.8388706337075822 -0.5115092865408247
    outer loop
      vertex -0.0015156148 4.5541977E-4 0.016375676
      vertex -0.0015621 5.117642E-4 0.016484998
      vertex 0.0 8.5009565E-4 0.016471354
    endloop
  endfacet
  facet normal -0.18615648948841335 0.8388696864577128 -0.5115109095255828
    outer loop
      vertex -0.0015621 5.117642E-4 0.016484998
      vertex 0.0 9.185451E-4 0.01658361
      vertex 0.0 8.5009565E-4 0.016471354
    endloop
  endfacet
  facet normal 0.1861563368293113 0.8388697111528989 -0.5115109245837707
    outer loop
      vertex 0.0 8.5009565E-4 0.016471354
      vertex 0.0 9.185451E-4 0.01658361
      vertex 0.0015156148 4.5541977E-4 0.016375676
    endloop
  endfacet
  facet normal 0.18615682290750626 0.838870581559034 -0.5115093202276879
    outer loop
      vertex 0.0 9.185451E-4 0.01658361
      vertex 0.0015621 5.117642E-4 0.016484998
      vertex 0.0015156148 4.5541977E-4 0.016375676
    endloop
  endfacet
  facet normal 0.18901839688207997 0.4107246494216547 -0.8919514045045207
    outer loop
      vertex 0.0015621 5.117642E-4 0.016484998
      vertex 0.0016256 6.10636E-4 0.016543983
      vertex 0.0027056367 -5.995819E-4 0.01621558
    endloop
  endfacet
  facet normal 0.18901814524274158 0.4107244626582763 -0.8919515438313137
    outer loop
      vertex 0.0016256 6.10636E-4 0.016543983
      vertex 0.002815622 -5.458868E-4 0.016263613
      vertex 0.0027056367 -5.995819E-4 0.01621558
    endloop
  endfacet
  facet normal 0.25820399246163817 0.2942645871271737 -0.9201842484197087
    outer loop
      vertex 0.0027056367 -5.995819E-4 0.01621558
      vertex 0.002815622 -5.458868E-4 0.016263613
      vertex 0.0031242 -0.002117709 0.015847549
    endloop
  endfacet
  facet normal 0.2582080496232314 0.29426504363132566 -0.9201829639840224
    outer loop
      vertex 0.002815622 -5.458868E-4 0.016263613
      vertex 0.0032512 -0.0021257263 0.015880622
      vertex 0.0031242 -0.002117709 0.015847549
    endloop
  endfacet
  facet normal 0.2582084271529814 0.15978662358560367 -0.952783628674578
    outer loop
      vertex 0.0031242 -0.002117709 0.015847549
      vertex 0.0032512 -0.0021257263 0.015880622
      vertex 0.0027056367 -0.003635836 0.015479519
    endloop
  endfacet
  facet normal 0.25819542094060094 0.15979201827184505 -0.9527862485898483
    outer loop
      vertex 0.0032512 -0.0021257263 0.015880622
      vertex 0.002815622 -0.0037055658 0.0154976295
      vertex 0.0027056367 -0.003635836 0.015479519
    endloop
  endfacet
  facet normal 0.18901214003985897 0.0433362761230277 -0.9810180314802278
    outer loop
      vertex 0.0027056367 -0.003635836 0.015479519
      vertex 0.002815622 -0.0037055658 0.0154976295
      vertex 0.0015621 -0.004747182 0.015210101
    endloop
  endfacet
  facet normal 0.1890143881348033 0.04333348514441269 -0.9810177216254887
    outer loop
      vertex 0.002815622 -0.0037055658 0.0154976295
      vertex 0.0016256 -0.0048620887 0.01521726
      vertex 0.0015621 -0.004747182 0.015210101
    endloop
  endfacet
  facet normal 0.06918367775318608 -0.023903155064695036 -0.9973175311356441
    outer loop
      vertex 0.0015621 -0.004747182 0.015210101
      vertex 0.0016256 -0.0048620887 0.01521726
      vertex 1.7342794E-18 -0.005153963 0.015111488
    endloop
  endfacet
  facet normal 0.06918321628049016 -0.02390055066265362 -0.9973176255652503
    outer loop
      vertex 0.0016256 -0.0048620887 0.01521726
      vertex 1.84198E-18 -0.0052854056 0.015114638
      vertex 1.7342794E-18 -0.005153963 0.015111488
    endloop
  endfacet
  facet normal -0.0691830065199571 -0.0239005510111638 -0.9973176401078155
    outer loop
      vertex 1.7342794E-18 -0.005153963 0.015111488
      vertex 1.84198E-18 -0.0052854056 0.015114638
      vertex -0.0015621 -0.004747182 0.015210101
    endloop
  endfacet
  facet normal -0.0691838612937589 -0.02390305299525323 -0.9973175208498004
    outer loop
      vertex 1.84198E-18 -0.0052854056 0.015114638
      vertex -0.0016256 -0.0048620887 0.01521726
      vertex -0.0015621 -0.004747182 0.015210101
    endloop
  endfacet
  facet normal -0.1890146324728915 0.04333362348482652 -0.9810176684376348
    outer loop
      vertex -0.0015621 -0.004747182 0.015210101
      vertex -0.0016256 -0.0048620887 0.01521726
      vertex -0.0027056367 -0.003635836 0.015479519
    endloop
  endfacet
  facet normal -0.18901199306237873 0.043336034163491695 -0.9810180704867613
    outer loop
      vertex -0.0016256 -0.0048620887 0.01521726
      vertex -0.002815622 -0.0037055658 0.0154976295
      vertex -0.0027056367 -0.003635836 0.015479519
    endloop
  endfacet
  facet normal -0.25819487102778776 0.1597910709213898 -0.9527865564903502
    outer loop
      vertex -0.0027056367 -0.003635836 0.015479519
      vertex -0.002815622 -0.0037055658 0.0154976295
      vertex -0.0031242 -0.002117709 0.015847549
    endloop
  endfacet
  facet normal -0.258208447525557 0.1597877446587469 -0.9527834351432191
    outer loop
      vertex -0.002815622 -0.0037055658 0.0154976295
      vertex -0.0032512 -0.0021257263 0.015880622
      vertex -0.0031242 -0.002117709 0.015847549
    endloop
  endfacet
  facet normal -0.25820804353321963 0.29426536794294733 -0.9201828619813286
    outer loop
      vertex -0.0031242 -0.002117709 0.015847549
      vertex -0.0032512 -0.0021257263 0.015880622
      vertex -0.0027056367 -5.995819E-4 0.01621558
    endloop
  endfacet
  facet normal -0.258204156796184 0.2942642933157237 -0.9201842962649218
    outer loop
      vertex -0.0032512 -0.0021257263 0.015880622
      vertex -0.002815622 -5.458868E-4 0.016263613
      vertex -0.0027056367 -5.995819E-4 0.01621558
    endloop
  endfacet
  facet normal -0.18901815925554644 0.41072444044794265 -0.891951551089166
    outer loop
      vertex -0.0027056367 -5.995819E-4 0.01621558
      vertex -0.002815622 -5.458868E-4 0.016263613
      vertex -0.0015621 5.117642E-4 0.016484998
    endloop
  endfacet
  facet normal -0.18901837358697762 0.4107246634689451 -0.8919514029726371
    outer loop
      vertex -0.002815622 -5.458868E-4 0.016263613
      vertex -0.0016256 6.10636E-4 0.016543983
      vertex -0.0015621 5.117642E-4 0.016484998
    endloop
  endfacet
  facet normal -0.06918640379642553 0.4779620338939884 -0.8756514921392184
    outer loop
      vertex -0.0015621 5.117642E-4 0.016484998
      vertex -0.0016256 6.10636E-4 0.016543983
      vertex 0.0 9.185451E-4 0.01658361
    endloop
  endfacet
  facet normal -0.06918568083074177 0.47795847440626255 -0.8756534921481355
    outer loop
      vertex -0.0016256 6.10636E-4 0.016543983
      vertex -7.963143E-19 0.0010339527 0.016646603
      vertex 0.0 9.185451E-4 0.01658361
    endloop
  endfacet
  facet normal 0.0691853522072172 0.47795848532538754 -0.8756535121527376
    outer loop
      vertex 0.0 9.185451E-4 0.01658361
      vertex -7.963143E-19 0.0010339527 0.016646603
      vertex 0.0015621 5.117642E-4 0.016484998
    endloop
  endfacet
  facet normal 0.06918669134156485 0.4779618843591678 -0.8756515510413034
    outer loop
      vertex -7.963143E-19 0.0010339527 0.016646603
      vertex 0.0016256 6.10636E-4 0.016543983
      vertex 0.0015621 5.117642E-4 0.016484998
    endloop
  endfacet
  facet normal 0.25881911697357596 0.9387350995233339 0.22757213716080205
    outer loop
      vertex -7.3410227E-19 0.0036296172 0.00486139
      vertex 0.0014986 4.567001E-4 0.016245307
      vertex 0.0014986 0.003239372 0.004766785
    endloop
  endfacet
  facet normal 0.707106816096728 0.687201767472678 0.16659436188531546
    outer loop
      vertex 0.0014986 4.567001E-4 0.016245307
      vertex 0.0025956514 -6.0946937E-4 0.015986841
      vertex 0.0014986 0.003239372 0.004766785
    endloop
  endfacet
  facet normal 0.707106718244196 0.6872018582879672 0.1665944026055132
    outer loop
      vertex 0.0014986 0.003239372 0.004766785
      vertex 0.0025956514 -6.0946937E-4 0.015986841
      vertex 0.0025956514 0.0021732026 0.00450832
    endloop
  endfacet
  facet normal 0.965925836488729 0.2515332782771932 0.06097776908576944
    outer loop
      vertex 0.0025956514 -6.0946937E-4 0.015986841
      vertex 0.0029972 -0.002065884 0.015633771
      vertex 0.0025956514 0.0021732026 0.00450832
    endloop
  endfacet
  facet normal 0.9659258352298876 0.2515332826924794 0.06097777081354356
    outer loop
      vertex 0.0025956514 0.0021732026 0.00450832
      vertex 0.0029972 -0.002065884 0.015633771
      vertex 0.0029972 7.16788E-4 0.00415525
    endloop
  endfacet
  facet normal 0.9659258310337501 -0.2515332979118471 -0.06097777450308757
    outer loop
      vertex 0.0029972 -0.002065884 0.015633771
      vertex 0.0025956514 -0.0035222985 0.015280701
      vertex 0.0029972 7.16788E-4 0.00415525
    endloop
  endfacet
  facet normal 0.9659258413333595 -0.2515332617867787 -0.06097776036675426
    outer loop
      vertex 0.0029972 7.16788E-4 0.00415525
      vertex 0.0025956514 -0.0035222985 0.015280701
      vertex 0.0025956514 -7.396266E-4 0.0038021794
    endloop
  endfacet
  facet normal 0.7071067495646054 -0.6872018308026715 -0.16659438304347038
    outer loop
      vertex 0.0025956514 -0.0035222985 0.015280701
      vertex 0.0014986 -0.004588468 0.015022236
      vertex 0.0025956514 -7.396266E-4 0.0038021794
    endloop
  endfacet
  facet normal 0.707106748615502 -0.6872018316835187 -0.16659438343842875
    outer loop
      vertex 0.0025956514 -7.396266E-4 0.0038021794
      vertex 0.0014986 -0.004588468 0.015022236
      vertex 0.0014986 -0.001805796 0.003543714
    endloop
  endfacet
  facet normal 0.258819000084243 -0.9387351280895295 -0.22757215226412836
    outer loop
      vertex 0.0014986 -0.004588468 0.015022236
      vertex 1.6980753E-18 -0.004978713 0.014927631
      vertex 0.0014986 -0.001805796 0.003543714
    endloop
  endfacet
  facet normal 0.2588190886367705 -0.9387351078670659 -0.22757213497051879
    outer loop
      vertex 0.0014986 -0.001805796 0.003543714
      vertex 1.6980753E-18 -0.004978713 0.014927631
      vertex 1.6980753E-18 -0.0021960412 0.0034491092
    endloop
  endfacet
  facet normal -0.2588190000842413 -0.9387351309267157 -0.2275721405607366
    outer loop
      vertex 1.6980753E-18 -0.004978713 0.014927631
      vertex -0.0014986 -0.004588468 0.015022236
      vertex 1.6980753E-18 -0.0021960412 0.0034491092
    endloop
  endfacet
  facet normal -0.2588190886367692 -0.9387351050298804 -0.22757214667391043
    outer loop
      vertex 1.6980753E-18 -0.0021960412 0.0034491092
      vertex -0.0014986 -0.004588468 0.015022236
      vertex -0.0014986 -0.001805796 0.003543714
    endloop
  endfacet
  facet normal -0.7071067495646054 -0.6872018307611323 -0.16659438321481995
    outer loop
      vertex -0.0014986 -0.004588468 0.015022236
      vertex -0.0025956514 -0.0035222985 0.015280701
      vertex -0.0014986 -0.001805796 0.003543714
    endloop
  endfacet
  facet normal -0.707106748615502 -0.6872018317250578 -0.16659438326707915
    outer loop
      vertex -0.0014986 -0.001805796 0.003543714
      vertex -0.0025956514 -0.0035222985 0.015280701
      vertex -0.0025956514 -7.396266E-4 0.0038021794
    endloop
  endfacet
  facet normal -0.9659258310337503 -0.2515332991434056 -0.06097776942290624
    outer loop
      vertex -0.0025956514 -0.0035222985 0.015280701
      vertex -0.0029972 -0.002065884 0.015633771
      vertex -0.0025956514 -7.396266E-4 0.0038021794
    endloop
  endfacet
  facet normal -0.96592584133336 -0.25153326055521863 -0.06097776544693442
    outer loop
      vertex -0.0025956514 -7.396266E-4 0.0038021794
      vertex -0.0029972 -0.002065884 0.015633771
      vertex -0.0029972 7.16788E-4 0.00415525
    endloop
  endfacet
  facet normal -0.9659258364887289 0.25153327812666937 0.06097776970668044
    outer loop
      vertex -0.0029972 -0.002065884 0.015633771
      vertex -0.0025956514 -6.0946937E-4 0.015986841
      vertex -0.0029972 7.16788E-4 0.00415525
    endloop
  endfacet
  facet normal -0.9659258352298877 0.2515332828430032 0.06097777019263254
    outer loop
      vertex -0.0029972 7.16788E-4 0.00415525
      vertex -0.0025956514 -6.0946937E-4 0.015986841
      vertex -0.0025956514 0.0021732026 0.00450832
    endloop
  endfacet
  facet normal -0.7071068160967333 0.6872017631899725 0.16659437955145215
    outer loop
      vertex -0.0025956514 -6.0946937E-4 0.015986841
      vertex -0.0014986 4.567001E-4 0.016245307
      vertex -0.0025956514 0.0021732026 0.00450832
    endloop
  endfacet
  facet normal -0.7071067182441986 0.6872018625706654 0.1665943849393722
    outer loop
      vertex -0.0025956514 0.0021732026 0.00450832
      vertex -0.0014986 4.567001E-4 0.016245307
      vertex -0.0014986 0.003239372 0.004766785
    endloop
  endfacet
  facet normal -0.25881891684486574 0.938735151638135 0.22757214979469279
    outer loop
      vertex -0.0014986 4.567001E-4 0.016245307
      vertex 0.0 8.469452E-4 0.016339911
      vertex -0.0014986 0.003239372 0.004766785
    endloop
  endfacet
  facet normal -0.25881911697357785 0.9387350931112931 0.22757216361046761
    outer loop
      vertex -0.0014986 0.003239372 0.004766785
      vertex 0.0 8.469452E-4 0.016339911
      vertex -7.3410227E-19 0.0036296172 0.00486139
    endloop
  endfacet
  facet normal 0.2588189168448513 0.9387351452260981 0.22757217624436088
    outer loop
      vertex 0.0 8.469452E-4 0.016339911
      vertex 0.0014986 4.567001E-4 0.016245307
      vertex -7.3410227E-19 0.0036296172 0.00486139
    endloop
  endfacet
  facet normal 0.0691842724026116 0.4779573967040446 -0.8756541916692991
    outer loop
      vertex 0.0 0.0026945795 0.0033279283
      vertex 0.0011811 0.0029640514 0.003568331
      vertex 8.636E-4 0.0024696924 0.0032734103
    endloop
  endfacet
  facet normal 0.1890147299819818 0.41072077426821463 -0.8919539659838712
    outer loop
      vertex 0.0011811 0.0029640514 0.003568331
      vertex 0.0020457252 0.0021237654 0.0033646254
      vertex 8.636E-4 0.0024696924 0.0032734103
    endloop
  endfacet
  facet normal 0.1890148513073245 0.41072125388312475 -0.8919537194237961
    outer loop
      vertex 8.636E-4 0.0024696924 0.0032734103
      vertex 0.0020457252 0.0021237654 0.0033646254
      vertex 0.001495799 0.0018552898 0.003124464
    endloop
  endfacet
  facet normal 0.258199185406795 0.294263726477185 -0.9201858724926328
    outer loop
      vertex 0.0020457252 0.0021237654 0.0033646254
      vertex 0.0023622 9.759132E-4 0.003086358
      vertex 0.001495799 0.0018552898 0.003124464
    endloop
  endfacet
  facet normal 0.25819875858091107 0.29426331681588797 -0.9201861232619131
    outer loop
      vertex 0.001495799 0.0018552898 0.003124464
      vertex 0.0023622 9.759132E-4 0.003086358
      vertex 0.0017272 0.001016 0.002921
    endloop
  endfacet
  facet normal 0.2581987500470281 0.1597900989166141 -0.952785668323349
    outer loop
      vertex 0.0023622 9.759132E-4 0.003086358
      vertex 0.0020457252 -1.7193897E-4 0.002808091
      vertex 0.0017272 0.001016 0.002921
    endloop
  endfacet
  facet normal 0.2581992105815113 0.15979020878764266 -0.9527855250950688
    outer loop
      vertex 0.0017272 0.001016 0.002921
      vertex 0.0020457252 -1.7193897E-4 0.002808091
      vertex 0.001495799 1.7671025E-4 0.0027175357
    endloop
  endfacet
  facet normal 0.18901499244692851 0.04333280967650453 -0.9810176350279476
    outer loop
      vertex 0.0020457252 -1.7193897E-4 0.002808091
      vertex 0.0011811 -0.001012225 0.0026043851
      vertex 0.001495799 1.7671025E-4 0.0027175357
    endloop
  endfacet
  facet normal 0.18901431077683914 0.04333300179943095 -0.9810177578803592
    outer loop
      vertex 0.001495799 1.7671025E-4 0.0027175357
      vertex 0.0011811 -0.001012225 0.0026043851
      vertex 8.636E-4 -4.3769248E-4 0.0025685898
    endloop
  endfacet
  facet normal 0.06918406202990357 -0.023903502060880717 -0.9973174961617127
    outer loop
      vertex 0.0011811 -0.001012225 0.0026043851
      vertex 1.3112844E-18 -0.0013197911 0.0025298237
      vertex 8.636E-4 -4.3769248E-4 0.0025685898
    endloop
  endfacet
  facet normal 0.06918450341047748 -0.023903935987887957 -0.9973174551426103
    outer loop
      vertex 8.636E-4 -4.3769248E-4 0.0025685898
      vertex 1.3112844E-18 -0.0013197911 0.0025298237
      vertex 9.785519E-19 -6.625795E-4 0.0025140715
    endloop
  endfacet
  facet normal -0.06918417402201232 -0.02390393653524333 -0.9973174779793097
    outer loop
      vertex 1.3112844E-18 -0.0013197911 0.0025298237
      vertex -0.0011811 -0.001012225 0.0026043851
      vertex 9.785519E-19 -6.625795E-4 0.0025140715
    endloop
  endfacet
  facet normal -0.06918435024482221 -0.023903341780306613 -0.9973174800097186
    outer loop
      vertex 9.785519E-19 -6.625795E-4 0.0025140715
      vertex -0.0011811 -0.001012225 0.0026043851
      vertex -8.636E-4 -4.3769248E-4 0.0025685898
    endloop
  endfacet
  facet normal -0.18901463790056722 0.043333187012130576 -0.9810176866716976
    outer loop
      vertex -0.0011811 -0.001012225 0.0026043851
      vertex -0.0020457252 -1.7193897E-4 0.002808091
      vertex -8.636E-4 -4.3769248E-4 0.0025685898
    endloop
  endfacet
  facet normal -0.18901479567123447 0.04333248573748749 -0.9810176872499149
    outer loop
      vertex -8.636E-4 -4.3769248E-4 0.0025685898
      vertex -0.0020457252 -1.7193897E-4 0.002808091
      vertex -0.001495799 1.7671025E-4 0.0027175357
    endloop
  endfacet
  facet normal -0.2581990833347773 0.15978998957566118 -0.952785596341848
    outer loop
      vertex -0.0020457252 -1.7193897E-4 0.002808091
      vertex -0.0023622 9.759132E-4 0.003086358
      vertex -0.001495799 1.7671025E-4 0.0027175357
    endloop
  endfacet
  facet normal -0.25819875476155346 0.1597903583275258 -0.9527856235403346
    outer loop
      vertex -0.001495799 1.7671025E-4 0.0027175357
      vertex -0.0023622 9.759132E-4 0.003086358
      vertex -0.0017272 0.001016 0.002921
    endloop
  endfacet
  facet normal -0.2581987524566245 0.2942636430281709 -0.9201860206619269
    outer loop
      vertex -0.0023622 9.759132E-4 0.003086358
      vertex -0.0020457252 0.0021237654 0.0033646254
      vertex -0.0017272 0.001016 0.002921
    endloop
  endfacet
  facet normal -0.25819935070393357 0.29426343094480495 -0.9201859206185775
    outer loop
      vertex -0.0017272 0.001016 0.002921
      vertex -0.0020457252 0.0021237654 0.0033646254
      vertex -0.001495799 0.0018552898 0.003124464
    endloop
  endfacet
  facet normal -0.18901500262763238 0.4107210140391186 -0.8919537977991653
    outer loop
      vertex -0.0020457252 0.0021237654 0.0033646254
      vertex -0.0011811 0.0029640514 0.003568331
      vertex -0.001495799 0.0018552898 0.003124464
    endloop
  endfacet
  facet normal -0.18901447842422836 0.4107209259611857 -0.8919539494411152
    outer loop
      vertex -0.001495799 0.0018552898 0.003124464
      vertex -0.0011811 0.0029640514 0.003568331
      vertex -8.636E-4 0.0024696924 0.0032734103
    endloop
  endfacet
  facet normal -0.06918416794614039 0.4779574510257033 -0.8756541702719244
    outer loop
      vertex -0.0011811 0.0029640514 0.003568331
      vertex 0.0 0.0032716175 0.0036428925
      vertex -8.636E-4 0.0024696924 0.0032734103
    endloop
  endfacet
  facet normal -0.06918432791377338 0.47795758402523236 -0.8756540850380831
    outer loop
      vertex -8.636E-4 0.0024696924 0.0032734103
      vertex 0.0 0.0032716175 0.0036428925
      vertex 0.0 0.0026945795 0.0033279283
    endloop
  endfacet
  facet normal 0.06918420853494579 0.477957587991735 -0.8756540923050129
    outer loop
      vertex 0.0 0.0032716175 0.0036428925
      vertex 0.0011811 0.0029640514 0.003568331
      vertex 0.0 0.0026945795 0.0033279283
    endloop
  endfacet
  facet normal 0.1861567730516064 0.8388717796828435 -0.5115073734549205
    outer loop
      vertex 0.0 0.0032716175 0.0036428925
      vertex 0.0014135261 0.0032457737 0.004114944
      vertex 0.0011811 0.0029640514 0.003568331
    endloop
  endfacet
  facet normal 0.5085898182817908 0.6579552584057665 -0.555365892611615
    outer loop
      vertex 0.0014135261 0.0032457737 0.004114944
      vertex 0.002448299 0.0022401295 0.0038711517
      vertex 0.0011811 0.0029640514 0.003568331
    endloop
  endfacet
  facet normal 0.508589849963874 0.6579553924101771 -0.5553657048396974
    outer loop
      vertex 0.0011811 0.0029640514 0.003568331
      vertex 0.002448299 0.0022401295 0.0038711517
      vertex 0.0020457252 0.0021237654 0.0033646254
    endloop
  endfacet
  facet normal 0.6947465903497826 0.34459894166136823 -0.6313309311313808
    outer loop
      vertex 0.002448299 0.0022401295 0.0038711517
      vertex 0.0028270523 8.6639397E-4 0.0035381247
      vertex 0.0020457252 0.0021237654 0.0033646254
    endloop
  endfacet
  facet normal 0.694746545462415 0.34459890412543376 -0.6313310010157831
    outer loop
      vertex 0.0020457252 0.0021237654 0.0033646254
      vertex 0.0028270523 8.6639397E-4 0.0035381247
      vertex 0.0023622 9.759132E-4 0.003086358
    endloop
  endfacet
  facet normal 0.694746534377754 -0.017234258383551887 -0.7190481439431364
    outer loop
      vertex 0.0028270523 8.6639397E-4 0.0035381247
      vertex 0.002448299 -5.073415E-4 0.003205098
      vertex 0.0023622 9.759132E-4 0.003086358
    endloop
  endfacet
  facet normal 0.694746507654332 -0.017234261994852694 -0.719048169676832
    outer loop
      vertex 0.0023622 9.759132E-4 0.003086358
      vertex 0.002448299 -5.073415E-4 0.003205098
      vertex 0.0020457252 -1.7193897E-4 0.002808091
    endloop
  endfacet
  facet normal 0.5085897994949237 -0.33059064847681424 -0.7950133577427444
    outer loop
      vertex 0.002448299 -5.073415E-4 0.003205098
      vertex 0.0014135261 -0.0015129857 0.0029613054
      vertex 0.0020457252 -1.7193897E-4 0.002808091
    endloop
  endfacet
  facet normal 0.5085898814719227 -0.3305906796500171 -0.7950132923372509
    outer loop
      vertex 0.0020457252 -1.7193897E-4 0.002808091
      vertex 0.0014135261 -0.0015129857 0.0029613054
      vertex 0.0011811 -0.001012225 0.0026043851
    endloop
  endfacet
  facet normal 0.18615677902484903 -0.5115072095744333 -0.8388718782844435
    outer loop
      vertex 0.0014135261 -0.0015129857 0.0029613054
      vertex 1.5693292E-18 -0.0018810771 0.0028720712
      vertex 0.0011811 -0.001012225 0.0026043851
    endloop
  endfacet
  facet normal 0.18615674345232916 -0.5115071709129273 -0.8388719097525421
    outer loop
      vertex 0.0011811 -0.001012225 0.0026043851
      vertex 1.5693292E-18 -0.0018810771 0.0028720712
      vertex 1.3112844E-18 -0.0013197911 0.0025298237
    endloop
  endfacet
  facet normal -0.18615676999098915 -0.5115071682951864 -0.838871905459446
    outer loop
      vertex 1.5693292E-18 -0.0018810771 0.0028720712
      vertex -0.0014135261 -0.0015129857 0.0029613054
      vertex 1.3112844E-18 -0.0013197911 0.0025298237
    endloop
  endfacet
  facet normal -0.1861567542639413 -0.5115072203154283 -0.8388718772298297
    outer loop
      vertex 1.3112844E-18 -0.0013197911 0.0025298237
      vertex -0.0014135261 -0.0015129857 0.0029613054
      vertex -0.0011811 -0.001012225 0.0026043851
    endloop
  endfacet
  facet normal -0.5085898435880046 -0.3305907065382522 -0.7950133053915943
    outer loop
      vertex -0.0014135261 -0.0015129857 0.0029613054
      vertex -0.002448299 -5.073415E-4 0.003205098
      vertex -0.0011811 -0.001012225 0.0026043851
    endloop
  endfacet
  facet normal -0.508589828701867 -0.3305906101627849 -0.79501335499047
    outer loop
      vertex -0.0011811 -0.001012225 0.0026043851
      vertex -0.002448299 -5.073415E-4 0.003205098
      vertex -0.0020457252 -1.7193897E-4 0.002808091
    endloop
  endfacet
  facet normal -0.6947465138567334 -0.017234247857873017 -0.7190481640228902
    outer loop
      vertex -0.002448299 -5.073415E-4 0.003205098
      vertex -0.0028270523 8.6639397E-4 0.0035381247
      vertex -0.0020457252 -1.7193897E-4 0.002808091
    endloop
  endfacet
  facet normal -0.6947465322136411 -0.017234274591853026 -0.7190481456456255
    outer loop
      vertex -0.0020457252 -1.7193897E-4 0.002808091
      vertex -0.0028270523 8.6639397E-4 0.0035381247
      vertex -0.0023622 9.759132E-4 0.003086358
    endloop
  endfacet
  facet normal -0.6947465401706039 0.34459894126540314 -0.6313309865670611
    outer loop
      vertex -0.0028270523 8.6639397E-4 0.0035381247
      vertex -0.002448299 0.0022401295 0.0038711517
      vertex -0.0023622 9.759132E-4 0.003086358
    endloop
  endfacet
  facet normal -0.6947466055162472 0.3445989045993139 -0.6313309346710365
    outer loop
      vertex -0.0023622 9.759132E-4 0.003086358
      vertex -0.002448299 0.0022401295 0.0038711517
      vertex -0.0020457252 0.0021237654 0.0033646254
    endloop
  endfacet
  facet normal -0.5085899121248604 0.657955317236738 -0.5553657369740505
    outer loop
      vertex -0.002448299 0.0022401295 0.0038711517
      vertex -0.0014135261 0.0032457737 0.004114944
      vertex -0.0020457252 0.0021237654 0.0033646254
    endloop
  endfacet
  facet normal -0.5085897376536234 0.6579553220019846 -0.5553658911048494
    outer loop
      vertex -0.0020457252 0.0021237654 0.0033646254
      vertex -0.0014135261 0.0032457737 0.004114944
      vertex -0.0011811 0.0029640514 0.003568331
    endloop
  endfacet
  facet normal -0.1861568352114917 0.8388717569244144 -0.5115073881564054
    outer loop
      vertex -0.0014135261 0.0032457737 0.004114944
      vertex 0.0 0.003613865 0.004204178
      vertex -0.0011811 0.0029640514 0.003568331
    endloop
  endfacet
  facet normal -0.18615674591007036 0.8388717068188463 -0.5115075028296352
    outer loop
      vertex -0.0011811 0.0029640514 0.003568331
      vertex 0.0 0.003613865 0.004204178
      vertex 0.0 0.0032716175 0.0036428925
    endloop
  endfacet
  facet normal 0.18615681253286162 0.8388716960414369 -0.5115074962580393
    outer loop
      vertex 0.0 0.003613865 0.004204178
      vertex 0.0014135261 0.0032457737 0.004114944
      vertex 0.0 0.0032716175 0.0036428925
    endloop
  endfacet
  facet normal 0.2505628002342567 0.9678223959680791 -0.02319683170984953
    outer loop
      vertex 0.0 0.003613865 0.004204178
      vertex 0.0014986 0.003239372 0.004766785
      vertex 0.0014135261 0.0032457737 0.004114944
    endloop
  endfacet
  facet normal 0.6845502854493192 0.7243129322759276 -0.08222945232155666
    outer loop
      vertex 0.0014986 0.003239372 0.004766785
      vertex 0.0025956514 0.0021732026 0.00450832
      vertex 0.0014135261 0.0032457737 0.004114944
    endloop
  endfacet
  facet normal 0.6845503075739368 0.7243128910597035 -0.08222963118707294
    outer loop
      vertex 0.0014135261 0.0032457737 0.004114944
      vertex 0.0025956514 0.0021732026 0.00450832
      vertex 0.002448299 0.0022401295 0.0038711517
    endloop
  endfacet
  facet normal 0.9351130949480192 0.3025420657138113 -0.18447709378228155
    outer loop
      vertex 0.0025956514 0.0021732026 0.00450832
      vertex 0.0029972 7.16788E-4 0.00415525
      vertex 0.002448299 0.0022401295 0.0038711517
    endloop
  endfacet
  facet normal 0.935113143458734 0.30254215696188363 -0.1844766982347002
    outer loop
      vertex 0.002448299 0.0022401295 0.0038711517
      vertex 0.0029972 7.16788E-4 0.00415525
      vertex 0.0028270523 8.6639397E-4 0.0035381247
    endloop
  endfacet
  facet normal 0.9351132250683126 -0.18447685766610114 -0.3025418075043184
    outer loop
      vertex 0.0029972 7.16788E-4 0.00415525
      vertex 0.0025956514 -7.396266E-4 0.0038021794
      vertex 0.0028270523 8.6639397E-4 0.0035381247
    endloop
  endfacet
  facet normal 0.935113048329719 -0.18447691615323925 -0.3025423181144932
    outer loop
      vertex 0.0028270523 8.6639397E-4 0.0035381247
      vertex 0.0025956514 -7.396266E-4 0.0038021794
      vertex 0.002448299 -5.073415E-4 0.003205098
    endloop
  endfacet
  facet normal 0.6845502659184332 -0.6062476448874631 -0.40478973121783446
    outer loop
      vertex 0.0025956514 -7.396266E-4 0.0038021794
      vertex 0.0014986 -0.001805796 0.003543714
      vertex 0.002448299 -5.073415E-4 0.003205098
    endloop
  endfacet
  facet normal 0.6845503458784629 -0.606247661585264 -0.404789570987292
    outer loop
      vertex 0.002448299 -5.073415E-4 0.003205098
      vertex 0.0014986 -0.001805796 0.003543714
      vertex 0.0014135261 -0.0015129857 0.0029613054
    endloop
  endfacet
  facet normal 0.2505628350914676 -0.8497571839452297 -0.46382215773332686
    outer loop
      vertex 0.0014986 -0.001805796 0.003543714
      vertex 1.6980753E-18 -0.0021960412 0.0034491092
      vertex 0.0014135261 -0.0015129857 0.0029613054
    endloop
  endfacet
  facet normal 0.2505628378299658 -0.8497571859425642 -0.46382215259468634
    outer loop
      vertex 0.0014135261 -0.0015129857 0.0029613054
      vertex 1.6980753E-18 -0.0021960412 0.0034491092
      vertex 1.5693292E-18 -0.0018810771 0.0028720712
    endloop
  endfacet
  facet normal -0.25056283544682967 -0.849757186483966 -0.463822152890199
    outer loop
      vertex 1.6980753E-18 -0.0021960412 0.0034491092
      vertex -0.0014986 -0.001805796 0.003543714
      vertex 1.5693292E-18 -0.0018810771 0.0028720712
    endloop
  endfacet
  facet normal -0.250562837453215 -0.849757183251033 -0.4638221577293006
    outer loop
      vertex 1.5693292E-18 -0.0018810771 0.0028720712
      vertex -0.0014986 -0.001805796 0.003543714
      vertex -0.0014135261 -0.0015129857 0.0029613054
    endloop
  endfacet
  facet normal -0.6845502942835754 -0.6062477089697909 -0.4047895872736233
    outer loop
      vertex -0.0014986 -0.001805796 0.003543714
      vertex -0.0025956514 -7.396266E-4 0.0038021794
      vertex -0.0014135261 -0.0015129857 0.0029613054
    endloop
  endfacet
  facet normal -0.6845503158061442 -0.6062475936461074 -0.4047897235948716
    outer loop
      vertex -0.0014135261 -0.0015129857 0.0029613054
      vertex -0.0025956514 -7.396266E-4 0.0038021794
      vertex -0.002448299 -5.073415E-4 0.003205098
    endloop
  endfacet
  facet normal -0.9351131079777002 -0.18447671682859165 -0.3025422552907769
    outer loop
      vertex -0.0025956514 -7.396266E-4 0.0038021794
      vertex -0.0029972 7.16788E-4 0.00415525
      vertex -0.002448299 -5.073415E-4 0.003205098
    endloop
  endfacet
  facet normal -0.9351131724675417 -0.18447706546702555 -0.30254184337767936
    outer loop
      vertex -0.002448299 -5.073415E-4 0.003205098
      vertex -0.0029972 7.16788E-4 0.00415525
      vertex -0.0028270523 8.6639397E-4 0.0035381247
    endloop
  endfacet
  facet normal -0.935113183026235 0.3025420056450659 -0.1844767458266861
    outer loop
      vertex -0.0029972 7.16788E-4 0.00415525
      vertex -0.0025956514 0.0021732026 0.00450832
      vertex -0.0028270523 8.6639397E-4 0.0035381247
    endloop
  endfacet
  facet normal -0.9351130500794649 0.3025422206459792 -0.1844770671321502
    outer loop
      vertex -0.0028270523 8.6639397E-4 0.0035381247
      vertex -0.0025956514 0.0021732026 0.00450832
      vertex -0.002448299 0.0022401295 0.0038711517
    endloop
  endfacet
  facet normal -0.6845502562907603 0.7243129414751954 -0.0822296140317125
    outer loop
      vertex -0.0025956514 0.0021732026 0.00450832
      vertex -0.0014986 0.003239372 0.004766785
      vertex -0.002448299 0.0022401295 0.0038711517
    endloop
  endfacet
  facet normal -0.6845503384874277 0.7243128813067656 -0.08222945974429932
    outer loop
      vertex -0.002448299 0.0022401295 0.0038711517
      vertex -0.0014986 0.003239372 0.004766785
      vertex -0.0014135261 0.0032457737 0.004114944
    endloop
  endfacet
  facet normal -0.25056285959961644 0.9678223804094128 -0.0231968396106176
    outer loop
      vertex -0.0014986 0.003239372 0.004766785
      vertex -7.3410227E-19 0.0036296172 0.00486139
      vertex -0.0014135261 0.0032457737 0.004114944
    endloop
  endfacet
  facet normal -0.2505627907642222 0.967822394927216 -0.023196977427942172
    outer loop
      vertex -0.0014135261 0.0032457737 0.004114944
      vertex -7.3410227E-19 0.0036296172 0.00486139
      vertex 0.0 0.003613865 0.004204178
    endloop
  endfacet
  facet normal 0.2505628506671514 0.9678223794276477 -0.02319697705644454
    outer loop
      vertex -7.3410227E-19 0.0036296172 0.00486139
      vertex 0.0014986 0.003239372 0.004766785
      vertex 0.0 0.003613865 0.004204178
    endloop
  endfacet
  facet normal 2.0094488979259655E-7 0.2356001517652375 -0.9718500751083762
    outer loop
      vertex -0.001495799 0.0018552898 0.003124464
      vertex -8.636E-4 0.0024696924 0.0032734103
      vertex 0.0 0.001016 0.002921
    endloop
  endfacet
  facet normal -8.58897019453693E-8 0.23559999082294086 -0.9718501141247157
    outer loop
      vertex -8.636E-4 0.0024696924 0.0032734103
      vertex 0.0 0.0026945795 0.0033279283
      vertex 0.0 0.001016 0.002921
    endloop
  endfacet
  facet normal 8.588970191875063E-8 0.2355999908229408 -0.9718501141247157
    outer loop
      vertex 0.0 0.001016 0.002921
      vertex 0.0 0.0026945795 0.0033279283
      vertex 8.636E-4 0.0024696924 0.0032734103
    endloop
  endfacet
  facet normal 1.7042193349905578E-7 0.235599868003142 -0.9718501438991883
    outer loop
      vertex -8.636E-4 -4.3769248E-4 0.0025685898
      vertex -0.001495799 1.7671025E-4 0.0027175357
      vertex 0.0 0.001016 0.002921
    endloop
  endfacet
  facet normal 0.0 0.23560015487330005 -0.971850074354927
    outer loop
      vertex -0.001495799 1.7671025E-4 0.0027175357
      vertex -0.0017272 0.001016 0.002921
      vertex 0.0 0.001016 0.002921
    endloop
  endfacet
  facet normal 0.0 0.23559981351597872 -0.9718501571082016
    outer loop
      vertex 0.0 0.001016 0.002921
      vertex -0.0017272 0.001016 0.002921
      vertex -0.001495799 0.0018552898 0.003124464
    endloop
  endfacet
  facet normal -1.7042193349905578E-7 0.235599868003142 -0.9718501438991883
    outer loop
      vertex 0.001495799 1.7671025E-4 0.0027175357
      vertex 8.636E-4 -4.3769248E-4 0.0025685898
      vertex 0.0 0.001016 0.002921
    endloop
  endfacet
  facet normal 2.433858671315808E-7 0.2356001001898425 -0.9718500876114983
    outer loop
      vertex 8.636E-4 -4.3769248E-4 0.0025685898
      vertex 9.785519E-19 -6.625795E-4 0.0025140715
      vertex 0.0 0.001016 0.002921
    endloop
  endfacet
  facet normal -2.433858671404532E-7 0.2356001001898425 -0.9718500876114984
    outer loop
      vertex 0.0 0.001016 0.002921
      vertex 9.785519E-19 -6.625795E-4 0.0025140715
      vertex -8.636E-4 -4.3769248E-4 0.0025685898
    endloop
  endfacet
  facet normal -2.0094488979259655E-7 0.2356001517652375 -0.9718500751083762
    outer loop
      vertex 8.636E-4 0.0024696924 0.0032734103
      vertex 0.001495799 0.0018552898 0.003124464
      vertex 0.0 0.001016 0.002921
    endloop
  endfacet
  facet normal 0.0 0.23559981351597872 -0.9718501571082016
    outer loop
      vertex 0.001495799 0.0018552898 0.003124464
      vertex 0.0017272 0.001016 0.002921
      vertex 0.0 0.001016 0.002921
    endloop
  endfacet
  facet normal 0.0 0.23560015487330005 -0.971850074354927
    outer loop
      vertex 0.0 0.001016 0.002921
      vertex 0.0017272 0.001016 0.002921
      vertex 0.001495799 1.7671025E-4 0.0027175357
    endloop
  endfacet
  facet normal 0.0 0.23560066825552142 -0.9718499498984148
    outer loop
      vertex 0.0032512 -0.0021257263 0.015880622
      vertex 0.003556 -0.0021257263 0.015880622
      vertex 0.002815622 -0.0037055658 0.0154976295
    endloop
  endfacet
  facet normal 3.1111930651951825E-7 0.23560053054536362 -0.971849983282732
    outer loop
      vertex 0.003556 -0.0021257263 0.015880622
      vertex 0.0030795864 -0.003853676 0.015461724
      vertex 0.002815622 -0.0037055658 0.0154976295
    endloop
  endfacet
  facet normal 1.0037264798242175E-7 0.23560017579764236 -0.9718500692823508
    outer loop
      vertex 0.002815622 -0.0037055658 0.0154976295
      vertex 0.0030795864 -0.003853676 0.015461724
      vertex 0.0016256 -0.0048620887 0.01521726
    endloop
  endfacet
  facet normal 1.2662759460451428E-7 0.23560014004305982 -0.9718500779501305
    outer loop
      vertex 0.0030795864 -0.003853676 0.015461724
      vertex 0.001778 -0.0051186224 0.01515507
      vertex 0.0016256 -0.0048620887 0.01521726
    endloop
  endfacet
  facet normal -1.5469690158616992E-7 0.2355999821923067 -0.9718501162169817
    outer loop
      vertex 0.0016256 -0.0048620887 0.01521726
      vertex 0.001778 -0.0051186224 0.01515507
      vertex 1.84198E-18 -0.0052854056 0.015114638
    endloop
  endfacet
  facet normal -2.0937011364773315E-7 0.23560053268652603 -0.9718499827636883
    outer loop
      vertex 0.001778 -0.0051186224 0.01515507
      vertex 2.0146656E-18 -0.0055816253 0.015042827
      vertex 1.84198E-18 -0.0052854056 0.015114638
    endloop
  endfacet
  facet normal 3.064739379419478E-7 0.23560053268652018 -0.971849982763664
    outer loop
      vertex 1.84198E-18 -0.0052854056 0.015114638
      vertex 2.0146656E-18 -0.0055816253 0.015042827
      vertex -0.0016256 -0.0048620887 0.01521726
    endloop
  endfacet
  facet normal 7.060251646073635E-8 0.23560002937754274 -0.9718501047781474
    outer loop
      vertex 2.0146656E-18 -0.0055816253 0.015042827
      vertex -0.001778 -0.0051186224 0.01515507
      vertex -0.0016256 -0.0048620887 0.01521726
    endloop
  endfacet
  facet normal -1.3330668961512062E-7 0.23560014379068972 -0.9718500770416127
    outer loop
      vertex -0.0016256 -0.0048620887 0.01521726
      vertex -0.001778 -0.0051186224 0.01515507
      vertex -0.002815622 -0.0037055658 0.0154976295
    endloop
  endfacet
  facet normal -9.651646698127123E-8 0.23560016930657157 -0.9718500708559451
    outer loop
      vertex -0.001778 -0.0051186224 0.01515507
      vertex -0.0030795864 -0.003853676 0.015461724
      vertex -0.002815622 -0.0037055658 0.0154976295
    endloop
  endfacet
  facet normal -3.4028679493883475E-7 0.23560057964269907 -0.9718499713803096
    outer loop
      vertex -0.002815622 -0.0037055658 0.0154976295
      vertex -0.0030795864 -0.003853676 0.015461724
      vertex -0.0032512 -0.0021257263 0.015880622
    endloop
  endfacet
  facet normal 0.0 0.2356006115628057 -0.9718499636421416
    outer loop
      vertex -0.0030795864 -0.003853676 0.015461724
      vertex -0.003556 -0.0021257263 0.015880622
      vertex -0.0032512 -0.0021257263 0.015880622
    endloop
  endfacet
  facet normal 0.0 0.23559979673808049 -0.9718501611755668
    outer loop
      vertex -0.0032512 -0.0021257263 0.015880622
      vertex -0.003556 -0.0021257263 0.015880622
      vertex -0.002815622 -5.458868E-4 0.016263613
    endloop
  endfacet
  facet normal 1.1750195134328801E-6 0.23559927664101632 -0.9718502872587161
    outer loop
      vertex -0.003556 -0.0021257263 0.015880622
      vertex -0.0030795864 -3.9777686E-4 0.016299518
      vertex -0.002815622 -5.458868E-4 0.016263613
    endloop
  endfacet
  facet normal 1.2770251442759931E-6 0.23559944834649968 -0.9718502456331399
    outer loop
      vertex -0.002815622 -5.458868E-4 0.016263613
      vertex -0.0030795864 -3.9777686E-4 0.016299518
      vertex -0.0016256 6.10636E-4 0.016543983
    endloop
  endfacet
  facet normal 7.169623103555642E-7 0.2356002110526792 -0.9718500607354095
    outer loop
      vertex -0.0030795864 -3.9777686E-4 0.016299518
      vertex -0.001778 8.6717E-4 0.016606173
      vertex -0.0016256 6.10636E-4 0.016543983
    endloop
  endfacet
  facet normal -1.1029504403668583E-6 0.23559918990332215 -0.9718503082860457
    outer loop
      vertex -0.0016256 6.10636E-4 0.016543983
      vertex -0.001778 8.6717E-4 0.016606173
      vertex -7.963143E-19 0.0010339527 0.016646603
    endloop
  endfacet
  facet normal -1.8368948589348437E-6 0.23560657988684308 -0.971848516750759
    outer loop
      vertex -0.001778 8.6717E-4 0.016606173
      vertex 0.0 0.0013301726 0.016718416
      vertex -7.963143E-19 0.0010339527 0.016646603
    endloop
  endfacet
  facet normal 3.140444773678932E-6 0.2356065798860788 -0.9718485167476063
    outer loop
      vertex -7.963143E-19 0.0010339527 0.016646603
      vertex 0.0 0.0013301726 0.016718416
      vertex 0.0016256 6.10636E-4 0.016543983
    endloop
  endfacet
  facet normal -2.595886408604918E-8 0.2355998233321681 -0.9718501547285212
    outer loop
      vertex 0.0 0.0013301726 0.016718416
      vertex 0.001778 8.6717E-4 0.016606173
      vertex 0.0016256 6.10636E-4 0.016543983
    endloop
  endfacet
  facet normal -5.744859320675205E-7 0.23560013110950953 -0.9718500801156792
    outer loop
      vertex 0.0016256 6.10636E-4 0.016543983
      vertex 0.001778 8.6717E-4 0.016606173
      vertex 0.002815622 -5.458868E-4 0.016263613
    endloop
  endfacet
  facet normal -1.3592839562152998E-6 0.23559958681227042 -0.9718502120656453
    outer loop
      vertex 0.001778 8.6717E-4 0.016606173
      vertex 0.0030795864 -3.9777686E-4 0.016299518
      vertex 0.002815622 -5.458868E-4 0.016263613
    endloop
  endfacet
  facet normal -1.2851775835939868E-6 0.23559946206945276 -0.9718502423063612
    outer loop
      vertex 0.002815622 -5.458868E-4 0.016263613
      vertex 0.0030795864 -3.9777686E-4 0.016299518
      vertex 0.0032512 -0.0021257263 0.015880622
    endloop
  endfacet
  facet normal 0.0 0.23559958262388683 -0.9718502130819596
    outer loop
      vertex 0.0030795864 -3.9777686E-4 0.016299518
      vertex 0.003556 -0.0021257263 0.015880622
      vertex 0.0032512 -0.0021257263 0.015880622
    endloop
  endfacet
  facet normal 1.7847669845179305E-6 -0.23559086086181877 0.9718523274012373
    outer loop
      vertex 0.0012065 -0.0038050616 0.031677656
      vertex 0.001397 -0.0034843942 0.03175539
      vertex 0.0 -0.0034908813 0.03175382
    endloop
  endfacet
  facet normal 1.8342527977377394E-6 -0.23560092706899818 0.9718498871538054
    outer loop
      vertex 0.001397 -0.0034843942 0.03175539
      vertex -6.843326E-19 -0.0031206063 0.031843584
      vertex 0.0 -0.0034908813 0.03175382
    endloop
  endfacet
  facet normal 9.905856859084E-7 -0.23560092706927885 0.9718498871549633
    outer loop
      vertex 0.0 -0.0034908813 0.03175382
      vertex -6.843326E-19 -0.0031206063 0.031843584
      vertex -0.0012065 -0.0038050616 0.031677656
    endloop
  endfacet
  facet normal -4.231154641987729E-6 -0.23559223352975817 0.9718519946383591
    outer loop
      vertex -6.843326E-19 -0.0031206063 0.031843584
      vertex -0.001397 -0.0034843942 0.03175539
      vertex -0.0012065 -0.0038050616 0.031677656
    endloop
  endfacet
  facet normal -6.268183739627318E-6 -0.23559337650520448 0.97185171755139
    outer loop
      vertex -0.0012065 -0.0038050616 0.031677656
      vertex -0.001397 -0.0034843942 0.03175539
      vertex -0.0020897193 -0.0046634185 0.03146957
    endloop
  endfacet
  facet normal -2.6108954390057657E-6 -0.23559540602865248 0.9718512255748704
    outer loop
      vertex -0.001397 -0.0034843942 0.03175539
      vertex -0.002419675 -0.004478281 0.03151445
      vertex -0.0020897193 -0.0046634185 0.03146957
    endloop
  endfacet
  facet normal -5.687401216070264E-6 -0.23560058470168835 0.9718499701373027
    outer loop
      vertex -0.0020897193 -0.0046634185 0.03146957
      vertex -0.002419675 -0.004478281 0.03151445
      vertex -0.002413 -0.0058359555 0.031185316
    endloop
  endfacet
  facet normal 0.0 -0.23560055829552734 0.9718499765554537
    outer loop
      vertex -0.002419675 -0.004478281 0.03151445
      vertex -0.002794 -0.0058359555 0.031185316
      vertex -0.002413 -0.0058359555 0.031185316
    endloop
  endfacet
  facet normal 0.0 -0.2355997172311668 0.9718501804499469
    outer loop
      vertex -0.002413 -0.0058359555 0.031185316
      vertex -0.002794 -0.0058359555 0.031185316
      vertex -0.0020897193 -0.0070084925 0.030901065
    endloop
  endfacet
  facet normal -5.375626657931494E-7 -0.2356000221939935 0.9718501065194678
    outer loop
      vertex -0.002794 -0.0058359555 0.031185316
      vertex -0.002419675 -0.00719363 0.030856183
      vertex -0.0020897193 -0.0070084925 0.030901065
    endloop
  endfacet
  facet normal -1.0762023557964221E-7 -0.23560074591304067 0.971849931072286
    outer loop
      vertex -0.0020897193 -0.0070084925 0.030901065
      vertex -0.002419675 -0.00719363 0.030856183
      vertex -0.0012065 -0.007866849 0.030692978
    endloop
  endfacet
  facet normal -1.4594809577071428E-7 -0.2356008111479535 0.9718499152577031
    outer loop
      vertex -0.002419675 -0.00719363 0.030856183
      vertex -0.001397 -0.008187517 0.03061524
      vertex -0.0012065 -0.007866849 0.030692978
    endloop
  endfacet
  facet normal -9.681269323582282E-7 -0.235600349825949 0.9718500270931484
    outer loop
      vertex -0.0012065 -0.007866849 0.030692978
      vertex -0.001397 -0.008187517 0.03061524
      vertex 1.3394841E-18 -0.00818103 0.030616814
    endloop
  endfacet
  facet normal -9.652888219887736E-7 -0.23560092706928498 0.9718498871549874
    outer loop
      vertex -0.001397 -0.008187517 0.03061524
      vertex 1.5829516E-18 -0.008551305 0.03052705
      vertex 1.3394841E-18 -0.00818103 0.030616814
    endloop
  endfacet
  facet normal 1.1272791400819662E-6 -0.23560092706924501 0.9718498871548227
    outer loop
      vertex 1.3394841E-18 -0.00818103 0.030616814
      vertex 1.5829516E-18 -0.008551305 0.03052705
      vertex 0.0012065 -0.007866849 0.030692978
    endloop
  endfacet
  facet normal 8.278393428071519E-7 -0.23560042854089708 0.9718500080108353
    outer loop
      vertex 1.5829516E-18 -0.008551305 0.03052705
      vertex 0.001397 -0.008187517 0.03061524
      vertex 0.0012065 -0.007866849 0.030692978
    endloop
  endfacet
  facet normal 1.642044236673202E-7 -0.23560080090438665 0.971849917740998
    outer loop
      vertex 0.0012065 -0.007866849 0.030692978
      vertex 0.001397 -0.008187517 0.03061524
      vertex 0.0020897193 -0.0070084925 0.030901065
    endloop
  endfacet
  facet normal 9.70799342751718E-8 -0.235600763655453 0.9718499267710823
    outer loop
      vertex 0.001397 -0.008187517 0.03061524
      vertex 0.002419675 -0.00719363 0.030856183
      vertex 0.0020897193 -0.0070084925 0.030901065
    endloop
  endfacet
  facet normal 6.224410302689723E-7 -0.2355998793188232 0.9718501411558104
    outer loop
      vertex 0.0020897193 -0.0070084925 0.030901065
      vertex 0.002419675 -0.00719363 0.030856183
      vertex 0.002413 -0.0058359555 0.031185316
    endloop
  endfacet
  facet normal 0.0 -0.23559988220923206 0.9718501404553049
    outer loop
      vertex 0.002419675 -0.00719363 0.030856183
      vertex 0.002794 -0.0058359555 0.031185316
      vertex 0.002413 -0.0058359555 0.031185316
    endloop
  endfacet
  facet normal 0.0 -0.2356020657404205 0.9718496111121547
    outer loop
      vertex 0.002413 -0.0058359555 0.031185316
      vertex 0.002794 -0.0058359555 0.031185316
      vertex 0.0020897193 -0.0046634185 0.03146957
    endloop
  endfacet
  facet normal 4.9118478939760955E-6 -0.23559927921592588 0.9718502866227956
    outer loop
      vertex 0.002794 -0.0058359555 0.031185316
      vertex 0.002419675 -0.004478281 0.03151445
      vertex 0.0020897193 -0.0046634185 0.03146957
    endloop
  endfacet
  facet normal 3.185183440703327E-6 -0.23559637272661685 0.9718509912264922
    outer loop
      vertex 0.0020897193 -0.0046634185 0.03146957
      vertex 0.002419675 -0.004478281 0.03151445
      vertex 0.0012065 -0.0038050616 0.031677656
    endloop
  endfacet
  facet normal 5.273486551480162E-6 -0.23559281838154672 0.9718518528557888
    outer loop
      vertex 0.002419675 -0.004478281 0.03151445
      vertex 0.001397 -0.0034843942 0.03175539
      vertex 0.0012065 -0.0038050616 0.031677656
    endloop
  endfacet
endsolid toggle_switchSTEP_Switch_12V_LED_CLOSED_OFF_3
