solid toggle_switchSTEP_Switch_12V_LED_CLOSED_OFF_5
  facet normal 0.9659258146282207 -0.25881908862139247 0.0
    outer loop
      vertex -0.0056896 0.0 0.01009015
      vertex -0.0056896 0.0 0.00810895
      vertex -0.004927338 0.0028448 0.01009015
    endloop
  endfacet
  facet normal 0.9659258146282207 -0.25881908862139247 0.0
    outer loop
      vertex -0.0056896 0.0 0.00810895
      vertex -0.004927338 0.0028448 0.00810895
      vertex -0.004927338 0.0028448 0.01009015
    endloop
  endfacet
  facet normal 0.7071067811865476 -0.7071067811865476 0.0
    outer loop
      vertex -0.004927338 0.0028448 0.01009015
      vertex -0.004927338 0.0028448 0.00810895
      vertex -0.0028448 0.004927338 0.01009015
    endloop
  endfacet
  facet normal 0.7071067811865476 -0.7071067811865476 0.0
    outer loop
      vertex -0.004927338 0.0028448 0.00810895
      vertex -0.0028448 0.004927338 0.00810895
      vertex -0.0028448 0.004927338 0.01009015
    endloop
  endfacet
  facet normal 0.2588190886213926 -0.9659258146282207 0.0
    outer loop
      vertex -0.0028448 0.004927338 0.01009015
      vertex -0.0028448 0.004927338 0.00810895
      vertex -1.6117325E-18 0.0056896 0.01009015
    endloop
  endfacet
  facet normal 0.2588190886213926 -0.9659258146282207 0.0
    outer loop
      vertex -0.0028448 0.004927338 0.00810895
      vertex -1.6117325E-18 0.0056896 0.00810895
      vertex -1.6117325E-18 0.0056896 0.01009015
    endloop
  endfacet
  facet normal -0.25881908862139225 -0.9659258146282207 -0.0
    outer loop
      vertex -1.6117325E-18 0.0056896 0.01009015
      vertex -1.6117325E-18 0.0056896 0.00810895
      vertex 0.0028448 0.004927338 0.01009015
    endloop
  endfacet
  facet normal -0.25881908862139225 -0.9659258146282207 0.0
    outer loop
      vertex -1.6117325E-18 0.0056896 0.00810895
      vertex 0.0028448 0.004927338 0.00810895
      vertex 0.0028448 0.004927338 0.01009015
    endloop
  endfacet
  facet normal -0.7071067811865476 -0.7071067811865476 -0.0
    outer loop
      vertex 0.0028448 0.004927338 0.01009015
      vertex 0.0028448 0.004927338 0.00810895
      vertex 0.004927338 0.0028448 0.01009015
    endloop
  endfacet
  facet normal -0.7071067811865476 -0.7071067811865476 0.0
    outer loop
      vertex 0.0028448 0.004927338 0.00810895
      vertex 0.004927338 0.0028448 0.00810895
      vertex 0.004927338 0.0028448 0.01009015
    endloop
  endfacet
  facet normal -0.9659258146282207 -0.2588190886213925 -0.0
    outer loop
      vertex 0.004927338 0.0028448 0.01009015
      vertex 0.004927338 0.0028448 0.00810895
      vertex 0.0056896 6.96775E-19 0.01009015
    endloop
  endfacet
  facet normal -0.9659258146282207 -0.25881908862139263 -2.177485525764333E-16
    outer loop
      vertex 0.004927338 0.0028448 0.00810895
      vertex 0.0056896 2.0903251E-18 0.00810895
      vertex 0.0056896 6.96775E-19 0.01009015
    endloop
  endfacet
  facet normal -0.9659258146282207 0.25881908862139236 1.8204995297307193E-16
    outer loop
      vertex 0.0056896 6.96775E-19 0.01009015
      vertex 0.0056896 2.0903251E-18 0.00810895
      vertex 0.004927338 -0.0028448 0.01009015
    endloop
  endfacet
  facet normal -0.9659258146282208 0.25881908862139225 0.0
    outer loop
      vertex 0.0056896 2.0903251E-18 0.00810895
      vertex 0.004927338 -0.0028448 0.00810895
      vertex 0.004927338 -0.0028448 0.01009015
    endloop
  endfacet
  facet normal -0.7071067811865476 0.7071067811865476 0.0
    outer loop
      vertex 0.004927338 -0.0028448 0.01009015
      vertex 0.004927338 -0.0028448 0.00810895
      vertex 0.0028448 -0.004927338 0.01009015
    endloop
  endfacet
  facet normal -0.7071067811865476 0.7071067811865476 0.0
    outer loop
      vertex 0.004927338 -0.0028448 0.00810895
      vertex 0.0028448 -0.004927338 0.00810895
      vertex 0.0028448 -0.004927338 0.01009015
    endloop
  endfacet
  facet normal -0.25881908862139297 0.9659258146282205 0.0
    outer loop
      vertex 0.0028448 -0.004927338 0.01009015
      vertex 0.0028448 -0.004927338 0.00810895
      vertex 6.0985425E-18 -0.0056896 0.01009015
    endloop
  endfacet
  facet normal -0.25881908862139297 0.9659258146282205 0.0
    outer loop
      vertex 0.0028448 -0.004927338 0.00810895
      vertex 6.0985425E-18 -0.0056896 0.00810895
      vertex 6.0985425E-18 -0.0056896 0.01009015
    endloop
  endfacet
  facet normal 0.2588190886213919 0.9659258146282209 0.0
    outer loop
      vertex 6.0985425E-18 -0.0056896 0.01009015
      vertex 6.0985425E-18 -0.0056896 0.00810895
      vertex -0.0028448 -0.004927338 0.01009015
    endloop
  endfacet
  facet normal 0.2588190886213919 0.9659258146282209 0.0
    outer loop
      vertex 6.0985425E-18 -0.0056896 0.00810895
      vertex -0.0028448 -0.004927338 0.00810895
      vertex -0.0028448 -0.004927338 0.01009015
    endloop
  endfacet
  facet normal 0.7071067811865476 0.7071067811865476 0.0
    outer loop
      vertex -0.0028448 -0.004927338 0.01009015
      vertex -0.0028448 -0.004927338 0.00810895
      vertex -0.004927338 -0.0028448 0.01009015
    endloop
  endfacet
  facet normal 0.7071067811865476 0.7071067811865476 0.0
    outer loop
      vertex -0.0028448 -0.004927338 0.00810895
      vertex -0.004927338 -0.0028448 0.00810895
      vertex -0.004927338 -0.0028448 0.01009015
    endloop
  endfacet
  facet normal 0.9659258146282207 0.25881908862139247 0.0
    outer loop
      vertex -0.004927338 -0.0028448 0.01009015
      vertex -0.004927338 -0.0028448 0.00810895
      vertex -0.0056896 0.0 0.01009015
    endloop
  endfacet
  facet normal 0.9659258146282207 0.25881908862139247 0.0
    outer loop
      vertex -0.004927338 -0.0028448 0.00810895
      vertex -0.0056896 0.0 0.00810895
      vertex -0.0056896 0.0 0.01009015
    endloop
  endfacet
  facet normal 0.40555983296841974 -0.10866939228565815 -0.9075859105687424
    outer loop
      vertex 0.007112 0.0 0.00810895
      vertex 0.006357146 -0.0036703 0.008211101
      vertex 0.006159173 -0.003556 0.00810895
    endloop
  endfacet
  facet normal 0.29689000767842577 -0.2968906911593606 -0.9075859412990163
    outer loop
      vertex 0.006357146 -0.0036703 0.008211101
      vertex 0.0042380975 -0.0073406 0.00871855
      vertex 0.006159173 -0.003556 0.00810895
    endloop
  endfacet
  facet normal 0.2968912112923446 -0.2968912112923446 -0.9075853774244761
    outer loop
      vertex 0.006159173 -0.003556 0.00810895
      vertex 0.0042380975 -0.0073406 0.00871855
      vertex 0.003556 -0.006159173 0.00810895
    endloop
  endfacet
  facet normal 0.10866981909084926 -0.40556092746892747 -0.9075853703808283
    outer loop
      vertex 0.0042380975 -0.0073406 0.00871855
      vertex -3.9505315E-18 -0.0073406 0.008211101
      vertex 0.003556 -0.006159173 0.00810895
    endloop
  endfacet
  facet normal 0.1086692286663532 -0.40555922233265057 -0.9075862030253631
    outer loop
      vertex 0.003556 -0.006159173 0.00810895
      vertex -3.9505315E-18 -0.0073406 0.008211101
      vertex -3.9085384E-18 -0.007112 0.00810895
    endloop
  endfacet
  facet normal -0.10866991063790099 -0.4055591919176655 -0.9075861349607764
    outer loop
      vertex -3.9505315E-18 -0.0073406 0.008211101
      vertex -0.0042380975 -0.0073406 0.00871855
      vertex -3.9085384E-18 -0.007112 0.00810895
    endloop
  endfacet
  facet normal -0.10866970186942489 -0.405560988351164 -0.9075853572106799
    outer loop
      vertex -3.9085384E-18 -0.007112 0.00810895
      vertex -0.0042380975 -0.0073406 0.00871855
      vertex -0.003556 -0.006159173 0.00810895
    endloop
  endfacet
  facet normal -0.2968911305729026 -0.2968912628226091 -0.9075853869728953
    outer loop
      vertex -0.0042380975 -0.0073406 0.00871855
      vertex -0.006357146 -0.0036703 0.008211101
      vertex -0.003556 -0.006159173 0.00810895
    endloop
  endfacet
  facet normal -0.2968902739926167 -0.2968902739926167 -0.9075859906461636
    outer loop
      vertex -0.003556 -0.006159173 0.00810895
      vertex -0.006357146 -0.0036703 0.008211101
      vertex -0.006159173 -0.003556 0.00810895
    endloop
  endfacet
  facet normal -0.40556001313527085 -0.10866904539667838 -0.9075858715946902
    outer loop
      vertex -0.006357146 -0.0036703 0.008211101
      vertex -0.008476195 -4.3368087E-19 0.00871855
      vertex -0.006159173 -0.003556 0.00810895
    endloop
  endfacet
  facet normal -0.40556084419326116 -0.10866966324244434 -0.9075854262536519
    outer loop
      vertex -0.006159173 -0.003556 0.00810895
      vertex -0.008476195 -4.3368087E-19 0.00871855
      vertex -0.007112 2.6129064E-18 0.00810895
    endloop
  endfacet
  facet normal -0.40556084756311034 0.1086695876832915 -0.907585433794877
    outer loop
      vertex -0.008476195 -4.3368087E-19 0.00871855
      vertex -0.006357146 0.0036703 0.008211101
      vertex -0.007112 2.6129064E-18 0.00810895
    endloop
  endfacet
  facet normal -0.4055598329684197 0.10866939228565822 -0.9075859105687424
    outer loop
      vertex -0.007112 2.6129064E-18 0.00810895
      vertex -0.006357146 0.0036703 0.008211101
      vertex -0.006159173 0.003556 0.00810895
    endloop
  endfacet
  facet normal -0.29689000767842577 0.2968906911593606 -0.9075859412990163
    outer loop
      vertex -0.006357146 0.0036703 0.008211101
      vertex -0.0042380975 0.0073406 0.00871855
      vertex -0.006159173 0.003556 0.00810895
    endloop
  endfacet
  facet normal -0.2968912112923446 0.2968912112923446 -0.9075853774244761
    outer loop
      vertex -0.006159173 0.003556 0.00810895
      vertex -0.0042380975 0.0073406 0.00871855
      vertex -0.003556 0.006159173 0.00810895
    endloop
  endfacet
  facet normal -0.10866981909084936 0.40556092746892747 -0.9075853703808284
    outer loop
      vertex -0.0042380975 0.0073406 0.00871855
      vertex 1.1072781E-18 0.0073406 0.008211101
      vertex -0.003556 0.006159173 0.00810895
    endloop
  endfacet
  facet normal -0.10866922866635374 0.40555922233265196 -0.9075862030253624
    outer loop
      vertex -0.003556 0.006159173 0.00810895
      vertex 1.1072781E-18 0.0073406 0.008211101
      vertex -2.1666009E-18 0.007112 0.00810895
    endloop
  endfacet
  facet normal 0.10866991063790096 0.4055591919176642 -0.907586134960777
    outer loop
      vertex 1.1072781E-18 0.0073406 0.008211101
      vertex 0.0042380975 0.0073406 0.00871855
      vertex -2.1666009E-18 0.007112 0.00810895
    endloop
  endfacet
  facet normal 0.1086697018694247 0.4055609883511641 -0.9075853572106798
    outer loop
      vertex -2.1666009E-18 0.007112 0.00810895
      vertex 0.0042380975 0.0073406 0.00871855
      vertex 0.003556 0.006159173 0.00810895
    endloop
  endfacet
  facet normal 0.2968911305729026 0.2968912628226091 -0.9075853869728953
    outer loop
      vertex 0.0042380975 0.0073406 0.00871855
      vertex 0.006357146 0.0036703 0.008211101
      vertex 0.003556 0.006159173 0.00810895
    endloop
  endfacet
  facet normal 0.2968902739926167 0.2968902739926167 -0.9075859906461636
    outer loop
      vertex 0.003556 0.006159173 0.00810895
      vertex 0.006357146 0.0036703 0.008211101
      vertex 0.006159173 0.003556 0.00810895
    endloop
  endfacet
  facet normal 0.4055600131352709 0.10866904539667831 -0.9075858715946903
    outer loop
      vertex 0.006357146 0.0036703 0.008211101
      vertex 0.008476195 -2.6020852E-18 0.00871855
      vertex 0.006159173 0.003556 0.00810895
    endloop
  endfacet
  facet normal 0.40556084419326144 0.10866966324244448 -0.9075854262536518
    outer loop
      vertex 0.006159173 0.003556 0.00810895
      vertex 0.008476195 -2.6020852E-18 0.00871855
      vertex 0.007112 0.0 0.00810895
    endloop
  endfacet
  facet normal 0.40556084756310995 -0.10866958768329134 -0.9075854337948772
    outer loop
      vertex 0.008476195 -2.6020852E-18 0.00871855
      vertex 0.006357146 -0.0036703 0.008211101
      vertex 0.007112 0.0 0.00810895
    endloop
  endfacet
  facet normal -0.4055598329684254 -0.10866939228565972 0.9075859105687396
    outer loop
      vertex -0.007112 -1.7419375E-18 0.01009015
      vertex -0.006357146 -0.0036703 0.009987999
      vertex -0.006159173 -0.003556 0.01009015
    endloop
  endfacet
  facet normal -0.2968900076784311 -0.2968906911593629 0.9075859412990138
    outer loop
      vertex -0.006357146 -0.0036703 0.009987999
      vertex -0.0042380975 -0.0073406 0.00948055
      vertex -0.006159173 -0.003556 0.01009015
    endloop
  endfacet
  facet normal -0.2968912112923446 -0.2968912112923446 0.9075853774244761
    outer loop
      vertex -0.006159173 -0.003556 0.01009015
      vertex -0.0042380975 -0.0073406 0.00948055
      vertex -0.003556 -0.006159173 0.01009015
    endloop
  endfacet
  facet normal -0.10866981909084922 -0.4055609274689275 0.9075853703808283
    outer loop
      vertex -0.0042380975 -0.0073406 0.00948055
      vertex -7.773402E-18 -0.0073406 0.009987999
      vertex -0.003556 -0.006159173 0.01009015
    endloop
  endfacet
  facet normal -0.10866922866635417 -0.4055592223326537 0.9075862030253615
    outer loop
      vertex -0.003556 -0.006159173 0.01009015
      vertex -7.773402E-18 -0.0073406 0.009987999
      vertex -1.295632E-18 -0.007112 0.01009015
    endloop
  endfacet
  facet normal 0.10866991063789988 -0.40555919191767387 0.9075861349607729
    outer loop
      vertex -7.773402E-18 -0.0073406 0.009987999
      vertex 0.0042380975 -0.0073406 0.00948055
      vertex -1.295632E-18 -0.007112 0.01009015
    endloop
  endfacet
  facet normal 0.10866970186942475 -0.40556098835116416 0.9075853572106798
    outer loop
      vertex -1.295632E-18 -0.007112 0.01009015
      vertex 0.0042380975 -0.0073406 0.00948055
      vertex 0.003556 -0.006159173 0.01009015
    endloop
  endfacet
  facet normal 0.29689113057290295 -0.29689126282260886 0.9075853869728953
    outer loop
      vertex 0.0042380975 -0.0073406 0.00948055
      vertex 0.006357146 -0.0036703 0.009987999
      vertex 0.003556 -0.006159173 0.01009015
    endloop
  endfacet
  facet normal 0.29689027399262086 -0.29689027399262086 0.9075859906461607
    outer loop
      vertex 0.003556 -0.006159173 0.01009015
      vertex 0.006357146 -0.0036703 0.009987999
      vertex 0.006159173 -0.003556 0.01009015
    endloop
  endfacet
  facet normal 0.4055600131352755 -0.1086690453966819 0.9075858715946878
    outer loop
      vertex 0.006357146 -0.0036703 0.009987999
      vertex 0.008476195 -2.6020852E-18 0.00948055
      vertex 0.006159173 -0.003556 0.01009015
    endloop
  endfacet
  facet normal 0.4055608441932609 -0.10866966324244423 0.9075854262536521
    outer loop
      vertex 0.006159173 -0.003556 0.01009015
      vertex 0.008476195 -2.6020852E-18 0.00948055
      vertex 0.007112 4.029331E-18 0.01009015
    endloop
  endfacet
  facet normal 0.40556084756311056 0.10866958768329203 0.9075854337948768
    outer loop
      vertex 0.008476195 -2.6020852E-18 0.00948055
      vertex 0.006357146 0.0036703 0.009987999
      vertex 0.007112 4.029331E-18 0.01009015
    endloop
  endfacet
  facet normal 0.4055598329684254 0.10866939228565978 0.9075859105687397
    outer loop
      vertex 0.007112 4.029331E-18 0.01009015
      vertex 0.006357146 0.0036703 0.009987999
      vertex 0.006159173 0.003556 0.01009015
    endloop
  endfacet
  facet normal 0.2968900076784311 0.2968906911593629 0.9075859412990138
    outer loop
      vertex 0.006357146 0.0036703 0.009987999
      vertex 0.0042380975 0.0073406 0.00948055
      vertex 0.006159173 0.003556 0.01009015
    endloop
  endfacet
  facet normal 0.2968912112923446 0.2968912112923446 0.9075853774244761
    outer loop
      vertex 0.006159173 0.003556 0.01009015
      vertex 0.0042380975 0.0073406 0.00948055
      vertex 0.003556 0.006159173 0.01009015
    endloop
  endfacet
  facet normal 0.10866981909084901 0.40556092746892763 0.9075853703808284
    outer loop
      vertex 0.0042380975 0.0073406 0.00948055
      vertex 2.0831392E-19 0.0073406 0.009987999
      vertex 0.003556 0.006159173 0.01009015
    endloop
  endfacet
  facet normal 0.10866922866635444 0.4055592223326551 0.9075862030253609
    outer loop
      vertex 0.003556 0.006159173 0.01009015
      vertex 2.0831392E-19 0.0073406 0.009987999
      vertex -3.0375695E-18 0.007112 0.01009015
    endloop
  endfacet
  facet normal -0.10866991063790014 0.40555919191767253 0.9075861349607734
    outer loop
      vertex 2.0831392E-19 0.0073406 0.009987999
      vertex -0.0042380975 0.0073406 0.00948055
      vertex -3.0375695E-18 0.007112 0.01009015
    endloop
  endfacet
  facet normal -0.10866970186942487 0.40556098835116405 0.9075853572106799
    outer loop
      vertex -3.0375695E-18 0.007112 0.01009015
      vertex -0.0042380975 0.0073406 0.00948055
      vertex -0.003556 0.006159173 0.01009015
    endloop
  endfacet
  facet normal -0.29689113057290295 0.29689126282260886 0.9075853869728953
    outer loop
      vertex -0.0042380975 0.0073406 0.00948055
      vertex -0.006357146 0.0036703 0.009987999
      vertex -0.003556 0.006159173 0.01009015
    endloop
  endfacet
  facet normal -0.29689027399262086 0.29689027399262086 0.9075859906461607
    outer loop
      vertex -0.003556 0.006159173 0.01009015
      vertex -0.006357146 0.0036703 0.009987999
      vertex -0.006159173 0.003556 0.01009015
    endloop
  endfacet
  facet normal -0.4055600131352754 0.10866904539668182 0.9075858715946877
    outer loop
      vertex -0.006357146 0.0036703 0.009987999
      vertex -0.008476195 0.0 0.00948055
      vertex -0.006159173 0.003556 0.01009015
    endloop
  endfacet
  facet normal -0.40556084419326127 0.1086696632424444 0.907585426253652
    outer loop
      vertex -0.006159173 0.003556 0.01009015
      vertex -0.008476195 0.0 0.00948055
      vertex -0.007112 -1.7419375E-18 0.01009015
    endloop
  endfacet
  facet normal -0.4055608475631102 -0.10866958768329191 0.9075854337948771
    outer loop
      vertex -0.008476195 0.0 0.00948055
      vertex -0.006357146 -0.0036703 0.009987999
      vertex -0.007112 -1.7419375E-18 0.01009015
    endloop
  endfacet
  facet normal 0.0 -0.0 1.0
    outer loop
      vertex 0.0028448 0.004927338 0.01009015
      vertex 0.003556 0.006159173 0.01009015
      vertex -1.6117325E-18 0.0056896 0.01009015
    endloop
  endfacet
  facet normal 0.0 0.0 1.0
    outer loop
      vertex 0.003556 0.006159173 0.01009015
      vertex -3.0375695E-18 0.007112 0.01009015
      vertex -1.6117325E-18 0.0056896 0.01009015
    endloop
  endfacet
  facet normal 0.0 0.0 1.0
    outer loop
      vertex -1.6117325E-18 0.0056896 0.01009015
      vertex -3.0375695E-18 0.007112 0.01009015
      vertex -0.0028448 0.004927338 0.01009015
    endloop
  endfacet
  facet normal 0.0 0.0 1.0
    outer loop
      vertex -3.0375695E-18 0.007112 0.01009015
      vertex -0.003556 0.006159173 0.01009015
      vertex -0.0028448 0.004927338 0.01009015
    endloop
  endfacet
  facet normal 0.0 0.0 1.0
    outer loop
      vertex -0.0028448 0.004927338 0.01009015
      vertex -0.003556 0.006159173 0.01009015
      vertex -0.004927338 0.0028448 0.01009015
    endloop
  endfacet
  facet normal 0.0 0.0 1.0
    outer loop
      vertex -0.003556 0.006159173 0.01009015
      vertex -0.006159173 0.003556 0.01009015
      vertex -0.004927338 0.0028448 0.01009015
    endloop
  endfacet
  facet normal 0.0 0.0 1.0
    outer loop
      vertex -0.004927338 0.0028448 0.01009015
      vertex -0.006159173 0.003556 0.01009015
      vertex -0.0056896 0.0 0.01009015
    endloop
  endfacet
  facet normal 0.0 0.0 1.0
    outer loop
      vertex -0.006159173 0.003556 0.01009015
      vertex -0.007112 -1.7419375E-18 0.01009015
      vertex -0.0056896 0.0 0.01009015
    endloop
  endfacet
  facet normal 0.0 0.0 1.0
    outer loop
      vertex -0.0056896 0.0 0.01009015
      vertex -0.007112 -1.7419375E-18 0.01009015
      vertex -0.004927338 -0.0028448 0.01009015
    endloop
  endfacet
  facet normal 0.0 0.0 1.0
    outer loop
      vertex -0.007112 -1.7419375E-18 0.01009015
      vertex -0.006159173 -0.003556 0.01009015
      vertex -0.004927338 -0.0028448 0.01009015
    endloop
  endfacet
  facet normal 0.0 0.0 1.0
    outer loop
      vertex -0.004927338 -0.0028448 0.01009015
      vertex -0.006159173 -0.003556 0.01009015
      vertex -0.0028448 -0.004927338 0.01009015
    endloop
  endfacet
  facet normal 0.0 0.0 1.0
    outer loop
      vertex -0.006159173 -0.003556 0.01009015
      vertex -0.003556 -0.006159173 0.01009015
      vertex -0.0028448 -0.004927338 0.01009015
    endloop
  endfacet
  facet normal 0.0 0.0 1.0
    outer loop
      vertex -0.0028448 -0.004927338 0.01009015
      vertex -0.003556 -0.006159173 0.01009015
      vertex 6.0985425E-18 -0.0056896 0.01009015
    endloop
  endfacet
  facet normal -0.0 0.0 1.0
    outer loop
      vertex -0.003556 -0.006159173 0.01009015
      vertex -1.295632E-18 -0.007112 0.01009015
      vertex 6.0985425E-18 -0.0056896 0.01009015
    endloop
  endfacet
  facet normal -0.0 0.0 1.0
    outer loop
      vertex 6.0985425E-18 -0.0056896 0.01009015
      vertex -1.295632E-18 -0.007112 0.01009015
      vertex 0.0028448 -0.004927338 0.01009015
    endloop
  endfacet
  facet normal 0.0 0.0 1.0
    outer loop
      vertex -1.295632E-18 -0.007112 0.01009015
      vertex 0.003556 -0.006159173 0.01009015
      vertex 0.0028448 -0.004927338 0.01009015
    endloop
  endfacet
  facet normal -0.0 0.0 1.0
    outer loop
      vertex 0.0028448 -0.004927338 0.01009015
      vertex 0.003556 -0.006159173 0.01009015
      vertex 0.004927338 -0.0028448 0.01009015
    endloop
  endfacet
  facet normal 0.0 0.0 1.0
    outer loop
      vertex 0.003556 -0.006159173 0.01009015
      vertex 0.006159173 -0.003556 0.01009015
      vertex 0.004927338 -0.0028448 0.01009015
    endloop
  endfacet
  facet normal -0.0 0.0 1.0
    outer loop
      vertex 0.004927338 -0.0028448 0.01009015
      vertex 0.006159173 -0.003556 0.01009015
      vertex 0.0056896 6.96775E-19 0.01009015
    endloop
  endfacet
  facet normal 0.0 -0.0 1.0
    outer loop
      vertex 0.006159173 -0.003556 0.01009015
      vertex 0.007112 4.029331E-18 0.01009015
      vertex 0.0056896 6.96775E-19 0.01009015
    endloop
  endfacet
  facet normal 0.0 -0.0 1.0
    outer loop
      vertex 0.0056896 6.96775E-19 0.01009015
      vertex 0.007112 4.029331E-18 0.01009015
      vertex 0.004927338 0.0028448 0.01009015
    endloop
  endfacet
  facet normal 0.0 0.0 1.0
    outer loop
      vertex 0.007112 4.029331E-18 0.01009015
      vertex 0.006159173 0.003556 0.01009015
      vertex 0.004927338 0.0028448 0.01009015
    endloop
  endfacet
  facet normal 0.0 -0.0 1.0
    outer loop
      vertex 0.004927338 0.0028448 0.01009015
      vertex 0.006159173 0.003556 0.01009015
      vertex 0.0028448 0.004927338 0.01009015
    endloop
  endfacet
  facet normal 0.0 0.0 1.0
    outer loop
      vertex 0.006159173 0.003556 0.01009015
      vertex 0.003556 0.006159173 0.01009015
      vertex 0.0028448 0.004927338 0.01009015
    endloop
  endfacet
  facet normal 0.0 0.0 -1.0
    outer loop
      vertex -0.004927338 0.0028448 0.00810895
      vertex -0.006159173 0.003556 0.00810895
      vertex -0.0028448 0.004927338 0.00810895
    endloop
  endfacet
  facet normal 0.0 0.0 -1.0
    outer loop
      vertex -0.006159173 0.003556 0.00810895
      vertex -0.003556 0.006159173 0.00810895
      vertex -0.0028448 0.004927338 0.00810895
    endloop
  endfacet
  facet normal 0.0 0.0 -1.0
    outer loop
      vertex -0.0028448 0.004927338 0.00810895
      vertex -0.003556 0.006159173 0.00810895
      vertex -1.6117325E-18 0.0056896 0.00810895
    endloop
  endfacet
  facet normal 0.0 0.0 -1.0
    outer loop
      vertex -0.003556 0.006159173 0.00810895
      vertex -2.1666009E-18 0.007112 0.00810895
      vertex -1.6117325E-18 0.0056896 0.00810895
    endloop
  endfacet
  facet normal 0.0 0.0 -1.0
    outer loop
      vertex -1.6117325E-18 0.0056896 0.00810895
      vertex -2.1666009E-18 0.007112 0.00810895
      vertex 0.0028448 0.004927338 0.00810895
    endloop
  endfacet
  facet normal 0.0 0.0 -1.0
    outer loop
      vertex -2.1666009E-18 0.007112 0.00810895
      vertex 0.003556 0.006159173 0.00810895
      vertex 0.0028448 0.004927338 0.00810895
    endloop
  endfacet
  facet normal 0.0 0.0 -1.0
    outer loop
      vertex 0.0028448 0.004927338 0.00810895
      vertex 0.003556 0.006159173 0.00810895
      vertex 0.004927338 0.0028448 0.00810895
    endloop
  endfacet
  facet normal 0.0 0.0 -1.0
    outer loop
      vertex 0.003556 0.006159173 0.00810895
      vertex 0.006159173 0.003556 0.00810895
      vertex 0.004927338 0.0028448 0.00810895
    endloop
  endfacet
  facet normal 0.0 0.0 -1.0
    outer loop
      vertex 0.004927338 0.0028448 0.00810895
      vertex 0.006159173 0.003556 0.00810895
      vertex 0.0056896 2.0903251E-18 0.00810895
    endloop
  endfacet
  facet normal 0.0 -0.0 -1.0
    outer loop
      vertex 0.006159173 0.003556 0.00810895
      vertex 0.007112 0.0 0.00810895
      vertex 0.0056896 2.0903251E-18 0.00810895
    endloop
  endfacet
  facet normal 0.0 -0.0 -1.0
    outer loop
      vertex 0.0056896 2.0903251E-18 0.00810895
      vertex 0.007112 0.0 0.00810895
      vertex 0.004927338 -0.0028448 0.00810895
    endloop
  endfacet
  facet normal 0.0 0.0 -1.0
    outer loop
      vertex 0.007112 0.0 0.00810895
      vertex 0.006159173 -0.003556 0.00810895
      vertex 0.004927338 -0.0028448 0.00810895
    endloop
  endfacet
  facet normal 0.0 -0.0 -1.0
    outer loop
      vertex 0.004927338 -0.0028448 0.00810895
      vertex 0.006159173 -0.003556 0.00810895
      vertex 0.0028448 -0.004927338 0.00810895
    endloop
  endfacet
  facet normal 0.0 0.0 -1.0
    outer loop
      vertex 0.006159173 -0.003556 0.00810895
      vertex 0.003556 -0.006159173 0.00810895
      vertex 0.0028448 -0.004927338 0.00810895
    endloop
  endfacet
  facet normal 0.0 -0.0 -1.0
    outer loop
      vertex 0.0028448 -0.004927338 0.00810895
      vertex 0.003556 -0.006159173 0.00810895
      vertex 6.0985425E-18 -0.0056896 0.00810895
    endloop
  endfacet
  facet normal -0.0 0.0 -1.0
    outer loop
      vertex 0.003556 -0.006159173 0.00810895
      vertex -3.9085384E-18 -0.007112 0.00810895
      vertex 6.0985425E-18 -0.0056896 0.00810895
    endloop
  endfacet
  facet normal -0.0 0.0 -1.0
    outer loop
      vertex 6.0985425E-18 -0.0056896 0.00810895
      vertex -3.9085384E-18 -0.007112 0.00810895
      vertex -0.0028448 -0.004927338 0.00810895
    endloop
  endfacet
  facet normal 0.0 0.0 -1.0
    outer loop
      vertex -3.9085384E-18 -0.007112 0.00810895
      vertex -0.003556 -0.006159173 0.00810895
      vertex -0.0028448 -0.004927338 0.00810895
    endloop
  endfacet
  facet normal -0.0 0.0 -1.0
    outer loop
      vertex -0.0028448 -0.004927338 0.00810895
      vertex -0.003556 -0.006159173 0.00810895
      vertex -0.004927338 -0.0028448 0.00810895
    endloop
  endfacet
  facet normal 0.0 0.0 -1.0
    outer loop
      vertex -0.003556 -0.006159173 0.00810895
      vertex -0.006159173 -0.003556 0.00810895
      vertex -0.004927338 -0.0028448 0.00810895
    endloop
  endfacet
  facet normal -0.0 0.0 -1.0
    outer loop
      vertex -0.004927338 -0.0028448 0.00810895
      vertex -0.006159173 -0.003556 0.00810895
      vertex -0.0056896 0.0 0.00810895
    endloop
  endfacet
  facet normal 0.0 0.0 -1.0
    outer loop
      vertex -0.006159173 -0.003556 0.00810895
      vertex -0.007112 2.6129064E-18 0.00810895
      vertex -0.0056896 0.0 0.00810895
    endloop
  endfacet
  facet normal 0.0 0.0 -1.0
    outer loop
      vertex -0.0056896 0.0 0.00810895
      vertex -0.007112 2.6129064E-18 0.00810895
      vertex -0.004927338 0.0028448 0.00810895
    endloop
  endfacet
  facet normal 0.0 0.0 -1.0
    outer loop
      vertex -0.007112 2.6129064E-18 0.00810895
      vertex -0.006159173 0.003556 0.00810895
      vertex -0.004927338 0.0028448 0.00810895
    endloop
  endfacet
  facet normal -0.8660254235042179 0.49999996584433903 0.0
    outer loop
      vertex -0.0042380975 0.0073406 0.00948055
      vertex -0.0042380975 0.0073406 0.00871855
      vertex -0.006357146 0.0036703 0.009987999
    endloop
  endfacet
  facet normal -0.8660254235042177 0.4999999658443389 0.0
    outer loop
      vertex -0.0042380975 0.0073406 0.00871855
      vertex -0.006357146 0.0036703 0.008211101
      vertex -0.006357146 0.0036703 0.009987999
    endloop
  endfacet
  facet normal -0.8660253724184751 0.5000000543274385 0.0
    outer loop
      vertex -0.006357146 0.0036703 0.009987999
      vertex -0.006357146 0.0036703 0.008211101
      vertex -0.008476195 0.0 0.00948055
    endloop
  endfacet
  facet normal -0.8660253724184752 0.5000000543274385 -5.245711236865457E-16
    outer loop
      vertex -0.006357146 0.0036703 0.008211101
      vertex -0.008476195 -4.3368087E-19 0.00871855
      vertex -0.008476195 0.0 0.00948055
    endloop
  endfacet
  facet normal 0.0 1.0 0.0
    outer loop
      vertex 0.0042380975 0.0073406 0.00948055
      vertex 0.0042380975 0.0073406 0.00871855
      vertex 2.0831392E-19 0.0073406 0.009987999
    endloop
  endfacet
  facet normal 0.0 1.0 0.0
    outer loop
      vertex 0.0042380975 0.0073406 0.00871855
      vertex 1.1072781E-18 0.0073406 0.008211101
      vertex 2.0831392E-19 0.0073406 0.009987999
    endloop
  endfacet
  facet normal 0.0 1.0 0.0
    outer loop
      vertex 2.0831392E-19 0.0073406 0.009987999
      vertex 1.1072781E-18 0.0073406 0.008211101
      vertex -0.0042380975 0.0073406 0.00948055
    endloop
  endfacet
  facet normal 0.0 1.0 0.0
    outer loop
      vertex 1.1072781E-18 0.0073406 0.008211101
      vertex -0.0042380975 0.0073406 0.00871855
      vertex -0.0042380975 0.0073406 0.00948055
    endloop
  endfacet
  facet normal 0.8660253724184752 0.5000000543274382 0.0
    outer loop
      vertex 0.008476195 -2.6020852E-18 0.00948055
      vertex 0.008476195 -2.6020852E-18 0.00871855
      vertex 0.006357146 0.0036703 0.009987999
    endloop
  endfacet
  facet normal 0.8660253724184753 0.5000000543274382 0.0
    outer loop
      vertex 0.008476195 -2.6020852E-18 0.00871855
      vertex 0.006357146 0.0036703 0.008211101
      vertex 0.006357146 0.0036703 0.009987999
    endloop
  endfacet
  facet normal 0.8660254235042177 0.4999999658443389 0.0
    outer loop
      vertex 0.006357146 0.0036703 0.009987999
      vertex 0.006357146 0.0036703 0.008211101
      vertex 0.0042380975 0.0073406 0.00948055
    endloop
  endfacet
  facet normal 0.8660254235042179 0.4999999658443391 0.0
    outer loop
      vertex 0.006357146 0.0036703 0.008211101
      vertex 0.0042380975 0.0073406 0.00871855
      vertex 0.0042380975 0.0073406 0.00948055
    endloop
  endfacet
  facet normal 0.8660254235042179 -0.49999996584433903 0.0
    outer loop
      vertex 0.0042380975 -0.0073406 0.00948055
      vertex 0.0042380975 -0.0073406 0.00871855
      vertex 0.006357146 -0.0036703 0.009987999
    endloop
  endfacet
  facet normal 0.8660254235042177 -0.4999999658443389 0.0
    outer loop
      vertex 0.0042380975 -0.0073406 0.00871855
      vertex 0.006357146 -0.0036703 0.008211101
      vertex 0.006357146 -0.0036703 0.009987999
    endloop
  endfacet
  facet normal 0.866025372418475 -0.5000000543274388 0.0
    outer loop
      vertex 0.006357146 -0.0036703 0.009987999
      vertex 0.006357146 -0.0036703 0.008211101
      vertex 0.008476195 -2.6020852E-18 0.00948055
    endloop
  endfacet
  facet normal 0.866025372418475 -0.5000000543274389 0.0
    outer loop
      vertex 0.006357146 -0.0036703 0.008211101
      vertex 0.008476195 -2.6020852E-18 0.00871855
      vertex 0.008476195 -2.6020852E-18 0.00948055
    endloop
  endfacet
  facet normal -0.0 -1.0 0.0
    outer loop
      vertex 0.0042380975 -0.0073406 0.00871855
      vertex 0.0042380975 -0.0073406 0.00948055
      vertex -3.9505315E-18 -0.0073406 0.008211101
    endloop
  endfacet
  facet normal -0.0 -1.0 0.0
    outer loop
      vertex 0.0042380975 -0.0073406 0.00948055
      vertex -7.773402E-18 -0.0073406 0.009987999
      vertex -3.9505315E-18 -0.0073406 0.008211101
    endloop
  endfacet
  facet normal 0.0 -1.0 0.0
    outer loop
      vertex -3.9505315E-18 -0.0073406 0.008211101
      vertex -7.773402E-18 -0.0073406 0.009987999
      vertex -0.0042380975 -0.0073406 0.00871855
    endloop
  endfacet
  facet normal 0.0 -1.0 0.0
    outer loop
      vertex -7.773402E-18 -0.0073406 0.009987999
      vertex -0.0042380975 -0.0073406 0.00948055
      vertex -0.0042380975 -0.0073406 0.00871855
    endloop
  endfacet
  facet normal -0.8660253724184752 -0.5000000543274385 2.8456753091964656E-16
    outer loop
      vertex -0.008476195 0.0 0.00948055
      vertex -0.008476195 -4.3368087E-19 0.00871855
      vertex -0.006357146 -0.0036703 0.009987999
    endloop
  endfacet
  facet normal -0.8660253724184751 -0.5000000543274385 0.0
    outer loop
      vertex -0.008476195 -4.3368087E-19 0.00871855
      vertex -0.006357146 -0.0036703 0.008211101
      vertex -0.006357146 -0.0036703 0.009987999
    endloop
  endfacet
  facet normal -0.8660254235042177 -0.4999999658443389 -0.0
    outer loop
      vertex -0.006357146 -0.0036703 0.009987999
      vertex -0.006357146 -0.0036703 0.008211101
      vertex -0.0042380975 -0.0073406 0.00948055
    endloop
  endfacet
  facet normal -0.8660254235042179 -0.4999999658443391 0.0
    outer loop
      vertex -0.006357146 -0.0036703 0.008211101
      vertex -0.0042380975 -0.0073406 0.00871855
      vertex -0.0042380975 -0.0073406 0.00948055
    endloop
  endfacet
endsolid toggle_switchSTEP_Switch_12V_LED_CLOSED_OFF_5
