solid voltmeter_1
  facet normal -0.0 0.0 1.0
    outer loop
      vertex 0.022 0.0073660254 0.01
      vertex 0.022366025 0.007 0.01
      vertex 0.02775 0.01 0.01
    endloop
  endfacet
  facet normal -0.0 0.0 1.0
    outer loop
      vertex 0.022366025 0.007 0.01
      vertex 0.0225 0.0065 0.01
      vertex 0.02775 0.01 0.01
    endloop
  endfacet
  facet normal 0.0 0.0 1.0
    outer loop
      vertex 0.02775 0.01 0.01
      vertex 0.0225 0.0065 0.01
      vertex 0.02775 -0.01 0.01
    endloop
  endfacet
  facet normal 0.0 0.0 1.0
    outer loop
      vertex 0.0225 0.0065 0.01
      vertex 0.0225 -0.0065 0.01
      vertex 0.02775 -0.01 0.01
    endloop
  endfacet
  facet normal 0.0 0.0 1.0
    outer loop
      vertex 0.02775 -0.01 0.01
      vertex 0.0225 -0.0065 0.01
      vertex 0.022366025 -0.007 0.01
    endloop
  endfacet
  facet normal 0.0 -0.0 1.0
    outer loop
      vertex -0.022366025 0.007 0.01
      vertex -0.022 0.0073660254 0.01
      vertex -0.02775 0.01 0.01
    endloop
  endfacet
  facet normal 0.0 -0.0 1.0
    outer loop
      vertex -0.022 0.0073660254 0.01
      vertex -0.0215 0.0075 0.01
      vertex -0.02775 0.01 0.01
    endloop
  endfacet
  facet normal -0.0 0.0 1.0
    outer loop
      vertex -0.02775 0.01 0.01
      vertex -0.0215 0.0075 0.01
      vertex 0.02775 0.01 0.01
    endloop
  endfacet
  facet normal 0.0 0.0 1.0
    outer loop
      vertex -0.0215 0.0075 0.01
      vertex 0.0215 0.0075 0.01
      vertex 0.02775 0.01 0.01
    endloop
  endfacet
  facet normal 0.0 0.0 1.0
    outer loop
      vertex 0.02775 0.01 0.01
      vertex 0.0215 0.0075 0.01
      vertex 0.022 0.0073660254 0.01
    endloop
  endfacet
  facet normal 0.0 0.0 1.0
    outer loop
      vertex 0.022366025 -0.007 0.01
      vertex 0.022 -0.0073660254 0.01
      vertex 0.02775 -0.01 0.01
    endloop
  endfacet
  facet normal 0.0 0.0 1.0
    outer loop
      vertex 0.022 -0.0073660254 0.01
      vertex 0.0215 -0.0075 0.01
      vertex 0.02775 -0.01 0.01
    endloop
  endfacet
  facet normal 0.0 0.0 1.0
    outer loop
      vertex 0.02775 -0.01 0.01
      vertex 0.0215 -0.0075 0.01
      vertex -0.02775 -0.01 0.01
    endloop
  endfacet
  facet normal 0.0 0.0 1.0
    outer loop
      vertex 0.0215 -0.0075 0.01
      vertex -0.0215 -0.0075 0.01
      vertex -0.02775 -0.01 0.01
    endloop
  endfacet
  facet normal 0.0 0.0 1.0
    outer loop
      vertex -0.02775 -0.01 0.01
      vertex -0.0215 -0.0075 0.01
      vertex -0.022 -0.0073660254 0.01
    endloop
  endfacet
  facet normal 0.0 0.0 1.0
    outer loop
      vertex -0.022 -0.0073660254 0.01
      vertex -0.022366025 -0.007 0.01
      vertex -0.02775 -0.01 0.01
    endloop
  endfacet
  facet normal 0.0 0.0 1.0
    outer loop
      vertex -0.022366025 -0.007 0.01
      vertex -0.0225 -0.0065 0.01
      vertex -0.02775 -0.01 0.01
    endloop
  endfacet
  facet normal 0.0 0.0 1.0
    outer loop
      vertex -0.02775 -0.01 0.01
      vertex -0.0225 -0.0065 0.01
      vertex -0.02775 0.01 0.01
    endloop
  endfacet
  facet normal 0.0 -0.0 1.0
    outer loop
      vertex -0.0225 -0.0065 0.01
      vertex -0.0225 0.0065 0.01
      vertex -0.02775 0.01 0.01
    endloop
  endfacet
  facet normal 0.0 0.0 1.0
    outer loop
      vertex -0.02775 0.01 0.01
      vertex -0.0225 0.0065 0.01
      vertex -0.022366025 0.007 0.01
    endloop
  endfacet
  facet normal 0.0 0.0 -1.0
    outer loop
      vertex 0.02775 -0.01 0.0
      vertex -0.02775 -0.01 0.0
      vertex 0.02775 0.01 0.0
    endloop
  endfacet
  facet normal 0.0 0.0 -1.0
    outer loop
      vertex -0.02775 -0.01 0.0
      vertex -0.02775 0.01 0.0
      vertex 0.02775 0.01 0.0
    endloop
  endfacet
  facet normal -0.9659256312759256 0.2588197729003801 0.0
    outer loop
      vertex 0.0225 -0.0065 0.01
      vertex 0.0225 -0.0065 0.009
      vertex 0.022366025 -0.007 0.01
    endloop
  endfacet
  facet normal -0.9659256312759256 0.2588197729003801 0.0
    outer loop
      vertex 0.0225 -0.0065 0.009
      vertex 0.022366025 -0.007 0.009
      vertex 0.022366025 -0.007 0.01
    endloop
  endfacet
  facet normal -0.7071071675569852 0.7071063948158988 0.0
    outer loop
      vertex 0.022366025 -0.007 0.01
      vertex 0.022366025 -0.007 0.009
      vertex 0.022 -0.0073660254 0.01
    endloop
  endfacet
  facet normal -0.7071071675569852 0.7071063948158988 0.0
    outer loop
      vertex 0.022366025 -0.007 0.009
      vertex 0.022 -0.0073660254 0.009
      vertex 0.022 -0.0073660254 0.01
    endloop
  endfacet
  facet normal -0.2588190519237514 0.9659258244613249 0.0
    outer loop
      vertex 0.022 -0.0073660254 0.01
      vertex 0.022 -0.0073660254 0.009
      vertex 0.0215 -0.0075 0.01
    endloop
  endfacet
  facet normal -0.2588190519237514 0.9659258244613249 0.0
    outer loop
      vertex 0.022 -0.0073660254 0.009
      vertex 0.0215 -0.0075 0.009
      vertex 0.0215 -0.0075 0.01
    endloop
  endfacet
  facet normal 0.0 0.0 1.0
    outer loop
      vertex 0.0225 0.0065 0.009
      vertex -0.0225 0.0065 0.009
      vertex 0.0225 -0.0065 0.009
    endloop
  endfacet
  facet normal 0.0 0.0 1.0
    outer loop
      vertex -0.0225 0.0065 0.009
      vertex -0.0225 -0.0065 0.009
      vertex 0.0225 -0.0065 0.009
    endloop
  endfacet
  facet normal -0.0 0.0 1.0
    outer loop
      vertex -0.022 0.0073660254 0.009
      vertex -0.022366025 0.007 0.009
      vertex -0.0215 0.0075 0.009
    endloop
  endfacet
  facet normal -0.0 0.0 1.0
    outer loop
      vertex -0.022366025 0.007 0.009
      vertex -0.0225 0.0065 0.009
      vertex -0.0215 0.0075 0.009
    endloop
  endfacet
  facet normal -0.0 0.0 1.0
    outer loop
      vertex -0.0215 0.0075 0.009
      vertex -0.0225 0.0065 0.009
      vertex 0.0215 0.0075 0.009
    endloop
  endfacet
  facet normal 0.0 0.0 1.0
    outer loop
      vertex -0.0225 0.0065 0.009
      vertex 0.0225 0.0065 0.009
      vertex 0.0215 0.0075 0.009
    endloop
  endfacet
  facet normal 0.0 0.0 1.0
    outer loop
      vertex 0.0215 0.0075 0.009
      vertex 0.0225 0.0065 0.009
      vertex 0.022 0.0073660254 0.009
    endloop
  endfacet
  facet normal 0.0 0.0 1.0
    outer loop
      vertex 0.0225 0.0065 0.009
      vertex 0.022366025 0.007 0.009
      vertex 0.022 0.0073660254 0.009
    endloop
  endfacet
  facet normal 0.0 -0.0 1.0
    outer loop
      vertex 0.022 -0.0073660254 0.009
      vertex 0.022366025 -0.007 0.009
      vertex 0.0215 -0.0075 0.009
    endloop
  endfacet
  facet normal 0.0 -0.0 1.0
    outer loop
      vertex 0.022366025 -0.007 0.009
      vertex 0.0225 -0.0065 0.009
      vertex 0.0215 -0.0075 0.009
    endloop
  endfacet
  facet normal 0.0 -0.0 1.0
    outer loop
      vertex 0.0215 -0.0075 0.009
      vertex 0.0225 -0.0065 0.009
      vertex -0.0215 -0.0075 0.009
    endloop
  endfacet
  facet normal 0.0 0.0 1.0
    outer loop
      vertex 0.0225 -0.0065 0.009
      vertex -0.0225 -0.0065 0.009
      vertex -0.0215 -0.0075 0.009
    endloop
  endfacet
  facet normal 0.0 0.0 1.0
    outer loop
      vertex -0.0215 -0.0075 0.009
      vertex -0.0225 -0.0065 0.009
      vertex -0.022 -0.0073660254 0.009
    endloop
  endfacet
  facet normal 0.0 0.0 1.0
    outer loop
      vertex -0.0225 -0.0065 0.009
      vertex -0.022366025 -0.007 0.009
      vertex -0.022 -0.0073660254 0.009
    endloop
  endfacet
  facet normal -1.0 -0.0 -0.0
    outer loop
      vertex 0.0225 0.0065 0.01
      vertex 0.0225 0.0065 0.009
      vertex 0.0225 -0.0065 0.01
    endloop
  endfacet
  facet normal -1.0 0.0 0.0
    outer loop
      vertex 0.0225 0.0065 0.009
      vertex 0.0225 -0.0065 0.009
      vertex 0.0225 -0.0065 0.01
    endloop
  endfacet
  facet normal 0.2588190519237514 0.9659258244613249 0.0
    outer loop
      vertex -0.0215 -0.0075 0.01
      vertex -0.0215 -0.0075 0.009
      vertex -0.022 -0.0073660254 0.01
    endloop
  endfacet
  facet normal 0.2588190519237514 0.9659258244613249 0.0
    outer loop
      vertex -0.0215 -0.0075 0.009
      vertex -0.022 -0.0073660254 0.009
      vertex -0.022 -0.0073660254 0.01
    endloop
  endfacet
  facet normal 0.7071071675569852 0.7071063948158988 0.0
    outer loop
      vertex -0.022 -0.0073660254 0.01
      vertex -0.022 -0.0073660254 0.009
      vertex -0.022366025 -0.007 0.01
    endloop
  endfacet
  facet normal 0.7071071675569852 0.7071063948158988 0.0
    outer loop
      vertex -0.022 -0.0073660254 0.009
      vertex -0.022366025 -0.007 0.009
      vertex -0.022366025 -0.007 0.01
    endloop
  endfacet
  facet normal 0.9659256312759256 0.2588197729003801 0.0
    outer loop
      vertex -0.022366025 -0.007 0.01
      vertex -0.022366025 -0.007 0.009
      vertex -0.0225 -0.0065 0.01
    endloop
  endfacet
  facet normal 0.9659256312759256 0.2588197729003801 0.0
    outer loop
      vertex -0.022366025 -0.007 0.009
      vertex -0.0225 -0.0065 0.009
      vertex -0.0225 -0.0065 0.01
    endloop
  endfacet
  facet normal 1.0 0.0 -0.0
    outer loop
      vertex -0.0225 0.0065 0.009
      vertex -0.0225 0.0065 0.01
      vertex -0.0225 -0.0065 0.009
    endloop
  endfacet
  facet normal 1.0 0.0 0.0
    outer loop
      vertex -0.0225 0.0065 0.01
      vertex -0.0225 -0.0065 0.01
      vertex -0.0225 -0.0065 0.009
    endloop
  endfacet
  facet normal -0.2588190519237514 -0.9659258244613249 -0.0
    outer loop
      vertex 0.0215 0.0075 0.01
      vertex 0.0215 0.0075 0.009
      vertex 0.022 0.0073660254 0.01
    endloop
  endfacet
  facet normal -0.2588190519237514 -0.9659258244613249 0.0
    outer loop
      vertex 0.0215 0.0075 0.009
      vertex 0.022 0.0073660254 0.009
      vertex 0.022 0.0073660254 0.01
    endloop
  endfacet
  facet normal -0.7071071675569852 -0.7071063948158988 -0.0
    outer loop
      vertex 0.022 0.0073660254 0.01
      vertex 0.022 0.0073660254 0.009
      vertex 0.022366025 0.007 0.01
    endloop
  endfacet
  facet normal -0.7071071675569852 -0.7071063948158988 0.0
    outer loop
      vertex 0.022 0.0073660254 0.009
      vertex 0.022366025 0.007 0.009
      vertex 0.022366025 0.007 0.01
    endloop
  endfacet
  facet normal -0.9659256312759256 -0.2588197729003801 -0.0
    outer loop
      vertex 0.022366025 0.007 0.01
      vertex 0.022366025 0.007 0.009
      vertex 0.0225 0.0065 0.01
    endloop
  endfacet
  facet normal -0.9659256312759256 -0.2588197729003801 0.0
    outer loop
      vertex 0.022366025 0.007 0.009
      vertex 0.0225 0.0065 0.009
      vertex 0.0225 0.0065 0.01
    endloop
  endfacet
  facet normal 0.9659256312759256 -0.2588197729003801 0.0
    outer loop
      vertex -0.0225 0.0065 0.01
      vertex -0.0225 0.0065 0.009
      vertex -0.022366025 0.007 0.01
    endloop
  endfacet
  facet normal 0.9659256312759256 -0.2588197729003801 0.0
    outer loop
      vertex -0.0225 0.0065 0.009
      vertex -0.022366025 0.007 0.009
      vertex -0.022366025 0.007 0.01
    endloop
  endfacet
  facet normal 0.7071071675569852 -0.7071063948158988 0.0
    outer loop
      vertex -0.022366025 0.007 0.01
      vertex -0.022366025 0.007 0.009
      vertex -0.022 0.0073660254 0.01
    endloop
  endfacet
  facet normal 0.7071071675569852 -0.7071063948158988 0.0
    outer loop
      vertex -0.022366025 0.007 0.009
      vertex -0.022 0.0073660254 0.009
      vertex -0.022 0.0073660254 0.01
    endloop
  endfacet
  facet normal 0.2588190519237514 -0.9659258244613249 0.0
    outer loop
      vertex -0.022 0.0073660254 0.01
      vertex -0.022 0.0073660254 0.009
      vertex -0.0215 0.0075 0.01
    endloop
  endfacet
  facet normal 0.2588190519237514 -0.9659258244613249 0.0
    outer loop
      vertex -0.022 0.0073660254 0.009
      vertex -0.0215 0.0075 0.009
      vertex -0.0215 0.0075 0.01
    endloop
  endfacet
  facet normal 0.0 1.0 0.0
    outer loop
      vertex -0.0215 -0.0075 0.009
      vertex -0.0215 -0.0075 0.01
      vertex 0.0215 -0.0075 0.009
    endloop
  endfacet
  facet normal -0.0 1.0 0.0
    outer loop
      vertex -0.0215 -0.0075 0.01
      vertex 0.0215 -0.0075 0.01
      vertex 0.0215 -0.0075 0.009
    endloop
  endfacet
  facet normal 0.0 -1.0 0.0
    outer loop
      vertex -0.0215 0.0075 0.01
      vertex -0.0215 0.0075 0.009
      vertex 0.0215 0.0075 0.01
    endloop
  endfacet
  facet normal 0.0 -1.0 0.0
    outer loop
      vertex -0.0215 0.0075 0.009
      vertex 0.0215 0.0075 0.009
      vertex 0.0215 0.0075 0.01
    endloop
  endfacet
  facet normal 1.0 0.0 0.0
    outer loop
      vertex 0.02775 0.01 0.01
      vertex 0.02775 -0.01 0.01
      vertex 0.02775 0.01 0.0
    endloop
  endfacet
  facet normal 1.0 0.0 0.0
    outer loop
      vertex 0.02775 -0.01 0.01
      vertex 0.02775 -0.01 0.0
      vertex 0.02775 0.01 0.0
    endloop
  endfacet
  facet normal -0.0 -1.0 -0.0
    outer loop
      vertex 0.02775 -0.01 0.01
      vertex -0.02775 -0.01 0.01
      vertex 0.02775 -0.01 0.0
    endloop
  endfacet
  facet normal 0.0 -1.0 0.0
    outer loop
      vertex -0.02775 -0.01 0.01
      vertex -0.02775 -0.01 0.0
      vertex 0.02775 -0.01 0.0
    endloop
  endfacet
  facet normal -1.0 0.0 0.0
    outer loop
      vertex -0.02775 -0.01 0.01
      vertex -0.02775 0.01 0.01
      vertex -0.02775 -0.01 0.0
    endloop
  endfacet
  facet normal -1.0 0.0 -0.0
    outer loop
      vertex -0.02775 0.01 0.01
      vertex -0.02775 0.01 0.0
      vertex -0.02775 -0.01 0.0
    endloop
  endfacet
  facet normal -0.0 1.0 0.0
    outer loop
      vertex -0.02775 0.01 0.01
      vertex 0.02775 0.01 0.01
      vertex -0.02775 0.01 0.0
    endloop
  endfacet
  facet normal 0.0 1.0 0.0
    outer loop
      vertex 0.02775 0.01 0.01
      vertex 0.02775 0.01 0.0
      vertex -0.02775 0.01 0.0
    endloop
  endfacet
endsolid voltmeter_1
